<svg xmlns="http://www.w3.org/2000/svg" viewBox="0 0 110.929688 115.429687">
<g transform="translate(-39.644531,-61.804688)">
<path fill="#232320" d="M 136.511719 122.21875 C 136.082031 119.867188 129.011719 120.542969 128.628906 122.378906 L 127.472656 130.152344 C 126.882812 134.117188 123.136719 136.496094 118.980469 136.542969 L 110.042969 136.644531 C 107.054688 136.675781 104.417969 136.097656 101.574219 135.402344 C 102.085938 140.726562 100.359375 145.097656 96.421875 148.039062 L 101.347656 175.738281 C 101.480469 176.480469 100.8125 177.035156 100.421875 177.144531 C 99.921875 177.28125 98.960938 176.980469 98.808594 176.132812 L 94.019531 149.484375 C 88.09375 151.890625 83.992188 149.121094 79.523438 153.628906 L 74.117188 159.078125 C 70.660156 162.570312 66.253906 164.6875 61.085938 165.003906 L 61.03125 175.808594 C 61.027344 176.632812 60.378906 177.226562 59.820312 177.222656 C 57.152344 177.191406 59.335938 168.292969 58.386719 165.007812 C 46.582031 163.570312 41.503906 148.707031 39.886719 138.796875 C 39.066406 133.78125 40.347656 129.074219 42.910156 124.851562 C 39.804688 121.105469 39.652344 116.179688 42.410156 112.332031 L 54.785156 95.082031 C 57.414062 91.417969 60.980469 89.082031 65.40625 88.320312 L 73.128906 86.984375 C 69.085938 82.078125 68.078125 75.6875 71.019531 69.992188 C 73.695312 64.8125 79.191406 61.34375 85.589844 61.863281 C 92.054688 62.382812 97.246094 67.277344 98.726562 72.988281 C 100.4375 79.566406 97.929688 85.992188 92.136719 89.847656 C 99.382812 93.597656 103.703125 95.890625 105.753906 104.15625 L 109.277344 118.371094 L 128.964844 111.867188 L 132.136719 108.871094 C 132.347656 107.914062 131.246094 106.230469 132.703125 105.695312 C 134.164062 105.160156 134.292969 107.441406 134.921875 107.71875 C 135.347656 107.910156 136.109375 107.496094 136.59375 107.246094 C 137.40625 106.828125 135.628906 104.535156 137.390625 104.054688 C 139.257812 103.542969 138.382812 106.902344 140.535156 105.988281 C 142.601562 105.109375 140.082031 103.53125 141.566406 102.574219 C 142.046875 102.269531 142.914062 102.261719 143.296875 103.070312 C 143.527344 103.5625 143.730469 104.304688 144.371094 104.289062 C 145.015625 104.269531 146.097656 103.558594 146.683594 104.226562 C 151.714844 109.957031 150.320312 109.414062 150.570312 115.851562 C 150.609375 116.859375 148.796875 117.238281 148.480469 117.597656 C 148.019531 118.113281 149.167969 119.953125 147.78125 120.40625 C 145.617188 121.113281 146.957031 117.660156 144.507812 118.417969 C 142.304688 119.097656 144.992188 121.097656 143.09375 121.734375 C 140.703125 122.539062 142.269531 119.292969 139.707031 119.835938 C 137.359375 120.328125 140.113281 122.292969 138.351562 123.246094 C 137.671875 123.613281 136.683594 123.171875 136.511719 122.214844 Z M 96.648438 76.894531 C 96.648438 70.074219 91.117188 64.542969 84.300781 64.542969 C 77.480469 64.542969 71.953125 70.074219 71.953125 76.894531 C 71.953125 83.71875 77.480469 89.246094 84.300781 89.246094 C 91.117188 89.246094 96.648438 83.71875 96.648438 76.894531 Z M 62.171875 117.597656 C 66.46875 118.21875 70.472656 119.074219 73.824219 117.074219 L 79.011719 113.976562 C 83.699219 111.175781 89.371094 112.058594 93.515625 115.730469 C 94.609375 114.238281 93.808594 108.480469 96.066406 109.3125 C 96.570312 109.496094 97.003906 109.957031 96.917969 110.667969 L 96.066406 117.460938 C 95.847656 119.207031 96.902344 120.980469 97.90625 122.203125 L 106.617188 119.421875 L 103.152344 104.542969 C 101.433594 97.167969 95.554688 94.21875 89.136719 91.472656 C 84.414062 92.46875 79.753906 92.222656 75.652344 89.210938 C 65.574219 90.820312 61.242188 90.390625 55.414062 98.714844 L 44.117188 114.828125 C 42.101562 117.707031 43.183594 121.402344 45.605469 123.597656 C 47.597656 125.40625 49.707031 126.707031 51.871094 128.273438 L 64.867188 137.679688 C 66.46875 138.839844 68.425781 139.441406 70.261719 138.492188 C 71.921875 137.632812 72.597656 135.964844 72.632812 134.410156 C 72.671875 132.800781 71.914062 131.527344 70.5625 130.457031 L 55.4375 118.496094 C 54.75 117.949219 54.714844 116.894531 55.214844 116.273438 L 62.828125 106.800781 C 63.25 106.273438 64.378906 106.675781 64.617188 107.039062 C 65.597656 108.542969 63.148438 110.082031 62.90625 111.355469 C 62.519531 113.40625 62.480469 115.308594 62.175781 117.601562 Z M 138.160156 117.714844 L 147.917969 114.804688 C 148.109375 109.777344 148.210938 110.230469 145.390625 106.753906 L 133.984375 111.191406 C 133.140625 111.519531 131.703125 112.359375 131.667969 113.332031 C 131.601562 115.066406 132.582031 116.664062 133.203125 118.097656 C 134.914062 118.570312 136.390625 118.246094 138.160156 117.71875 Z M 127.515625 119.269531 C 128.476562 119.394531 129.53125 118.726562 130.320312 118.414062 C 130.125 116.929688 129.644531 115.746094 128.910156 114.628906 C 127.136719 115.300781 125.605469 115.632812 123.582031 116.746094 C 125.289062 116.75 126.121094 118.210938 127.515625 119.269531 Z M 72.589844 128.65625 C 75.824219 124.914062 79.914062 124.976562 83.703125 126.710938 C 87.472656 125.921875 91.332031 124.210938 95.027344 123.003906 C 93.4375 118.515625 89.976562 115.515625 85.566406 114.992188 C 80.851562 114.433594 77.175781 119.21875 72.386719 120.453125 C 67.453125 121.726562 61.085938 119.234375 62.988281 121.109375 Z M 114.777344 124.183594 L 116.179688 118.945312 L 86.285156 128.835938 C 87.011719 130.507812 87.429688 131.777344 87.859375 133.8125 Z M 101.433594 131.890625 C 103.246094 134.691406 114.6875 133.871094 118.816406 133.875 C 125.332031 133.878906 126.128906 125.921875 125.480469 121.699219 C 125.183594 119.773438 123.289062 118.972656 121.769531 118.96875 C 120.136719 118.964844 118.65625 120.097656 118.046875 121.859375 C 116.992188 124.917969 118.257812 129.035156 116.390625 129.429688 C 116.082031 129.492188 115.5 129.449219 115.191406 129.011719 C 114.777344 128.421875 114.863281 127.75 114.542969 127.113281 Z M 85.570312 139.554688 C 82.046875 143.433594 76.660156 143.5625 72.953125 139.957031 C 66.308594 144.269531 64.027344 139.421875 58.996094 137.003906 L 61.707031 145.820312 C 62.867188 145.871094 64.449219 145.082031 64.8125 146.292969 C 65.40625 148.273438 61.4375 148.980469 60.675781 148.988281 C 60.117188 148.992188 59.722656 148.152344 59.566406 147.644531 L 55.289062 133.859375 L 44.921875 126.695312 C 39.503906 134.320312 43.925781 146.964844 47.878906 154.214844 C 49.679688 157.519531 52.398438 160.363281 55.96875 161.628906 C 61.082031 163.445312 66.421875 161.941406 70.515625 158.578125 C 77.144531 153.140625 78.804688 147.894531 87.675781 147.921875 C 90.875 147.933594 94.296875 146.882812 96.4375 144.464844 C 99.148438 141.402344 99.570312 137.105469 98.40625 133.15625 L 87.679688 136.789062 C 86.890625 137.46875 86.402344 138.632812 85.566406 139.554688 Z M 74.859375 137.933594 C 75.867188 139.550781 78.339844 140.183594 80.058594 139.867188 C 81.535156 139.597656 83.214844 138.609375 84.148438 136.917969 C 85.757812 134.011719 84.917969 130.683594 82.179688 128.910156 C 80.285156 127.683594 75.566406 127.585938 74.953125 130.679688 C 74.542969 132.761719 76.0625 135.460938 74.859375 137.933594 Z M 74.859375 137.933594 " fill-opacity="1" fill-rule="nonzero"/>

</g>
</svg>