<svg xmlns="http://www.w3.org/2000/svg" viewBox="0 0 54.703125 134.88281300000017">
<g transform="translate(-53.015625,-1306.691406)">
<path fill="#000000" d="M 53.019531 1346.65625 L 53.019531 1381.625 C 53.019531 1387.140625 57.476562 1391.617188 62.964844 1391.617188 L 62.964844 1436.578125 C 62.964844 1439.339844 65.1875 1441.574219 67.9375 1441.574219 L 92.796875 1441.574219 C 95.546875 1441.574219 97.769531 1439.339844 97.769531 1436.578125 L 97.769531 1391.617188 C 103.261719 1391.617188 107.714844 1387.140625 107.714844 1381.625 L 107.714844 1346.65625 C 107.714844 1341.140625 103.261719 1336.664062 97.769531 1336.664062 L 92.523438 1336.664062 C 95.757812 1333.492188 97.769531 1329.078125 97.769531 1324.175781 C 97.769531 1314.515625 89.984375 1306.691406 80.367188 1306.691406 C 70.75 1306.691406 62.964844 1314.515625 62.964844 1324.175781 C 62.964844 1329.078125 64.976562 1333.492188 68.210938 1336.664062 L 62.964844 1336.664062 C 57.476562 1336.664062 53.019531 1341.140625 53.019531 1346.65625 Z M 67.9375 1324.175781 C 67.9375 1317.289062 73.511719 1311.6875 80.367188 1311.6875 C 87.226562 1311.6875 92.796875 1317.289062 92.796875 1324.175781 C 92.796875 1331.066406 87.226562 1336.664062 80.367188 1336.664062 C 73.511719 1336.664062 67.9375 1331.066406 67.9375 1324.175781 Z M 97.769531 1341.660156 C 100.515625 1341.660156 102.742188 1343.898438 102.742188 1346.65625 L 102.742188 1381.625 C 102.742188 1384.382812 100.515625 1386.621094 97.769531 1386.621094 L 97.769531 1356.648438 L 92.796875 1356.648438 L 92.796875 1436.578125 L 82.855469 1436.578125 L 82.855469 1386.621094 L 77.882812 1386.621094 L 77.882812 1436.578125 L 67.9375 1436.578125 L 67.9375 1356.648438 L 62.964844 1356.648438 L 62.964844 1386.621094 C 60.21875 1386.621094 57.992188 1384.382812 57.992188 1381.625 L 57.992188 1346.65625 C 57.992188 1343.898438 60.21875 1341.660156 62.964844 1341.660156 Z M 97.769531 1341.660156 " fill-opacity="1" fill-rule="nonzero"/>

</g>
</svg>