<svg xmlns="http://www.w3.org/2000/svg" viewBox="0 0 70.0 93.86328100000003">
<g transform="translate(-701.0,-748.0)">
<path fill="#000000" d="M 717.179688 841.757812 C 713.941406 841.757812 711.125 839.605469 710.257812 836.453125 C 710.257812 836.453125 710.257812 836.425781 710.257812 836.425781 L 705.765625 818.34375 C 705.039062 815.355469 705.738281 812.316406 707.746094 809.972656 C 709.726562 807.628906 712.628906 806.425781 715.699219 806.707031 L 721.503906 807.207031 L 719.078125 790.882812 L 707.382812 777.65625 C 705.683594 775.730469 704.566406 773.414062 704.148438 770.902344 L 701.605469 756 C 701.550781 755.609375 701.523438 755.21875 701.523438 754.859375 C 701.523438 753.128906 702.191406 751.453125 703.394531 750.167969 C 704.453125 749.027344 705.90625 748.300781 707.46875 748.078125 C 709.644531 747.769531 711.847656 748.550781 713.355469 750.167969 C 714.164062 751.035156 714.722656 752.066406 715.003906 753.210938 L 718.9375 769.117188 C 719.496094 770.011719 721.8125 773.636719 724.964844 777.042969 C 728.59375 780.976562 731.328125 782.316406 735.824219 782.316406 C 740.289062 782.316406 743.023438 780.976562 746.679688 777.042969 C 749.832031 773.636719 752.148438 770.011719 752.707031 769.117188 L 756.640625 753.210938 C 756.921875 752.066406 757.507812 751.007812 758.289062 750.167969 C 759.796875 748.578125 762 747.796875 764.175781 748.078125 C 765.738281 748.300781 767.164062 749.027344 768.25 750.167969 C 769.453125 751.453125 770.121094 753.101562 770.121094 754.859375 C 770.121094 755.25 770.09375 755.640625 770.039062 756 L 767.496094 770.902344 C 767.078125 773.414062 765.964844 775.757812 764.261719 777.65625 L 752.566406 790.882812 L 750.140625 807.207031 L 755.945312 806.707031 C 759.015625 806.457031 761.917969 807.65625 763.898438 809.972656 C 765.878906 812.316406 766.605469 815.355469 765.878906 818.34375 L 761.386719 836.425781 C 761.386719 836.425781 761.386719 836.453125 761.386719 836.453125 C 760.492188 839.71875 757.507812 841.894531 754.128906 841.753906 C 750.277344 841.589844 747.265625 838.433594 747.265625 834.585938 C 747.265625 834.082031 747.320312 833.550781 747.433594 833.078125 L 749.972656 821.246094 L 742.910156 822.304688 C 738.25 823.003906 733.535156 823.003906 728.84375 822.304688 L 721.785156 821.246094 L 724.324219 833.078125 C 724.4375 833.550781 724.492188 834.082031 724.492188 834.585938 C 724.492188 838.433594 721.476562 841.589844 717.625 841.753906 C 717.402344 841.757812 717.292969 841.757812 717.179688 841.757812 Z M 713.496094 835.589844 C 713.96875 837.320312 715.5625 838.464844 717.347656 838.40625 C 719.414062 838.324219 721.03125 836.648438 721.03125 834.585938 C 721.03125 834.304688 721.003906 834.027344 720.949219 833.773438 L 717.90625 819.570312 C 717.792969 819.039062 717.933594 818.484375 718.324219 818.0625 C 718.714844 817.644531 719.246094 817.476562 719.804688 817.5625 L 729.265625 818.984375 C 733.589844 819.625 738 819.625 742.324219 818.984375 L 751.785156 817.5625 C 752.34375 817.476562 752.875 817.671875 753.265625 818.0625 C 753.628906 818.453125 753.796875 819.011719 753.683594 819.570312 L 750.640625 833.746094 C 750.585938 834 750.558594 834.277344 750.558594 834.554688 C 750.558594 836.621094 752.175781 838.296875 754.242188 838.378906 C 756.054688 838.464844 757.617188 837.320312 758.09375 835.5625 L 762.585938 817.507812 C 763.0625 815.582031 762.585938 813.628906 761.300781 812.121094 C 760.019531 810.613281 758.148438 809.832031 756.167969 810 L 748.242188 810.667969 C 747.738281 810.726562 747.238281 810.53125 746.875 810.140625 C 746.511719 809.777344 746.371094 809.246094 746.425781 808.742188 L 749.246094 789.824219 C 749.300781 789.515625 749.441406 789.210938 749.636719 788.957031 L 761.664062 775.339844 C 762.949219 773.890625 763.785156 772.132812 764.121094 770.234375 L 766.660156 755.332031 C 766.6875 755.136719 766.714844 754.941406 766.714844 754.746094 C 766.714844 753.851562 766.382812 753.015625 765.769531 752.347656 C 765.210938 751.761719 764.484375 751.398438 763.703125 751.285156 C 762.585938 751.144531 761.46875 751.535156 760.6875 752.347656 C 760.269531 752.792969 759.992188 753.324219 759.851562 753.910156 L 755.859375 770.066406 C 755.832031 770.234375 755.75 770.375 755.664062 770.511719 C 755.554688 770.707031 752.929688 775.035156 749.105469 779.191406 C 744.835938 783.851562 741.238281 785.582031 735.792969 785.582031 C 730.351562 785.582031 726.753906 783.851562 722.480469 779.21875 C 718.632812 775.0625 716.035156 770.734375 715.925781 770.539062 C 715.839844 770.402344 715.785156 770.234375 715.730469 770.09375 L 711.738281 753.9375 C 711.597656 753.351562 711.320312 752.820312 710.902344 752.375 C 710.117188 751.566406 709.003906 751.144531 707.886719 751.3125 C 707.078125 751.425781 706.351562 751.789062 705.820312 752.375 C 705.207031 753.015625 704.871094 753.882812 704.871094 754.773438 C 704.871094 754.96875 704.898438 755.164062 704.929688 755.359375 L 707.46875 770.261719 C 707.804688 772.160156 708.640625 773.917969 709.921875 775.367188 L 721.953125 788.984375 C 722.175781 789.238281 722.316406 789.515625 722.34375 789.851562 L 725.160156 808.769531 C 725.246094 809.273438 725.078125 809.804688 724.714844 810.167969 C 724.351562 810.53125 723.851562 810.726562 723.347656 810.695312 L 715.421875 810.027344 C 713.441406 809.859375 711.570312 810.640625 710.285156 812.148438 C 709.003906 813.65625 708.527344 815.636719 709.003906 817.535156 Z M 713.496094 835.589844 " fill-opacity="1" fill-rule="nonzero"/>

</g>
</svg>