<svg xmlns="http://www.w3.org/2000/svg" viewBox="0 0 42.01953100000003 69.0">
<g transform="translate(-921.0,-738.0)">
<path fill="#000000" d="M 940.453125 806.074219 C 938.78125 806.074219 937.109375 805.414062 935.410156 804.148438 C 929.941406 805.308594 925.402344 805.625 923.886719 800.078125 C 923.570312 798.835938 923.78125 797.621094 924.5 796.511719 C 926.753906 793.15625 933.3125 791.964844 933.367188 791.964844 C 933.765625 791.914062 934.773438 791.78125 939.523438 794.292969 L 947.726562 777.777344 C 945.390625 776.035156 943.109375 774.15625 940.933594 772.203125 C 939.101562 770.5625 937.320312 768.820312 935.621094 767.050781 C 935.011719 766.414062 935.039062 765.410156 935.675781 764.804688 C 936.3125 764.195312 937.320312 764.222656 937.933594 764.855469 C 939.578125 766.574219 941.304688 768.238281 943.054688 769.824219 C 945.472656 771.992188 948.046875 774.078125 950.675781 775.980469 C 951.3125 776.429688 951.496094 777.273438 951.152344 777.960938 L 941.675781 797.171875 C 941.488281 797.566406 941.144531 797.859375 940.71875 797.992188 C 940.292969 798.121094 939.84375 798.070312 939.472656 797.859375 C 937.269531 796.644531 934.480469 795.296875 933.683594 795.136719 C 932.382812 795.347656 928.292969 796.617188 927.179688 798.28125 C 926.886719 798.703125 926.914062 799.019531 926.992188 799.257812 C 927.578125 801.453125 928.242188 802.535156 935.488281 800.898438 C 935.96875 800.792969 936.5 800.921875 936.871094 801.242188 C 938.332031 802.484375 939.683594 803.039062 940.878906 802.90625 C 943.003906 802.640625 944.703125 800.238281 945.949219 798.492188 L 946.054688 798.335938 C 946.640625 797.488281 947.78125 796.140625 949.214844 794.421875 C 952.613281 790.300781 958.320312 783.433594 959.515625 779.945312 C 960.816406 776.191406 957.84375 772.785156 954.710938 769.191406 C 954.339844 768.765625 953.96875 768.34375 953.621094 767.921875 C 952.535156 766.652344 950.96875 764.75 949.292969 762.714844 C 946.027344 758.753906 940.535156 752.09375 939.5 751.382812 C 938.304688 750.535156 933.632812 749.1875 927.3125 748.316406 C 925.214844 748.027344 923.597656 747.128906 922.507812 745.671875 C 920.730469 743.320312 921.125 740.414062 921.179688 740.070312 C 921.3125 739.199219 922.136719 738.617188 922.984375 738.75 C 923.859375 738.882812 924.445312 739.675781 924.3125 740.546875 C 924.207031 741.234375 923.941406 744.644531 927.765625 745.171875 C 932.621094 745.832031 939.074219 747.207031 941.355469 748.792969 C 942.65625 749.691406 946.320312 754.101562 951.761719 760.707031 C 953.410156 762.714844 954.976562 764.617188 956.039062 765.859375 C 956.382812 766.285156 956.753906 766.679688 957.125 767.101562 C 960.550781 771.039062 964.425781 775.480469 962.542969 780.972656 C 961.160156 784.992188 955.691406 791.597656 951.683594 796.433594 C 950.355469 798.042969 949.214844 799.417969 948.683594 800.15625 L 948.578125 800.316406 C 947.089844 802.429688 944.808594 805.601562 941.304688 806.050781 C 940.984375 806.074219 940.71875 806.074219 940.453125 806.074219 Z M 940.453125 806.074219 " fill-opacity="1" fill-rule="nonzero"/>

</g>
</svg>