<svg xmlns="http://www.w3.org/2000/svg" viewBox="0 0 113.832031 104.0">
<g transform="translate(-51.0,-549.0)">
<path fill="#000000" d="M 103.355469 598.417969 C 100.894531 600.449219 99.152344 597.582031 93.765625 599.90625 C 89.484375 601.75 86.019531 604.484375 83.277344 608.292969 C 81.585938 610.644531 80.777344 613.675781 81.460938 616.664062 C 82.339844 620.476562 85.820312 624.355469 89.476562 625.554688 C 95.039062 627.378906 100.613281 626.710938 105.566406 623.800781 L 110.34375 620.988281 C 110.820312 620.707031 111.984375 620.203125 112.535156 620.101562 C 118.773438 618.992188 120.308594 621.304688 126.296875 620.203125 C 128.289062 619.839844 132.839844 617.902344 133.738281 615.789062 C 131.453125 612.710938 124.914062 615.179688 124.191406 614.21875 C 123.957031 613.902344 123.769531 613.222656 123.632812 612.53125 C 122.992188 609.371094 131.652344 610.210938 133.957031 611.410156 C 140.609375 614.867188 139.085938 616.566406 148.273438 616.914062 C 149.355469 616.957031 150.648438 617.039062 151.621094 616.867188 C 157.402344 615.84375 161.65625 609.6875 159.117188 603.464844 C 157.820312 600.285156 161.890625 600.144531 159.417969 591.308594 C 159.09375 590.140625 158.109375 589.003906 157.25 588.160156 C 156.21875 587.144531 154.683594 586.941406 153.726562 588.277344 C 153.070312 589.195312 152.003906 590.933594 151.964844 591.988281 L 151.847656 595.261719 C 151.820312 595.980469 151.015625 596.964844 150.320312 597.214844 C 149.722656 597.425781 148.152344 596.957031 148.007812 596.320312 C 146.878906 591.304688 149.046875 585.785156 153.921875 583.570312 C 153.917969 578.996094 151.945312 577.761719 152.082031 575.308594 C 152.140625 574.265625 154.554688 573.65625 155.085938 574.414062 C 156.035156 575.769531 157.050781 577.132812 157.394531 578.785156 L 158.371094 583.453125 C 159.378906 584.941406 161.1875 586.082031 162.105469 587.640625 C 164.285156 591.335938 164.957031 595.871094 163.78125 599.96875 C 163.414062 601.25 163.179688 602.324219 163.539062 603.644531 C 164.804688 608.296875 163.453125 613.328125 160.027344 616.710938 C 159.230469 617.5 158.363281 618.207031 157.453125 618.921875 C 157.03125 619.253906 155.738281 619.875 155.609375 620.398438 L 154.738281 623.941406 C 154.457031 625.078125 153.695312 626.363281 153.136719 627.484375 C 151.339844 631.113281 148.144531 633.609375 144.609375 635.535156 C 141.1875 637.40625 137.132812 637.90625 133.269531 637.691406 C 132.136719 639.753906 137.394531 649.011719 135.089844 651.710938 C 134.605469 652.273438 133.214844 652.992188 132.417969 653.003906 L 125.445312 653.101562 C 124.867188 653.109375 123.667969 652.40625 123.417969 651.804688 C 121.324219 646.761719 118.886719 642.101562 115.109375 638.121094 C 113.671875 636.605469 111.503906 635.867188 109.683594 634.667969 C 107.816406 633.433594 105.722656 631.164062 104.285156 629.527344 C 103.15625 628.242188 99.710938 631.910156 91.429688 630.273438 C 84.035156 628.8125 78.988281 624.046875 77.1875 616.457031 C 66.929688 618.269531 57.878906 615.335938 53.777344 605.148438 C 52.972656 603.152344 53.136719 600.882812 53.449219 598.699219 C 53.839844 595.964844 52.511719 596.664062 51.578125 592.273438 C 50.183594 585.699219 53.160156 578.070312 59.363281 574.941406 C 61.625 573.800781 60.121094 573.308594 62.46875 568.328125 C 65.054688 562.832031 69.929688 559 75.917969 557.625 C 82.609375 556.089844 79.429688 558.683594 82.75 555.574219 C 89.046875 549.683594 96.230469 548.503906 104.488281 551.414062 C 110.601562 548.320312 117.566406 548.28125 123.640625 551.738281 C 124.144531 552.023438 124.609375 553.050781 124.558594 553.652344 C 124.457031 554.816406 123.703125 555.644531 122.644531 555.878906 C 117.835938 556.945312 114.597656 561.113281 114.941406 566.117188 C 115.082031 568.121094 112.46875 568.085938 110.300781 570.335938 C 106.84375 573.921875 106.417969 577.152344 107.285156 581.929688 C 107.351562 582.453125 106.519531 583.269531 106.03125 583.464844 C 105.476562 583.6875 103.757812 583.429688 103.585938 582.792969 C 102.363281 577.808594 102.890625 573.457031 106.019531 569.207031 C 108.136719 566.335938 110.867188 565.511719 111.085938 564.28125 C 111.238281 563.398438 111.308594 561.824219 111.570312 561.078125 C 112.816406 557.582031 114.4375 555.960938 117.324219 553.753906 C 112.339844 552.378906 106.597656 553.589844 103.597656 557.785156 C 101.542969 560.652344 101.8125 563.941406 100.578125 564.5625 C 99.976562 564.867188 98.152344 564.546875 97.929688 563.902344 C 97.074219 561.414062 99.171875 557.132812 100.792969 554.628906 C 96.289062 552.800781 88.867188 554.523438 85.9375 558.757812 C 88.417969 559.976562 94.140625 565.234375 90.429688 567.25 C 88.359375 568.375 88.023438 564.554688 84.484375 562.421875 C 79.425781 559.371094 71.441406 562.574219 67.773438 567.363281 C 67.167969 568.152344 64.804688 572.53125 65.023438 573.6875 C 67.089844 574.515625 68.882812 575.105469 70.214844 576.570312 C 70.804688 577.21875 70.445312 578.863281 69.777344 579.320312 C 69.007812 579.84375 67.9375 579.785156 67.0625 578.996094 C 64.058594 576.289062 59.945312 578.589844 58.074219 581.15625 C 55.386719 584.847656 54.457031 588.375 55.941406 592.800781 C 57.328125 596.921875 58.578125 595.167969 57.484375 598.945312 C 56.757812 601.457031 57.355469 604.488281 58.964844 606.546875 L 60.429688 608.421875 C 61.410156 609.679688 64.105469 611.316406 65.648438 611.941406 C 68.882812 613.242188 72.214844 613.089844 75.699219 612.804688 C 78.359375 612.589844 77.179688 611.847656 78.710938 607.867188 C 71.847656 607.632812 67.683594 605.820312 64.222656 599.785156 C 63.8125 599.070312 63.539062 597.644531 63.429688 596.667969 C 63.292969 595.429688 64.742188 594.175781 66.105469 594.566406 C 68.269531 595.183594 66.675781 599.308594 71.582031 602.066406 C 74.347656 603.625 78.160156 604.421875 81.304688 603.570312 C 81.867188 603.417969 85.671875 600.648438 84.824219 599.367188 C 82.238281 595.472656 80.226562 596.101562 80.664062 593.804688 C 80.796875 593.121094 81.9375 592.359375 82.835938 592.5 C 84.023438 592.6875 85.371094 593.433594 85.964844 594.261719 L 88.390625 597.667969 L 93.964844 595.546875 C 95.722656 594.878906 98 595.167969 100.050781 595.160156 C 102.929688 595.152344 102.691406 592.25 109.058594 589.898438 C 115.6875 587.449219 118.390625 589.523438 120.21875 587.429688 C 123.640625 583.515625 122.21875 580.386719 124.960938 580.570312 C 125.726562 580.625 126.828125 581.804688 126.640625 582.6875 L 125.621094 587.492188 L 127.183594 588.070312 C 127.601562 588.222656 127.882812 589.460938 127.617188 589.832031 C 126.503906 591.394531 122.679688 592.257812 120.363281 592.289062 C 112.429688 592.390625 109.269531 593.53125 103.351562 598.414062 Z M 144.375 630.992188 C 148.269531 628.300781 149.8125 625.695312 151.140625 621.242188 L 144.433594 620.648438 C 142.085938 620.445312 139.550781 619.554688 137.332031 618.964844 C 129.863281 623.476562 130.597656 623.996094 121.992188 624.601562 L 121.160156 624.660156 C 119.957031 624.746094 123.546875 629.632812 126.101562 631.226562 C 131.574219 634.648438 139.101562 634.640625 144.375 630.996094 Z M 126.683594 649.027344 L 131.71875 648.953125 L 130.386719 644.082031 L 128.640625 637.054688 L 126.644531 636.015625 C 120.652344 632.90625 118.855469 630.683594 116.382812 623.910156 C 114.0625 623.875 111.800781 624.644531 109.808594 625.867188 L 108.078125 626.925781 C 108.78125 628.480469 109.929688 630.015625 111.265625 630.8125 L 113.84375 632.355469 C 116.398438 633.886719 118.78125 635.820312 120.496094 638.28125 L 122.464844 641.101562 C 124.085938 643.425781 125.269531 645.609375 126.683594 649.027344 Z M 126.683594 649.027344 " fill-opacity="1" fill-rule="nonzero"/>

</g>
</svg>