<svg xmlns="http://www.w3.org/2000/svg" viewBox="0 0 94.41796899999997 122.597656">
<g transform="translate(-237.570312,-111.0)">
<path fill="#333333" d="M 268.847656 172.632812 C 269.972656 173.546875 271.027344 175.40625 274.492188 178.246094 C 275.511719 179.085938 276.582031 179.96875 277.589844 180.84375 C 278.574219 181.703125 279.921875 182.738281 280.601562 183.679688 C 279.90625 185.992188 278.535156 188.5625 277.609375 190.867188 C 275.019531 197.285156 274.503906 199.453125 270.257812 204.378906 L 253.734375 224.421875 C 253.089844 225.257812 252.027344 226.699219 251.300781 227.40625 C 246.019531 232.535156 239.460938 225.582031 242.945312 220.441406 C 243.625 219.433594 244.460938 218.542969 245.203125 217.550781 L 261.394531 196.894531 C 263.304688 194.507812 263.582031 192.894531 264.5 189.445312 C 265.917969 184.105469 267.859375 177.980469 268.847656 172.632812 Z M 300.890625 128.320312 C 301.226562 129.644531 305.175781 135.351562 306.101562 136.726562 C 308.726562 140.609375 309.035156 140.300781 313.9375 142.183594 C 317.183594 143.429688 320.308594 144.710938 323.472656 145.933594 C 325.515625 146.726562 326.808594 146.867188 327.402344 148.800781 C 327.996094 150.742188 327.078125 152.253906 325.691406 153.015625 C 323.808594 154.046875 321.957031 153.023438 320.261719 152.367188 L 305.570312 146.996094 C 303.210938 146.148438 303.320312 145.640625 302.011719 143.792969 C 298.121094 138.285156 298.84375 140.972656 299.789062 134.039062 L 300.503906 129.007812 C 300.730469 128.414062 300.578125 128.710938 300.890625 128.320312 Z M 277.675781 115.925781 C 280.550781 115.398438 288.128906 115.859375 290.71875 116.90625 C 293.765625 118.132812 296.644531 120.996094 296.546875 125.25 C 296.46875 128.78125 295.410156 134.121094 294.949219 137.730469 L 291.648438 162.867188 C 291.300781 165.539062 290.75 166.53125 292.375 168.535156 C 294.59375 171.269531 298.765625 175.355469 300.804688 177.722656 L 309.222656 186.921875 C 311.519531 189.382812 312.105469 193.09375 313.449219 197.015625 L 320.640625 217.996094 C 321.898438 221.828125 323.8125 225.117188 320.300781 228 C 318.902344 229.140625 316.808594 229.566406 314.777344 228.726562 C 313.140625 228.054688 312.171875 226.6875 311.535156 224.925781 C 310.277344 221.453125 308.9375 218.144531 307.625 214.738281 C 306.09375 210.773438 301.390625 197.117188 299.554688 194.652344 L 288.226562 184.578125 C 286.859375 183.453125 285.882812 182.460938 284.519531 181.242188 L 276.921875 174.734375 C 269.289062 167.792969 268.453125 165.203125 269.957031 154.507812 L 272.5 136.050781 C 273.492188 128.71875 270.773438 130.359375 266.285156 133.054688 C 258.296875 137.855469 259.460938 136.410156 256.519531 144.703125 C 255.289062 148.171875 254.128906 151.65625 252.871094 155.105469 C 250.988281 160.269531 245.316406 158.054688 245.464844 154.230469 C 245.511719 153.042969 251.492188 134.964844 252.347656 132.953125 C 252.9375 131.550781 254.628906 130.546875 256.039062 129.609375 L 268.417969 120.84375 C 271.148438 118.980469 273.519531 116.695312 277.675781 115.925781 Z M 267.9375 137.230469 C 267.53125 141.292969 266.800781 145.332031 266.289062 149.347656 C 265.84375 152.832031 264.78125 158.386719 264.886719 161.769531 C 264.945312 163.542969 265.808594 166.699219 265.703125 167.660156 L 259.980469 189.5625 C 259.289062 192.039062 259.210938 192.667969 257.839844 194.433594 L 239.667969 217.707031 C 232.9375 226.261719 243.664062 237.875 252.90625 231.71875 C 254.695312 230.527344 260.875 222.484375 262.558594 220.492188 C 263.96875 218.828125 277.058594 203.042969 277.867188 201.394531 C 278.753906 199.578125 283.296875 187.613281 284.292969 186.652344 C 286.152344 188.722656 288.5625 190.339844 289.421875 191.226562 C 290.320312 192.160156 290.347656 192.066406 291.160156 192.746094 L 294.5625 195.84375 C 296.25 197.246094 296.398438 197.140625 297.429688 199.746094 C 299.9375 206.105469 302.222656 212.464844 304.636719 218.820312 C 307.097656 225.316406 308.5 232.96875 316.300781 233.414062 C 320.574219 233.65625 323.398438 231.542969 325.0625 229.226562 C 327.46875 225.882812 326.792969 222.410156 325.457031 218.625 C 323.121094 212.042969 321.027344 205.75 318.734375 199.089844 C 315.832031 190.632812 315.507812 186.742188 310.019531 181.53125 C 308.148438 179.753906 302.328125 172.878906 300.648438 171.378906 C 299.515625 170.367188 298.679688 169.132812 297.414062 167.863281 C 294.761719 165.203125 295.75 164.984375 296.675781 157.695312 C 297.148438 153.992188 297.503906 149.511719 298.230469 145.941406 C 299.652344 147.441406 300.265625 149.175781 302.277344 150.292969 L 321.925781 157.480469 C 327.367188 158.882812 331.800781 154.984375 331.957031 150.132812 C 332.140625 144.324219 327.625 142.871094 323.09375 141.167969 C 320.632812 140.238281 311.613281 137.136719 310.5625 135.8125 L 299.859375 119.699219 C 295.417969 112.796875 290.953125 111.671875 281.253906 111.433594 C 274.503906 111.265625 272.3125 113.019531 267.882812 115.984375 L 252.175781 127.113281 C 250.300781 128.511719 248.9375 129.363281 248.066406 131.953125 C 246.574219 136.363281 245.089844 140.984375 243.625 145.367188 C 242.183594 149.667969 239.632812 155.054688 242.671875 159.097656 C 245.382812 162.707031 251.304688 163.8125 254.984375 159.9375 C 256.695312 158.144531 256.90625 156.488281 257.84375 153.855469 L 262.5625 140.707031 C 263.136719 139.679688 266.652344 137.816406 267.9375 137.230469 Z M 267.9375 137.230469 " fill-opacity="1" fill-rule="evenodd"/>

</g>
</svg>