<svg xmlns="http://www.w3.org/2000/svg" viewBox="0 0 85.425781 125.851562">
<g transform="translate(-65.292969,-112.0)">
<path fill="#000000" d="M 139.964844 191.980469 C 138.65625 186.328125 125.285156 169.875 121.511719 165.316406 L 120.519531 149.210938 C 131.980469 158.101562 138.1875 160.164062 141.933594 160.160156 C 142.851562 160.167969 143.75 160.035156 144.628906 159.761719 C 148.867188 158.457031 150.085938 154.207031 150.484375 152.808594 C 151.28125 150.027344 149.789062 145.792969 133.613281 133.746094 C 126.375 128.359375 118.902344 123.460938 116.742188 122.0625 C 115.429688 118.933594 113.714844 116.574219 111.582031 114.945312 C 106.496094 111.0625 100.464844 112.292969 96.0625 113.191406 C 95.417969 113.324219 94.808594 113.449219 94.25 113.546875 C 91.589844 114.015625 87.167969 116.859375 76.460938 134.847656 C 70.71875 144.5 65.832031 154.117188 65.785156 154.210938 C 65.703125 154.375 65.640625 154.542969 65.597656 154.722656 C 64.84375 157.910156 65.234375 164.839844 72.082031 168.253906 C 72.703125 168.554688 73.359375 168.71875 74.050781 168.742188 C 74.738281 168.765625 75.40625 168.644531 76.042969 168.386719 C 77.414062 167.878906 81.582031 166.339844 90.03125 150.242188 C 91.023438 148.347656 91.964844 146.46875 92.816406 144.710938 C 92.855469 152.988281 92.957031 163.625 93.199219 166.84375 C 92.199219 170.140625 84.871094 193.390625 71.730469 210.378906 C 66.011719 217.765625 64.164062 223.828125 66.242188 228.390625 C 67.898438 232.042969 71.953125 234.328125 77.363281 234.664062 C 77.449219 234.671875 77.535156 234.671875 77.625 234.671875 C 80.652344 234.671875 85.3125 231.339844 97.742188 209.800781 C 102.496094 201.558594 106.875 193.222656 109.144531 188.820312 C 111.410156 191.457031 113.996094 194.429688 116.957031 197.785156 C 119.109375 200.230469 120.628906 203.023438 121.507812 206.15625 C 128.214844 230.285156 133.402344 235.363281 137.175781 237.085938 C 138.277344 237.601562 139.433594 237.855469 140.648438 237.855469 C 143.039062 237.855469 145.191406 236.847656 147.035156 235.980469 L 147.488281 235.769531 C 153.351562 233.039062 150.414062 221.410156 142.511719 199.484375 C 141.296875 196.109375 140.246094 193.195312 139.964844 191.980469 Z M 130.070312 136.839844 C 144.753906 147.675781 145.9375 151.105469 146.03125 151.65625 C 145.207031 154.453125 144.125 155.117188 143.269531 155.378906 C 141.074219 156.058594 135.152344 155.316406 120.136719 143.035156 L 119.800781 137.578125 C 119.640625 134.65625 119.285156 131.757812 118.742188 128.886719 C 121.832031 130.960938 125.960938 133.800781 130.070312 136.839844 Z M 94.222656 206.699219 C 82.027344 227.957031 78.132812 229.902344 77.558594 230.082031 C 76.105469 229.980469 71.765625 229.429688 70.429688 226.496094 C 69.152344 223.683594 70.90625 218.953125 75.371094 213.179688 C 86.3125 199.042969 93.210938 181.269531 96.132812 172.722656 C 97.960938 175.292969 100.964844 179.144531 105.921875 185.03125 C 104.164062 188.472656 99.460938 197.566406 94.222656 206.699219 Z M 145.542969 231.613281 L 145.078125 231.832031 C 142.515625 233.03125 140.859375 233.726562 139.09375 232.917969 C 135.007812 231.046875 130.582031 221.632812 125.941406 204.933594 C 124.871094 201.121094 123.027344 197.726562 120.410156 194.753906 C 116.703125 190.554688 113.527344 186.882812 110.824219 183.695312 C 110.640625 183.273438 110.355469 182.941406 109.972656 182.691406 C 101.765625 172.96875 98.230469 168.046875 97.804688 166.742188 C 97.464844 163.332031 97.390625 142.152344 97.390625 134.210938 C 97.390625 133.945312 97.34375 133.691406 97.253906 133.441406 C 97.164062 133.191406 97.035156 132.964844 96.867188 132.757812 C 96.699219 132.554688 96.503906 132.382812 96.273438 132.246094 C 96.046875 132.109375 95.804688 132.015625 95.542969 131.964844 C 95.28125 131.910156 95.019531 131.902344 94.757812 131.941406 C 94.496094 131.980469 94.246094 132.0625 94.011719 132.183594 C 93.777344 132.308594 93.570312 132.46875 93.390625 132.664062 C 93.210938 132.859375 93.070312 133.078125 92.96875 133.324219 C 92.933594 133.40625 89.445312 141.664062 85.125 149.671875 C 77.28125 164.21875 74.179688 164.152344 74.140625 164.152344 C 69.398438 161.789062 69.824219 157.214844 70.03125 156.003906 C 70.871094 154.363281 75.308594 145.777344 80.429688 137.171875 C 91.113281 119.222656 94.675781 118.128906 95.046875 118.0625 C 95.671875 117.953125 96.308594 117.824219 96.988281 117.683594 C 100.914062 116.882812 105.363281 115.972656 108.785156 118.585938 C 110.375 119.800781 111.679688 121.71875 112.699219 124.320312 C 112.722656 124.382812 112.746094 124.445312 112.769531 124.507812 C 114.050781 127.855469 114.867188 132.316406 115.210938 137.859375 L 116.96875 166.34375 C 116.996094 166.839844 117.171875 167.28125 117.492188 167.667969 C 123.984375 175.46875 134.613281 189.25 135.484375 193.011719 C 135.824219 194.488281 136.8125 197.234375 138.183594 201.035156 C 140.140625 206.46875 142.824219 213.910156 144.464844 220.25 C 147.03125 230.15625 145.539062 231.609375 145.542969 231.613281 Z M 145.542969 231.613281 " fill-opacity="1" fill-rule="nonzero"/>

</g>
</svg>