<svg xmlns="http://www.w3.org/2000/svg" viewBox="0 0 103.984375 149.0">
<g transform="translate(-1036.0,-52.0)">
<path fill="#000000" d="M 1090.902344 137.914062 C 1091.828125 136.648438 1092.714844 135.367188 1093.578125 134.0625 C 1091.632812 132.550781 1089.609375 130.992188 1087.289062 130.15625 C 1086.34375 131.726562 1085.515625 133.347656 1084.917969 135.066406 C 1085.621094 135.105469 1086.316406 135.210938 1087 135.394531 C 1087.074219 135.40625 1087.15625 135.417969 1087.238281 135.453125 C 1087.324219 135.480469 1087.402344 135.515625 1087.46875 135.558594 C 1088.691406 136.078125 1089.878906 136.894531 1090.902344 137.914062 Z M 1091.867188 146.121094 C 1092.605469 142.363281 1090.226562 138.617188 1086.746094 137.238281 C 1082.738281 136.046875 1077.769531 138.0625 1076.746094 142.472656 C 1075.808594 146.484375 1078.570312 151.34375 1082.984375 151.546875 C 1086.324219 151.707031 1091.132812 149.847656 1091.867188 146.121094 Z M 1094.574219 132.511719 C 1095.390625 131.230469 1096.179688 129.925781 1096.953125 128.609375 C 1094.765625 127.582031 1092.734375 126.285156 1090.847656 124.769531 C 1089.988281 126.03125 1089.117188 127.285156 1088.28125 128.5625 C 1090.59375 129.492188 1092.613281 130.988281 1094.574219 132.511719 Z M 1094.117188 160.410156 C 1096.332031 156.914062 1097.367188 153.152344 1096.855469 148.988281 C 1096.40625 145.320312 1095.542969 140.820312 1093.273438 137.777344 C 1092.898438 138.304688 1092.515625 138.832031 1092.125 139.351562 C 1093.800781 141.652344 1094.585938 144.535156 1093.457031 147.234375 C 1092.019531 150.691406 1088.089844 153.308594 1084.222656 153.476562 C 1083.769531 155.453125 1083.425781 157.511719 1082.65625 159.386719 C 1081.882812 161.257812 1081.546875 162.183594 1083.214844 163.734375 C 1086.878906 167.132812 1091.894531 163.925781 1094.117188 160.410156 Z M 1097.878906 127 C 1098.84375 125.3125 1099.769531 123.609375 1100.679688 121.890625 C 1098.476562 121.128906 1096.601562 119.746094 1094.574219 118.613281 C 1094.148438 119.367188 1093.730469 120.125 1093.300781 120.875 C 1092.863281 121.667969 1092.375 122.445312 1091.875 123.214844 C 1093.71875 124.726562 1095.734375 125.988281 1097.878906 127 Z M 1101.558594 120.222656 C 1102.253906 118.886719 1102.9375 117.542969 1103.621094 116.199219 C 1101.664062 115.109375 1099.960938 113.574219 1097.875 112.730469 C 1097.078125 114.15625 1096.277344 115.574219 1095.476562 116.992188 C 1097.488281 118.125 1099.339844 119.542969 1101.558594 120.222656 Z M 1106.820312 109.851562 C 1107.046875 109.40625 1107.277344 108.964844 1107.507812 108.519531 C 1105.683594 107.394531 1103.515625 106.960938 1101.742188 105.734375 C 1101.734375 105.730469 1101.734375 105.722656 1101.730469 105.722656 C 1100.742188 107.519531 1099.757812 109.324219 1098.765625 111.125 C 1100.804688 112.035156 1102.511719 113.472656 1104.449219 114.550781 C 1105.242188 112.980469 1106.027344 111.414062 1106.820312 109.851562 Z M 1105.277344 148.914062 C 1107.488281 145.503906 1110.640625 140.441406 1109.269531 136.210938 C 1107.890625 131.964844 1104.097656 128.757812 1100.015625 127.046875 C 1098.253906 130.167969 1096.390625 133.230469 1094.367188 136.199219 C 1097.453125 140.019531 1098.902344 146.230469 1098.824219 151.074219 C 1098.730469 156.296875 1096.710938 161.4375 1092.621094 164.839844 C 1089.65625 167.300781 1084.707031 168.183594 1081.914062 165.046875 C 1081.128906 164.171875 1079.414062 162.640625 1079.882812 161.277344 C 1080.804688 158.609375 1081.636719 156.074219 1082.328125 153.367188 C 1082.035156 153.308594 1081.746094 153.238281 1081.457031 153.152344 C 1076.429688 151.648438 1073.527344 146.375 1075.171875 141.332031 C 1076.324219 137.804688 1079.496094 135.628906 1082.945312 135.152344 C 1084.429688 130.402344 1087.679688 126.574219 1090.28125 122.402344 C 1085.160156 119.589844 1077.054688 116.5625 1072.636719 122.109375 C 1069.988281 125.4375 1069.242188 130 1067.519531 133.828125 C 1065.996094 137.210938 1064.121094 140.640625 1061.28125 143.097656 C 1058.335938 145.652344 1054.921875 147.449219 1051.777344 149.730469 C 1048.179688 152.339844 1044.726562 155.683594 1042.25 159.390625 C 1039.6875 163.226562 1037.46875 168.023438 1038.511719 172.769531 C 1039.488281 177.246094 1042.300781 180.777344 1045.410156 184.019531 C 1051.433594 190.296875 1059.015625 195.722656 1067.566406 197.820312 C 1075.082031 199.65625 1083.546875 199.207031 1089.453125 193.59375 C 1096.25 187.148438 1096.445312 178.957031 1096.816406 170.160156 C 1096.980469 166.183594 1097.386719 162.050781 1099.140625 158.414062 C 1100.800781 154.976562 1103.210938 152.09375 1105.277344 148.914062 Z M 1108.355469 106.871094 C 1109.238281 105.191406 1110.136719 103.511719 1111.042969 101.84375 C 1109.289062 100.59375 1107.226562 99.953125 1105.617188 98.535156 C 1104.847656 99.976562 1104.078125 101.417969 1103.308594 102.851562 C 1103.078125 103.269531 1102.84375 103.683594 1102.613281 104.101562 C 1102.632812 104.109375 1102.652344 104.117188 1102.671875 104.128906 C 1104.421875 105.347656 1106.542969 105.777344 1108.355469 106.871094 Z M 1114.464844 95.65625 C 1114.421875 95.625 1114.375 95.585938 1114.332031 95.542969 C 1112.863281 94.003906 1110.753906 93.316406 1109.007812 92.136719 C 1108.179688 93.695312 1107.34375 95.257812 1106.519531 96.820312 C 1108.042969 98.355469 1110.117188 99.082031 1111.921875 100.242188 C 1112.765625 98.707031 1113.609375 97.183594 1114.464844 95.65625 Z M 1115.390625 94.003906 C 1116.414062 92.179688 1117.429688 90.367188 1118.449219 88.542969 C 1116.578125 87.417969 1114.796875 86.070312 1112.753906 85.300781 C 1111.78125 87.023438 1110.824219 88.757812 1109.890625 90.5 C 1111.675781 91.746094 1113.800781 92.488281 1115.390625 94.003906 Z M 1119.351562 86.921875 C 1120.21875 85.351562 1121.070312 83.785156 1121.925781 82.207031 C 1120.140625 81.101562 1118.492188 79.570312 1116.449219 79.046875 C 1115.496094 80.578125 1114.578125 82.121094 1113.675781 83.679688 C 1115.695312 84.511719 1117.476562 85.804688 1119.351562 86.921875 Z M 1123.46875 79.308594 C 1124.0625 78.1875 1124.539062 76.96875 1125.136719 75.835938 C 1123.492188 75.023438 1122.171875 73.59375 1120.398438 73.054688 C 1119.394531 74.480469 1118.425781 75.9375 1117.484375 77.398438 C 1119.4375 78.054688 1121.046875 79.488281 1122.792969 80.578125 C 1123.019531 80.152344 1123.246094 79.730469 1123.46875 79.308594 Z M 1130.394531 67.671875 C 1131.484375 64.828125 1139.507812 58.636719 1135.722656 55.695312 C 1134.765625 54.960938 1129.992188 52.496094 1129.292969 54.601562 C 1128.671875 56.484375 1127.898438 58.148438 1126.796875 59.804688 C 1125.179688 62.230469 1124.203125 65.195312 1122.488281 67.496094 C 1121.925781 68.261719 1121.960938 68.707031 1122.074219 69.210938 C 1122.46875 69.449219 1122.6875 69.914062 1122.332031 70.386719 C 1122.296875 70.429688 1122.269531 70.46875 1122.230469 70.523438 C 1122.230469 70.554688 1122.222656 70.59375 1122.21875 70.632812 C 1122.171875 71.0625 1121.882812 71.335938 1121.550781 71.453125 C 1121.535156 71.460938 1121.53125 71.46875 1121.527344 71.484375 C 1123.183594 72.175781 1124.503906 73.488281 1126.136719 74.265625 C 1126.222656 74.292969 1126.449219 73.933594 1126.722656 73.46875 C 1127.15625 72.71875 1127.703125 71.703125 1127.910156 71.546875 C 1128.65625 70.980469 1129.046875 71.375 1129.59375 70.550781 C 1130.015625 69.914062 1130.09375 68.445312 1130.394531 67.671875 Z M 1135.824219 67.796875 C 1135.816406 67.808594 1135.796875 67.835938 1135.769531 67.878906 C 1135.734375 67.933594 1135.710938 67.988281 1135.6875 68.042969 C 1135.6875 68.054688 1135.632812 68.234375 1135.625 68.234375 C 1135.621094 68.28125 1135.613281 68.316406 1135.605469 68.324219 C 1135.601562 68.382812 1135.597656 68.433594 1135.597656 68.488281 C 1135.601562 68.585938 1135.605469 68.679688 1135.621094 68.78125 C 1135.679688 69.277344 1135.152344 69.703125 1134.699219 69.703125 C 1134.148438 69.703125 1133.832031 69.277344 1133.773438 68.78125 C 1133.753906 68.660156 1133.753906 68.542969 1133.753906 68.425781 C 1133.453125 68.25 1133.144531 68.058594 1132.84375 67.878906 C 1132.789062 67.847656 1132.738281 67.808594 1132.6875 67.765625 C 1132.109375 68.792969 1131.617188 69.902344 1131.167969 71.152344 C 1131.371094 71.21875 1131.554688 71.351562 1131.640625 71.554688 C 1131.65625 71.589844 1131.660156 71.601562 1131.660156 71.617188 C 1131.683594 71.625 1131.753906 71.679688 1131.773438 71.683594 C 1131.816406 71.707031 1131.847656 71.738281 1131.886719 71.761719 C 1131.972656 71.648438 1132.074219 71.539062 1132.191406 71.441406 C 1132.585938 71.128906 1133.113281 71.058594 1133.503906 71.441406 C 1133.832031 71.777344 1133.890625 72.433594 1133.503906 72.757812 C 1133.28125 72.9375 1133.203125 73.066406 1133.136719 73.328125 C 1133.054688 73.644531 1132.992188 73.960938 1132.890625 74.277344 C 1132.535156 75.414062 1130.75 74.925781 1131.105469 73.785156 C 1131.148438 73.652344 1131.183594 73.527344 1131.21875 73.394531 C 1131.085938 73.382812 1130.957031 73.351562 1130.839844 73.289062 C 1130.65625 73.1875 1130.480469 73.054688 1130.332031 72.898438 C 1129.167969 74.585938 1127.289062 75.558594 1126.371094 77.589844 C 1125.007812 80.597656 1123.347656 83.46875 1121.726562 86.339844 C 1118.277344 92.460938 1114.6875 98.503906 1111.484375 104.75 C 1107.964844 111.632812 1104.644531 118.65625 1100.910156 125.4375 C 1104.941406 127.203125 1109.351562 130.472656 1110.738281 134.757812 C 1112.277344 139.507812 1110.386719 144.15625 1107.875 148.257812 C 1104.511719 153.742188 1100.066406 158.351562 1099.109375 164.992188 C 1098.1875 171.3125 1099.292969 177.988281 1097.339844 184.15625 C 1093.132812 197.421875 1080.144531 203.179688 1067.078125 199.605469 C 1059.542969 197.539062 1052.617188 193.449219 1046.914062 188.109375 C 1041.804688 183.316406 1035.753906 176.988281 1036.484375 169.359375 C 1037.214844 161.828125 1042.132812 155.527344 1047.640625 150.691406 C 1050.59375 148.089844 1053.988281 146.238281 1057.1875 143.96875 C 1060.910156 141.328125 1063.628906 138.007812 1065.507812 133.816406 C 1067.953125 128.378906 1069.015625 120.042969 1075.554688 117.859375 C 1080.890625 116.074219 1086.511719 118.207031 1091.222656 120.804688 C 1094.585938 114.835938 1097.957031 108.863281 1101.210938 102.835938 C 1107.222656 91.71875 1112.738281 80.242188 1120.289062 70.058594 C 1120.128906 69.617188 1119.800781 69.214844 1119.800781 68.726562 C 1119.800781 68.210938 1119.996094 67.847656 1120.242188 67.492188 C 1120.113281 67.367188 1120 67.277344 1119.851562 67.183594 C 1119.769531 67.128906 1119.671875 67.070312 1119.582031 67.027344 C 1119.574219 67.023438 1119.574219 67.023438 1119.5625 67.015625 C 1119.511719 67.117188 1119.453125 67.210938 1119.402344 67.3125 C 1118.863281 68.382812 1117.269531 67.445312 1117.804688 66.378906 C 1118.226562 65.546875 1118.753906 64.757812 1119.269531 63.984375 C 1119.929688 62.992188 1121.53125 63.921875 1120.863281 64.925781 C 1120.75 65.09375 1120.628906 65.265625 1120.519531 65.445312 C 1120.773438 65.582031 1121.019531 65.738281 1121.246094 65.914062 C 1122.007812 64.535156 1122.773438 63.167969 1123.550781 61.808594 C 1123.136719 61.695312 1122.742188 61.527344 1122.375 61.3125 C 1122.195312 61.207031 1122.074219 61.070312 1122.003906 60.921875 C 1121.871094 61.027344 1121.742188 61.128906 1121.605469 61.242188 C 1121.203125 61.535156 1120.582031 61.308594 1120.347656 60.902344 C 1120.074219 60.433594 1120.273438 59.933594 1120.679688 59.628906 C 1120.820312 59.527344 1121.089844 59.292969 1121.285156 59.09375 C 1121.507812 58.855469 1121.644531 58.683594 1121.804688 58.421875 C 1122.085938 58 1122.625 57.824219 1123.074219 58.085938 C 1123.492188 58.332031 1123.679688 58.933594 1123.40625 59.359375 C 1123.339844 59.464844 1123.261719 59.558594 1123.195312 59.660156 C 1123.226562 59.675781 1123.265625 59.6875 1123.304688 59.710938 C 1123.648438 59.910156 1123.867188 60.003906 1124.3125 60.085938 C 1124.378906 60.09375 1124.441406 60.113281 1124.5 60.144531 C 1124.910156 59.4375 1125.328125 58.726562 1125.75 58.015625 C 1126.035156 57.550781 1126.261719 57.082031 1126.472656 56.617188 C 1126.261719 56.398438 1126.042969 56.183594 1125.800781 55.992188 C 1125.757812 55.960938 1125.730469 55.917969 1125.695312 55.878906 C 1125.648438 55.953125 1125.613281 56.035156 1125.5625 56.113281 C 1125.285156 56.535156 1124.75 56.707031 1124.292969 56.453125 C 1123.878906 56.203125 1123.691406 55.605469 1123.960938 55.175781 C 1124.257812 54.730469 1124.5 54.257812 1124.730469 53.785156 C 1124.957031 53.335938 1125.589844 53.210938 1126 53.453125 C 1126.355469 53.664062 1126.488281 54.046875 1126.425781 54.417969 C 1126.664062 54.417969 1126.90625 54.515625 1127.109375 54.679688 C 1127.15625 54.722656 1127.199219 54.765625 1127.25 54.8125 C 1128.136719 52.796875 1129.058594 51.4375 1132.289062 52.226562 C 1134.992188 52.886719 1139.039062 54.535156 1138.46875 58.058594 C 1138.285156 59.21875 1137.882812 60.253906 1137.332031 61.230469 C 1137.558594 61.359375 1137.78125 61.492188 1137.988281 61.636719 C 1138.140625 61.511719 1138.292969 61.382812 1138.460938 61.257812 C 1138.863281 60.957031 1139.488281 61.1875 1139.726562 61.589844 C 1140 62.058594 1139.796875 62.5625 1139.394531 62.859375 C 1139 63.148438 1138.523438 63.699219 1138.121094 64.105469 C 1137.761719 64.464844 1137.167969 64.460938 1136.8125 64.105469 C 1136.511719 63.800781 1136.484375 63.347656 1136.679688 62.992188 C 1136.566406 62.921875 1136.441406 62.847656 1136.308594 62.777344 C 1136.0625 63.109375 1135.804688 63.433594 1135.53125 63.753906 C 1134.816406 64.601562 1134.199219 65.402344 1133.644531 66.21875 C 1133.6875 66.238281 1133.730469 66.25 1133.773438 66.273438 C 1133.980469 66.40625 1134.1875 66.53125 1134.394531 66.652344 C 1134.433594 66.601562 1134.460938 66.542969 1134.5 66.496094 C 1134.816406 66.105469 1135.484375 66.175781 1135.8125 66.496094 C 1136.1875 66.882812 1136.117188 67.394531 1135.832031 67.789062 C 1135.832031 67.789062 1135.832031 67.789062 1135.824219 67.796875 " fill-opacity="1" fill-rule="nonzero"/>

</g>
</svg>