<svg xmlns="http://www.w3.org/2000/svg" viewBox="0 0 92.0 114.039062">
<g transform="translate(-710.0,-59.0)">
<path fill="#000000" d="M 801.851562 81.675781 C 801.851562 76.0625 799.707031 70.390625 795.417969 66.089844 C 787.851562 58.445312 776.058594 57.609375 767.480469 63.460938 C 765.933594 63.222656 764.324219 63.699219 763.132812 64.894531 C 761.941406 66.089844 761.464844 67.703125 761.703125 69.253906 C 759.320312 72.71875 758.007812 76.71875 757.890625 80.957031 L 713.992188 130.9375 C 713.394531 131.59375 713.453125 132.609375 714.050781 133.269531 L 716.671875 135.894531 L 713.214844 141.328125 C 712.800781 141.984375 712.859375 142.882812 713.453125 143.417969 L 714.585938 144.554688 C 708.570312 151.121094 708.6875 161.453125 715.0625 167.84375 L 715.300781 168.082031 C 718.457031 171.246094 722.6875 173.039062 727.214844 173.039062 C 731.679688 173.039062 735.910156 171.304688 739.066406 168.082031 L 766.707031 140.375 C 768.671875 138.402344 771.886719 138.402344 773.914062 140.375 C 774.867188 141.328125 775.402344 142.644531 775.402344 143.957031 C 775.402344 145.328125 774.867188 146.582031 773.914062 147.539062 L 757.175781 164.320312 C 756.519531 164.976562 756.519531 166.050781 757.175781 166.707031 C 757.832031 167.363281 758.902344 167.363281 759.558594 166.707031 L 776.296875 149.929688 C 777.90625 148.316406 778.796875 146.164062 778.796875 143.957031 C 778.796875 141.6875 777.90625 139.539062 776.296875 137.984375 C 774.6875 136.371094 772.601562 135.476562 770.339844 135.476562 C 768.074219 135.476562 765.933594 136.371094 764.382812 137.984375 L 736.746094 165.691406 C 734.183594 168.261719 730.847656 169.632812 727.273438 169.632812 C 723.699219 169.632812 720.304688 168.261719 717.800781 165.691406 L 717.5625 165.453125 C 712.5 160.378906 712.382812 152.257812 717.085938 146.941406 L 718.339844 148.195312 C 718.636719 148.496094 719.113281 148.675781 719.53125 148.675781 C 719.828125 148.675781 720.183594 148.613281 720.421875 148.433594 L 725.84375 144.972656 L 728.464844 147.597656 C 728.820312 147.957031 729.238281 148.078125 729.65625 148.078125 C 730.074219 148.078125 730.429688 147.957031 730.789062 147.660156 L 780.644531 103.589844 C 784.875 103.46875 788.863281 102.15625 792.320312 99.769531 C 792.558594 99.828125 792.855469 99.828125 793.09375 99.828125 C 794.464844 99.828125 795.714844 99.289062 796.667969 98.335938 C 797.621094 97.378906 798.15625 96.125 798.15625 94.753906 C 798.15625 94.511719 798.097656 94.214844 798.097656 93.976562 C 800.597656 90.332031 801.851562 86.035156 801.851562 81.675781 Z M 765.515625 67.285156 C 765.871094 66.925781 766.289062 66.804688 766.707031 66.804688 C 767.125 66.804688 767.601562 66.984375 767.898438 67.285156 L 794.226562 93.675781 C 794.523438 93.976562 794.703125 94.453125 794.703125 94.871094 C 794.703125 95.347656 794.523438 95.765625 794.226562 96.066406 C 793.570312 96.722656 792.5 96.722656 791.84375 96.066406 L 765.515625 69.671875 C 764.859375 69.015625 764.859375 67.941406 765.515625 67.285156 Z M 786.898438 64.359375 C 789.164062 65.253906 791.246094 66.625 793.035156 68.476562 C 799.050781 74.507812 800.0625 83.644531 796.132812 90.75 L 770.816406 65.371094 C 773.617188 63.820312 776.714844 62.984375 779.871094 62.984375 C 782.253906 63.042969 784.636719 63.460938 786.898438 64.359375 Z M 763.609375 72.597656 L 788.925781 97.976562 C 786.183594 99.527344 783.085938 100.367188 779.871094 100.367188 C 774.867188 100.367188 770.21875 98.453125 766.707031 94.871094 C 763.191406 91.347656 761.226562 86.691406 761.226562 81.675781 C 761.285156 78.449219 762.121094 75.34375 763.609375 72.597656 Z M 769.804688 108.726562 C 768.492188 108.488281 764.679688 107.292969 759.5 102.097656 C 754.316406 96.902344 753.125 93.140625 752.886719 91.765625 L 758.1875 85.734375 C 759.023438 90.09375 761.105469 94.09375 764.324219 97.261719 C 767.539062 100.484375 771.53125 102.515625 775.878906 103.351562 Z M 719.648438 144.910156 L 716.789062 142.046875 L 719.113281 138.402344 L 723.28125 142.582031 Z M 729.714844 144.136719 L 717.625 132.015625 L 750.324219 94.753906 C 751.21875 97.082031 753.125 100.425781 757.175781 104.484375 C 761.226562 108.546875 764.5625 110.457031 766.886719 111.351562 Z M 729.714844 144.136719 " fill-opacity="1" fill-rule="nonzero"/>

</g>
</svg>