<svg xmlns="http://www.w3.org/2000/svg" viewBox="0 0 125.765625 140.910157">
<g transform="translate(-857.0,-62.207031)">
<path fill="#000000" d="M 976.160156 137.910156 C 976.289062 136.933594 976.347656 135.957031 976.339844 134.976562 C 976.34375 134.886719 976.375 134.808594 976.441406 134.746094 C 976.507812 134.683594 976.585938 134.652344 976.675781 134.652344 C 976.765625 134.652344 976.84375 134.683594 976.90625 134.746094 C 976.972656 134.808594 977.003906 134.886719 977.007812 134.976562 C 977.09375 136.042969 976.925781 137.070312 976.503906 138.054688 C 976.410156 138.261719 976.121094 138.105469 976.160156 137.910156 Z M 963.226562 156.5 C 966.363281 155.621094 969.144531 153.769531 971.550781 151.632812 C 973.820312 149.621094 976.640625 146.734375 977.007812 143.597656 C 977.03125 143.414062 976.78125 143.390625 976.695312 143.511719 C 974.816406 146.144531 973.378906 148.800781 970.976562 151.0625 C 968.652344 153.234375 966.035156 154.960938 963.117188 156.238281 C 962.96875 156.304688 963.074219 156.539062 963.226562 156.5 Z M 958.996094 78.402344 C 961.191406 79.210938 963.417969 80.050781 965.257812 81.53125 C 966.253906 82.269531 966.917969 83.234375 967.253906 84.421875 C 967.621094 85.917969 966.554688 87.105469 966.324219 88.5 C 966.304688 88.585938 966.328125 88.65625 966.398438 88.710938 C 966.46875 88.765625 966.542969 88.769531 966.621094 88.726562 C 969.078125 87.214844 968.5 83.652344 966.878906 81.796875 C 965.042969 79.695312 961.703125 78.683594 959.0625 78.148438 C 958.980469 78.132812 958.929688 78.164062 958.910156 78.242188 C 958.886719 78.324219 958.914062 78.375 958.996094 78.402344 Z M 964.855469 90.042969 C 963.96875 90.921875 963.207031 91.890625 962.558594 92.953125 C 962.523438 93.019531 962.53125 93.082031 962.585938 93.136719 C 962.640625 93.191406 962.703125 93.199219 962.769531 93.160156 C 963.878906 92.46875 964.699219 91.527344 965.226562 90.332031 C 965.335938 90.101562 965.046875 89.835938 964.855469 90.042969 Z M 982.195312 133.039062 C 982.058594 136.902344 981.804688 140.105469 981.398438 143.121094 L 981.320312 143.703125 C 981.085938 145.503906 980.824219 147.542969 979.742188 149.15625 C 977.792969 152.078125 975.054688 154.433594 972.632812 156.351562 C 971.199219 157.488281 969.835938 158.492188 968.46875 159.421875 L 968.066406 167.128906 C 967.988281 168.574219 967.050781 169.699219 965.441406 170.328125 C 966.171875 170.851562 966.726562 171.519531 967.109375 172.328125 C 967.492188 173.136719 967.652344 173.988281 967.589844 174.882812 C 967.429688 177.871094 964.921875 179.4375 962.527344 179.4375 C 961.96875 179.4375 961.425781 179.355469 960.890625 179.199219 C 960.890625 179.199219 960.539062 186.082031 960.40625 188.570312 C 960.394531 188.785156 960.394531 189.011719 960.394531 189.25 C 960.394531 190.105469 960.394531 191.074219 959.914062 191.839844 C 959.347656 192.714844 958.59375 193.378906 957.648438 193.828125 C 958.277344 194.28125 958.785156 194.84375 959.164062 195.519531 C 959.542969 196.195312 959.765625 196.917969 959.824219 197.6875 C 959.84375 197.789062 959.851562 197.890625 959.847656 197.992188 L 959.839844 198.113281 C 959.839844 198.140625 959.832031 198.175781 959.828125 198.21875 C 959.578125 200.652344 957.6875 203.109375 954.921875 203.109375 C 954.839844 203.109375 954.757812 203.105469 954.671875 203.101562 C 952.085938 202.960938 949.394531 200.953125 949.554688 197.945312 C 949.601562 197.140625 949.808594 196.375 950.179688 195.65625 C 950.550781 194.933594 951.050781 194.320312 951.683594 193.8125 C 950.480469 193.1875 949.261719 192.082031 949.089844 190.636719 C 948.226562 183.429688 947.367188 176.222656 946.507812 169.015625 C 943.953125 169.828125 941.351562 170.429688 938.695312 170.8125 C 938.234375 170.875 937.773438 170.902344 937.308594 170.902344 C 935.6875 170.847656 934.097656 170.601562 932.535156 170.167969 L 931.929688 170.027344 C 930.027344 169.589844 928.125 169.140625 926.222656 168.679688 L 926.222656 179.914062 L 926.847656 180.054688 C 927.035156 180.09375 927.191406 180.179688 927.320312 180.320312 C 927.449219 180.460938 927.523438 180.625 927.542969 180.8125 C 927.542969 180.816406 927.542969 180.820312 927.542969 180.824219 C 927.550781 180.867188 927.554688 180.910156 927.554688 180.953125 L 927.554688 187.585938 C 927.550781 187.828125 927.46875 188.039062 927.300781 188.214844 C 927.136719 188.390625 926.929688 188.488281 926.6875 188.507812 L 922.976562 188.910156 C 922.78125 188.929688 922.550781 188.976562 922.304688 189.023438 C 921.835938 189.125 921.359375 189.1875 920.875 189.207031 C 920.652344 189.207031 920.429688 189.179688 920.210938 189.121094 L 899.929688 183.363281 C 899.816406 183.375 899.707031 183.378906 899.59375 183.378906 C 898.636719 183.363281 897.777344 183.070312 897.011719 182.503906 C 896.464844 182.121094 895.453125 181.410156 895.320312 180.335938 C 895.238281 179.691406 895.457031 178.816406 896.976562 178.328125 C 896.976562 178.328125 897.058594 178.296875 897.0625 178.296875 C 897.121094 178.28125 897.183594 178.273438 897.246094 178.265625 L 897.175781 176.550781 C 897.160156 176.339844 897.214844 176.144531 897.347656 175.976562 C 897.476562 175.804688 897.644531 175.695312 897.855469 175.652344 C 897.917969 175.632812 897.976562 175.617188 898.042969 175.609375 L 902.066406 175.175781 C 902.261719 175.152344 902.46875 175.117188 902.679688 175.082031 C 903.097656 175 903.519531 174.953125 903.941406 174.941406 C 903.980469 174.941406 904.019531 174.941406 904.054688 174.941406 L 904.054688 163.140625 C 898.734375 161.78125 893.066406 160.320312 887.433594 158.828125 C 887.308594 161.292969 887.179688 163.761719 887.050781 166.230469 L 886.601562 174.914062 C 886.589844 175.113281 886.589844 175.324219 886.589844 175.542969 C 886.585938 176.355469 886.582031 177.28125 886.117188 178.023438 C 885.550781 178.898438 884.792969 179.5625 883.851562 180.011719 C 884.488281 180.46875 885 181.042969 885.382812 181.730469 C 885.761719 182.414062 885.980469 183.148438 886.03125 183.933594 C 886.039062 183.988281 886.042969 184.058594 886.046875 184.136719 L 886.039062 184.304688 C 886.039062 184.339844 886.03125 184.378906 886.027344 184.414062 C 885.773438 186.84375 883.882812 189.289062 881.125 189.289062 C 881.042969 189.289062 880.957031 189.289062 880.875 189.285156 C 879.496094 189.203125 878.296875 188.699219 877.28125 187.769531 C 876.765625 187.308594 876.371094 186.757812 876.105469 186.121094 C 875.839844 185.484375 875.722656 184.820312 875.757812 184.128906 C 875.800781 183.324219 876.011719 182.558594 876.382812 181.839844 C 876.753906 181.117188 877.257812 180.503906 877.890625 179.996094 C 876.679688 179.375 875.464844 178.269531 875.292969 176.820312 C 874.414062 169.484375 873.535156 162.144531 872.65625 154.808594 L 872.238281 154.6875 C 869.238281 153.847656 866.140625 152.976562 863.144531 151.953125 L 862.769531 151.828125 C 862.089844 151.628906 861.4375 151.359375 860.8125 151.027344 C 858.945312 149.953125 857.789062 147.675781 857.378906 144.261719 C 857.078125 141.738281 856.902344 139.117188 857.652344 137.046875 C 858.199219 135.523438 860.027344 134.328125 861.5 133.367188 C 861.890625 133.109375 862.257812 132.871094 862.5625 132.648438 L 862.980469 132.347656 C 864.101562 131.535156 865.257812 130.695312 866.320312 129.792969 C 866.433594 129.695312 866.5625 129.59375 866.699219 129.480469 C 867.273438 129.023438 868.054688 128.394531 868.199219 127.847656 C 868.300781 127.28125 868.320312 126.714844 868.253906 126.144531 C 868.238281 125.871094 868.222656 125.605469 868.222656 125.359375 L 868.222656 125.027344 C 868.214844 123.777344 868.210938 122.527344 868.230469 121.277344 L 868.238281 120.695312 C 868.28125 117.984375 868.324219 115.179688 868.933594 112.503906 C 869.433594 110.296875 870.429688 109.171875 872.492188 108.492188 C 876.464844 107.179688 880.800781 106.773438 885.269531 106.453125 L 926.496094 64.722656 C 926.664062 64.554688 926.84375 64.34375 927.03125 64.125 C 927.765625 63.269531 928.679688 62.207031 929.863281 62.207031 L 954.496094 62.207031 C 956.0625 62.207031 957.664062 63.679688 958.359375 64.546875 C 958.71875 64.984375 958.972656 65.472656 959.125 66.015625 C 959.273438 66.558594 959.304688 67.109375 959.21875 67.667969 C 958.945312 69.527344 957.507812 71.113281 956.253906 71.976562 C 956.105469 72.078125 955.921875 72.191406 955.71875 72.316406 C 955.335938 72.554688 954.164062 73.273438 954.15625 73.582031 C 954.160156 73.582031 954.246094 73.757812 954.878906 73.964844 C 956.15625 74.324219 957.453125 74.539062 958.78125 74.601562 L 959.375 74.65625 C 961.570312 74.804688 963.6875 75.285156 965.730469 76.101562 C 967.015625 76.621094 968.144531 77.375 969.117188 78.355469 C 970.09375 79.335938 970.835938 80.46875 971.34375 81.753906 C 972.464844 84.597656 972.328125 87.863281 970.957031 90.949219 C 968.960938 95.441406 964.960938 97.34375 961.09375 99.183594 C 960.523438 99.453125 959.953125 99.726562 959.386719 100.007812 L 960.378906 101.878906 C 962.175781 102.277344 964.28125 102.777344 966.386719 103.460938 C 970.9375 104.9375 977.300781 107.609375 979.996094 113.761719 C 982.679688 119.882812 982.410156 127.179688 982.195312 133.039062 Z M 923.246094 187.535156 C 924.230469 187.429688 925.21875 187.324219 926.207031 187.21875 L 926.207031 181.417969 C 924.3125 181.617188 922.414062 181.824219 920.519531 182.03125 C 920.4375 182.042969 920.359375 182.03125 920.285156 181.988281 L 898.542969 177.054688 C 898.566406 177.65625 898.589844 178.253906 898.617188 178.855469 L 898.617188 178.863281 C 900.066406 179.0625 901.445312 179.492188 902.753906 180.152344 C 902.867188 180.207031 902.9375 180.296875 902.960938 180.421875 C 902.984375 180.550781 902.949219 180.660156 902.855469 180.75 C 902.886719 180.859375 902.863281 180.960938 902.792969 181.050781 C 902.40625 181.59375 901.929688 182.035156 901.359375 182.378906 C 902.019531 182.566406 902.679688 182.75 903.339844 182.941406 C 902.886719 182.109375 903.375 181.0625 904.570312 180.554688 L 904.574219 180.554688 C 904.652344 180.464844 904.75 180.421875 904.871094 180.429688 L 904.941406 180.429688 C 904.984375 180.429688 905.03125 180.429688 905.074219 180.429688 C 905.078125 180.425781 905.082031 180.425781 905.089844 180.429688 C 906.976562 180.445312 908.957031 180.539062 910.632812 181.476562 C 910.773438 181.5625 910.839844 181.6875 910.832031 181.851562 C 910.824219 182.011719 910.746094 182.128906 910.597656 182.203125 C 910.597656 182.261719 910.582031 182.320312 910.558594 182.378906 C 910.0625 183.507812 909.027344 184.054688 907.867188 184.226562 C 909.578125 184.710938 911.292969 185.195312 913.003906 185.683594 C 912.882812 185.621094 912.765625 185.550781 912.644531 185.472656 C 910.707031 184.242188 913 182.714844 914.308594 182.433594 C 914.3125 182.433594 914.316406 182.429688 914.324219 182.433594 C 914.332031 182.429688 914.335938 182.429688 914.34375 182.429688 C 914.367188 182.421875 914.390625 182.417969 914.417969 182.417969 C 915.597656 182.347656 916.4375 183.019531 917.558594 183.21875 C 918.476562 183.386719 919.382812 183.476562 920.035156 184.199219 C 920.085938 184.253906 920.121094 184.320312 920.136719 184.394531 C 920.152344 184.46875 920.148438 184.539062 920.125 184.613281 C 920.101562 184.683594 920.066406 184.746094 920.007812 184.796875 C 919.953125 184.847656 919.890625 184.882812 919.816406 184.902344 C 919.796875 185.027344 919.734375 185.117188 919.621094 185.179688 C 918.300781 186.007812 916.863281 186.394531 915.304688 186.335938 C 917.046875 186.832031 918.789062 187.328125 920.53125 187.820312 C 920.960938 187.941406 922.53125 187.617188 923.246094 187.535156 Z M 899.914062 181.96875 C 899.976562 181.984375 900.039062 182.007812 900.101562 182.023438 C 900.90625 181.832031 901.542969 181.394531 902.007812 180.714844 C 900.550781 180.015625 899.011719 179.644531 897.394531 179.601562 C 896.664062 179.832031 896.441406 180.210938 897.039062 180.796875 C 897.449219 181.203125 897.914062 181.53125 898.433594 181.78125 C 898.777344 181.949219 899.140625 182.042969 899.527344 182.066406 C 899.632812 181.949219 899.761719 181.917969 899.914062 181.96875 Z M 906.898438 176.054688 L 906.898438 163.339844 C 906.398438 163.210938 905.902344 163.082031 905.402344 162.957031 L 905.402344 175.714844 Z M 924.878906 180.132812 L 924.878906 167.910156 C 924.878906 167.886719 924.878906 167.863281 924.882812 167.835938 C 924.34375 167.707031 923.804688 167.574219 923.265625 167.441406 L 923.265625 179.769531 C 923.804688 179.890625 924.339844 180.007812 924.878906 180.132812 Z M 921.921875 167.640625 C 917.910156 166.65625 913.648438 165.585938 908.246094 164.207031 L 908.246094 175.835938 L 911.222656 176.511719 C 914.789062 177.324219 918.355469 178.132812 921.921875 178.9375 Z M 901.804688 176.542969 C 901.402344 176.585938 901.003906 176.628906 900.601562 176.675781 C 907.253906 178.183594 913.90625 179.691406 920.558594 181.199219 C 921.746094 181.070312 922.9375 180.9375 924.128906 180.8125 C 919.714844 179.808594 915.300781 178.808594 910.886719 177.808594 C 908.675781 177.308594 906.460938 176.804688 904.246094 176.300781 C 903.816406 176.207031 902.507812 176.46875 901.804688 176.542969 Z M 904.386719 182.925781 C 904.628906 183.035156 904.875 183.117188 905.136719 183.175781 C 905.660156 183.316406 906.195312 183.402344 906.738281 183.429688 C 908.007812 183.453125 909.25 183.253906 909.820312 181.996094 C 908.351562 181.308594 906.652344 181.265625 905.046875 181.261719 C 905.042969 181.257812 905.042969 181.257812 905.042969 181.261719 C 904.613281 181.421875 902.902344 182.277344 904.386719 182.925781 Z M 912.925781 184.636719 C 913.457031 185.050781 914.054688 185.3125 914.714844 185.433594 C 916.28125 185.773438 917.773438 185.296875 919.121094 184.507812 C 918.519531 184.117188 917.753906 184.15625 917.058594 183.957031 C 916.167969 183.710938 915.433594 183.214844 914.480469 183.246094 C 914.476562 183.242188 914.476562 183.242188 914.472656 183.246094 C 914.066406 183.359375 912.171875 184.015625 912.925781 184.636719 Z M 930.226562 167.570312 C 932.109375 168.015625 934.800781 168.765625 936.355469 168.929688 C 939.058594 169.214844 942.125 168.164062 944.683594 167.441406 C 948.914062 166.25 953.058594 164.816406 957.117188 163.144531 C 961.464844 161.386719 965.53125 159.128906 969.320312 156.375 C 972.3125 154.167969 975.542969 151.660156 977.703125 148.585938 C 978.960938 146.796875 979.195312 144.640625 979.464844 142.515625 C 979.894531 139.0625 980.128906 135.585938 980.214844 132.113281 C 980.363281 126.011719 980.746094 118.496094 977.375 113.085938 C 973.914062 107.535156 967.078125 105.46875 960.964844 104.0625 C 961.761719 105.554688 962.554688 107.046875 963.347656 108.539062 C 966.265625 109.523438 969.367188 110.65625 971.835938 112.535156 C 973.207031 113.574219 974.800781 114.984375 974.898438 116.839844 C 975.070312 120.183594 971.261719 122.023438 968.671875 123.136719 C 963.074219 125.546875 957.003906 127.0625 951.015625 128.1875 C 951.050781 134.5 951.085938 140.816406 951.117188 147.128906 C 951.125 147.921875 950.667969 148.164062 950.054688 148.566406 C 948.523438 149.566406 947 150.570312 945.472656 151.570312 C 942.910156 153.25 940.347656 154.929688 937.789062 156.605469 C 937.722656 158.316406 937.652344 160.015625 937.582031 161.722656 C 937.582031 161.839844 937.554688 161.949219 937.5 162.050781 C 937.449219 162.15625 937.375 162.242188 937.285156 162.3125 C 937.191406 162.382812 937.089844 162.429688 936.976562 162.453125 C 936.863281 162.476562 936.75 162.472656 936.636719 162.441406 C 927.472656 160.070312 918.3125 157.699219 909.15625 155.332031 C 893.828125 151.363281 878.5 147.398438 863.167969 143.429688 C 863.007812 143.382812 862.875 143.292969 862.773438 143.160156 C 862.671875 143.027344 862.621094 142.878906 862.621094 142.710938 C 862.542969 140.945312 862.46875 139.175781 862.398438 137.40625 C 862.398438 137.121094 862.523438 136.90625 862.765625 136.761719 C 866.863281 134.222656 870.957031 131.683594 875.050781 129.144531 C 875.050781 123.945312 875.042969 118.742188 875.152344 113.546875 C 875.144531 112.71875 875.179688 111.894531 875.253906 111.066406 C 875.367188 110.179688 876.292969 109.921875 877.042969 109.675781 C 877.609375 109.492188 878.175781 109.316406 878.75 109.152344 C 877.40625 109.355469 876.066406 109.609375 874.757812 109.929688 C 873.054688 110.351562 871.46875 110.636719 871 112.492188 C 870.4375 114.730469 870.351562 117.09375 870.285156 119.386719 C 870.214844 121.734375 870.234375 124.082031 870.238281 126.429688 C 870.242188 127.941406 870.117188 128.917969 869.003906 130.046875 C 867.394531 131.683594 865.46875 133.003906 863.621094 134.351562 C 862.710938 135.019531 861.78125 135.675781 860.90625 136.390625 C 860.550781 136.6875 859.660156 137.230469 859.539062 137.71875 C 858.714844 141.066406 858.691406 148.117188 862.421875 149.570312 C 865.089844 150.605469 867.882812 151.359375 870.636719 152.148438 C 871.707031 152.457031 872.777344 152.761719 873.855469 153.0625 C 873.859375 153.066406 873.863281 153.066406 873.867188 153.066406 C 873.925781 153.082031 873.988281 153.097656 874.046875 153.117188 C 874.050781 153.117188 874.054688 153.121094 874.058594 153.121094 C 883.066406 155.65625 892.128906 158.007812 901.195312 160.339844 C 910.855469 162.824219 920.523438 165.28125 930.226562 167.570312 Z M 954.695312 64.210938 L 929.824219 64.210938 C 925.515625 68.578125 921.203125 72.941406 916.890625 77.304688 C 905.582031 88.75 894.273438 100.195312 882.964844 111.640625 C 887.390625 112.640625 891.816406 113.636719 896.246094 114.636719 L 896.246094 102.039062 C 896.246094 101.921875 896.273438 101.8125 896.328125 101.710938 C 896.378906 101.605469 896.453125 101.519531 896.542969 101.449219 C 896.636719 101.378906 896.742188 101.332031 896.855469 101.3125 C 896.96875 101.289062 897.082031 101.289062 897.195312 101.320312 C 902.414062 102.292969 907.636719 103.269531 912.859375 104.246094 C 912.90625 104.234375 912.953125 104.226562 913.003906 104.21875 C 917.988281 103.796875 922.972656 103.386719 927.945312 102.863281 C 931.027344 102.535156 934.070312 101.941406 937.152344 101.625 C 942.363281 101.042969 947.582031 100.929688 952.8125 101.28125 C 949.03125 94.105469 945.246094 86.929688 941.460938 79.757812 C 941.164062 79.199219 940.871094 78.640625 940.574219 78.082031 C 939.53125 76.097656 941.953125 74.421875 943.65625 74.523438 C 944.539062 74.574219 945.28125 74.621094 945.710938 75.425781 C 946.1875 76.316406 946.664062 77.214844 947.140625 78.109375 C 950.757812 84.898438 954.371094 91.683594 957.984375 98.46875 C 962.695312 96.101562 968.222656 94.398438 969.652344 88.617188 C 970.414062 85.511719 970.257812 81.882812 967.683594 79.625 C 965.878906 78.039062 963.503906 77.269531 961.15625 76.890625 C 958.75 76.496094 955.988281 76.769531 953.773438 75.664062 C 951.4375 74.5 951.820312 72.417969 953.792969 71.179688 C 955.132812 70.335938 956.871094 69.347656 957.207031 67.640625 C 957.5 66.148438 956.347656 65.101562 955.125 64.476562 C 954.953125 64.390625 954.316406 64.210938 954.695312 64.210938 Z M 969.988281 121.011719 C 971.21875 120.371094 972.304688 119.585938 972.917969 118.570312 C 975.277344 114.714844 968.109375 111.777344 964.371094 110.464844 C 966.246094 113.984375 968.117188 117.5 969.988281 121.011719 Z M 934.164062 123.175781 C 934.140625 118.695312 934.117188 114.210938 934.089844 109.730469 C 921.976562 107.464844 909.859375 105.199219 897.746094 102.933594 L 897.746094 114.96875 C 899.84375 115.445312 901.9375 115.917969 904.035156 116.390625 C 914.078125 118.652344 924.121094 120.914062 934.164062 123.175781 Z M 955.582031 106.53125 C 955.117188 105.644531 954.648438 104.761719 954.183594 103.875 C 954 103.53125 953.816406 103.183594 953.636719 102.839844 C 947.960938 102.382812 942.292969 102.492188 936.640625 103.171875 C 933.730469 103.5 930.855469 104.050781 927.945312 104.355469 C 924.730469 104.683594 921.507812 104.980469 918.28125 105.261719 C 923.117188 106.164062 927.957031 107.066406 932.789062 107.972656 L 932.792969 107.972656 C 932.816406 107.964844 932.839844 107.957031 932.863281 107.949219 C 940.125 106.128906 948.148438 105.226562 955.582031 106.53125 Z M 935.585938 109.113281 C 935.609375 113.914062 935.636719 118.714844 935.660156 123.515625 C 940.535156 124.613281 945.40625 125.710938 950.28125 126.8125 C 955.070312 125.957031 959.769531 124.753906 964.375 123.195312 C 961.738281 118.199219 959.101562 113.203125 956.464844 108.207031 C 956.421875 108.207031 956.382812 108.199219 956.339844 108.191406 C 949.617188 106.789062 942.296875 107.378906 935.535156 108.855469 C 935.566406 108.9375 935.585938 109.023438 935.585938 109.113281 Z M 949.519531 128.167969 C 940.648438 126.167969 931.78125 124.171875 922.914062 122.171875 C 907.507812 118.703125 892.105469 115.230469 876.703125 111.761719 C 876.691406 111.996094 876.683594 112.234375 876.679688 112.46875 C 876.546875 117.097656 876.5625 121.738281 876.550781 126.371094 C 876.550781 127.039062 876.765625 128.246094 876.664062 129.160156 C 885.761719 131.339844 894.859375 133.519531 903.953125 135.699219 C 919.175781 139.347656 934.398438 142.996094 949.621094 146.648438 C 949.582031 140.488281 949.550781 134.328125 949.519531 128.167969 Z M 930.390625 159.15625 C 930.390625 159.199219 930.382812 159.238281 930.367188 159.277344 C 932.285156 159.777344 934.207031 160.273438 936.125 160.769531 C 936.1875 159.242188 936.246094 157.722656 936.308594 156.195312 C 936.347656 155.222656 938.757812 154.1875 939.417969 153.753906 C 942.398438 151.796875 945.382812 149.84375 948.371094 147.886719 C 946.886719 147.53125 945.402344 147.175781 943.921875 146.820312 L 934.996094 153.242188 L 933.828125 152.960938 C 932.722656 153.714844 931.617188 154.472656 930.511719 155.230469 C 930.453125 155.269531 930.398438 155.308594 930.339844 155.347656 L 930.339844 155.394531 C 930.34375 155.84375 930.351562 156.292969 930.355469 156.742188 C 930.371094 157.546875 930.382812 158.351562 930.390625 159.15625 Z M 929.964844 154.800781 C 930.964844 154.117188 931.964844 153.433594 932.964844 152.75 L 932.183594 152.5625 C 932.183594 152.402344 932.191406 152.242188 932.191406 152.082031 C 932.191406 151.988281 932.183594 151.894531 932.171875 151.804688 L 940.703125 146.046875 C 939.503906 145.761719 938.304688 145.472656 937.105469 145.1875 L 928.078125 151.558594 L 926.910156 151.273438 C 925.804688 152.03125 924.699219 152.789062 923.59375 153.542969 C 923.535156 153.585938 923.476562 153.625 923.417969 153.664062 L 923.417969 153.710938 C 923.425781 154.160156 923.429688 154.609375 923.4375 155.058594 C 923.449219 155.863281 923.460938 156.667969 923.472656 157.472656 C 923.46875 157.480469 923.46875 157.484375 923.46875 157.492188 C 925.554688 158.03125 927.640625 158.574219 929.726562 159.113281 C 929.710938 158.144531 929.699219 157.175781 929.683594 156.207031 C 929.675781 155.703125 929.5 155.117188 929.964844 154.800781 Z M 923.046875 153.117188 C 924.042969 152.433594 925.042969 151.75 926.042969 151.066406 L 925.261719 150.878906 C 925.265625 150.714844 925.269531 150.558594 925.273438 150.398438 C 925.273438 150.304688 925.265625 150.210938 925.25 150.117188 L 933.753906 144.382812 C 932.347656 144.042969 930.9375 143.707031 929.53125 143.371094 L 930.078125 143.574219 L 921.3125 149.871094 L 920.144531 149.589844 C 919.039062 150.347656 917.929688 151.105469 916.828125 151.859375 C 916.769531 151.898438 916.710938 151.9375 916.652344 151.976562 C 916.652344 151.996094 916.652344 152.007812 916.652344 152.027344 C 916.660156 152.476562 916.664062 152.925781 916.671875 153.371094 C 916.683594 154.164062 916.695312 154.953125 916.703125 155.742188 C 918.738281 156.269531 920.769531 156.796875 922.804688 157.320312 C 922.792969 156.390625 922.777344 155.457031 922.765625 154.523438 C 922.757812 154.015625 922.582031 153.433594 923.046875 153.117188 Z M 916.277344 151.433594 C 917.277344 150.75 918.277344 150.066406 919.277344 149.382812 L 918.496094 149.191406 C 918.496094 149.03125 918.503906 148.871094 918.507812 148.710938 C 918.507812 148.617188 918.5 148.523438 918.484375 148.433594 L 926.921875 142.742188 C 925.65625 142.441406 924.390625 142.136719 923.125 141.832031 L 914.390625 148.109375 L 913.222656 147.828125 C 912.117188 148.585938 911.011719 149.34375 909.90625 150.097656 C 909.847656 150.136719 909.792969 150.175781 909.734375 150.21875 C 909.734375 150.234375 909.734375 150.246094 909.734375 150.265625 C 909.738281 150.714844 909.746094 151.164062 909.753906 151.613281 C 909.761719 152.390625 909.773438 153.171875 909.785156 153.953125 C 911.867188 154.492188 913.953125 155.03125 916.035156 155.570312 C 916.023438 154.660156 916.011719 153.75 916 152.839844 C 915.992188 152.332031 915.816406 151.75 916.277344 151.433594 Z M 909.359375 149.671875 C 910.359375 148.988281 911.355469 148.304688 912.355469 147.621094 L 911.574219 147.429688 C 911.578125 147.269531 911.585938 147.109375 911.585938 146.949219 C 911.585938 146.855469 911.578125 146.765625 911.566406 146.671875 L 919.890625 141.058594 C 918.605469 140.75 917.324219 140.441406 916.042969 140.136719 L 907.394531 146.351562 L 906.226562 146.070312 C 905.121094 146.824219 904.015625 147.582031 902.910156 148.335938 C 902.851562 148.375 902.792969 148.414062 902.738281 148.457031 C 902.734375 148.472656 902.734375 148.488281 902.734375 148.503906 C 902.742188 148.953125 902.75 149.402344 902.753906 149.851562 C 902.765625 150.613281 902.777344 151.378906 902.785156 152.140625 C 904.894531 152.6875 907.007812 153.234375 909.117188 153.777344 C 909.101562 152.878906 909.089844 151.976562 909.078125 151.078125 C 909.070312 150.570312 908.894531 149.988281 909.359375 149.671875 Z M 902.363281 147.910156 C 903.359375 147.226562 904.359375 146.542969 905.359375 145.859375 L 904.578125 145.671875 C 904.582031 145.511719 904.589844 145.351562 904.589844 145.1875 C 904.589844 145.097656 904.582031 145.003906 904.570312 144.910156 L 912.800781 139.359375 C 911.496094 139.046875 910.1875 138.730469 908.878906 138.417969 L 900.398438 144.511719 L 899.230469 144.230469 C 898.125 144.988281 897.019531 145.742188 895.914062 146.5 C 895.855469 146.539062 895.796875 146.578125 895.738281 146.617188 C 895.738281 146.632812 895.738281 146.644531 895.738281 146.667969 C 895.746094 147.113281 895.753906 147.5625 895.757812 148.011719 L 895.789062 150.332031 C 897.898438 150.875 900.007812 151.421875 902.121094 151.96875 C 902.105469 151.085938 902.09375 150.199219 902.082031 149.316406 C 902.074219 148.808594 901.898438 148.226562 902.363281 147.910156 Z M 895.367188 146.070312 C 896.363281 145.390625 897.363281 144.707031 898.363281 144.019531 L 897.582031 143.832031 C 897.585938 143.671875 897.59375 143.511719 897.59375 143.351562 C 897.59375 143.257812 897.585938 143.164062 897.570312 143.074219 L 905.628906 137.640625 C 904.453125 137.355469 903.28125 137.074219 902.105469 136.792969 L 893.707031 142.828125 L 892.542969 142.546875 C 891.4375 143.300781 890.332031 144.058594 889.222656 144.816406 C 889.167969 144.855469 889.109375 144.894531 889.050781 144.933594 L 889.050781 144.980469 C 889.058594 145.429688 889.0625 145.878906 889.070312 146.328125 C 889.078125 147.085938 889.089844 147.84375 889.101562 148.601562 C 889.75 148.769531 890.398438 148.933594 891.042969 149.101562 C 892.40625 149.453125 893.765625 149.804688 895.121094 150.160156 C 895.113281 149.265625 895.097656 148.371094 895.085938 147.476562 C 895.078125 146.972656 894.902344 146.386719 895.367188 146.070312 Z M 888.675781 144.386719 C 889.675781 143.703125 890.671875 143.019531 891.675781 142.335938 L 890.894531 142.148438 C 890.894531 141.988281 890.902344 141.828125 890.90625 141.667969 C 890.902344 141.574219 890.894531 141.480469 890.882812 141.386719 L 898.851562 136.011719 C 897.746094 135.746094 896.636719 135.480469 895.527344 135.214844 L 887.171875 141.21875 L 886.003906 140.9375 C 884.898438 141.695312 883.792969 142.453125 882.6875 143.207031 C 882.628906 143.246094 882.574219 143.285156 882.515625 143.324219 L 882.515625 143.375 C 882.519531 143.820312 882.527344 144.269531 882.535156 144.71875 C 882.542969 145.449219 882.554688 146.179688 882.5625 146.90625 C 884.519531 147.414062 886.476562 147.921875 888.433594 148.425781 C 888.421875 147.550781 888.410156 146.671875 888.394531 145.792969 C 888.390625 145.285156 888.214844 144.703125 888.675781 144.386719 Z M 882.140625 142.777344 C 883.140625 142.09375 884.140625 141.410156 885.136719 140.726562 L 884.355469 140.539062 C 884.363281 140.378906 884.367188 140.21875 884.367188 140.058594 C 884.367188 139.964844 884.359375 139.871094 884.347656 139.777344 L 892.273438 134.433594 C 890.957031 134.121094 889.640625 133.804688 888.324219 133.488281 L 880.347656 139.339844 L 879.179688 139.058594 C 878.074219 139.816406 876.96875 140.570312 875.863281 141.328125 C 875.804688 141.367188 875.746094 141.40625 875.691406 141.445312 C 875.691406 141.460938 875.6875 141.476562 875.6875 141.496094 C 875.695312 141.945312 875.703125 142.390625 875.710938 142.839844 C 875.71875 143.609375 875.730469 144.375 875.738281 145.140625 C 877.792969 145.671875 879.84375 146.203125 881.894531 146.734375 C 881.882812 145.886719 881.871094 145.035156 881.859375 144.183594 C 881.851562 143.679688 881.679688 143.09375 882.140625 142.777344 Z M 875.316406 140.898438 C 876.3125 140.214844 877.3125 139.53125 878.3125 138.851562 L 877.53125 138.660156 C 877.535156 138.5 877.542969 138.339844 877.542969 138.179688 C 877.542969 138.085938 877.535156 137.992188 877.523438 137.902344 L 885.269531 132.757812 C 884.132812 132.484375 882.992188 132.210938 881.855469 131.9375 L 874.023438 137.683594 L 872.855469 137.402344 C 871.75 138.15625 870.644531 138.914062 869.535156 139.667969 C 869.480469 139.710938 869.421875 139.75 869.363281 139.789062 C 869.363281 139.804688 869.363281 139.816406 869.363281 139.835938 C 869.371094 140.285156 869.375 140.734375 869.382812 141.183594 C 869.394531 141.957031 869.402344 142.730469 869.414062 143.503906 C 871.300781 143.992188 873.1875 144.480469 875.074219 144.96875 C 875.058594 144.082031 875.046875 143.195312 875.035156 142.308594 C 875.027344 141.800781 874.851562 141.214844 875.316406 140.898438 Z M 868.988281 139.242188 C 869.988281 138.558594 870.988281 137.875 871.988281 137.191406 L 871.207031 137.003906 C 871.210938 136.84375 871.214844 136.683594 871.214844 136.523438 C 871.214844 136.429688 871.210938 136.335938 871.199219 136.242188 L 878.789062 131.203125 C 877.871094 130.980469 876.953125 130.761719 876.035156 130.542969 C 875.992188 130.53125 875.953125 130.519531 875.917969 130.5 C 875.15625 131.109375 873.933594 131.597656 873.300781 131.988281 C 870.171875 133.925781 867.042969 135.867188 863.914062 137.8125 C 863.972656 139.253906 864.03125 140.691406 864.09375 142.128906 C 865.644531 142.53125 867.195312 142.929688 868.746094 143.332031 C 868.734375 142.4375 868.722656 141.542969 868.710938 140.648438 C 868.703125 140.140625 868.527344 139.558594 868.988281 139.242188 Z M 881.90625 110.585938 C 882.207031 110.277344 882.515625 109.972656 882.824219 109.660156 C 881.675781 109.929688 880.535156 110.214844 879.402344 110.527344 C 879.195312 110.585938 878.976562 110.636719 878.75 110.691406 C 879.605469 110.886719 880.457031 111.078125 881.3125 111.269531 C 881.351562 111.171875 881.410156 111.089844 881.484375 111.015625 C 881.625 110.871094 881.765625 110.730469 881.90625 110.585938 Z M 961.492188 108.238281 C 956.714844 99.269531 951.941406 90.304688 947.164062 81.335938 C 946.234375 79.589844 945.304688 77.847656 944.378906 76.105469 C 944.210938 76.066406 944.042969 76.042969 943.875 76.027344 C 943.367188 75.941406 942.886719 76.015625 942.433594 76.25 C 942.046875 76.523438 941.757812 77.117188 941.96875 77.515625 C 942.394531 78.320312 942.816406 79.128906 943.246094 79.9375 C 950.761719 94.191406 958.28125 108.445312 965.800781 122.695312 C 966.664062 122.394531 967.65625 122.058594 968.632812 121.644531 C 966.253906 117.175781 963.875 112.707031 961.492188 108.238281 Z M 877.769531 184.15625 C 877.984375 188.183594 883.820312 188.183594 884.035156 184.15625 C 883.820312 180.152344 877.546875 180.132812 877.769531 184.15625 Z M 884.878906 169.3125 C 885.078125 165.46875 885.277344 161.625 885.476562 157.78125 C 881.871094 156.820312 878.273438 155.84375 874.675781 154.839844 C 874.730469 155.269531 874.78125 155.703125 874.832031 156.136719 C 875.429688 161.109375 876.023438 166.082031 876.617188 171.054688 C 876.828125 172.832031 877.042969 174.613281 877.253906 176.394531 C 877.269531 176.523438 877.285156 176.65625 877.300781 176.78125 C 877.324219 176.820312 877.363281 176.886719 877.433594 176.992188 C 878.355469 178.402344 880.191406 178.941406 881.8125 178.585938 C 882.738281 178.445312 883.515625 178.03125 884.148438 177.34375 C 884.289062 177.164062 884.484375 176.585938 884.484375 176.898438 C 884.503906 176.542969 884.519531 176.191406 884.539062 175.835938 C 884.65625 173.664062 884.769531 171.488281 884.878906 169.3125 Z M 957.835938 197.972656 C 957.621094 193.96875 951.347656 193.949219 951.566406 197.972656 C 951.785156 202 957.617188 202 957.835938 197.972656 Z M 958.519531 186.175781 C 958.773438 181.328125 959.023438 176.472656 959.277344 171.621094 L 959.277344 171.617188 C 959.25 171.488281 959.257812 171.355469 959.292969 171.230469 C 959.429688 168.707031 959.558594 166.1875 959.6875 163.664062 C 956.164062 165.203125 952.570312 166.558594 948.910156 167.726562 C 948.734375 167.785156 948.5625 167.839844 948.386719 167.898438 C 948.929688 172.421875 949.46875 176.949219 950.007812 181.472656 C 950.28125 183.785156 950.558594 186.101562 950.839844 188.417969 C 950.917969 189.085938 951 189.746094 951.074219 190.414062 C 951.089844 190.503906 951.097656 190.59375 951.109375 190.683594 C 951.066406 190.277344 951.152344 190.714844 951.328125 190.960938 C 952.449219 192.5 954.730469 192.859375 956.449219 192.183594 C 957.128906 191.953125 957.675781 191.546875 958.089844 190.964844 C 958.21875 190.761719 958.285156 190.492188 958.285156 190.664062 C 958.363281 189.167969 958.441406 187.671875 958.519531 186.175781 Z M 965.542969 173.800781 C 965.484375 173.554688 965.398438 173.320312 965.285156 173.09375 C 965.171875 172.871094 965.035156 172.660156 964.871094 172.46875 C 964.707031 172.273438 964.523438 172.105469 964.320312 171.957031 C 964.113281 171.808594 963.894531 171.6875 963.660156 171.589844 C 963.425781 171.496094 963.183594 171.429688 962.933594 171.390625 C 962.683594 171.351562 962.429688 171.34375 962.179688 171.367188 C 961.925781 171.390625 961.679688 171.441406 961.441406 171.523438 C 961.199219 171.605469 960.972656 171.714844 960.761719 171.847656 C 960.675781 173.515625 960.585938 175.191406 960.5 176.855469 C 962.660156 178.445312 966.351562 176.734375 965.542969 173.800781 Z M 965.953125 167.269531 C 965.980469 167.214844 966.015625 167.160156 966.058594 167.113281 C 966.054688 167.070312 966.054688 167.03125 966.058594 166.992188 C 966.085938 166.519531 966.109375 166.039062 966.132812 165.566406 C 966.230469 163.757812 966.324219 161.953125 966.417969 160.152344 C 964.746094 161.207031 963.011719 162.148438 961.21875 162.980469 L 961.21875 163.050781 C 961.117188 164.9375 961.023438 166.824219 960.921875 168.714844 C 962.640625 169.1875 965.007812 168.953125 965.953125 167.269531 Z M 965.953125 167.269531 " fill-opacity="1" fill-rule="nonzero"/>

</g>
</svg>