<svg xmlns="http://www.w3.org/2000/svg" viewBox="0 0 114.914062 147.0">
<g transform="translate(-205.0,-46.0)">
<path fill="#000000" d="M 237.300781 168.597656 C 237.816406 168.007812 238.328125 167.414062 238.828125 166.808594 C 235.316406 164.847656 230.964844 163.847656 228.199219 160.828125 C 227.84375 161.296875 227.476562 161.765625 227.109375 162.226562 C 228.457031 163.328125 230.429688 163.609375 231.855469 164.578125 C 233.730469 165.847656 235.53125 167.203125 237.300781 168.597656 Z M 241.964844 162.824219 C 241.871094 162.78125 241.796875 162.726562 241.734375 162.664062 C 239.609375 161.5 237.570312 160.191406 235.53125 158.882812 C 234.152344 158.011719 232.875 157.238281 231.785156 156.105469 C 230.964844 157.167969 230.167969 158.230469 229.363281 159.296875 C 232.074219 162.382812 236.558594 163.320312 240.039062 165.324219 C 240.699219 164.503906 241.339844 163.667969 241.964844 162.824219 Z M 243.613281 182.390625 C 242.105469 182.488281 240.359375 181.699219 239.820312 180.222656 C 239.816406 180.199219 239.8125 180.175781 239.804688 180.15625 C 239.707031 180.3125 239.621094 180.472656 239.546875 180.636719 C 238.09375 183.757812 241.90625 183.527344 242.933594 182.890625 C 243.175781 182.738281 243.402344 182.578125 243.613281 182.390625 Z M 243.492188 180.3125 C 244.289062 179.789062 243.28125 178.320312 242.433594 178.417969 C 241.910156 178.472656 241.339844 179.273438 241.683594 179.761719 C 242.035156 180.261719 242.652344 180.484375 243.261719 180.523438 C 243.324219 180.445312 243.394531 180.375 243.492188 180.3125 Z M 244.800781 158.601562 C 244.886719 158.464844 244.964844 158.3125 245.054688 158.167969 C 243.34375 156.808594 241.300781 156.042969 239.558594 154.742188 C 238.171875 153.703125 236.910156 152.5 235.363281 151.710938 C 235.105469 152.011719 234.855469 152.296875 234.601562 152.59375 C 236.316406 153.410156 237.734375 154.640625 239.355469 155.671875 C 240.886719 156.640625 242.652344 157.101562 244.167969 158.074219 C 244.417969 158.238281 244.625 158.421875 244.800781 158.601562 Z M 253.140625 144.5625 C 254.152344 144.71875 254.304688 144.117188 254.21875 143.386719 C 253.109375 143.007812 251.960938 142.207031 251.296875 141.785156 C 249.824219 140.867188 248.484375 139.730469 246.992188 138.855469 C 246.25 138.417969 244.453125 137.679688 245.214844 139.566406 C 245.640625 140.625 248.070312 142.003906 248.96875 142.601562 C 250.21875 143.425781 251.632812 144.324219 253.140625 144.5625 Z M 254.722656 141.402344 C 255.117188 140.898438 255.515625 140.359375 255.917969 139.792969 C 253.449219 138.667969 251.324219 136.9375 248.933594 135.648438 C 248.929688 135.648438 248.925781 135.644531 248.910156 135.640625 C 248.496094 136.128906 248.070312 136.597656 247.621094 137.039062 C 248.703125 137.738281 249.738281 138.535156 250.808594 139.238281 C 251.3125 139.574219 253.242188 140.980469 254.480469 141.511719 C 254.554688 141.46875 254.636719 141.433594 254.71875 141.410156 C 254.722656 141.402344 254.722656 141.402344 254.722656 141.402344 Z M 253.558594 168.074219 C 254.109375 167.070312 255.324219 165.214844 255.183594 164.109375 C 254.835938 161.421875 251.863281 162.277344 250.789062 163.515625 C 249.589844 164.914062 248.847656 166.492188 247.894531 168.027344 C 246.128906 170.871094 244.390625 173.769531 242.492188 176.539062 C 244.257812 176.484375 245.628906 178.199219 245.609375 179.824219 C 246.03125 179.101562 246.425781 178.355469 246.882812 177.65625 C 249.023438 174.414062 251.695312 171.5 253.558594 168.074219 Z M 256.988281 138.214844 C 257.433594 137.523438 257.882812 136.816406 258.324219 136.09375 C 256.378906 134.300781 253.929688 133.199219 251.550781 132.074219 C 251.082031 132.777344 250.59375 133.472656 250.101562 134.144531 C 252.417969 135.4375 254.523438 137.191406 256.988281 138.214844 Z M 259.324219 134.464844 C 260.152344 133.109375 260.957031 131.769531 261.734375 130.523438 C 259.648438 129.113281 257.511719 127.738281 255.136719 126.847656 C 255.113281 126.835938 255.101562 126.820312 255.074219 126.816406 C 254.953125 126.984375 254.839844 127.15625 254.722656 127.324219 C 254.015625 128.324219 253.3125 129.40625 252.605469 130.5 C 254.96875 131.617188 257.34375 132.738281 259.324219 134.464844 Z M 262.738281 128.925781 C 263.367188 127.933594 264 126.929688 264.628906 125.929688 C 262.40625 124.914062 260.265625 123.53125 258.660156 121.6875 C 257.828125 122.878906 257.003906 124.058594 256.179688 125.246094 C 258.515625 126.195312 260.644531 127.519531 262.738281 128.925781 Z M 265.636719 124.332031 C 266.28125 123.316406 266.921875 122.296875 267.566406 121.28125 C 267.507812 121.261719 267.445312 121.234375 267.390625 121.199219 C 265.359375 120.078125 263.828125 118.3125 261.9375 117.011719 C 261.921875 117 261.917969 116.992188 261.902344 116.988281 C 261.195312 118.023438 260.476562 119.054688 259.761719 120.089844 C 261.296875 121.949219 263.425781 123.363281 265.636719 124.332031 Z M 268.546875 119.726562 C 269.320312 118.492188 270.09375 117.257812 270.867188 116.027344 C 269.160156 114.488281 267.054688 113.503906 265.261719 112.09375 C 264.496094 113.203125 263.730469 114.324219 262.96875 115.441406 C 264.824219 116.734375 266.34375 118.46875 268.335938 119.570312 C 268.421875 119.621094 268.488281 119.667969 268.546875 119.726562 Z M 270.136719 147.355469 C 270.5 146.996094 273.371094 143.074219 271.574219 143.28125 C 270.292969 143.4375 269.273438 144.140625 268.195312 144.769531 C 266.503906 145.765625 264.558594 146.824219 262.519531 146.722656 C 259.527344 146.582031 257.738281 145.691406 256.066406 143.675781 C 256.042969 145.078125 255.488281 146.378906 253.765625 146.46875 C 251.652344 146.574219 249.453125 145.234375 247.792969 144.070312 C 246.054688 142.863281 243.984375 141.355469 243.0625 139.382812 C 242.242188 137.636719 243.546875 136.582031 245.21875 136.621094 C 245.347656 136.445312 245.527344 136.3125 245.738281 136.25 C 246.664062 135.398438 247.527344 134.433594 248.34375 133.390625 C 244.4375 132.191406 238.640625 135.800781 236.144531 138.652344 C 233.929688 141.179688 229.769531 148.113281 233.800781 150.648438 C 233.949219 150.476562 234.09375 150.304688 234.238281 150.136719 C 234.382812 149.714844 234.769531 149.414062 235.304688 149.632812 C 237.550781 150.570312 239.015625 152.316406 241.085938 153.503906 C 243.035156 154.621094 245.019531 155.621094 246.726562 157.105469 C 246.816406 157.179688 246.875 157.261719 246.921875 157.347656 C 247.207031 157.609375 247.332031 158.023438 247.089844 158.457031 C 246.996094 158.601562 246.914062 158.746094 246.820312 158.890625 C 248.054688 159.367188 248.867188 160.4375 250.085938 160.953125 C 250.277344 161.03125 250.449219 161.152344 250.570312 161.296875 C 251.121094 160.941406 251.734375 160.660156 252.4375 160.503906 C 253.96875 160.171875 255.917969 160.96875 256.621094 162.421875 C 256.847656 161.179688 256.84375 159.773438 257.035156 158.835938 C 257.382812 157.195312 258.246094 155.730469 259.515625 154.605469 C 262.714844 151.765625 267.117188 150.375 270.136719 147.355469 Z M 271.871094 114.421875 C 272.539062 113.367188 273.199219 112.308594 273.867188 111.25 C 273.84375 111.238281 273.824219 111.222656 273.800781 111.203125 C 272.1875 109.839844 270.464844 108.578125 268.542969 107.6875 C 268.464844 107.65625 268.402344 107.617188 268.347656 107.570312 C 267.664062 108.574219 266.980469 109.574219 266.296875 110.570312 C 266.375 110.609375 266.457031 110.652344 266.539062 110.710938 C 268.238281 112.066406 270.210938 113.019531 271.871094 114.421875 Z M 273.253906 148.109375 C 274.3125 146.386719 275.414062 144.179688 275.15625 142.078125 C 274.671875 138.183594 271.125 139.296875 268.992188 141.050781 C 265.125 144.222656 260.570312 144.203125 258.078125 140.277344 C 257.984375 140.339844 257.882812 140.375 257.765625 140.394531 C 257.476562 140.824219 257.183594 141.238281 256.878906 141.644531 C 258.921875 144.554688 262.089844 145.90625 265.578125 144.066406 C 267.292969 143.167969 269.035156 141.699219 271.03125 141.464844 C 274.132812 141.09375 274.613281 144.375 273.179688 146.589844 C 270.402344 150.890625 265.164062 152.101562 261.484375 155.375 C 259.167969 157.433594 258.910156 159.386719 258.417969 162.238281 C 258.109375 164.054688 257.34375 165.269531 256.414062 166.828125 C 255.617188 168.175781 254.941406 169.546875 254.070312 170.855469 C 251.765625 174.28125 249.320312 177.5625 247.097656 181.035156 C 245.816406 183.046875 244.15625 185.101562 241.554688 185.160156 C 239.597656 185.207031 237.976562 184.597656 237.308594 182.65625 C 236.570312 180.523438 238.921875 178.152344 240.15625 176.613281 C 242.511719 173.332031 244.746094 169.792969 246.722656 166.269531 C 247.441406 164.992188 248.183594 163.644531 249.148438 162.550781 C 248.046875 161.929688 247.144531 160.875 245.917969 160.566406 C 245.878906 160.558594 245.847656 160.542969 245.816406 160.53125 C 243.609375 163.984375 241.050781 167.191406 238.335938 170.269531 C 238.050781 170.75 237.355469 171.03125 236.796875 170.585938 C 234.558594 168.808594 232.210938 166.65625 229.550781 165.515625 C 227.6875 164.71875 224.226562 164.289062 225.273438 161.617188 C 225.941406 159.929688 227.753906 158.375 228.847656 156.929688 C 230.074219 155.296875 231.289062 153.667969 232.582031 152.09375 C 227.933594 148.867188 231.390625 141.847656 233.988281 138.316406 C 236.867188 134.398438 244.074219 129.882812 249.035156 131.621094 C 249.210938 131.683594 249.347656 131.789062 249.453125 131.90625 C 250.40625 130.5625 251.308594 129.160156 252.191406 127.792969 C 252.125 127.757812 252.058594 127.710938 252 127.648438 C 250.078125 125.703125 248.660156 124.488281 247.386719 122.03125 C 245.699219 118.746094 240.527344 117.0625 237.242188 119.382812 C 232.617188 122.664062 233.308594 127.5625 232.035156 132.378906 C 231.160156 135.699219 228.847656 138.246094 226.070312 140.1875 C 218.839844 145.222656 208.824219 148.304688 207.320312 158.414062 C 205.8125 168.59375 214.890625 176.234375 222.464844 181.3125 C 229.808594 186.238281 237.0625 192.179688 246.507812 189.597656 C 254.386719 187.441406 255.976562 180.648438 257.171875 173.433594 C 258.128906 167.65625 259.046875 159.664062 263.703125 155.613281 C 266.859375 152.863281 270.914062 151.898438 273.253906 148.109375 Z M 275.53125 108.59375 C 276.175781 107.570312 276.8125 106.550781 277.445312 105.53125 C 275.621094 104.429688 273.761719 103.398438 272.085938 102.074219 C 271.191406 103.386719 270.292969 104.710938 269.398438 106.027344 C 269.425781 106.039062 269.460938 106.046875 269.488281 106.058594 C 271.457031 106.964844 273.214844 108.269531 274.867188 109.652344 C 275.085938 109.300781 275.3125 108.941406 275.53125 108.59375 Z M 278.445312 103.929688 C 279.285156 102.589844 280.132812 101.242188 280.964844 99.902344 C 279.1875 98.890625 277.789062 97.324219 276.15625 96.09375 C 275.152344 97.566406 274.152344 99.039062 273.144531 100.515625 C 274.78125 101.847656 276.65625 102.84375 278.445312 103.929688 Z M 281.964844 98.300781 C 282.847656 96.890625 283.726562 95.484375 284.605469 94.082031 C 282.796875 93.277344 281.320312 91.988281 279.667969 90.933594 C 278.847656 92.132812 278.023438 93.339844 277.207031 94.539062 C 278.8125 95.765625 280.203125 97.308594 281.964844 98.300781 Z M 285.578125 92.523438 C 286.5 91.050781 287.417969 89.574219 288.34375 88.101562 C 286.753906 87.308594 285.496094 86.03125 283.949219 85.171875 C 283.84375 85.113281 283.773438 85.050781 283.710938 84.980469 C 283.589844 85.152344 283.480469 85.328125 283.355469 85.492188 C 282.484375 86.792969 281.605469 88.082031 280.722656 89.375 C 282.238281 90.371094 283.621094 91.648438 285.304688 92.351562 C 285.414062 92.398438 285.5 92.457031 285.578125 92.523438 Z M 289.347656 86.503906 C 290.195312 85.136719 291.046875 83.773438 291.890625 82.417969 C 290.335938 81.503906 288.945312 80.234375 287.207031 79.707031 C 286.367188 80.957031 285.542969 82.21875 284.722656 83.46875 C 284.777344 83.488281 284.839844 83.511719 284.898438 83.542969 C 286.445312 84.40625 287.710938 85.695312 289.300781 86.476562 C 289.316406 86.484375 289.328125 86.488281 289.347656 86.503906 Z M 292.890625 80.816406 C 293.628906 79.640625 294.363281 78.457031 295.101562 77.28125 C 293.75 76.296875 292.535156 75.128906 291.105469 74.273438 C 290.140625 75.484375 289.214844 76.769531 288.308594 78.085938 C 289.96875 78.742188 291.34375 79.925781 292.890625 80.816406 Z M 316.148438 54.257812 C 318.378906 51.980469 316.566406 48.125 313.292969 50.183594 C 311.875 51.082031 310.789062 52.289062 309.492188 53.328125 C 306.816406 55.464844 304.070312 57.46875 301.316406 59.5 C 298.550781 61.535156 295.09375 63.511719 292.878906 66.140625 C 291.183594 68.152344 292.574219 68.335938 292.148438 70.148438 C 291.972656 70.90625 291.6875 71.589844 291.40625 72.285156 C 293.085938 73.121094 294.398438 74.429688 295.890625 75.542969 C 297.371094 73.757812 298.660156 72.292969 301 71.4375 C 304.992188 69.988281 305.792969 67.90625 306.664062 64.105469 C 307.210938 61.710938 308.054688 59.617188 309.921875 57.96875 C 311.726562 56.359375 314.453125 55.980469 316.148438 54.257812 Z M 318.425781 49.296875 C 319.777344 51.21875 319.394531 54.105469 317.480469 55.589844 C 314.332031 58.027344 310.058594 58.738281 308.867188 63.078125 C 308.164062 65.675781 308.054688 69.25 305.722656 71.0625 C 304.398438 72.085938 303.039062 72.644531 301.5 73.257812 C 299.554688 74.035156 298.503906 75.292969 297.296875 76.773438 C 297.371094 76.992188 297.351562 77.238281 297.195312 77.496094 C 290.285156 88.542969 283.386719 99.605469 276.46875 110.652344 C 271.925781 117.902344 267.371094 125.15625 262.78125 132.386719 C 261.558594 134.320312 260.382812 136.335938 259.136719 138.304688 C 260.601562 141.703125 264.066406 142.664062 267.082031 140.1875 C 268.285156 139.203125 269.671875 137.84375 271.28125 137.59375 C 274.074219 137.152344 276.578125 138.328125 276.953125 141.390625 C 277.445312 145.363281 275.242188 149.402344 272.371094 152.039062 C 270.738281 153.539062 268.949219 154.527344 267.050781 155.648438 C 264.183594 157.335938 262.710938 159.4375 261.683594 162.578125 C 259.679688 168.707031 259.414062 175.226562 257.382812 181.304688 C 255.339844 187.414062 251.496094 190.652344 245.125 191.796875 C 237.058594 193.242188 231.21875 189.324219 224.816406 185.125 C 218.382812 180.914062 211.175781 176.261719 207.539062 169.203125 C 204.007812 162.316406 204.855469 154.855469 209.960938 148.933594 C 212.554688 145.941406 215.835938 143.964844 219.273438 142.074219 C 222.988281 140.03125 228.777344 137.328125 229.964844 132.835938 C 230.980469 128.996094 230.621094 124.933594 232.851562 121.421875 C 234.519531 118.804688 236.527344 117.164062 239.644531 116.710938 C 242.171875 116.34375 245.859375 116.777344 247.597656 118.917969 C 248.558594 120.097656 248.957031 121.457031 249.769531 122.710938 C 250.671875 124.125 252.050781 125.050781 253.226562 126.210938 C 253.484375 125.832031 253.738281 125.449219 253.992188 125.089844 C 258.878906 118.113281 263.683594 111.082031 268.472656 104.035156 C 273.195312 97.113281 277.890625 90.175781 282.613281 83.253906 C 284.746094 80.117188 286.785156 76.84375 289.085938 73.816406 C 289.019531 73.644531 289.003906 73.445312 289.070312 73.210938 C 289.660156 71.238281 290.050781 69.535156 289.976562 67.457031 C 289.941406 66.558594 290.785156 65.523438 291.53125 64.777344 C 291.164062 64.476562 290.835938 64.140625 290.566406 63.726562 C 290.414062 63.839844 290.269531 63.953125 290.128906 64.074219 C 289.726562 64.40625 289.175781 64.460938 288.789062 64.074219 C 288.476562 63.757812 288.410156 63.179688 288.707031 62.828125 C 288.707031 62.738281 288.722656 62.632812 288.75 62.527344 C 289.226562 61.082031 290.53125 59.945312 292.121094 60.511719 C 292.660156 60.707031 293.042969 61.351562 292.675781 61.890625 C 292.5 62.160156 292.289062 62.394531 292.0625 62.601562 C 292.101562 62.640625 292.128906 62.679688 292.152344 62.722656 C 292.34375 63.023438 292.628906 63.269531 292.953125 63.496094 C 293.894531 62.683594 294.867188 61.898438 295.863281 61.144531 C 295.789062 61.023438 295.714844 60.90625 295.640625 60.792969 C 295.609375 60.753906 295.585938 60.714844 295.558594 60.675781 C 295.214844 60.792969 294.847656 60.863281 294.492188 60.890625 C 293.972656 60.945312 293.546875 60.425781 293.546875 59.949219 C 293.546875 59.875 293.554688 59.796875 293.574219 59.730469 C 293.558594 59.617188 293.558594 59.503906 293.578125 59.382812 C 293.753906 58.253906 294.632812 57.386719 295.703125 57.054688 C 296.105469 56.925781 296.554688 57.136719 296.765625 57.488281 C 297.113281 58.058594 297.238281 58.71875 297.042969 59.3125 C 297.175781 59.503906 297.273438 59.699219 297.394531 59.894531 C 297.414062 59.917969 297.421875 59.945312 297.433594 59.96875 C 298.058594 59.511719 298.699219 59.050781 299.324219 58.597656 C 299.292969 58.542969 299.265625 58.484375 299.234375 58.421875 C 299.074219 58.019531 298.660156 57.871094 298.265625 57.859375 C 297.679688 57.839844 297.171875 57.246094 297.332031 56.671875 C 297.308594 56.492188 297.335938 56.296875 297.445312 56.121094 C 297.679688 55.75 298.015625 55.5 298.328125 55.199219 C 298.546875 55.023438 298.8125 54.925781 299.058594 54.933594 C 299.484375 54.65625 300.101562 54.886719 300.335938 55.285156 C 300.601562 55.75 300.421875 56.25 300.023438 56.550781 C 300.359375 56.796875 300.632812 57.117188 300.851562 57.503906 C 301.316406 57.171875 301.777344 56.839844 302.234375 56.507812 C 302.453125 56.351562 302.679688 56.1875 302.898438 56.03125 C 302.742188 55.675781 302.4375 54.628906 301.972656 54.785156 C 301.046875 55.101562 300.421875 53.863281 301.054688 53.210938 C 301.125 53.140625 301.195312 53.066406 301.261719 52.992188 C 301.332031 52.816406 301.457031 52.660156 301.667969 52.542969 C 301.695312 52.511719 301.746094 52.5 301.796875 52.476562 C 302.007812 52.269531 302.242188 52.074219 302.5 51.914062 C 303.300781 51.390625 304.28125 52.410156 303.789062 53.203125 C 303.714844 53.320312 303.632812 53.425781 303.550781 53.515625 C 303.921875 53.898438 304.214844 54.410156 304.445312 54.90625 C 305.21875 54.339844 305.988281 53.757812 306.734375 53.167969 C 306.597656 52.8125 306.367188 52.507812 306.089844 52.257812 C 305.867188 52.289062 305.644531 52.324219 305.429688 52.378906 C 304.707031 52.566406 304.113281 51.914062 304.269531 51.214844 C 304.488281 50.25 305.175781 49.535156 305.960938 48.980469 C 306.527344 48.574219 307.433594 49.109375 307.382812 49.792969 C 307.347656 50.15625 307.25 50.410156 307.109375 50.664062 C 307.183594 50.710938 307.246094 50.761719 307.304688 50.820312 C 307.675781 51.144531 307.972656 51.519531 308.214844 51.933594 C 308.402344 51.765625 308.589844 51.609375 308.773438 51.449219 C 309.28125 50.980469 309.804688 50.449219 310.363281 49.953125 C 310.3125 49.882812 310.277344 49.808594 310.242188 49.726562 C 310.058594 49.238281 309.628906 48.542969 309.011719 48.828125 C 308.183594 49.203125 307.21875 48.414062 307.714844 47.539062 C 308 47.042969 308.40625 46.683594 308.808594 46.304688 C 309.527344 45.605469 310.546875 46.371094 310.414062 47.136719 C 310.472656 47.167969 310.527344 47.191406 310.574219 47.230469 C 311.179688 47.632812 311.574219 48.171875 311.875 48.808594 C 312.03125 48.714844 312.179688 48.632812 312.335938 48.558594 C 314.230469 47.671875 317.027344 47.304688 318.425781 49.296875 Z M 233.421875 154.347656 C 233.40625 154.371094 233.402344 154.386719 233.398438 154.390625 C 233.382812 154.441406 233.367188 154.507812 233.363281 154.507812 C 233.363281 154.542969 233.363281 154.578125 233.363281 154.613281 C 233.367188 154.613281 233.429688 154.859375 233.445312 154.90625 C 233.484375 155.003906 233.488281 155.09375 233.484375 155.191406 C 234.71875 156.371094 236.355469 157.191406 237.769531 158.085938 C 239.363281 159.105469 240.96875 160.089844 242.621094 161.003906 C 242.96875 160.96875 243.21875 160.910156 243.371094 160.828125 C 243.449219 160.714844 243.527344 160.601562 243.605469 160.484375 C 243.605469 160.003906 242.671875 159.355469 242.382812 159.226562 C 241.945312 159.011719 241.496094 158.816406 241.042969 158.640625 C 240.332031 158.347656 239.609375 158.058594 238.957031 157.648438 C 237.160156 156.515625 235.546875 155.003906 233.578125 154.183594 C 233.546875 154.207031 233.515625 154.242188 233.449219 154.304688 C 233.441406 154.316406 233.429688 154.328125 233.429688 154.332031 C 233.429688 154.34375 233.425781 154.34375 233.421875 154.347656 " fill-opacity="1" fill-rule="nonzero"/>

</g>
</svg>