<svg xmlns="http://www.w3.org/2000/svg" viewBox="0 0 90.63281199999994 116.171875">
<g transform="translate(-631.367188,-243.828125)">
<path fill="#050607" d="M 704.363281 359.996094 C 704.359375 359.996094 704.355469 359.996094 704.351562 359.996094 L 658.695312 359.996094 C 658.320312 359.996094 657.964844 359.832031 657.726562 359.546875 C 657.488281 359.257812 657.386719 358.882812 657.457031 358.515625 C 658.910156 350.722656 660.070312 341.457031 659.410156 340.082031 C 658.785156 339.152344 654.78125 339.152344 653.273438 339.152344 C 652.804688 339.152344 652.328125 339.15625 651.847656 339.15625 C 651.351562 339.160156 650.855469 339.164062 650.363281 339.164062 C 646.519531 339.164062 640.085938 339.164062 639.433594 334.628906 C 639.417969 334.5 639.210938 332.433594 639.785156 326.703125 C 639.832031 326.210938 639.597656 325.890625 639.015625 325.222656 C 638.480469 324.613281 637.816406 323.851562 637.816406 322.75 C 637.816406 321.652344 638.28125 320.332031 638.636719 319.480469 C 637.480469 317.980469 637.167969 315.46875 637.109375 314.894531 C 637.082031 314.628906 637.140625 314.355469 637.28125 314.125 C 637.761719 313.332031 638.046875 312.175781 638.203125 311.265625 C 635.691406 310.941406 632.152344 310.089844 631.6875 306.863281 C 631.496094 305.515625 632.582031 303.652344 634.867188 299.898438 C 637.441406 295.664062 640.96875 289.863281 640.675781 286.144531 C 640.40625 282.761719 639.609375 265.308594 650.230469 253.882812 C 656.429688 247.214844 665.335938 243.832031 676.703125 243.832031 C 693.476562 243.832031 709.117188 252.136719 716.546875 264.988281 C 722.691406 275.617188 726.433594 294.394531 709.398438 323.5 C 708.878906 324.660156 700.273438 344.296875 705.476562 358.160156 C 705.570312 358.335938 705.625 358.53125 705.625 358.742188 C 705.625 359.4375 705.058594 359.996094 704.363281 359.996094 Z M 660.203125 357.492188 L 702.59375 357.492188 C 698.023438 342.484375 706.742188 323.246094 707.132812 322.40625 C 707.148438 322.367188 707.167969 322.332031 707.1875 322.296875 C 723.65625 294.191406 720.179688 276.296875 714.359375 266.238281 C 707.371094 254.148438 692.589844 246.339844 676.703125 246.339844 C 666.070312 246.339844 657.785156 249.449219 652.082031 255.585938 C 642.171875 266.242188 642.933594 282.746094 643.1875 285.945312 C 643.546875 290.46875 639.929688 296.417969 637.023438 301.195312 C 635.765625 303.265625 634.199219 305.839844 634.1875 306.546875 C 634.375 307.851562 635.984375 308.546875 639.734375 308.914062 C 640.410156 308.980469 640.910156 309.5625 640.867188 310.238281 C 640.859375 310.359375 640.683594 313.027344 639.664062 315.019531 C 639.855469 316.335938 640.347656 317.851562 640.8125 318.140625 C 641.363281 318.484375 641.5625 319.183594 641.273438 319.761719 C 640.910156 320.484375 640.335938 321.9375 640.335938 322.75 C 640.335938 322.914062 640.660156 323.28125 640.917969 323.578125 C 641.527344 324.277344 642.453125 325.335938 642.292969 326.953125 C 641.75 332.34375 641.933594 334.304688 641.933594 334.324219 C 642.214844 336.253906 645.503906 336.65625 650.363281 336.65625 C 650.851562 336.65625 651.34375 336.65625 651.832031 336.652344 C 656.164062 336.625 660.078125 336.558594 661.527344 338.722656 C 662.941406 340.832031 661.261719 351.605469 660.203125 357.492188 Z M 660.203125 357.492188 " fill-opacity="1" fill-rule="nonzero"/>

</g>
</svg>