<svg xmlns="http://www.w3.org/2000/svg" viewBox="0 0 86.19921900000008 98.1875">
<g transform="translate(-521.601562,-1358.011719)">
<path fill="#000000" d="M 607.714844 1438.996094 L 593.941406 1362.273438 C 593.707031 1360.898438 592.941406 1359.71875 591.796875 1358.933594 C 590.65625 1358.148438 589.28125 1357.855469 587.921875 1358.089844 L 532.410156 1368.027344 L 525.898438 1369.1875 C 523.066406 1369.695312 521.195312 1372.386719 521.6875 1375.214844 L 535.460938 1451.9375 C 535.695312 1453.3125 536.460938 1454.492188 537.601562 1455.277344 C 538.488281 1455.886719 539.492188 1456.199219 540.554688 1456.199219 C 541.617188 1456.199219 541.183594 1456.179688 541.480469 1456.121094 L 548.007812 1454.960938 L 603.523438 1445.027344 C 606.335938 1444.515625 608.226562 1441.824219 607.714844 1439.015625 Z M 540.75 1452.074219 C 540.476562 1452.136719 540.179688 1452.074219 539.945312 1451.898438 C 539.707031 1451.742188 539.550781 1451.488281 539.492188 1451.210938 L 525.742188 1374.488281 C 525.644531 1373.898438 526.015625 1373.347656 526.605469 1373.25 L 528.140625 1372.976562 C 528.140625 1373.328125 528.140625 1373.683594 528.21875 1374.054688 L 541.988281 1450.78125 C 542.050781 1451.132812 542.148438 1451.488281 542.285156 1451.820312 L 540.75 1452.09375 Z M 602.796875 1440.980469 L 547.28125 1450.917969 C 547.007812 1450.976562 546.710938 1450.917969 546.476562 1450.742188 C 546.238281 1450.582031 546.082031 1450.328125 546.023438 1450.054688 L 532.273438 1373.308594 C 532.175781 1372.71875 532.546875 1372.171875 533.136719 1372.074219 L 588.652344 1362.136719 C 588.925781 1362.078125 589.222656 1362.136719 589.457031 1362.3125 C 589.695312 1362.46875 589.851562 1362.726562 589.910156 1363 L 603.679688 1439.722656 C 603.777344 1440.3125 603.40625 1440.863281 602.816406 1440.960938 Z M 602.796875 1440.980469 " fill-opacity="1" fill-rule="nonzero"/>

</g>
</svg>