<svg xmlns="http://www.w3.org/2000/svg" viewBox="0 0 88.0 98.32031200000006">
<g transform="translate(-220.0,-1360.0)">
<path fill="#000000" d="M 299.160156 1398.769531 L 299.160156 1397.730469 C 299.78125 1396.542969 300.855469 1393.683594 300.109375 1389.039062 C 299.519531 1385.394531 298.628906 1383.101562 298.027344 1381.871094 C 298.882812 1379.976562 299.808594 1375.984375 296.089844 1370.835938 C 281.457031 1354.871094 224.304688 1351.964844 220.667969 1394.5625 C 219.625 1408.183594 225.472656 1422.1875 235.953125 1431.128906 C 236 1431.171875 240.472656 1435.628906 234.96875 1455.914062 C 234.8125 1456.492188 234.933594 1457.113281 235.296875 1457.589844 C 235.664062 1458.066406 236.230469 1458.347656 236.828125 1458.347656 L 274.785156 1458.347656 C 275.410156 1458.347656 275.992188 1458.046875 276.351562 1457.539062 C 276.714844 1457.035156 276.808594 1456.386719 276.609375 1455.796875 C 275.226562 1451.417969 273.832031 1445.375 275.414062 1444.066406 C 280.984375 1445.082031 286.785156 1445.324219 288.113281 1445.367188 C 291.195312 1445.996094 297.269531 1444.734375 297.121094 1438.648438 C 297.121094 1433.34375 299.707031 1429.667969 299.730469 1429.640625 C 300.398438 1428.761719 300.117188 1427.386719 299.15625 1426.84375 C 299.15625 1426.84375 295.644531 1424.761719 295.644531 1424.761719 L 299.351562 1423.296875 C 300.320312 1422.914062 300.804688 1421.820312 300.449219 1420.839844 C 299.085938 1416.710938 301.589844 1416.652344 304.894531 1415.339844 C 307.441406 1414.476562 308.433594 1411.070312 306.761719 1408.964844 C 306.761719 1408.964844 299.160156 1398.769531 299.160156 1398.769531 Z M 303.726562 1411.542969 C 302.820312 1412.191406 301.410156 1412.429688 299.960938 1413.109375 C 296.460938 1414.515625 295.988281 1417.828125 296.367188 1420.332031 L 290.570312 1422.621094 C 289.105469 1423.144531 288.9375 1425.328125 290.296875 1426.074219 C 290.296875 1426.074219 295.542969 1429.183594 295.542969 1429.183594 C 294.5625 1431.113281 293.269531 1434.453125 293.269531 1438.648438 C 293.269531 1440.203125 292.664062 1440.710938 292.46875 1440.878906 C 291.199219 1441.855469 289.246094 1441.628906 288.359375 1441.515625 C 284.160156 1441.386719 272.382812 1440.476562 268.390625 1437.828125 C 267.503906 1437.234375 266.308594 1437.480469 265.722656 1438.367188 C 265.132812 1439.253906 265.375 1440.449219 266.261719 1441.039062 C 267.578125 1441.914062 269.390625 1442.613281 271.414062 1443.171875 C 270.285156 1446.289062 271.320312 1451.335938 272.183594 1454.488281 L 239.320312 1454.488281 C 244.445312 1433.878906 239.425781 1428.902344 238.429688 1428.175781 C 228.890625 1420.039062 223.558594 1407.269531 224.511719 1394.855469 C 228.148438 1355.425781 280.53125 1360.585938 292.96875 1373.097656 C 296.339844 1377.761719 294.371094 1380.59375 294.308594 1380.683594 C 293.789062 1381.34375 293.773438 1382.28125 294.242188 1382.976562 C 294.253906 1382.996094 295.546875 1384.945312 296.304688 1389.652344 C 297.046875 1395.449219 295.5625 1395.203125 295.304688 1397.207031 C 295.378906 1398.078125 295.0625 1399.863281 295.6875 1400.5625 C 295.6875 1400.5625 303.675781 1411.273438 303.675781 1411.273438 C 303.753906 1411.375 303.746094 1411.476562 303.726562 1411.542969 Z M 303.726562 1411.542969 " fill-opacity="1" fill-rule="nonzero"/>

</g>
</svg>