<svg xmlns="http://www.w3.org/2000/svg" viewBox="0 0 57.699219 116.89453200000003">
<g transform="translate(-252.253906,-539.503906)">
<path fill="#000000" d="M 284.679688 577.40625 C 284.210938 572.695312 284.855469 568.425781 288.433594 565.152344 C 290.535156 563.238281 292.847656 561.839844 295.820312 561.621094 C 304.421875 560.988281 308.953125 566.40625 309.730469 571.480469 C 310.855469 578.855469 307.433594 584.59375 298.175781 587.019531 C 300.464844 590.804688 302.710938 594.496094 304.933594 598.199219 C 305.820312 599.691406 306.933594 601.125 307.4375 602.75 C 308.753906 607.015625 308.203125 611.007812 304.871094 614.316406 C 300.578125 618.5625 296.425781 622.96875 290.941406 626.105469 C 294.441406 631.632812 297.945312 637.070312 301.390625 642.566406 C 302.308594 643.90625 303.007812 645.351562 303.488281 646.902344 C 305.492188 655.390625 293.875 659.4375 289.203125 652.664062 C 284.148438 644.90625 279.296875 637 274.050781 629.347656 C 273.503906 628.527344 272.855469 627.769531 271.953125 626.5625 C 270.984375 631.488281 270.101562 635.851562 269.269531 640.226562 C 268.730469 643.066406 268.332031 645.921875 267.757812 648.75 C 267.625 649.589844 267.367188 650.390625 266.980469 651.152344 C 266.597656 651.910156 266.101562 652.59375 265.5 653.199219 C 264.898438 653.804688 264.214844 654.300781 263.457031 654.695312 C 262.695312 655.085938 261.894531 655.351562 261.046875 655.488281 C 258.09375 656.082031 255.644531 654.683594 253.683594 652.425781 C 253.117188 651.746094 252.714844 650.980469 252.46875 650.132812 C 252.226562 649.285156 252.164062 648.425781 252.28125 647.550781 C 252.589844 643.371094 252.933594 639.238281 253.417969 635.101562 C 254.207031 628.324219 254.949219 621.542969 256.0625 614.824219 C 256.507812 611.609375 257.460938 608.550781 258.925781 605.652344 C 266 592.378906 266.140625 577.15625 269.320312 562.785156 C 270.128906 558.699219 272.203125 555.207031 275.992188 553.035156 C 283.148438 548.957031 290.296875 544.867188 297.496094 540.863281 C 302.515625 537.800781 309.21875 541.789062 308.414062 547.738281 C 308.320312 548.855469 307.976562 549.894531 307.378906 550.847656 C 306.785156 551.804688 306 552.570312 305.03125 553.148438 C 301.765625 555.125 298.398438 557.019531 295.113281 558.933594 C 292.398438 560.5 289.710938 562.125 286.941406 563.585938 C 286.152344 563.988281 285.5 564.546875 284.988281 565.269531 C 284.472656 565.988281 284.15625 566.785156 284.039062 567.660156 C 283.582031 570.039062 283.113281 572.421875 282.691406 574.8125 C 282.46875 576.015625 282.519531 576.050781 284.679688 577.40625 Z M 256.617188 644.800781 C 256.617188 647.738281 256.042969 650.050781 259.054688 650.957031 C 259.359375 651.054688 259.675781 651.097656 260 651.09375 C 260.320312 651.085938 260.632812 651.03125 260.9375 650.921875 C 261.242188 650.816406 261.519531 650.664062 261.773438 650.464844 C 262.027344 650.265625 262.242188 650.035156 262.421875 649.765625 C 262.980469 649.015625 263.351562 648.179688 263.542969 647.265625 C 264.101562 644.4375 264.492188 641.578125 265.03125 638.75 C 266.167969 632.738281 267.28125 626.730469 268.582031 620.761719 C 268.742188 620.230469 269.007812 619.753906 269.371094 619.332031 C 269.738281 618.914062 270.175781 618.585938 270.683594 618.351562 C 271.195312 618.152344 272.273438 619.28125 273.050781 619.863281 C 273.292969 620.117188 273.492188 620.402344 273.640625 620.722656 C 279.632812 629.914062 285.636719 639.125 291.65625 648.359375 C 292.1875 649.257812 292.820312 650.074219 293.554688 650.816406 C 293.859375 651.089844 294.203125 651.300781 294.585938 651.453125 C 294.96875 651.605469 295.363281 651.6875 295.777344 651.699219 C 296.1875 651.710938 296.585938 651.65625 296.976562 651.527344 C 297.367188 651.398438 297.726562 651.207031 298.050781 650.957031 C 299.308594 649.847656 299.757812 648.476562 298.964844 646.902344 C 298.542969 646.082031 298.074219 645.285156 297.566406 644.515625 C 293.273438 637.921875 288.882812 631.382812 284.730469 624.710938 C 282.851562 621.535156 281.144531 618.265625 279.617188 614.90625 C 279.199219 614.035156 278.917969 612.753906 279.226562 611.941406 C 281.238281 607.066406 283.351562 602.191406 285.632812 597.367188 C 286.613281 595.277344 288.273438 595.144531 289.746094 596.949219 C 291.792969 599.460938 293.695312 602.085938 295.445312 604.816406 C 297.035156 607.300781 296.710938 608.527344 294.511719 610.539062 C 294.085938 610.929688 293.589844 611.238281 293.113281 611.613281 C 291.320312 613.097656 289.476562 614.53125 287.769531 616.097656 C 284.855469 618.964844 287.230469 623.4375 291.269531 620.644531 C 291.75 620.316406 292.203125 619.953125 292.621094 619.550781 C 295.296875 617.132812 298.015625 614.761719 300.617188 612.273438 C 304.378906 608.660156 304.652344 605.917969 301.886719 601.5 C 299.730469 598.074219 297.578125 594.65625 295.457031 591.210938 C 294.171875 588.945312 292.382812 587.1875 290.085938 585.9375 C 286.804688 584.21875 283.734375 582.09375 280.460938 580.367188 C 278.449219 579.300781 277.929688 577.890625 278.359375 575.820312 C 279.058594 572.089844 279.855469 568.347656 280.375 564.582031 C 280.648438 562.609375 281.65625 561.539062 283.308594 560.648438 C 288.910156 557.632812 294.492188 554.550781 300.058594 551.398438 C 301.449219 550.574219 302.675781 549.550781 303.734375 548.328125 C 304.757812 547.171875 304.246094 545.90625 303.140625 544.980469 C 301.898438 543.984375 300.570312 544.019531 299.21875 544.792969 C 292.179688 548.859375 285.09375 552.8125 278.09375 556.9375 C 276.898438 557.597656 275.898438 558.480469 275.097656 559.585938 C 274.296875 560.6875 273.769531 561.90625 273.511719 563.246094 C 270.242188 578.433594 270.082031 594.449219 262.378906 608.375 C 260.949219 611.066406 260.15625 613.933594 259.992188 616.972656 C 259.640625 621.578125 258.808594 626.144531 258.234375 630.734375 C 257.652344 635.664062 257.085938 640.609375 256.617188 644.800781 Z M 305.632812 574.066406 C 305.613281 573.535156 305.542969 573.007812 305.425781 572.488281 C 305.304688 571.96875 305.140625 571.464844 304.925781 570.976562 C 304.714844 570.484375 304.457031 570.019531 304.15625 569.582031 C 303.855469 569.140625 303.515625 568.730469 303.136719 568.351562 C 302.757812 567.976562 302.347656 567.636719 301.90625 567.332031 C 301.464844 567.03125 301 566.773438 300.507812 566.558594 C 300.019531 566.34375 299.511719 566.175781 298.992188 566.054688 C 298.46875 565.933594 297.941406 565.863281 297.40625 565.84375 C 296.855469 565.855469 296.3125 565.921875 295.773438 566.035156 C 295.238281 566.152344 294.71875 566.316406 294.210938 566.53125 C 293.707031 566.746094 293.226562 567.003906 292.769531 567.308594 C 292.3125 567.617188 291.890625 567.960938 291.5 568.34375 C 291.109375 568.730469 290.761719 569.148438 290.449219 569.601562 C 290.140625 570.050781 289.875 570.527344 289.65625 571.027344 C 289.4375 571.527344 289.265625 572.046875 289.144531 572.578125 C 289.027344 573.113281 288.957031 573.652344 288.9375 574.199219 C 288.9375 578.464844 292.929688 582.476562 297.152344 582.476562 C 301.550781 582.503906 305.632812 578.4375 305.625 574.066406 Z M 291.628906 606.828125 L 288.125 602.042969 C 286.613281 605.917969 284.714844 609.148438 283.835938 612.777344 L 284.4375 613.171875 Z M 291.628906 606.828125 " fill-opacity="1" fill-rule="nonzero"/>

</g>
</svg>