<svg xmlns="http://www.w3.org/2000/svg" viewBox="0 0 122.921875 79.44921899999986">
<g transform="translate(-853.035156,-1180.132812)">
<path fill="#232320" d="M 948.277344 1240.261719 C 947.050781 1249.957031 939.789062 1246.4375 938.894531 1249.136719 C 937.6875 1252.773438 934.386719 1254.863281 930.574219 1254.394531 C 929.230469 1254.230469 928.621094 1254.914062 927.976562 1255.894531 C 926.230469 1258.546875 922.851562 1259.328125 919.777344 1258.808594 C 916.75 1258.296875 914.3125 1256.632812 911.445312 1255.667969 C 909.867188 1258.078125 907.539062 1259.757812 905.082031 1259.574219 C 902.429688 1259.378906 900.199219 1257.84375 899.21875 1255.179688 C 898.535156 1253.324219 892.621094 1257.234375 890.222656 1249.457031 C 885.113281 1249.058594 882.316406 1248.109375 881.21875 1242.210938 C 878.179688 1241.914062 875.847656 1240.363281 874.753906 1238.066406 C 873.519531 1235.480469 874.351562 1232.894531 875.878906 1230.425781 L 869.707031 1225.34375 C 868.132812 1228.078125 865.613281 1228.484375 863.238281 1227.152344 C 860.894531 1225.835938 858.230469 1225.140625 855.777344 1224.058594 C 853.085938 1222.871094 852.484375 1220.316406 853.566406 1217.675781 L 862.652344 1195.550781 L 868.265625 1182.414062 C 869.007812 1180.667969 870.855469 1179.675781 872.710938 1180.351562 C 875.96875 1181.542969 879.050781 1182.917969 882.195312 1184.308594 C 884.289062 1185.238281 884.449219 1187.464844 884.207031 1189.6875 C 890.523438 1191.777344 900.601562 1187.941406 909.433594 1187.257812 C 911.761719 1187.078125 914.121094 1187.5 916.375 1186.921875 C 920.136719 1185.949219 923.703125 1185.660156 927.5 1186.585938 L 938.894531 1189.355469 L 944.363281 1190.050781 C 943.757812 1186.90625 945.433594 1184.789062 948.246094 1183.59375 L 954.871094 1180.777344 C 956.851562 1179.9375 959.582031 1179.859375 960.613281 1182.351562 L 975.613281 1218.585938 C 976.460938 1220.636719 975.554688 1222.945312 973.621094 1223.757812 L 964.46875 1227.605469 C 962.394531 1228.480469 960.582031 1227.273438 959.480469 1225.390625 L 955.378906 1228.679688 C 956.417969 1231.390625 956.597656 1233.929688 955.261719 1236.324219 C 953.941406 1238.6875 951.410156 1239.90625 948.277344 1240.257812 Z M 871.46875 1183.636719 L 856.308594 1220.363281 L 866.050781 1224.425781 L 881.210938 1187.699219 Z M 957.421875 1183.605469 L 947.597656 1187.71875 L 962.824219 1224.433594 L 972.648438 1220.320312 Z M 924.195312 1203.648438 L 952.78125 1226.058594 C 954.683594 1224.605469 956.289062 1223.621094 957.894531 1221.828125 L 946.125 1193.410156 C 936.890625 1193.855469 931.035156 1190.269531 922.976562 1189.507812 C 920.703125 1189.289062 918.652344 1190.152344 916.589844 1190.742188 L 907.941406 1193.203125 C 905.722656 1193.835938 903.859375 1194.707031 902.65625 1196.777344 C 900.390625 1200.667969 896.800781 1204.15625 895.558594 1207.785156 C 896.691406 1209.804688 899.796875 1209.726562 901.777344 1208.933594 C 907.488281 1206.652344 908.445312 1201.832031 912.570312 1201.558594 C 921.667969 1200.949219 918.679688 1199.328125 924.195312 1203.648438 Z M 922.183594 1236.714844 C 921.285156 1236.0625 922.105469 1234.734375 922.585938 1234.359375 C 923.066406 1233.984375 923.683594 1233.929688 924.503906 1234.460938 L 939.378906 1244.152344 C 941.253906 1245.371094 943.804688 1243.617188 944.304688 1242.039062 C 944.886719 1240.183594 944.433594 1238.730469 942.671875 1237.445312 L 928.417969 1227.074219 C 927.761719 1226.597656 928.148438 1225.222656 928.46875 1224.828125 C 928.785156 1224.429688 929.824219 1223.851562 930.574219 1224.394531 L 945.636719 1235.289062 C 947.527344 1236.65625 949.632812 1236.898438 951.351562 1235.371094 C 952.746094 1234.132812 953.273438 1231.277344 951.550781 1229.777344 C 945.265625 1224.308594 938.757812 1219.550781 932.191406 1214.441406 C 928.023438 1211.195312 924.328125 1207.789062 919.753906 1205.011719 C 909.496094 1203.625 910.589844 1208.722656 905.015625 1211.421875 C 897.542969 1215.042969 891.328125 1211.019531 891.503906 1208.363281 C 891.695312 1205.417969 894.078125 1202.769531 895.730469 1200.441406 L 901.757812 1191.957031 C 895.246094 1193.472656 889.167969 1194.164062 882.609375 1193.582031 L 871.894531 1219.519531 C 871.398438 1220.722656 871.058594 1221.800781 872.269531 1222.75 C 874.417969 1224.4375 876.292969 1226.328125 878.5625 1227.808594 C 880.4375 1225.679688 882.714844 1224.992188 885.351562 1225.636719 C 887.039062 1226.050781 888.589844 1227.664062 889.753906 1229.609375 C 892.265625 1227.550781 895.074219 1227.128906 897.910156 1228.351562 C 899.960938 1229.234375 901.117188 1231.757812 901.816406 1234.21875 C 911.261719 1234.765625 908.09375 1241.996094 910.363281 1242.945312 C 914.191406 1244.546875 915.710938 1248.628906 913.859375 1252.644531 C 917 1254.519531 921.160156 1256.582031 924.289062 1254.613281 C 928.339844 1252.066406 920.269531 1249.867188 916.546875 1246.21875 C 915.984375 1245.667969 916.363281 1244.066406 916.875 1243.878906 C 917.269531 1243.734375 918.257812 1243.496094 918.84375 1243.859375 L 929.617188 1250.621094 C 931.0625 1251.527344 933.21875 1250.785156 934.28125 1249.832031 C 935.03125 1249.160156 936.464844 1247.136719 935.257812 1246.253906 L 922.183594 1236.710938 Z M 885.765625 1234.078125 C 886.824219 1232.84375 886.808594 1231.09375 885.816406 1230.039062 C 885.074219 1229.25 883.382812 1228.769531 882.171875 1229.503906 C 880.433594 1230.558594 875.9375 1234.949219 878.804688 1237.675781 C 881.371094 1240.121094 883.890625 1236.273438 885.765625 1234.078125 Z M 897.101562 1237.273438 C 898.492188 1235.492188 898.386719 1232.804688 896.3125 1231.660156 C 894.523438 1230.675781 892.511719 1231.839844 891.328125 1233.21875 L 885.632812 1239.863281 C 884.351562 1241.355469 884.914062 1243.574219 885.980469 1244.703125 C 889.527344 1248.453125 894.402344 1240.734375 897.101562 1237.273438 Z M 898.582031 1250.574219 L 904.824219 1243.320312 C 906.035156 1241.910156 905.976562 1239.839844 904.703125 1238.804688 C 903.613281 1237.921875 901.617188 1237.707031 900.550781 1238.980469 L 894.671875 1246.019531 C 893.550781 1247.363281 893.492188 1249.003906 894.515625 1250.234375 C 895.335938 1251.222656 897.484375 1251.839844 898.578125 1250.570312 Z M 906.40625 1255.792969 C 908.222656 1254.476562 909.207031 1252.742188 910.425781 1251.207031 C 911.335938 1250.0625 911.273438 1248.722656 910.59375 1247.605469 C 910.132812 1246.847656 908.722656 1245.589844 907.496094 1246.464844 C 905.6875 1247.757812 899.960938 1253.199219 903.582031 1255.257812 C 904.226562 1255.625 905.378906 1256.535156 906.40625 1255.792969 Z M 906.40625 1255.792969 " fill-opacity="1" fill-rule="nonzero"/>

</g>
</svg>