<svg xmlns="http://www.w3.org/2000/svg" viewBox="0 0 125.13671900000003 95.914063">
<g transform="translate(-409.566406,-105.359375)">
<path fill="#000000" d="M 453.046875 197.535156 C 451.792969 198.402344 450.441406 199.140625 448.992188 199.722656 C 435.753906 205.058594 419.371094 195.789062 412.539062 178.835938 C 405.707031 161.878906 411.085938 143.835938 424.320312 138.5 C 424.8125 138.300781 425.304688 138.125 425.800781 137.964844 L 441 131.371094 C 441.007812 131.367188 441.015625 131.363281 441.023438 131.359375 L 455.921875 124.898438 C 455.933594 124.894531 455.941406 124.890625 455.949219 124.886719 L 470.523438 118.5625 C 470.53125 118.558594 470.542969 118.554688 470.550781 118.550781 L 484.8125 112.363281 C 484.820312 112.359375 484.832031 112.355469 484.839844 112.351562 L 493.644531 108.53125 C 494.597656 107.929688 495.59375 107.375 496.675781 106.988281 C 509.121094 102.554688 520.054688 108.007812 524.941406 114.136719 C 526.941406 116.640625 527.921875 119.28125 527.75 121.472656 C 528.292969 121.851562 528.882812 122.394531 529.46875 123.09375 C 530.625 124.460938 531.824219 126.429688 532.78125 128.714844 C 535.125 134.292969 535.976562 141.699219 531.667969 146.824219 L 531.675781 146.847656 C 531.828125 147.449219 531.773438 148.457031 531.410156 149.6875 C 530.382812 153.183594 526.925781 158.851562 521.007812 161.375 C 520.820312 161.476562 520.632812 161.578125 520.445312 161.671875 C 520.441406 161.675781 520.433594 161.679688 520.429688 161.683594 L 509.535156 167.480469 C 509.109375 167.730469 508.679688 167.960938 508.253906 168.160156 L 495.222656 175.09375 C 495.136719 175.140625 495.054688 175.183594 494.972656 175.226562 C 494.96875 175.230469 494.964844 175.230469 494.957031 175.234375 L 482.476562 181.875 C 482.046875 182.148438 481.640625 182.363281 481.265625 182.519531 L 467.328125 189.9375 Z M 426.464844 139.996094 C 426.015625 140.140625 425.566406 140.300781 425.121094 140.480469 C 412.828125 145.4375 408.175781 162.292969 414.519531 178.035156 C 420.863281 193.78125 435.902344 202.699219 448.191406 197.742188 C 449.496094 197.21875 450.710938 196.558594 451.835938 195.785156 C 451.882812 195.746094 451.929688 195.710938 451.980469 195.683594 C 461.378906 189.078125 464.4375 174.191406 458.792969 160.1875 C 452.691406 145.039062 438.542969 136.210938 426.53125 139.976562 C 426.507812 139.984375 426.488281 139.988281 426.464844 139.996094 Z M 441.804688 133.351562 L 433.347656 137.023438 C 444.28125 137.59375 455.441406 146.148438 460.773438 159.386719 C 465.640625 171.460938 464.3125 184.085938 458.367188 192.285156 L 466.304688 188.058594 C 469.375 186.265625 474.816406 179.6875 476.402344 174.964844 C 476.703125 174.070312 476.867188 173.253906 476.796875 172.566406 C 476.769531 172.296875 476.703125 172.050781 476.578125 171.839844 C 472.152344 173.917969 472.441406 173.785156 468.386719 175.632812 C 467.851562 175.878906 467.21875 175.640625 466.972656 175.105469 C 466.726562 174.570312 466.964844 173.933594 467.5 173.691406 C 471.652344 171.796875 471.238281 171.984375 476.035156 169.738281 C 476.9375 168.03125 477.253906 165.808594 477.203125 163.464844 C 477.117188 159.597656 476.003906 155.410156 474.558594 152.542969 C 474.070312 151.578125 473.550781 150.765625 473.019531 150.1875 C 472.71875 149.867188 472.441406 149.609375 472.15625 149.5 C 467.273438 151.789062 467.59375 151.644531 463.355469 153.582031 C 462.820312 153.828125 462.183594 153.589844 461.9375 153.054688 C 461.695312 152.515625 461.929688 151.882812 462.46875 151.636719 C 466.558594 149.769531 466.394531 149.84375 470.78125 147.785156 C 469.117188 141.496094 465.988281 137.128906 461.996094 134.601562 C 457.867188 131.984375 452.835938 131.363281 447.660156 132.558594 C 445.734375 133.003906 443.71875 132.789062 441.804688 133.351562 Z M 456.722656 126.878906 L 449.371094 130.070312 C 454.351562 129.367188 459.125 130.253906 463.140625 132.796875 C 467.441406 135.519531 470.890625 140.15625 472.742188 146.863281 C 476.746094 144.984375 480.894531 143.023438 485.042969 141.054688 C 484.597656 136.0625 482.824219 132.308594 480.117188 129.742188 C 475.84375 125.695312 469.300781 124.636719 462.25 126.160156 C 460.425781 126.554688 458.53125 126.371094 456.722656 126.878906 Z M 471.320312 120.546875 L 464.160156 123.652344 C 471.0625 122.683594 477.324219 124.15625 481.585938 128.191406 C 484.480469 130.933594 486.476562 134.867188 487.089844 140.082031 C 490.996094 138.222656 494.882812 136.371094 498.625 134.578125 C 494.265625 123.769531 485.484375 118.640625 476.476562 119.90625 C 476.421875 119.914062 476.367188 119.917969 476.3125 119.917969 C 476.308594 119.917969 476.308594 119.917969 476.308594 119.917969 C 474.625 119.894531 472.953125 120.097656 471.320312 120.546875 Z M 485.601562 114.347656 L 478.089844 117.609375 C 487.277344 117.136719 496.0625 122.625 500.558594 133.652344 C 504.679688 131.679688 508.597656 129.796875 512.140625 128.089844 C 508.136719 118.109375 500.15625 112.253906 490.496094 113.765625 C 488.867188 114.023438 487.207031 113.933594 485.601562 114.347656 Z M 494.574219 110.457031 L 492.34375 111.425781 C 501.976562 110.882812 509.945312 117 514.070312 127.164062 C 518.769531 124.898438 519.214844 124.679688 521.894531 123.378906 C 522.425781 123.125 523.0625 123.34375 523.320312 123.875 C 523.578125 124.40625 523.355469 125.046875 522.824219 125.304688 C 520.335938 126.507812 519.777344 126.785156 515.941406 128.628906 C 516.578125 129.242188 517.222656 130.132812 517.8125 131.234375 C 520.078125 135.488281 521.632812 143.042969 519.824219 148.875 C 522.839844 147.421875 523.453125 147.121094 525.960938 145.90625 C 526.492188 145.652344 527.132812 145.875 527.390625 146.402344 C 527.644531 146.933594 527.421875 147.574219 526.894531 147.832031 C 524.023438 149.21875 523.628906 149.414062 519.292969 151.5 C 519.773438 152.597656 519.777344 154.011719 519.308594 155.601562 C 518.757812 157.472656 517.558594 159.609375 515.984375 161.625 L 519.441406 159.785156 C 519.449219 159.785156 519.453125 159.78125 519.460938 159.777344 L 520.019531 159.480469 C 520.023438 159.476562 520.03125 159.472656 520.035156 159.472656 C 520.0625 159.457031 520.09375 159.441406 520.121094 159.429688 C 520.125 159.429688 520.125 159.429688 520.125 159.429688 C 525.378906 157.207031 528.449219 152.183594 529.359375 149.085938 C 529.550781 148.433594 529.59375 147.621094 529.601562 147.414062 C 529.445312 147.25 529.339844 147.039062 529.308594 146.808594 C 529.269531 146.488281 529.375 146.167969 529.597656 145.933594 C 533.890625 141.4375 532.945312 134.617188 530.8125 129.542969 C 529.949219 127.484375 528.878906 125.703125 527.835938 124.472656 C 527.234375 123.757812 526.667969 123.234375 526.160156 123.011719 C 525.691406 122.808594 525.433594 122.296875 525.546875 121.800781 C 525.753906 120.875 525.601562 119.816406 525.183594 118.710938 C 524.488281 116.863281 523.046875 114.910156 521.054688 113.15625 C 515.929688 108.652344 507.167969 105.519531 497.390625 109 C 496.433594 109.34375 495.558594 109.84375 494.722656 110.378906 C 494.722656 110.378906 494.71875 110.378906 494.71875 110.378906 C 494.671875 110.410156 494.625 110.433594 494.574219 110.457031 Z M 501.707031 169.222656 L 507.273438 166.261719 L 508.546875 165.585938 C 511.882812 163.585938 515.046875 159.945312 516.597656 156.699219 C 517.136719 155.566406 517.480469 154.488281 517.523438 153.558594 C 517.546875 153.136719 517.507812 152.75 517.375 152.425781 C 513.871094 154.109375 510.035156 155.953125 506.015625 157.878906 C 506.523438 158.980469 506.484375 160.464844 505.921875 162.148438 C 505.1875 164.332031 503.597656 166.902344 501.707031 169.222656 Z M 493.972656 173.339844 C 493.976562 173.335938 493.980469 173.335938 493.988281 173.332031 L 494.238281 173.199219 C 497.757812 171.25 502.511719 165.59375 503.894531 161.46875 C 504.160156 160.683594 504.300781 159.960938 504.238281 159.347656 C 504.21875 159.148438 504.171875 158.960938 504.097656 158.796875 C 500.277344 160.625 496.316406 162.511719 492.347656 164.398438 C 493.023438 165.757812 492.964844 167.53125 492.308594 169.476562 C 491.554688 171.695312 490.039062 174.167969 488.285156 176.363281 Z M 473.15625 184.414062 L 480.3125 180.609375 L 481.554688 179.945312 C 484.097656 178.292969 487.527344 174.4375 489.40625 170.816406 C 490.101562 169.480469 490.582031 168.171875 490.683594 167.023438 C 490.742188 166.382812 490.679688 165.792969 490.421875 165.3125 C 486.394531 167.222656 482.378906 169.121094 478.507812 170.9375 C 479.101562 172.128906 479.058594 173.769531 478.425781 175.648438 C 477.515625 178.367188 475.421875 181.640625 473.15625 184.414062 Z M 474.332031 148.476562 C 475.066406 149.195312 475.800781 150.265625 476.464844 151.582031 C 478.03125 154.691406 479.246094 159.226562 479.339844 163.417969 C 479.378906 165.195312 479.214844 166.90625 478.804688 168.4375 C 482.457031 166.71875 486.226562 164.9375 490 163.148438 C 491.210938 161.273438 491.730469 158.902344 491.792969 156.449219 C 491.890625 152.5 490.789062 148.335938 489.21875 145.578125 C 488.699219 144.664062 488.132812 143.90625 487.535156 143.390625 C 487.152344 143.0625 486.773438 142.828125 486.386719 142.78125 C 482.328125 144.707031 478.265625 146.628906 474.332031 148.476562 Z M 500.265625 136.164062 C 496.546875 137.941406 492.675781 139.789062 488.777344 141.644531 C 489.585938 142.304688 490.375 143.289062 491.074219 144.523438 C 492.804688 147.5625 494.035156 152.148438 493.929688 156.503906 C 493.882812 158.316406 493.605469 160.089844 493.046875 161.699219 C 496.640625 159.988281 500.214844 158.285156 503.671875 156.632812 C 507.109375 152.128906 506.71875 145.375 504.789062 140.800781 C 504.15625 139.300781 503.359375 138.039062 502.457031 137.1875 C 501.769531 136.535156 501.03125 136.128906 500.265625 136.164062 Z M 513.75 129.6875 C 510.449219 131.277344 506.800781 133.03125 502.953125 134.875 C 503.871094 135.480469 504.738281 136.386719 505.488281 137.550781 C 508.203125 141.738281 509.511719 149.195312 507.046875 155.015625 C 510.542969 153.339844 513.875 151.738281 516.941406 150.261719 C 519.875 144.886719 518.261719 136.621094 515.925781 132.242188 C 515.453125 131.351562 514.953125 130.628906 514.445312 130.152344 C 514.195312 129.914062 513.976562 129.71875 513.75 129.6875 Z M 428.582031 149.070312 C 437.261719 145.570312 448.039062 151.597656 452.519531 162.714844 C 457 173.832031 453.414062 185.652344 444.730469 189.152344 C 436.050781 192.652344 425.273438 186.625 420.792969 175.507812 C 416.3125 164.386719 419.902344 152.570312 428.582031 149.070312 Z M 429.378906 151.054688 C 421.644531 154.171875 418.78125 164.800781 422.773438 174.707031 C 426.765625 184.617188 436.195312 190.289062 443.933594 187.167969 C 451.667969 184.050781 454.53125 173.421875 450.539062 163.515625 C 446.546875 153.605469 437.117188 147.933594 429.378906 151.054688 Z M 429.378906 151.054688 " fill-opacity="1" fill-rule="evenodd"/>

</g>
</svg>