<svg xmlns="http://www.w3.org/2000/svg" viewBox="0 0 112.398438 79.42968699999994">
<g transform="translate(-76.21875,-741.015625)">
<path fill="#000000" d="M 157.972656 820.058594 L 97.75 820.082031 C 90.460938 820.082031 84.324219 817.089844 80.082031 811.128906 C 75.371094 804.511719 74.691406 794.921875 79.863281 788.101562 L 111.253906 746.699219 C 117.65625 740.050781 127.410156 739.125 134.316406 744.507812 C 141.390625 750.023438 143.222656 759.714844 137.742188 768.097656 L 186.429688 768.292969 C 187.25 768.296875 187.808594 768.558594 188.058594 768.933594 C 188.441406 769.496094 188.433594 770.398438 187.945312 771.238281 L 160.722656 818.222656 C 160.175781 819.160156 159.683594 820.058594 157.972656 820.058594 Z M 114.058594 797.179688 L 135.003906 766.539062 C 139.578125 759.851562 138.664062 750.984375 131.90625 746.515625 C 125.507812 742.3125 117.546875 743.589844 112.910156 749.671875 L 90.054688 779.664062 C 91.160156 779.996094 92.054688 779.679688 93.171875 779.523438 C 104.011719 778.015625 113.460938 785.625 114.058594 797.179688 Z M 94.570312 803.84375 C 97.402344 805.242188 100.953125 804.570312 102.835938 802.230469 C 104.796875 799.785156 104.933594 796.554688 103.652344 793.609375 C 102.707031 791.4375 100.292969 789.332031 97.28125 788.832031 C 93.96875 788.28125 90.730469 789.722656 88.75 791.707031 C 86.296875 794.160156 85.296875 797.382812 85.863281 800.925781 C 86.917969 807.523438 93.0625 811.648438 99.714844 810.714844 C 104.265625 810.078125 107.734375 806.738281 109.34375 803.5625 C 113.203125 795.949219 109.441406 785.699219 100.386719 783.15625 C 91.84375 780.757812 83.1875 785.273438 80.222656 794.058594 C 76.828125 804.121094 83.949219 816.679688 95.3125 816.753906 L 157.984375 817.164062 C 160.730469 811.625 163.59375 807.335938 166.484375 802.308594 L 184.238281 771.453125 L 135.660156 771.378906 L 120.0625 793.859375 L 110.746094 807.429688 C 106.523438 813.585938 98.632812 815.644531 91.796875 812.746094 C 83.578125 809.257812 80.0625 799.898438 84.550781 792.210938 C 88.417969 785.578125 97.128906 783.519531 103.273438 788.253906 C 106.429688 790.683594 107.925781 794.960938 107.421875 798.855469 C 106.664062 804.726562 101.445312 808.421875 95.667969 807.394531 C 91.207031 806.605469 88.148438 802.335938 88.921875 797.847656 C 89.394531 795.101562 91.785156 792.957031 94.402344 792.425781 C 96.691406 791.960938 98.515625 792.59375 99.734375 793.96875 C 101.007812 795.402344 101.6875 797.339844 100.824219 799.355469 C 100.402344 800.339844 99.484375 800.589844 98.710938 800.84375 C 98.265625 800.988281 97.046875 800.472656 97.371094 799.773438 C 98.085938 798.238281 98.667969 797.203125 97.53125 796.125 C 96.746094 795.378906 95.652344 794.933594 94.398438 795.578125 C 92.691406 796.453125 91.796875 798.101562 91.960938 799.855469 C 92.085938 801.191406 92.699219 802.917969 94.570312 803.84375 Z M 94.570312 803.84375 " fill-opacity="1" fill-rule="nonzero"/>

</g>
</svg>