<svg xmlns="http://www.w3.org/2000/svg" viewBox="0 0 107.90625 125.140625">
<g transform="translate(-262.957031,-895.363281)">
<path fill="#000000" d="M 262.960938 1000.390625 L 262.960938 1012.472656 C 262.960938 1012.980469 263.011719 1013.484375 263.109375 1013.984375 C 263.210938 1014.484375 263.355469 1014.96875 263.550781 1015.441406 C 263.746094 1015.910156 263.988281 1016.359375 264.269531 1016.78125 C 264.550781 1017.207031 264.875 1017.597656 265.234375 1017.957031 C 265.59375 1018.320312 265.984375 1018.640625 266.410156 1018.925781 C 266.832031 1019.207031 267.28125 1019.445312 267.75 1019.644531 C 268.222656 1019.839844 268.707031 1019.984375 269.207031 1020.085938 C 269.707031 1020.1875 270.210938 1020.238281 270.71875 1020.238281 L 315.136719 1020.238281 C 316.707031 1020.234375 318.140625 1019.800781 319.441406 1018.925781 C 320.464844 1019.800781 321.652344 1020.238281 322.996094 1020.238281 L 359.601562 1020.238281 C 359.960938 1020.238281 360.316406 1020.203125 360.671875 1020.128906 C 361.027344 1020.058594 361.371094 1019.957031 361.703125 1019.816406 C 362.035156 1019.679688 362.351562 1019.511719 362.652344 1019.308594 C 362.953125 1019.109375 363.230469 1018.882812 363.484375 1018.625 C 363.738281 1018.371094 363.96875 1018.09375 364.167969 1017.792969 C 364.367188 1017.492188 364.539062 1017.175781 364.675781 1016.84375 C 364.8125 1016.511719 364.917969 1016.167969 364.988281 1015.8125 C 365.058594 1015.460938 365.09375 1015.101562 365.09375 1014.742188 L 365.09375 1008.160156 L 370.652344 950.667969 C 370.714844 950.0625 370.648438 949.472656 370.457031 948.894531 C 370.265625 948.316406 369.96875 947.804688 369.5625 947.351562 C 369.15625 946.902344 368.675781 946.554688 368.121094 946.308594 C 367.566406 946.066406 366.984375 945.945312 366.378906 945.949219 L 322.898438 945.949219 L 322.898438 942.960938 C 322.894531 941.652344 322.808594 940.347656 322.632812 939.046875 C 322.460938 937.746094 322.203125 936.464844 321.863281 935.195312 C 321.523438 933.929688 321.097656 932.691406 320.597656 931.480469 C 320.09375 930.269531 319.515625 929.097656 318.855469 927.960938 C 318.199219 926.828125 317.472656 925.738281 316.675781 924.699219 C 315.875 923.660156 315.011719 922.675781 314.085938 921.75 C 313.15625 920.820312 312.175781 919.957031 311.132812 919.160156 C 310.09375 918.363281 309.007812 917.632812 307.871094 916.980469 C 307.351562 916.695312 306.941406 916.296875 306.644531 915.78125 C 306.351562 915.269531 306.207031 914.71875 306.21875 914.125 L 306.21875 910.890625 C 306.621094 910.75 306.992188 910.550781 307.332031 910.292969 C 307.671875 910.035156 307.964844 909.730469 308.210938 909.382812 C 308.457031 909.035156 308.644531 908.660156 308.773438 908.253906 C 308.902344 907.847656 308.96875 907.429688 308.96875 907.003906 L 308.96875 899.503906 C 308.96875 899.234375 308.941406 898.964844 308.890625 898.699219 C 308.835938 898.433594 308.757812 898.175781 308.652344 897.925781 C 308.550781 897.675781 308.421875 897.441406 308.273438 897.214844 C 308.121094 896.988281 307.949219 896.78125 307.757812 896.589844 C 307.566406 896.398438 307.359375 896.230469 307.132812 896.078125 C 306.910156 895.929688 306.671875 895.800781 306.421875 895.699219 C 306.171875 895.59375 305.914062 895.515625 305.648438 895.464844 C 305.382812 895.410156 305.113281 895.382812 304.84375 895.382812 L 281.410156 895.382812 C 281.136719 895.382812 280.871094 895.410156 280.605469 895.464844 C 280.339844 895.515625 280.082031 895.59375 279.832031 895.699219 C 279.582031 895.800781 279.34375 895.929688 279.117188 896.078125 C 278.894531 896.230469 278.683594 896.398438 278.492188 896.589844 C 278.300781 896.78125 278.132812 896.988281 277.980469 897.214844 C 277.828125 897.441406 277.703125 897.675781 277.597656 897.925781 C 277.496094 898.175781 277.417969 898.433594 277.363281 898.699219 C 277.308594 898.964844 277.28125 899.234375 277.28125 899.503906 L 277.28125 907.003906 C 277.285156 907.800781 277.496094 908.535156 277.921875 909.207031 C 278.347656 909.878906 278.921875 910.386719 279.640625 910.726562 L 279.640625 914.125 C 279.652344 914.71875 279.507812 915.269531 279.210938 915.78125 C 278.914062 916.292969 278.507812 916.691406 277.988281 916.976562 C 276.855469 917.632812 275.765625 918.359375 274.726562 919.160156 C 273.683594 919.957031 272.703125 920.820312 271.773438 921.746094 C 270.847656 922.675781 269.984375 923.660156 269.183594 924.699219 C 268.386719 925.738281 267.65625 926.824219 267 927.960938 C 266.34375 929.097656 265.765625 930.269531 265.261719 931.480469 C 264.757812 932.691406 264.335938 933.929688 263.996094 935.195312 C 263.65625 936.460938 263.398438 937.746094 263.222656 939.046875 C 263.050781 940.34375 262.964844 941.652344 262.960938 942.960938 L 262.960938 957.449219 C 262.960938 958.609375 263.207031 959.714844 263.703125 960.761719 C 264.199219 961.8125 264.898438 962.703125 265.792969 963.4375 C 264.894531 964.175781 264.199219 965.070312 263.703125 966.117188 C 263.207031 967.167969 262.960938 968.273438 262.960938 969.433594 L 262.960938 972.925781 C 262.960938 974.085938 263.207031 975.191406 263.703125 976.242188 C 264.199219 977.289062 264.898438 978.183594 265.792969 978.921875 C 264.898438 979.660156 264.199219 980.550781 263.703125 981.601562 C 263.207031 982.652344 262.960938 983.757812 262.960938 984.917969 L 262.960938 988.398438 C 262.960938 989.558594 263.207031 990.664062 263.703125 991.714844 C 264.199219 992.765625 264.898438 993.660156 265.792969 994.394531 C 264.898438 995.132812 264.199219 996.027344 263.703125 997.074219 C 263.207031 998.125 262.960938 999.230469 262.960938 1000.390625 Z M 361.554688 1014.742188 C 361.554688 1015 361.507812 1015.25 361.40625 1015.492188 C 361.308594 1015.730469 361.167969 1015.941406 360.984375 1016.125 C 360.800781 1016.308594 360.589844 1016.449219 360.347656 1016.550781 C 360.109375 1016.648438 359.859375 1016.699219 359.601562 1016.699219 L 322.996094 1016.699219 C 322.738281 1016.699219 322.488281 1016.648438 322.25 1016.550781 C 322.011719 1016.449219 321.796875 1016.308594 321.617188 1016.125 C 321.433594 1015.941406 321.289062 1015.730469 321.191406 1015.492188 C 321.09375 1015.253906 321.042969 1015.003906 321.042969 1014.742188 L 321.042969 1009.84375 L 361.554688 1009.84375 Z M 361.71875 1006.300781 L 320.878906 1006.300781 L 317.320312 969.539062 C 321.992188 967.1875 327.214844 967.359375 331.804688 970.046875 C 333.242188 970.898438 334.765625 971.546875 336.378906 971.988281 C 337.988281 972.429688 339.628906 972.652344 341.300781 972.652344 C 342.96875 972.652344 344.613281 972.429688 346.222656 971.988281 C 347.832031 971.546875 349.359375 970.898438 350.792969 970.046875 C 355.378906 967.359375 360.601562 967.1875 365.273438 969.539062 Z M 366.378906 949.488281 C 366.601562 949.484375 366.789062 949.5625 366.9375 949.730469 C 367.089844 949.898438 367.15625 950.097656 367.132812 950.320312 L 365.632812 965.816406 C 364.296875 965.257812 362.917969 964.859375 361.488281 964.625 C 360.058594 964.390625 358.625 964.324219 357.179688 964.425781 C 355.738281 964.527344 354.324219 964.796875 352.945312 965.230469 C 351.5625 965.664062 350.25 966.25 349.007812 966.988281 C 344.105469 969.851562 338.488281 969.851562 333.59375 966.988281 C 332.347656 966.25 331.035156 965.664062 329.652344 965.230469 C 328.273438 964.796875 326.859375 964.53125 325.414062 964.429688 C 323.972656 964.328125 322.535156 964.394531 321.105469 964.628906 C 319.675781 964.863281 318.296875 965.257812 316.960938 965.816406 L 316.789062 964.066406 C 317 963.519531 316.949219 963 316.640625 962.503906 L 315.460938 950.324219 C 315.4375 950.09375 315.503906 949.894531 315.660156 949.722656 C 315.808594 949.558594 315.992188 949.480469 316.214844 949.488281 Z M 280.820312 899.503906 C 280.824219 899.34375 280.882812 899.207031 280.996094 899.09375 C 281.109375 898.980469 281.25 898.925781 281.410156 898.921875 L 304.84375 898.921875 C 305.003906 898.925781 305.140625 898.980469 305.253906 899.09375 C 305.371094 899.207031 305.429688 899.34375 305.429688 899.503906 L 305.429688 907.003906 C 305.429688 907.167969 305.371094 907.304688 305.257812 907.417969 C 305.140625 907.53125 305.003906 907.589844 304.84375 907.59375 L 281.410156 907.59375 C 281.246094 907.589844 281.109375 907.53125 280.996094 907.417969 C 280.882812 907.304688 280.824219 907.167969 280.820312 907.003906 Z M 266.5 1000.390625 C 266.5 1000.113281 266.527344 999.839844 266.582031 999.566406 C 266.636719 999.296875 266.714844 999.03125 266.820312 998.777344 C 266.925781 998.519531 267.058594 998.277344 267.210938 998.046875 C 267.363281 997.816406 267.539062 997.601562 267.734375 997.40625 C 267.933594 997.210938 268.144531 997.035156 268.375 996.878906 C 268.605469 996.726562 268.847656 996.59375 269.105469 996.488281 C 269.359375 996.382812 269.625 996.300781 269.898438 996.246094 C 270.167969 996.191406 270.441406 996.164062 270.71875 996.164062 C 270.953125 996.164062 271.179688 996.121094 271.398438 996.03125 C 271.613281 995.941406 271.804688 995.8125 271.972656 995.648438 C 272.136719 995.480469 272.265625 995.289062 272.355469 995.074219 C 272.445312 994.855469 272.488281 994.628906 272.488281 994.394531 C 272.488281 994.160156 272.445312 993.9375 272.355469 993.71875 C 272.265625 993.503906 272.136719 993.3125 271.972656 993.144531 C 271.804688 992.980469 271.613281 992.851562 271.398438 992.761719 C 271.179688 992.671875 270.953125 992.625 270.71875 992.625 C 270.441406 992.625 270.167969 992.597656 269.898438 992.542969 C 269.625 992.488281 269.359375 992.410156 269.105469 992.304688 C 268.847656 992.195312 268.605469 992.066406 268.375 991.910156 C 268.144531 991.757812 267.933594 991.582031 267.734375 991.386719 C 267.539062 991.191406 267.363281 990.976562 267.210938 990.746094 C 267.058594 990.515625 266.925781 990.273438 266.820312 990.015625 C 266.714844 989.757812 266.636719 989.496094 266.582031 989.222656 C 266.527344 988.953125 266.5 988.675781 266.5 988.398438 L 266.5 984.917969 C 266.5 984.640625 266.527344 984.367188 266.582031 984.09375 C 266.636719 983.820312 266.714844 983.558594 266.820312 983.300781 C 266.925781 983.046875 267.058594 982.800781 267.210938 982.570312 C 267.363281 982.339844 267.539062 982.128906 267.734375 981.929688 C 267.933594 981.734375 268.144531 981.558594 268.375 981.40625 C 268.605469 981.25 268.847656 981.121094 269.105469 981.015625 C 269.359375 980.90625 269.625 980.828125 269.898438 980.773438 C 270.167969 980.71875 270.441406 980.691406 270.71875 980.691406 L 287.75 980.691406 C 287.984375 980.691406 288.210938 980.644531 288.425781 980.554688 C 288.644531 980.464844 288.835938 980.339844 289 980.171875 C 289.167969 980.007812 289.292969 979.816406 289.382812 979.597656 C 289.472656 979.382812 289.519531 979.15625 289.519531 978.921875 C 289.519531 978.6875 289.472656 978.460938 289.382812 978.242188 C 289.292969 978.027344 289.167969 977.835938 289 977.671875 C 288.835938 977.503906 288.644531 977.375 288.425781 977.285156 C 288.210938 977.195312 287.984375 977.152344 287.75 977.152344 L 270.71875 977.152344 C 270.441406 977.152344 270.167969 977.125 269.894531 977.070312 C 269.625 977.015625 269.359375 976.933594 269.105469 976.828125 C 268.847656 976.722656 268.605469 976.589844 268.375 976.4375 C 268.144531 976.28125 267.929688 976.105469 267.734375 975.910156 C 267.539062 975.714844 267.363281 975.5 267.210938 975.269531 C 267.058594 975.039062 266.925781 974.796875 266.820312 974.539062 C 266.714844 974.285156 266.636719 974.019531 266.582031 973.75 C 266.527344 973.476562 266.5 973.203125 266.5 972.925781 L 266.5 969.433594 C 266.5 969.15625 266.527344 968.882812 266.582031 968.609375 C 266.636719 968.339844 266.714844 968.074219 266.820312 967.820312 C 266.925781 967.5625 267.058594 967.320312 267.210938 967.089844 C 267.363281 966.859375 267.539062 966.644531 267.734375 966.449219 C 267.933594 966.253906 268.144531 966.078125 268.375 965.921875 C 268.605469 965.769531 268.847656 965.636719 269.105469 965.53125 C 269.359375 965.425781 269.625 965.34375 269.898438 965.289062 C 270.167969 965.234375 270.441406 965.207031 270.71875 965.207031 L 282.140625 965.207031 C 282.375 965.207031 282.601562 965.164062 282.816406 965.074219 C 283.035156 964.984375 283.226562 964.855469 283.390625 964.691406 C 283.558594 964.523438 283.683594 964.332031 283.773438 964.117188 C 283.863281 963.898438 283.910156 963.671875 283.910156 963.4375 C 283.910156 963.203125 283.863281 962.980469 283.773438 962.761719 C 283.683594 962.546875 283.558594 962.355469 283.390625 962.1875 C 283.226562 962.023438 283.035156 961.894531 282.816406 961.804688 C 282.601562 961.714844 282.375 961.667969 282.140625 961.667969 L 270.71875 961.667969 C 270.441406 961.667969 270.167969 961.640625 269.898438 961.589844 C 269.625 961.535156 269.359375 961.453125 269.105469 961.347656 C 268.847656 961.242188 268.605469 961.109375 268.375 960.957031 C 268.144531 960.804688 267.933594 960.628906 267.734375 960.433594 C 267.539062 960.238281 267.367188 960.023438 267.210938 959.792969 C 267.058594 959.5625 266.925781 959.320312 266.820312 959.0625 C 266.714844 958.808594 266.636719 958.542969 266.582031 958.273438 C 266.527344 958 266.5 957.726562 266.5 957.449219 L 266.5 942.960938 C 266.5 941.804688 266.578125 940.65625 266.730469 939.507812 C 266.882812 938.359375 267.113281 937.230469 267.414062 936.113281 C 267.714844 934.996094 268.085938 933.902344 268.53125 932.835938 C 268.972656 931.765625 269.484375 930.730469 270.0625 929.730469 C 270.644531 928.730469 271.285156 927.769531 271.988281 926.851562 C 272.695312 925.933594 273.457031 925.066406 274.273438 924.25 C 275.09375 923.433594 275.960938 922.671875 276.878906 921.96875 C 277.796875 921.261719 278.753906 920.621094 279.757812 920.042969 C 280.28125 919.75 280.757812 919.390625 281.1875 918.96875 C 281.617188 918.546875 281.980469 918.074219 282.28125 917.554688 C 282.582031 917.035156 282.808594 916.484375 282.960938 915.902344 C 283.113281 915.320312 283.1875 914.726562 283.179688 914.125 L 283.179688 911.132812 L 302.679688 911.132812 L 302.679688 914.125 C 302.671875 914.726562 302.742188 915.320312 302.894531 915.902344 C 303.046875 916.484375 303.273438 917.035156 303.578125 917.554688 C 303.878906 918.078125 304.242188 918.546875 304.671875 918.96875 C 305.097656 919.394531 305.578125 919.75 306.101562 920.042969 C 307.101562 920.621094 308.0625 921.265625 308.980469 921.96875 C 309.898438 922.671875 310.765625 923.433594 311.582031 924.25 C 312.402344 925.070312 313.164062 925.9375 313.867188 926.855469 C 314.570312 927.769531 315.214844 928.730469 315.792969 929.730469 C 316.371094 930.734375 316.882812 931.765625 317.328125 932.835938 C 317.769531 933.902344 318.144531 934.996094 318.445312 936.113281 C 318.746094 937.230469 318.972656 938.363281 319.125 939.507812 C 319.277344 940.65625 319.355469 941.804688 319.359375 942.960938 L 319.359375 945.949219 L 316.214844 945.949219 C 315.609375 945.945312 315.03125 946.066406 314.476562 946.308594 C 313.925781 946.550781 313.445312 946.894531 313.042969 947.34375 C 312.632812 947.792969 312.332031 948.308594 312.140625 948.886719 C 311.945312 949.464844 311.878906 950.058594 311.9375 950.664062 L 313.003906 961.667969 L 292.089844 961.667969 C 291.855469 961.667969 291.628906 961.714844 291.414062 961.804688 C 291.195312 961.894531 291.003906 962.019531 290.839844 962.1875 C 290.675781 962.351562 290.546875 962.542969 290.457031 962.761719 C 290.367188 962.976562 290.320312 963.203125 290.320312 963.4375 C 290.320312 963.671875 290.367188 963.898438 290.457031 964.113281 C 290.546875 964.332031 290.675781 964.523438 290.839844 964.6875 C 291.003906 964.855469 291.195312 964.984375 291.414062 965.074219 C 291.628906 965.164062 291.855469 965.207031 292.089844 965.207031 L 313.347656 965.207031 L 314.503906 977.148438 L 297.699219 977.148438 C 297.464844 977.148438 297.238281 977.195312 297.023438 977.285156 C 296.804688 977.375 296.613281 977.503906 296.449219 977.667969 C 296.285156 977.832031 296.15625 978.023438 296.066406 978.242188 C 295.976562 978.457031 295.929688 978.683594 295.929688 978.917969 C 295.929688 979.152344 295.976562 979.378906 296.066406 979.597656 C 296.15625 979.8125 296.285156 980.003906 296.449219 980.167969 C 296.613281 980.335938 296.804688 980.464844 297.023438 980.554688 C 297.238281 980.644531 297.464844 980.6875 297.699219 980.6875 L 314.84375 980.6875 L 316.003906 992.675781 C 315.714844 992.640625 315.429688 992.625 315.136719 992.625 L 281.644531 992.625 C 281.410156 992.625 281.183594 992.667969 280.96875 992.757812 C 280.75 992.847656 280.558594 992.976562 280.394531 993.140625 C 280.226562 993.308594 280.101562 993.5 280.011719 993.714844 C 279.921875 993.933594 279.875 994.15625 279.875 994.394531 C 279.875 994.628906 279.921875 994.851562 280.011719 995.070312 C 280.101562 995.285156 280.226562 995.476562 280.394531 995.644531 C 280.558594 995.808594 280.75 995.9375 280.96875 996.027344 C 281.183594 996.117188 281.410156 996.160156 281.644531 996.160156 L 315.136719 996.160156 C 315.554688 996.164062 315.960938 996.222656 316.359375 996.347656 L 317.503906 1008.15625 L 317.503906 1014.738281 C 317.503906 1015.121094 317.542969 1015.5 317.621094 1015.875 C 316.882812 1016.421875 316.054688 1016.691406 315.136719 1016.695312 L 270.71875 1016.695312 C 270.441406 1016.695312 270.167969 1016.667969 269.894531 1016.613281 C 269.625 1016.558594 269.359375 1016.476562 269.105469 1016.371094 C 268.847656 1016.265625 268.605469 1016.132812 268.375 1015.980469 C 268.144531 1015.824219 267.929688 1015.652344 267.734375 1015.453125 C 267.539062 1015.257812 267.363281 1015.046875 267.210938 1014.8125 C 267.054688 1014.582031 266.925781 1014.339844 266.820312 1014.085938 C 266.714844 1013.828125 266.632812 1013.5625 266.582031 1013.292969 C 266.527344 1013.019531 266.5 1012.746094 266.5 1012.46875 Z M 266.5 1000.390625 " fill-opacity="1" fill-rule="nonzero"/>

</g>
</svg>