<svg xmlns="http://www.w3.org/2000/svg" viewBox="0 0 93.54296899999997 89.917969">
<g transform="translate(-613.0,-105.359375)">
<path fill="#000000" d="M 659.652344 195.289062 C 658.6875 195.289062 657.722656 195.039062 656.855469 194.539062 C 646.066406 188.324219 636.839844 180.460938 629.425781 171.160156 C 624.480469 164.953125 612.890625 150.417969 613.3125 132.402344 C 613.457031 126.359375 614.964844 121.011719 617.675781 116.9375 C 618.859375 115.15625 622.464844 109.738281 629.746094 107.179688 C 634.902344 105.367188 639.472656 105.902344 641.199219 106.214844 C 647.28125 107.324219 651 110.800781 653.992188 113.597656 L 654.0625 113.667969 C 656.238281 115.699219 658.144531 117.992188 659.753906 120.5 C 661.355469 117.992188 663.257812 115.699219 665.425781 113.667969 L 665.5 113.601562 C 668.480469 110.804688 672.195312 107.324219 678.289062 106.214844 C 680.015625 105.902344 684.589844 105.367188 689.742188 107.179688 C 697.027344 109.738281 700.628906 115.15625 701.816406 116.9375 C 703.714844 119.792969 706.015625 124.792969 706.175781 132.40625 C 706.550781 149.886719 695.027344 164.179688 689.492188 171.050781 C 682.109375 180.207031 673.058594 188.082031 662.585938 194.460938 C 661.683594 195.011719 660.667969 195.289062 659.652344 195.289062 Z M 637.382812 108.75 C 635.539062 108.75 633.199219 109 630.695312 109.878906 C 624.3125 112.121094 621.105469 116.941406 620.054688 118.523438 C 617.640625 122.148438 616.300781 126.96875 616.171875 132.472656 C 615.773438 149.445312 626.90625 163.410156 631.660156 169.375 C 638.847656 178.390625 647.804688 186.023438 658.277344 192.058594 C 659.152344 192.5625 660.234375 192.546875 661.101562 192.015625 C 671.292969 185.808594 680.097656 178.148438 687.269531 169.253906 C 692.59375 162.648438 703.671875 148.902344 703.320312 132.46875 C 703.171875 125.542969 701.128906 121.0625 699.4375 118.523438 C 698.382812 116.941406 695.179688 112.121094 688.796875 109.878906 C 684.285156 108.292969 680.304688 108.757812 678.800781 109.03125 C 673.53125 109.992188 670.300781 113.019531 667.449219 115.691406 L 667.378906 115.757812 C 665.039062 117.953125 663.03125 120.476562 661.417969 123.261719 C 661.078125 123.855469 660.441406 124.222656 659.757812 124.222656 C 659.757812 124.222656 659.757812 124.222656 659.753906 124.222656 C 659.074219 124.222656 658.4375 123.855469 658.09375 123.265625 C 656.472656 120.476562 654.460938 117.953125 652.113281 115.757812 L 652.042969 115.691406 C 649.183594 113.019531 645.945312 109.988281 640.691406 109.03125 C 640.023438 108.910156 638.863281 108.75 637.382812 108.75 Z M 637.382812 108.75 " fill-opacity="1" fill-rule="nonzero"/>

</g>
</svg>