<svg xmlns="http://www.w3.org/2000/svg" viewBox="0 0 98.18749999999997 112.42968699999983">
<g transform="translate(-199.925781,-1168.402344)">
<path fill="#000000" d="M 287.183594 1237.300781 C 290.078125 1237.300781 292.648438 1237.378906 295.210938 1237.277344 C 297.402344 1237.1875 298.128906 1238.144531 298.113281 1240.253906 C 298.046875 1248.859375 298.121094 1257.46875 298.070312 1266.074219 C 298.042969 1271.503906 294.195312 1275.367188 288.753906 1275.335938 C 287.125 1275.324219 286.210938 1275.804688 285.304688 1277.140625 C 283.636719 1279.609375 281.109375 1280.808594 278.125 1280.8125 C 258.75 1280.835938 239.375 1280.835938 220 1280.816406 C 216.738281 1280.8125 214.261719 1279.316406 212.285156 1276.742188 C 211.761719 1276.0625 210.671875 1275.472656 209.820312 1275.445312 C 203.59375 1275.238281 199.953125 1271.660156 199.941406 1265.496094 C 199.925781 1257.117188 199.925781 1248.734375 199.941406 1240.355469 C 199.945312 1237.683594 200.3125 1237.320312 202.9375 1237.304688 C 205.492188 1237.289062 208.046875 1237.300781 210.839844 1237.300781 C 210.839844 1233.425781 210.898438 1229.746094 210.828125 1226.070312 C 210.710938 1220.25 211.742188 1214.671875 214.035156 1209.3125 C 214.347656 1208.582031 214.457031 1207.714844 214.460938 1206.910156 C 214.5 1202.304688 214.46875 1197.699219 214.476562 1193.09375 C 214.484375 1188.496094 216.476562 1186.542969 221.152344 1186.535156 C 224.324219 1186.53125 227.492188 1186.535156 230.621094 1186.535156 C 233.535156 1174.195312 240.265625 1168.152344 250.664062 1168.410156 C 260.210938 1168.648438 267.039062 1175.289062 269.128906 1186.535156 C 271.871094 1186.535156 274.660156 1186.519531 277.449219 1186.539062 C 281.347656 1186.570312 283.5 1188.6875 283.542969 1192.539062 C 283.566406 1194.652344 283.558594 1196.765625 283.546875 1198.878906 C 283.515625 1204.0625 283.59375 1209.105469 285.546875 1214.171875 C 286.9375 1217.78125 286.871094 1222.003906 287.132812 1225.972656 C 287.371094 1229.640625 287.183594 1233.339844 287.183594 1237.300781 Z M 256.289062 1222.753906 C 259.320312 1222.753906 262.117188 1222.914062 264.886719 1222.722656 C 273.007812 1222.164062 279.621094 1215.324219 279.859375 1207.21875 C 280 1202.390625 279.867188 1197.554688 279.910156 1192.726562 C 279.929688 1190.890625 279.113281 1190.160156 277.300781 1190.164062 C 258.457031 1190.1875 239.613281 1190.183594 220.769531 1190.160156 C 218.804688 1190.15625 218.078125 1191 218.105469 1192.898438 C 218.167969 1197.582031 218.066406 1202.261719 218.144531 1206.941406 C 218.261719 1213.558594 222.644531 1219.554688 228.886719 1221.816406 C 233.058594 1223.328125 237.34375 1222.664062 241.734375 1222.78125 C 241.734375 1219.851562 241.789062 1217.214844 241.71875 1214.582031 C 241.667969 1212.640625 242.519531 1211.855469 244.445312 1211.898438 C 247.46875 1211.96875 250.496094 1211.96875 253.523438 1211.898438 C 255.40625 1211.859375 256.355469 1212.546875 256.304688 1214.53125 C 256.238281 1217.167969 256.289062 1219.804688 256.289062 1222.753906 Z M 216.253906 1214.824219 L 215.667969 1214.898438 C 215.28125 1217.648438 214.582031 1220.398438 214.5625 1223.152344 C 214.449219 1239.234375 214.480469 1255.320312 214.503906 1271.402344 C 214.511719 1274.96875 216.765625 1277.171875 220.367188 1277.175781 C 239.441406 1277.195312 258.515625 1277.199219 277.589844 1277.175781 C 281.316406 1277.171875 283.515625 1274.972656 283.523438 1271.238281 C 283.542969 1255.382812 283.585938 1239.523438 283.472656 1223.667969 C 283.449219 1220.742188 282.75 1217.820312 282.363281 1214.894531 L 281.777344 1214.835938 C 279.425781 1219.464844 276.097656 1223.375 271.136719 1224.792969 C 266.421875 1226.140625 261.390625 1226.367188 256.3125 1227.117188 C 255.425781 1231.113281 253.050781 1233.496094 249.382812 1233.675781 C 245.496094 1233.863281 243.007812 1231.628906 241.359375 1226.273438 C 230.855469 1227.410156 221.617188 1225.328125 216.253906 1214.824219 Z M 210.683594 1271.640625 L 210.683594 1241.128906 L 203.585938 1241.128906 C 203.585938 1249.304688 203.578125 1257.292969 203.589844 1265.285156 C 203.59375 1269.921875 205.832031 1271.953125 210.683594 1271.640625 Z M 294.429688 1241.097656 L 287.339844 1241.097656 L 287.339844 1271.65625 C 291.710938 1271.890625 294.363281 1269.976562 294.402344 1266.378906 C 294.492188 1258.019531 294.429688 1249.652344 294.429688 1241.097656 Z M 234.605469 1186.402344 L 238.019531 1186.402344 C 239.835938 1179.457031 243.785156 1175.816406 249.554688 1175.671875 C 255.636719 1175.519531 259.484375 1178.855469 261.90625 1186.402344 L 265.222656 1186.402344 C 264.582031 1178.226562 258.058594 1172.101562 250.054688 1172.050781 C 241.921875 1171.996094 235.367188 1178.015625 234.605469 1186.402344 Z M 245.382812 1215.65625 C 245.382812 1218.988281 245.382812 1222.132812 245.386719 1225.277344 C 245.386719 1225.726562 245.359375 1226.179688 245.40625 1226.628906 C 245.613281 1228.601562 247.089844 1230.007812 248.964844 1230.035156 C 250.828125 1230.0625 252.519531 1228.675781 252.582031 1226.722656 C 252.699219 1223.070312 252.617188 1219.410156 252.617188 1215.65625 Z M 257.8125 1186.429688 C 257.289062 1182.207031 254.125 1179.347656 250.035156 1179.296875 C 245.835938 1179.246094 242.578125 1182.105469 242.019531 1186.429688 Z M 257.8125 1186.429688 " fill-opacity="1" fill-rule="nonzero"/>

</g>
</svg>