<svg xmlns="http://www.w3.org/2000/svg" viewBox="0 0 107.92968700000006 114.67968800000017">
<g transform="translate(-857.214844,-1345.847656)">
<path fill="#000000" d="M 957.464844 1376.660156 L 958.296875 1375.207031 L 951.410156 1371.222656 L 936.8125 1396.542969 L 943.707031 1400.527344 Z M 961.894531 1376.8125 L 962.445312 1377.128906 C 965.097656 1378.734375 965.871094 1382.347656 964.28125 1385.046875 L 951.164062 1407.804688 C 950.621094 1408.746094 949.417969 1409.066406 948.484375 1408.523438 C 947.542969 1407.976562 947.222656 1406.777344 947.765625 1405.835938 L 960.953125 1382.96875 C 961.386719 1382.226562 961.175781 1380.941406 960.457031 1380.515625 L 959.933594 1380.214844 L 946.617188 1403.3125 L 946.617188 1453.933594 C 946.617188 1457.570312 943.65625 1460.535156 940.023438 1460.535156 L 872.332031 1460.535156 C 868.703125 1460.535156 865.742188 1457.570312 865.742188 1453.933594 L 865.742188 1452.605469 L 863.839844 1452.605469 C 860.21875 1452.605469 857.253906 1449.636719 857.253906 1446.003906 L 857.253906 1359.175781 C 857.253906 1356.058594 859.441406 1353.398438 862.417969 1352.738281 L 862.417969 1349.578125 C 862.417969 1347.527344 864.085938 1345.851562 866.136719 1345.851562 L 870.574219 1345.851562 C 871.578125 1345.851562 872.554688 1346.277344 873.195312 1346.949219 L 873.203125 1346.949219 C 873.871094 1347.617188 874.289062 1348.550781 874.289062 1349.578125 L 874.289062 1352.585938 L 877.089844 1352.585938 L 877.089844 1349.578125 C 877.089844 1347.527344 878.753906 1345.851562 880.804688 1345.851562 L 885.246094 1345.851562 C 887.292969 1345.851562 888.960938 1347.527344 888.960938 1349.578125 L 888.960938 1352.585938 L 891.761719 1352.585938 L 891.761719 1349.578125 C 891.761719 1347.527344 893.425781 1345.851562 895.472656 1345.851562 L 899.910156 1345.851562 C 901.960938 1345.851562 903.632812 1347.527344 903.632812 1349.578125 L 903.632812 1352.585938 L 906.425781 1352.585938 L 906.425781 1349.578125 C 906.425781 1347.527344 908.105469 1345.851562 910.148438 1345.851562 L 914.585938 1345.851562 C 915.589844 1345.851562 916.5625 1346.277344 917.210938 1346.949219 C 917.886719 1347.617188 918.304688 1348.550781 918.304688 1349.578125 L 918.304688 1352.585938 L 921.101562 1352.585938 L 921.101562 1349.578125 C 921.101562 1347.527344 922.765625 1345.851562 924.8125 1345.851562 L 929.257812 1345.851562 C 931.304688 1345.851562 932.96875 1347.527344 932.96875 1349.578125 L 932.96875 1352.738281 C 935.941406 1353.398438 938.128906 1356.058594 938.128906 1359.175781 L 938.128906 1360.515625 L 940.03125 1360.515625 C 943.660156 1360.515625 946.625 1363.480469 946.625 1367.109375 L 946.625 1371.695312 L 949.003906 1367.566406 C 949.539062 1366.625 950.738281 1366.304688 951.671875 1366.839844 L 952.03125 1367.042969 L 955.023438 1361.847656 C 955.570312 1360.910156 956.769531 1360.582031 957.703125 1361.128906 L 963.878906 1364.707031 C 964.820312 1365.246094 965.140625 1366.445312 964.605469 1367.378906 L 961.601562 1372.585938 L 961.949219 1372.789062 C 962.890625 1373.332031 963.210938 1374.523438 962.675781 1375.46875 Z M 958.214844 1370.625 L 960.234375 1367.121094 L 957.433594 1365.503906 L 955.414062 1369.003906 Z M 932.378906 1396.386719 L 934.195312 1393.238281 L 934.195312 1373.058594 L 861.183594 1373.058594 L 861.183594 1446.003906 C 861.183594 1447.460938 862.382812 1448.660156 863.839844 1448.660156 L 931.542969 1448.660156 C 932.996094 1448.660156 934.195312 1447.460938 934.195312 1446.003906 L 934.195312 1424.851562 L 928.539062 1434.667969 C 928.371094 1434.945312 928.164062 1435.167969 927.886719 1435.351562 L 916.71875 1442.496094 C 916.390625 1442.753906 915.964844 1442.90625 915.515625 1442.90625 L 867.671875 1442.90625 C 866.585938 1442.90625 865.707031 1442.027344 865.707031 1440.9375 C 865.707031 1439.851562 866.585938 1438.964844 867.671875 1438.964844 L 913.699219 1438.964844 L 914.523438 1428.578125 L 867.671875 1428.578125 C 866.585938 1428.578125 865.707031 1427.699219 865.707031 1426.613281 C 865.707031 1425.523438 866.585938 1424.644531 867.671875 1424.644531 L 916.09375 1424.644531 L 922.082031 1414.25 L 867.671875 1414.25 C 866.585938 1414.25 865.707031 1413.371094 865.707031 1412.285156 C 865.707031 1411.195312 866.585938 1410.320312 867.671875 1410.320312 L 924.351562 1410.320312 Z M 941.742188 1403.925781 L 934.851562 1399.941406 L 919.234375 1427.03125 L 926.125 1431.015625 Z M 923.070312 1433.777344 L 918.273438 1431 L 917.785156 1437.160156 Z M 938.125 1386.417969 L 942.679688 1378.515625 L 942.679688 1367.109375 C 942.679688 1365.652344 941.480469 1364.449219 940.027344 1364.449219 L 938.125 1364.449219 Z M 942.679688 1410.132812 L 938.125 1418.039062 L 938.125 1446.003906 C 938.125 1449.636719 935.171875 1452.605469 931.542969 1452.605469 L 869.679688 1452.605469 C 869.679688 1453.867188 869.519531 1454.871094 870.457031 1455.8125 C 870.9375 1456.296875 871.601562 1456.59375 872.328125 1456.59375 L 940.023438 1456.59375 C 941.480469 1456.59375 942.679688 1455.390625 942.679688 1453.933594 Z M 867.671875 1385.601562 C 866.585938 1385.601562 865.707031 1384.714844 865.707031 1383.628906 C 865.707031 1382.546875 866.585938 1381.660156 867.671875 1381.660156 L 927.710938 1381.660156 C 928.796875 1381.660156 929.675781 1382.546875 929.675781 1383.628906 C 929.675781 1384.714844 928.796875 1385.601562 927.710938 1385.601562 Z M 867.671875 1399.929688 C 866.585938 1399.929688 865.707031 1399.042969 865.707031 1397.953125 C 865.707031 1396.867188 866.585938 1395.988281 867.671875 1395.988281 L 927.710938 1395.988281 C 928.796875 1395.988281 929.675781 1396.867188 929.675781 1397.953125 C 929.675781 1399.042969 928.796875 1399.929688 927.710938 1399.929688 Z M 874.289062 1356.519531 L 874.289062 1361.433594 C 874.289062 1363.484375 872.617188 1365.152344 870.574219 1365.152344 L 866.140625 1365.152344 C 864.09375 1365.152344 862.417969 1363.488281 862.417969 1361.433594 L 862.417969 1356.9375 C 861.675781 1357.417969 861.183594 1358.25 861.183594 1359.175781 L 861.183594 1369.121094 L 934.195312 1369.121094 L 934.195312 1359.175781 C 934.195312 1358.25 933.710938 1357.417969 932.960938 1356.9375 L 932.960938 1361.433594 C 932.960938 1363.484375 931.296875 1365.152344 929.25 1365.152344 L 924.804688 1365.152344 C 922.757812 1365.152344 921.09375 1363.488281 921.09375 1361.433594 L 921.09375 1356.519531 L 918.296875 1356.519531 L 918.296875 1361.433594 C 918.296875 1363.484375 916.621094 1365.152344 914.578125 1365.152344 L 910.140625 1365.152344 C 909.136719 1365.152344 908.160156 1364.726562 907.511719 1364.058594 L 907.511719 1364.066406 C 906.835938 1363.390625 906.417969 1362.460938 906.417969 1361.433594 L 906.417969 1356.519531 L 903.625 1356.519531 L 903.625 1361.433594 C 903.625 1363.484375 901.953125 1365.152344 899.90625 1365.152344 L 895.464844 1365.152344 C 893.417969 1365.152344 891.753906 1363.488281 891.753906 1361.433594 L 891.753906 1356.519531 L 888.953125 1356.519531 L 888.953125 1361.433594 C 888.953125 1363.484375 887.289062 1365.152344 885.238281 1365.152344 L 880.796875 1365.152344 C 878.75 1365.152344 877.082031 1363.488281 877.082031 1361.433594 L 877.082031 1356.519531 Z M 870.359375 1349.796875 L 866.355469 1349.796875 L 866.355469 1361.222656 L 870.359375 1361.222656 Z M 929.035156 1349.796875 L 925.023438 1349.796875 L 925.023438 1361.222656 L 929.035156 1361.222656 Z M 914.363281 1349.796875 L 910.359375 1349.796875 L 910.359375 1361.222656 L 914.363281 1361.222656 Z M 899.691406 1349.796875 L 895.6875 1349.796875 L 895.6875 1361.222656 L 899.691406 1361.222656 Z M 885.03125 1349.796875 L 881.015625 1349.796875 L 881.015625 1361.222656 L 885.03125 1361.222656 Z M 885.03125 1349.796875 " fill-opacity="1" fill-rule="nonzero"/>

</g>
</svg>