<svg xmlns="http://www.w3.org/2000/svg" viewBox="0 0 103.4375 111.67968799999994">
<g transform="translate(-357.539062,-1180.132812)">
<path fill="#000000" d="M 369.785156 1220.945312 C 369.964844 1220.027344 370.855469 1219.429688 371.773438 1219.613281 L 402.917969 1225.789062 C 403.835938 1225.972656 404.429688 1226.859375 404.25 1227.777344 C 404.066406 1228.703125 403.167969 1229.292969 402.261719 1229.109375 L 371.117188 1222.933594 C 370.199219 1222.75 369.601562 1221.863281 369.785156 1220.945312 Z M 369.785156 1243.105469 C 369.964844 1242.1875 370.855469 1241.59375 371.773438 1241.773438 L 402.917969 1247.953125 C 403.835938 1248.132812 404.429688 1249.023438 404.25 1249.941406 C 404.066406 1250.863281 403.167969 1251.453125 402.261719 1251.269531 L 371.117188 1245.097656 C 370.199219 1244.910156 369.601562 1244.023438 369.785156 1243.105469 Z M 454.324219 1257.136719 L 413.585938 1280.15625 C 415.535156 1274.777344 416.28125 1268.601562 412.476562 1262.507812 L 455.054688 1238.449219 C 458.554688 1244.054688 458.316406 1249.75 454.324219 1257.136719 Z M 385.21875 1277.460938 L 409.074219 1282.191406 C 412.769531 1274.210938 412.761719 1268.679688 409.054688 1263.476562 L 362.753906 1254.292969 C 365.882812 1260.832031 364.171875 1267.367188 361.746094 1272.804688 L 369.75 1274.394531 L 369.75 1265.597656 L 369.753906 1265.597656 C 369.753906 1264.539062 370.722656 1263.730469 371.773438 1263.9375 L 402.917969 1270.113281 C 403.835938 1270.296875 404.429688 1271.183594 404.25 1272.105469 C 404.066406 1273.027344 403.167969 1273.617188 402.261719 1273.433594 L 385.21875 1270.054688 Z M 378.785156 1281.8125 C 378.109375 1281.003906 376.863281 1281.003906 376.1875 1281.8125 L 373.136719 1285.460938 L 373.136719 1267.65625 L 381.835938 1269.382812 L 381.835938 1285.460938 Z M 405.128906 1183.605469 L 450.773438 1192.660156 L 409.746094 1215.839844 L 364.097656 1206.785156 Z M 454.324219 1212.8125 C 458.316406 1205.425781 458.554688 1199.730469 455.054688 1194.128906 L 412.476562 1218.183594 C 416.28125 1224.277344 415.535156 1230.453125 413.585938 1235.832031 Z M 409.054688 1241.3125 L 362.753906 1232.132812 C 365.882812 1238.671875 364.171875 1245.203125 361.746094 1250.644531 L 409.070312 1260.027344 C 412.769531 1252.050781 412.757812 1246.515625 409.054688 1241.3125 Z M 362.753906 1209.96875 C 365.882812 1216.507812 364.171875 1223.042969 361.746094 1228.484375 L 409.074219 1237.867188 C 412.769531 1229.886719 412.761719 1224.355469 409.054688 1219.15625 Z M 454.324219 1234.976562 C 458.3125 1227.589844 458.554688 1221.894531 455.050781 1216.292969 L 412.476562 1240.347656 C 416.28125 1246.441406 415.535156 1252.613281 413.585938 1257.992188 Z M 457.558594 1213.941406 C 459.617188 1210.023438 460.671875 1206.621094 460.859375 1203.300781 C 461.109375 1198.921875 459.828125 1194.863281 456.949219 1190.894531 C 456.691406 1190.535156 456.3125 1190.308594 455.90625 1190.226562 L 405.167969 1180.164062 C 404.773438 1180.085938 404.359375 1180.152344 404.007812 1180.351562 L 358.460938 1206.085938 L 358.460938 1206.089844 C 357.578125 1206.585938 357.320312 1207.761719 357.945312 1208.585938 C 362.207031 1214.183594 362.15625 1220.089844 357.773438 1228.972656 C 357.488281 1229.554688 357.558594 1230.222656 357.945312 1230.742188 L 357.945312 1230.746094 C 362.207031 1236.347656 362.15625 1242.253906 357.773438 1251.136719 L 357.777344 1251.136719 C 357.496094 1251.707031 357.554688 1252.394531 357.945312 1252.90625 C 362.207031 1258.503906 362.15625 1264.414062 357.773438 1273.296875 C 357.285156 1274.292969 357.871094 1275.488281 358.960938 1275.707031 L 369.75 1277.84375 L 369.75 1290.121094 C 369.75 1291.691406 371.726562 1292.417969 372.742188 1291.203125 L 377.484375 1285.535156 L 382.226562 1291.203125 C 383.238281 1292.414062 385.21875 1291.699219 385.21875 1290.121094 L 385.21875 1280.914062 L 409.703125 1285.769531 C 410.097656 1285.847656 410.515625 1285.773438 410.859375 1285.578125 L 456.410156 1259.847656 C 456.683594 1259.691406 456.90625 1259.46875 457.058594 1259.191406 C 459.445312 1254.882812 460.65625 1251.207031 460.859375 1247.625 C 461.089844 1243.574219 460.003906 1239.792969 457.558594 1236.101562 C 459.617188 1232.1875 460.667969 1228.78125 460.859375 1225.460938 C 461.089844 1221.410156 460.007812 1217.628906 457.558594 1213.941406 Z M 457.558594 1213.941406 " fill-opacity="1" fill-rule="evenodd"/>

</g>
</svg>