<svg xmlns="http://www.w3.org/2000/svg" viewBox="0 0 131.140625 101.93359400000003">
<g transform="translate(-1008.0,-269.5625)">
<path fill="#000000" d="M 1048.347656 342.824219 C 1044.210938 342.675781 1040.617188 341.730469 1037.691406 340.03125 C 1034.976562 338.457031 1032.851562 336.273438 1031.398438 333.507812 C 1024.792969 334.8125 1019.257812 333.355469 1015.230469 330.371094 C 1012.738281 328.519531 1010.832031 326.085938 1009.617188 323.355469 C 1008.402344 320.617188 1007.875 317.597656 1008.128906 314.582031 C 1008.5625 309.542969 1011.148438 304.507812 1016.328125 300.832031 C 1017.726562 294.847656 1020.8125 289.945312 1024.828125 286.445312 C 1029.0625 282.757812 1034.339844 280.621094 1039.785156 280.40625 C 1043.527344 276.484375 1047.539062 273.882812 1051.820312 272.605469 C 1056.152344 271.3125 1060.703125 271.382812 1065.464844 272.8125 C 1075.925781 268.179688 1085.660156 268.511719 1094.664062 273.8125 C 1099.191406 273.644531 1103.15625 274.34375 1106.558594 275.90625 C 1109.941406 277.460938 1112.730469 279.84375 1114.921875 283.058594 C 1120.707031 284.664062 1125.136719 287.265625 1128.210938 290.871094 C 1131.300781 294.496094 1132.960938 299.066406 1133.191406 304.574219 C 1135.113281 306.71875 1136.578125 309.214844 1137.5625 311.875 C 1139.027344 315.839844 1139.425781 320.179688 1138.679688 324.292969 C 1137.921875 328.464844 1135.996094 332.40625 1132.828125 335.511719 C 1131.09375 337.210938 1128.988281 338.65625 1126.503906 339.746094 C 1126.277344 340.855469 1125.945312 341.941406 1125.507812 343 C 1123.609375 347.609375 1119.796875 351.550781 1114.996094 354.140625 C 1110.25 356.703125 1104.515625 357.972656 1098.710938 357.269531 C 1098.101562 357.195312 1097.488281 357.101562 1096.878906 356.984375 C 1097.585938 358.363281 1098.265625 359.667969 1098.914062 360.894531 C 1099.175781 361.390625 1099.582031 362.148438 1100.121094 363.152344 C 1100.6875 364.199219 1101.058594 364.878906 1101.222656 365.171875 C 1101.628906 365.914062 1101.570312 366.785156 1101.140625 367.449219 L 1101.144531 367.449219 C 1098.847656 370.972656 1096.039062 372.207031 1092.71875 371.152344 C 1089.996094 370.289062 1087.070312 367.640625 1083.941406 363.203125 L 1083.90625 363.15625 L 1083.898438 363.160156 C 1081.152344 359.023438 1078.390625 355.457031 1075.613281 352.460938 C 1073.105469 349.761719 1070.585938 347.511719 1068.050781 345.71875 C 1063.4375 346.75 1059.511719 347.039062 1056.28125 346.582031 C 1052.933594 346.105469 1050.289062 344.855469 1048.347656 342.824219 Z M 1067.230469 282.175781 C 1067.871094 281.144531 1069.226562 280.828125 1070.253906 281.46875 C 1071.285156 282.113281 1071.601562 283.472656 1070.960938 284.507812 C 1067.691406 289.777344 1068.296875 294.519531 1070.554688 297.78125 C 1070.746094 297.910156 1070.921875 298.070312 1071.070312 298.265625 C 1071.207031 298.445312 1071.316406 298.640625 1071.390625 298.84375 C 1072.457031 300.042969 1073.753906 300.980469 1075.128906 301.59375 C 1076.800781 302.335938 1078.550781 302.578125 1080.074219 302.183594 C 1082.222656 301.632812 1084.03125 299.6875 1084.636719 295.917969 C 1084.828125 294.714844 1085.949219 293.894531 1087.144531 294.085938 C 1088.339844 294.277344 1089.15625 295.40625 1088.96875 296.605469 C 1088.039062 302.40625 1084.921875 305.476562 1081.15625 306.449219 C 1078.644531 307.097656 1075.890625 306.753906 1073.359375 305.632812 C 1071.753906 304.917969 1070.226562 303.882812 1068.894531 302.585938 C 1065.683594 304.539062 1062.308594 305.226562 1059.261719 304.863281 C 1057.222656 308.492188 1053.679688 311.265625 1049.671875 312.886719 C 1046.675781 314.097656 1043.394531 314.671875 1040.285156 314.484375 C 1039.808594 314.453125 1039.339844 314.40625 1038.871094 314.34375 C 1036.808594 316.324219 1035.417969 318.542969 1034.699219 321 C 1034.363281 322.140625 1034.171875 323.34375 1034.121094 324.605469 C 1034.121094 324.644531 1034.121094 324.679688 1034.117188 324.71875 C 1034.058594 326.449219 1034.265625 328.292969 1034.738281 330.25 C 1035.789062 332.859375 1037.535156 334.863281 1039.871094 336.21875 C 1042.339844 337.648438 1045.488281 338.402344 1049.210938 338.441406 C 1052.359375 338.078125 1054.953125 337.394531 1057 336.398438 C 1058.90625 335.46875 1060.316406 334.261719 1061.238281 332.777344 C 1061.878906 331.746094 1063.230469 331.429688 1064.261719 332.070312 C 1065.289062 332.714844 1065.605469 334.074219 1064.964844 335.109375 C 1063.601562 337.308594 1061.582031 339.0625 1058.90625 340.367188 C 1057.742188 340.9375 1056.445312 341.417969 1055.023438 341.8125 C 1055.601562 341.988281 1056.21875 342.121094 1056.882812 342.214844 C 1059.785156 342.625 1063.453125 342.300781 1067.890625 341.238281 L 1067.914062 341.230469 C 1072.15625 340.054688 1076.261719 338.902344 1080.238281 337.777344 C 1084.183594 336.664062 1087.402344 335.742188 1089.882812 335.019531 C 1089.953125 335 1090.019531 334.984375 1090.089844 334.96875 C 1092.917969 334.425781 1095.242188 333.765625 1097.054688 332.988281 C 1097.085938 332.972656 1097.117188 332.960938 1097.152344 332.945312 C 1097.644531 332.734375 1098.097656 332.511719 1098.515625 332.277344 C 1100.140625 331.371094 1101.101562 330.378906 1101.394531 329.296875 C 1101.710938 328.121094 1102.917969 327.425781 1104.089844 327.746094 C 1105.261719 328.0625 1105.953125 329.277344 1105.636719 330.453125 C 1105.214844 332.015625 1104.292969 333.398438 1102.875 334.601562 C 1105.960938 335.703125 1108.980469 336.429688 1111.929688 336.78125 C 1116.066406 337.277344 1120.066406 337.03125 1123.933594 336.046875 C 1126.273438 335.148438 1128.214844 333.878906 1129.769531 332.355469 C 1132.257812 329.917969 1133.769531 326.808594 1134.367188 323.519531 C 1134.976562 320.171875 1134.648438 316.640625 1133.457031 313.414062 C 1132.601562 311.097656 1131.296875 308.945312 1129.570312 307.128906 C 1127.859375 305.796875 1126.222656 304.898438 1124.660156 304.445312 C 1123.167969 304.011719 1121.726562 303.976562 1120.332031 304.335938 C 1119.160156 304.636719 1117.96875 303.925781 1117.667969 302.746094 C 1117.371094 301.570312 1118.078125 300.371094 1119.25 300.070312 C 1121.414062 299.511719 1123.625 299.5625 1125.878906 300.21875 C 1126.714844 300.460938 1127.554688 300.785156 1128.394531 301.195312 C 1127.804688 298.285156 1126.632812 295.796875 1124.875 293.734375 C 1122.289062 290.703125 1118.378906 288.507812 1113.144531 287.152344 C 1110.195312 286.839844 1107.59375 287.046875 1105.332031 287.777344 C 1103.863281 288.253906 1102.523438 288.957031 1101.316406 289.890625 C 1102.367188 290.988281 1103.285156 292.199219 1104.046875 293.484375 C 1105.507812 292.769531 1107.125 292.324219 1108.894531 292.144531 C 1111.464844 291.890625 1114.355469 292.207031 1117.558594 293.101562 C 1118.726562 293.425781 1119.410156 294.640625 1119.085938 295.8125 C 1118.765625 296.984375 1117.558594 297.671875 1116.390625 297.347656 C 1113.710938 296.597656 1111.355469 296.328125 1109.324219 296.53125 C 1108.027344 296.660156 1106.863281 296.988281 1105.832031 297.515625 C 1106.808594 300.71875 1106.84375 304.125 1105.671875 307.289062 C 1105.179688 308.621094 1104.46875 309.902344 1103.527344 311.101562 C 1102.777344 312.054688 1101.398438 312.21875 1100.449219 311.464844 C 1099.503906 310.710938 1099.339844 309.328125 1100.089844 308.375 C 1100.738281 307.550781 1101.226562 306.667969 1101.566406 305.753906 C 1102.445312 303.375 1102.328125 300.738281 1101.453125 298.253906 C 1100.65625 295.988281 1099.238281 293.867188 1097.375 292.179688 C 1097.035156 292.089844 1096.710938 291.921875 1096.429688 291.664062 C 1096.234375 291.480469 1096.078125 291.269531 1095.960938 291.042969 C 1094.964844 290.335938 1093.871094 289.75 1092.707031 289.3125 C 1091.574219 288.886719 1090.996094 287.621094 1091.417969 286.480469 C 1091.839844 285.34375 1093.101562 284.765625 1094.234375 285.1875 C 1095.519531 285.667969 1096.738281 286.289062 1097.867188 287.027344 C 1099.664062 285.472656 1101.707031 284.324219 1103.992188 283.585938 C 1105.511719 283.09375 1107.128906 282.785156 1108.84375 282.664062 C 1107.625 281.523438 1106.257812 280.605469 1104.738281 279.910156 C 1101.84375 278.582031 1098.363281 278.027344 1094.296875 278.242188 L 1094.03125 278.277344 L 1094.03125 278.28125 C 1088.441406 279.058594 1084.429688 280.519531 1082.007812 282.660156 C 1079.839844 284.578125 1078.96875 287.15625 1079.390625 290.398438 L 1079.40625 290.507812 C 1079.566406 291.710938 1078.726562 292.820312 1077.523438 292.984375 C 1076.324219 293.144531 1075.222656 292.296875 1075.058594 291.09375 L 1075.046875 290.984375 L 1075.046875 290.976562 C 1074.414062 286.171875 1075.769531 282.296875 1079.101562 279.347656 C 1081.089844 277.59375 1083.777344 276.21875 1087.171875 275.21875 C 1080.757812 273.121094 1073.90625 273.757812 1066.609375 277.128906 L 1066.566406 277.152344 C 1065.171875 277.964844 1064.054688 278.902344 1063.226562 279.972656 C 1062.40625 281.03125 1061.847656 282.238281 1061.554688 283.601562 C 1061.304688 284.792969 1060.140625 285.554688 1058.953125 285.300781 C 1057.765625 285.046875 1057.007812 283.878906 1057.261719 282.6875 C 1057.691406 280.671875 1058.53125 278.863281 1059.773438 277.261719 C 1060.039062 276.917969 1060.324219 276.585938 1060.625 276.265625 C 1057.996094 275.921875 1055.472656 276.113281 1053.058594 276.832031 C 1049.363281 277.9375 1045.851562 280.292969 1042.523438 283.894531 C 1040.246094 287.703125 1039.34375 291.007812 1039.816406 293.800781 C 1040.273438 296.519531 1042.113281 298.898438 1045.332031 300.9375 C 1046.355469 301.585938 1046.664062 302.945312 1046.019531 303.976562 C 1045.375 305.003906 1044.019531 305.3125 1042.996094 304.664062 C 1038.667969 301.925781 1036.164062 298.542969 1035.484375 294.523438 C 1035 291.652344 1035.484375 288.535156 1036.933594 285.167969 C 1033.574219 285.851562 1030.386719 287.433594 1027.699219 289.777344 C 1024.257812 292.777344 1021.632812 297.023438 1020.5 302.242188 C 1020.777344 304.34375 1021.386719 306.035156 1022.328125 307.316406 C 1023.257812 308.589844 1024.5625 309.492188 1026.246094 310.027344 C 1027.402344 310.394531 1028.046875 311.632812 1027.679688 312.796875 C 1027.316406 313.960938 1026.078125 314.605469 1024.921875 314.238281 C 1022.335938 313.414062 1020.292969 311.976562 1018.785156 309.921875 C 1017.96875 308.808594 1017.328125 307.527344 1016.863281 306.078125 C 1014.167969 308.683594 1012.777344 311.820312 1012.511719 314.945312 C 1012.316406 317.234375 1012.710938 319.511719 1013.621094 321.558594 C 1014.535156 323.609375 1015.964844 325.441406 1017.84375 326.832031 C 1020.835938 329.050781 1025 330.152344 1030.058594 329.273438 C 1029.9375 328.546875 1029.851562 327.835938 1029.792969 327.132812 C 1027.105469 327.375 1024.753906 327.015625 1022.738281 326.050781 C 1020.023438 324.75 1018.011719 322.421875 1016.710938 319.074219 C 1016.269531 317.941406 1016.828125 316.660156 1017.957031 316.21875 C 1019.085938 315.777344 1020.359375 316.335938 1020.800781 317.46875 C 1021.679688 319.730469 1022.957031 321.261719 1024.628906 322.0625 C 1026.035156 322.734375 1027.785156 322.945312 1029.878906 322.691406 C 1030.007812 321.6875 1030.210938 320.707031 1030.488281 319.757812 C 1031.214844 317.28125 1032.4375 315.015625 1034.164062 312.949219 C 1033.234375 312.503906 1032.355469 311.953125 1031.546875 311.300781 C 1028.984375 309.238281 1027.152344 306.175781 1026.585938 301.976562 C 1026.425781 300.773438 1027.269531 299.664062 1028.46875 299.5 C 1029.667969 299.339844 1030.773438 300.183594 1030.933594 301.390625 C 1031.332031 304.359375 1032.574219 306.480469 1034.296875 307.867188 C 1035.457031 308.804688 1036.859375 309.429688 1038.382812 309.777344 C 1038.5625 309.792969 1038.738281 309.828125 1038.910156 309.886719 C 1039.441406 309.984375 1039.988281 310.046875 1040.539062 310.082031 C 1043.011719 310.234375 1045.628906 309.769531 1048.039062 308.796875 C 1050.84375 307.660156 1053.335938 305.847656 1054.921875 303.519531 C 1054.847656 303.484375 1054.777344 303.445312 1054.703125 303.40625 C 1053.332031 302.644531 1052.121094 301.613281 1051.144531 300.347656 C 1049.230469 297.867188 1048.242188 294.519531 1048.730469 290.570312 C 1048.878906 289.359375 1049.976562 288.5 1051.179688 288.648438 C 1052.386719 288.792969 1053.242188 289.894531 1053.097656 291.105469 C 1052.757812 293.828125 1053.382812 296.058594 1054.613281 297.65625 C 1055.210938 298.429688 1055.960938 299.0625 1056.820312 299.539062 C 1057.6875 300.023438 1058.671875 300.339844 1059.726562 300.46875 C 1061.734375 300.71875 1063.984375 300.296875 1066.191406 299.066406 C 1063.675781 294.597656 1063.242188 288.605469 1067.230469 282.175781 Z M 1073.390625 344.277344 C 1075.21875 345.796875 1077.03125 347.527344 1078.824219 349.457031 C 1081.792969 352.65625 1084.703125 356.40625 1087.558594 360.710938 L 1087.550781 360.714844 C 1090.082031 364.296875 1092.246094 366.375 1094.039062 366.941406 C 1094.957031 367.234375 1095.839844 366.933594 1096.6875 366.042969 C 1096.503906 365.710938 1096.359375 365.449219 1096.257812 365.257812 C 1096.023438 364.820312 1095.613281 364.050781 1095.027344 362.945312 C 1094.386719 361.734375 1093.695312 360.40625 1092.957031 358.960938 C 1092.230469 357.550781 1091.46875 356.046875 1090.664062 354.445312 C 1087.75 352.585938 1085.417969 350.527344 1083.675781 348.273438 C 1082.234375 346.40625 1081.1875 344.40625 1080.542969 342.273438 C 1078.433594 342.867188 1076.050781 343.535156 1073.390625 344.277344 Z M 1094.367188 351.730469 C 1095.96875 352.3125 1097.597656 352.691406 1099.226562 352.886719 C 1104.109375 353.476562 1108.929688 352.414062 1112.917969 350.257812 C 1116.851562 348.132812 1119.949219 344.972656 1121.453125 341.324219 C 1121.492188 341.226562 1121.53125 341.128906 1121.570312 341.027344 C 1118.265625 341.535156 1114.878906 341.582031 1111.414062 341.167969 C 1107.042969 340.644531 1102.550781 339.378906 1097.933594 337.378906 C 1095.988281 338.128906 1093.671875 338.761719 1090.984375 339.28125 C 1088.976562 339.867188 1086.90625 340.464844 1084.765625 341.074219 C 1085.261719 342.652344 1086.054688 344.152344 1087.148438 345.5625 C 1088.734375 347.613281 1090.9375 349.492188 1093.761719 351.195312 C 1094.003906 351.339844 1094.207031 351.523438 1094.367188 351.730469 Z M 1041.667969 326.035156 C 1044.828125 328.214844 1047.917969 329.167969 1050.789062 329.214844 C 1053.441406 329.261719 1055.875 328.535156 1057.984375 327.289062 C 1058.558594 326.949219 1059.109375 326.570312 1059.636719 326.160156 C 1060.121094 326.910156 1060.667969 327.597656 1061.261719 328.214844 C 1063.371094 330.414062 1066.085938 331.796875 1069.03125 332.339844 C 1071.910156 332.867188 1075.007812 332.574219 1077.949219 331.4375 C 1080.152344 330.585938 1082.257812 329.269531 1084.113281 327.476562 C 1084.988281 326.632812 1085.015625 325.238281 1084.175781 324.363281 C 1083.335938 323.484375 1081.945312 323.457031 1081.074219 324.300781 C 1079.640625 325.683594 1078.039062 326.691406 1076.386719 327.332031 C 1074.203125 328.175781 1071.917969 328.394531 1069.804688 328.007812 C 1067.757812 327.632812 1065.875 326.675781 1064.425781 325.160156 C 1063.796875 324.507812 1063.246094 323.746094 1062.796875 322.886719 C 1062.917969 322.71875 1063.039062 322.550781 1063.152344 322.382812 C 1065.023438 319.648438 1066.117188 316.386719 1066.167969 313.28125 C 1066.1875 312.066406 1065.222656 311.066406 1064.011719 311.046875 C 1062.800781 311.027344 1061.804688 312 1061.789062 313.214844 C 1061.75 315.449219 1060.929688 317.847656 1059.527344 319.898438 C 1058.535156 321.351562 1057.257812 322.613281 1055.769531 323.492188 C 1054.320312 324.347656 1052.660156 324.847656 1050.859375 324.816406 C 1048.816406 324.78125 1046.550781 324.058594 1044.140625 322.394531 C 1043.140625 321.707031 1041.773438 321.96875 1041.089844 322.972656 C 1040.40625 323.976562 1040.664062 325.351562 1041.667969 326.035156 Z M 1074.695312 318.78125 C 1079.832031 319.429688 1084.003906 319.054688 1087.199219 317.652344 C 1090.945312 321.851562 1096.949219 323.621094 1102.902344 323.542969 C 1105.53125 323.507812 1108.160156 323.117188 1110.574219 322.417969 C 1111.375 323.742188 1112.324219 324.921875 1113.359375 325.914062 C 1114.90625 327.394531 1116.675781 328.472656 1118.488281 329.003906 C 1120.453125 329.578125 1122.460938 329.515625 1124.316406 328.640625 C 1125.214844 328.214844 1126.058594 327.613281 1126.820312 326.808594 C 1127.65625 325.929688 1127.621094 324.53125 1126.742188 323.695312 C 1125.867188 322.855469 1124.476562 322.890625 1123.640625 323.773438 C 1123.261719 324.171875 1122.863281 324.464844 1122.460938 324.652344 C 1121.628906 325.046875 1120.679688 325.058594 1119.707031 324.773438 C 1118.582031 324.445312 1117.4375 323.726562 1116.386719 322.722656 C 1115.792969 322.15625 1115.242188 321.507812 1114.746094 320.789062 C 1116.808594 319.742188 1118.574219 318.414062 1119.851562 316.847656 C 1121.820312 314.441406 1122.664062 311.542969 1121.796875 308.292969 C 1121.484375 307.117188 1120.277344 306.417969 1119.105469 306.730469 C 1117.933594 307.046875 1117.238281 308.253906 1117.550781 309.433594 C 1118.015625 311.164062 1117.546875 312.734375 1116.46875 314.054688 C 1115.253906 315.539062 1113.300781 316.765625 1110.960938 317.652344 C 1108.507812 318.578125 1105.679688 319.105469 1102.851562 319.144531 C 1098.289062 319.203125 1093.757812 318.007812 1090.902344 315.183594 C 1092.585938 313.53125 1093.734375 311.375 1094.339844 308.714844 C 1094.609375 307.527344 1093.871094 306.347656 1092.691406 306.074219 C 1091.507812 305.804688 1090.332031 306.546875 1090.0625 307.730469 C 1089.4375 310.464844 1088.007812 312.375 1085.769531 313.460938 C 1083.285156 314.671875 1079.777344 314.988281 1075.246094 314.414062 C 1074.046875 314.261719 1072.949219 315.117188 1072.796875 316.320312 C 1072.644531 317.527344 1073.496094 318.628906 1074.695312 318.78125 Z M 1074.695312 318.78125 " fill-opacity="1" fill-rule="evenodd"/>

</g>
</svg>