<svg xmlns="http://www.w3.org/2000/svg" viewBox="0 0 130.69921899999997 131.80859399999997">
<g transform="translate(-834.300781,-798.0)">
<path fill="#000000" d="M 878.765625 928.851562 L 887.84375 919.765625 L 887.839844 919.757812 C 888.21875 919.378906 888.457031 918.859375 888.46875 918.28125 L 889.019531 896.132812 C 889.019531 896.128906 889.019531 896.128906 889.019531 896.125 C 890.253906 895.070312 891.472656 893.945312 892.683594 892.734375 L 904.726562 880.6875 L 927.890625 925.585938 C 927.992188 925.785156 928.128906 925.972656 928.296875 926.136719 C 929.148438 926.972656 930.519531 926.964844 931.355469 926.109375 L 943.121094 914.148438 C 943.621094 913.710938 943.910156 913.046875 943.847656 912.335938 L 943.019531 902.890625 L 949.816406 896.09375 C 951.242188 894.667969 951.960938 892.785156 951.960938 890.90625 C 951.960938 889.027344 951.242188 887.144531 949.816406 885.71875 C 948.390625 884.292969 946.507812 883.574219 944.628906 883.574219 C 943.519531 883.574219 942.417969 883.855469 941.398438 884.359375 L 940.804688 877.589844 L 947.601562 870.789062 C 949.027344 869.363281 949.742188 867.480469 949.742188 865.601562 C 949.742188 863.730469 949.027344 861.851562 947.601562 860.425781 L 947.460938 860.289062 C 946.050781 858.945312 944.230469 858.273438 942.414062 858.273438 C 941.304688 858.273438 940.203125 858.558594 939.183594 859.058594 L 938.160156 847.382812 C 938.160156 847.347656 938.136719 847.316406 938.132812 847.277344 L 950.625 834.785156 C 955.488281 829.917969 959.394531 825.320312 961.898438 819.972656 C 964.4375 814.550781 965.476562 808.484375 964.535156 800.808594 C 964.410156 799.785156 963.589844 799.015625 962.605469 798.914062 C 954.953125 797.984375 948.902344 799.023438 943.492188 801.558594 C 938.144531 804.0625 933.546875 807.972656 928.6875 812.835938 L 916.308594 825.214844 C 916.167969 825.171875 916.039062 825.101562 915.886719 825.089844 L 904.214844 824.070312 C 904.71875 823.050781 905 821.949219 905 820.835938 C 905 818.957031 904.285156 817.074219 902.855469 815.648438 L 902.847656 815.648438 C 901.417969 814.222656 899.542969 813.503906 897.667969 813.503906 C 895.851562 813.503906 894.03125 814.175781 892.621094 815.519531 L 892.480469 815.648438 L 885.683594 822.445312 L 878.917969 821.855469 C 879.417969 820.835938 879.699219 819.734375 879.699219 818.621094 C 879.699219 816.742188 878.984375 814.859375 877.558594 813.433594 C 876.132812 812.007812 874.25 811.289062 872.371094 811.289062 C 870.492188 811.289062 868.613281 812.003906 867.1875 813.433594 L 860.390625 820.230469 L 850.949219 819.402344 C 850.238281 819.339844 849.574219 819.632812 849.136719 820.128906 L 837.171875 831.898438 C 836.320312 832.734375 836.308594 834.105469 837.144531 834.957031 C 837.3125 835.128906 837.496094 835.261719 837.695312 835.363281 L 882.855469 858.671875 L 870.746094 870.78125 C 869.355469 872.175781 868.101562 873.578125 866.917969 875 L 845.734375 875.523438 C 845.152344 875.539062 844.632812 875.777344 844.257812 876.15625 L 844.25 876.148438 L 835.171875 885.234375 C 834.324219 886.082031 834.324219 887.457031 835.171875 888.300781 C 835.535156 888.664062 835.992188 888.871094 836.464844 888.921875 L 858.347656 893.328125 C 857.9375 896.394531 857.921875 899.671875 858.359375 903.226562 C 858.484375 904.253906 859.304688 905.019531 860.289062 905.121094 C 863.992188 905.574219 867.382812 905.527344 870.554688 905.0625 L 875.078125 927.546875 C 875.128906 928.019531 875.335938 928.480469 875.699219 928.839844 C 876.546875 929.699219 877.921875 929.699219 878.765625 928.851562 Z M 941.847656 889.445312 L 942.511719 888.785156 C 943.09375 888.207031 943.863281 887.914062 944.632812 887.914062 C 945.402344 887.914062 946.171875 888.207031 946.753906 888.785156 C 947.332031 889.363281 947.625 890.136719 947.625 890.90625 C 947.625 891.675781 947.332031 892.445312 946.753906 893.027344 L 942.53125 897.253906 L 941.890625 889.945312 Z M 939.632812 864.140625 L 940.292969 863.480469 C 940.871094 862.902344 941.644531 862.609375 942.417969 862.609375 C 943.15625 862.609375 943.886719 862.871094 944.453125 863.398438 L 944.542969 863.476562 C 945.117188 864.058594 945.410156 864.828125 945.410156 865.601562 C 945.410156 866.371094 945.117188 867.140625 944.539062 867.722656 L 940.316406 871.949219 L 939.6875 864.777344 Z M 935.222656 863.515625 L 936.398438 876.957031 L 937.433594 888.820312 L 938.609375 902.257812 C 938.609375 902.257812 938.609375 902.257812 938.609375 902.261719 L 939.4375 911.722656 L 930.363281 920.953125 L 907.9375 877.480469 L 934.148438 851.261719 Z M 895.632812 818.632812 C 896.199219 818.113281 896.933594 817.847656 897.667969 817.847656 C 898.4375 817.847656 899.210938 818.140625 899.785156 818.71875 C 900.367188 819.296875 900.65625 820.070312 900.65625 820.839844 C 900.65625 821.613281 900.367188 822.378906 899.785156 822.960938 L 899.128906 823.628906 L 896.113281 823.363281 L 891.328125 822.941406 Z M 870.25 816.507812 C 870.832031 815.925781 871.601562 815.636719 872.371094 815.636719 C 873.140625 815.636719 873.910156 815.925781 874.492188 816.507812 C 875.070312 817.085938 875.363281 817.859375 875.363281 818.625 C 875.363281 819.394531 875.070312 820.164062 874.492188 820.746094 L 873.824219 821.414062 L 869.851562 821.066406 L 866.027344 820.734375 Z M 842.332031 832.890625 L 851.558594 823.816406 L 861.019531 824.644531 C 861.019531 824.644531 861.019531 824.644531 861.023438 824.644531 L 865.976562 825.078125 L 886.316406 826.859375 L 886.820312 826.898438 L 912.382812 829.136719 L 886.066406 855.464844 Z M 841.089844 885.453125 L 846.710938 879.832031 L 863.671875 879.410156 C 862.457031 881.28125 861.363281 883.191406 860.523438 885.214844 C 860 886.476562 859.5625 887.769531 859.199219 889.101562 Z M 862.488281 900.996094 C 862.054688 895.632812 862.796875 891.039062 864.523438 886.878906 C 866.449219 882.226562 869.636719 878.035156 873.816406 873.855469 L 931.753906 815.902344 C 936.316406 811.339844 940.566406 807.707031 945.324219 805.476562 C 949.605469 803.472656 954.414062 802.554688 960.410156 803.050781 C 960.90625 809.046875 959.992188 813.855469 957.984375 818.140625 C 955.757812 822.898438 952.121094 827.148438 947.5625 831.710938 L 889.621094 889.667969 C 885.445312 893.84375 881.25 897.03125 876.601562 898.960938 C 872.441406 900.683594 867.851562 901.429688 862.488281 900.996094 Z M 874.777344 904.164062 C 875.964844 903.824219 877.128906 903.429688 878.261719 902.960938 C 880.480469 902.039062 882.574219 900.832031 884.613281 899.457031 L 884.171875 917.304688 L 878.550781 922.925781 Z M 874.777344 904.164062 " fill-opacity="1" fill-rule="nonzero"/>

</g>
</svg>