<svg xmlns="http://www.w3.org/2000/svg" viewBox="0 0 57.0 85.07031200000006">
<g transform="translate(-389.0,-1371.0)">
<path fill="#000000" d="M 417.902344 1371.941406 C 415.601562 1371.941406 413.304688 1372.019531 411.0625 1372.632812 C 410.097656 1372.886719 409.144531 1373.191406 408.210938 1373.546875 C 407.277344 1373.902344 406.363281 1374.304688 405.46875 1374.753906 C 404.578125 1375.207031 403.710938 1375.703125 402.875 1376.246094 C 402.035156 1376.792969 401.226562 1377.378906 400.449219 1378.007812 C 399.671875 1378.636719 398.929688 1379.304688 398.222656 1380.011719 C 397.519531 1380.71875 396.851562 1381.460938 396.226562 1382.242188 C 395.597656 1383.019531 395.015625 1383.828125 394.472656 1384.667969 C 393.933594 1385.511719 393.4375 1386.375 392.988281 1387.269531 C 392.539062 1388.164062 392.140625 1389.078125 391.789062 1390.011719 C 391.4375 1390.949219 391.136719 1391.898438 390.886719 1392.867188 C 390.636719 1393.832031 390.4375 1394.8125 390.289062 1395.800781 C 390.144531 1396.789062 390.050781 1397.78125 390.007812 1398.78125 C 389.96875 1399.777344 389.980469 1400.777344 390.042969 1401.773438 C 390.109375 1402.769531 390.226562 1403.761719 390.398438 1404.746094 C 390.566406 1405.730469 390.789062 1406.703125 391.0625 1407.664062 C 391.335938 1408.625 391.660156 1409.570312 392.035156 1410.496094 C 393.863281 1415.101562 397.011719 1418.734375 400.148438 1422.410156 C 402.628906 1425.3125 404.25 1428.597656 403.730469 1432.511719 C 403.285156 1435.898438 403.546875 1439.277344 403.484375 1442.65625 C 403.453125 1444.332031 403.691406 1446.308594 405.386719 1446.839844 C 407.308594 1447.441406 407.65625 1448.839844 408.3125 1450.253906 C 408.625 1450.910156 409.007812 1451.519531 409.46875 1452.082031 C 414.644531 1458.476562 424.339844 1456.859375 427.375 1449.117188 C 427.601562 1448.542969 427.488281 1447.679688 428.304688 1447.511719 C 431.5625 1446.84375 432.265625 1444.574219 432.125 1441.679688 C 431.964844 1438.488281 432.101562 1435.296875 431.894531 1432.089844 C 431.628906 1427.925781 433.457031 1424.367188 436.371094 1421.382812 C 442.304688 1415.304688 445.597656 1408.246094 445.683594 1399.519531 C 445.808594 1386.550781 434.164062 1371.296875 417.902344 1371.941406 Z M 424.15625 1448.527344 C 422.792969 1451.035156 420.8125 1452.574219 417.878906 1452.722656 C 414.777344 1452.878906 412.582031 1451.445312 411.050781 1448.851562 C 410.507812 1447.933594 410.433594 1447.316406 411.871094 1447.382812 C 413.796875 1447.46875 415.734375 1447.40625 417.664062 1447.40625 C 419.59375 1447.40625 421.53125 1447.4375 423.460938 1447.40625 C 424.457031 1447.363281 424.632812 1447.664062 424.164062 1448.527344 Z M 427.308594 1444.382812 C 424.105469 1444.328125 420.898438 1444.382812 417.691406 1444.382812 C 414.609375 1444.382812 411.523438 1444.304688 408.441406 1444.410156 C 406.722656 1444.464844 406.703125 1443.527344 406.621094 1442.246094 C 406.53125 1440.839844 407.160156 1440.703125 408.3125 1440.726562 C 411.441406 1440.792969 414.601562 1440.75 417.746094 1440.75 C 420.949219 1440.75 424.15625 1440.789062 427.359375 1440.726562 C 428.472656 1440.707031 429.019531 1440.925781 428.910156 1442.191406 C 428.832031 1443.296875 429.007812 1444.410156 427.3125 1444.382812 Z M 427.617188 1437.722656 C 421.078125 1437.648438 414.546875 1437.695312 408.007812 1437.722656 C 406.558594 1437.722656 406.675781 1436.683594 406.652344 1435.785156 C 406.621094 1434.632812 406.902344 1434.117188 408.121094 1434.148438 C 411.328125 1434.234375 414.539062 1434.175781 417.746094 1434.175781 C 421.011719 1434.175781 424.285156 1434.257812 427.550781 1434.140625 C 428.988281 1434.085938 428.941406 1434.832031 428.894531 1435.800781 C 428.832031 1436.671875 429.308594 1437.742188 427.625 1437.722656 Z M 413.824219 1413.753906 C 413.605469 1412.460938 413.792969 1412.25 415.039062 1412.234375 C 416.003906 1412.234375 420.898438 1411.789062 421.613281 1412.507812 C 422.167969 1413.0625 421.410156 1414.933594 421.230469 1416.21875 C 420.578125 1420.875 419.3125 1425.429688 419.195312 1430.171875 C 419.175781 1431.078125 418.320312 1431.09375 417.417969 1431.066406 C 416.945312 1431.050781 416.027344 1431.050781 416.066406 1430.210938 C 416.363281 1424.582031 414.742188 1419.214844 413.828125 1413.753906 Z M 442.246094 1399.992188 C 442.46875 1406.855469 440.007812 1412.726562 435.34375 1417.691406 C 432.457031 1420.769531 429.9375 1424.007812 428.980469 1428.257812 C 428.78125 1429.152344 429.410156 1430.429688 428.390625 1430.875 C 427.578125 1431.222656 426.488281 1430.984375 425.519531 1430.988281 C 421.980469 1430.988281 421.738281 1430.71875 422.390625 1427.234375 C 423.78125 1419.890625 425.195312 1412.554688 426.558594 1405.207031 C 426.710938 1404.398438 427.03125 1403.535156 426.558594 1402.726562 C 426.183594 1402.097656 425.519531 1402.214844 424.921875 1402.234375 C 424.121094 1402.253906 423.734375 1402.753906 423.582031 1403.46875 C 423.21875 1404.929688 422.925781 1406.40625 422.710938 1407.898438 C 422.605469 1408.890625 422.195312 1409.078125 421.320312 1409.0625 C 418.898438 1409.023438 416.472656 1409.023438 414.046875 1409.0625 C 413.226562 1409.0625 412.871094 1408.832031 412.777344 1407.96875 C 412.644531 1406.777344 412.320312 1405.605469 412.109375 1404.417969 C 411.898438 1403.230469 411.597656 1402.019531 410.027344 1402.265625 C 408.453125 1402.515625 408.65625 1403.757812 408.859375 1404.84375 C 409.871094 1410.292969 410.984375 1415.726562 411.921875 1421.191406 C 412.398438 1423.964844 413.355469 1426.703125 412.855469 1429.597656 C 412.824219 1429.773438 412.898438 1429.992188 412.820312 1430.132812 C 412.1875 1431.25 410.808594 1431.109375 409.105469 1431.207031 C 408.507812 1431.238281 407.113281 1431.296875 406.984375 1430.066406 C 406.511719 1425.691406 404.417969 1422.0625 401.378906 1418.960938 C 395.832031 1413.300781 393.023438 1406.570312 393.191406 1398.574219 C 393.425781 1387.609375 403.164062 1376.90625 414 1375.273438 C 429.035156 1373.023438 440.265625 1384.269531 442.230469 1396.367188 C 442.421875 1397.542969 442.253906 1398.773438 442.253906 1399.992188 Z M 442.246094 1399.992188 " fill-opacity="1" fill-rule="nonzero"/>

</g>
</svg>