<svg xmlns="http://www.w3.org/2000/svg" viewBox="0 0 77.796875 80.0">
<g transform="translate(-788.0,-556.0)">
<path fill="#000000" d="M 815.65625 635.695312 C 814.167969 635.695312 812.675781 635.179688 811.503906 634.144531 C 810.21875 633 809.429688 631.363281 809.386719 629.660156 C 809.339844 627.953125 810.015625 626.269531 811.234375 625.058594 L 823.210938 613.167969 L 807.648438 604.707031 C 805.144531 603.363281 803.386719 601.09375 802.640625 598.359375 C 801.917969 595.621094 802.347656 592.792969 803.835938 590.394531 L 815.203125 572.152344 L 809.632812 569.59375 L 798.808594 578.996094 C 796.214844 581.238281 792.222656 581.015625 789.921875 578.480469 C 788.75 577.175781 788.164062 575.496094 788.296875 573.765625 C 788.433594 572.039062 789.269531 570.445312 790.621094 569.347656 L 803.386719 559.003906 C 805.890625 556.984375 809.292969 556.421875 812.316406 557.542969 L 828.554688 563.601562 C 833.066406 565.285156 836.785156 568.539062 839.042969 572.800781 L 844.003906 582.160156 L 855.664062 572.464844 C 858.234375 570.378906 861.957031 570.671875 864.164062 573.117188 C 865.316406 574.371094 865.878906 576.054688 865.746094 577.761719 C 865.609375 579.445312 864.753906 581.015625 863.421875 582.070312 L 848.289062 594.273438 C 846.621094 595.574219 844.5 596.136719 842.425781 595.800781 C 840.351562 595.464844 838.5 594.296875 837.328125 592.546875 L 832.074219 584.695312 L 823.433594 595.082031 L 835.410156 603.898438 C 838.34375 606.054688 840.011719 609.375 840.035156 612.988281 C 840.058594 616.601562 838.386719 619.941406 835.480469 622.121094 L 819.421875 634.480469 C 818.316406 635.265625 816.984375 635.695312 815.65625 635.695312 Z M 809.453125 566.632812 C 809.65625 566.632812 809.835938 566.675781 810.015625 566.765625 L 817.773438 570.3125 C 818.136719 570.46875 818.382812 570.78125 818.496094 571.140625 C 818.609375 571.5 818.5625 571.90625 818.359375 572.242188 L 806.183594 591.785156 C 805.078125 593.554688 804.761719 595.644531 805.304688 597.664062 C 805.84375 599.683594 807.152344 601.34375 808.980469 602.328125 L 826.117188 611.640625 C 826.503906 611.84375 826.75 612.203125 826.816406 612.628906 C 826.886719 613.054688 826.726562 613.480469 826.433594 613.773438 L 813.171875 626.941406 C 812.472656 627.640625 812.089844 628.582031 812.113281 629.570312 C 812.136719 630.554688 812.566406 631.453125 813.308594 632.125 C 814.570312 633.226562 816.464844 633.316406 817.796875 632.304688 L 833.855469 619.941406 C 836.085938 618.261719 837.351562 615.726562 837.351562 612.964844 C 837.351562 610.203125 836.042969 607.667969 833.832031 606.03125 L 820.707031 596.359375 C 820.414062 596.136719 820.210938 595.800781 820.164062 595.441406 C 820.121094 595.082031 820.234375 594.699219 820.457031 594.429688 L 831.171875 581.550781 C 831.441406 581.214844 831.871094 581.035156 832.277344 581.058594 C 832.703125 581.082031 833.089844 581.304688 833.335938 581.664062 L 839.605469 591.019531 C 840.371094 592.144531 841.523438 592.882812 842.875 593.109375 C 844.230469 593.332031 845.558594 592.972656 846.640625 592.144531 L 861.773438 579.9375 C 862.542969 579.332031 863.015625 578.457031 863.105469 577.492188 C 863.195312 576.527344 862.878906 575.605469 862.226562 574.890625 C 860.984375 573.519531 858.886719 573.363281 857.445312 574.53125 L 844.523438 585.277344 C 844.207031 585.546875 843.800781 585.636719 843.394531 585.570312 C 842.988281 585.480469 842.652344 585.230469 842.46875 584.875 L 836.742188 574.035156 C 834.800781 570.378906 831.597656 567.550781 827.699219 566.117188 L 811.460938 560.058594 C 809.339844 559.273438 806.949219 559.652344 805.191406 561.089844 L 792.425781 571.433594 C 791.636719 572.0625 791.160156 572.960938 791.09375 573.96875 C 791.027344 574.976562 791.34375 575.941406 792.019531 576.683594 C 793.351562 578.140625 795.628906 578.277344 797.117188 576.976562 L 808.617188 566.992188 C 808.820312 566.742188 809.136719 566.632812 809.453125 566.632812 Z M 809.453125 566.632812 " fill-opacity="1" fill-rule="nonzero"/>

</g>
</svg>