<svg xmlns="http://www.w3.org/2000/svg" viewBox="0 0 119.92578099999992 99.68750000000011">
<g transform="translate(-685.179688,-1001.195312)">
<path fill="#000000" d="M 745.140625 1100.867188 C 744.777344 1100.867188 744.429688 1100.710938 744.1875 1100.4375 L 685.5 1033.996094 C 685.082031 1033.523438 685.074219 1032.816406 685.476562 1032.332031 L 710.992188 1001.667969 C 711.234375 1001.375 711.59375 1001.207031 711.972656 1001.207031 L 778.3125 1001.207031 C 778.691406 1001.207031 779.050781 1001.375 779.292969 1001.667969 L 804.808594 1032.332031 C 805.210938 1032.816406 805.203125 1033.523438 804.785156 1033.996094 L 746.097656 1100.4375 C 745.855469 1100.710938 745.507812 1100.867188 745.140625 1100.867188 Z M 688.136719 1033.125 L 745.140625 1097.660156 L 802.144531 1033.125 L 777.714844 1003.761719 L 712.570312 1003.761719 Z M 688.136719 1033.125 " fill-opacity="1" fill-rule="nonzero"/>

</g>
</svg>