<svg xmlns="http://www.w3.org/2000/svg" viewBox="0 0 105.68359300000003 86.0">
<g transform="translate(-475.117188,-1540.0)">
<path fill="#000000" d="M 475.648438 1571.476562 C 475.277344 1571.878906 475.09375 1572.414062 475.140625 1572.953125 L 479.320312 1623.445312 C 479.402344 1624.453125 480.246094 1625.226562 481.257812 1625.226562 L 574.65625 1625.226562 C 575.667969 1625.226562 576.511719 1624.453125 576.59375 1623.445312 L 580.773438 1572.953125 C 580.820312 1572.414062 580.636719 1571.878906 580.265625 1571.476562 C 579.898438 1571.078125 579.382812 1570.851562 578.839844 1570.851562 L 571.683594 1570.851562 L 567.109375 1555.566406 C 565.78125 1551.128906 563.117188 1547.320312 559.402344 1544.554688 C 555.6875 1541.789062 551.28125 1540.324219 546.652344 1540.324219 L 545.917969 1540.324219 C 545.433594 1540.324219 544.96875 1540.503906 544.609375 1540.832031 C 540.050781 1545 534.136719 1547.296875 527.960938 1547.296875 C 521.78125 1547.296875 515.871094 1545 511.308594 1540.832031 C 510.953125 1540.503906 510.488281 1540.324219 510 1540.324219 C 500.875 1540.324219 492.753906 1546.128906 489.796875 1554.769531 L 484.292969 1570.847656 L 477.078125 1570.847656 C 476.535156 1570.847656 476.019531 1571.074219 475.648438 1571.476562 Z M 493.46875 1556.035156 C 495.808594 1549.191406 502.105469 1544.523438 509.277344 1544.226562 C 514.46875 1548.722656 521.074219 1551.1875 527.957031 1551.1875 C 534.84375 1551.1875 541.460938 1548.714844 546.65625 1544.210938 C 554.433594 1544.210938 561.15625 1549.226562 563.386719 1556.683594 L 567.628906 1570.851562 L 488.394531 1570.851562 Z M 485.675781 1574.742188 L 576.726562 1574.742188 L 572.867188 1621.34375 L 483.046875 1621.34375 L 479.1875 1574.742188 L 485.679688 1574.742188 Z M 485.675781 1574.742188 " fill-opacity="1" fill-rule="nonzero"/>

</g>
</svg>