<svg xmlns="http://www.w3.org/2000/svg" viewBox="0 0 125.921876 43.0">
<g transform="translate(-272.257812,-1024.0)">
<path fill="#000000" d="M 335.222656 1066.664062 C 335.082031 1066.664062 334.9375 1066.652344 334.796875 1066.621094 L 273.933594 1054.019531 C 272.960938 1053.816406 272.261719 1052.957031 272.261719 1051.960938 L 272.261719 1031.78125 C 272.261719 1027.851562 275.457031 1024.65625 279.382812 1024.65625 L 391.066406 1024.65625 C 394.992188 1024.65625 398.183594 1027.851562 398.183594 1031.78125 L 398.183594 1051.960938 C 398.183594 1052.957031 397.484375 1053.816406 396.511719 1054.019531 L 335.648438 1066.621094 C 335.507812 1066.652344 335.367188 1066.664062 335.222656 1066.664062 Z M 276.460938 1050.25 L 335.222656 1062.417969 L 393.988281 1050.25 L 393.988281 1031.78125 C 393.988281 1030.171875 392.675781 1028.859375 391.066406 1028.859375 L 279.382812 1028.859375 C 277.769531 1028.859375 276.460938 1030.171875 276.460938 1031.78125 Z M 396.085938 1051.960938 L 396.105469 1051.960938 Z M 396.085938 1051.960938 " fill-opacity="1" fill-rule="nonzero"/>

</g>
</svg>