<svg xmlns="http://www.w3.org/2000/svg" viewBox="0 0 188.0 70.89453100000003">
<g transform="translate(-950.0,-636.0)">
<path fill="#000000" d="M 1136.984375 678.875 C 1136.234375 671.339844 1132.566406 658.484375 1129.046875 656.148438 C 1126.898438 654.730469 1123.523438 654.414062 1119.957031 654.082031 C 1116.355469 653.746094 1112.628906 653.394531 1110.453125 651.953125 C 1101.898438 646.273438 1086.296875 636.664062 1077.925781 636.140625 C 1071.8125 635.765625 1037.113281 636.039062 1024.308594 641.742188 C 1018.0625 644.523438 1013.53125 648.070312 1009.886719 650.917969 C 1006.4375 653.609375 1003.71875 655.738281 1001.234375 655.875 C 1000.015625 655.9375 971.179688 657.621094 963.324219 661.957031 C 954.78125 666.671875 947.980469 678.359375 951.523438 691.5625 C 951.617188 691.898438 951.808594 692.199219 952.078125 692.421875 C 952.378906 692.671875 955.257812 694.886719 962.878906 695.328125 L 966.042969 695.328125 C 968.191406 701.992188 974.484375 706.832031 981.894531 706.832031 C 989.304688 706.832031 995.597656 701.992188 997.75 695.328125 L 1079.53125 695.328125 C 1081.683594 701.992188 1087.972656 706.832031 1095.382812 706.832031 C 1102.820312 706.832031 1109.128906 701.960938 1111.261719 695.265625 C 1114.988281 694.488281 1132.117188 690.773438 1135.636719 687.277344 C 1136.496094 686.4375 1137.558594 684.648438 1136.984375 678.875 Z M 1132.320312 671.84375 C 1128.898438 671.542969 1126.433594 669.90625 1124.898438 668.449219 C 1123.136719 666.785156 1122.070312 664.917969 1121.59375 663.71875 L 1129.800781 663.71875 C 1130.691406 665.984375 1131.59375 668.839844 1132.320312 671.84375 Z M 1075.742188 639.410156 C 1081.09375 641.671875 1086.164062 647.9375 1088.675781 651.421875 L 1049.746094 653.359375 L 1052.382812 640.113281 C 1061.839844 639.417969 1070.996094 639.289062 1075.742188 639.410156 Z M 1011.980469 653.550781 C 1015.476562 650.820312 1019.828125 647.414062 1025.695312 644.804688 C 1030.695312 642.578125 1039.6875 641.199219 1048.886719 640.390625 L 1046.265625 653.53125 L 1009.636719 655.355469 C 1010.394531 654.785156 1011.164062 654.1875 1011.980469 653.550781 Z M 961.828125 667.121094 C 962.957031 666.898438 964.660156 666.753906 965.421875 667.316406 C 965.539062 667.402344 965.839844 667.625 965.839844 668.460938 C 965.839844 671.183594 960.722656 673 956.597656 673.859375 C 957.964844 671.191406 959.78125 668.894531 961.828125 667.121094 Z M 981.894531 703.476562 C 974.578125 703.476562 968.625 697.5625 968.625 690.292969 C 968.625 683.027344 974.578125 677.113281 981.894531 677.113281 C 989.214844 677.113281 995.164062 683.027344 995.164062 690.292969 C 995.164062 697.5625 989.214844 703.476562 981.894531 703.476562 Z M 1095.386719 703.476562 C 1088.070312 703.476562 1082.117188 697.5625 1082.117188 690.292969 C 1082.117188 683.027344 1088.070312 677.113281 1095.386719 677.113281 C 1102.703125 677.113281 1108.660156 683.027344 1108.660156 690.292969 C 1108.660156 697.5625 1102.703125 703.476562 1095.386719 703.476562 Z M 1133.253906 684.90625 C 1131.195312 686.957031 1119.707031 690.003906 1111.96875 691.683594 C 1112.011719 691.226562 1112.039062 690.765625 1112.039062 690.292969 C 1112.039062 681.175781 1104.570312 673.753906 1095.386719 673.753906 C 1086.207031 673.753906 1078.738281 681.171875 1078.738281 690.292969 C 1078.738281 690.863281 1078.765625 691.421875 1078.820312 691.972656 L 998.460938 691.972656 C 998.519531 691.421875 998.542969 690.863281 998.542969 690.292969 C 998.542969 681.175781 991.074219 673.753906 981.894531 673.753906 C 972.710938 673.753906 965.242188 681.171875 965.242188 690.292969 C 965.242188 690.863281 965.273438 691.421875 965.328125 691.976562 L 962.976562 691.976562 C 958.066406 691.691406 955.539062 690.578125 954.632812 690.085938 C 953.558594 685.621094 953.871094 681.339844 955.074219 677.546875 C 958.777344 677.007812 969.214844 674.914062 969.214844 668.464844 C 969.214844 666.382812 968.25 665.226562 967.4375 664.628906 C 967.183594 664.433594 966.898438 664.292969 966.617188 664.164062 C 974.273438 661.320312 993.929688 659.644531 1001.425781 659.222656 C 1001.828125 659.203125 1002.226562 659.140625 1002.621094 659.066406 L 1091.84375 654.628906 C 1092.441406 654.597656 1092.976562 654.257812 1093.257812 653.730469 C 1093.535156 653.207031 1093.511719 652.574219 1093.195312 652.070312 C 1092.984375 651.71875 1089.332031 645.898438 1084.238281 641.203125 C 1090.324219 643.554688 1098.761719 648.222656 1108.578125 654.746094 C 1111.460938 656.660156 1115.621094 657.050781 1119.640625 657.421875 C 1122.636719 657.703125 1125.734375 657.988281 1127.171875 658.945312 C 1127.480469 659.148438 1127.847656 659.644531 1128.257812 660.363281 L 1119.9375 660.363281 C 1119.207031 660.363281 1118.5625 660.746094 1118.207031 661.390625 C 1117.191406 663.226562 1119.171875 666.570312 1119.800781 667.550781 C 1121.308594 669.898438 1125.503906 675.101562 1133.042969 675.257812 C 1133.289062 676.585938 1133.488281 677.902344 1133.617188 679.183594 C 1134.019531 683.183594 1133.492188 684.671875 1133.253906 684.90625 Z M 1133.253906 684.90625 " fill-opacity="1" fill-rule="nonzero"/>

</g>
</svg>