<svg xmlns="http://www.w3.org/2000/svg" viewBox="0 0 83.04296899999997 102.66015599999992">
<g transform="translate(-512.0,-1113.078125)">
<path fill="#000000" d="M 576.792969 1190.96875 C 576.351562 1190.816406 575.992188 1190.46875 575.828125 1190.039062 L 574.695312 1187.058594 C 575.140625 1186.617188 575.375 1185.976562 575.210938 1185.324219 C 575.011719 1184.519531 574.304688 1184 573.515625 1183.960938 L 572.832031 1182.171875 C 573.382812 1181.738281 573.664062 1181.011719 573.484375 1180.289062 C 573.265625 1179.425781 572.460938 1178.890625 571.601562 1178.9375 L 571.085938 1177.585938 C 571.722656 1177.167969 572.066406 1176.398438 571.871094 1175.621094 C 571.640625 1174.703125 570.746094 1174.144531 569.824219 1174.277344 L 569.3125 1172.9375 C 569.9375 1172.515625 570.273438 1171.753906 570.078125 1170.980469 C 569.851562 1170.066406 568.964844 1169.511719 568.058594 1169.636719 L 567.054688 1167.003906 L 594.214844 1139.050781 C 594.921875 1138.324219 594.902344 1137.160156 594.175781 1136.457031 C 593.445312 1135.75 592.285156 1135.765625 591.574219 1136.496094 L 563.542969 1165.347656 C 561.894531 1165.808594 557.515625 1166.671875 553.4375 1164.371094 C 549.351562 1162.070312 547.203125 1157.199219 548.09375 1152.25 C 548.101562 1152.207031 548.089844 1152.164062 548.089844 1152.117188 L 573.832031 1115.996094 C 574.417969 1115.171875 574.226562 1114.027344 573.398438 1113.4375 C 572.570312 1112.847656 571.421875 1113.042969 570.835938 1113.871094 L 545.234375 1149.800781 C 542.621094 1149.234375 540.164062 1149.1875 537.789062 1149.710938 C 530.929688 1151.222656 524.515625 1159.292969 522.5625 1162.359375 C 520.472656 1162.839844 517.820312 1164.058594 515.6875 1167.03125 C 514.390625 1168.839844 514.054688 1171.429688 514.765625 1174.144531 C 515.578125 1177.253906 518.472656 1183.1875 528.679688 1187.953125 C 537.769531 1192.203125 539.964844 1195.410156 543.601562 1200.722656 C 545.046875 1202.835938 546.6875 1205.226562 549.019531 1208.089844 C 550.300781 1209.664062 552.082031 1210.96875 554.160156 1212.035156 L 514.398438 1212.035156 C 513.382812 1212.035156 512.5625 1212.859375 512.5625 1213.871094 C 512.5625 1214.886719 513.382812 1215.707031 514.398438 1215.707031 L 571.070312 1215.707031 C 571.261719 1215.710938 571.453125 1215.71875 571.644531 1215.71875 C 571.753906 1215.71875 571.855469 1215.710938 571.96875 1215.707031 L 572.335938 1215.707031 C 572.355469 1215.707031 572.378906 1215.695312 572.398438 1215.695312 C 575.820312 1215.636719 578.980469 1215.207031 581.382812 1214.417969 C 587.589844 1212.382812 591.691406 1208.449219 594.039062 1205.507812 C 594.066406 1205.476562 594.070312 1205.433594 594.097656 1205.402344 C 594.5 1204.945312 594.789062 1204.445312 594.933594 1203.890625 C 596.367188 1198.449219 582.726562 1193.042969 576.792969 1190.96875 Z M 591.386719 1202.929688 C 590.742188 1204.273438 582.988281 1206.457031 568.003906 1205.417969 C 564.34375 1205.164062 561.460938 1203.429688 558.828125 1200.890625 C 559.457031 1200.984375 560.054688 1201.03125 560.625 1201.03125 C 561.574219 1201.03125 562.433594 1200.890625 563.214844 1200.632812 C 563.230469 1200.625 563.25 1200.621094 563.265625 1200.613281 C 563.929688 1200.386719 564.542969 1200.082031 565.089844 1199.667969 C 566.15625 1198.863281 566.703125 1197.902344 567.1875 1197.050781 C 567.628906 1196.28125 568.042969 1195.550781 568.90625 1194.808594 C 570.054688 1193.824219 571.578125 1193.21875 573.410156 1192.953125 C 573.996094 1193.609375 574.722656 1194.132812 575.582031 1194.433594 C 584.316406 1197.488281 591.121094 1201.5 591.386719 1202.929688 Z M 537.574219 1171.144531 C 538.660156 1171.746094 539.800781 1172.285156 541.074219 1172.703125 C 544.214844 1173.734375 546.847656 1173.867188 548.960938 1173.972656 C 551.261719 1174.089844 552.5 1174.1875 553.34375 1174.972656 C 554.414062 1175.964844 554.367188 1177.460938 554.1875 1180.234375 C 554.035156 1182.539062 553.847656 1185.40625 554.621094 1188.726562 C 555.308594 1191.675781 556.652344 1194.488281 558.601562 1197.117188 C 557.367188 1196.859375 555.9375 1196.382812 554.320312 1195.6875 C 553.660156 1194.824219 552.992188 1193.933594 552.3125 1193.023438 C 550.324219 1190.363281 548.265625 1187.609375 545.910156 1185.132812 C 544.335938 1183.472656 542.070312 1181.691406 539.675781 1179.8125 C 537.988281 1178.488281 536.183594 1177.054688 534.425781 1175.527344 C 535.730469 1174.25 536.78125 1172.769531 537.574219 1171.144531 Z M 538.582031 1153.296875 C 540.378906 1152.898438 542.246094 1152.90625 544.261719 1153.316406 C 543.839844 1159.191406 546.667969 1164.773438 551.628906 1167.570312 C 556.226562 1170.164062 561.167969 1169.726562 563.910156 1169.066406 L 564.453125 1170.492188 L 561.09375 1171.332031 C 560.109375 1171.578125 559.507812 1172.574219 559.757812 1173.558594 C 559.964844 1174.394531 560.714844 1174.949219 561.539062 1174.949219 C 561.683594 1174.949219 561.835938 1174.933594 561.984375 1174.894531 L 565.769531 1173.953125 L 566.222656 1175.140625 L 562.515625 1176.070312 C 561.53125 1176.316406 560.929688 1177.3125 561.179688 1178.296875 C 561.386719 1179.128906 562.136719 1179.6875 562.960938 1179.6875 C 563.109375 1179.6875 563.257812 1179.667969 563.40625 1179.632812 L 567.542969 1178.601562 L 567.988281 1179.777344 L 563.894531 1180.796875 C 562.910156 1181.042969 562.308594 1182.039062 562.558594 1183.023438 C 562.765625 1183.859375 563.515625 1184.414062 564.339844 1184.414062 C 564.488281 1184.414062 564.636719 1184.398438 564.785156 1184.363281 L 569.304688 1183.234375 L 569.890625 1184.765625 L 565.785156 1185.792969 C 564.796875 1186.039062 564.199219 1187.035156 564.445312 1188.019531 C 564.65625 1188.855469 565.402344 1189.410156 566.226562 1189.410156 C 566.375 1189.410156 566.523438 1189.394531 566.675781 1189.355469 L 571.207031 1188.222656 L 571.707031 1189.53125 C 569.675781 1189.984375 567.929688 1190.8125 566.507812 1192.035156 C 565.164062 1193.191406 564.511719 1194.328125 563.992188 1195.246094 C 563.613281 1195.910156 563.359375 1196.320312 562.988281 1196.640625 C 560.566406 1193.917969 558.925781 1190.992188 558.207031 1187.902344 C 557.554688 1185.109375 557.714844 1182.648438 557.859375 1180.476562 C 558.058594 1177.414062 558.246094 1174.523438 555.859375 1172.296875 C 553.992188 1170.554688 551.636719 1170.4375 549.148438 1170.3125 C 547.152344 1170.214844 544.894531 1170.101562 542.226562 1169.226562 C 540.945312 1168.804688 539.832031 1168.300781 538.800781 1167.667969 C 539.835938 1163.042969 538.777344 1158.136719 535.902344 1154.328125 C 536.789062 1153.859375 537.6875 1153.492188 538.582031 1153.296875 Z M 532.828125 1156.375 C 535.449219 1159.722656 536.257812 1164.21875 534.847656 1168.234375 C 534.207031 1170.058594 533.128906 1171.683594 531.71875 1173.027344 C 529.058594 1170.382812 526.789062 1167.472656 525.691406 1164.265625 C 526.667969 1162.722656 529.457031 1159.078125 532.828125 1156.375 Z M 580.234375 1210.929688 C 578.136719 1211.617188 575.332031 1211.988281 572.289062 1212.035156 L 570.851562 1212.035156 C 563.539062 1211.902344 555.253906 1209.921875 551.871094 1205.769531 C 549.632812 1203.027344 548.039062 1200.703125 546.636719 1198.648438 C 542.921875 1193.222656 540.238281 1189.296875 530.238281 1184.628906 C 521.054688 1180.339844 518.84375 1175.21875 518.320312 1173.210938 C 517.894531 1171.582031 518.027344 1170.070312 518.671875 1169.167969 C 519.707031 1167.726562 520.988281 1166.742188 522.492188 1166.203125 C 525.191406 1173.101562 531.914062 1178.390625 537.402344 1182.699219 C 539.6875 1184.496094 541.847656 1186.191406 543.242188 1187.660156 C 545.445312 1189.980469 547.4375 1192.644531 549.363281 1195.222656 C 554.238281 1201.746094 559.28125 1208.492188 567.746094 1209.082031 C 569.042969 1209.171875 571.9375 1209.339844 575.378906 1209.339844 C 578.34375 1209.339844 581.714844 1209.214844 584.816406 1208.804688 C 583.460938 1209.625 581.949219 1210.367188 580.234375 1210.929688 Z M 580.234375 1210.929688 " fill-opacity="1" fill-rule="nonzero"/>

</g>
</svg>