<svg xmlns="http://www.w3.org/2000/svg" viewBox="0 0 54.0 99.68750000000011">
<g transform="translate(-718.0,-1001.195312)">
<path fill="#000000" d="M 745.140625 1100.867188 C 744.613281 1100.867188 744.140625 1100.542969 743.949219 1100.050781 L 718.433594 1033.609375 C 718.308594 1033.273438 718.324219 1032.898438 718.484375 1032.578125 L 733.792969 1001.914062 C 734.109375 1001.28125 734.871094 1001.027344 735.503906 1001.34375 C 736.136719 1001.65625 736.390625 1002.425781 736.074219 1003.058594 L 721.019531 1033.21875 L 745.140625 1096.03125 L 769.265625 1033.21875 L 754.207031 1003.058594 C 753.890625 1002.425781 754.144531 1001.65625 754.777344 1001.34375 C 755.40625 1001.027344 756.171875 1001.28125 756.488281 1001.914062 L 771.800781 1032.578125 C 771.960938 1032.898438 771.976562 1033.273438 771.847656 1033.609375 L 746.332031 1100.050781 C 746.144531 1100.542969 745.671875 1100.867188 745.140625 1100.867188 Z M 745.140625 1100.867188 " fill-opacity="1" fill-rule="nonzero"/>

</g>
</svg>