<svg xmlns="http://www.w3.org/2000/svg" viewBox="0 0 110.929687 112.42968699999983">
<g transform="translate(-279.765625,-1526.777344)">
<path fill="#000000" d="M 359.046875 1610.683594 L 353.855469 1614.578125 L 354.625 1608.125 L 382.246094 1560.179688 L 386.667969 1562.738281 Z M 364.167969 1631.183594 L 364.167969 1608.613281 L 361.816406 1612.691406 C 361.703125 1612.890625 361.558594 1613.066406 361.375 1613.203125 L 352.714844 1619.691406 C 351.566406 1620.574219 349.832031 1619.632812 350.015625 1618.125 L 351.300781 1607.375 C 351.328125 1607.144531 351.402344 1606.921875 351.515625 1606.726562 L 364.167969 1584.746094 L 364.167969 1545.222656 L 283.175781 1545.222656 L 283.175781 1631.183594 C 283.175781 1633.726562 285.230469 1635.796875 287.785156 1635.796875 L 359.5625 1635.796875 C 362.101562 1635.796875 364.167969 1633.726562 364.167969 1631.183594 Z M 287.785156 1530.183594 L 359.5625 1530.183594 C 362.101562 1530.183594 364.167969 1532.253906 364.167969 1534.800781 L 364.167969 1541.8125 L 283.175781 1541.8125 L 283.175781 1534.800781 C 283.175781 1532.253906 285.230469 1530.183594 287.785156 1530.183594 Z M 390.632812 1561.675781 C 390.519531 1561.238281 390.234375 1560.867188 389.851562 1560.640625 L 382.472656 1556.378906 C 381.660156 1555.90625 380.617188 1556.1875 380.164062 1557.003906 L 367.566406 1578.84375 L 367.566406 1534.800781 C 367.566406 1530.375 363.984375 1526.773438 359.5625 1526.773438 L 287.785156 1526.773438 C 283.363281 1526.773438 279.765625 1530.375 279.765625 1534.800781 L 279.765625 1631.183594 C 279.765625 1635.609375 283.363281 1639.207031 287.785156 1639.207031 L 359.5625 1639.207031 C 363.984375 1639.207031 367.566406 1635.609375 367.566406 1631.183594 L 367.566406 1602.710938 L 390.464844 1562.96875 C 390.691406 1562.578125 390.75 1562.109375 390.632812 1561.675781 Z M 334.949219 1621.238281 C 334.949219 1622.179688 334.195312 1622.941406 333.253906 1622.941406 L 316.375 1622.941406 C 315.433594 1622.941406 314.675781 1622.179688 314.675781 1621.238281 C 314.675781 1620.300781 315.433594 1619.535156 316.375 1619.535156 L 333.253906 1619.535156 C 334.195312 1619.535156 334.949219 1620.300781 334.949219 1621.238281 Z M 344.125 1612.414062 C 344.125 1613.355469 343.367188 1614.117188 342.425781 1614.117188 L 316.375 1614.117188 C 315.433594 1614.117188 314.675781 1613.355469 314.675781 1612.414062 C 314.675781 1611.472656 315.433594 1610.710938 316.375 1610.710938 L 342.425781 1610.710938 C 343.367188 1610.710938 344.125 1611.472656 344.125 1612.414062 Z M 314.675781 1594.925781 C 314.675781 1593.980469 315.433594 1593.222656 316.375 1593.222656 L 333.253906 1593.222656 C 334.195312 1593.222656 334.949219 1593.980469 334.949219 1594.925781 C 334.949219 1595.863281 334.195312 1596.628906 333.253906 1596.628906 L 316.375 1596.628906 C 315.433594 1596.628906 314.675781 1595.863281 314.675781 1594.925781 Z M 314.675781 1586.097656 C 314.675781 1585.160156 315.433594 1584.394531 316.375 1584.394531 L 350.128906 1584.394531 C 351.070312 1584.394531 351.828125 1585.15625 351.828125 1586.097656 C 351.828125 1587.039062 351.070312 1587.800781 350.128906 1587.800781 L 316.375 1587.800781 C 315.433594 1587.800781 314.675781 1587.039062 314.675781 1586.097656 Z M 314.675781 1568.605469 C 314.675781 1567.667969 315.433594 1566.902344 316.375 1566.902344 L 333.253906 1566.902344 C 334.195312 1566.902344 334.949219 1567.667969 334.949219 1568.605469 C 334.949219 1569.550781 334.195312 1570.3125 333.253906 1570.3125 L 316.375 1570.3125 C 315.433594 1570.3125 314.675781 1569.550781 314.675781 1568.605469 Z M 314.675781 1559.78125 C 314.675781 1558.839844 315.433594 1558.078125 316.375 1558.078125 L 350.128906 1558.078125 C 351.070312 1558.078125 351.828125 1558.839844 351.828125 1559.78125 C 351.828125 1560.722656 351.070312 1561.484375 350.128906 1561.484375 L 316.375 1561.484375 C 315.433594 1561.484375 314.675781 1560.722656 314.675781 1559.78125 Z M 295.089844 1591.828125 C 294.445312 1591.144531 294.476562 1590.066406 295.160156 1589.421875 C 295.84375 1588.777344 296.914062 1588.808594 297.554688 1589.492188 L 298.5 1590.492188 L 301.324219 1586.867188 C 301.894531 1586.125 302.964844 1585.992188 303.707031 1586.566406 C 304.449219 1587.148438 304.574219 1588.21875 304.003906 1588.960938 L 299.96875 1594.15625 C 299.339844 1594.96875 298.113281 1595.042969 297.398438 1594.277344 Z M 294.890625 1565.351562 C 294.246094 1564.667969 294.277344 1563.59375 294.960938 1562.945312 C 295.644531 1562.300781 296.714844 1562.332031 297.355469 1563.015625 L 298.296875 1564.015625 L 301.125 1560.390625 C 301.695312 1559.648438 302.765625 1559.515625 303.507812 1560.09375 C 304.246094 1560.671875 304.375 1561.742188 303.804688 1562.484375 L 299.769531 1567.675781 C 299.132812 1568.5 297.910156 1568.5625 297.199219 1567.800781 Z M 305.6875 1570.402344 L 293.304688 1570.402344 L 293.304688 1557.988281 L 305.6875 1557.988281 Z M 307.386719 1554.582031 C 308.328125 1554.582031 309.085938 1555.34375 309.085938 1556.285156 L 309.085938 1572.105469 C 309.085938 1573.042969 308.328125 1573.808594 307.386719 1573.808594 L 291.605469 1573.808594 C 290.664062 1573.808594 289.894531 1573.042969 289.894531 1572.105469 L 289.894531 1556.285156 C 289.894531 1555.34375 290.664062 1554.582031 291.605469 1554.582031 Z M 305.6875 1596.71875 L 293.304688 1596.71875 L 293.304688 1584.304688 L 305.6875 1584.304688 Z M 307.386719 1580.898438 C 308.328125 1580.898438 309.085938 1581.660156 309.085938 1582.601562 L 309.085938 1598.417969 C 309.085938 1599.359375 308.328125 1600.125 307.386719 1600.125 L 291.605469 1600.125 C 290.664062 1600.125 289.894531 1599.359375 289.894531 1598.417969 L 289.894531 1582.601562 C 289.894531 1581.660156 290.664062 1580.898438 291.605469 1580.898438 Z M 305.6875 1623.03125 L 293.304688 1623.03125 L 293.304688 1610.621094 L 305.6875 1610.621094 Z M 307.386719 1607.210938 C 308.328125 1607.210938 309.085938 1607.976562 309.085938 1608.917969 L 309.085938 1624.734375 C 309.085938 1625.679688 308.328125 1626.4375 307.386719 1626.4375 L 291.605469 1626.4375 C 290.664062 1626.4375 289.894531 1625.679688 289.894531 1624.734375 L 289.894531 1608.917969 C 289.894531 1607.976562 290.664062 1607.210938 291.605469 1607.210938 Z M 307.386719 1607.210938 " fill-opacity="1" fill-rule="evenodd"/>

</g>
</svg>