<svg xmlns="http://www.w3.org/2000/svg" viewBox="0 0 54.695312 54.796875">
<g transform="translate(-140.0,-1573.0)">
<path fill="#000000" d="M 167.195312 1627.949219 C 163.351562 1627.949219 159.640625 1627.160156 156.15625 1625.609375 C 152.792969 1624.105469 149.8125 1621.972656 147.300781 1619.261719 C 144.851562 1616.617188 142.976562 1613.566406 141.738281 1610.199219 C 141.109375 1608.492188 140.652344 1606.714844 140.378906 1604.910156 C 140.175781 1603.570312 140.074219 1602.199219 140.074219 1600.828125 C 140.074219 1600.097656 140.105469 1599.363281 140.160156 1598.636719 C 140.21875 1597.949219 140.300781 1597.25 140.40625 1596.570312 C 141.132812 1591.96875 143.058594 1587.601562 145.96875 1583.945312 C 148.957031 1580.195312 152.886719 1577.292969 157.332031 1575.558594 C 160.472656 1574.332031 163.792969 1573.707031 167.195312 1573.707031 C 168.164062 1573.707031 169.136719 1573.757812 170.085938 1573.859375 C 170.308594 1573.882812 170.539062 1573.910156 170.773438 1573.941406 C 172.765625 1574.203125 174.726562 1574.691406 176.605469 1575.386719 C 179.167969 1576.332031 181.566406 1577.660156 183.738281 1579.335938 C 185.886719 1580.988281 187.769531 1582.953125 189.339844 1585.164062 C 192.59375 1589.761719 194.316406 1595.175781 194.316406 1600.828125 C 194.316406 1604.488281 193.597656 1608.039062 192.183594 1611.386719 C 190.816406 1614.613281 188.863281 1617.515625 186.371094 1620.003906 C 183.882812 1622.496094 180.984375 1624.449219 177.753906 1625.816406 C 174.410156 1627.230469 170.855469 1627.949219 167.195312 1627.949219 Z M 167.195312 1577.5 C 164.265625 1577.5 161.414062 1578.035156 158.710938 1579.089844 C 154.886719 1580.582031 151.507812 1583.078125 148.933594 1586.304688 C 146.429688 1589.453125 144.777344 1593.207031 144.152344 1597.160156 C 144.058594 1597.75 143.988281 1598.347656 143.941406 1598.941406 C 143.890625 1599.566406 143.863281 1600.199219 143.863281 1600.828125 C 143.863281 1602.007812 143.953125 1603.191406 144.128906 1604.34375 C 144.363281 1605.894531 144.753906 1607.421875 145.292969 1608.890625 C 146.359375 1611.785156 147.972656 1614.40625 150.082031 1616.683594 C 154.484375 1621.433594 160.71875 1624.15625 167.195312 1624.15625 C 180.058594 1624.15625 190.523438 1613.691406 190.523438 1600.828125 C 190.523438 1591.105469 184.402344 1582.3125 175.289062 1578.941406 C 173.675781 1578.34375 171.988281 1577.925781 170.273438 1577.699219 C 170.074219 1577.671875 169.875 1577.648438 169.683594 1577.628906 C 168.867188 1577.542969 168.03125 1577.5 167.195312 1577.5 Z M 163.6875 1617.636719 C 162.101562 1617.636719 160.5625 1617.0625 159.363281 1616.023438 L 151.246094 1608.988281 C 150.027344 1607.933594 149.238281 1606.472656 149.027344 1604.878906 C 148.773438 1603.003906 149.339844 1601.105469 150.578125 1599.671875 C 152.964844 1596.921875 157.144531 1596.621094 159.894531 1599.007812 L 163.203125 1601.875 L 173.996094 1590.339844 C 176.476562 1587.679688 180.664062 1587.535156 183.328125 1590.019531 C 185.988281 1592.503906 186.132812 1596.691406 183.648438 1599.351562 L 168.515625 1615.539062 C 167.269531 1616.871094 165.511719 1617.636719 163.6875 1617.636719 Z M 155.574219 1601.183594 C 154.785156 1601.183594 154 1601.511719 153.445312 1602.15625 C 152.914062 1602.765625 152.675781 1603.574219 152.78125 1604.375 C 152.875 1605.054688 153.210938 1605.675781 153.726562 1606.125 L 161.84375 1613.160156 C 162.355469 1613.601562 163.011719 1613.847656 163.6875 1613.847656 C 164.476562 1613.847656 165.207031 1613.53125 165.746094 1612.953125 L 180.878906 1596.765625 C 181.9375 1595.628906 181.875 1593.847656 180.742188 1592.789062 C 179.605469 1591.730469 177.824219 1591.792969 176.761719 1592.925781 L 164.726562 1605.796875 C 164.03125 1606.539062 162.871094 1606.601562 162.101562 1605.933594 L 157.414062 1601.871094 C 156.882812 1601.410156 156.226562 1601.183594 155.574219 1601.183594 Z M 182.261719 1598.058594 Z M 182.261719 1598.058594 " fill-opacity="1" fill-rule="nonzero"/>

</g>
</svg>