<svg xmlns="http://www.w3.org/2000/svg" viewBox="0 0 58.492188 106.87890599999992">
<g transform="translate(-93.507812,-1513.121094)">
<path fill="#000000" d="M 148.691406 1619.867188 L 101.796875 1619.867188 C 97.230469 1619.867188 93.511719 1616.152344 93.511719 1611.582031 L 93.511719 1521.40625 C 93.511719 1516.835938 97.230469 1513.121094 101.796875 1513.121094 L 149.808594 1513.121094 C 150.851562 1513.121094 151.703125 1513.96875 151.703125 1515.015625 C 151.703125 1516.0625 150.851562 1516.910156 149.808594 1516.910156 L 101.796875 1516.910156 C 99.320312 1516.910156 97.304688 1518.925781 97.304688 1521.40625 L 97.304688 1611.582031 C 97.304688 1614.0625 99.320312 1616.078125 101.796875 1616.078125 L 148.691406 1616.078125 C 149.738281 1616.078125 150.585938 1616.925781 150.585938 1617.972656 C 150.585938 1619.019531 149.738281 1619.867188 148.691406 1619.867188 Z M 148.691406 1619.867188 " fill-opacity="1" fill-rule="nonzero"/>

</g>
</svg>