<svg xmlns="http://www.w3.org/2000/svg" viewBox="0 0 85.44531199999994 108.67968699999983">
<g transform="translate(-844.65625,-1526.777344)">
<path fill="#020202" d="M 922.617188 1543.410156 C 923.464844 1543.410156 924.152344 1544.097656 924.152344 1544.945312 C 924.152344 1545.792969 923.464844 1546.484375 922.617188 1546.484375 L 916.082031 1546.484375 C 915.234375 1546.484375 914.546875 1545.792969 914.546875 1544.945312 C 914.546875 1544.097656 915.234375 1543.410156 916.082031 1543.410156 Z M 852.191406 1546.484375 C 851.34375 1546.484375 850.652344 1545.792969 850.652344 1544.945312 C 850.652344 1544.097656 851.34375 1543.410156 852.191406 1543.410156 L 858.722656 1543.410156 C 859.570312 1543.410156 860.257812 1544.097656 860.257812 1544.945312 C 860.257812 1545.792969 859.570312 1546.484375 858.722656 1546.484375 Z M 916.0625 1559.851562 C 916.660156 1560.449219 916.660156 1561.421875 916.0625 1562.023438 C 915.460938 1562.625 914.488281 1562.625 913.886719 1562.023438 L 909.269531 1557.40625 C 908.671875 1556.804688 908.671875 1555.832031 909.269531 1555.230469 C 909.871094 1554.632812 910.84375 1554.632812 911.441406 1555.230469 Z M 860.917969 1562.023438 C 860.316406 1562.625 859.34375 1562.625 858.746094 1562.023438 C 858.144531 1561.421875 858.144531 1560.449219 858.746094 1559.851562 L 863.363281 1555.230469 C 863.960938 1554.632812 864.9375 1554.632812 865.535156 1555.230469 C 866.136719 1555.832031 866.136719 1556.804688 865.535156 1557.40625 Z M 913.886719 1527.867188 C 914.488281 1527.269531 915.460938 1527.269531 916.0625 1527.867188 C 916.660156 1528.46875 916.660156 1529.441406 916.0625 1530.042969 L 911.441406 1534.660156 C 910.84375 1535.257812 909.871094 1535.257812 909.269531 1534.660156 C 908.671875 1534.058594 908.671875 1533.085938 909.269531 1532.488281 Z M 858.746094 1530.042969 C 858.144531 1529.441406 858.144531 1528.46875 858.746094 1527.867188 C 859.34375 1527.269531 860.316406 1527.269531 860.917969 1527.867188 L 865.535156 1532.488281 C 866.136719 1533.085938 866.136719 1534.058594 865.535156 1534.660156 C 864.9375 1535.257812 863.960938 1535.257812 863.363281 1534.660156 Z M 888.78125 1527.667969 L 893.816406 1537.871094 L 905.074219 1539.507812 C 905.652344 1539.589844 906.132812 1539.996094 906.316406 1540.554688 C 906.496094 1541.109375 906.34375 1541.71875 905.925781 1542.128906 L 897.78125 1550.070312 L 899.703125 1561.28125 C 899.800781 1561.859375 899.566406 1562.441406 899.089844 1562.785156 C 898.617188 1563.128906 897.992188 1563.175781 897.472656 1562.902344 L 887.402344 1557.609375 L 877.332031 1562.902344 C 876.816406 1563.175781 876.1875 1563.128906 875.714844 1562.785156 C 875.242188 1562.441406 875.003906 1561.859375 875.105469 1561.28125 L 877.027344 1550.070312 L 868.878906 1542.128906 C 868.460938 1541.71875 868.308594 1541.109375 868.492188 1540.554688 C 868.671875 1539.996094 869.152344 1539.589844 869.730469 1539.507812 L 880.988281 1537.871094 L 886.023438 1527.667969 C 886.285156 1527.144531 886.816406 1526.8125 887.402344 1526.8125 C 887.988281 1526.8125 888.523438 1527.144531 888.78125 1527.667969 Z M 887.402344 1531.820312 L 883.390625 1539.957031 C 883.164062 1540.410156 882.730469 1540.722656 882.230469 1540.796875 L 873.253906 1542.101562 L 879.75 1548.433594 C 880.113281 1548.785156 880.277344 1549.292969 880.191406 1549.792969 L 878.660156 1558.730469 L 886.6875 1554.511719 C 887.136719 1554.277344 887.671875 1554.277344 888.117188 1554.511719 L 896.148438 1558.730469 L 894.613281 1549.792969 C 894.527344 1549.292969 894.695312 1548.785156 895.054688 1548.433594 L 901.550781 1542.101562 L 892.574219 1540.796875 C 892.074219 1540.722656 891.640625 1540.410156 891.417969 1539.957031 Z M 928.601562 1635.269531 L 846.203125 1635.269531 C 845.355469 1635.269531 844.667969 1634.582031 844.667969 1633.730469 L 844.667969 1587.929688 C 844.667969 1586.109375 846.140625 1584.636719 847.960938 1584.636719 L 872.132812 1584.636719 L 872.132812 1572.304688 C 872.132812 1571.433594 872.480469 1570.59375 873.097656 1569.976562 C 873.714844 1569.359375 874.554688 1569.011719 875.425781 1569.011719 L 899.378906 1569.011719 C 900.253906 1569.011719 901.089844 1569.359375 901.707031 1569.976562 C 902.324219 1570.59375 902.671875 1571.433594 902.671875 1572.304688 L 902.671875 1601.4375 L 926.847656 1601.4375 C 927.71875 1601.4375 928.558594 1601.785156 929.175781 1602.402344 C 929.792969 1603.019531 930.140625 1603.855469 930.140625 1604.730469 L 930.140625 1633.730469 C 930.140625 1634.582031 929.449219 1635.269531 928.601562 1635.269531 Z M 899.597656 1632.195312 L 899.597656 1572.304688 C 899.597656 1572.246094 899.574219 1572.191406 899.535156 1572.152344 C 899.492188 1572.109375 899.4375 1572.085938 899.378906 1572.085938 L 875.425781 1572.085938 C 875.367188 1572.085938 875.3125 1572.109375 875.269531 1572.152344 C 875.230469 1572.191406 875.207031 1572.246094 875.207031 1572.304688 L 875.207031 1632.195312 C 875.207031 1632.195312 899.597656 1632.195312 899.597656 1632.195312 Z M 872.132812 1587.710938 L 847.960938 1587.710938 C 847.839844 1587.710938 847.742188 1587.808594 847.742188 1587.929688 C 847.742188 1587.945312 847.742188 1632.195312 847.742188 1632.195312 L 872.132812 1632.195312 Z M 902.671875 1632.195312 L 927.066406 1632.195312 L 927.066406 1604.730469 C 927.066406 1604.671875 927.042969 1604.617188 927 1604.574219 C 926.960938 1604.535156 926.902344 1604.511719 926.847656 1604.511719 L 902.671875 1604.511719 Z M 902.671875 1632.195312 " fill-opacity="1" fill-rule="evenodd"/>

</g>
</svg>