<svg xmlns="http://www.w3.org/2000/svg" viewBox="0 0 136.85546899999997 142.390625">
<g transform="translate(-1002.144531,-1493.0)">
<path fill="#000000" d="M 1097.550781 1576.800781 C 1096.578125 1575.75 1095.207031 1575.148438 1093.777344 1575.148438 L 1092.617188 1575.148438 C 1091.761719 1568.816406 1087.367188 1563.605469 1081.496094 1561.597656 C 1085.9375 1558.285156 1088.835938 1553.003906 1088.835938 1547.042969 C 1088.835938 1537.035156 1080.710938 1528.894531 1070.722656 1528.894531 C 1060.734375 1528.894531 1052.609375 1537.035156 1052.609375 1547.042969 C 1052.609375 1553.003906 1055.503906 1558.285156 1059.949219 1561.597656 C 1054.074219 1563.605469 1049.679688 1568.816406 1048.824219 1575.148438 L 1047.664062 1575.148438 C 1046.234375 1575.148438 1044.863281 1575.75 1043.894531 1576.800781 C 1042.925781 1577.851562 1042.433594 1579.269531 1042.550781 1580.691406 L 1044.390625 1603.820312 C 1044.601562 1606.472656 1046.847656 1608.550781 1049.503906 1608.550781 L 1091.9375 1608.550781 C 1094.59375 1608.550781 1096.839844 1606.472656 1097.054688 1603.820312 L 1098.894531 1580.691406 C 1099.007812 1579.269531 1098.515625 1577.851562 1097.550781 1576.800781 Z M 1057.09375 1547.042969 C 1057.09375 1539.511719 1063.207031 1533.390625 1070.722656 1533.390625 C 1078.234375 1533.390625 1084.347656 1539.511719 1084.347656 1547.042969 C 1084.347656 1554.570312 1078.234375 1560.695312 1070.722656 1560.695312 C 1063.207031 1560.695312 1057.09375 1554.570312 1057.09375 1547.042969 Z M 1065.296875 1565.1875 L 1076.144531 1565.1875 C 1082.082031 1565.1875 1087.019531 1569.492188 1088.074219 1575.148438 L 1053.367188 1575.148438 C 1054.425781 1569.492188 1059.359375 1565.1875 1065.296875 1565.1875 Z M 1092.578125 1603.464844 C 1092.550781 1603.796875 1092.273438 1604.058594 1091.9375 1604.058594 L 1049.503906 1604.058594 C 1049.171875 1604.058594 1048.890625 1603.796875 1048.863281 1603.464844 L 1047.023438 1580.335938 C 1047.003906 1580.09375 1047.121094 1579.925781 1047.191406 1579.851562 C 1047.261719 1579.773438 1047.417969 1579.644531 1047.664062 1579.644531 L 1093.777344 1579.644531 C 1094.023438 1579.644531 1094.183594 1579.773438 1094.253906 1579.851562 C 1094.320312 1579.925781 1094.4375 1580.09375 1094.417969 1580.335938 Z M 1075.953125 1594.191406 C 1075.953125 1595.429688 1074.949219 1596.4375 1073.710938 1596.4375 L 1067.730469 1596.4375 C 1066.492188 1596.4375 1065.488281 1595.429688 1065.488281 1594.191406 C 1065.488281 1592.949219 1066.492188 1591.945312 1067.730469 1591.945312 L 1073.710938 1591.945312 C 1074.949219 1591.945312 1075.953125 1592.949219 1075.953125 1594.191406 Z M 1130.109375 1543.371094 C 1131.421875 1542.886719 1132.46875 1541.921875 1133.050781 1540.648438 L 1138.070312 1529.769531 C 1139.277344 1527.144531 1138.128906 1524.023438 1135.515625 1522.8125 L 1071.660156 1493.257812 C 1071.066406 1492.980469 1070.375 1492.980469 1069.78125 1493.257812 L 1005.929688 1522.8125 C 1003.3125 1524.023438 1002.164062 1527.144531 1003.371094 1529.769531 L 1008.390625 1540.648438 C 1008.972656 1541.921875 1010.019531 1542.886719 1011.335938 1543.371094 C 1011.921875 1543.589844 1012.53125 1543.695312 1013.140625 1543.695312 C 1013.652344 1543.695312 1014.152344 1543.59375 1014.644531 1543.441406 L 1014.644531 1615.914062 L 1010.90625 1615.914062 C 1008.023438 1615.914062 1005.675781 1618.265625 1005.675781 1621.15625 L 1005.675781 1630.144531 C 1005.675781 1633.035156 1008.023438 1635.390625 1010.90625 1635.390625 L 1130.535156 1635.390625 C 1133.417969 1635.390625 1135.769531 1633.035156 1135.769531 1630.144531 L 1135.769531 1621.15625 C 1135.769531 1618.265625 1133.417969 1615.914062 1130.535156 1615.914062 L 1126.796875 1615.914062 L 1126.796875 1543.449219 C 1127.882812 1543.78125 1129.03125 1543.769531 1130.109375 1543.371094 Z M 1012.882812 1539.152344 C 1012.773438 1539.113281 1012.574219 1539.007812 1012.460938 1538.765625 L 1007.445312 1527.886719 C 1007.273438 1527.511719 1007.433594 1527.0625 1007.808594 1526.890625 L 1070.722656 1497.769531 L 1133.632812 1526.890625 C 1134.007812 1527.0625 1134.171875 1527.511719 1133.996094 1527.886719 L 1128.980469 1538.765625 C 1128.867188 1539.007812 1128.667969 1539.113281 1128.558594 1539.152344 C 1128.429688 1539.203125 1128.214844 1539.234375 1127.992188 1539.128906 L 1127.988281 1539.128906 L 1071.660156 1513.058594 C 1071.363281 1512.921875 1071.042969 1512.851562 1070.722656 1512.851562 C 1070.398438 1512.851562 1070.078125 1512.921875 1069.78125 1513.058594 L 1013.453125 1539.128906 C 1013.222656 1539.234375 1013.011719 1539.203125 1012.882812 1539.152344 Z M 1131.28125 1621.15625 L 1131.28125 1630.144531 C 1131.28125 1630.558594 1130.945312 1630.894531 1130.535156 1630.894531 L 1010.90625 1630.894531 C 1010.496094 1630.894531 1010.160156 1630.558594 1010.160156 1630.144531 L 1010.160156 1621.15625 C 1010.160156 1620.746094 1010.496094 1620.40625 1010.90625 1620.40625 L 1130.535156 1620.40625 C 1130.945312 1620.40625 1131.28125 1620.746094 1131.28125 1621.15625 Z M 1019.132812 1615.914062 L 1019.132812 1541.453125 L 1070.722656 1517.574219 L 1122.308594 1541.453125 L 1122.308594 1615.914062 Z M 1019.132812 1615.914062 " fill-opacity="1" fill-rule="nonzero"/>

</g>
</svg>