<svg xmlns="http://www.w3.org/2000/svg" viewBox="0 0 96.69140599999992 124.42187599999988">
<g transform="translate(-1039.703125,-1327.351562)">
<path fill="#000000" d="M 1136.132812 1420.386719 C 1133.753906 1407.570312 1116.925781 1400.976562 1102.078125 1395.160156 C 1092.386719 1391.363281 1082.367188 1387.4375 1082.375 1383.285156 C 1082.378906 1381.808594 1083.671875 1379.230469 1089.8125 1375.316406 C 1095.769531 1371.519531 1105.082031 1367.191406 1118.277344 1362.082031 C 1119.070312 1361.777344 1119.53125 1360.949219 1119.375 1360.117188 C 1119.21875 1359.28125 1118.492188 1358.675781 1117.644531 1358.675781 L 1100.796875 1358.675781 L 1100.796875 1347.070312 C 1108.972656 1344.28125 1111.214844 1345.0625 1114.261719 1346.125 C 1116.054688 1346.753906 1118.089844 1347.464844 1121.382812 1347.710938 C 1121.429688 1347.714844 1121.472656 1347.71875 1121.515625 1347.71875 C 1121.960938 1347.71875 1122.386719 1347.550781 1122.714844 1347.246094 C 1123.074219 1346.914062 1123.277344 1346.445312 1123.277344 1345.953125 L 1123.277344 1332.890625 C 1123.277344 1331.96875 1122.566406 1331.199219 1121.648438 1331.132812 C 1118.816406 1330.917969 1117.09375 1330.316406 1115.425781 1329.734375 C 1111.644531 1328.414062 1108.78125 1327.710938 1100.796875 1330.296875 L 1100.796875 1329.148438 C 1100.796875 1328.175781 1100.007812 1327.386719 1099.035156 1327.386719 C 1098.0625 1327.386719 1097.273438 1328.175781 1097.273438 1329.148438 L 1097.273438 1358.675781 L 1089.359375 1358.675781 C 1089.15625 1358.675781 1088.953125 1358.710938 1088.761719 1358.78125 C 1067.652344 1366.390625 1055.777344 1374.3125 1052.453125 1383.003906 C 1050.898438 1387.0625 1051.25 1391.242188 1053.496094 1395.417969 C 1053.539062 1395.496094 1053.585938 1395.574219 1053.640625 1395.644531 C 1061.203125 1405.667969 1069.894531 1411.859375 1076.238281 1416.378906 C 1081.175781 1419.898438 1085.078125 1422.679688 1084.839844 1424.820312 C 1084.632812 1426.695312 1081.429688 1429.335938 1075.324219 1432.671875 C 1068.808594 1436.230469 1058.480469 1440.917969 1040.792969 1448.351562 C 1040.019531 1448.675781 1039.582031 1449.5 1039.746094 1450.324219 C 1039.914062 1451.148438 1040.636719 1451.738281 1041.476562 1451.738281 L 1117.914062 1451.738281 C 1118.355469 1451.738281 1118.777344 1451.574219 1119.101562 1451.277344 C 1132.199219 1439.304688 1137.769531 1429.199219 1136.132812 1420.386719 Z M 1114.265625 1333.0625 C 1115.742188 1333.578125 1117.382812 1334.152344 1119.753906 1334.476562 L 1119.753906 1343.976562 C 1117.976562 1343.691406 1116.683594 1343.238281 1115.425781 1342.800781 C 1111.640625 1341.476562 1108.777344 1340.773438 1100.796875 1343.355469 L 1100.796875 1334.011719 C 1108.972656 1331.21875 1111.21875 1331.996094 1114.265625 1333.0625 Z M 1117.226562 1448.214844 L 1050.152344 1448.214844 C 1079.632812 1435.605469 1087.746094 1430.574219 1088.34375 1425.210938 C 1088.808594 1421.011719 1084.621094 1418.027344 1078.28125 1413.507812 C 1072.148438 1409.140625 1063.753906 1403.160156 1056.535156 1393.632812 C 1054.828125 1390.394531 1054.566406 1387.328125 1055.742188 1384.261719 C 1058.621094 1376.734375 1070.035156 1369.3125 1089.667969 1362.203125 L 1108.503906 1362.203125 C 1099.460938 1365.964844 1092.683594 1369.304688 1087.917969 1372.34375 C 1081.742188 1376.28125 1078.859375 1379.753906 1078.851562 1383.277344 C 1078.839844 1389.839844 1088.527344 1393.636719 1100.792969 1398.441406 C 1114.785156 1403.921875 1130.648438 1410.136719 1132.667969 1421.03125 C 1134.023438 1428.339844 1128.832031 1437.484375 1117.226562 1448.214844 Z M 1084.671875 1369.378906 C 1084.203125 1368.515625 1084.5 1367.460938 1085.40625 1366.960938 L 1088.460938 1365.285156 C 1090.433594 1364.207031 1092.3125 1367.195312 1090.027344 1368.445312 L 1087.070312 1370.074219 C 1086.21875 1370.535156 1085.144531 1370.230469 1084.671875 1369.378906 Z M 1077.011719 1398.929688 C 1076.484375 1399.75 1075.394531 1399.984375 1074.582031 1399.457031 L 1071.585938 1397.332031 C 1070.816406 1396.730469 1070.671875 1395.625 1071.273438 1394.855469 C 1071.863281 1394.089844 1072.96875 1393.949219 1073.738281 1394.539062 L 1076.484375 1396.496094 C 1077.304688 1397.015625 1077.539062 1398.109375 1077.011719 1398.929688 Z M 1089.53125 1405.402344 C 1089.101562 1406.269531 1088.046875 1406.636719 1087.167969 1406.207031 L 1084.003906 1404.644531 C 1081.992188 1403.636719 1083.367188 1400.390625 1085.699219 1401.546875 L 1088.722656 1403.039062 C 1089.601562 1403.472656 1089.957031 1404.53125 1089.53125 1405.402344 Z M 1078.566406 1372.898438 C 1079.101562 1373.734375 1078.875 1374.796875 1077.976562 1375.375 L 1075.222656 1377.25 C 1074.4375 1377.828125 1073.332031 1377.65625 1072.753906 1376.871094 C 1072.164062 1376.066406 1072.371094 1374.976562 1073.167969 1374.390625 L 1076.136719 1372.363281 C 1076.957031 1371.84375 1078.046875 1372.078125 1078.566406 1372.898438 Z M 1069.210938 1384.5 C 1068.953125 1385.355469 1068.8125 1386.285156 1068.867188 1387.183594 C 1069.027344 1389.472656 1065.460938 1389.886719 1065.34375 1387.226562 C 1065.289062 1385.90625 1065.488281 1384.585938 1065.894531 1383.324219 C 1066.542969 1381.183594 1069.980469 1381.976562 1069.210938 1384.5 Z M 1111.832031 1431.996094 C 1111.367188 1433.15625 1110.804688 1434.328125 1110.164062 1435.40625 C 1109.664062 1436.234375 1108.578125 1436.503906 1107.746094 1436.003906 C 1106.902344 1435.5 1106.640625 1434.457031 1107.167969 1433.550781 C 1107.714844 1432.601562 1108.164062 1431.6875 1108.570312 1430.667969 C 1108.9375 1429.769531 1109.960938 1429.332031 1110.867188 1429.703125 C 1111.765625 1430.066406 1112.203125 1431.097656 1111.832031 1431.996094 Z M 1099.40625 1412.742188 L 1096.476562 1410.996094 C 1094.507812 1409.882812 1096.078125 1406.722656 1098.324219 1407.992188 L 1101.320312 1409.78125 C 1102.140625 1410.304688 1102.375 1411.394531 1101.855469 1412.214844 C 1101.324219 1413.035156 1100.257812 1413.277344 1099.40625 1412.742188 Z M 1111.84375 1420.351562 C 1112.230469 1421.242188 1111.824219 1422.285156 1110.933594 1422.675781 C 1110.046875 1423.0625 1109.007812 1422.65625 1108.613281 1421.769531 C 1108.214844 1420.855469 1107.609375 1419.914062 1106.996094 1419.128906 C 1106.402344 1418.359375 1106.554688 1417.253906 1107.324219 1416.660156 C 1108.09375 1416.066406 1109.199219 1416.21875 1109.792969 1416.988281 C 1110.589844 1418.03125 1111.3125 1419.152344 1111.84375 1420.351562 Z M 1103.351562 1441.515625 C 1104.042969 1442.191406 1104.050781 1443.3125 1103.367188 1444.003906 L 1100.796875 1446.515625 C 1100.085938 1447.179688 1098.972656 1447.144531 1098.308594 1446.429688 C 1097.644531 1445.722656 1097.679688 1444.601562 1098.394531 1443.941406 L 1100.863281 1441.527344 C 1101.539062 1440.835938 1102.660156 1440.828125 1103.351562 1441.515625 Z M 1103.351562 1441.515625 " fill-opacity="1" fill-rule="nonzero"/>

</g>
</svg>