<svg xmlns="http://www.w3.org/2000/svg" xmlns:xlink="http://www.w3.org/1999/xlink" width="512" zoomAndPan="magnify" viewBox="58.4 57.6 266.6 268.8" height="512" preserveAspectRatio="xMidYMid meet" version="1.0"><defs><clipPath id="65394d303a"><path d="M 217 195 L 262 195 L 262 324.335938 L 217 324.335938 Z M 217 195 " clip-rule="nonzero"/></clipPath><clipPath id="695128aa7a"><path d="M 157 182 L 323.078125 182 L 323.078125 202 L 157 202 Z M 157 182 " clip-rule="nonzero"/></clipPath><clipPath id="c870ada0cc"><path d="M 60.578125 175 L 151 175 L 151 251 L 60.578125 251 Z M 60.578125 175 " clip-rule="nonzero"/></clipPath><clipPath id="2256968eae"><path d="M 95 244 L 102 244 L 102 324.335938 L 95 324.335938 Z M 95 244 " clip-rule="nonzero"/></clipPath><clipPath id="29e2f7d828"><path d="M 81 318 L 299 318 L 299 324.335938 L 81 324.335938 Z M 81 318 " clip-rule="nonzero"/></clipPath><clipPath id="ca58805eda"><path d="M 74 59.585938 L 129 59.585938 L 129 115 L 74 115 Z M 74 59.585938 " clip-rule="nonzero"/></clipPath></defs><path fill="#000000" d="M 282.613281 134.613281 C 263.234375 134.613281 247.417969 118.785156 247.417969 99.382812 C 247.417969 79.671875 263.234375 63.6875 282.613281 63.6875 C 292.226562 63.6875 301.0625 67.414062 307.886719 74.085938 C 314.550781 80.914062 318.273438 89.761719 318.273438 99.382812 C 318.273438 118.785156 302.304688 134.613281 282.613281 134.613281 Z M 282.613281 69.894531 C 266.644531 69.894531 253.621094 83.089844 253.621094 99.382812 C 253.621094 115.371094 266.644531 128.40625 282.613281 128.40625 C 298.738281 128.40625 312.070312 115.371094 312.070312 99.382812 C 312.070312 83.089844 298.738281 69.894531 282.613281 69.894531 Z M 282.613281 69.894531 " fill-opacity="1" fill-rule="evenodd"/><g clip-path="url(#65394d303a)"><path fill="#000000" d="M 258.890625 324.113281 L 220.597656 324.113281 C 218.890625 324.113281 217.496094 322.71875 217.496094 321.011719 L 217.496094 198.710938 C 217.496094 197.003906 218.890625 195.609375 220.597656 195.609375 L 258.890625 195.609375 C 260.597656 195.609375 261.992188 197.003906 261.992188 198.710938 L 261.992188 321.011719 C 261.992188 322.71875 260.597656 324.113281 258.890625 324.113281 Z M 223.699219 317.90625 L 255.792969 317.90625 L 255.792969 201.816406 L 223.699219 201.816406 Z M 223.699219 317.90625 " fill-opacity="1" fill-rule="evenodd"/></g><g clip-path="url(#695128aa7a)"><path fill="#000000" d="M 319.980469 201.816406 L 160.132812 201.816406 C 158.425781 201.816406 157.03125 200.417969 157.03125 198.710938 L 157.03125 185.675781 C 157.03125 183.96875 158.425781 182.570312 160.132812 182.570312 L 319.980469 182.570312 C 321.683594 182.570312 323.078125 183.96875 323.078125 185.675781 L 323.078125 198.710938 C 323.078125 200.417969 321.683594 201.816406 319.980469 201.816406 Z M 163.230469 195.609375 L 316.878906 195.609375 L 316.878906 188.78125 L 163.230469 188.78125 Z M 163.230469 195.609375 " fill-opacity="1" fill-rule="evenodd"/></g><path fill="#000000" d="M 291.296875 168.136719 L 251.605469 168.136719 C 249.898438 168.136719 248.503906 166.742188 248.503906 165.035156 L 248.503906 143.925781 C 248.503906 142.21875 249.898438 140.824219 251.605469 140.824219 L 291.296875 140.824219 C 298.738281 140.824219 304.785156 146.71875 304.785156 154.167969 C 304.785156 162.085938 298.894531 168.136719 291.296875 168.136719 Z M 254.707031 161.929688 L 291.296875 161.929688 C 295.480469 161.929688 298.582031 158.515625 298.582031 154.167969 C 298.582031 150.132812 295.328125 147.03125 291.296875 147.03125 L 254.707031 147.03125 Z M 254.707031 161.929688 " fill-opacity="1" fill-rule="evenodd"/><path fill="#000000" d="M 302.769531 188.78125 L 251.605469 188.78125 C 249.898438 188.78125 248.503906 187.382812 248.503906 185.675781 L 248.503906 165.035156 C 248.503906 163.328125 249.898438 161.929688 251.605469 161.929688 L 302.769531 161.929688 C 310.054688 161.929688 316.101562 167.984375 316.101562 175.433594 C 316.101562 182.726562 310.054688 188.78125 302.769531 188.78125 Z M 254.707031 182.570312 L 302.769531 182.570312 C 306.644531 182.570312 309.902344 179.3125 309.902344 175.433594 C 309.902344 171.398438 306.644531 168.136719 302.769531 168.136719 L 254.707031 168.136719 Z M 254.707031 182.570312 " fill-opacity="1" fill-rule="evenodd"/><path fill="#000000" d="M 242.769531 188.78125 L 176.253906 188.78125 C 174.550781 188.78125 173.15625 187.382812 173.15625 185.675781 L 173.15625 179.46875 C 173.15625 176.363281 175.480469 173.878906 178.734375 173.878906 L 240.289062 173.878906 C 243.542969 173.878906 245.867188 176.363281 245.867188 179.46875 L 245.867188 185.675781 C 245.867188 187.382812 244.472656 188.78125 242.769531 188.78125 Z M 179.355469 182.570312 L 239.667969 182.570312 L 239.667969 180.089844 L 179.355469 180.089844 Z M 179.355469 182.570312 " fill-opacity="1" fill-rule="evenodd"/><path fill="#000000" d="M 162.765625 320.078125 C 152.84375 320.078125 144.628906 312.007812 144.628906 302.074219 L 144.628906 250.394531 L 94.550781 250.394531 C 85.710938 250.394531 78.113281 242.789062 78.113281 233.789062 L 78.113281 148.582031 C 78.113281 137.71875 87.105469 128.871094 98.269531 128.871094 L 108.039062 128.871094 C 114.859375 128.871094 121.0625 135.234375 128.039062 142.53125 C 133 147.496094 138.425781 153.238281 144.628906 157.273438 L 193.773438 157.273438 C 199.820312 157.273438 205.09375 162.550781 205.09375 168.605469 C 205.09375 174.65625 199.820312 180.089844 193.773438 180.089844 L 127.726562 180.089844 L 127.726562 218.269531 L 165.402344 218.269531 C 174.394531 218.269531 181.371094 225.40625 181.371094 234.253906 L 181.371094 302.074219 C 181.371094 312.164062 173.15625 320.078125 162.765625 320.078125 Z M 98.269531 135.082031 C 90.519531 135.082031 84.316406 141.132812 84.316406 148.582031 L 84.316406 233.789062 C 84.316406 239.375 89.121094 244.1875 94.550781 244.1875 L 147.726562 244.1875 C 149.433594 244.1875 150.828125 245.582031 150.828125 247.289062 L 150.828125 302.074219 C 150.828125 308.59375 156.253906 313.871094 162.765625 313.871094 C 169.742188 313.871094 175.171875 308.75 175.171875 302.074219 L 175.171875 234.253906 C 175.171875 228.820312 170.828125 224.476562 165.402344 224.476562 L 124.625 224.476562 C 122.765625 224.476562 121.527344 223.078125 121.527344 221.371094 L 121.527344 176.984375 C 121.527344 175.277344 122.765625 173.878906 124.625 173.878906 L 193.773438 173.878906 C 196.253906 173.878906 198.890625 171.707031 198.890625 168.605469 C 198.890625 165.65625 196.253906 163.480469 193.773438 163.480469 L 143.695312 163.480469 C 143.078125 163.480469 142.457031 163.328125 141.992188 163.015625 C 134.859375 158.515625 128.96875 152.308594 123.695312 146.875 C 117.804688 140.824219 112.222656 135.082031 108.039062 135.082031 Z M 98.269531 135.082031 " fill-opacity="1" fill-rule="evenodd"/><path fill="#000000" d="M 142.613281 180.089844 C 142.144531 180.089844 141.679688 179.933594 141.214844 179.777344 C 137.960938 178.070312 109.121094 164.101562 106.488281 162.550781 C 104.9375 161.621094 104.472656 159.757812 105.402344 158.359375 C 106.175781 156.808594 108.191406 156.34375 109.585938 157.273438 C 111.449219 158.359375 131.136719 167.984375 144.007812 174.191406 C 145.558594 174.964844 146.175781 176.675781 145.402344 178.226562 C 144.9375 179.46875 143.851562 180.089844 142.613281 180.089844 Z M 142.613281 180.089844 " fill-opacity="1" fill-rule="evenodd"/><g clip-path="url(#c870ada0cc)"><path fill="#000000" d="M 147.726562 250.394531 L 67.261719 250.394531 C 65.554688 250.394531 64.160156 248.996094 64.160156 247.445312 L 60.59375 178.691406 C 60.441406 176.984375 61.679688 175.433594 63.386719 175.433594 C 65.089844 175.277344 66.640625 176.675781 66.640625 178.382812 L 70.207031 244.1875 L 147.726562 244.1875 C 149.433594 244.1875 150.828125 245.582031 150.828125 247.289062 C 150.828125 248.996094 149.433594 250.394531 147.726562 250.394531 Z M 147.726562 250.394531 " fill-opacity="1" fill-rule="evenodd"/></g><g clip-path="url(#2256968eae)"><path fill="#000000" d="M 98.734375 324.269531 C 97.03125 324.269531 95.632812 322.871094 95.632812 321.164062 L 95.632812 247.289062 C 95.632812 245.582031 97.03125 244.1875 98.734375 244.1875 C 100.441406 244.1875 101.835938 245.582031 101.835938 247.289062 L 101.835938 321.164062 C 101.835938 322.871094 100.441406 324.269531 98.734375 324.269531 Z M 98.734375 324.269531 " fill-opacity="1" fill-rule="evenodd"/></g><g clip-path="url(#29e2f7d828)"><path fill="#000000" d="M 295.480469 324.269531 L 84.78125 324.269531 C 83.074219 324.269531 81.679688 322.871094 81.679688 321.164062 C 81.679688 319.457031 83.074219 318.0625 84.78125 318.0625 L 295.480469 318.0625 C 297.1875 318.0625 298.582031 319.457031 298.582031 321.164062 C 298.582031 322.871094 297.1875 324.269531 295.480469 324.269531 Z M 295.480469 324.269531 " fill-opacity="1" fill-rule="evenodd"/></g><g clip-path="url(#ca58805eda)"><path fill="#000000" d="M 101.371094 114.4375 C 86.488281 114.4375 74.394531 102.179688 74.394531 86.96875 C 74.394531 71.914062 86.488281 59.652344 101.371094 59.652344 C 116.410156 59.652344 128.65625 71.914062 128.65625 86.96875 C 128.65625 102.179688 116.410156 114.4375 101.371094 114.4375 Z M 101.371094 65.859375 C 89.898438 65.859375 80.59375 75.328125 80.59375 86.96875 C 80.59375 98.609375 89.898438 108.230469 101.371094 108.230469 C 113 108.230469 122.457031 98.609375 122.457031 86.96875 C 122.457031 75.328125 113 65.859375 101.371094 65.859375 Z M 101.371094 65.859375 " fill-opacity="1" fill-rule="evenodd"/></g><path fill="#000000" d="M 224.164062 149.515625 L 212.84375 149.515625 C 211.140625 149.515625 209.746094 148.117188 209.746094 146.410156 L 209.746094 94.261719 C 209.746094 92.554688 211.140625 91.160156 212.84375 91.160156 L 224.164062 91.160156 C 232.535156 91.160156 239.203125 97.675781 239.203125 105.59375 L 239.203125 134.613281 C 239.203125 142.996094 232.691406 149.515625 224.164062 149.515625 Z M 215.945312 143.304688 L 224.164062 143.304688 C 229.28125 143.304688 233 139.582031 233 134.613281 L 233 105.59375 C 233 100.9375 229.125 97.367188 224.164062 97.367188 L 215.945312 97.367188 Z M 215.945312 143.304688 " fill-opacity="1" fill-rule="evenodd"/><path fill="#000000" d="M 229.433594 180.089844 L 217.03125 180.089844 C 215.324219 180.089844 213.929688 178.691406 213.929688 176.984375 L 213.929688 146.410156 C 213.929688 144.703125 215.324219 143.304688 217.03125 143.304688 L 224.164062 143.304688 C 225.714844 143.304688 226.953125 142.996094 228.347656 142.53125 C 229.28125 142.21875 230.363281 142.375 231.140625 142.839844 C 232.070312 143.460938 232.535156 144.390625 232.535156 145.480469 L 232.535156 176.984375 C 232.535156 178.691406 231.140625 180.089844 229.433594 180.089844 Z M 220.132812 173.878906 L 226.332031 173.878906 L 226.332031 149.359375 C 225.714844 149.515625 224.9375 149.515625 224.164062 149.515625 L 220.132812 149.515625 Z M 220.132812 173.878906 " fill-opacity="1" fill-rule="evenodd"/><path fill="#000000" d="M 278.894531 117.851562 C 276.410156 117.851562 273.929688 116.765625 272.070312 115.058594 L 261.839844 104.660156 C 257.960938 100.9375 257.960938 94.726562 261.839844 91.003906 C 261.839844 90.847656 261.992188 90.847656 261.992188 90.847656 C 263.855469 89.296875 266.023438 88.519531 268.351562 88.519531 C 270.675781 88.519531 272.847656 89.296875 274.707031 90.847656 C 274.863281 90.847656 274.863281 90.847656 275.015625 91.003906 L 278.894531 94.882812 L 282.304688 91.160156 C 282.457031 91.003906 282.457031 91.003906 282.457031 91.003906 L 290.675781 83.242188 C 292.226562 81.535156 294.550781 80.449219 297.03125 80.449219 C 299.667969 80.449219 301.992188 81.382812 303.855469 83.242188 C 305.871094 85.261719 306.800781 87.898438 306.644531 90.539062 C 306.644531 92.867188 305.558594 95.039062 303.699219 96.589844 L 285.40625 114.902344 C 283.855469 116.765625 281.527344 117.851562 278.894531 117.851562 Z M 266.023438 95.503906 C 264.785156 96.902344 264.785156 98.917969 266.179688 100.316406 L 276.566406 110.714844 C 277.1875 111.335938 277.960938 111.644531 278.894531 111.644531 C 279.359375 111.644531 280.132812 111.644531 280.753906 110.867188 C 280.753906 110.867188 280.753906 110.714844 280.90625 110.714844 L 299.511719 92.089844 C 299.511719 91.933594 299.667969 91.933594 299.824219 91.78125 C 300.289062 91.3125 300.445312 90.691406 300.597656 90.226562 C 300.597656 89.296875 300.132812 88.363281 299.511719 87.589844 C 298.894531 86.96875 297.960938 86.65625 297.03125 86.65625 C 296.722656 86.65625 295.792969 86.65625 295.328125 87.433594 C 295.171875 87.433594 295.171875 87.589844 295.015625 87.742188 L 286.800781 95.347656 L 281.21875 101.558594 C 280.753906 102.179688 279.824219 102.488281 279.046875 102.488281 C 278.117188 102.488281 277.34375 102.179688 276.722656 101.558594 L 270.675781 95.503906 C 269.28125 94.574219 267.417969 94.574219 266.023438 95.503906 Z M 266.023438 95.503906 " fill-opacity="1" fill-rule="evenodd"/></svg>