<svg xmlns="http://www.w3.org/2000/svg" viewBox="0 0 83.949219 83.94531199999983">
<g transform="translate(-80.410156,-1358.011719)">
<path stroke-linecap="butt" transform="matrix(3.997481, 0, 0, 3.997481, 74.415868, 1352.01558)" fill="none" stroke-linejoin="miter" d="M 21.99973 11.999755 C 21.99973 12.327109 21.984095 12.654464 21.951848 12.979864 C 21.919601 13.306242 21.871719 13.629687 21.808203 13.951179 C 21.743709 14.271693 21.664558 14.589276 21.569771 14.90295 C 21.474008 15.216624 21.364564 15.524435 21.238508 15.826383 C 21.113429 16.129308 20.973693 16.425393 20.819299 16.713661 C 20.664905 17.002905 20.49683 17.283355 20.315075 17.555988 C 20.132343 17.827643 19.937884 18.090504 19.729746 18.343593 C 19.522584 18.596682 19.302719 18.839022 19.071128 19.070613 C 18.839537 19.302205 18.597197 19.52207 18.344107 19.730208 C 18.091018 19.938347 17.828158 20.132806 17.555525 20.314561 C 17.28387 20.496316 17.002442 20.66439 16.714175 20.818785 C 16.42493 20.973179 16.129823 21.113892 15.826897 21.238971 C 15.523972 21.36405 15.216161 21.474471 14.902487 21.569257 C 14.58979 21.664043 14.272207 21.744172 13.950716 21.807689 C 13.629224 21.872182 13.305779 21.920064 12.980378 21.952311 C 12.654001 21.983581 12.327624 22.000193 12.000269 22.000193 C 11.672914 22.000193 11.34556 21.983581 11.02016 21.952311 C 10.693782 21.920064 10.370336 21.872182 10.048845 21.807689 C 9.728331 21.744172 9.410748 21.664043 9.097074 21.569257 C 8.7834 21.474471 8.475589 21.36405 8.173641 21.238971 C 7.870716 21.113892 7.574631 20.973179 7.286363 20.818785 C 6.997119 20.66439 6.716669 20.496316 6.444036 20.314561 C 6.172381 20.132806 5.90952 19.938347 5.656431 19.730208 C 5.403342 19.52207 5.161001 19.302205 4.92941 19.070613 C 4.697819 18.839022 4.477954 18.596682 4.269815 18.343593 C 4.061676 18.090504 3.867218 17.827643 3.685463 17.555988 C 3.503708 17.283355 3.335633 17.002905 3.181239 16.713661 C 3.026845 16.425393 2.886132 16.129308 2.761053 15.826383 C 2.635974 15.524435 2.525553 15.216624 2.430767 14.90295 C 2.33598 14.589276 2.255852 14.271693 2.192335 13.951179 C 2.127842 13.629687 2.07996 13.306242 2.047713 12.979864 C 2.016443 12.654464 1.999831 12.327109 1.999831 11.999755 C 1.999831 11.6724 2.016443 11.346023 2.047713 11.019645 C 2.07996 10.694245 2.127842 10.370799 2.192335 10.049308 C 2.255852 9.727816 2.33598 9.410234 2.430767 9.097537 C 2.525553 8.783863 2.635974 8.476052 2.761053 8.173126 C 2.886132 7.870201 3.026845 7.575094 3.181239 7.285849 C 3.335633 6.997582 3.503708 6.716154 3.685463 6.444499 C 3.867218 6.171866 4.061676 5.909005 4.269815 5.655916 C 4.477954 5.402827 4.697819 5.160487 4.92941 4.928896 C 5.161001 4.697305 5.403342 4.47744 5.656431 4.270278 C 5.90952 4.062139 6.172381 3.867681 6.444036 3.684949 C 6.716669 3.503194 6.997119 3.335119 7.286363 3.180725 C 7.574631 3.026331 7.870716 2.886594 8.173641 2.761516 C 8.475589 2.63546 8.7834 2.526016 9.097074 2.430252 C 9.410748 2.335466 9.728331 2.256315 10.048845 2.191821 C 10.370336 2.128304 10.693782 2.080423 11.02016 2.048176 C 11.34556 2.015929 11.672914 2.000294 12.000269 2.000294 C 12.327624 2.000294 12.654001 2.015929 12.980378 2.048176 C 13.305779 2.080423 13.629224 2.128304 13.950716 2.191821 C 14.272207 2.256315 14.58979 2.335466 14.902487 2.430252 C 15.216161 2.526016 15.523972 2.63546 15.826897 2.761516 C 16.129823 2.886594 16.42493 3.026331 16.714175 3.180725 C 17.002442 3.335119 17.28387 3.503194 17.555525 3.684949 C 17.828158 3.867681 18.091018 4.062139 18.344107 4.270278 C 18.597197 4.47744 18.839537 4.697305 19.071128 4.928896 C 19.302719 5.160487 19.522584 5.402827 19.729746 5.655916 C 19.937884 5.909005 20.132343 6.171866 20.315075 6.444499 C 20.49683 6.716154 20.664905 6.997582 20.819299 7.285849 C 20.973693 7.575094 21.113429 7.870201 21.238508 8.173126 C 21.364564 8.476052 21.474008 8.783863 21.569771 9.097537 C 21.664558 9.410234 21.743709 9.727816 21.808203 10.049308 C 21.871719 10.370799 21.919601 10.694245 21.951848 11.019645 C 21.984095 11.346023 21.99973 11.6724 21.99973 11.999755 Z M 21.99973 11.999755 " stroke="#000000" stroke-width="1" stroke-opacity="1" stroke-miterlimit="4"/>

</g>
</svg>