<svg xmlns="http://www.w3.org/2000/svg" viewBox="0 0 32.0 33.38671899999997">
<g transform="translate(-532.0,-819.613281)">
<path fill="#000000" d="M 561.328125 852.933594 C 560.363281 852.933594 559.585938 852.152344 559.585938 851.191406 L 559.585938 834.800781 C 559.585938 828.347656 554.316406 823.101562 547.835938 823.101562 C 541.363281 823.101562 536.09375 828.347656 536.09375 834.800781 L 536.09375 851.191406 C 536.09375 852.152344 535.3125 852.933594 534.347656 852.933594 C 533.382812 852.933594 532.605469 852.152344 532.605469 851.191406 L 532.605469 834.800781 C 532.605469 826.433594 539.4375 819.621094 547.835938 819.621094 C 556.242188 819.621094 563.074219 826.433594 563.074219 834.800781 L 563.074219 851.191406 C 563.074219 852.152344 562.289062 852.933594 561.328125 852.933594 " fill-opacity="1" fill-rule="nonzero"/>

</g>
</svg>