<svg xmlns="http://www.w3.org/2000/svg" viewBox="0 0 103.199219 47.0">
<g transform="translate(-87.0,-1060.0)">
<path fill="#000000" d="M 139.769531 1106.140625 C 139 1106.140625 138.234375 1106.0625 137.476562 1105.90625 L 105.683594 1099.335938 C 102.59375 1098.695312 99.484375 1098.574219 96.355469 1098.972656 L 95.550781 1099.089844 C 95.328125 1099.125 95.109375 1099.117188 94.886719 1099.070312 C 94.667969 1099.027344 94.464844 1098.945312 94.273438 1098.824219 C 94.085938 1098.707031 93.921875 1098.558594 93.785156 1098.382812 C 93.648438 1098.203125 93.542969 1098.007812 93.476562 1097.796875 L 87.976562 1080.308594 C 87.894531 1080.066406 87.863281 1079.824219 87.882812 1079.570312 C 87.902344 1079.320312 87.96875 1079.082031 88.082031 1078.855469 C 88.199219 1078.632812 88.351562 1078.4375 88.542969 1078.277344 C 88.738281 1078.113281 88.953125 1077.992188 89.195312 1077.917969 C 89.433594 1077.839844 89.679688 1077.816406 89.929688 1077.839844 C 90.183594 1077.859375 90.417969 1077.933594 90.640625 1078.050781 C 90.863281 1078.167969 91.054688 1078.324219 91.214844 1078.519531 C 91.375 1078.714844 91.492188 1078.933594 91.5625 1079.175781 L 96.601562 1095.160156 C 99.90625 1094.816406 103.1875 1094.980469 106.445312 1095.65625 L 138.242188 1102.226562 C 139.179688 1102.421875 140.125 1102.4375 141.070312 1102.265625 C 142.015625 1102.097656 142.898438 1101.757812 143.710938 1101.25 L 183.460938 1076.433594 C 183.816406 1076.210938 184.148438 1075.957031 184.453125 1075.667969 C 184.761719 1075.382812 185.035156 1075.066406 185.277344 1074.722656 C 185.519531 1074.378906 185.726562 1074.015625 185.898438 1073.632812 C 186.066406 1073.25 186.199219 1072.851562 186.289062 1072.441406 C 186.382812 1072.03125 186.429688 1071.617188 186.441406 1071.199219 C 186.449219 1070.777344 186.414062 1070.359375 186.339844 1069.949219 C 186.265625 1069.535156 186.152344 1069.132812 185.996094 1068.742188 C 185.84375 1068.351562 185.652344 1067.980469 185.421875 1067.628906 C 185.191406 1067.277344 184.933594 1066.949219 184.636719 1066.648438 C 184.34375 1066.347656 184.023438 1066.082031 183.675781 1065.84375 C 183.328125 1065.609375 182.960938 1065.410156 182.574219 1065.246094 C 182.1875 1065.082031 181.789062 1064.960938 181.378906 1064.875 C 180.964844 1064.792969 180.550781 1064.75 180.128906 1064.75 C 179.710938 1064.75 179.292969 1064.789062 178.882812 1064.871094 C 178.46875 1064.957031 178.070312 1065.078125 177.683594 1065.238281 C 177.296875 1065.402344 176.925781 1065.601562 176.578125 1065.835938 L 176.554688 1065.855469 L 148.933594 1083.835938 C 148.722656 1083.976562 148.496094 1084.070312 148.246094 1084.121094 C 148 1084.167969 147.753906 1084.167969 147.507812 1084.117188 C 147.261719 1084.066406 147.03125 1083.972656 146.824219 1083.828125 C 146.617188 1083.6875 146.445312 1083.511719 146.304688 1083.300781 C 146.167969 1083.089844 146.078125 1082.859375 146.03125 1082.613281 C 145.988281 1082.367188 145.992188 1082.117188 146.042969 1081.871094 C 146.097656 1081.625 146.199219 1081.402344 146.34375 1081.195312 C 146.488281 1080.988281 146.664062 1080.816406 146.878906 1080.683594 L 174.488281 1062.703125 C 175.042969 1062.328125 175.628906 1062.015625 176.25 1061.757812 C 176.867188 1061.503906 177.503906 1061.308594 178.160156 1061.179688 C 178.816406 1061.050781 179.480469 1060.988281 180.148438 1060.992188 C 180.816406 1060.992188 181.480469 1061.0625 182.132812 1061.195312 C 182.789062 1061.332031 183.425781 1061.527344 184.042969 1061.789062 C 184.65625 1062.050781 185.242188 1062.371094 185.792969 1062.746094 C 186.347656 1063.125 186.855469 1063.550781 187.324219 1064.03125 C 187.789062 1064.507812 188.207031 1065.027344 188.570312 1065.589844 C 188.933594 1066.152344 189.238281 1066.742188 189.484375 1067.363281 C 189.730469 1067.988281 189.914062 1068.628906 190.03125 1069.285156 C 190.148438 1069.945312 190.203125 1070.609375 190.1875 1071.277344 C 190.175781 1071.945312 190.097656 1072.605469 189.953125 1073.257812 C 189.804688 1073.910156 189.597656 1074.542969 189.328125 1075.15625 C 189.054688 1075.765625 188.726562 1076.347656 188.34375 1076.890625 C 187.957031 1077.4375 187.519531 1077.941406 187.035156 1078.402344 C 186.546875 1078.859375 186.019531 1079.265625 185.453125 1079.621094 L 145.703125 1104.4375 C 143.890625 1105.574219 141.910156 1106.140625 139.769531 1106.140625 Z M 139.769531 1106.140625 " fill-opacity="1" fill-rule="nonzero"/>

</g>
</svg>