<svg xmlns="http://www.w3.org/2000/svg" viewBox="0 0 36.222656 63.375">
<g transform="translate(-62.777344,-1045.0)">
<path fill="#000000" d="M 81.785156 1108.351562 C 81.375 1108.351562 81 1108.234375 80.667969 1107.988281 C 80.335938 1107.746094 80.105469 1107.429688 79.984375 1107.035156 L 62.863281 1052.695312 C 62.789062 1052.457031 62.761719 1052.214844 62.785156 1051.964844 C 62.808594 1051.71875 62.875 1051.484375 62.992188 1051.261719 C 63.105469 1051.039062 63.261719 1050.847656 63.453125 1050.6875 C 63.644531 1050.527344 63.859375 1050.410156 64.09375 1050.335938 L 79.023438 1045.632812 C 79.261719 1045.558594 79.503906 1045.53125 79.753906 1045.554688 C 80 1045.574219 80.234375 1045.644531 80.457031 1045.757812 C 80.679688 1045.875 80.871094 1046.027344 81.03125 1046.21875 C 81.191406 1046.410156 81.308594 1046.625 81.382812 1046.859375 L 98.507812 1101.199219 C 98.585938 1101.4375 98.609375 1101.683594 98.589844 1101.929688 C 98.566406 1102.179688 98.5 1102.414062 98.382812 1102.636719 C 98.269531 1102.855469 98.117188 1103.046875 97.925781 1103.207031 C 97.734375 1103.367188 97.519531 1103.484375 97.28125 1103.5625 L 82.355469 1108.261719 C 82.167969 1108.320312 81.980469 1108.351562 81.785156 1108.351562 Z M 67.019531 1053.359375 L 83.015625 1104.109375 L 94.355469 1100.535156 L 78.371094 1049.785156 Z M 67.019531 1053.359375 " fill-opacity="1" fill-rule="nonzero"/>

</g>
</svg>