<svg xmlns="http://www.w3.org/2000/svg" viewBox="0 0 62.0 61.804688000000056">
<g transform="translate(-113.0,-1001.195312)">
<path fill="#000000" d="M 144.230469 1062.589844 C 143.226562 1062.589844 142.222656 1062.539062 141.222656 1062.441406 C 140.21875 1062.34375 139.226562 1062.195312 138.242188 1062 C 137.253906 1061.800781 136.28125 1061.558594 135.316406 1061.265625 C 134.355469 1060.972656 133.410156 1060.636719 132.480469 1060.25 C 131.550781 1059.867188 130.644531 1059.4375 129.757812 1058.964844 C 128.871094 1058.488281 128.007812 1057.972656 127.171875 1057.414062 C 126.335938 1056.855469 125.53125 1056.257812 124.753906 1055.621094 C 123.976562 1054.980469 123.230469 1054.308594 122.519531 1053.597656 C 121.808594 1052.886719 121.136719 1052.140625 120.496094 1051.363281 C 119.859375 1050.585938 119.261719 1049.78125 118.703125 1048.945312 C 118.144531 1048.109375 117.628906 1047.246094 117.152344 1046.359375 C 116.679688 1045.472656 116.25 1044.566406 115.867188 1043.636719 C 115.480469 1042.707031 115.140625 1041.761719 114.851562 1040.800781 C 114.558594 1039.839844 114.316406 1038.863281 114.117188 1037.878906 C 113.921875 1036.890625 113.773438 1035.898438 113.675781 1034.898438 C 113.578125 1033.898438 113.527344 1032.894531 113.527344 1031.890625 C 113.527344 1030.882812 113.578125 1029.878906 113.675781 1028.878906 C 113.773438 1027.878906 113.921875 1026.886719 114.117188 1025.898438 C 114.316406 1024.914062 114.558594 1023.941406 114.851562 1022.976562 C 115.140625 1022.015625 115.480469 1021.070312 115.867188 1020.140625 C 116.25 1019.210938 116.679688 1018.304688 117.152344 1017.417969 C 117.628906 1016.53125 118.144531 1015.667969 118.703125 1014.832031 C 119.261719 1013.996094 119.859375 1013.191406 120.496094 1012.414062 C 121.136719 1011.636719 121.808594 1010.890625 122.519531 1010.179688 C 123.230469 1009.46875 123.976562 1008.796875 124.753906 1008.160156 C 125.53125 1007.519531 126.335938 1006.921875 127.171875 1006.363281 C 128.007812 1005.804688 128.871094 1005.289062 129.757812 1004.816406 C 130.644531 1004.339844 131.550781 1003.910156 132.480469 1003.527344 C 133.410156 1003.140625 134.355469 1002.804688 135.316406 1002.511719 C 136.28125 1002.21875 137.253906 1001.976562 138.242188 1001.78125 C 139.226562 1001.582031 140.21875 1001.4375 141.222656 1001.335938 C 142.222656 1001.238281 143.226562 1001.191406 144.230469 1001.191406 C 145.234375 1001.191406 146.238281 1001.238281 147.238281 1001.335938 C 148.238281 1001.4375 149.234375 1001.582031 150.21875 1001.78125 C 151.207031 1001.976562 152.179688 1002.21875 153.140625 1002.511719 C 154.105469 1002.804688 155.050781 1003.140625 155.980469 1003.527344 C 156.910156 1003.910156 157.816406 1004.339844 158.703125 1004.816406 C 159.589844 1005.289062 160.449219 1005.804688 161.289062 1006.363281 C 162.125 1006.921875 162.929688 1007.519531 163.707031 1008.160156 C 164.484375 1008.796875 165.230469 1009.46875 165.941406 1010.179688 C 166.652344 1010.890625 167.324219 1011.636719 167.964844 1012.414062 C 168.601562 1013.191406 169.199219 1013.996094 169.757812 1014.832031 C 170.316406 1015.667969 170.832031 1016.53125 171.308594 1017.417969 C 171.78125 1018.304688 172.210938 1019.210938 172.59375 1020.140625 C 172.980469 1021.070312 173.316406 1022.015625 173.609375 1022.976562 C 173.902344 1023.941406 174.144531 1024.914062 174.34375 1025.898438 C 174.539062 1026.886719 174.683594 1027.878906 174.785156 1028.878906 C 174.882812 1029.878906 174.933594 1030.882812 174.933594 1031.890625 C 174.929688 1032.894531 174.878906 1033.898438 174.78125 1034.898438 C 174.683594 1035.898438 174.535156 1036.890625 174.335938 1037.875 C 174.140625 1038.863281 173.894531 1039.835938 173.601562 1040.796875 C 173.308594 1041.757812 172.972656 1042.703125 172.585938 1043.632812 C 172.199219 1044.5625 171.769531 1045.46875 171.296875 1046.355469 C 170.824219 1047.242188 170.304688 1048.101562 169.746094 1048.9375 C 169.1875 1049.773438 168.589844 1050.578125 167.953125 1051.355469 C 167.316406 1052.132812 166.640625 1052.875 165.929688 1053.585938 C 165.21875 1054.296875 164.476562 1054.972656 163.699219 1055.609375 C 162.921875 1056.246094 162.117188 1056.847656 161.28125 1057.40625 C 160.445312 1057.964844 159.582031 1058.480469 158.695312 1058.953125 C 157.808594 1059.429688 156.902344 1059.859375 155.972656 1060.242188 C 155.046875 1060.628906 154.101562 1060.964844 153.140625 1061.257812 C 152.175781 1061.550781 151.203125 1061.796875 150.21875 1061.992188 C 149.230469 1062.191406 148.238281 1062.339844 147.238281 1062.4375 C 146.238281 1062.535156 145.234375 1062.585938 144.230469 1062.589844 Z M 144.230469 1004.957031 C 143.347656 1004.957031 142.46875 1005 141.589844 1005.085938 C 140.710938 1005.171875 139.839844 1005.300781 138.976562 1005.472656 C 138.109375 1005.644531 137.253906 1005.859375 136.410156 1006.117188 C 135.566406 1006.371094 134.738281 1006.667969 133.921875 1007.007812 C 133.105469 1007.34375 132.308594 1007.71875 131.53125 1008.136719 C 130.753906 1008.550781 129.996094 1009.003906 129.265625 1009.496094 C 128.53125 1009.984375 127.824219 1010.511719 127.140625 1011.070312 C 126.457031 1011.628906 125.804688 1012.222656 125.183594 1012.84375 C 124.558594 1013.46875 123.964844 1014.121094 123.40625 1014.804688 C 122.847656 1015.484375 122.320312 1016.195312 121.832031 1016.925781 C 121.339844 1017.660156 120.886719 1018.417969 120.472656 1019.195312 C 120.058594 1019.972656 119.679688 1020.769531 119.34375 1021.585938 C 119.003906 1022.398438 118.707031 1023.230469 118.453125 1024.074219 C 118.195312 1024.917969 117.980469 1025.773438 117.808594 1026.636719 C 117.636719 1027.503906 117.507812 1028.375 117.421875 1029.253906 C 117.335938 1030.128906 117.292969 1031.011719 117.292969 1031.894531 C 117.292969 1032.773438 117.335938 1033.65625 117.421875 1034.53125 C 117.507812 1035.410156 117.636719 1036.28125 117.808594 1037.148438 C 117.980469 1038.011719 118.195312 1038.867188 118.453125 1039.710938 C 118.707031 1040.554688 119.003906 1041.386719 119.34375 1042.199219 C 119.679688 1043.015625 120.058594 1043.8125 120.472656 1044.589844 C 120.890625 1045.367188 121.34375 1046.125 121.832031 1046.859375 C 122.324219 1047.589844 122.847656 1048.300781 123.40625 1048.980469 C 123.96875 1049.664062 124.558594 1050.316406 125.183594 1050.9375 C 125.808594 1051.5625 126.460938 1052.15625 127.140625 1052.714844 C 127.824219 1053.273438 128.53125 1053.800781 129.265625 1054.289062 C 130 1054.777344 130.753906 1055.230469 131.53125 1055.648438 C 132.3125 1056.0625 133.109375 1056.441406 133.921875 1056.777344 C 134.738281 1057.117188 135.566406 1057.414062 136.410156 1057.667969 C 137.257812 1057.925781 138.109375 1058.136719 138.976562 1058.3125 C 139.84375 1058.484375 140.714844 1058.613281 141.589844 1058.699219 C 142.46875 1058.785156 143.351562 1058.828125 144.230469 1058.828125 C 145.113281 1058.828125 145.996094 1058.785156 146.871094 1058.699219 C 147.75 1058.613281 148.621094 1058.480469 149.488281 1058.308594 C 150.351562 1058.136719 151.207031 1057.921875 152.050781 1057.667969 C 152.894531 1057.410156 153.726562 1057.113281 154.539062 1056.777344 C 155.355469 1056.4375 156.152344 1056.0625 156.929688 1055.644531 C 157.707031 1055.230469 158.464844 1054.777344 159.199219 1054.289062 C 159.933594 1053.796875 160.640625 1053.273438 161.320312 1052.710938 C 162.003906 1052.152344 162.65625 1051.5625 163.28125 1050.9375 C 163.902344 1050.3125 164.496094 1049.660156 165.054688 1048.976562 C 165.613281 1048.296875 166.140625 1047.589844 166.628906 1046.855469 C 167.121094 1046.121094 167.574219 1045.367188 167.988281 1044.585938 C 168.40625 1043.808594 168.78125 1043.011719 169.117188 1042.199219 C 169.457031 1041.382812 169.753906 1040.554688 170.007812 1039.707031 C 170.265625 1038.863281 170.480469 1038.007812 170.652344 1037.144531 C 170.824219 1036.277344 170.953125 1035.40625 171.039062 1034.53125 C 171.125 1033.652344 171.167969 1032.769531 171.167969 1031.890625 C 171.167969 1031.007812 171.125 1030.128906 171.035156 1029.25 C 170.949219 1028.371094 170.820312 1027.5 170.644531 1026.636719 C 170.472656 1025.773438 170.257812 1024.917969 170 1024.074219 C 169.746094 1023.230469 169.449219 1022.402344 169.109375 1021.585938 C 168.773438 1020.773438 168.394531 1019.976562 167.980469 1019.199219 C 167.5625 1018.421875 167.109375 1017.664062 166.621094 1016.933594 C 166.128906 1016.199219 165.605469 1015.492188 165.042969 1014.808594 C 164.484375 1014.128906 163.894531 1013.476562 163.269531 1012.851562 C 162.644531 1012.230469 161.992188 1011.636719 161.3125 1011.078125 C 160.628906 1010.519531 159.921875 1009.992188 159.1875 1009.503906 C 158.457031 1009.011719 157.699219 1008.558594 156.921875 1008.144531 C 156.144531 1007.726562 155.347656 1007.351562 154.535156 1007.011719 C 153.71875 1006.675781 152.890625 1006.378906 152.046875 1006.121094 C 151.203125 1005.863281 150.347656 1005.652344 149.484375 1005.476562 C 148.617188 1005.304688 147.746094 1005.175781 146.871094 1005.089844 C 145.992188 1005 145.113281 1004.957031 144.230469 1004.957031 Z M 144.230469 1004.957031 " fill-opacity="1" fill-rule="nonzero"/>

</g>
</svg>