<svg xmlns="http://www.w3.org/2000/svg" viewBox="0 0 32.0 33.38671899999997">
<g transform="translate(-524.0,-819.613281)">
<path fill="#000000" d="M 553.578125 852.933594 C 552.613281 852.933594 551.828125 852.152344 551.828125 851.191406 L 551.828125 834.800781 C 551.828125 828.347656 546.5625 823.101562 540.085938 823.101562 C 533.613281 823.101562 528.34375 828.347656 528.34375 834.800781 L 528.34375 851.191406 C 528.34375 852.152344 527.5625 852.933594 526.597656 852.933594 C 525.632812 852.933594 524.851562 852.152344 524.851562 851.191406 L 524.851562 834.800781 C 524.851562 826.433594 531.683594 819.621094 540.085938 819.621094 C 548.484375 819.621094 555.324219 826.433594 555.324219 834.800781 L 555.324219 851.191406 C 555.324219 852.152344 554.539062 852.933594 553.578125 852.933594 " fill-opacity="1" fill-rule="nonzero"/>

</g>
</svg>