<svg version="1.1" id="Layer_1" xmlns="http://www.w3.org/2000/svg" xmlns:xlink="http://www.w3.org/1999/xlink" x="0px" y="0px"
	 width="100%" viewBox="0 0 2000 1000" enable-background="new 0 0 2000 1000" xml:space="preserve">
<path fill="#000000" opacity="1.000000" stroke="none" 
	d="
M1480.000000,1001.000000 
	C986.666748,1001.000000 493.833496,1001.000000 1.000198,1001.000000 
	C1.000132,667.666809 1.000132,334.333618 1.000066,1.000333 
	C667.666382,1.000222 1334.332764,1.000222 2000.999268,1.000111 
	C2000.999512,334.333008 2000.999512,667.666016 2000.999756,1000.999512 
	C1827.500000,1001.000000 1654.000000,1001.000000 1480.000000,1001.000000 
M191.380478,507.034119 
	C198.913101,511.356171 206.501358,515.585815 213.940262,520.063477 
	C215.866470,521.222900 218.440903,522.928711 218.822937,524.775513 
	C222.127029,540.748108 225.367722,556.752563 227.878311,572.864258 
	C229.811737,585.272156 230.957352,597.825867 231.919174,610.355713 
	C232.940918,623.666199 233.657043,637.019287 233.895935,650.364685 
	C234.082275,660.774109 233.402374,671.203125 232.984070,681.618469 
	C232.381332,696.624634 231.779861,711.632629 230.949265,726.627136 
	C230.569809,733.477356 229.880737,740.330933 228.911530,747.122986 
	C227.470032,757.224670 225.931137,767.328735 223.913666,777.326843 
	C222.266235,785.491089 221.351608,794.337402 217.415970,801.373108 
	C212.272400,810.568359 209.156250,819.547974 209.988205,829.969116 
	C210.758087,839.612305 214.491684,848.059875 221.855667,854.138977 
	C231.592178,862.176697 242.722534,865.774414 255.744553,863.103027 
	C280.411560,858.042786 294.226868,830.358643 281.369415,807.425537 
	C275.455017,796.876404 273.125977,785.877808 271.141388,774.584656 
	C268.862732,761.617920 267.392090,748.489868 266.052704,735.382568 
	C264.437134,719.572327 262.599609,703.729187 262.190033,687.865906 
	C261.710724,669.301758 262.504211,650.695740 263.063049,632.117432 
	C263.379303,621.603760 264.092377,611.086975 265.057190,600.611328 
	C266.398102,586.052246 268.142975,571.530396 269.861786,555.634399 
	C272.980988,557.565369 275.085999,558.591064 276.871490,560.016785 
	C294.804901,574.337219 313.506866,587.836243 330.307892,603.386597 
	C342.571167,614.737000 353.082123,628.249268 363.003510,641.801331 
	C379.841217,664.800598 388.894897,691.135681 390.758789,719.505981 
	C391.540894,731.410522 390.699188,743.658203 388.757996,755.447266 
	C386.150208,771.284363 382.479248,787.036438 378.002045,802.458435 
	C365.699249,844.836426 346.105927,884.261169 327.453033,924.039368 
	C319.743408,940.480408 311.780945,956.802795 304.015015,973.217712 
	C303.357361,974.607849 303.318878,976.290894 302.903320,978.261902 
	C304.463379,977.955017 305.384308,978.057312 305.699371,977.668579 
	C309.379608,973.127136 313.061188,968.581055 316.565247,963.903503 
	C329.285980,946.922485 341.923676,929.879395 354.621735,912.881348 
	C371.720398,889.992615 387.077789,865.959717 400.524933,840.786072 
	C412.254700,818.827393 422.977295,796.290649 428.901123,771.956116 
	C432.561127,756.921021 436.314880,741.701233 437.612152,726.360107 
	C438.782654,712.517822 437.087433,698.362183 435.898193,684.409302 
	C434.408752,666.934204 428.923889,650.363953 421.731873,634.512512 
	C408.025238,604.302612 388.755463,577.954041 365.209167,554.571106 
	C350.710083,540.172607 335.893768,526.192383 319.471222,514.017639 
	C307.129333,504.868011 294.546204,496.044281 282.156219,486.958527 
	C280.548126,485.779297 278.864014,484.104034 278.240448,482.303467 
	C276.825775,478.218231 275.726746,473.961548 275.068085,469.686920 
	C271.287445,445.150726 267.263000,420.640411 264.169769,396.014740 
	C262.551331,383.129974 262.196167,370.030365 262.113464,357.022430 
	C261.997498,338.773529 262.503662,320.514648 263.060394,302.269684 
	C263.401550,291.089752 263.829346,279.868958 265.123199,268.772003 
	C266.983795,252.814316 269.271729,236.880173 272.161499,221.079407 
	C273.706146,212.633514 276.707825,204.426636 279.406342,196.228546 
	C281.290588,190.504181 285.217194,185.109665 285.745697,179.340103 
	C288.170319,152.870148 268.188080,132.186996 239.972382,137.377258 
	C214.095856,142.137222 203.062500,168.582764 213.684036,192.191742 
	C215.650574,196.562866 218.781265,200.596222 219.859924,205.144669 
	C222.686386,217.063217 225.105057,229.117111 226.888016,241.234512 
	C229.023575,255.747971 230.676743,270.354401 231.897369,284.974091 
	C233.035507,298.605774 233.768860,312.303894 233.887573,325.979645 
	C234.030060,342.394043 233.333145,358.815704 233.000244,375.234222 
	C232.990112,375.734039 233.021851,376.237427 232.973984,376.733368 
	C231.654099,390.405121 230.468384,404.091949 228.948135,417.741516 
	C227.996124,426.289124 226.876266,434.847107 225.210419,443.277679 
	C223.638077,451.234833 223.214020,451.275299 216.038284,446.982910 
	C191.734726,432.444824 169.226074,415.736664 150.529984,394.153198 
	C139.020691,380.866394 129.275589,366.649109 121.822044,350.659058 
	C112.281387,330.191620 107.821396,308.602997 107.243973,286.344299 
	C106.905472,273.295624 108.094902,260.034485 110.227280,247.138474 
	C112.873260,231.136322 116.453285,215.195251 120.964088,199.614075 
	C130.603928,166.316238 145.089966,134.946579 162.150574,104.873619 
	C175.082596,82.078194 189.207474,59.958637 202.850235,37.567997 
	C205.525421,33.177452 208.423752,28.922871 211.219162,24.605581 
	C208.931442,24.309679 207.214310,24.547531 206.087082,25.490519 
	C196.928162,33.152561 187.403793,40.462650 178.910004,48.814804 
	C166.410385,61.105984 154.179718,73.747017 142.745346,87.023483 
	C131.524002,100.052605 120.954002,113.714531 110.961655,127.715034 
	C91.333687,155.216202 75.846397,185.070770 65.277390,217.130035 
	C60.113388,232.794159 57.199680,249.265808 54.124828,265.533997 
	C51.198673,281.015503 50.509937,296.647827 51.738773,312.535889 
	C52.898457,327.529877 55.024899,342.221710 59.071148,356.622406 
	C63.863300,373.677765 70.904526,389.902069 79.870834,405.128479 
	C85.101051,414.010315 91.821030,422.011658 97.824661,430.441956 
	C109.380821,446.669098 123.657005,460.438568 139.304260,472.381775 
	C155.673447,484.876007 173.458130,495.515686 191.380478,507.034119 
M518.494507,429.047577 
	C540.066589,419.797455 555.040588,403.560486 565.869873,383.323212 
	C575.211426,365.866302 579.898254,346.828674 580.764526,327.199127 
	C581.335632,314.255981 580.919128,300.992584 578.697388,288.264862 
	C574.956421,266.833008 567.050659,246.941452 552.613220,229.892105 
	C541.937927,217.285583 529.374207,207.824875 514.033752,202.001343 
	C495.855957,195.100677 477.239502,194.696762 458.215546,197.916061 
	C435.480042,201.763412 417.741302,214.015076 403.617004,231.187134 
	C387.319305,251.001572 379.221649,274.770782 377.248779,300.098602 
	C375.782532,318.922150 376.002563,338.053986 381.291718,356.456146 
	C388.124176,380.227814 399.461548,401.241821 419.391113,417.090088 
	C435.660797,430.028015 454.193878,435.827301 474.465790,436.933136 
	C489.434448,437.749695 503.904175,434.825134 518.494507,429.047577 
M582.000000,723.500000 
	C582.000000,661.750061 582.000000,600.000122 582.000000,538.265991 
	C614.274963,538.265991 646.007446,538.265991 678.119385,538.265991 
	C678.119385,607.590210 678.119385,676.649475 678.119385,745.748291 
	C688.239441,745.748291 697.976440,745.748291 707.765564,745.748291 
	C707.765564,671.438965 707.765564,597.381653 707.765564,523.217407 
	C646.132568,523.217407 584.734253,523.217407 523.214111,523.217407 
	C523.214111,525.843140 523.214111,528.248047 523.214111,531.000000 
	C525.885742,531.000000 528.352966,531.093994 530.811035,530.983459 
	C540.518555,530.546875 547.510254,536.136780 549.022766,544.381042 
	C550.158997,550.574158 551.848206,556.815125 551.870972,563.040039 
	C552.087463,622.189636 552.000000,681.340271 552.000000,740.490662 
	C552.000000,742.255859 552.000000,744.021118 552.000000,745.713379 
	C562.310669,745.713379 572.048584,745.713379 582.000000,745.713379 
	C582.000000,738.452087 582.000000,731.475952 582.000000,723.500000 
M1373.002319,735.986755 
	C1369.745850,730.236328 1364.376465,729.794189 1358.561157,729.950378 
	C1351.005493,730.153320 1351.000366,729.999878 1351.000244,722.400269 
	C1350.999878,681.417969 1350.993164,640.435669 1351.014526,599.453369 
	C1351.015991,596.526428 1351.434448,593.910950 1346.904785,593.926392 
	C1308.921631,594.055908 1270.937744,593.969116 1232.954712,594.129395 
	C1231.632935,594.135071 1229.589355,595.808594 1229.158569,597.123047 
	C1228.348022,599.597046 1229.718872,600.770813 1232.588135,601.110413 
	C1238.173096,601.771484 1243.961670,603.505554 1245.812134,609.371277 
	C1247.924316,616.066528 1249.834595,623.208618 1249.752563,630.131897 
	C1249.589478,643.888245 1248.106079,657.636475 1246.974121,671.372070 
	C1245.574707,688.353210 1240.961792,704.615967 1235.742920,720.754395 
	C1233.585693,727.425232 1230.515869,731.258240 1222.436035,730.236938 
	C1216.348633,729.467407 1212.012085,734.886230 1212.005493,741.145325 
	C1211.989014,756.805237 1211.978149,772.465210 1212.036865,788.124939 
	C1212.042114,789.536255 1212.384644,792.091187 1212.882568,792.171143 
	C1216.261230,792.713318 1219.831543,793.284241 1223.105469,792.645142 
	C1224.381836,792.395996 1225.446167,789.134827 1225.928467,787.085815 
	C1227.769165,779.265686 1228.714233,771.183411 1231.139404,763.563599 
	C1235.289917,750.522461 1243.018799,744.348572 1254.839233,744.138855 
	C1280.320190,743.686829 1305.815308,743.912598 1331.303467,744.064819 
	C1337.258667,744.100342 1342.741943,746.213745 1347.021729,750.551086 
	C1356.220459,759.873596 1358.223511,772.149475 1359.835449,784.266113 
	C1360.953613,792.669983 1360.593262,792.877869 1368.967163,793.088074 
	C1372.934448,793.187622 1374.139526,791.973328 1374.086060,787.983276 
	C1373.875854,772.326172 1374.019287,756.664551 1373.967163,741.004822 
	C1373.962524,739.597595 1373.495239,738.191956 1373.002319,735.986755 
M1827.148438,438.968933 
	C1827.727905,438.657898 1828.300415,438.089478 1828.887573,438.073853 
	C1840.486206,437.764557 1848.746094,431.402039 1854.155029,422.112366 
	C1861.740479,409.084290 1868.644409,395.587860 1874.798340,381.826019 
	C1878.199219,374.220856 1882.301514,370.291351 1890.807861,371.934387 
	C1893.056885,372.368835 1895.464722,372.082733 1897.793335,371.981384 
	C1901.640869,371.813873 1903.083130,373.660583 1903.037109,377.396484 
	C1902.923950,386.560364 1903.000000,395.726624 1903.000000,404.891907 
	C1903.000000,414.832245 1903.000000,424.772614 1903.000000,435.000000 
	C1910.628540,435.000000 1917.776733,434.728760 1924.891846,435.095551 
	C1929.612549,435.338928 1931.148315,434.019501 1931.115967,429.052063 
	C1930.894653,395.058563 1930.953857,361.062836 1931.045044,327.068146 
	C1931.060425,321.323364 1931.427856,315.553925 1932.053711,309.842010 
	C1933.192383,299.451782 1938.239502,294.223480 1947.961548,293.027252 
	C1951.136719,292.636566 1952.081909,290.819153 1952.015137,287.936340 
	C1951.937500,284.584473 1949.565918,285.001434 1947.417114,285.001221 
	C1927.420044,284.999237 1907.419922,284.791107 1887.427368,285.090118 
	C1877.759155,285.234741 1868.044067,285.868042 1858.461426,287.126587 
	C1848.166748,288.478668 1838.302979,291.563477 1830.494629,299.033722 
	C1817.650513,311.321320 1816.720093,326.478058 1820.957886,342.350403 
	C1824.653687,356.192566 1835.030029,364.198425 1847.903320,368.780029 
	C1852.454834,370.399963 1852.743652,372.061737 1850.781494,375.593140 
	C1845.786621,384.583160 1841.199829,393.829712 1835.719727,402.512909 
	C1828.639771,413.730957 1822.303711,426.100464 1807.191528,428.183685 
	C1806.838257,432.073792 1806.043945,435.958405 1810.816528,436.881775 
	C1815.906616,437.866608 1821.100464,438.315094 1827.148438,438.968933 
M1609.000000,380.517792 
	C1609.666748,392.840942 1609.883301,405.210785 1611.155151,417.471161 
	C1612.030273,425.907684 1616.053955,433.645386 1625.634644,434.093811 
	C1637.529541,434.650604 1649.447021,434.777802 1661.356445,434.860504 
	C1662.222778,434.866486 1663.990234,432.749207 1663.793091,432.063446 
	C1663.361694,430.562988 1662.182617,428.918060 1660.840820,428.149200 
	C1659.709473,427.501038 1657.907959,428.113190 1656.419678,427.981262 
	C1650.049927,427.416687 1642.756958,425.575623 1640.865967,416.413879 
	C1639.793335,411.217255 1638.160767,405.978912 1638.126587,400.750549 
	C1637.887207,364.261536 1637.940796,327.769989 1638.072021,291.279877 
	C1638.089111,286.518280 1636.405884,284.679535 1631.676025,284.941101 
	C1626.858643,285.207520 1622.002197,285.223328 1617.186157,284.945129 
	C1610.736206,284.572601 1608.937012,285.032227 1608.976685,293.516479 
	C1609.055420,310.345093 1609.000000,327.174347 1609.000000,344.003326 
	C1609.000000,346.940002 1609.000000,349.876678 1609.000000,352.711578 
	C1589.017700,352.711578 1569.615356,352.711578 1550.000000,352.711578 
	C1550.000000,351.284271 1550.042236,350.135315 1549.993652,348.990265 
	C1549.336426,333.501373 1548.996582,317.988861 1547.863647,302.534515 
	C1547.278687,294.555603 1542.883789,287.582764 1534.688354,286.546967 
	C1522.765869,285.040039 1510.605103,285.342499 1498.541626,285.145264 
	C1497.386841,285.126434 1495.319214,286.976471 1495.255249,288.052673 
	C1495.177490,289.361420 1496.519775,291.101410 1497.727417,292.032837 
	C1498.744507,292.817200 1500.458496,293.003998 1501.846191,292.954620 
	C1515.131714,292.481842 1518.737915,300.277405 1519.873779,310.056671 
	C1520.822876,318.227722 1520.924805,326.526276 1520.954224,334.769928 
	C1521.067139,366.428009 1521.076660,398.087158 1520.908447,429.744751 
	C1520.885986,433.971893 1522.122925,435.315643 1526.299438,435.081909 
	C1532.112915,434.756470 1537.989990,434.624542 1543.781128,435.109802 
	C1549.135254,435.558472 1550.106201,433.160980 1550.067139,428.542389 
	C1549.906494,409.548676 1550.069092,390.552277 1549.937012,371.558105 
	C1549.912964,368.100189 1550.948120,366.890472 1554.493164,366.932312 
	C1568.487549,367.097382 1582.485107,367.000000 1596.481445,367.000000 
	C1609.000000,366.999969 1609.000000,366.999969 1609.000000,380.517792 
M1445.996948,408.699341 
	C1446.337646,412.440765 1446.158691,416.323334 1447.128418,419.893890 
	C1449.076660,427.067413 1452.568359,433.622192 1461.097778,433.924377 
	C1473.609131,434.367676 1486.147827,434.038544 1498.733765,434.038544 
	C1499.276367,428.017639 1499.276245,427.991394 1492.690186,428.007233 
	C1485.830688,428.023712 1479.937378,425.569122 1477.274658,419.184753 
	C1475.275146,414.390625 1474.172363,408.871521 1474.136963,403.665161 
	C1473.881226,366.169006 1473.953003,328.670105 1474.062866,291.172516 
	C1474.075806,286.757599 1472.667725,284.760437 1468.067505,284.945618 
	C1462.410278,285.173401 1456.729492,285.180176 1451.073120,284.942841 
	C1446.570312,284.753906 1444.898560,286.504761 1444.935181,291.032471 
	C1445.088745,310.030182 1444.890747,329.030975 1445.087524,348.027893 
	C1445.129517,352.078430 1443.819702,353.127716 1439.918701,353.081116 
	C1423.755249,352.887878 1407.588135,353.000549 1391.422363,352.999695 
	C1385.015015,352.999359 1385.108398,352.996155 1384.980591,346.253754 
	C1384.710693,332.008606 1384.742432,317.739166 1383.829468,303.532471 
	C1383.364136,296.291687 1380.404785,289.612518 1372.398438,287.158234 
	C1359.960693,283.345612 1347.155762,285.481812 1334.512207,285.170746 
	C1333.371460,285.142639 1331.626343,287.225159 1331.208618,288.637207 
	C1330.956543,289.489716 1332.484131,291.460388 1333.643433,291.997925 
	C1335.318604,292.774597 1337.381836,292.933746 1339.285156,292.960571 
	C1347.310669,293.073730 1351.814453,295.941010 1353.890869,303.713226 
	C1355.464355,309.603180 1356.818604,315.763672 1356.865479,321.814636 
	C1357.139282,357.310577 1356.999878,392.809662 1356.999878,428.307709 
	C1356.999878,429.474304 1356.640015,430.811493 1357.090942,431.765045 
	C1357.676025,433.002319 1358.880127,434.827728 1359.863525,434.857086 
	C1368.133911,435.103912 1376.414917,434.997650 1385.000000,434.997650 
	C1385.000000,432.894287 1385.000000,431.262054 1385.000000,429.629852 
	C1385.000000,410.630890 1385.056274,391.631653 1384.954346,372.633240 
	C1384.932983,368.657593 1386.383301,366.930756 1390.469849,366.956421 
	C1407.135010,367.061096 1423.801880,367.080139 1440.466309,366.934998 
	C1443.958740,366.904572 1445.130493,368.004211 1445.066772,371.519684 
	C1444.879639,381.849060 1444.955444,392.184357 1445.042969,402.516388 
	C1445.057739,404.270020 1445.639282,406.018799 1445.996948,408.699341 
M1115.500000,353.000000 
	C1105.171753,353.000000 1094.837158,352.789337 1084.518188,353.098633 
	C1080.088379,353.231415 1078.974609,351.839813 1078.875854,347.470886 
	C1078.529175,332.145996 1077.954102,316.812805 1076.890747,301.522736 
	C1076.266357,292.544495 1069.646851,286.522552 1060.721802,286.052277 
	C1050.161133,285.495789 1039.580688,285.276581 1029.005615,285.074402 
	C1027.734497,285.050079 1025.750732,285.723724 1025.326416,286.641907 
	C1024.706665,287.982697 1024.591187,290.808990 1025.341553,291.279755 
	C1027.116089,292.393188 1029.519775,292.888245 1031.683105,292.931274 
	C1041.074829,293.118195 1047.577148,298.116272 1048.893188,307.365662 
	C1050.020752,315.289124 1050.854248,323.325623 1050.908203,331.318268 
	C1051.128540,363.967590 1051.000000,396.619202 1051.000000,429.269989 
	C1051.000000,431.055908 1051.000000,432.841827 1051.000000,435.000000 
	C1059.027588,435.000000 1066.653809,434.824646 1074.266113,435.074280 
	C1078.052490,435.198395 1079.099976,433.854889 1079.070923,430.182922 
	C1078.919067,411.026764 1079.158569,391.866577 1078.889038,372.713013 
	C1078.821167,367.887756 1080.786255,366.916321 1084.953491,366.949402 
	C1100.778198,367.075012 1116.604370,366.995087 1132.430054,367.002533 
	C1138.532593,367.005402 1138.896729,367.464264 1139.016602,373.527283 
	C1139.297729,387.766785 1139.322754,402.024323 1140.138916,416.235046 
	C1140.574585,423.820129 1143.769897,432.856018 1154.059204,433.840759 
	C1166.203857,435.002960 1178.493286,434.909851 1190.715942,434.819397 
	C1193.857422,434.796143 1193.914673,431.486542 1191.967163,429.711639 
	C1190.629639,428.492645 1188.161377,428.126709 1186.179810,428.073425 
	C1179.705078,427.899414 1173.595703,426.012878 1171.259155,419.888092 
	C1168.833618,413.529633 1167.253540,406.446198 1167.181274,399.659790 
	C1166.796143,363.514801 1166.883057,327.362793 1167.128540,291.215393 
	C1167.164551,285.908844 1165.182251,284.725525 1160.547729,284.942291 
	C1155.228638,285.191040 1149.871216,285.267273 1144.563721,284.916840 
	C1140.189575,284.627991 1138.844849,286.029938 1138.899170,290.490204 
	C1139.134277,309.811279 1138.930420,329.137329 1139.063965,348.460358 
	C1139.088013,351.940369 1138.018555,353.200989 1134.488647,353.063904 
	C1128.500610,352.831421 1122.496948,353.000000 1115.500000,353.000000 
M841.276672,287.026825 
	C835.840088,285.673431 830.451416,284.070465 824.957458,283.016022 
	C811.480591,280.429504 798.357971,281.906158 785.879822,287.634399 
	C768.980347,295.392303 758.586121,309.042877 752.029053,325.987915 
	C747.757202,337.027374 746.652222,348.689850 746.160828,360.328125 
	C745.909424,366.284393 747.167969,372.335236 748.031189,378.301758 
	C750.279846,393.843292 756.350220,407.818634 766.996826,419.347382 
	C783.363831,437.070496 804.463196,441.554077 827.208679,437.697205 
	C848.147461,434.146698 863.005615,421.466217 872.168457,402.357178 
	C882.445557,380.924133 883.555054,358.530548 878.246765,335.685913 
	C873.281677,314.318726 862.219971,297.371857 841.276672,287.026825 
M744.027527,688.108643 
	C745.022461,691.659180 745.909180,695.244385 747.030457,698.754517 
	C753.092834,717.732117 763.728821,733.131531 782.329773,741.627686 
	C794.939270,747.387207 808.269897,748.013794 821.996277,746.117126 
	C838.109619,743.890747 850.797241,735.943237 860.602295,723.644653 
	C873.662231,707.263550 877.459595,687.561890 877.816589,667.229187 
	C877.949036,659.682739 876.686829,651.927490 874.853333,644.568298 
	C870.796082,628.283508 863.627930,613.699097 849.739685,603.169373 
	C836.175903,592.885620 821.112915,589.660217 804.262329,590.799194 
	C787.106812,591.958801 773.372681,598.674011 762.071716,611.357971 
	C749.805847,625.124939 744.395081,641.617188 743.168945,659.505432 
	C742.539978,668.680908 743.667969,677.976807 744.027527,688.108643 
M1199.966187,637.714050 
	C1199.643799,636.976746 1199.276367,636.255554 1199.005737,635.499695 
	C1191.896729,615.631775 1179.613037,600.509155 1159.071411,593.687988 
	C1149.518799,590.515869 1139.599731,589.858154 1129.322632,590.785950 
	C1113.627441,592.203003 1100.502197,598.378784 1090.044067,609.668518 
	C1078.059204,622.606262 1071.734619,638.623657 1070.223267,655.941895 
	C1068.771851,672.573547 1069.328247,689.409851 1076.089355,705.165833 
	C1082.711426,720.597961 1092.270020,733.601746 1108.049927,741.024902 
	C1123.645386,748.361206 1140.017090,749.095642 1156.164429,744.727600 
	C1175.203003,739.577393 1188.649536,726.945618 1195.942139,708.550781 
	C1199.049438,700.712830 1201.480347,692.428528 1202.857056,684.121460 
	C1205.393188,668.819885 1204.944702,653.482666 1199.966187,637.714050 
M1610.279785,656.999878 
	C1600.324829,658.411377 1590.217896,659.165100 1580.457153,661.417725 
	C1570.528687,663.708984 1561.092041,668.191956 1554.037476,675.712769 
	C1545.921509,684.364929 1542.479492,694.730896 1543.785767,707.131592 
	C1545.452759,722.957336 1559.325806,743.188110 1575.941040,745.390320 
	C1581.311523,746.102112 1586.811890,745.910400 1592.254761,745.982239 
	C1603.641602,746.132446 1613.744629,741.834412 1623.184082,736.116272 
	C1627.457642,733.527466 1630.408081,733.185303 1633.727051,737.176636 
	C1645.135132,750.895691 1661.515137,746.447449 1671.338257,736.051941 
	C1672.417725,734.909546 1672.663696,732.979614 1673.296143,731.414856 
	C1670.932129,731.548462 1669.716919,732.398071 1668.368530,732.853455 
	C1663.365723,734.543274 1658.348999,732.894714 1657.097412,728.810913 
	C1656.023193,725.306580 1654.943481,721.542664 1655.131348,717.959839 
	C1655.792236,705.358704 1657.496826,692.800293 1657.853271,680.198730 
	C1658.189697,668.308105 1658.177124,656.280457 1656.753906,644.502197 
	C1655.279785,632.304260 1650.431519,620.964355 1642.660645,611.159851 
	C1627.333862,591.821594 1591.254639,587.364380 1572.611572,599.102844 
	C1557.538330,608.593506 1549.856445,622.528442 1549.086304,640.244812 
	C1549.019165,641.787903 1550.163574,644.708557 1550.753906,644.710754 
	C1552.653442,644.717957 1555.100952,644.189148 1556.354736,642.906616 
	C1559.760498,639.423157 1562.740723,635.507935 1565.747070,631.652771 
	C1575.224487,619.500061 1586.178711,609.877808 1602.992798,613.196716 
	C1608.767090,614.336487 1614.791870,616.819702 1619.474609,620.327820 
	C1628.977661,627.447083 1630.452515,638.197754 1630.048218,649.373047 
	C1629.886475,653.842468 1627.980591,655.927856 1623.476929,656.047363 
	C1619.387573,656.155945 1615.308838,656.664917 1610.279785,656.999878 
M1218.027588,301.680511 
	C1211.673706,310.610504 1206.399048,319.990204 1207.100952,331.440674 
	C1207.235840,333.640015 1208.675415,335.759338 1209.513062,337.915558 
	C1211.364746,336.751984 1213.251465,335.638550 1215.044800,334.391052 
	C1215.518066,334.061798 1215.625610,333.252075 1216.032715,332.775513 
	C1223.011230,324.608490 1229.373413,316.091980 1238.422607,309.638580 
	C1251.342407,300.424957 1278.515625,305.291046 1284.491455,322.065033 
	C1286.094849,326.565369 1287.512451,331.316956 1287.868774,336.039703 
	C1288.730957,347.464050 1284.976929,349.526672 1275.504761,349.066803 
	C1258.226440,348.228027 1241.376343,350.983673 1225.709229,358.271942 
	C1215.663818,362.945099 1207.229980,370.042389 1203.325806,381.196014 
	C1199.231445,392.892914 1200.570679,404.198120 1206.049072,414.987549 
	C1213.791992,430.236664 1226.028564,438.969788 1243.557129,438.961090 
	C1257.446045,438.954193 1270.317993,435.213715 1281.975464,427.524658 
	C1286.042969,424.841888 1289.054565,425.559692 1291.989624,429.627716 
	C1292.894531,430.881958 1294.023315,432.030701 1295.231445,433.001434 
	C1306.508545,442.062775 1318.411743,437.716034 1327.647339,429.772522 
	C1329.185303,428.449738 1330.258545,426.586700 1331.546631,424.973267 
	C1331.217773,424.593506 1330.888916,424.213745 1330.560059,423.833984 
	C1328.552368,424.262634 1326.422119,424.399323 1324.562256,425.180176 
	C1320.600220,426.843628 1317.434570,426.193848 1315.739014,422.194336 
	C1314.456787,419.169495 1313.010742,415.804169 1313.148926,412.656738 
	C1313.818970,397.397430 1315.182983,382.169708 1315.941772,366.912903 
	C1316.579468,354.092926 1316.228027,341.221619 1312.834717,328.775299 
	C1309.845459,317.811249 1305.122314,307.375977 1296.735474,299.459564 
	C1287.019165,290.288330 1274.781128,286.119965 1261.637451,285.067474 
	C1244.863770,283.724304 1229.995483,288.094604 1218.027588,301.680511 
M1696.039062,357.448212 
	C1690.606201,360.887390 1684.208618,363.416199 1679.932739,367.947113 
	C1669.703735,378.786377 1666.202148,391.946899 1671.039795,406.503632 
	C1678.525635,429.029114 1692.244019,439.834290 1715.743530,438.916504 
	C1728.542847,438.416626 1740.301514,433.917969 1751.143066,427.231323 
	C1754.079468,425.420288 1756.117188,425.507996 1758.462158,427.935303 
	C1760.865845,430.423370 1763.219482,433.168274 1766.124390,434.925934 
	C1775.992920,440.897064 1792.573242,436.489868 1798.787109,426.498718 
	C1799.129028,425.948883 1798.831177,425.001099 1798.831177,423.668793 
	C1797.096313,424.159607 1795.766846,424.747162 1794.394165,424.876373 
	C1792.113525,425.091003 1789.649292,425.556885 1787.537598,424.953583 
	C1781.120972,423.120392 1781.054932,417.065033 1781.201782,412.328491 
	C1781.638550,398.226013 1783.582642,384.161896 1783.819214,370.064056 
	C1784.020142,358.088257 1783.416626,345.985107 1781.813843,334.121460 
	C1779.771362,319.004700 1773.381470,305.596252 1760.697144,296.315765 
	C1745.376221,285.106140 1728.074219,282.653290 1709.815796,286.719147 
	C1699.305298,289.059692 1690.944824,295.183258 1684.795410,303.851685 
	C1678.745117,312.380585 1674.247803,321.721924 1675.088379,332.640472 
	C1675.222412,334.380005 1676.197876,336.391327 1677.457031,337.538086 
	C1677.944458,337.981903 1680.747681,336.760040 1681.726318,335.630493 
	C1685.334717,331.464844 1688.431396,326.853516 1692.066528,322.713684 
	C1701.107300,312.417480 1710.891724,303.296600 1726.174561,305.017609 
	C1736.116821,306.137177 1745.489380,309.102875 1750.575195,318.381714 
	C1753.415649,323.564056 1755.072876,329.738586 1755.821045,335.648590 
	C1757.156860,346.200745 1754.435791,349.577026 1742.912842,349.062195 
	C1726.975098,348.350098 1711.531128,351.024567 1696.039062,357.448212 
M1491.495972,620.002563 
	C1497.409790,610.091248 1505.687500,603.893372 1517.539307,602.914185 
	C1520.582642,602.662842 1521.574585,600.030212 1520.874878,597.381348 
	C1520.530029,596.076294 1518.975708,594.264343 1517.801147,594.128479 
	C1499.254517,591.982300 1484.033936,597.996948 1473.206055,613.491943 
	C1462.401489,628.953918 1451.952026,644.663879 1441.264282,660.208191 
	C1440.472900,661.359192 1439.013184,662.050598 1437.863892,662.955566 
	C1437.242554,661.433533 1436.126465,659.927429 1436.076904,658.386902 
	C1435.613647,643.977112 1435.387329,629.559814 1434.984253,615.147766 
	C1434.603760,601.537842 1426.732422,594.000610 1413.079956,594.000061 
	C1404.581909,593.999756 1396.075195,593.787903 1387.590820,594.127930 
	C1385.013550,594.231201 1380.294189,591.706543 1380.173340,596.921936 
	C1380.049927,602.241455 1384.768921,600.795410 1388.017090,600.994263 
	C1394.587036,601.396423 1400.959106,602.894592 1403.633789,609.535645 
	C1405.581299,614.371399 1406.820312,619.842346 1406.857910,625.041138 
	C1407.124878,661.864258 1407.000000,698.690247 1407.000000,735.515320 
	C1407.000000,736.515076 1406.941528,737.518982 1407.011108,738.513916 
	C1407.257812,742.043884 1408.475586,744.300293 1412.719727,744.071899 
	C1418.202637,743.776917 1423.713257,744.004822 1429.212036,743.998657 
	C1435.597900,743.991577 1435.996582,743.595764 1435.998413,737.187439 
	C1436.003174,720.191284 1435.958740,703.194763 1436.076782,686.199463 
	C1436.086426,684.815002 1437.184204,683.438110 1437.776245,682.057739 
	C1439.013428,682.710449 1440.644653,683.058716 1441.423096,684.065979 
	C1446.068237,690.076050 1450.291748,696.420959 1455.079590,702.309692 
	C1463.944946,713.213501 1472.278320,724.736206 1482.349365,734.425354 
	C1494.484497,746.100281 1509.612671,749.963684 1526.430054,745.315552 
	C1529.314453,744.518372 1530.750610,743.246643 1529.864258,740.682922 
	C1529.245972,738.894409 1527.635254,737.048279 1525.970581,736.112549 
	C1523.216553,734.564514 1519.437500,734.440125 1517.189209,732.465088 
	C1509.584106,725.783997 1501.695923,719.180298 1495.322388,711.395691 
	C1483.841919,697.373901 1473.330200,682.554810 1462.592041,667.937866 
	C1461.798706,666.857971 1461.764526,664.287476 1462.509033,663.152222 
	C1471.878174,648.866455 1481.455811,634.717346 1491.495972,620.002563 
M930.413879,610.998596 
	C935.832886,614.387512 941.944885,617.040894 946.507202,621.339172 
	C953.218811,627.662415 956.144348,636.515808 957.875549,645.408569 
	C959.450317,653.497742 962.134460,661.944031 958.839417,669.985840 
	C955.571350,677.961365 951.616760,685.814148 946.851318,692.981384 
	C939.235901,704.434753 931.858337,716.205933 919.756042,723.940186 
	C914.872986,727.060913 912.343628,732.029663 912.942627,738.306152 
	C913.548767,744.657227 919.227844,750.255188 926.381165,750.990845 
	C930.825989,751.447998 937.706482,746.834290 938.959778,741.899780 
	C941.768188,730.841858 947.243103,721.071655 953.202759,711.558533 
	C956.056152,707.003845 959.646973,702.911133 963.360718,698.005676 
	C964.139404,700.378662 964.593384,701.731873 965.028076,703.091187 
	C969.908569,718.355408 978.423218,730.889160 993.375732,737.611267 
	C1005.338196,742.989197 1017.894409,744.801758 1031.301758,743.286682 
	C1044.062500,741.844666 1055.767212,737.903564 1067.315918,732.905090 
	C1068.514893,732.386230 1069.345459,731.015808 1070.346924,730.040466 
	C1070.067749,729.607788 1069.788696,729.175110 1069.509521,728.742371 
	C1065.123901,729.161621 1060.735107,729.959045 1056.353271,729.922058 
	C1046.937988,729.842712 1037.467651,729.879883 1028.126099,728.877869 
	C1012.310669,727.181641 998.144836,721.662781 989.693787,707.055664 
	C984.260254,697.664307 980.467224,687.242920 984.214294,676.482788 
	C987.502502,667.040649 992.109192,657.933289 997.114868,649.243408 
	C1004.308899,636.754761 1013.288879,625.591797 1024.765137,616.550476 
	C1027.483765,614.408630 1029.941040,611.282532 1031.211182,608.089172 
	C1033.947754,601.208801 1030.175171,593.496094 1023.612427,591.004761 
	C1016.057190,588.136719 1009.162170,590.875793 1006.004272,598.310120 
	C1004.577881,601.668213 1004.295654,605.582336 1002.555603,608.724365 
	C997.041321,618.681274 991.212769,628.472717 985.213867,638.147156 
	C983.602905,640.745178 980.952087,642.698425 979.272339,644.436829 
	C975.383850,635.766296 972.165222,627.399292 967.992554,619.538818 
	C959.901794,604.297424 946.217590,596.775024 929.640320,595.161438 
	C912.065186,593.450806 894.771484,596.574951 877.779724,601.081116 
	C876.529785,601.412598 875.580505,602.877563 874.491455,603.815552 
	C874.749084,604.543701 875.006653,605.271851 875.264282,606.000000 
	C884.666931,606.000000 894.126892,605.356506 903.455688,606.186646 
	C912.241150,606.968445 920.888489,609.303406 930.413879,610.998596 
M1000.489990,295.994385 
	C990.615967,285.560150 977.267883,283.579376 964.171326,282.221924 
	C951.950439,280.955261 939.569275,281.899780 927.510376,285.002533 
	C914.908203,288.245026 905.595703,298.393555 905.976501,311.940369 
	C906.083984,315.762695 906.419189,319.691376 905.707886,323.390137 
	C905.081726,326.646149 905.786377,328.381653 908.845520,328.955902 
	C912.300537,329.604462 912.661865,327.181244 913.046143,324.530457 
	C914.124390,317.091400 917.307007,310.442047 923.013672,305.662415 
	C931.202881,298.803589 940.866821,296.061646 951.733276,295.821838 
	C967.170166,295.481232 982.477234,306.758606 981.401428,324.778473 
	C980.731934,335.991119 973.272888,345.894348 963.185608,349.064270 
	C953.792603,352.015991 944.190796,352.245331 934.532104,351.940552 
	C931.031311,351.830078 929.556824,353.008087 929.978394,356.518280 
	C930.116394,357.667786 930.093872,358.856812 929.983459,360.012329 
	C929.547363,364.578308 931.663879,366.075012 936.111938,366.086945 
	C943.851013,366.107666 951.660889,366.112732 959.312378,367.110962 
	C977.026428,369.421936 987.702087,380.774414 985.927246,399.486694 
	C985.262634,406.494202 982.572021,412.806366 976.520691,417.073029 
	C963.419983,426.309937 948.842346,426.304108 933.970337,423.443420 
	C925.012695,421.720398 917.817017,416.449463 911.152100,410.550323 
	C908.195496,407.933411 905.595642,407.291077 902.994995,410.592712 
	C900.532410,413.719116 902.765198,416.031403 904.745667,418.222809 
	C917.741516,432.602356 934.368896,439.099609 953.314636,438.787109 
	C964.306213,438.605804 975.612488,437.555206 986.147461,434.628754 
	C999.740417,430.852875 1011.140381,423.109283 1014.598145,407.870209 
	C1017.229858,396.271515 1017.044128,384.918732 1009.923035,374.737457 
	C1005.396851,368.266052 998.615234,364.587555 991.702820,361.157684 
	C990.414734,360.518555 989.463989,359.199493 988.357544,358.194244 
	C989.465088,357.137909 990.492615,355.978729 991.694397,355.043579 
	C996.102234,351.613586 1001.121765,348.776825 1004.887207,344.757538 
	C1011.098450,338.127472 1011.097412,329.505341 1011.113159,320.879181 
	C1011.130859,311.174561 1008.139893,303.062683 1000.489990,295.994385 
M663.296387,438.002930 
	C665.378967,438.335297 667.491699,439.074860 669.538574,438.923706 
	C675.709778,438.468018 681.988892,438.252045 687.985840,436.887573 
	C705.161621,432.979645 717.966187,423.039368 726.080322,407.335205 
	C726.617798,406.295044 726.308472,404.176025 725.554199,403.222229 
	C722.514160,399.378326 720.008606,400.268768 715.995056,405.761841 
	C703.722473,422.558685 684.563843,428.333923 665.970276,423.374573 
	C651.680969,419.563202 643.736206,408.696625 639.126099,395.520447 
	C634.389587,381.982880 632.163635,367.893372 634.042053,353.480957 
	C635.148804,344.989471 635.928528,336.345215 638.201843,328.142822 
	C641.261597,317.102783 646.981750,307.326355 657.110718,301.014923 
	C671.335999,292.151093 697.438293,294.461578 709.314270,307.807343 
	C712.485046,311.370636 715.511963,315.103394 719.024597,318.296722 
	C720.134705,319.305847 723.324280,319.643188 724.289001,318.811340 
	C725.676880,317.614746 727.111267,314.316742 726.428711,313.215942 
	C721.074951,304.581421 714.879089,296.448120 706.066040,291.073608 
	C690.099121,281.336487 672.405273,279.668091 654.679626,283.361481 
	C631.375916,288.217102 616.644531,303.404022 608.962891,325.756134 
	C603.133118,342.719818 602.986328,360.046051 604.973938,377.593445 
	C606.296692,389.271301 609.847046,400.235779 616.080994,410.117401 
	C626.775757,427.069977 642.056946,436.819427 663.296387,438.002930 
z"/>
<path fill="#FFFFFF" opacity="1.000000" stroke="none" 
	d="
M191.002289,507.000061 
	C173.458130,495.515686 155.673447,484.876007 139.304260,472.381775 
	C123.657005,460.438568 109.380821,446.669098 97.824661,430.441956 
	C91.821030,422.011658 85.101051,414.010315 79.870834,405.128479 
	C70.904526,389.902069 63.863300,373.677765 59.071148,356.622406 
	C55.024899,342.221710 52.898457,327.529877 51.738773,312.535889 
	C50.509937,296.647827 51.198673,281.015503 54.124828,265.533997 
	C57.199680,249.265808 60.113388,232.794159 65.277390,217.130035 
	C75.846397,185.070770 91.333687,155.216202 110.961655,127.715034 
	C120.954002,113.714531 131.524002,100.052605 142.745346,87.023483 
	C154.179718,73.747017 166.410385,61.105984 178.910004,48.814804 
	C187.403793,40.462650 196.928162,33.152561 206.087082,25.490519 
	C207.214310,24.547531 208.931442,24.309679 211.219162,24.605581 
	C208.423752,28.922871 205.525421,33.177452 202.850235,37.567997 
	C189.207474,59.958637 175.082596,82.078194 162.150574,104.873619 
	C145.089966,134.946579 130.603928,166.316238 120.964088,199.614075 
	C116.453285,215.195251 112.873260,231.136322 110.227280,247.138474 
	C108.094902,260.034485 106.905472,273.295624 107.243973,286.344299 
	C107.821396,308.602997 112.281387,330.191620 121.822044,350.659058 
	C129.275589,366.649109 139.020691,380.866394 150.529984,394.153198 
	C169.226074,415.736664 191.734726,432.444824 216.038284,446.982910 
	C223.214020,451.275299 223.638077,451.234833 225.210419,443.277679 
	C226.876266,434.847107 227.996124,426.289124 228.948135,417.741516 
	C230.468384,404.091949 231.654099,390.405121 232.973984,376.733368 
	C233.021851,376.237427 232.990112,375.734039 233.000244,375.234222 
	C233.333145,358.815704 234.030060,342.394043 233.887573,325.979645 
	C233.768860,312.303894 233.035507,298.605774 231.897369,284.974091 
	C230.676743,270.354401 229.023575,255.747971 226.888016,241.234512 
	C225.105057,229.117111 222.686386,217.063217 219.859924,205.144669 
	C218.781265,200.596222 215.650574,196.562866 213.684036,192.191742 
	C203.062500,168.582764 214.095856,142.137222 239.972382,137.377258 
	C268.188080,132.186996 288.170319,152.870148 285.745697,179.340103 
	C285.217194,185.109665 281.290588,190.504181 279.406342,196.228546 
	C276.707825,204.426636 273.706146,212.633514 272.161499,221.079407 
	C269.271729,236.880173 266.983795,252.814316 265.123199,268.772003 
	C263.829346,279.868958 263.401550,291.089752 263.060394,302.269684 
	C262.503662,320.514648 261.997498,338.773529 262.113464,357.022430 
	C262.196167,370.030365 262.551331,383.129974 264.169769,396.014740 
	C267.263000,420.640411 271.287445,445.150726 275.068085,469.686920 
	C275.726746,473.961548 276.825775,478.218231 278.240448,482.303467 
	C278.864014,484.104034 280.548126,485.779297 282.156219,486.958527 
	C294.546204,496.044281 307.129333,504.868011 319.471222,514.017639 
	C335.893768,526.192383 350.710083,540.172607 365.209167,554.571106 
	C388.755463,577.954041 408.025238,604.302612 421.731873,634.512512 
	C428.923889,650.363953 434.408752,666.934204 435.898193,684.409302 
	C437.087433,698.362183 438.782654,712.517822 437.612152,726.360107 
	C436.314880,741.701233 432.561127,756.921021 428.901123,771.956116 
	C422.977295,796.290649 412.254700,818.827393 400.524933,840.786072 
	C387.077789,865.959717 371.720398,889.992615 354.621735,912.881348 
	C341.923676,929.879395 329.285980,946.922485 316.565247,963.903503 
	C313.061188,968.581055 309.379608,973.127136 305.699371,977.668579 
	C305.384308,978.057312 304.463379,977.955017 302.903320,978.261902 
	C303.318878,976.290894 303.357361,974.607849 304.015015,973.217712 
	C311.780945,956.802795 319.743408,940.480408 327.453033,924.039368 
	C346.105927,884.261169 365.699249,844.836426 378.002045,802.458435 
	C382.479248,787.036438 386.150208,771.284363 388.757996,755.447266 
	C390.699188,743.658203 391.540894,731.410522 390.758789,719.505981 
	C388.894897,691.135681 379.841217,664.800598 363.003510,641.801331 
	C353.082123,628.249268 342.571167,614.737000 330.307892,603.386597 
	C313.506866,587.836243 294.804901,574.337219 276.871490,560.016785 
	C275.085999,558.591064 272.980988,557.565369 269.861786,555.634399 
	C268.142975,571.530396 266.398102,586.052246 265.057190,600.611328 
	C264.092377,611.086975 263.379303,621.603760 263.063049,632.117432 
	C262.504211,650.695740 261.710724,669.301758 262.190033,687.865906 
	C262.599609,703.729187 264.437134,719.572327 266.052704,735.382568 
	C267.392090,748.489868 268.862732,761.617920 271.141388,774.584656 
	C273.125977,785.877808 275.455017,796.876404 281.369415,807.425537 
	C294.226868,830.358643 280.411560,858.042786 255.744553,863.103027 
	C242.722534,865.774414 231.592178,862.176697 221.855667,854.138977 
	C214.491684,848.059875 210.758087,839.612305 209.988205,829.969116 
	C209.156250,819.547974 212.272400,810.568359 217.415970,801.373108 
	C221.351608,794.337402 222.266235,785.491089 223.913666,777.326843 
	C225.931137,767.328735 227.470032,757.224670 228.911530,747.122986 
	C229.880737,740.330933 230.569809,733.477356 230.949265,726.627136 
	C231.779861,711.632629 232.381332,696.624634 232.984070,681.618469 
	C233.402374,671.203125 234.082275,660.774109 233.895935,650.364685 
	C233.657043,637.019287 232.940918,623.666199 231.919174,610.355713 
	C230.957352,597.825867 229.811737,585.272156 227.878311,572.864258 
	C225.367722,556.752563 222.127029,540.748108 218.822937,524.775513 
	C218.440903,522.928711 215.866470,521.222900 213.940262,520.063477 
	C206.501358,515.585815 198.913101,511.356171 191.002289,507.000061 
z"/>
<path fill="#FFFFFF" opacity="1.000000" stroke="none" 
	d="
M518.207703,429.324280 
	C503.904175,434.825134 489.434448,437.749695 474.465790,436.933136 
	C454.193878,435.827301 435.660797,430.028015 419.391113,417.090088 
	C399.461548,401.241821 388.124176,380.227814 381.291718,356.456146 
	C376.002563,338.053986 375.782532,318.922150 377.248779,300.098602 
	C379.221649,274.770782 387.319305,251.001572 403.617004,231.187134 
	C417.741302,214.015076 435.480042,201.763412 458.215546,197.916061 
	C477.239502,194.696762 495.855957,195.100677 514.033752,202.001343 
	C529.374207,207.824875 541.937927,217.285583 552.613220,229.892105 
	C567.050659,246.941452 574.956421,266.833008 578.697388,288.264862 
	C580.919128,300.992584 581.335632,314.255981 580.764526,327.199127 
	C579.898254,346.828674 575.211426,365.866302 565.869873,383.323212 
	C555.040588,403.560486 540.066589,419.797455 518.207703,429.324280 
M427.027893,241.700867 
	C424.678009,246.794495 421.987610,251.761444 420.037323,257.003723 
	C411.748688,279.283386 409.752838,302.329590 410.804688,325.997528 
	C411.612854,344.182648 414.168091,361.800262 421.038971,378.663147 
	C426.441437,391.922028 434.123444,403.674652 446.064514,411.940613 
	C458.874756,420.808319 473.006226,423.641907 488.590393,421.130981 
	C508.227570,417.966980 521.323608,406.400482 530.940918,390.075470 
	C541.506897,372.140198 545.445557,352.110779 546.785950,331.772064 
	C548.050781,312.579498 547.524048,293.232758 542.922363,274.365845 
	C538.599243,256.641052 532.017822,240.126724 518.534851,226.819580 
	C504.944611,213.406616 488.615021,209.265106 470.571442,211.275696 
	C463.638794,212.048187 456.766052,215.248077 450.351624,218.347015 
	C440.251709,223.226486 433.542572,231.938690 427.027893,241.700867 
z"/>
<path fill="#FFFFFF" opacity="1.000000" stroke="none" 
	d="
M582.000000,723.999939 
	C582.000000,731.475952 582.000000,738.452087 582.000000,745.713379 
	C572.048584,745.713379 562.310669,745.713379 552.000000,745.713379 
	C552.000000,744.021118 552.000000,742.255859 552.000000,740.490662 
	C552.000000,681.340271 552.087463,622.189636 551.870972,563.040039 
	C551.848206,556.815125 550.158997,550.574158 549.022766,544.381042 
	C547.510254,536.136780 540.518555,530.546875 530.811035,530.983459 
	C528.352966,531.093994 525.885742,531.000000 523.214111,531.000000 
	C523.214111,528.248047 523.214111,525.843140 523.214111,523.217407 
	C584.734253,523.217407 646.132568,523.217407 707.765564,523.217407 
	C707.765564,597.381653 707.765564,671.438965 707.765564,745.748291 
	C697.976440,745.748291 688.239441,745.748291 678.119385,745.748291 
	C678.119385,676.649475 678.119385,607.590210 678.119385,538.265991 
	C646.007446,538.265991 614.274963,538.265991 582.000000,538.265991 
	C582.000000,600.000122 582.000000,661.750061 582.000000,723.999939 
z"/>
<path fill="#FFFFFF" opacity="1.000000" stroke="none" 
	d="
M1373.122559,736.386230 
	C1373.495239,738.191956 1373.962524,739.597595 1373.967163,741.004822 
	C1374.019287,756.664551 1373.875854,772.326172 1374.086060,787.983276 
	C1374.139526,791.973328 1372.934448,793.187622 1368.967163,793.088074 
	C1360.593262,792.877869 1360.953613,792.669983 1359.835449,784.266113 
	C1358.223511,772.149475 1356.220459,759.873596 1347.021729,750.551086 
	C1342.741943,746.213745 1337.258667,744.100342 1331.303467,744.064819 
	C1305.815308,743.912598 1280.320190,743.686829 1254.839233,744.138855 
	C1243.018799,744.348572 1235.289917,750.522461 1231.139404,763.563599 
	C1228.714233,771.183411 1227.769165,779.265686 1225.928467,787.085815 
	C1225.446167,789.134827 1224.381836,792.395996 1223.105469,792.645142 
	C1219.831543,793.284241 1216.261230,792.713318 1212.882568,792.171143 
	C1212.384644,792.091187 1212.042114,789.536255 1212.036865,788.124939 
	C1211.978149,772.465210 1211.989014,756.805237 1212.005493,741.145325 
	C1212.012085,734.886230 1216.348633,729.467407 1222.436035,730.236938 
	C1230.515869,731.258240 1233.585693,727.425232 1235.742920,720.754395 
	C1240.961792,704.615967 1245.574707,688.353210 1246.974121,671.372070 
	C1248.106079,657.636475 1249.589478,643.888245 1249.752563,630.131897 
	C1249.834595,623.208618 1247.924316,616.066528 1245.812134,609.371277 
	C1243.961670,603.505554 1238.173096,601.771484 1232.588135,601.110413 
	C1229.718872,600.770813 1228.348022,599.597046 1229.158569,597.123047 
	C1229.589355,595.808594 1231.632935,594.135071 1232.954712,594.129395 
	C1270.937744,593.969116 1308.921631,594.055908 1346.904785,593.926392 
	C1351.434448,593.910950 1351.015991,596.526428 1351.014526,599.453369 
	C1350.993164,640.435669 1350.999878,681.417969 1351.000244,722.400269 
	C1351.000366,729.999878 1351.005493,730.153320 1358.561157,729.950378 
	C1364.376465,729.794189 1369.745850,730.236328 1373.122559,736.386230 
M1270.000122,640.445435 
	C1269.001099,651.858093 1268.056641,663.275818 1266.990234,674.682129 
	C1265.392212,691.773621 1262.039673,708.484314 1256.071777,724.633667 
	C1254.537476,728.785645 1255.533691,729.991760 1260.051025,729.994690 
	C1279.371948,730.007202 1298.694092,729.894043 1318.013062,730.086548 
	C1322.037720,730.126587 1323.113159,728.860474 1323.081299,724.939209 
	C1322.909546,703.787537 1323.000000,682.633667 1323.000000,661.480591 
	C1323.000000,645.157715 1322.971558,628.834778 1323.025879,612.512085 
	C1323.035889,609.522888 1322.420288,607.054199 1318.913696,607.034973 
	C1304.256958,606.954712 1289.598999,606.952881 1274.942505,607.056580 
	C1272.841309,607.071472 1270.970703,607.649902 1270.927490,610.722046 
	C1270.792358,620.304504 1270.333496,629.882385 1270.000122,640.445435 
z"/>
<path fill="#FFFFFF" opacity="1.000000" stroke="none" 
	d="
M1826.698730,438.983337 
	C1821.100464,438.315094 1815.906616,437.866608 1810.816528,436.881775 
	C1806.043945,435.958405 1806.838257,432.073792 1807.191528,428.183685 
	C1822.303711,426.100464 1828.639771,413.730957 1835.719727,402.512909 
	C1841.199829,393.829712 1845.786621,384.583160 1850.781494,375.593140 
	C1852.743652,372.061737 1852.454834,370.399963 1847.903320,368.780029 
	C1835.030029,364.198425 1824.653687,356.192566 1820.957886,342.350403 
	C1816.720093,326.478058 1817.650513,311.321320 1830.494629,299.033722 
	C1838.302979,291.563477 1848.166748,288.478668 1858.461426,287.126587 
	C1868.044067,285.868042 1877.759155,285.234741 1887.427368,285.090118 
	C1907.419922,284.791107 1927.420044,284.999237 1947.417114,285.001221 
	C1949.565918,285.001434 1951.937500,284.584473 1952.015137,287.936340 
	C1952.081909,290.819153 1951.136719,292.636566 1947.961548,293.027252 
	C1938.239502,294.223480 1933.192383,299.451782 1932.053711,309.842010 
	C1931.427856,315.553925 1931.060425,321.323364 1931.045044,327.068146 
	C1930.953857,361.062836 1930.894653,395.058563 1931.115967,429.052063 
	C1931.148315,434.019501 1929.612549,435.338928 1924.891846,435.095551 
	C1917.776733,434.728760 1910.628540,435.000000 1903.000000,435.000000 
	C1903.000000,424.772614 1903.000000,414.832245 1903.000000,404.891907 
	C1903.000000,395.726624 1902.923950,386.560364 1903.037109,377.396484 
	C1903.083130,373.660583 1901.640869,371.813873 1897.793335,371.981384 
	C1895.464722,372.082733 1893.056885,372.368835 1890.807861,371.934387 
	C1882.301514,370.291351 1878.199219,374.220856 1874.798340,381.826019 
	C1868.644409,395.587860 1861.740479,409.084290 1854.155029,422.112366 
	C1848.746094,431.402039 1840.486206,437.764557 1828.887573,438.073853 
	C1828.300415,438.089478 1827.727905,438.657898 1826.698730,438.983337 
M1864.548462,356.069916 
	C1874.371338,360.763428 1884.602295,360.698181 1894.958740,358.525970 
	C1898.517822,357.779480 1903.058716,358.215729 1903.028320,352.397583 
	C1902.944824,336.423645 1902.990112,320.449005 1903.007690,304.474640 
	C1903.010986,301.454224 1901.527466,299.473572 1898.648926,299.061646 
	C1890.474121,297.891785 1882.375854,295.898590 1873.968628,297.926880 
	C1867.288940,299.538391 1860.660767,301.629211 1856.081177,306.652283 
	C1845.404907,318.362152 1845.071533,347.952179 1864.548462,356.069916 
z"/>
<path fill="#FFFFFF" opacity="1.000000" stroke="none" 
	d="
M1609.000000,380.022522 
	C1609.000000,366.999969 1609.000000,366.999969 1596.481445,367.000000 
	C1582.485107,367.000000 1568.487549,367.097382 1554.493164,366.932312 
	C1550.948120,366.890472 1549.912964,368.100189 1549.937012,371.558105 
	C1550.069092,390.552277 1549.906494,409.548676 1550.067139,428.542389 
	C1550.106201,433.160980 1549.135254,435.558472 1543.781128,435.109802 
	C1537.989990,434.624542 1532.112915,434.756470 1526.299438,435.081909 
	C1522.122925,435.315643 1520.885986,433.971893 1520.908447,429.744751 
	C1521.076660,398.087158 1521.067139,366.428009 1520.954224,334.769928 
	C1520.924805,326.526276 1520.822876,318.227722 1519.873779,310.056671 
	C1518.737915,300.277405 1515.131714,292.481842 1501.846191,292.954620 
	C1500.458496,293.003998 1498.744507,292.817200 1497.727417,292.032837 
	C1496.519775,291.101410 1495.177490,289.361420 1495.255249,288.052673 
	C1495.319214,286.976471 1497.386841,285.126434 1498.541626,285.145264 
	C1510.605103,285.342499 1522.765869,285.040039 1534.688354,286.546967 
	C1542.883789,287.582764 1547.278687,294.555603 1547.863647,302.534515 
	C1548.996582,317.988861 1549.336426,333.501373 1549.993652,348.990265 
	C1550.042236,350.135315 1550.000000,351.284271 1550.000000,352.711578 
	C1569.615356,352.711578 1589.017700,352.711578 1609.000000,352.711578 
	C1609.000000,349.876678 1609.000000,346.940002 1609.000000,344.003326 
	C1609.000000,327.174347 1609.055420,310.345093 1608.976685,293.516479 
	C1608.937012,285.032227 1610.736206,284.572601 1617.186157,284.945129 
	C1622.002197,285.223328 1626.858643,285.207520 1631.676025,284.941101 
	C1636.405884,284.679535 1638.089111,286.518280 1638.072021,291.279877 
	C1637.940796,327.769989 1637.887207,364.261536 1638.126587,400.750549 
	C1638.160767,405.978912 1639.793335,411.217255 1640.865967,416.413879 
	C1642.756958,425.575623 1650.049927,427.416687 1656.419678,427.981262 
	C1657.907959,428.113190 1659.709473,427.501038 1660.840820,428.149200 
	C1662.182617,428.918060 1663.361694,430.562988 1663.793091,432.063446 
	C1663.990234,432.749207 1662.222778,434.866486 1661.356445,434.860504 
	C1649.447021,434.777802 1637.529541,434.650604 1625.634644,434.093811 
	C1616.053955,433.645386 1612.030273,425.907684 1611.155151,417.471161 
	C1609.883301,405.210785 1609.666748,392.840942 1609.000000,380.022522 
z"/>
<path fill="#FFFFFF" opacity="1.000000" stroke="none" 
	d="
M1445.977905,408.234589 
	C1445.639282,406.018799 1445.057739,404.270020 1445.042969,402.516388 
	C1444.955444,392.184357 1444.879639,381.849060 1445.066772,371.519684 
	C1445.130493,368.004211 1443.958740,366.904572 1440.466309,366.934998 
	C1423.801880,367.080139 1407.135010,367.061096 1390.469849,366.956421 
	C1386.383301,366.930756 1384.932983,368.657593 1384.954346,372.633240 
	C1385.056274,391.631653 1385.000000,410.630890 1385.000000,429.629852 
	C1385.000000,431.262054 1385.000000,432.894287 1385.000000,434.997650 
	C1376.414917,434.997650 1368.133911,435.103912 1359.863525,434.857086 
	C1358.880127,434.827728 1357.676025,433.002319 1357.090942,431.765045 
	C1356.640015,430.811493 1356.999878,429.474304 1356.999878,428.307709 
	C1356.999878,392.809662 1357.139282,357.310577 1356.865479,321.814636 
	C1356.818604,315.763672 1355.464355,309.603180 1353.890869,303.713226 
	C1351.814453,295.941010 1347.310669,293.073730 1339.285156,292.960571 
	C1337.381836,292.933746 1335.318604,292.774597 1333.643433,291.997925 
	C1332.484131,291.460388 1330.956543,289.489716 1331.208618,288.637207 
	C1331.626343,287.225159 1333.371460,285.142639 1334.512207,285.170746 
	C1347.155762,285.481812 1359.960693,283.345612 1372.398438,287.158234 
	C1380.404785,289.612518 1383.364136,296.291687 1383.829468,303.532471 
	C1384.742432,317.739166 1384.710693,332.008606 1384.980591,346.253754 
	C1385.108398,352.996155 1385.015015,352.999359 1391.422363,352.999695 
	C1407.588135,353.000549 1423.755249,352.887878 1439.918701,353.081116 
	C1443.819702,353.127716 1445.129517,352.078430 1445.087524,348.027893 
	C1444.890747,329.030975 1445.088745,310.030182 1444.935181,291.032471 
	C1444.898560,286.504761 1446.570312,284.753906 1451.073120,284.942841 
	C1456.729492,285.180176 1462.410278,285.173401 1468.067505,284.945618 
	C1472.667725,284.760437 1474.075806,286.757599 1474.062866,291.172516 
	C1473.953003,328.670105 1473.881226,366.169006 1474.136963,403.665161 
	C1474.172363,408.871521 1475.275146,414.390625 1477.274658,419.184753 
	C1479.937378,425.569122 1485.830688,428.023712 1492.690186,428.007233 
	C1499.276245,427.991394 1499.276367,428.017639 1498.733765,434.038544 
	C1486.147827,434.038544 1473.609131,434.367676 1461.097778,433.924377 
	C1452.568359,433.622192 1449.076660,427.067413 1447.128418,419.893890 
	C1446.158691,416.323334 1446.337646,412.440765 1445.977905,408.234589 
z"/>
<path fill="#FFFFFF" opacity="1.000000" stroke="none" 
	d="
M1116.000000,353.000000 
	C1122.496948,353.000000 1128.500610,352.831421 1134.488647,353.063904 
	C1138.018555,353.200989 1139.088013,351.940369 1139.063965,348.460358 
	C1138.930420,329.137329 1139.134277,309.811279 1138.899170,290.490204 
	C1138.844849,286.029938 1140.189575,284.627991 1144.563721,284.916840 
	C1149.871216,285.267273 1155.228638,285.191040 1160.547729,284.942291 
	C1165.182251,284.725525 1167.164551,285.908844 1167.128540,291.215393 
	C1166.883057,327.362793 1166.796143,363.514801 1167.181274,399.659790 
	C1167.253540,406.446198 1168.833618,413.529633 1171.259155,419.888092 
	C1173.595703,426.012878 1179.705078,427.899414 1186.179810,428.073425 
	C1188.161377,428.126709 1190.629639,428.492645 1191.967163,429.711639 
	C1193.914673,431.486542 1193.857422,434.796143 1190.715942,434.819397 
	C1178.493286,434.909851 1166.203857,435.002960 1154.059204,433.840759 
	C1143.769897,432.856018 1140.574585,423.820129 1140.138916,416.235046 
	C1139.322754,402.024323 1139.297729,387.766785 1139.016602,373.527283 
	C1138.896729,367.464264 1138.532593,367.005402 1132.430054,367.002533 
	C1116.604370,366.995087 1100.778198,367.075012 1084.953491,366.949402 
	C1080.786255,366.916321 1078.821167,367.887756 1078.889038,372.713013 
	C1079.158569,391.866577 1078.919067,411.026764 1079.070923,430.182922 
	C1079.099976,433.854889 1078.052490,435.198395 1074.266113,435.074280 
	C1066.653809,434.824646 1059.027588,435.000000 1051.000000,435.000000 
	C1051.000000,432.841827 1051.000000,431.055908 1051.000000,429.269989 
	C1051.000000,396.619202 1051.128540,363.967590 1050.908203,331.318268 
	C1050.854248,323.325623 1050.020752,315.289124 1048.893188,307.365662 
	C1047.577148,298.116272 1041.074829,293.118195 1031.683105,292.931274 
	C1029.519775,292.888245 1027.116089,292.393188 1025.341553,291.279755 
	C1024.591187,290.808990 1024.706665,287.982697 1025.326416,286.641907 
	C1025.750732,285.723724 1027.734497,285.050079 1029.005615,285.074402 
	C1039.580688,285.276581 1050.161133,285.495789 1060.721802,286.052277 
	C1069.646851,286.522552 1076.266357,292.544495 1076.890747,301.522736 
	C1077.954102,316.812805 1078.529175,332.145996 1078.875854,347.470886 
	C1078.974609,351.839813 1080.088379,353.231415 1084.518188,353.098633 
	C1094.837158,352.789337 1105.171753,353.000000 1116.000000,353.000000 
z"/>
<path fill="#FFFFFF" opacity="1.000000" stroke="none" 
	d="
M841.613647,287.231384 
	C862.219971,297.371857 873.281677,314.318726 878.246765,335.685913 
	C883.555054,358.530548 882.445557,380.924133 872.168457,402.357178 
	C863.005615,421.466217 848.147461,434.146698 827.208679,437.697205 
	C804.463196,441.554077 783.363831,437.070496 766.996826,419.347382 
	C756.350220,407.818634 750.279846,393.843292 748.031189,378.301758 
	C747.167969,372.335236 745.909424,366.284393 746.160828,360.328125 
	C746.652222,348.689850 747.757202,337.027374 752.029053,325.987915 
	C758.586121,309.042877 768.980347,295.392303 785.879822,287.634399 
	C798.357971,281.906158 811.480591,280.429504 824.957458,283.016022 
	C830.451416,284.070465 835.840088,285.673431 841.613647,287.231384 
M781.001648,327.666016 
	C777.665466,338.962036 776.018738,350.540070 776.107605,362.276825 
	C776.150452,367.939209 777.156372,373.620453 778.033386,379.245239 
	C780.287292,393.700287 784.820862,407.073059 795.915771,417.491272 
	C806.721191,427.637726 821.917236,427.226501 832.067017,417.411743 
	C845.063721,404.844116 849.524902,388.435150 850.722290,371.346832 
	C851.519470,359.970306 850.465698,348.290436 848.793884,336.959747 
	C846.824524,323.612335 841.445251,311.481537 830.829834,302.322784 
	C818.125427,291.361725 801.343506,294.966522 792.221497,306.751526 
	C787.582092,312.745300 784.702087,320.100861 781.001648,327.666016 
z"/>
<path fill="#FFFFFF" opacity="1.000000" stroke="none" 
	d="
M744.014771,687.663452 
	C743.667969,677.976807 742.539978,668.680908 743.168945,659.505432 
	C744.395081,641.617188 749.805847,625.124939 762.071716,611.357971 
	C773.372681,598.674011 787.106812,591.958801 804.262329,590.799194 
	C821.112915,589.660217 836.175903,592.885620 849.739685,603.169373 
	C863.627930,613.699097 870.796082,628.283508 874.853333,644.568298 
	C876.686829,651.927490 877.949036,659.682739 877.816589,667.229187 
	C877.459595,687.561890 873.662231,707.263550 860.602295,723.644653 
	C850.797241,735.943237 838.109619,743.890747 821.996277,746.117126 
	C808.269897,748.013794 794.939270,747.387207 782.329773,741.627686 
	C763.728821,733.131531 753.092834,717.732117 747.030457,698.754517 
	C745.909180,695.244385 745.022461,691.659180 744.014771,687.663452 
M806.859497,733.000061 
	C810.289246,732.786926 813.912415,733.216125 817.115845,732.251465 
	C832.413574,727.645203 838.512085,714.760803 842.815186,701.250183 
	C847.160767,687.606262 848.843323,673.514526 847.182617,658.943054 
	C845.515259,644.312927 842.767273,630.294067 833.990540,618.136780 
	C822.465393,602.172546 804.992065,598.467102 790.172241,613.464294 
	C778.590759,625.184509 774.595337,640.596802 773.267639,656.220398 
	C771.858459,672.802124 772.341736,689.568665 778.977417,705.441956 
	C784.329895,718.245422 791.273071,729.387390 806.859497,733.000061 
z"/>
<path fill="#FFFFFF" opacity="1.000000" stroke="none" 
	d="
M1199.983398,638.127441 
	C1204.944702,653.482666 1205.393188,668.819885 1202.857056,684.121460 
	C1201.480347,692.428528 1199.049438,700.712830 1195.942139,708.550781 
	C1188.649536,726.945618 1175.203003,739.577393 1156.164429,744.727600 
	C1140.017090,749.095642 1123.645386,748.361206 1108.049927,741.024902 
	C1092.270020,733.601746 1082.711426,720.597961 1076.089355,705.165833 
	C1069.328247,689.409851 1068.771851,672.573547 1070.223267,655.941895 
	C1071.734619,638.623657 1078.059204,622.606262 1090.044067,609.668518 
	C1100.502197,598.378784 1113.627441,592.203003 1129.322632,590.785950 
	C1139.599731,589.858154 1149.518799,590.515869 1159.071411,593.687988 
	C1179.613037,600.509155 1191.896729,615.631775 1199.005737,635.499695 
	C1199.276367,636.255554 1199.643799,636.976746 1199.983398,638.127441 
M1154.938965,726.577942 
	C1161.381714,720.401733 1165.545776,712.786438 1168.764771,704.589172 
	C1173.278931,693.094666 1174.235718,680.877563 1174.743164,668.809021 
	C1175.079956,660.801270 1173.378662,652.622070 1171.914551,644.643616 
	C1169.498901,631.480347 1164.278198,619.529968 1153.960571,610.526611 
	C1145.978760,603.561462 1134.612427,601.963867 1124.833984,607.461731 
	C1114.284668,613.393005 1109.098755,623.123108 1105.107666,633.605469 
	C1100.223877,646.432068 1098.782593,659.948303 1100.087891,673.588745 
	C1100.965942,682.762756 1102.037964,692.012268 1104.200195,700.943054 
	C1106.411011,710.074890 1110.885254,718.619019 1117.797241,725.075623 
	C1128.255371,734.844849 1142.117676,736.501282 1154.938965,726.577942 
z"/>
<path fill="#FFFFFF" opacity="1.000000" stroke="none" 
	d="
M1610.752563,656.998657 
	C1615.308838,656.664917 1619.387573,656.155945 1623.476929,656.047363 
	C1627.980591,655.927856 1629.886475,653.842468 1630.048218,649.373047 
	C1630.452515,638.197754 1628.977661,627.447083 1619.474609,620.327820 
	C1614.791870,616.819702 1608.767090,614.336487 1602.992798,613.196716 
	C1586.178711,609.877808 1575.224487,619.500061 1565.747070,631.652771 
	C1562.740723,635.507935 1559.760498,639.423157 1556.354736,642.906616 
	C1555.100952,644.189148 1552.653442,644.717957 1550.753906,644.710754 
	C1550.163574,644.708557 1549.019165,641.787903 1549.086304,640.244812 
	C1549.856445,622.528442 1557.538330,608.593506 1572.611572,599.102844 
	C1591.254639,587.364380 1627.333862,591.821594 1642.660645,611.159851 
	C1650.431519,620.964355 1655.279785,632.304260 1656.753906,644.502197 
	C1658.177124,656.280457 1658.189697,668.308105 1657.853271,680.198730 
	C1657.496826,692.800293 1655.792236,705.358704 1655.131348,717.959839 
	C1654.943481,721.542664 1656.023193,725.306580 1657.097412,728.810913 
	C1658.348999,732.894714 1663.365723,734.543274 1668.368530,732.853455 
	C1669.716919,732.398071 1670.932129,731.548462 1673.296143,731.414856 
	C1672.663696,732.979614 1672.417725,734.909546 1671.338257,736.051941 
	C1661.515137,746.447449 1645.135132,750.895691 1633.727051,737.176636 
	C1630.408081,733.185303 1627.457642,733.527466 1623.184082,736.116272 
	C1613.744629,741.834412 1603.641602,746.132446 1592.254761,745.982239 
	C1586.811890,745.910400 1581.311523,746.102112 1575.941040,745.390320 
	C1559.325806,743.188110 1545.452759,722.957336 1543.785767,707.131592 
	C1542.479492,694.730896 1545.921509,684.364929 1554.037476,675.712769 
	C1561.092041,668.191956 1570.528687,663.708984 1580.457153,661.417725 
	C1590.217896,659.165100 1600.324829,658.411377 1610.752563,656.998657 
M1630.000000,700.434814 
	C1630.000000,693.943237 1630.002319,687.451599 1629.999268,680.960022 
	C1629.996338,675.068481 1627.699097,672.285889 1621.911865,670.992004 
	C1608.594360,668.014648 1596.684692,671.325928 1585.586914,678.808044 
	C1574.677734,686.163025 1565.751465,701.301453 1575.875122,716.861328 
	C1580.149536,723.430908 1585.216919,727.165100 1593.244995,727.067810 
	C1603.510620,726.943359 1612.030518,722.311340 1620.833618,717.851257 
	C1627.941528,714.250000 1631.201660,709.267090 1630.000000,700.434814 
z"/>
<path fill="#FFFFFF" opacity="1.000000" stroke="none" 
	d="
M1218.222168,301.372314 
	C1229.995483,288.094604 1244.863770,283.724304 1261.637451,285.067474 
	C1274.781128,286.119965 1287.019165,290.288330 1296.735474,299.459564 
	C1305.122314,307.375977 1309.845459,317.811249 1312.834717,328.775299 
	C1316.228027,341.221619 1316.579468,354.092926 1315.941772,366.912903 
	C1315.182983,382.169708 1313.818970,397.397430 1313.148926,412.656738 
	C1313.010742,415.804169 1314.456787,419.169495 1315.739014,422.194336 
	C1317.434570,426.193848 1320.600220,426.843628 1324.562256,425.180176 
	C1326.422119,424.399323 1328.552368,424.262634 1330.560059,423.833984 
	C1330.888916,424.213745 1331.217773,424.593506 1331.546631,424.973267 
	C1330.258545,426.586700 1329.185303,428.449738 1327.647339,429.772522 
	C1318.411743,437.716034 1306.508545,442.062775 1295.231445,433.001434 
	C1294.023315,432.030701 1292.894531,430.881958 1291.989624,429.627716 
	C1289.054565,425.559692 1286.042969,424.841888 1281.975464,427.524658 
	C1270.317993,435.213715 1257.446045,438.954193 1243.557129,438.961090 
	C1226.028564,438.969788 1213.791992,430.236664 1206.049072,414.987549 
	C1200.570679,404.198120 1199.231445,392.892914 1203.325806,381.196014 
	C1207.229980,370.042389 1215.663818,362.945099 1225.709229,358.271942 
	C1241.376343,350.983673 1258.226440,348.228027 1275.504761,349.066803 
	C1284.976929,349.526672 1288.730957,347.464050 1287.868774,336.039703 
	C1287.512451,331.316956 1286.094849,326.565369 1284.491455,322.065033 
	C1278.515625,305.291046 1251.342407,300.424957 1238.422607,309.638580 
	C1229.373413,316.091980 1223.011230,324.608490 1216.032715,332.775513 
	C1215.625610,333.252075 1215.518066,334.061798 1215.044800,334.391052 
	C1213.251465,335.638550 1211.364746,336.751984 1209.513062,337.915588 
	C1208.675415,335.759338 1207.235840,333.640015 1207.100952,331.440674 
	C1206.399048,319.990204 1211.673706,310.610504 1218.222168,301.372314 
M1280.046753,363.020477 
	C1268.072510,360.507111 1256.984985,362.804047 1246.481812,368.911102 
	C1232.151001,377.243866 1222.961548,392.946808 1233.864258,409.602600 
	C1238.076782,416.037689 1243.788574,420.024750 1251.011719,419.738403 
	C1260.537842,419.360748 1269.185913,415.077759 1277.700195,410.809052 
	C1285.691406,406.802612 1289.070923,400.893372 1288.122437,391.894989 
	C1287.480347,385.803528 1288.025635,379.589478 1287.992188,373.430511 
	C1287.964966,368.413910 1286.002808,364.716980 1280.046753,363.020477 
z"/>
<path fill="#FFFFFF" opacity="1.000000" stroke="none" 
	d="
M1696.372559,357.238373 
	C1711.531128,351.024567 1726.975098,348.350098 1742.912842,349.062195 
	C1754.435791,349.577026 1757.156860,346.200745 1755.821045,335.648590 
	C1755.072876,329.738586 1753.415649,323.564056 1750.575195,318.381714 
	C1745.489380,309.102875 1736.116821,306.137177 1726.174561,305.017609 
	C1710.891724,303.296600 1701.107300,312.417480 1692.066528,322.713684 
	C1688.431396,326.853516 1685.334717,331.464844 1681.726318,335.630493 
	C1680.747681,336.760040 1677.944458,337.981903 1677.457031,337.538086 
	C1676.197876,336.391327 1675.222412,334.380005 1675.088379,332.640472 
	C1674.247803,321.721924 1678.745117,312.380585 1684.795410,303.851685 
	C1690.944824,295.183258 1699.305298,289.059692 1709.815796,286.719147 
	C1728.074219,282.653290 1745.376221,285.106140 1760.697144,296.315765 
	C1773.381470,305.596252 1779.771362,319.004700 1781.813843,334.121460 
	C1783.416626,345.985107 1784.020142,358.088257 1783.819214,370.064056 
	C1783.582642,384.161896 1781.638550,398.226013 1781.201782,412.328491 
	C1781.054932,417.065033 1781.120972,423.120392 1787.537598,424.953583 
	C1789.649292,425.556885 1792.113525,425.091003 1794.394165,424.876373 
	C1795.766846,424.747162 1797.096313,424.159607 1798.831177,423.668793 
	C1798.831177,425.001099 1799.129028,425.948883 1798.787109,426.498718 
	C1792.573242,436.489868 1775.992920,440.897064 1766.124390,434.925934 
	C1763.219482,433.168274 1760.865845,430.423370 1758.462158,427.935303 
	C1756.117188,425.507996 1754.079468,425.420288 1751.143066,427.231323 
	C1740.301514,433.917969 1728.542847,438.416626 1715.743530,438.916504 
	C1692.244019,439.834290 1678.525635,429.029114 1671.039795,406.503632 
	C1666.202148,391.946899 1669.703735,378.786377 1679.932739,367.947113 
	C1684.208618,363.416199 1690.606201,360.887390 1696.372559,357.238373 
M1750.320435,407.969971 
	C1752.213623,405.070831 1755.497681,402.282501 1755.739014,399.251831 
	C1756.463379,390.156799 1756.084473,380.965942 1755.960449,371.814911 
	C1755.907104,367.876862 1754.008179,364.962280 1749.970093,363.993866 
	C1746.701660,363.210052 1743.390991,362.175812 1740.076660,362.086578 
	C1728.342651,361.770752 1717.704224,365.479065 1708.770386,372.922699 
	C1700.519531,379.797241 1693.821045,390.429108 1698.958618,403.908539 
	C1702.521484,413.256165 1711.409912,420.934784 1719.385010,419.894958 
	C1730.348511,418.465485 1740.455688,414.398041 1750.320435,407.969971 
z"/>
<path fill="#FFFFFF" opacity="1.000000" stroke="none" 
	d="
M1491.238037,620.267944 
	C1481.455811,634.717346 1471.878174,648.866455 1462.509033,663.152222 
	C1461.764526,664.287476 1461.798706,666.857971 1462.592041,667.937866 
	C1473.330200,682.554810 1483.841919,697.373901 1495.322388,711.395691 
	C1501.695923,719.180298 1509.584106,725.783997 1517.189209,732.465088 
	C1519.437500,734.440125 1523.216553,734.564514 1525.970581,736.112549 
	C1527.635254,737.048279 1529.245972,738.894409 1529.864258,740.682922 
	C1530.750610,743.246643 1529.314453,744.518372 1526.430054,745.315552 
	C1509.612671,749.963684 1494.484497,746.100281 1482.349365,734.425354 
	C1472.278320,724.736206 1463.944946,713.213501 1455.079590,702.309692 
	C1450.291748,696.420959 1446.068237,690.076050 1441.423096,684.065979 
	C1440.644653,683.058716 1439.013428,682.710449 1437.776245,682.057739 
	C1437.184204,683.438110 1436.086426,684.815002 1436.076782,686.199463 
	C1435.958740,703.194763 1436.003174,720.191284 1435.998413,737.187439 
	C1435.996582,743.595764 1435.597900,743.991577 1429.212036,743.998657 
	C1423.713257,744.004822 1418.202637,743.776917 1412.719727,744.071899 
	C1408.475586,744.300293 1407.257812,742.043884 1407.011108,738.513916 
	C1406.941528,737.518982 1407.000000,736.515076 1407.000000,735.515320 
	C1407.000000,698.690247 1407.124878,661.864258 1406.857910,625.041138 
	C1406.820312,619.842346 1405.581299,614.371399 1403.633789,609.535645 
	C1400.959106,602.894592 1394.587036,601.396423 1388.017090,600.994263 
	C1384.768921,600.795410 1380.049927,602.241455 1380.173340,596.921936 
	C1380.294189,591.706543 1385.013550,594.231201 1387.590820,594.127930 
	C1396.075195,593.787903 1404.581909,593.999756 1413.079956,594.000061 
	C1426.732422,594.000610 1434.603760,601.537842 1434.984253,615.147766 
	C1435.387329,629.559814 1435.613647,643.977112 1436.076904,658.386902 
	C1436.126465,659.927429 1437.242554,661.433533 1437.864014,662.955566 
	C1439.013184,662.050598 1440.472900,661.359192 1441.264282,660.208191 
	C1451.952026,644.663879 1462.401489,628.953918 1473.206055,613.491943 
	C1484.033936,597.996948 1499.254517,591.982300 1517.801147,594.128479 
	C1518.975708,594.264343 1520.530029,596.076294 1520.874878,597.381348 
	C1521.574585,600.030212 1520.582642,602.662842 1517.539307,602.914185 
	C1505.687500,603.893372 1497.409790,610.091248 1491.238037,620.267944 
z"/>
<path fill="#FFFFFF" opacity="1.000000" stroke="none" 
	d="
M930.005249,610.976868 
	C920.888489,609.303406 912.241150,606.968445 903.455688,606.186646 
	C894.126892,605.356506 884.666931,606.000000 875.264282,606.000000 
	C875.006653,605.271851 874.749084,604.543701 874.491455,603.815552 
	C875.580505,602.877563 876.529785,601.412598 877.779724,601.081116 
	C894.771484,596.574951 912.065186,593.450806 929.640320,595.161438 
	C946.217590,596.775024 959.901794,604.297424 967.992554,619.538818 
	C972.165222,627.399292 975.383850,635.766296 979.272339,644.436829 
	C980.952087,642.698425 983.602905,640.745178 985.213867,638.147156 
	C991.212769,628.472717 997.041321,618.681274 1002.555603,608.724365 
	C1004.295654,605.582336 1004.577881,601.668213 1006.004272,598.310120 
	C1009.162170,590.875793 1016.057190,588.136719 1023.612427,591.004761 
	C1030.175171,593.496094 1033.947754,601.208801 1031.211182,608.089172 
	C1029.941040,611.282532 1027.483765,614.408630 1024.765137,616.550476 
	C1013.288879,625.591797 1004.308899,636.754761 997.114868,649.243408 
	C992.109192,657.933289 987.502502,667.040649 984.214294,676.482788 
	C980.467224,687.242920 984.260254,697.664307 989.693787,707.055664 
	C998.144836,721.662781 1012.310669,727.181641 1028.126099,728.877869 
	C1037.467651,729.879883 1046.937988,729.842712 1056.353271,729.922058 
	C1060.735107,729.959045 1065.123901,729.161621 1069.509521,728.742371 
	C1069.788696,729.175110 1070.067749,729.607788 1070.346924,730.040466 
	C1069.345459,731.015808 1068.514893,732.386230 1067.315918,732.905090 
	C1055.767212,737.903564 1044.062500,741.844666 1031.301758,743.286682 
	C1017.894409,744.801758 1005.338196,742.989197 993.375732,737.611267 
	C978.423218,730.889160 969.908569,718.355408 965.028076,703.091187 
	C964.593384,701.731873 964.139404,700.378662 963.360718,698.005676 
	C959.646973,702.911133 956.056152,707.003845 953.202759,711.558533 
	C947.243103,721.071655 941.768188,730.841858 938.959778,741.899780 
	C937.706482,746.834290 930.825989,751.447998 926.381165,750.990845 
	C919.227844,750.255188 913.548767,744.657227 912.942627,738.306152 
	C912.343628,732.029663 914.872986,727.060913 919.756042,723.940186 
	C931.858337,716.205933 939.235901,704.434753 946.851318,692.981384 
	C951.616760,685.814148 955.571350,677.961365 958.839417,669.985840 
	C962.134460,661.944031 959.450317,653.497742 957.875549,645.408569 
	C956.144348,636.515808 953.218811,627.662415 946.507202,621.339172 
	C941.944885,617.040894 935.832886,614.387512 930.005249,610.976868 
z"/>
<path fill="#FFFFFF" opacity="1.000000" stroke="none" 
	d="
M1000.744141,296.245972 
	C1008.139893,303.062683 1011.130859,311.174561 1011.113159,320.879181 
	C1011.097412,329.505341 1011.098450,338.127472 1004.887207,344.757538 
	C1001.121765,348.776825 996.102234,351.613586 991.694397,355.043579 
	C990.492615,355.978729 989.465088,357.137909 988.357544,358.194214 
	C989.463989,359.199493 990.414734,360.518555 991.702820,361.157684 
	C998.615234,364.587555 1005.396851,368.266052 1009.923035,374.737457 
	C1017.044128,384.918732 1017.229858,396.271515 1014.598145,407.870209 
	C1011.140381,423.109283 999.740417,430.852875 986.147461,434.628754 
	C975.612488,437.555206 964.306213,438.605804 953.314636,438.787109 
	C934.368896,439.099609 917.741516,432.602356 904.745667,418.222809 
	C902.765198,416.031403 900.532410,413.719116 902.994995,410.592712 
	C905.595642,407.291077 908.195496,407.933411 911.152100,410.550323 
	C917.817017,416.449463 925.012695,421.720398 933.970337,423.443420 
	C948.842346,426.304108 963.419983,426.309937 976.520691,417.073029 
	C982.572021,412.806366 985.262634,406.494202 985.927246,399.486694 
	C987.702087,380.774414 977.026428,369.421936 959.312378,367.110962 
	C951.660889,366.112732 943.851013,366.107666 936.111938,366.086945 
	C931.663879,366.075012 929.547363,364.578308 929.983459,360.012329 
	C930.093872,358.856812 930.116394,357.667786 929.978394,356.518280 
	C929.556824,353.008087 931.031311,351.830078 934.532104,351.940552 
	C944.190796,352.245331 953.792603,352.015991 963.185608,349.064270 
	C973.272888,345.894348 980.731934,335.991119 981.401428,324.778473 
	C982.477234,306.758606 967.170166,295.481232 951.733276,295.821838 
	C940.866821,296.061646 931.202881,298.803589 923.013672,305.662415 
	C917.307007,310.442047 914.124390,317.091400 913.046143,324.530457 
	C912.661865,327.181244 912.300537,329.604462 908.845520,328.955902 
	C905.786377,328.381653 905.081726,326.646149 905.707886,323.390137 
	C906.419189,319.691376 906.083984,315.762695 905.976501,311.940369 
	C905.595703,298.393555 914.908203,288.245026 927.510376,285.002533 
	C939.569275,281.899780 951.950439,280.955261 964.171326,282.221924 
	C977.267883,283.579376 990.615967,285.560150 1000.744141,296.245972 
z"/>
<path fill="#FFFFFF" opacity="1.000000" stroke="none" 
	d="
M662.835327,438.001556 
	C642.056946,436.819427 626.775757,427.069977 616.080994,410.117401 
	C609.847046,400.235779 606.296692,389.271301 604.973938,377.593445 
	C602.986328,360.046051 603.133118,342.719818 608.962891,325.756134 
	C616.644531,303.404022 631.375916,288.217102 654.679626,283.361481 
	C672.405273,279.668091 690.099121,281.336487 706.066040,291.073608 
	C714.879089,296.448120 721.074951,304.581421 726.428711,313.215942 
	C727.111267,314.316742 725.676880,317.614746 724.289001,318.811340 
	C723.324280,319.643188 720.134705,319.305847 719.024597,318.296722 
	C715.511963,315.103394 712.485046,311.370636 709.314270,307.807343 
	C697.438293,294.461578 671.335999,292.151093 657.110718,301.014923 
	C646.981750,307.326355 641.261597,317.102783 638.201843,328.142822 
	C635.928528,336.345215 635.148804,344.989471 634.042053,353.480957 
	C632.163635,367.893372 634.389587,381.982880 639.126099,395.520447 
	C643.736206,408.696625 651.680969,419.563202 665.970276,423.374573 
	C684.563843,428.333923 703.722473,422.558685 715.995056,405.761841 
	C720.008606,400.268768 722.514160,399.378326 725.554199,403.222229 
	C726.308472,404.176025 726.617798,406.295044 726.080322,407.335205 
	C717.966187,423.039368 705.161621,432.979645 687.985840,436.887573 
	C681.988892,438.252045 675.709778,438.468018 669.538574,438.923706 
	C667.491699,439.074860 665.378967,438.335297 662.835327,438.001556 
z"/>
<path fill="#000000" opacity="1.000000" stroke="none" 
	d="
M427.227112,241.379669 
	C433.542572,231.938690 440.251709,223.226486 450.351624,218.347015 
	C456.766052,215.248077 463.638794,212.048187 470.571442,211.275696 
	C488.615021,209.265106 504.944611,213.406616 518.534851,226.819580 
	C532.017822,240.126724 538.599243,256.641052 542.922363,274.365845 
	C547.524048,293.232758 548.050781,312.579498 546.785950,331.772064 
	C545.445557,352.110779 541.506897,372.140198 530.940918,390.075470 
	C521.323608,406.400482 508.227570,417.966980 488.590393,421.130981 
	C473.006226,423.641907 458.874756,420.808319 446.064514,411.940613 
	C434.123444,403.674652 426.441437,391.922028 421.038971,378.663147 
	C414.168091,361.800262 411.612854,344.182648 410.804688,325.997528 
	C409.752838,302.329590 411.748688,279.283386 420.037323,257.003723 
	C421.987610,251.761444 424.678009,246.794495 427.227112,241.379669 
z"/>
<path fill="#000000" opacity="1.000000" stroke="none" 
	d="
M1270.000000,639.953735 
	C1270.333496,629.882385 1270.792358,620.304504 1270.927490,610.722046 
	C1270.970703,607.649902 1272.841309,607.071472 1274.942505,607.056580 
	C1289.598999,606.952881 1304.256958,606.954712 1318.913696,607.034973 
	C1322.420288,607.054199 1323.035889,609.522888 1323.025879,612.512085 
	C1322.971558,628.834778 1323.000000,645.157715 1323.000000,661.480591 
	C1323.000000,682.633667 1322.909546,703.787537 1323.081299,724.939209 
	C1323.113159,728.860474 1322.037720,730.126587 1318.013062,730.086548 
	C1298.694092,729.894043 1279.371948,730.007202 1260.051025,729.994690 
	C1255.533691,729.991760 1254.537476,728.785645 1256.071777,724.633667 
	C1262.039673,708.484314 1265.392212,691.773621 1266.990234,674.682129 
	C1268.056641,663.275818 1269.001099,651.858093 1270.000000,639.953735 
z"/>
<path fill="#000000" opacity="1.000000" stroke="none" 
	d="
M1864.157593,356.023895 
	C1845.071533,347.952179 1845.404907,318.362152 1856.081177,306.652283 
	C1860.660767,301.629211 1867.288940,299.538391 1873.968628,297.926880 
	C1882.375854,295.898590 1890.474121,297.891785 1898.648926,299.061646 
	C1901.527466,299.473572 1903.010986,301.454224 1903.007690,304.474640 
	C1902.990112,320.449005 1902.944824,336.423645 1903.028320,352.397583 
	C1903.058716,358.215729 1898.517822,357.779480 1894.958740,358.525970 
	C1884.602295,360.698181 1874.371338,360.763428 1864.157593,356.023895 
z"/>
<path fill="#000000" opacity="1.000000" stroke="none" 
	d="
M781.014160,327.253418 
	C784.702087,320.100861 787.582092,312.745300 792.221497,306.751526 
	C801.343506,294.966522 818.125427,291.361725 830.829834,302.322784 
	C841.445251,311.481537 846.824524,323.612335 848.793884,336.959747 
	C850.465698,348.290436 851.519470,359.970306 850.722290,371.346832 
	C849.524902,388.435150 845.063721,404.844116 832.067017,417.411743 
	C821.917236,427.226501 806.721191,427.637726 795.915771,417.491272 
	C784.820862,407.073059 780.287292,393.700287 778.033386,379.245239 
	C777.156372,373.620453 776.150452,367.939209 776.107605,362.276825 
	C776.018738,350.540070 777.665466,338.962036 781.014160,327.253418 
z"/>
<path fill="#000000" opacity="1.000000" stroke="none" 
	d="
M806.411072,732.999512 
	C791.273071,729.387390 784.329895,718.245422 778.977417,705.441956 
	C772.341736,689.568665 771.858459,672.802124 773.267639,656.220398 
	C774.595337,640.596802 778.590759,625.184509 790.172241,613.464294 
	C804.992065,598.467102 822.465393,602.172546 833.990540,618.136780 
	C842.767273,630.294067 845.515259,644.312927 847.182617,658.943054 
	C848.843323,673.514526 847.160767,687.606262 842.815186,701.250183 
	C838.512085,714.760803 832.413574,727.645203 817.115845,732.251465 
	C813.912415,733.216125 810.289246,732.786926 806.411072,732.999512 
z"/>
<path fill="#000000" opacity="1.000000" stroke="none" 
	d="
M1154.628784,726.775146 
	C1142.117676,736.501282 1128.255371,734.844849 1117.797241,725.075623 
	C1110.885254,718.619019 1106.411011,710.074890 1104.200195,700.943054 
	C1102.037964,692.012268 1100.965942,682.762756 1100.087891,673.588745 
	C1098.782593,659.948303 1100.223877,646.432068 1105.107666,633.605469 
	C1109.098755,623.123108 1114.284668,613.393005 1124.833984,607.461731 
	C1134.612427,601.963867 1145.978760,603.561462 1153.960571,610.526611 
	C1164.278198,619.529968 1169.498901,631.480347 1171.914551,644.643616 
	C1173.378662,652.622070 1175.079956,660.801270 1174.743164,668.809021 
	C1174.235718,680.877563 1173.278931,693.094666 1168.764771,704.589172 
	C1165.545776,712.786438 1161.381714,720.401733 1154.628784,726.775146 
z"/>
<path fill="#000000" opacity="1.000000" stroke="none" 
	d="
M1630.000000,700.921265 
	C1631.201660,709.267090 1627.941528,714.250000 1620.833618,717.851257 
	C1612.030518,722.311340 1603.510620,726.943359 1593.244995,727.067810 
	C1585.216919,727.165100 1580.149536,723.430908 1575.875122,716.861328 
	C1565.751465,701.301453 1574.677734,686.163025 1585.586914,678.808044 
	C1596.684692,671.325928 1608.594360,668.014648 1621.911865,670.992004 
	C1627.699097,672.285889 1629.996338,675.068481 1629.999268,680.960022 
	C1630.002319,687.451599 1630.000000,693.943237 1630.000000,700.921265 
z"/>
<path fill="#000000" opacity="1.000000" stroke="none" 
	d="
M1280.442139,363.164734 
	C1286.002808,364.716980 1287.964966,368.413910 1287.992188,373.430511 
	C1288.025635,379.589478 1287.480347,385.803528 1288.122437,391.894989 
	C1289.070923,400.893372 1285.691406,406.802612 1277.700195,410.809052 
	C1269.185913,415.077759 1260.537842,419.360748 1251.011719,419.738403 
	C1243.788574,420.024750 1238.076782,416.037689 1233.864258,409.602600 
	C1222.961548,392.946808 1232.151001,377.243866 1246.481812,368.911102 
	C1256.984985,362.804047 1268.072510,360.507111 1280.442139,363.164734 
z"/>
<path fill="#000000" opacity="1.000000" stroke="none" 
	d="
M1749.946777,408.003845 
	C1740.455688,414.398041 1730.348511,418.465485 1719.385010,419.894958 
	C1711.409912,420.934784 1702.521484,413.256165 1698.958618,403.908539 
	C1693.821045,390.429108 1700.519531,379.797241 1708.770386,372.922699 
	C1717.704224,365.479065 1728.342651,361.770752 1740.076660,362.086578 
	C1743.390991,362.175812 1746.701660,363.210052 1749.970093,363.993866 
	C1754.008179,364.962280 1755.907104,367.876862 1755.960449,371.814911 
	C1756.084473,380.965942 1756.463379,390.156799 1755.739014,399.251831 
	C1755.497681,402.282501 1752.213623,405.070831 1749.946777,408.003845 
z"/>
</svg>