<svg xmlns="http://www.w3.org/2000/svg" version="1.0" width="2000.000000pt" height="1000.000000pt" viewBox="0 0 2000.000000 1000.000000" preserveAspectRatio="xMidYMid meet" style="background: transparent; max-width: 100%; max-height: 100%; width: auto; height: auto; transform: scale(1);">

<g transform="translate(0.000000,1000.000000) scale(0.100000,-0.100000)" fill="#7d7d7d" stroke="none" data-element-index="0" style="cursor: pointer; fill: rgb(125, 125, 125);" class="">
<path d="M1975 9683 c-218 -174 -567 -541 -767 -808 -388 -518 -624 -1067 -688 -1595 -16 -137 -14 -414 5 -549 84 -597 419 -1120 985 -1538 133 -98 212 -148 448 -283 134 -76 211 -126 219 -141 32 -67 101 -495 130 -819 24 -273 24 -878 0 -1150 -21 -232 -49 -437 -83 -615 -21 -109 -33 -147 -77 -234 -52 -104 -52 -104 -52 -200 0 -89 3 -102 33 -163 67 -137 187 -211 342 -212 75 0 93 4 150 31 86 41 140 89 177 160 61 113 63 250 7 353 -67 125 -89 208 -133 515 -47 329 -56 468 -56 940 0 359 4 485 18 625 18 179 54 450 60 457 2 2 46 -27 98 -64 406 -288 744 -628 903 -907 155 -275 213 -512 203 -841 -6 -193 -19 -284 -72 -492 -91 -353 -226 -691 -542 -1353 -251 -525 -267 -560 -259 -568 9 -8 10 -7 205 243 439 563 724 1011 906 1425 110 249 199 568 224 802 55 504 -117 1033 -485 1493 -252 314 -566 595 -1002 895 -85 60 -94 68 -107 113 -44 147 -103 505 -132 802 -14 142 -18 273 -18 625 0 479 10 629 61 974 42 280 59 351 108 447 74 142 81 255 24 375 -83 179 -314 262 -494 180 -77 -35 -155 -113 -190 -189 -26 -55 -29 -73 -29 -158 0 -95 0 -96 52 -200 56 -112 74 -182 113 -449 75 -518 89 -1088 40 -1630 -15 -158 -60 -473 -70 -483 -7 -8 -134 65 -265 153 -359 242 -652 577 -780 891 -79 194 -113 364 -122 594 -24 666 277 1472 914 2444 63 95 112 178 111 183 -2 5 -53 -31 -113 -79z" data-element-index="1" style="cursor: pointer; fill: rgb(125, 125, 125);" class="selected-element" fill="#7D7D7D"></path>
<path d="M4710 8044 c-275 -28 -446 -109 -626 -296 -209 -218 -324 -538 -324 -903 0 -588 302 -1053 761 -1169 171 -44 359 -43 524 1 87 23 230 93 301 146 120 91 236 232 308 374 135 269 179 649 111 970 -96 453 -392 780 -775 856 -80 16 -222 26 -280 21z m224 -160 c247 -64 422 -296 497 -660 30 -143 38 -503 15 -667 -58 -410 -235 -672 -510 -752 -70 -21 -219 -23 -296 -6 -266 62 -455 317 -521 700 -50 292 -31 641 48 886 82 257 254 445 454 499 74 20 236 20 313 0z" data-element-index="2" style="cursor: pointer;"></path>
<path d="M6601 7179 c-252 -33 -435 -187 -516 -430 -92 -275 -65 -617 66 -834 42 -70 157 -181 226 -218 84 -45 193 -69 318 -69 227 -1 386 75 512 246 47 64 53 95 23 113 -26 17 -40 10 -69 -33 -38 -56 -117 -121 -189 -156 -65 -32 -70 -33 -197 -33 -122 0 -134 2 -186 28 -144 70 -236 245 -261 498 -34 338 72 634 261 726 52 26 64 28 186 28 127 0 132 -1 197 -33 72 -35 151 -100 189 -156 29 -43 43 -50 69 -33 30 18 24 49 -23 113 -116 157 -262 234 -467 247 -41 3 -104 1 -139 -4z" data-element-index="3" style="cursor: pointer;"></path>
<path d="M8032 7180 c-269 -37 -459 -220 -545 -525 -25 -89 -34 -314 -18 -411 32 -183 111 -343 223 -450 104 -100 201 -145 352 -164 327 -40 602 141 705 465 79 246 63 513 -44 730 -87 177 -228 295 -404 339 -76 19 -193 26 -269 16z m216 -156 c176 -88 285 -401 253 -728 -32 -331 -174 -536 -370 -536 -125 0 -225 76 -296 224 -60 125 -79 226 -79 421 0 142 4 185 22 260 44 176 134 314 237 361 72 34 163 33 233 -2z" data-element-index="4" style="cursor: pointer;"></path>
<path d="M9425 7180 c-156 -17 -224 -40 -290 -101 -63 -58 -80 -109 -80 -244 0 -106 1 -110 22 -113 25 -4 29 4 57 100 23 77 87 148 174 190 64 32 72 33 187 33 115 0 122 -1 175 -30 101 -55 150 -159 136 -283 -19 -164 -142 -242 -381 -242 -73 0 -115 -4 -123 -12 -19 -19 -15 -106 6 -117 9 -5 80 -11 157 -13 201 -7 288 -42 350 -143 26 -42 30 -60 34 -131 4 -106 -16 -168 -70 -223 -61 -60 -130 -83 -273 -89 -180 -7 -243 11 -371 108 -37 28 -74 50 -82 48 -9 -2 -23 -13 -31 -26 -15 -23 -13 -26 60 -97 131 -126 248 -168 463 -167 392 1 594 140 599 412 1 60 -4 101 -17 138 -26 73 -101 152 -185 194 -37 19 -68 41 -70 50 -2 10 15 26 44 43 73 43 129 100 155 158 20 44 24 68 24 157 -1 88 -4 114 -24 157 -30 67 -113 145 -193 183 -113 53 -294 76 -453 60z" data-element-index="5" style="cursor: pointer;"></path>
<path d="M10244 7136 c-12 -31 4 -43 63 -51 106 -13 139 -38 171 -132 14 -42 17 -132 22 -668 l5 -620 126 -3 c97 -2 129 1 137 11 8 9 13 115 14 338 l3 324 295 0 295 0 6 -240 c7 -260 17 -317 64 -374 42 -50 96 -61 291 -61 144 0 173 2 178 15 12 31 -5 44 -70 50 -107 12 -152 57 -174 174 -6 32 -10 287 -10 640 0 322 -4 592 -8 599 -7 9 -41 12 -138 10 l-129 -3 -5 -335 -5 -335 -295 0 -295 0 -6 225 c-9 307 -29 383 -116 426 -32 16 -67 20 -226 22 -163 3 -188 2 -193 -12z" data-element-index="6" style="cursor: pointer;"></path>
<path d="M12388 7131 c-67 -22 -140 -66 -185 -113 -103 -107 -182 -346 -124 -377 24 -13 32 -6 123 110 85 108 131 148 213 185 51 24 66 26 143 22 196 -10 300 -112 310 -305 7 -120 -4 -133 -106 -133 -186 0 -382 -39 -509 -100 -215 -104 -296 -293 -218 -510 38 -108 145 -224 238 -258 142 -54 353 -26 504 65 31 18 64 33 75 33 11 0 45 -22 75 -50 50 -46 101 -70 149 -70 51 0 124 32 173 76 53 47 59 70 15 54 -70 -27 -128 -1 -138 62 -15 97 -15 82 14 478 18 241 -5 399 -80 557 -69 142 -187 238 -345 278 -84 21 -254 19 -327 -4z m433 -761 c46 -25 48 -36 49 -216 0 -205 2 -200 -127 -267 -151 -78 -248 -95 -328 -58 -76 35 -127 118 -133 217 -9 144 109 276 295 330 58 16 208 13 244 -6z" data-element-index="7" style="cursor: pointer;"></path>
<path d="M13311 7132 c-15 -28 3 -40 72 -48 63 -7 108 -31 133 -69 41 -62 44 -114 44 -735 0 -327 4 -601 8 -608 7 -9 41 -12 138 -10 l129 3 5 335 c3 184 7 336 8 338 1 1 134 1 295 0 l292 -3 7 -215 c7 -239 18 -315 53 -376 42 -71 70 -79 290 -79 l190 0 0 25 c0 23 -5 25 -71 36 -82 14 -108 27 -134 69 -41 66 -43 99 -49 735 l-6 615 -124 3 c-80 2 -128 -1 -135 -8 -7 -7 -13 -123 -16 -338 l-5 -327 -292 -3 -293 -2 -4 22 c-3 13 -7 124 -9 248 -5 232 -11 273 -50 331 -45 67 -70 74 -279 77 -177 3 -187 3 -197 -16z" data-element-index="8" style="cursor: pointer;"></path>
<path d="M14954 7135 c-12 -30 4 -42 63 -50 84 -10 127 -37 155 -99 l23 -51 5 -627 c3 -430 8 -630 16 -638 7 -7 55 -10 135 -8 l124 3 3 324 c1 219 6 329 13 338 16 18 569 19 587 1 9 -9 12 -72 12 -221 0 -258 13 -333 69 -389 52 -51 92 -59 288 -56 l168 3 0 25 c0 23 -5 25 -68 36 -83 13 -114 35 -147 100 l-25 49 -3 624 c-2 439 -6 629 -14 638 -8 10 -41 13 -137 11 l-126 -3 -3 -324 c-1 -219 -6 -329 -13 -338 -16 -18 -571 -19 -587 0 -6 7 -12 108 -14 252 -5 270 -13 311 -74 364 -49 43 -90 51 -277 51 -140 0 -169 -2 -173 -15z" data-element-index="9" style="cursor: pointer;"></path>
<path d="M17063 7129 c-161 -51 -301 -229 -319 -408 -5 -45 -3 -61 10 -74 9 -9 22 -14 29 -11 8 3 51 52 96 109 87 109 146 161 227 196 39 18 61 21 133 17 139 -7 224 -57 279 -163 21 -40 27 -68 30 -143 6 -128 7 -127 -161 -135 -278 -13 -472 -76 -589 -191 -72 -71 -102 -140 -106 -246 -6 -138 44 -256 149 -355 60 -56 112 -80 206 -96 120 -20 278 14 410 87 34 19 70 34 80 34 10 0 41 -22 69 -48 65 -62 122 -80 198 -63 56 12 136 62 163 100 19 28 13 34 -21 21 -73 -27 -129 -1 -142 68 -8 41 0 252 17 465 37 471 -110 761 -426 842 -86 22 -253 19 -332 -6z m410 -750 c75 -20 77 -27 77 -222 0 -139 -3 -177 -15 -195 -23 -32 -140 -97 -228 -127 -164 -55 -261 -18 -326 125 -90 198 119 425 394 429 33 1 77 -4 98 -10z" data-element-index="10" style="cursor: pointer;"></path>
<path d="M18555 7130 c-176 -38 -299 -124 -343 -242 -62 -165 -26 -347 89 -459 42 -41 130 -93 192 -113 9 -3 17 -15 17 -26 0 -30 -172 -338 -236 -423 -53 -71 -116 -122 -163 -134 -37 -8 -51 -22 -51 -49 0 -29 22 -39 110 -53 78 -13 169 2 234 37 85 46 137 122 265 385 l116 237 115 -2 115 -3 5 -310 5 -310 126 -3 c96 -2 129 1 137 11 8 9 12 198 14 633 3 478 7 628 17 659 16 48 68 102 107 110 68 14 79 20 79 45 l0 25 -430 2 c-388 2 -439 0 -520 -17z m421 -112 l39 -13 3 -265 c1 -146 0 -275 -3 -287 -4 -17 -17 -23 -73 -33 -38 -7 -109 -11 -159 -8 -157 7 -260 75 -293 192 -18 64 -9 230 14 276 58 111 176 164 347 155 47 -2 104 -10 125 -17z" data-element-index="11" style="cursor: pointer;"></path>
<path d="M5220 4735 l0 -35 68 0 c82 0 147 -29 175 -76 45 -80 47 -112 47 -1121 l0 -953 150 0 150 0 0 1040 0 1040 480 0 480 0 0 -1040 0 -1040 145 0 145 0 0 1110 0 1110 -920 0 -920 0 0 -35z" data-element-index="12" style="cursor: pointer;"></path>
<path d="M10142 4099 c-53 -11 -79 -44 -107 -133 -13 -45 -49 -122 -79 -173 -50 -85 -158 -237 -175 -248 -5 -2 -16 26 -26 63 -48 177 -159 328 -286 391 -149 73 -309 78 -594 19 -106 -21 -143 -35 -129 -48 5 -4 99 -13 209 -19 293 -16 404 -49 497 -149 25 -27 55 -67 67 -90 47 -92 85 -297 70 -378 -25 -132 -237 -445 -375 -554 -75 -59 -99 -102 -89 -161 12 -71 90 -125 160 -111 44 8 88 61 104 122 23 90 121 264 220 389 l19 24 17 -58 c28 -98 73 -175 144 -246 73 -73 129 -105 241 -140 107 -33 276 -32 411 4 109 28 257 93 243 106 -5 4 -63 4 -129 -1 -206 -16 -381 10 -506 72 -148 75 -237 240 -227 420 8 152 217 487 392 629 91 73 109 114 82 185 -26 67 -85 100 -154 85z" data-element-index="13" style="cursor: pointer;"></path>
<path d="M7924 4081 c-133 -33 -247 -107 -332 -216 -122 -157 -182 -372 -169 -605 8 -135 36 -241 94 -360 38 -78 61 -110 128 -177 135 -135 281 -190 480 -180 249 13 435 136 545 363 70 142 84 212 84 419 0 167 -2 186 -28 270 -81 266 -255 442 -481 490 -93 19 -233 18 -321 -4z m291 -142 c209 -104 312 -530 220 -904 -19 -77 -84 -209 -128 -260 -74 -87 -186 -121 -292 -90 -76 22 -167 110 -213 205 -91 192 -113 474 -56 709 43 176 154 323 274 362 44 15 144 3 195 -22z" data-element-index="14" style="cursor: pointer;"></path>
<path d="M11205 4086 c-236 -55 -413 -242 -485 -511 -31 -115 -38 -311 -15 -430 55 -293 207 -490 442 -572 70 -24 92 -27 213 -27 121 0 143 3 213 27 196 68 334 215 406 432 43 127 54 218 48 365 -7 147 -31 249 -87 365 -76 158 -206 278 -360 332 -93 32 -277 41 -375 19z m286 -152 c169 -93 274 -409 241 -727 -15 -142 -34 -212 -82 -313 -44 -91 -105 -161 -171 -195 -34 -18 -60 -23 -119 -23 -93 0 -134 19 -208 98 -126 133 -191 396 -164 659 19 183 61 304 140 410 94 124 236 159 363 91z" data-element-index="15" style="cursor: pointer;"></path>
<path d="M15870 4069 c-189 -33 -348 -201 -382 -406 -13 -76 -5 -103 31 -103 9 0 53 47 98 103 135 170 216 221 348 220 139 -1 234 -52 290 -154 25 -47 30 -67 33 -152 6 -133 2 -137 -127 -137 -341 0 -616 -117 -698 -297 -91 -198 18 -472 223 -565 59 -26 221 -37 304 -19 64 14 172 56 220 86 67 42 74 41 138 -18 90 -83 163 -93 272 -37 36 19 107 86 99 94 -2 3 -22 0 -45 -6 -52 -14 -89 -4 -111 29 -25 38 -28 173 -9 390 20 226 20 332 1 450 -45 275 -185 450 -408 507 -77 20 -209 27 -277 15z m387 -785 l28 -21 3 -180 c3 -218 7 -210 -141 -283 -216 -106 -343 -87 -416 63 -64 132 -19 270 118 364 91 63 165 84 283 80 80 -2 102 -6 125 -23z" data-element-index="16" style="cursor: pointer;"></path>
<path d="M12289 4054 c-19 -23 0 -47 45 -56 131 -28 163 -115 153 -422 -7 -187 -22 -315 -58 -496 -24 -121 -81 -302 -109 -348 -19 -30 -23 -32 -80 -32 -52 0 -64 -4 -92 -29 l-33 -29 -3 -267 c-2 -198 0 -271 9 -281 9 -10 28 -14 63 -12 l50 3 17 100 c32 200 78 297 163 350 l49 30 457 0 457 0 49 -30 c85 -53 131 -150 163 -350 l17 -100 50 -3 c35 -2 54 2 63 12 9 10 11 83 9 281 l-3 267 -33 29 c-29 26 -39 29 -100 29 -40 0 -73 5 -80 12 -9 9 -12 172 -12 673 0 501 -3 664 -12 673 -9 9 -156 12 -599 12 -523 0 -588 -2 -600 -16z m929 -728 c2 -481 0 -611 -10 -618 -7 -4 -155 -8 -329 -8 -263 0 -319 2 -328 14 -10 12 -7 31 12 93 79 250 127 612 127 964 0 100 4 149 12 157 9 9 76 12 263 10 l250 -3 3 -609z" data-element-index="17" style="cursor: pointer;"></path>
<path d="M13801 4052 c-18 -34 5 -52 65 -52 99 0 149 -36 180 -130 17 -50 19 -109 22 -670 2 -464 6 -616 15 -622 7 -4 65 -8 129 -8 106 0 118 2 128 19 6 12 10 129 10 309 0 233 3 291 13 295 8 3 18 2 23 -1 6 -4 88 -109 183 -235 95 -125 198 -249 228 -276 128 -114 293 -164 428 -130 25 6 50 17 56 25 16 19 3 64 -19 64 -36 0 -141 60 -200 115 -67 61 -462 574 -462 598 0 26 319 489 374 543 50 50 91 69 188 89 32 6 48 46 28 70 -27 32 -196 14 -288 -31 -85 -42 -147 -113 -332 -384 -95 -140 -178 -258 -183 -262 -6 -3 -16 -4 -24 -1 -10 4 -13 42 -13 172 0 290 -20 403 -78 462 -49 48 -103 59 -302 59 -142 0 -160 -2 -169 -18z" data-element-index="18" style="cursor: pointer;"></path>
</g>
</svg>