<svg version="1.1" id="Layer_1" xmlns="http://www.w3.org/2000/svg" xmlns:xlink="http://www.w3.org/1999/xlink" x="0px" y="0px"
	 width="100%" viewBox="0 0 71 79" enable-background="new 0 0 71 79" xml:space="preserve">
<path fill="none" opacity="1.000000" stroke="#000000" stroke-linecap="round" stroke-linejoin="round" stroke-width="2.000000"
	d="
M50.000000,37.500000 
	C51.970970,44.891415 57.757515,49.319092 64.495308,48.463047 
	C65.774406,48.300537 67.063179,47.821686 67.028549,45.999458 
	C67.000900,44.544456 66.905220,43.485416 65.000160,43.473633 
	C58.761440,43.435047 56.497505,39.151634 54.978230,34.006428 
	C53.745880,29.832945 50.599972,28.390491 46.499828,28.493116 
	C44.834202,28.534809 43.166668,28.499998 41.500000,28.500000 
	C31.817520,28.500006 31.358847,28.581694 28.109842,37.539837 
	C26.854351,41.001476 24.881720,42.856949 21.498560,42.912769 
	C19.067272,42.952885 17.949080,44.173618 16.837688,46.090786 
	C19.563484,50.261974 22.941969,46.943405 25.994129,47.108524 
	C30.975365,47.378006 31.412577,43.142715 33.500000,40.500000 
"/>
<path fill="none" opacity="1.000000" stroke="#000000" stroke-linecap="round" stroke-linejoin="round" stroke-width="3.000000"
	d="
M35.500000,17.500000 
	C36.321114,20.754869 38.019016,23.307434 41.507732,23.958567 
	C44.237045,24.467966 46.604622,23.077944 47.884716,20.931253 
	C48.978542,19.096941 49.512939,17.045965 48.204330,14.398984 
	C46.740292,11.437609 44.346439,10.049882 42.020836,10.246483 
	C39.632256,10.448407 36.564896,11.601940 35.992378,14.998715 
	C35.878513,15.674281 35.666668,16.333334 35.500000,17.000000 
"/>
<path fill="none" opacity="1.000000" stroke="#000000" stroke-linecap="round" stroke-linejoin="round" stroke-width="2.000000"
	d="
M44.000000,56.000000 
	C46.973164,58.600285 50.568779,60.154213 53.981773,62.033112 
	C56.887627,63.632820 58.968105,62.301392 60.991768,60.490799 
	C63.072910,58.628773 62.673172,55.805363 61.808933,54.096638 
	C60.635361,51.776337 58.262215,50.377098 54.973408,51.415798 
	C50.589752,52.800285 46.143559,55.670628 42.012478,55.554840 
	C37.843197,55.437977 33.373226,52.889469 29.030403,51.410713 
	C25.404600,50.176109 23.288548,52.382629 22.213711,54.603432 
	C21.261200,56.571487 21.553751,59.436604 24.463516,61.065186 
	C28.411396,63.274788 31.731764,65.848824 37.051914,64.751755 
	C41.517761,63.830845 46.439823,65.148018 50.994072,66.519676 
	C53.876591,67.387833 55.385773,66.254066 56.000000,63.500000 
"/>
<path fill="none" opacity="1.000000" stroke="#000000" stroke-linecap="round" stroke-linejoin="round" stroke-width="3.000000"
	d="
M34.000000,37.500000 
	C34.500000,41.000000 34.841515,44.533485 35.570732,47.985058 
	C35.906178,49.572788 36.250706,51.000000 35.500000,52.500000 
"/>
<path fill="none" opacity="1.000000" stroke="#000000" stroke-linecap="round" stroke-linejoin="round" stroke-width="2.000000"
	d="
M50.000000,41.500000 
	C48.480934,45.200413 49.153702,49.186714 48.500000,53.000000 
"/>
</svg>