<svg version="1.1" id="Layer_1" xmlns="http://www.w3.org/2000/svg" xmlns:xlink="http://www.w3.org/1999/xlink" x="0px" y="0px"
	 width="100%" viewBox="0 0 61 95" enable-background="new 0 0 61 95" xml:space="preserve">
<path fill="none" opacity="1.000000" stroke="#000000" stroke-linecap="round" stroke-linejoin="round" stroke-width="3.000000"
	d="
M40.500000,32.000000 
	C42.379799,28.241150 44.775436,24.510880 41.002224,20.497908 
	C38.537605,17.876684 33.684757,17.138325 31.000000,19.000000 
	C27.902536,21.147863 26.803026,25.411287 28.523321,28.988785 
	C29.039082,30.061350 29.833334,31.000000 30.500000,32.000000 
"/>
<path fill="none" opacity="1.000000" stroke="#000000" stroke-linecap="round" stroke-linejoin="round" stroke-width="3.000000"
	d="
M44.000000,58.500000 
	C47.393005,58.481071 48.092430,56.397869 48.025841,53.499405 
	C47.926331,49.168362 48.000000,44.833332 48.000000,40.500000 
	C48.000004,33.984882 47.364033,32.675354 41.000603,32.695023 
	C36.361023,32.709362 31.657978,32.503414 26.998329,32.983788 
	C23.913559,33.301800 22.466866,34.909733 22.489281,38.000076 
	C22.527962,43.333130 22.458166,48.667137 22.518103,53.999798 
	C22.546961,56.567181 23.178976,58.766838 26.500000,58.500000 
"/>
<path fill="none" opacity="1.000000" stroke="#000000" stroke-linecap="round" stroke-linejoin="round" stroke-width="4.000000"
	d="
M27.500000,43.500000 
	C27.500000,55.666668 27.603693,67.834778 27.434483,79.999092 
	C27.386045,83.481216 28.733479,84.786377 31.999123,84.490311 
	C33.171261,84.384048 34.362076,83.919510 35.494049,84.051170 
	C37.890717,84.329910 40.598694,85.607750 42.405441,83.421844 
	C43.967571,81.531891 42.943874,78.826683 42.961399,76.499710 
	C43.046761,65.167015 43.000000,53.833332 43.000000,42.500000 
"/>
<path fill="none" opacity="1.000000" stroke="#000000" stroke-linecap="round" stroke-linejoin="round" stroke-width="4.000000"
	d="
M35.000000,57.500000 
	C36.149220,66.147774 35.181900,74.836243 35.500000,83.500000 
"/>
</svg>