<svg version="1.1" id="Layer_1" xmlns="http://www.w3.org/2000/svg" xmlns:xlink="http://www.w3.org/1999/xlink" x="0px" y="0px"
	 width="100%" viewBox="0 0 75 66" enable-background="new 0 0 75 66" xml:space="preserve">
<path fill="none" opacity="1.000000" stroke="#000000" stroke-linecap="round" stroke-linejoin="round" stroke-width="3.000000"
	d="
M28.000000,30.500000 
	C23.282103,33.081165 22.706520,35.387562 26.030680,38.971542 
	C26.825159,39.828117 27.691006,40.561111 28.950668,41.112667 
	C36.512146,44.423538 41.353291,50.646709 45.500000,57.500000 
"/>
<path fill="none" opacity="1.000000" stroke="#000000" stroke-linecap="round" stroke-linejoin="round" stroke-width="3.000000"
	d="
M57.500000,46.000000 
	C60.704445,48.067677 64.579468,48.916122 67.898262,51.738895 
	C64.283089,56.307854 59.847088,58.929379 54.002640,58.466644 
	C45.140415,57.764980 36.346973,59.546955 27.499882,59.001930 
	C25.826340,58.898830 24.103207,59.301270 22.500000,58.500000 
"/>
<path fill="none" opacity="1.000000" stroke="#000000" stroke-linecap="round" stroke-linejoin="round" stroke-width="3.000000"
	d="
M36.500000,33.500000 
	C38.000000,34.000000 39.465546,34.708450 41.006100,34.963100 
	C46.957203,35.946804 47.175194,35.902538 46.915855,41.496098 
	C46.776581,44.500069 48.096859,46.689938 49.500000,49.000000 
"/>
<path fill="none" opacity="1.000000" stroke="#000000" stroke-linecap="round" stroke-linejoin="round" stroke-width="3.000000"
	d="
M56.500000,2.500000 
	C50.753513,8.606802 46.705639,15.982538 41.602875,22.579573 
	C39.495003,25.304707 41.398052,28.262384 43.529171,30.471863 
	C45.448376,32.461639 50.237415,32.704792 51.985538,30.985298 
	C57.026474,26.026917 61.999996,20.999996 67.000000,15.999997 
"/>
<path fill="none" opacity="1.000000" stroke="#000000" stroke-linecap="round" stroke-linejoin="round" stroke-width="3.000000"
	d="
M47.500000,51.000000 
	C49.332508,54.460083 52.392162,55.157059 56.001553,55.054863 
	C58.174618,54.993340 60.542515,54.306995 62.500000,56.000000 
"/>
<path fill="none" opacity="1.000000" stroke="#000000" stroke-linecap="round" stroke-linejoin="round" stroke-width="3.000000"
	d="
M40.000000,23.000000 
	C34.403412,22.436560 31.655769,26.553524 27.954155,30.010342 
	C32.589146,38.708172 42.020226,42.595570 46.243389,50.461864 
	C51.153542,50.708401 52.931267,46.402740 56.800282,45.241276 
	C55.890667,43.863586 54.945335,42.431793 54.000000,41.000000 
"/>
<path fill="none" opacity="1.000000" stroke="#000000" stroke-linecap="round" stroke-linejoin="round" stroke-width="3.000000"
	d="
M25.500000,46.500000 
	C21.166666,45.705349 16.833334,45.705349 12.500000,46.500000 
"/>
<path fill="none" opacity="1.000000" stroke="#000000" stroke-linecap="round" stroke-linejoin="round" stroke-width="3.000000"
	d="
M20.500000,51.500000 
	C23.833334,52.292004 27.166666,52.292004 30.500000,51.500000 
"/>
<path fill="none" opacity="1.000000" stroke="#000000" stroke-linecap="round" stroke-linejoin="round" stroke-width="3.000000"
	d="
M34.500000,25.500000 
	C36.379368,29.097431 37.340660,32.651142 34.000000,36.000000 
"/>
<path fill="none" opacity="1.000000" stroke="#000000" stroke-linecap="round" stroke-linejoin="round" stroke-width="3.000000"
	d="
M50.500000,40.500000 
	C51.792171,40.605934 53.760990,41.767097 53.897362,39.493843 
	C54.046864,37.001701 51.702126,38.417267 50.500000,38.000000 
"/>
</svg>