<svg version="1.1" id="Layer_1" xmlns="http://www.w3.org/2000/svg" xmlns:xlink="http://www.w3.org/1999/xlink" x="0px" y="0px"
	 width="100%" viewBox="0 0 66 95" enable-background="new 0 0 66 95" xml:space="preserve">
<path fill="none" opacity="1.000000" stroke="#000000" stroke-linecap="round" stroke-linejoin="round" stroke-width="3.000000"
	d="
M39.000000,69.000000 
	C41.819210,66.129944 45.963772,64.716331 47.973454,60.985699 
	C48.886795,59.290249 49.994858,57.801231 48.598991,55.441444 
	C45.894516,50.869389 43.730450,46.002354 39.510250,42.487694 
	C34.068218,37.955467 34.793213,31.007629 40.999035,27.498295 
	C43.338303,26.175461 45.725327,24.922615 47.967010,23.449791 
	C48.714497,22.958679 49.077168,21.881861 49.609459,21.082245 
	C49.322163,19.128624 47.818531,18.393639 46.517601,17.291742 
	C45.948231,17.557465 45.455051,17.745529 45.002960,18.005156 
	C40.664680,20.496542 36.349476,23.028574 31.993874,25.489155 
	C29.430202,26.937433 28.531437,29.057711 27.865664,31.969282 
	C25.713392,41.381645 24.547674,50.941589 20.841904,60.137775 
	C18.102150,66.936714 18.473595,74.996635 17.516382,82.502090 
	C17.235758,84.702469 18.218021,86.216682 20.502935,86.473923 
	C22.988379,86.753716 24.256638,85.673141 24.561386,83.007019 
	C24.983690,79.312424 26.016243,75.686203 26.411041,71.990494 
	C26.571630,70.487228 27.934261,70.156097 28.250000,69.000000 
"/>
<path fill="none" opacity="1.000000" stroke="#000000" stroke-linecap="round" stroke-linejoin="round" stroke-width="3.000000"
	d="
M27.500000,65.500000 
	C27.668228,66.333023 27.214464,67.188072 27.976557,68.021439 
	C32.636826,73.117554 35.889698,79.180023 39.534428,84.978355 
	C40.490299,86.499039 42.167805,87.627365 43.974659,86.933968 
	C46.982105,85.779854 47.189224,83.615753 45.517506,80.988861 
	C42.786068,76.696739 40.249859,72.279274 37.478184,68.014175 
	C34.273239,63.082371 35.059982,60.195278 40.500000,57.750000 
"/>
<path fill="none" opacity="1.000000" stroke="#000000" stroke-linecap="round" stroke-linejoin="round" stroke-width="3.000000"
	d="
M43.000000,45.250000 
	C44.333332,44.500000 45.663589,43.744461 47.000610,43.001099 
	C50.270607,41.183022 51.291424,38.409687 49.953835,35.018208 
	C48.813297,32.126369 44.574451,30.320129 41.548370,31.613201 
	C40.207333,32.186241 39.035652,33.039520 37.500000,33.000000 
"/>
</svg>