<svg xmlns="http://www.w3.org/2000/svg" viewBox="0 0 121.421875 79.44921799999997">
<g transform="translate(-799.160156,-276.179688)">
<path fill="#000000" d="M 920.375 331.210938 L 911.660156 288.917969 L 911.660156 288.910156 C 911.660156 288.652344 911.605469 288.40625 911.507812 288.183594 L 909.363281 277.78125 C 909.160156 276.796875 908.207031 276.167969 907.230469 276.367188 L 855.453125 287.09375 L 800.992188 287.09375 C 799.992188 287.09375 799.179688 287.90625 799.179688 288.910156 L 799.179688 343.46875 C 799.179688 344.472656 799.992188 345.285156 800.992188 345.285156 L 808.433594 345.285156 L 810.230469 354.015625 C 810.433594 354.996094 811.386719 355.628906 812.363281 355.429688 L 861.324219 345.285156 L 909.84375 345.285156 C 910.84375 345.285156 911.65625 344.472656 911.65625 343.46875 L 911.65625 334.863281 L 918.964844 333.347656 C 919.941406 333.148438 920.574219 332.191406 920.375 331.210938 Z M 906.1875 280.285156 L 907.59375 287.09375 L 873.3125 287.09375 Z M 813.410156 351.511719 L 812.125 345.285156 L 843.464844 345.285156 Z M 908.03125 341.652344 L 802.804688 341.652344 L 802.804688 290.730469 L 908.03125 290.730469 Z M 911.660156 331.160156 L 911.660156 306.824219 L 916.46875 330.164062 Z M 911.660156 331.160156 " fill-opacity="1" fill-rule="nonzero"/>

</g>
</svg>