<svg xmlns="http://www.w3.org/2000/svg" viewBox="0 0 103.41015599999997 107.15625">
<g transform="translate(-443.292969,-1525.109375)">
<path fill="#000000" d="M 544.199219 1556.832031 C 545.386719 1557.027344 546.472656 1558.390625 546.574219 1559.585938 L 546.679688 1620.410156 C 546.21875 1626.570312 541.6875 1631.667969 535.464844 1632.261719 L 456.554688 1632.25 C 450.4375 1631.367188 445.988281 1626.582031 445.523438 1620.410156 L 445.527344 1561.699219 C 444.125 1553.546875 439.269531 1542.078125 450.84375 1539.378906 L 533.09375 1525.214844 C 538.265625 1524.535156 543.203125 1527.1875 544.636719 1532.3125 C 545.25 1534.496094 546.59375 1540.957031 546.632812 1543.058594 C 546.652344 1544.226562 545.535156 1545.847656 544.339844 1546.027344 L 483.480469 1556.4375 C 483.464844 1556.5625 483.746094 1556.832031 483.777344 1556.832031 Z M 542.710938 1542.703125 C 542.003906 1539.722656 541.816406 1536.261719 541.027344 1533.34375 C 539.277344 1526.886719 532.304688 1528.933594 527.5 1529.960938 L 523.230469 1545.886719 Z M 523.429688 1530.5625 L 505.777344 1533.582031 L 501.371094 1549.667969 L 519.230469 1546.65625 Z M 501.566406 1534.34375 L 483.90625 1537.355469 L 479.507812 1553.449219 L 497.195312 1550.363281 Z M 479.703125 1538.125 L 462.257812 1541.15625 L 457.84375 1557.027344 L 475.335938 1554.148438 Z M 458.039062 1541.90625 C 455.109375 1542.542969 450.984375 1542.265625 448.695312 1544.390625 C 447.546875 1545.453125 446.839844 1547.199219 446.914062 1548.765625 C 447.054688 1551.84375 448.445312 1555.464844 448.71875 1558.601562 L 453.824219 1557.78125 Z M 449.296875 1562.203125 L 449.296875 1574.144531 L 477.320312 1574.144531 L 470.730469 1560.445312 C 467.234375 1560.597656 463.386719 1560.128906 459.933594 1560.417969 C 456.507812 1560.703125 452.792969 1562.023438 449.296875 1562.203125 Z M 500.574219 1574.144531 L 493.519531 1560.414062 L 474.933594 1560.414062 L 481.492188 1574.144531 Z M 523.429688 1574.144531 L 516.574219 1560.414062 L 497.792969 1560.414062 L 504.546875 1574.144531 Z M 542.90625 1560.414062 L 520.847656 1560.414062 L 527.601562 1574.144531 L 542.90625 1574.144531 Z M 542.90625 1620.414062 L 542.90625 1578.027344 L 542.609375 1577.726562 L 449.296875 1577.726562 L 449.296875 1620.613281 C 449.296875 1624.335938 453.480469 1628.398438 457.148438 1628.671875 L 534.667969 1628.679688 C 539.136719 1628.351562 542.484375 1624.847656 542.90625 1620.414062 Z M 542.90625 1620.414062 " fill-opacity="1" fill-rule="nonzero"/>

</g>
</svg>