<svg xmlns="http://www.w3.org/2000/svg" viewBox="0 0 104.15625 104.15625">
<g transform="translate(-249.421875,-1522.171875)">
<path fill="#000000" d="M 353.5625 1574.25 C 353.5625 1573.945312 353.5 1573.65625 353.390625 1573.390625 L 353.390625 1537.886719 C 353.390625 1529.277344 346.390625 1522.273438 337.78125 1522.273438 L 265.050781 1522.273438 C 264.148438 1522.273438 263.269531 1522.367188 262.410156 1522.515625 C 262.328125 1522.523438 262.25 1522.53125 262.171875 1522.550781 C 254.933594 1523.90625 249.4375 1530.261719 249.4375 1537.886719 L 249.4375 1610.613281 C 249.4375 1619.222656 256.441406 1626.226562 265.050781 1626.226562 L 337.777344 1626.226562 C 346.386719 1626.226562 353.390625 1619.222656 353.390625 1610.613281 L 353.390625 1575.105469 C 353.5 1574.84375 353.5625 1574.554688 353.5625 1574.25 Z M 260.449219 1527.738281 L 260.449219 1553.0625 C 260.449219 1554.292969 261.449219 1555.292969 262.679688 1555.292969 C 263.914062 1555.292969 264.910156 1554.292969 264.910156 1553.0625 L 264.910156 1526.742188 C 264.957031 1526.742188 265.003906 1526.734375 265.050781 1526.734375 L 273.222656 1526.734375 L 273.222656 1538.890625 C 273.222656 1540.121094 274.222656 1541.121094 275.453125 1541.121094 C 276.6875 1541.121094 277.683594 1540.121094 277.683594 1538.890625 L 277.683594 1526.734375 L 337.777344 1526.734375 C 343.929688 1526.734375 348.929688 1531.738281 348.929688 1537.886719 L 348.929688 1572.019531 L 335.90625 1572.019531 C 335.476562 1565.3125 333.128906 1559.125 329.402344 1553.992188 C 331.136719 1554.816406 333.070312 1555.292969 335.117188 1555.292969 C 342.496094 1555.292969 348.5 1549.289062 348.5 1541.910156 C 348.5 1534.53125 342.496094 1528.527344 335.117188 1528.527344 C 327.738281 1528.527344 321.734375 1534.53125 321.734375 1541.910156 C 321.734375 1543.75 322.109375 1545.507812 322.785156 1547.105469 C 316.898438 1542.460938 309.476562 1539.679688 301.414062 1539.679688 C 283.101562 1539.679688 268.078125 1553.992188 266.921875 1572.019531 L 253.898438 1572.019531 L 253.898438 1537.886719 C 253.898438 1533.375 256.59375 1529.492188 260.449219 1527.738281 Z M 326.195312 1541.910156 C 326.195312 1536.988281 330.199219 1532.988281 335.117188 1532.988281 C 340.035156 1532.988281 344.039062 1536.988281 344.039062 1541.910156 C 344.039062 1546.828125 340.035156 1550.832031 335.117188 1550.832031 C 330.199219 1550.832031 326.195312 1546.828125 326.195312 1541.910156 Z M 331.523438 1574.25 C 331.523438 1590.851562 318.019531 1604.359375 301.414062 1604.359375 C 284.8125 1604.359375 271.304688 1590.851562 271.304688 1574.25 C 271.304688 1557.648438 284.8125 1544.140625 301.414062 1544.140625 C 318.019531 1544.140625 331.523438 1557.648438 331.523438 1574.25 Z M 337.777344 1621.765625 L 265.050781 1621.765625 C 258.902344 1621.765625 253.898438 1616.761719 253.898438 1610.613281 L 253.898438 1576.480469 L 266.921875 1576.480469 C 268.078125 1594.503906 283.101562 1608.820312 301.414062 1608.820312 C 319.726562 1608.820312 334.753906 1594.503906 335.90625 1576.480469 L 348.929688 1576.480469 L 348.929688 1610.613281 C 348.929688 1616.761719 343.929688 1621.765625 337.777344 1621.765625 Z M 337.777344 1621.765625 " fill-opacity="1" fill-rule="nonzero"/>

</g>
</svg>