<svg xmlns="http://www.w3.org/2000/svg" viewBox="0 0 127.38671900000008 104.16015600000014">
<g transform="translate(-619.445312,-1306.691406)">
<path fill="#000000" d="M 737.71875 1321.519531 L 706.722656 1321.519531 L 702.6875 1310.660156 C 701.800781 1308.269531 699.578125 1306.730469 697.023438 1306.730469 L 669.253906 1306.730469 C 666.703125 1306.730469 664.480469 1308.273438 663.59375 1310.660156 L 659.554688 1321.519531 L 653.144531 1321.519531 L 653.144531 1317.289062 C 653.144531 1314.824219 651.132812 1312.816406 648.65625 1312.816406 L 635.835938 1312.816406 C 633.359375 1312.816406 631.347656 1314.824219 631.347656 1317.289062 L 631.347656 1321.519531 L 628.5625 1321.519531 C 623.535156 1321.519531 619.445312 1325.601562 619.445312 1330.617188 L 619.445312 1401.722656 C 619.445312 1406.734375 623.535156 1410.8125 628.5625 1410.8125 L 737.71875 1410.8125 C 742.746094 1410.8125 746.835938 1406.734375 746.835938 1401.722656 L 746.835938 1330.617188 C 746.835938 1325.601562 742.746094 1321.519531 737.71875 1321.519531 Z M 666.976562 1311.910156 C 667.347656 1310.921875 668.199219 1310.328125 669.253906 1310.328125 L 697.023438 1310.328125 C 698.082031 1310.328125 698.933594 1310.921875 699.300781 1311.910156 L 702.875 1321.519531 L 663.40625 1321.519531 Z M 634.957031 1317.289062 C 634.957031 1316.816406 635.359375 1316.414062 635.835938 1316.414062 L 648.65625 1316.414062 C 649.132812 1316.414062 649.535156 1316.816406 649.535156 1317.289062 L 649.535156 1321.519531 L 634.957031 1321.519531 Z M 743.222656 1401.722656 C 743.222656 1404.75 740.753906 1407.214844 737.71875 1407.214844 L 628.5625 1407.214844 C 625.527344 1407.214844 623.054688 1404.75 623.054688 1401.722656 L 623.054688 1355.792969 L 649.707031 1355.792969 C 648.683594 1359.070312 648.128906 1362.554688 648.128906 1366.167969 C 648.128906 1385.417969 663.835938 1401.082031 683.144531 1401.082031 C 702.449219 1401.082031 718.148438 1385.417969 718.148438 1366.167969 C 718.148438 1362.554688 717.597656 1359.070312 716.570312 1355.792969 L 743.222656 1355.792969 Z M 651.738281 1366.167969 C 651.738281 1348.902344 665.828125 1334.859375 683.144531 1334.859375 C 700.460938 1334.859375 714.539062 1348.902344 714.539062 1366.167969 C 714.539062 1383.429688 700.457031 1397.480469 683.144531 1397.480469 C 665.832031 1397.480469 651.738281 1383.433594 651.738281 1366.167969 Z M 743.222656 1352.191406 L 715.21875 1352.191406 C 709.804688 1339.878906 697.464844 1331.257812 683.144531 1331.257812 C 668.820312 1331.257812 656.476562 1339.878906 651.0625 1352.191406 L 623.054688 1352.191406 L 623.054688 1330.617188 C 623.054688 1327.585938 625.527344 1325.121094 628.5625 1325.121094 L 705.460938 1325.121094 C 705.464844 1325.121094 705.464844 1325.121094 705.46875 1325.121094 C 705.472656 1325.121094 705.476562 1325.121094 705.480469 1325.121094 L 737.71875 1325.121094 C 740.753906 1325.121094 743.222656 1327.585938 743.222656 1330.617188 Z M 743.222656 1352.191406 " fill-opacity="1" fill-rule="nonzero"/>

</g>
</svg>