<svg xmlns="http://www.w3.org/2000/svg" viewBox="0 0 97.41406200000006 97.41406300000017">
<g transform="translate(-1022.03125,-1288.238281)">
<path fill="#000000" d="M 1070.761719 1288.257812 C 1084.210938 1288.257812 1096.390625 1293.710938 1105.203125 1302.527344 C 1114.015625 1311.339844 1119.46875 1323.519531 1119.46875 1336.96875 C 1119.46875 1350.417969 1114.015625 1362.597656 1105.203125 1371.410156 C 1096.386719 1380.226562 1084.210938 1385.679688 1070.761719 1385.679688 C 1057.308594 1385.679688 1045.132812 1380.226562 1036.316406 1371.410156 C 1027.503906 1362.597656 1022.050781 1350.417969 1022.050781 1336.96875 C 1022.050781 1323.519531 1027.503906 1311.339844 1036.316406 1302.527344 C 1045.132812 1293.710938 1057.308594 1288.257812 1070.761719 1288.257812 Z M 1088.484375 1293.984375 L 1088.519531 1294.195312 L 1108.269531 1310.304688 L 1108.824219 1310.285156 C 1107.273438 1308.074219 1105.535156 1306.003906 1103.628906 1304.101562 C 1099.328125 1299.800781 1094.191406 1296.339844 1088.484375 1293.984375 Z M 1110.261719 1312.453125 L 1108.847656 1312.503906 L 1106.109375 1330.140625 L 1115.261719 1342.820312 L 1117.066406 1341.042969 C 1117.183594 1339.699219 1117.242188 1338.339844 1117.242188 1336.96875 C 1117.242188 1327.972656 1114.6875 1319.570312 1110.261719 1312.453125 Z M 1116.621094 1344.597656 L 1116.046875 1345.164062 L 1107.417969 1364.441406 L 1107.675781 1365.222656 C 1112.207031 1359.304688 1115.351562 1352.269531 1116.621094 1344.597656 Z M 1106.007812 1367.273438 L 1105.492188 1365.703125 L 1090.339844 1369.40625 L 1086.597656 1374.203125 L 1082.023438 1380.0625 L 1083.355469 1381.722656 C 1091.128906 1379.539062 1098.078125 1375.386719 1103.628906 1369.835938 C 1104.453125 1369.011719 1105.246094 1368.15625 1106.007812 1367.273438 Z M 1080.988281 1382.320312 L 1080.078125 1381.1875 L 1061.441406 1381.1875 L 1060.53125 1382.320312 C 1063.824219 1383.058594 1067.246094 1383.453125 1070.761719 1383.453125 C 1074.273438 1383.453125 1077.699219 1383.058594 1080.988281 1382.320312 Z M 1058.164062 1381.722656 L 1059.496094 1380.0625 L 1051.183594 1369.40625 L 1036.027344 1365.703125 L 1035.511719 1367.273438 C 1036.273438 1368.15625 1037.066406 1369.011719 1037.890625 1369.835938 C 1043.441406 1375.386719 1050.390625 1379.542969 1058.164062 1381.722656 Z M 1033.847656 1365.222656 L 1034.101562 1364.441406 L 1025.476562 1345.164062 L 1024.902344 1344.597656 C 1026.167969 1352.269531 1029.3125 1359.308594 1033.847656 1365.222656 Z M 1024.453125 1341.042969 L 1026.261719 1342.820312 L 1035.414062 1330.140625 L 1032.675781 1312.503906 L 1031.261719 1312.453125 C 1026.835938 1319.570312 1024.277344 1327.972656 1024.277344 1336.96875 C 1024.277344 1338.339844 1024.335938 1339.699219 1024.453125 1341.042969 Z M 1032.695312 1310.285156 L 1033.253906 1310.304688 L 1053 1294.195312 L 1053.039062 1293.984375 C 1047.328125 1296.339844 1042.191406 1299.800781 1037.890625 1304.101562 C 1035.988281 1306.003906 1034.246094 1308.074219 1032.695312 1310.285156 Z M 1055.457031 1293.0625 L 1055.269531 1294.148438 L 1060.738281 1296.742188 L 1070.761719 1301.484375 L 1081.21875 1296.53125 L 1086.253906 1294.148438 L 1086.0625 1293.0625 C 1081.269531 1291.394531 1076.121094 1290.484375 1070.761719 1290.484375 C 1065.398438 1290.484375 1060.25 1291.394531 1055.457031 1293.0625 Z M 1057.773438 1354.855469 L 1050.664062 1333.46875 L 1037.089844 1331.613281 L 1027.675781 1344.648438 L 1036.082031 1363.433594 L 1051.242188 1367.136719 Z M 1090.855469 1333.46875 L 1083.746094 1354.855469 L 1090.28125 1367.136719 L 1105.4375 1363.433594 L 1113.84375 1344.648438 L 1104.433594 1331.613281 Z M 1081.746094 1353.851562 L 1088.714844 1332.886719 L 1070.761719 1319.824219 L 1052.808594 1332.886719 L 1059.777344 1353.851562 Z M 1037.546875 1329.433594 L 1051.203125 1331.300781 L 1055.195312 1328.398438 L 1069.648438 1317.886719 L 1069.648438 1303.417969 L 1054.183594 1296.09375 L 1034.824219 1311.886719 Z M 1061.449219 1378.960938 L 1080.070312 1378.960938 L 1088.382812 1368.308594 L 1081.875 1356.078125 L 1059.644531 1356.078125 L 1053.140625 1368.308594 Z M 1106.699219 1311.886719 L 1087.335938 1296.09375 L 1071.875 1303.417969 L 1071.875 1317.886719 L 1087.460938 1329.222656 L 1090.316406 1331.300781 L 1103.972656 1329.433594 Z M 1106.699219 1311.886719 " fill-opacity="1" fill-rule="evenodd"/>

</g>
</svg>