<svg xmlns="http://www.w3.org/2000/svg" viewBox="0 0 146.90625 146.796875">
<g transform="translate(-283.5,-798.0)">
<path fill="#000000" d="M 427.359375 854.3125 C 427.378906 854.210938 427.394531 854.109375 427.402344 854.007812 L 430.285156 833.617188 C 430.320312 833.453125 430.339844 833.285156 430.339844 833.113281 C 430.339844 831.804688 429.273438 830.742188 427.964844 830.742188 L 409.257812 830.742188 C 409.253906 830.742188 409.25 830.742188 409.246094 830.742188 C 409.242188 830.742188 409.238281 830.742188 409.234375 830.742188 L 390.550781 830.742188 C 390.542969 830.742188 390.535156 830.742188 390.527344 830.742188 C 390.519531 830.742188 390.515625 830.742188 390.507812 830.742188 L 371.84375 830.742188 C 371.832031 830.742188 371.820312 830.742188 371.8125 830.742188 C 371.800781 830.742188 371.789062 830.742188 371.777344 830.742188 L 353.136719 830.742188 C 353.121094 830.742188 353.109375 830.738281 353.09375 830.738281 C 353.078125 830.738281 353.0625 830.742188 353.050781 830.742188 L 334.425781 830.742188 C 334.410156 830.742188 334.390625 830.738281 334.375 830.738281 C 334.359375 830.738281 334.339844 830.742188 334.324219 830.742188 L 318.175781 830.742188 L 308.28125 804.753906 C 308 804.003906 307.371094 803.484375 306.652344 803.292969 L 286.78125 798.222656 C 285.515625 797.898438 284.222656 798.664062 283.898438 799.933594 C 283.574219 801.203125 284.34375 802.492188 285.613281 802.8125 L 304.285156 807.578125 L 317.730469 842.886719 L 330.03125 875.203125 C 330.058594 875.304688 330.101562 875.402344 330.144531 875.503906 L 332.097656 880.636719 C 332.132812 880.742188 332.171875 880.84375 332.214844 880.945312 L 337.652344 895.226562 L 332.105469 900.527344 C 327.289062 905.128906 324.175781 909.523438 322.777344 913.261719 C 321.871094 915.675781 321.652344 917.890625 322.117188 919.804688 C 322.628906 921.921875 323.914062 923.605469 325.96875 924.734375 C 326.652344 925.105469 327.414062 925.417969 328.269531 925.65625 C 326.484375 927.6875 325.402344 930.34375 325.402344 933.25 C 325.402344 936.359375 326.640625 939.1875 328.652344 941.265625 L 328.789062 941.414062 C 330.882812 943.503906 333.773438 944.796875 336.964844 944.796875 C 340.15625 944.796875 343.050781 943.5 345.140625 941.414062 L 345.140625 941.402344 C 347.230469 939.3125 348.527344 936.429688 348.527344 933.25 C 348.527344 930.617188 347.640625 928.191406 346.144531 926.246094 L 395.558594 926.246094 C 394.15625 928.15625 393.328125 930.507812 393.328125 933.050781 C 393.328125 936.160156 394.566406 938.988281 396.578125 941.066406 L 396.714844 941.21875 C 398.808594 943.308594 401.699219 944.597656 404.890625 944.597656 C 408.082031 944.597656 410.976562 943.304688 413.066406 941.21875 L 413.066406 941.207031 C 415.15625 939.117188 416.453125 936.230469 416.453125 933.050781 C 416.453125 930.511719 415.621094 928.15625 414.222656 926.246094 L 418.632812 926.246094 C 419.941406 926.246094 421.007812 925.183594 421.007812 923.875 C 421.007812 922.566406 419.941406 921.503906 418.632812 921.503906 C 418.632812 921.503906 333 921.503906 333 921.503906 C 330.914062 921.503906 329.332031 921.175781 328.257812 920.582031 C 327.425781 920.125 326.914062 919.480469 326.726562 918.691406 C 326.484375 917.703125 326.648438 916.417969 327.214844 914.902344 C 328.371094 911.8125 331.097656 908.039062 335.394531 903.929688 L 341.476562 898.117188 L 353.171875 896.949219 C 353.277344 896.945312 353.382812 896.9375 353.488281 896.917969 L 371.890625 895.085938 C 372 895.082031 372.101562 895.070312 372.203125 895.054688 L 390.609375 893.222656 C 390.714844 893.21875 390.820312 893.207031 390.917969 893.191406 L 409.328125 891.359375 C 409.429688 891.355469 409.53125 891.34375 409.632812 891.328125 L 420.355469 890.261719 C 421.457031 890.195312 422.394531 889.359375 422.554688 888.226562 L 424.421875 875.015625 C 424.445312 874.917969 424.460938 874.8125 424.46875 874.707031 Z M 341.792969 938.0625 C 340.5625 939.292969 338.851562 940.054688 336.972656 940.054688 C 335.09375 940.054688 333.386719 939.292969 332.152344 938.0625 L 332.042969 937.960938 C 330.875 936.742188 330.160156 935.078125 330.160156 933.25 C 330.160156 931.367188 330.917969 929.664062 332.152344 928.441406 C 333.382812 927.210938 335.09375 926.449219 336.972656 926.449219 C 338.851562 926.449219 340.558594 927.210938 341.792969 928.441406 L 341.902344 928.542969 C 343.070312 929.761719 343.785156 931.421875 343.785156 933.25 C 343.785156 935.136719 343.023438 936.839844 341.792969 938.0625 Z M 409.710938 928.242188 L 409.820312 928.34375 C 410.988281 929.566406 411.703125 931.222656 411.703125 933.050781 C 411.703125 934.9375 410.941406 936.636719 409.710938 937.863281 C 408.480469 939.089844 406.769531 939.851562 404.890625 939.851562 C 403.007812 939.851562 401.304688 939.089844 400.070312 937.863281 L 399.960938 937.757812 C 398.792969 936.539062 398.078125 934.878906 398.078125 933.046875 C 398.078125 931.164062 398.835938 929.460938 400.070312 928.238281 C 401.300781 927.011719 403.007812 926.246094 404.890625 926.246094 C 406.769531 926.25 408.476562 927.015625 409.710938 928.242188 Z M 341.996094 893.324219 L 336.753906 879.546875 L 336.753906 876.894531 L 350.722656 876.894531 L 350.722656 892.457031 Z M 388.152344 851.445312 L 374.183594 851.445312 L 374.183594 835.476562 L 388.152344 835.476562 C 388.152344 838.621094 388.152344 844.570312 388.152344 851.445312 Z M 392.90625 835.480469 L 406.871094 835.480469 L 406.871094 851.449219 L 392.902344 851.449219 L 392.902344 835.480469 Z M 374.1875 856.1875 L 388.15625 856.1875 C 388.15625 861.488281 388.15625 867.0625 388.15625 872.15625 L 374.1875 872.15625 Z M 369.4375 872.152344 L 355.472656 872.152344 L 355.472656 856.183594 L 369.4375 856.183594 Z M 369.4375 851.445312 L 355.472656 851.445312 L 355.472656 835.476562 L 369.4375 835.476562 Z M 350.722656 851.445312 L 336.753906 851.445312 L 336.753906 835.476562 L 350.722656 835.476562 Z M 350.722656 856.1875 L 350.722656 872.15625 L 336.753906 872.15625 L 336.753906 856.1875 Z M 332.003906 867.066406 L 327.859375 856.183594 L 332.003906 856.183594 Z M 355.46875 876.890625 L 369.433594 876.890625 L 369.433594 890.589844 L 355.46875 891.980469 Z M 374.1875 876.890625 L 388.15625 876.890625 C 388.15625 882.035156 388.15625 886.308594 388.15625 888.722656 L 374.1875 890.117188 Z M 392.90625 876.890625 L 406.871094 876.890625 L 406.871094 886.859375 L 392.902344 888.253906 L 392.902344 876.890625 Z M 392.90625 872.152344 L 392.90625 856.183594 L 406.871094 856.183594 L 406.871094 872.152344 Z M 411.621094 856.1875 L 422.308594 856.1875 L 420.046875 872.15625 L 411.621094 872.15625 Z M 422.976562 851.445312 L 411.621094 851.445312 L 411.621094 835.476562 L 425.234375 835.476562 Z M 332.003906 835.480469 L 332.003906 851.449219 L 326.054688 851.449219 L 322.164062 841.226562 L 319.976562 835.484375 L 332.003906 835.484375 Z M 411.621094 886.386719 L 411.621094 876.890625 L 419.378906 876.890625 L 418.128906 885.738281 Z M 411.621094 886.386719 " fill-opacity="1" fill-rule="nonzero"/>

</g>
</svg>