<svg xmlns="http://www.w3.org/2000/svg" viewBox="0 0 44.777344 44.96875">
<g transform="translate(-49.222656,-506.0)">
<path fill="#000000" d="M 49.222656 549.351562 C 49.222656 548.996094 49.328125 548.675781 49.542969 548.386719 C 49.632812 548.265625 58.644531 535.863281 58.917969 518.710938 C 58.925781 518.410156 59.007812 518.132812 59.167969 517.878906 C 59.332031 517.621094 59.546875 517.425781 59.816406 517.292969 L 80.621094 506.953125 C 80.933594 506.800781 81.257812 506.75 81.601562 506.808594 C 81.941406 506.863281 82.238281 507.015625 82.480469 507.257812 L 92.941406 517.71875 C 93.1875 517.964844 93.335938 518.257812 93.390625 518.597656 C 93.449219 518.941406 93.398438 519.269531 93.246094 519.578125 L 82.90625 540.371094 C 82.773438 540.644531 82.578125 540.859375 82.324219 541.019531 C 82.066406 541.183594 81.789062 541.265625 81.488281 541.269531 C 64.289062 541.546875 51.9375 550.558594 51.8125 550.648438 C 51.566406 550.832031 51.289062 550.9375 50.984375 550.96875 C 50.679688 550.996094 50.390625 550.941406 50.113281 550.800781 C 49.839844 550.664062 49.625 550.464844 49.460938 550.203125 C 49.300781 549.941406 49.222656 549.65625 49.222656 549.351562 Z M 62.125 519.753906 C 61.757812 530.53125 58.277344 539.324219 55.527344 544.664062 C 60.867188 541.914062 69.660156 538.429688 80.4375 538.0625 L 89.824219 519.179688 L 81.007812 510.367188 Z M 62.125 519.753906 " fill-opacity="1" fill-rule="nonzero"/>

</g>
</svg>