<svg xmlns="http://www.w3.org/2000/svg" viewBox="0 0 73.65625 74.46484400000003">
<g transform="translate(-85.0,-441.535156)">
<path fill="#000000" d="M 85.007812 501.375 C 85.007812 501.007812 85.121094 500.675781 85.34375 500.386719 C 94.179688 488.96875 103.703125 478.15625 113.910156 467.945312 C 122.347656 459.507812 131.207031 451.535156 140.476562 444.027344 C 141.007812 443.597656 141.574219 443.21875 142.175781 442.890625 C 142.777344 442.5625 143.402344 442.296875 144.050781 442.082031 C 144.699219 441.871094 145.363281 441.722656 146.042969 441.632812 C 146.71875 441.542969 147.398438 441.515625 148.082031 441.550781 C 148.765625 441.585938 149.4375 441.683594 150.105469 441.839844 C 150.769531 442 151.414062 442.21875 152.039062 442.496094 C 152.664062 442.777344 153.257812 443.109375 153.820312 443.496094 C 154.382812 443.882812 154.90625 444.316406 155.390625 444.800781 C 155.875 445.285156 156.308594 445.808594 156.695312 446.371094 C 157.082031 446.933594 157.414062 447.527344 157.691406 448.152344 C 157.972656 448.777344 158.191406 449.421875 158.347656 450.085938 C 158.507812 450.75 158.605469 451.425781 158.640625 452.109375 C 158.675781 452.789062 158.648438 453.472656 158.558594 454.148438 C 158.46875 454.828125 158.320312 455.488281 158.105469 456.140625 C 157.894531 456.789062 157.625 457.414062 157.300781 458.015625 C 156.972656 458.617188 156.59375 459.183594 156.164062 459.710938 C 148.652344 468.984375 140.679688 477.839844 132.246094 486.28125 C 122.035156 496.488281 111.222656 506.011719 99.804688 514.847656 C 99.632812 514.976562 99.445312 515.070312 99.238281 515.128906 C 99.03125 515.183594 98.824219 515.199219 98.609375 515.171875 C 98.398438 515.144531 98.199219 515.078125 98.011719 514.96875 C 97.824219 514.863281 97.667969 514.726562 97.535156 514.554688 C 97.40625 514.386719 97.3125 514.199219 97.253906 513.992188 C 97.199219 513.785156 97.183594 513.574219 97.210938 513.363281 C 97.238281 513.148438 97.304688 512.949219 97.410156 512.765625 C 97.519531 512.578125 97.65625 512.417969 97.824219 512.289062 C 109.136719 503.539062 119.847656 494.105469 129.960938 483.996094 C 138.316406 475.636719 146.214844 466.863281 153.652344 457.675781 C 153.957031 457.300781 154.226562 456.898438 154.457031 456.472656 C 154.6875 456.042969 154.878906 455.601562 155.03125 455.140625 C 155.179688 454.679688 155.289062 454.207031 155.351562 453.726562 C 155.414062 453.246094 155.433594 452.761719 155.40625 452.277344 C 155.382812 451.792969 155.3125 451.3125 155.199219 450.84375 C 155.085938 450.371094 154.933594 449.914062 154.734375 449.46875 C 154.535156 449.027344 154.300781 448.605469 154.027344 448.203125 C 153.75 447.804688 153.441406 447.433594 153.097656 447.089844 C 152.753906 446.746094 152.382812 446.4375 151.984375 446.164062 C 151.585938 445.886719 151.164062 445.652344 150.71875 445.453125 C 150.277344 445.257812 149.816406 445.101562 149.347656 444.988281 C 148.875 444.875 148.394531 444.804688 147.910156 444.78125 C 147.425781 444.757812 146.945312 444.777344 146.460938 444.839844 C 145.980469 444.902344 145.511719 445.007812 145.046875 445.160156 C 144.585938 445.308594 144.144531 445.5 143.71875 445.734375 C 143.289062 445.964844 142.890625 446.234375 142.511719 446.539062 C 133.324219 453.976562 124.554688 461.875 116.191406 470.230469 C 106.082031 480.34375 96.652344 491.054688 87.902344 502.363281 C 87.691406 502.640625 87.421875 502.824219 87.089844 502.925781 C 86.757812 503.023438 86.429688 503.019531 86.101562 502.90625 C 85.773438 502.792969 85.507812 502.597656 85.308594 502.316406 C 85.109375 502.035156 85.007812 501.71875 85.007812 501.375 Z M 85.007812 501.375 " fill-opacity="1" fill-rule="nonzero"/>

</g>
</svg>