<svg xmlns="http://www.w3.org/2000/svg" viewBox="0 0 102.578125 90.539062">
<g transform="translate(-212.421875,-443.460938)">
<path fill="#231815" d="M 298.742188 443.464844 L 228.148438 443.464844 C 219.476562 443.464844 212.421875 450.183594 212.421875 458.441406 L 212.421875 498.886719 C 212.421875 507.148438 219.476562 513.867188 228.148438 513.867188 L 232.027344 513.867188 L 231.625 521.929688 L 231.058594 533.324219 L 239.199219 525.324219 L 249.574219 515.128906 C 250.402344 514.316406 251.5 513.867188 252.660156 513.867188 L 298.742188 513.867188 C 307.414062 513.867188 314.46875 507.148438 314.46875 498.886719 L 314.46875 458.441406 C 314.46875 450.183594 307.414062 443.464844 298.742188 443.464844 Z M 298.742188 447.917969 C 304.96875 447.917969 310.015625 452.628906 310.015625 458.441406 L 310.015625 498.886719 C 310.015625 504.699219 304.96875 509.414062 298.742188 509.414062 L 252.660156 509.414062 C 250.335938 509.414062 248.109375 510.324219 246.453125 511.953125 L 236.074219 522.148438 L 236.546875 512.667969 C 236.632812 510.898438 235.21875 509.414062 233.445312 509.414062 L 228.148438 509.414062 C 221.921875 509.414062 216.878906 504.699219 216.878906 498.886719 L 216.878906 458.441406 C 216.878906 452.628906 221.921875 447.917969 228.148438 447.917969 L 298.742188 447.917969 " fill-opacity="1" fill-rule="nonzero"/>

</g>
</svg>