<svg xmlns="http://www.w3.org/2000/svg" viewBox="0 0 84.335938 79.21093800000006">
<g transform="translate(-263.0,-469.1875)">
<path fill="#231815" d="M 331.039062 548.398438 L 318.3125 534.390625 C 317.269531 533.238281 315.90625 532.605469 314.464844 532.605469 L 274.75 532.605469 C 268.269531 532.605469 263.003906 527.140625 263.003906 520.417969 L 263.003906 517.828125 C 263.003906 516.707031 263.914062 515.796875 265.035156 515.796875 C 266.15625 515.796875 267.066406 516.707031 267.066406 517.828125 L 267.066406 520.417969 C 267.066406 524.898438 270.511719 528.542969 274.75 528.542969 L 314.464844 528.542969 C 317.03125 528.542969 319.527344 529.679688 321.320312 531.660156 L 326.480469 537.339844 L 326.324219 533.808594 C 326.265625 532.371094 326.777344 530.972656 327.734375 529.972656 C 328.621094 529.050781 329.789062 528.542969 331.027344 528.542969 L 335.59375 528.542969 C 339.828125 528.542969 343.277344 524.898438 343.277344 520.417969 L 343.277344 481.378906 C 343.277344 476.898438 339.828125 473.253906 335.59375 473.253906 L 319.082031 473.253906 C 317.957031 473.253906 317.046875 472.347656 317.046875 471.222656 C 317.046875 470.101562 317.957031 469.191406 319.082031 469.191406 L 335.59375 469.191406 C 342.070312 469.191406 347.339844 474.660156 347.339844 481.378906 L 347.339844 520.417969 C 347.339844 527.140625 342.070312 532.605469 335.59375 532.605469 L 331.027344 532.605469 C 330.902344 532.605469 330.78125 532.664062 330.671875 532.78125 C 330.476562 532.984375 330.371094 533.300781 330.386719 533.628906 L 331.039062 548.398438 " fill-opacity="1" fill-rule="nonzero"/>

</g>
</svg>