<svg xmlns="http://www.w3.org/2000/svg" viewBox="0 0 116.898438 116.898437">
<g transform="translate(-46.507812,-331.898438)">
<path fill="#1a1a1a" d="M 104.960938 448.796875 C 120.574219 448.796875 135.25 442.71875 146.289062 431.679688 C 157.328125 420.640625 163.40625 405.964844 163.40625 390.351562 C 163.40625 374.738281 157.328125 360.058594 146.289062 349.019531 C 135.25 337.980469 120.574219 331.898438 104.960938 331.898438 C 89.347656 331.898438 74.671875 337.980469 63.628906 349.019531 C 52.589844 360.058594 46.511719 374.738281 46.511719 390.351562 C 46.511719 405.964844 52.589844 420.640625 63.628906 431.679688 C 74.671875 442.71875 89.347656 448.796875 104.960938 448.796875 Z M 104.960938 336.578125 C 134.609375 336.578125 158.726562 360.699219 158.726562 390.351562 C 158.726562 419.996094 134.609375 444.117188 104.960938 444.117188 C 75.3125 444.117188 51.1875 419.996094 51.1875 390.351562 C 51.1875 360.699219 75.3125 336.578125 104.960938 336.578125 Z M 104.960938 418.707031 C 113.996094 418.707031 122.460938 414.695312 128.1875 407.699219 C 129.007812 406.699219 130.480469 406.550781 131.480469 407.367188 C 132.480469 408.1875 132.628906 409.660156 131.808594 410.660156 C 125.191406 418.75 115.40625 423.386719 104.960938 423.386719 C 94.507812 423.386719 84.722656 418.75 78.113281 410.660156 C 77.292969 409.660156 77.441406 408.183594 78.445312 407.367188 C 79.445312 406.550781 80.917969 406.699219 81.734375 407.699219 C 87.453125 414.695312 95.917969 418.707031 104.960938 418.707031 Z M 66.296875 377.777344 C 65.296875 376.957031 65.148438 375.484375 65.964844 374.484375 C 68.976562 370.792969 73.441406 368.671875 78.207031 368.671875 C 82.980469 368.671875 87.445312 370.792969 90.457031 374.484375 C 91.273438 375.484375 91.125 376.957031 90.125 377.777344 C 89.691406 378.128906 89.167969 378.300781 88.644531 378.304688 C 87.96875 378.304688 87.296875 378.007812 86.832031 377.441406 C 84.710938 374.84375 81.566406 373.351562 78.207031 373.351562 C 74.851562 373.351562 71.710938 374.84375 69.589844 377.441406 C 68.773438 378.445312 67.296875 378.59375 66.296875 377.777344 Z M 119.460938 374.480469 C 122.480469 370.789062 126.945312 368.671875 131.707031 368.671875 C 136.472656 368.671875 140.9375 370.789062 143.957031 374.480469 C 144.773438 375.480469 144.628906 376.957031 143.628906 377.773438 C 143.191406 378.128906 142.667969 378.300781 142.148438 378.304688 C 141.46875 378.304688 140.796875 378.011719 140.335938 377.445312 C 138.207031 374.84375 135.0625 373.351562 131.707031 373.351562 C 128.355469 373.351562 125.210938 374.84375 123.082031 377.445312 C 122.261719 378.445312 120.789062 378.59375 119.789062 377.773438 C 118.789062 376.957031 118.640625 375.480469 119.460938 374.480469 Z M 119.460938 374.480469 " fill-opacity="1" fill-rule="nonzero"/>

</g>
</svg>