<svg xmlns="http://www.w3.org/2000/svg" viewBox="0 0 125.171875 132.664063">
<g transform="translate(-69.214844,-246.601562)">
<path fill="#232320" d="M 150.027344 367.324219 C 148.277344 370.714844 145.253906 377.519531 142.417969 376.808594 C 139.496094 376.074219 143.367188 365.28125 144.214844 362.710938 C 146.238281 356.582031 148.414062 350.777344 150.605469 344.734375 L 154.0625 335.210938 C 154.34375 334.433594 154.550781 333.457031 153.875 332.882812 C 149.109375 335.460938 144.269531 337.261719 139.117188 338.480469 C 136.53125 339.09375 134.128906 339.914062 132.003906 341.398438 C 129.175781 343.375 128.152344 346.660156 129.644531 349.78125 L 132.828125 356.449219 C 134.929688 360.851562 133.503906 365.605469 129.734375 368.628906 C 126.703125 371.0625 123.039062 372.164062 118.976562 372.167969 C 105.425781 372.171875 93.070312 366.609375 83.644531 357.027344 C 63.46875 336.515625 64.792969 304.015625 85.734375 284.847656 C 105.144531 267.089844 135.3125 267.21875 154.324219 285.109375 C 155.171875 280.894531 155.472656 277.367188 155.800781 273.371094 C 149.398438 267.789062 151.753906 261.503906 155.238281 255.519531 C 158.601562 249.75 156.03125 247.730469 157.757812 246.746094 C 158.066406 246.570312 158.734375 246.484375 159.109375 246.949219 L 163.835938 252.785156 C 167.746094 257.613281 170.128906 267.851562 164.792969 272.410156 C 164.167969 273.386719 164 274.609375 164.199219 275.847656 C 165.699219 285.160156 165.464844 293.988281 166.34375 303.871094 L 179.027344 279.074219 L 178.414062 274.582031 C 177.351562 266.796875 195.925781 252.640625 194.246094 259.242188 C 191.707031 269.230469 197.183594 276.855469 186.472656 282.195312 C 182.449219 296.835938 177 310.257812 171.164062 324.066406 C 169.433594 328.15625 165.957031 332.09375 165.632812 336.519531 L 163.285156 368.613281 C 163.097656 371.175781 162.421875 379.058594 160.035156 379.269531 C 157.722656 379.476562 157.101562 373.277344 156.90625 371.148438 L 155.570312 356.558594 L 150.023438 367.320312 Z M 155.652344 269.039062 C 156.679688 271.015625 158.210938 272.019531 160.078125 271.894531 C 161.707031 271.785156 163.230469 270.910156 164.121094 269.054688 C 166.980469 263.082031 163.609375 256.378906 160.183594 252.570312 L 156.847656 263.390625 L 155.6875 261.175781 C 154.125 263.9375 154.28125 266.398438 155.652344 269.039062 Z M 188.351562 277.746094 C 192.214844 274.074219 190.046875 267.21875 190.894531 261.949219 C 185.738281 264.835938 180.851562 270.152344 181.277344 275.867188 C 181.402344 277.585938 182.921875 278.609375 183.925781 278.929688 C 185.480469 279.425781 187.035156 278.996094 188.351562 277.75 Z M 131.921875 338.242188 C 138.691406 334.84375 146.925781 335.015625 154.113281 329.226562 C 154.046875 315.0625 153.152344 303.605469 154.328125 289.207031 C 151.402344 285.453125 147.800781 282.964844 143.773438 280.644531 C 126.445312 270.652344 104.347656 272.597656 89.167969 285.496094 C 67.9375 303.53125 65.933594 335.121094 85.546875 355.136719 C 93.65625 363.414062 103.816406 368.40625 115.429688 369.34375 C 119.191406 369.648438 122.792969 369.453125 126.199219 367.765625 C 129.925781 365.925781 131.824219 362.148438 130.550781 358.097656 C 129.800781 355.714844 128.554688 353.570312 127.457031 351.351562 C 124.996094 346.394531 126.703125 340.871094 131.925781 338.246094 Z M 162.925781 291.335938 L 161.394531 274.738281 C 160.75 274.328125 159.222656 274.25 158.519531 274.742188 C 157.6875 280.351562 157.046875 285.808594 157.054688 291.484375 C 159.277344 291.636719 161.007812 291.824219 162.929688 291.335938 Z M 178.6875 298.03125 L 183.53125 282.46875 C 183.480469 281.425781 181.585938 280.289062 181.007812 281.261719 C 178.0625 286.214844 175.855469 291.019531 173.273438 296.183594 C 175.011719 297.390625 176.671875 298.371094 178.6875 298.03125 Z M 156.648438 294.253906 L 156.648438 296.367188 L 163.128906 296.367188 L 163.128906 294.253906 Z M 163.011719 299.222656 C 160.777344 298.929688 158.867188 298.921875 156.492188 299.140625 C 156.359375 308.242188 156.203125 317.003906 157.1875 326.613281 L 161.878906 315.25 C 163.75 310.714844 163.894531 303.960938 163.011719 299.222656 Z M 172.039062 298.800781 L 171.078125 300.957031 L 176.628906 303.417969 L 177.589844 301.261719 Z M 156.210938 348.890625 L 167.164062 325.820312 C 170.351562 319.109375 173.347656 312.667969 175.589844 305.808594 C 173.601562 304.753906 172.09375 303.988281 169.9375 303.296875 C 166.179688 311.214844 163.214844 319.078125 160.023438 327.347656 C 155.121094 340.039062 150.457031 352.394531 146.207031 365.3125 C 145.726562 366.78125 144.984375 368.109375 145.523438 369.753906 C 149.363281 362.9375 152.777344 356.117188 156.210938 348.890625 Z M 160.054688 371.582031 C 161.820312 361.613281 161.648438 352.777344 162.136719 343.460938 C 161.175781 345.917969 158.582031 348.386719 158.46875 351.351562 C 158.203125 358.347656 158.820312 365.199219 160.054688 371.585938 Z M 160.054688 371.582031 " fill-opacity="1" fill-rule="nonzero"/>

</g>
</svg>