<svg xmlns="http://www.w3.org/2000/svg" viewBox="0 0 82.0 73.890625">
<g transform="translate(-350.0,-598.109375)">
<path fill="#191919" d="M 423.957031 640.257812 C 424.511719 639.703125 425.035156 639.121094 425.535156 638.511719 C 426.035156 637.90625 426.503906 637.277344 426.945312 636.625 C 427.382812 635.972656 427.789062 635.304688 428.164062 634.613281 C 428.539062 633.921875 428.882812 633.214844 429.191406 632.492188 C 429.496094 631.769531 429.769531 631.03125 430.007812 630.28125 C 430.246094 629.53125 430.445312 628.773438 430.609375 628.003906 C 430.777344 627.234375 430.902344 626.460938 430.996094 625.679688 C 431.085938 624.898438 431.140625 624.113281 431.15625 623.328125 C 431.171875 622.542969 431.152344 621.757812 431.09375 620.972656 C 431.035156 620.1875 430.9375 619.40625 430.804688 618.632812 C 430.671875 617.859375 430.5 617.089844 430.296875 616.332031 C 430.089844 615.574219 429.847656 614.824219 429.570312 614.089844 C 429.292969 613.355469 428.980469 612.632812 428.632812 611.929688 C 428.289062 611.222656 427.910156 610.535156 427.496094 609.867188 C 427.085938 609.195312 426.640625 608.546875 426.167969 607.921875 C 425.695312 607.292969 425.191406 606.691406 424.660156 606.113281 C 424.128906 605.535156 423.570312 604.984375 422.988281 604.457031 C 422.402344 603.933594 421.796875 603.4375 421.164062 602.96875 C 420.535156 602.503906 419.882812 602.066406 419.207031 601.660156 C 418.535156 601.257812 417.84375 600.886719 417.136719 600.546875 C 416.429688 600.210938 415.707031 599.90625 414.96875 599.636719 C 414.230469 599.367188 413.484375 599.136719 412.722656 598.9375 C 411.964844 598.742188 411.199219 598.582031 410.421875 598.457031 C 409.648438 598.335938 408.867188 598.246094 408.085938 598.199219 C 407.304688 598.148438 406.519531 598.140625 405.734375 598.164062 C 404.953125 598.191406 404.171875 598.253906 403.390625 598.355469 C 402.613281 598.457031 401.84375 598.597656 401.078125 598.769531 C 400.3125 598.945312 399.558594 599.15625 398.8125 599.40625 C 398.070312 599.652344 397.339844 599.933594 396.621094 600.253906 C 395.902344 600.570312 395.203125 600.921875 394.519531 601.308594 C 393.835938 601.691406 393.167969 602.109375 392.527344 602.558594 C 391.882812 603.003906 391.257812 603.484375 390.660156 603.992188 C 390.0625 603.484375 389.441406 603.007812 388.796875 602.5625 C 388.152344 602.113281 387.488281 601.699219 386.804688 601.316406 C 386.121094 600.933594 385.417969 600.582031 384.703125 600.269531 C 383.984375 599.953125 383.253906 599.671875 382.507812 599.425781 C 381.765625 599.179688 381.011719 598.96875 380.246094 598.792969 C 379.484375 598.621094 378.710938 598.484375 377.933594 598.382812 C 377.15625 598.28125 376.378906 598.21875 375.59375 598.195312 C 374.8125 598.167969 374.027344 598.179688 373.246094 598.230469 C 372.464844 598.28125 371.6875 598.367188 370.914062 598.492188 C 370.140625 598.613281 369.371094 598.777344 368.613281 598.972656 C 367.855469 599.171875 367.109375 599.402344 366.371094 599.671875 C 365.636719 599.941406 364.914062 600.246094 364.207031 600.582031 C 363.5 600.921875 362.8125 601.292969 362.136719 601.695312 C 361.464844 602.101562 360.816406 602.535156 360.183594 603.003906 C 359.554688 603.46875 358.949219 603.964844 358.363281 604.488281 C 357.78125 605.015625 357.226562 605.566406 356.695312 606.144531 C 356.164062 606.722656 355.660156 607.324219 355.1875 607.949219 C 354.714844 608.574219 354.273438 609.222656 353.859375 609.890625 C 353.449219 610.558594 353.070312 611.246094 352.722656 611.953125 C 352.378906 612.65625 352.066406 613.375 351.789062 614.109375 C 351.511719 614.84375 351.269531 615.589844 351.0625 616.347656 C 350.855469 617.105469 350.6875 617.875 350.554688 618.648438 C 350.417969 619.421875 350.324219 620.199219 350.265625 620.984375 C 350.203125 621.765625 350.183594 622.550781 350.199219 623.335938 C 350.214844 624.121094 350.265625 624.90625 350.355469 625.683594 C 350.445312 626.464844 350.574219 627.238281 350.738281 628.007812 C 350.902344 628.777344 351.101562 629.535156 351.339844 630.285156 C 351.574219 631.03125 351.847656 631.769531 352.152344 632.492188 C 352.457031 633.214844 352.796875 633.921875 353.171875 634.613281 C 353.546875 635.300781 353.953125 635.972656 354.390625 636.625 C 354.828125 637.277344 355.292969 637.90625 355.792969 638.511719 C 356.289062 639.121094 356.816406 639.699219 357.367188 640.257812 L 386.730469 669.699219 L 386.734375 669.707031 C 386.992188 669.960938 387.273438 670.191406 387.578125 670.394531 C 387.878906 670.597656 388.199219 670.765625 388.539062 670.90625 C 388.875 671.042969 389.222656 671.148438 389.578125 671.21875 C 389.9375 671.289062 390.296875 671.324219 390.660156 671.324219 C 391.027344 671.324219 391.386719 671.289062 391.746094 671.21875 C 392.101562 671.148438 392.449219 671.042969 392.785156 670.902344 C 393.121094 670.761719 393.441406 670.59375 393.746094 670.390625 C 394.046875 670.1875 394.328125 669.957031 394.585938 669.699219 Z M 389.722656 666.691406 L 360.367188 637.25 C 359.894531 636.777344 359.445312 636.28125 359.023438 635.765625 C 358.601562 635.25 358.203125 634.714844 357.832031 634.15625 C 357.464844 633.601562 357.121094 633.027344 356.804688 632.4375 C 356.492188 631.847656 356.207031 631.246094 355.953125 630.628906 C 355.695312 630.011719 355.472656 629.382812 355.277344 628.742188 C 355.085938 628.101562 354.921875 627.453125 354.792969 626.796875 C 354.664062 626.144531 354.566406 625.480469 354.5 624.816406 C 354.433594 624.152344 354.402344 623.484375 354.402344 622.816406 C 354.402344 622.148438 354.433594 621.480469 354.5 620.816406 C 354.566406 620.148438 354.664062 619.488281 354.792969 618.832031 C 354.925781 618.179688 355.085938 617.53125 355.28125 616.890625 C 355.472656 616.25 355.699219 615.621094 355.953125 615.003906 C 356.207031 614.386719 356.492188 613.78125 356.808594 613.195312 C 357.121094 612.605469 357.464844 612.03125 357.835938 611.476562 C 358.207031 610.917969 358.601562 610.382812 359.023438 609.867188 C 359.449219 609.347656 359.894531 608.855469 360.367188 608.382812 C 360.839844 607.910156 361.332031 607.460938 361.847656 607.035156 C 362.363281 606.613281 362.898438 606.214844 363.453125 605.84375 C 364.007812 605.472656 364.578125 605.128906 365.167969 604.8125 C 365.753906 604.5 366.355469 604.214844 366.972656 603.957031 C 367.589844 603.703125 368.214844 603.476562 368.855469 603.28125 C 369.492188 603.089844 370.140625 602.925781 370.792969 602.796875 C 371.445312 602.664062 372.105469 602.566406 372.769531 602.503906 C 373.433594 602.4375 374.097656 602.402344 374.765625 602.402344 C 375.433594 602.402344 376.097656 602.4375 376.761719 602.503906 C 377.425781 602.566406 378.082031 602.664062 378.738281 602.796875 C 379.390625 602.925781 380.039062 603.089844 380.675781 603.28125 C 381.3125 603.476562 381.941406 603.703125 382.558594 603.957031 C 383.171875 604.214844 383.777344 604.5 384.363281 604.816406 C 384.953125 605.128906 385.523438 605.472656 386.078125 605.84375 C 386.632812 606.214844 387.167969 606.613281 387.683594 607.039062 C 388.199219 607.460938 388.691406 607.910156 389.164062 608.382812 C 389.363281 608.582031 389.589844 608.734375 389.851562 608.84375 C 390.109375 608.953125 390.382812 609.003906 390.664062 609.003906 C 390.945312 609.003906 391.214844 608.953125 391.472656 608.84375 C 391.734375 608.734375 391.960938 608.582031 392.160156 608.382812 C 392.632812 607.910156 393.125 607.460938 393.640625 607.039062 C 394.15625 606.613281 394.691406 606.214844 395.246094 605.84375 C 395.800781 605.472656 396.371094 605.128906 396.960938 604.816406 C 397.550781 604.5 398.152344 604.214844 398.765625 603.957031 C 399.382812 603.703125 400.011719 603.476562 400.648438 603.285156 C 401.285156 603.089844 401.933594 602.925781 402.585938 602.796875 C 403.242188 602.667969 403.898438 602.570312 404.5625 602.503906 C 405.226562 602.4375 405.890625 602.40625 406.558594 602.40625 C 407.226562 602.40625 407.890625 602.4375 408.554688 602.503906 C 409.21875 602.570312 409.878906 602.667969 410.53125 602.796875 C 411.1875 602.925781 411.832031 603.089844 412.46875 603.285156 C 413.109375 603.476562 413.734375 603.703125 414.351562 603.957031 C 414.96875 604.214844 415.570312 604.5 416.15625 604.816406 C 416.746094 605.128906 417.316406 605.472656 417.871094 605.84375 C 418.425781 606.214844 418.960938 606.613281 419.476562 607.039062 C 419.992188 607.460938 420.484375 607.910156 420.957031 608.382812 C 421.429688 608.855469 421.875 609.351562 422.300781 609.867188 C 422.722656 610.382812 423.117188 610.921875 423.488281 611.476562 C 423.859375 612.03125 424.203125 612.605469 424.515625 613.195312 C 424.832031 613.785156 425.117188 614.386719 425.371094 615.007812 C 425.625 615.625 425.851562 616.253906 426.042969 616.890625 C 426.238281 617.53125 426.398438 618.179688 426.53125 618.835938 C 426.660156 619.492188 426.757812 620.152344 426.824219 620.816406 C 426.886719 621.484375 426.921875 622.148438 426.921875 622.816406 C 426.921875 623.488281 426.886719 624.152344 426.824219 624.820312 C 426.757812 625.484375 426.660156 626.144531 426.53125 626.800781 C 426.398438 627.457031 426.238281 628.105469 426.042969 628.742188 C 425.851562 629.382812 425.625 630.011719 425.371094 630.628906 C 425.117188 631.246094 424.832031 631.851562 424.515625 632.441406 C 424.203125 633.03125 423.859375 633.601562 423.488281 634.160156 C 423.117188 634.714844 422.722656 635.25 422.300781 635.769531 C 421.875 636.285156 421.429688 636.78125 420.957031 637.253906 L 391.585938 666.695312 C 391.460938 666.816406 391.320312 666.910156 391.15625 666.972656 C 390.996094 667.039062 390.828125 667.070312 390.652344 667.070312 C 390.480469 667.070312 390.3125 667.035156 390.152344 666.972656 C 389.988281 666.90625 389.847656 666.8125 389.722656 666.691406 Z M 389.722656 666.691406 " fill-opacity="1" fill-rule="nonzero"/>

</g>
</svg>