<svg xmlns="http://www.w3.org/2000/svg" viewBox="0 0 73.609375 112.0">
<g transform="translate(-392.0,-633.0)">
<path fill="#191919" d="M 465.609375 653.261719 C 465.609375 652.0625 465.507812 650.871094 465.296875 649.691406 C 465.085938 648.511719 464.773438 647.363281 464.359375 646.238281 C 463.945312 645.113281 463.4375 644.035156 462.832031 643 C 462.226562 641.96875 461.535156 640.996094 460.757812 640.085938 C 459.980469 639.175781 459.128906 638.339844 458.203125 637.582031 C 457.277344 636.824219 456.292969 636.152344 455.25 635.566406 C 454.207031 634.984375 453.121094 634.496094 451.988281 634.109375 C 450.859375 633.71875 449.703125 633.429688 448.523438 633.246094 C 447.339844 633.0625 446.152344 632.984375 444.957031 633.011719 C 443.761719 633.039062 442.578125 633.171875 441.40625 633.410156 C 440.234375 633.648438 439.09375 633.988281 437.984375 634.429688 C 436.871094 634.871094 435.808594 635.40625 434.792969 636.039062 C 433.777344 636.667969 432.824219 637.382812 431.933594 638.183594 C 431.042969 638.984375 430.230469 639.859375 429.496094 640.804688 C 428.761719 641.75 428.117188 642.75 427.558594 643.8125 C 427 644.871094 426.542969 645.972656 426.179688 647.113281 C 425.816406 648.257812 425.558594 649.421875 425.402344 650.609375 C 425.246094 651.796875 425.195312 652.992188 425.25 654.1875 C 425.308594 655.382812 425.46875 656.566406 425.734375 657.734375 C 425.996094 658.902344 426.363281 660.039062 426.828125 661.144531 C 427.296875 662.246094 427.855469 663.300781 428.507812 664.304688 C 429.160156 665.308594 429.898438 666.246094 430.714844 667.117188 C 431.535156 667.992188 432.425781 668.785156 433.386719 669.5 C 434.34375 670.214844 435.359375 670.835938 436.429688 671.371094 C 435.601562 671.785156 434.804688 672.253906 434.042969 672.777344 C 433.277344 673.300781 432.554688 673.871094 431.867188 674.496094 C 431.179688 675.117188 430.542969 675.785156 429.949219 676.496094 C 429.351562 677.207031 428.808594 677.957031 428.320312 678.742188 C 427.828125 679.527344 427.390625 680.34375 427.011719 681.1875 C 426.632812 682.035156 426.3125 682.902344 426.050781 683.792969 C 425.789062 684.683594 425.589844 685.585938 425.453125 686.503906 C 425.316406 687.421875 425.242188 688.34375 425.230469 689.269531 L 414.988281 695.617188 L 403.101562 695.617188 C 402.394531 695.613281 401.699219 695.679688 401.007812 695.816406 C 400.316406 695.949219 399.644531 696.148438 398.992188 696.417969 C 398.339844 696.6875 397.71875 697.015625 397.132812 697.40625 C 396.546875 697.796875 396.003906 698.238281 395.503906 698.738281 C 395.003906 699.238281 394.558594 699.777344 394.164062 700.367188 C 393.773438 700.953125 393.441406 701.570312 393.171875 702.222656 C 392.898438 702.875 392.695312 703.546875 392.558594 704.242188 C 392.421875 704.933594 392.351562 705.632812 392.351562 706.339844 C 392.351562 707.046875 392.421875 707.746094 392.558594 708.4375 C 392.695312 709.128906 392.902344 709.800781 393.171875 710.453125 C 393.441406 711.105469 393.773438 711.726562 394.167969 712.3125 C 394.558594 712.898438 395.003906 713.441406 395.503906 713.9375 C 396.003906 714.4375 396.546875 714.882812 397.132812 715.269531 C 397.722656 715.660156 398.339844 715.992188 398.992188 716.257812 C 399.644531 716.527344 400.316406 716.726562 401.007812 716.863281 C 401.699219 716.996094 402.398438 717.0625 403.101562 717.058594 L 418.015625 717.039062 L 418.070312 717.039062 C 420.082031 717.039062 421.941406 716.503906 423.644531 715.433594 L 425.230469 714.464844 L 425.230469 742.832031 C 425.230469 743.113281 425.285156 743.382812 425.390625 743.644531 C 425.5 743.90625 425.652344 744.132812 425.851562 744.332031 C 426.050781 744.53125 426.28125 744.6875 426.539062 744.792969 C 426.800781 744.902344 427.070312 744.957031 427.351562 744.957031 L 463.488281 744.957031 C 463.769531 744.957031 464.042969 744.902344 464.300781 744.792969 C 464.5625 744.6875 464.789062 744.535156 464.988281 744.332031 C 465.1875 744.132812 465.339844 743.90625 465.449219 743.644531 C 465.554688 743.382812 465.609375 743.113281 465.609375 742.832031 L 465.609375 689.480469 C 465.609375 688.542969 465.542969 687.613281 465.414062 686.683594 C 465.285156 685.757812 465.089844 684.84375 464.835938 683.945312 C 464.578125 683.042969 464.261719 682.164062 463.882812 681.308594 C 463.507812 680.453125 463.070312 679.625 462.578125 678.832031 C 462.085938 678.035156 461.542969 677.277344 460.945312 676.554688 C 460.351562 675.835938 459.707031 675.160156 459.015625 674.53125 C 458.324219 673.898438 457.59375 673.320312 456.824219 672.789062 C 456.054688 672.261719 455.25 671.789062 454.414062 671.371094 C 455.25 670.953125 456.054688 670.480469 456.824219 669.949219 C 457.59375 669.421875 458.324219 668.839844 459.015625 668.210938 C 459.707031 667.578125 460.347656 666.902344 460.945312 666.183594 C 461.542969 665.464844 462.085938 664.707031 462.578125 663.910156 C 463.070312 663.113281 463.507812 662.289062 463.882812 661.433594 C 464.261719 660.574219 464.578125 659.695312 464.835938 658.796875 C 465.089844 657.894531 465.285156 656.984375 465.414062 656.054688 C 465.542969 655.128906 465.609375 654.195312 465.609375 653.261719 Z M 461.367188 689.480469 L 461.367188 740.703125 L 429.472656 740.703125 L 429.472656 711.863281 L 444.59375 702.382812 C 444.832031 702.234375 445.03125 702.042969 445.195312 701.816406 C 445.355469 701.585938 445.46875 701.332031 445.53125 701.058594 C 445.59375 700.785156 445.601562 700.507812 445.554688 700.234375 C 445.507812 699.957031 445.410156 699.699219 445.261719 699.457031 C 445.113281 699.21875 444.925781 699.019531 444.695312 698.855469 C 444.46875 698.691406 444.21875 698.578125 443.945312 698.515625 C 443.671875 698.453125 443.398438 698.441406 443.121094 698.488281 C 442.84375 698.535156 442.585938 698.628906 442.347656 698.777344 L 426.605469 708.644531 C 426.542969 708.683594 426.480469 708.726562 426.421875 708.773438 C 426.363281 708.804688 426.304688 708.832031 426.246094 708.863281 L 421.417969 711.820312 C 420.390625 712.464844 419.269531 712.789062 418.058594 712.789062 L 418.023438 712.789062 L 403.101562 712.804688 C 402.675781 712.808594 402.253906 712.769531 401.835938 712.6875 C 401.417969 712.609375 401.011719 712.488281 400.617188 712.324219 C 400.226562 712.164062 399.851562 711.964844 399.496094 711.730469 C 399.140625 711.496094 398.8125 711.226562 398.511719 710.925781 C 398.210938 710.625 397.941406 710.296875 397.703125 709.945312 C 397.464844 709.589844 397.265625 709.214844 397.101562 708.820312 C 396.9375 708.429688 396.8125 708.023438 396.730469 707.605469 C 396.648438 707.1875 396.605469 706.761719 396.605469 706.335938 C 396.605469 705.910156 396.648438 705.488281 396.730469 705.070312 C 396.8125 704.652344 396.9375 704.246094 397.101562 703.851562 C 397.265625 703.457031 397.464844 703.082031 397.703125 702.730469 C 397.941406 702.375 398.210938 702.046875 398.511719 701.746094 C 398.8125 701.445312 399.140625 701.179688 399.496094 700.945312 C 399.851562 700.707031 400.226562 700.507812 400.617188 700.347656 C 401.011719 700.1875 401.417969 700.066406 401.835938 699.984375 C 402.253906 699.90625 402.675781 699.867188 403.101562 699.867188 L 415.59375 699.867188 C 415.992188 699.867188 416.367188 699.761719 416.707031 699.550781 L 428.464844 692.261719 C 428.777344 692.070312 429.023438 691.8125 429.203125 691.492188 C 429.382812 691.167969 429.472656 690.824219 429.472656 690.457031 L 429.472656 689.480469 C 429.472656 688.957031 429.496094 688.4375 429.550781 687.914062 C 429.601562 687.394531 429.675781 686.875 429.777344 686.363281 C 429.878906 685.847656 430.007812 685.339844 430.160156 684.839844 C 430.308594 684.339844 430.484375 683.847656 430.6875 683.363281 C 430.886719 682.878906 431.109375 682.40625 431.355469 681.945312 C 431.601562 681.484375 431.871094 681.035156 432.160156 680.597656 C 432.449219 680.164062 432.761719 679.742188 433.09375 679.339844 C 433.421875 678.933594 433.773438 678.546875 434.144531 678.175781 C 434.511719 677.804688 434.898438 677.453125 435.304688 677.121094 C 435.707031 676.789062 436.125 676.476562 436.558594 676.1875 C 436.996094 675.894531 437.441406 675.628906 437.902344 675.378906 C 438.363281 675.132812 438.835938 674.910156 439.316406 674.710938 C 439.800781 674.507812 440.292969 674.332031 440.792969 674.179688 C 441.292969 674.027344 441.796875 673.902344 442.308594 673.800781 C 442.820312 673.699219 443.335938 673.621094 443.859375 673.570312 C 444.378906 673.519531 444.898438 673.492188 445.421875 673.492188 C 445.941406 673.492188 446.464844 673.519531 446.984375 673.570312 C 447.503906 673.621094 448.019531 673.699219 448.53125 673.800781 C 449.042969 673.902344 449.550781 674.027344 450.050781 674.179688 C 450.550781 674.332031 451.042969 674.507812 451.523438 674.710938 C 452.007812 674.910156 452.476562 675.132812 452.9375 675.378906 C 453.398438 675.628906 453.847656 675.894531 454.28125 676.1875 C 454.714844 676.476562 455.136719 676.789062 455.539062 677.121094 C 455.941406 677.453125 456.328125 677.804688 456.699219 678.175781 C 457.066406 678.546875 457.417969 678.933594 457.75 679.339844 C 458.082031 679.742188 458.390625 680.164062 458.683594 680.597656 C 458.972656 681.035156 459.242188 681.484375 459.488281 681.945312 C 459.734375 682.40625 459.957031 682.878906 460.15625 683.363281 C 460.355469 683.847656 460.53125 684.339844 460.683594 684.839844 C 460.835938 685.339844 460.960938 685.847656 461.0625 686.363281 C 461.164062 686.875 461.242188 687.394531 461.292969 687.914062 C 461.34375 688.4375 461.371094 688.957031 461.371094 689.480469 Z M 445.425781 669.246094 C 444.902344 669.246094 444.378906 669.21875 443.859375 669.167969 C 443.339844 669.117188 442.824219 669.039062 442.3125 668.9375 C 441.800781 668.835938 441.292969 668.710938 440.792969 668.558594 C 440.292969 668.40625 439.800781 668.230469 439.320312 668.03125 C 438.835938 667.828125 438.367188 667.605469 437.90625 667.359375 C 437.445312 667.113281 436.996094 666.84375 436.5625 666.550781 C 436.128906 666.261719 435.707031 665.949219 435.304688 665.617188 C 434.902344 665.285156 434.515625 664.933594 434.144531 664.5625 C 433.773438 664.195312 433.425781 663.804688 433.09375 663.402344 C 432.761719 662.996094 432.449219 662.578125 432.160156 662.140625 C 431.871094 661.707031 431.601562 661.257812 431.355469 660.796875 C 431.109375 660.332031 430.886719 659.859375 430.6875 659.375 C 430.484375 658.894531 430.308594 658.402344 430.160156 657.898438 C 430.007812 657.398438 429.878906 656.890625 429.777344 656.378906 C 429.675781 655.863281 429.597656 655.347656 429.546875 654.824219 C 429.496094 654.304688 429.472656 653.78125 429.472656 653.257812 C 429.472656 652.734375 429.496094 652.210938 429.546875 651.691406 C 429.597656 651.167969 429.675781 650.652344 429.777344 650.136719 C 429.878906 649.625 430.007812 649.117188 430.15625 648.617188 C 430.308594 648.113281 430.484375 647.621094 430.683594 647.136719 C 430.886719 646.652344 431.109375 646.179688 431.355469 645.71875 C 431.601562 645.257812 431.867188 644.808594 432.160156 644.375 C 432.449219 643.9375 432.761719 643.519531 433.089844 643.113281 C 433.421875 642.707031 433.773438 642.320312 434.140625 641.949219 C 434.511719 641.578125 434.898438 641.226562 435.300781 640.894531 C 435.707031 640.5625 436.125 640.253906 436.558594 639.960938 C 436.992188 639.671875 437.441406 639.402344 437.902344 639.15625 C 438.363281 638.90625 438.835938 638.683594 439.316406 638.484375 C 439.800781 638.285156 440.292969 638.105469 440.792969 637.957031 C 441.292969 637.804688 441.796875 637.675781 442.308594 637.574219 C 442.820312 637.472656 443.339844 637.394531 443.859375 637.34375 C 444.378906 637.292969 444.898438 637.265625 445.421875 637.265625 C 445.945312 637.265625 446.464844 637.292969 446.984375 637.34375 C 447.503906 637.394531 448.019531 637.472656 448.535156 637.574219 C 449.046875 637.675781 449.550781 637.804688 450.050781 637.957031 C 450.550781 638.109375 451.042969 638.285156 451.523438 638.484375 C 452.007812 638.683594 452.480469 638.910156 452.941406 639.15625 C 453.402344 639.402344 453.847656 639.671875 454.28125 639.964844 C 454.71875 640.253906 455.136719 640.566406 455.539062 640.898438 C 455.945312 641.230469 456.332031 641.582031 456.699219 641.953125 C 457.070312 642.324219 457.417969 642.710938 457.75 643.113281 C 458.082031 643.519531 458.394531 643.941406 458.683594 644.375 C 458.972656 644.8125 459.242188 645.261719 459.488281 645.722656 C 459.734375 646.183594 459.957031 646.65625 460.15625 647.140625 C 460.355469 647.625 460.53125 648.117188 460.683594 648.617188 C 460.835938 649.121094 460.960938 649.625 461.0625 650.140625 C 461.164062 650.652344 461.242188 651.171875 461.292969 651.691406 C 461.34375 652.214844 461.367188 652.738281 461.367188 653.261719 C 461.367188 653.785156 461.34375 654.304688 461.289062 654.828125 C 461.238281 655.347656 461.160156 655.863281 461.058594 656.378906 C 460.957031 656.890625 460.828125 657.398438 460.675781 657.898438 C 460.523438 658.398438 460.347656 658.890625 460.148438 659.375 C 459.949219 659.855469 459.726562 660.328125 459.480469 660.792969 C 459.234375 661.253906 458.964844 661.699219 458.675781 662.136719 C 458.382812 662.570312 458.074219 662.992188 457.742188 663.394531 C 457.410156 663.800781 457.0625 664.1875 456.691406 664.558594 C 456.324219 664.925781 455.9375 665.277344 455.535156 665.609375 C 455.128906 665.941406 454.710938 666.253906 454.277344 666.542969 C 453.84375 666.835938 453.394531 667.105469 452.9375 667.351562 C 452.476562 667.597656 452.003906 667.820312 451.523438 668.023438 C 451.039062 668.222656 450.550781 668.398438 450.050781 668.550781 C 449.550781 668.703125 449.046875 668.832031 448.535156 668.933594 C 448.023438 669.035156 447.503906 669.113281 446.988281 669.167969 C 446.46875 669.21875 445.945312 669.246094 445.425781 669.246094 Z M 445.425781 669.246094 " fill-opacity="1" fill-rule="nonzero"/>

</g>
</svg>