<svg xmlns="http://www.w3.org/2000/svg" viewBox="0 0 38.0 96.43359400000003">
<g transform="translate(-469.0,-352.0)">
<path fill="#000000" d="M 473.65625 396.480469 C 473.09375 396.480469 472.574219 396.121094 472.394531 395.5625 C 470.578125 389.808594 468.515625 383.292969 470.75 374.675781 C 471.199219 372.957031 470.824219 369.769531 470.464844 366.683594 C 470.265625 364.957031 470.054688 363.171875 469.96875 361.515625 C 469.839844 359.058594 469.539062 353.308594 475.253906 352.332031 C 477.269531 351.988281 479.261719 352.773438 480.582031 354.433594 C 481.898438 356.09375 482.273438 358.277344 481.539062 360.003906 C 481.277344 360.621094 481.320312 361.226562 481.667969 361.796875 C 482.707031 363.507812 482.992188 365.589844 482.453125 367.515625 C 482.257812 368.214844 481.527344 368.625 480.824219 368.429688 C 480.121094 368.234375 479.710938 367.507812 479.90625 366.808594 C 480.25 365.582031 480.066406 364.25 479.40625 363.160156 C 478.617188 361.859375 478.511719 360.375 479.105469 358.972656 C 479.464844 358.136719 479.222656 356.96875 478.507812 356.070312 C 478.164062 355.640625 477.207031 354.667969 475.703125 354.925781 C 473.191406 355.355469 472.378906 357.042969 472.605469 361.378906 C 472.691406 362.949219 472.894531 364.695312 473.089844 366.378906 C 473.496094 369.859375 473.882812 373.140625 473.3125 375.335938 C 471.265625 383.222656 473.121094 389.09375 474.917969 394.769531 C 475.136719 395.460938 474.75 396.203125 474.050781 396.421875 C 473.921875 396.460938 473.789062 396.480469 473.65625 396.480469 Z M 497.015625 448.078125 C 493.414062 448.078125 489.765625 447.09375 486.625 445.152344 C 480.046875 441.082031 476.519531 433.425781 476.691406 423.597656 C 476.707031 422.871094 477.308594 422.300781 478.039062 422.304688 C 478.769531 422.316406 479.351562 422.917969 479.335938 423.644531 C 479.179688 432.507812 482.261719 439.351562 488.015625 442.914062 C 492.859375 445.910156 499.355469 446.253906 504.175781 443.773438 C 504.824219 443.4375 505.621094 443.6875 505.957031 444.335938 C 506.292969 444.980469 506.039062 445.777344 505.390625 446.113281 C 502.832031 447.429688 499.9375 448.078125 497.015625 448.078125 Z M 497.015625 448.078125 " fill-opacity="1" fill-rule="evenodd"/>

</g>
</svg>