<svg xmlns="http://www.w3.org/2000/svg" viewBox="0 0 42.46484399999997 120.640625">
<g transform="translate(-493.0,-327.792969)">
<path fill="#000000" d="M 534.078125 448.460938 L 504.921875 448.460938 C 504.214844 448.460938 503.636719 447.910156 503.601562 447.210938 C 503.386719 442.867188 502.890625 439.449219 502.125 437.054688 C 501.503906 435.105469 500.828125 433.992188 500.121094 432.808594 C 499.144531 431.191406 498.132812 429.515625 497.441406 425.929688 C 496.957031 423.445312 497.152344 422.046875 497.304688 420.925781 C 497.476562 419.6875 497.601562 418.796875 496.792969 416.507812 C 496.574219 415.882812 496.367188 415.335938 496.167969 414.804688 C 495.3125 412.53125 494.695312 410.886719 494.867188 407.996094 C 494.953125 406.582031 494.671875 404.511719 494.382812 402.324219 C 493.859375 398.425781 493.265625 394.007812 494.328125 390.796875 C 495.097656 388.480469 497.332031 387.027344 500.03125 387.089844 C 502.507812 387.148438 504.53125 388.480469 505.070312 390.402344 C 505.484375 391.886719 505.898438 393.703125 505.8125 395.902344 C 505.71875 398.339844 505.828125 400.054688 505.941406 401.867188 C 506.015625 403.070312 506.097656 404.320312 506.117188 405.835938 C 506.128906 406.585938 506.289062 407.578125 506.976562 408.046875 C 507.523438 408.414062 508.214844 408.359375 508.640625 408.203125 C 509.023438 408.058594 509.097656 407.996094 509.199219 406.800781 C 509.222656 406.496094 509.253906 406.144531 509.3125 405.785156 C 510.234375 399.910156 512.019531 394.933594 514.625 390.996094 C 520.859375 381.554688 521.535156 367.796875 516.433594 354.1875 C 515.6875 352.199219 515.609375 350.242188 516.191406 348.203125 C 516.6875 346.46875 516.375 345.695312 515.945312 344.628906 C 515.574219 343.710938 515.109375 342.566406 515.210938 340.839844 C 515.210938 340.769531 515.222656 340.699219 515.238281 340.632812 C 515.6875 338.609375 515.605469 336.5 515.003906 334.519531 C 513.769531 331.863281 510.984375 330.253906 508.054688 330.5 C 505.097656 330.746094 502.605469 332.835938 501.855469 335.699219 C 501.671875 336.402344 500.949219 336.824219 500.242188 336.640625 C 499.539062 336.457031 499.113281 335.738281 499.300781 335.035156 C 500.332031 331.09375 503.757812 328.214844 507.832031 327.875 C 511.90625 327.53125 515.769531 329.796875 517.449219 333.507812 C 517.472656 333.558594 517.492188 333.609375 517.507812 333.660156 C 518.253906 336.0625 518.367188 338.628906 517.839844 341.089844 C 517.800781 342.167969 518.074219 342.855469 518.394531 343.644531 C 518.90625 344.898438 519.480469 346.320312 518.734375 348.921875 C 518.304688 350.425781 518.363281 351.804688 518.910156 353.265625 C 524.304688 367.660156 523.53125 382.304688 516.832031 392.441406 C 514.4375 396.066406 512.785156 400.691406 511.921875 406.191406 C 511.882812 406.460938 511.855469 406.734375 511.832031 407.023438 C 511.734375 408.175781 511.589844 409.917969 509.566406 410.667969 C 508.203125 411.175781 506.640625 411.003906 505.488281 410.222656 C 504.59375 409.609375 503.515625 408.363281 503.476562 405.878906 C 503.453125 404.421875 503.375 403.207031 503.304688 402.03125 C 503.183594 400.148438 503.074219 398.375 503.171875 395.800781 C 503.242188 393.96875 502.902344 392.460938 502.523438 391.105469 C 502.308594 390.335938 501.234375 389.753906 499.96875 389.722656 C 498.773438 389.691406 497.316406 390.179688 496.839844 391.621094 C 495.964844 394.257812 496.515625 398.359375 497 401.976562 C 497.3125 404.292969 497.605469 406.484375 497.507812 408.152344 C 497.367188 410.488281 497.820312 411.691406 498.644531 413.882812 C 498.839844 414.398438 499.058594 414.984375 499.289062 415.636719 C 500.308594 418.523438 500.109375 419.925781 499.925781 421.285156 C 499.78125 422.3125 499.632812 423.371094 500.035156 425.429688 C 500.640625 428.558594 501.449219 429.902344 502.386719 431.453125 C 503.109375 432.652344 503.925781 434.015625 504.644531 436.253906 C 505.398438 438.621094 505.910156 441.839844 506.171875 445.828125 L 532.734375 445.828125 C 532.589844 443.421875 531.914062 439.042969 530.320312 437.230469 C 528.335938 434.96875 527.40625 432.304688 527.554688 429.304688 C 527.792969 424.53125 529.265625 419.027344 530.097656 416.527344 C 530.105469 416.5 530.117188 416.472656 530.125 416.445312 C 532.269531 411.191406 532.875 407.230469 531.933594 404.675781 C 531.574219 403.707031 530.976562 403.273438 530.148438 402.671875 C 528.910156 401.769531 527.363281 400.644531 526.597656 397.589844 C 526.421875 396.882812 526.855469 396.167969 527.5625 395.992188 C 528.269531 395.816406 528.988281 396.246094 529.164062 396.953125 C 529.699219 399.082031 530.628906 399.757812 531.710938 400.542969 C 532.679688 401.25 533.777344 402.050781 534.414062 403.765625 C 535.605469 406.992188 535.011719 411.453125 532.59375 417.394531 C 531.851562 419.628906 530.417969 424.960938 530.195312 429.4375 C 530.078125 431.761719 530.769531 433.742188 532.308594 435.496094 C 535.148438 438.730469 535.460938 446.007812 535.398438 447.214844 C 535.363281 447.914062 534.78125 448.460938 534.078125 448.460938 Z M 534.078125 448.460938 " fill-opacity="1" fill-rule="evenodd"/>

</g>
</svg>