<svg xmlns="http://www.w3.org/2000/svg" viewBox="0 0 48.70703099999997 71.0">
<g transform="translate(-443.292969,-376.0)">
<path fill="#000000" d="M 444.59375 446.988281 C 443.863281 446.988281 443.273438 446.398438 443.273438 445.667969 L 443.273438 414 C 443.273438 413.273438 443.863281 412.683594 444.59375 412.683594 C 450.808594 412.683594 454.3125 410.257812 455.3125 405.269531 C 455.6875 403.402344 456.050781 401.199219 456.398438 398.722656 C 456.527344 397.792969 456.582031 396.859375 456.644531 395.871094 L 456.679688 395.34375 C 456.957031 390.917969 459.539062 387.171875 463.585938 385.324219 C 464.183594 385.050781 464.792969 384.78125 465.398438 384.515625 C 467.296875 383.679688 469.261719 382.8125 470.300781 382.011719 C 470.882812 381.566406 471.710938 381.675781 472.15625 382.25 C 472.601562 382.824219 472.496094 383.652344 471.917969 384.097656 C 470.621094 385.09375 468.605469 385.984375 466.464844 386.925781 C 465.875 387.1875 465.273438 387.449219 464.6875 387.714844 C 461.496094 389.175781 459.539062 392.015625 459.316406 395.511719 L 459.28125 396.03125 C 459.222656 397.027344 459.160156 398.054688 459.015625 399.082031 C 458.664062 401.609375 458.289062 403.867188 457.90625 405.785156 C 456.734375 411.644531 452.597656 414.90625 445.914062 415.28125 L 445.914062 444.304688 C 453.65625 443.78125 466.105469 438.980469 471.15625 434.425781 C 475.078125 430.886719 477.636719 422.957031 478.363281 412.09375 C 478.464844 407.625 479.320312 403.242188 480.90625 399.058594 C 481.90625 395.742188 483.652344 392.625 485.964844 390.042969 C 485.996094 390.011719 486.027344 389.980469 486.058594 389.949219 C 487.949219 388.226562 489.160156 384.496094 489.339844 381.855469 C 489.433594 380.539062 488.160156 379.5625 487.039062 379.128906 C 485.78125 378.640625 484.527344 378.714844 484.054688 379.304688 C 481.097656 382.996094 479.058594 386.164062 478.160156 388.46875 C 477.839844 389.292969 477.605469 389.996094 477.386719 390.679688 C 476.824219 392.417969 476.335938 393.917969 474.710938 395.957031 C 473.683594 397.25 472.710938 398.058594 471.851562 398.773438 C 470.277344 400.085938 469.136719 401.03125 468.246094 404.574219 C 468.066406 405.277344 467.347656 405.707031 466.640625 405.53125 C 465.933594 405.355469 465.503906 404.640625 465.679688 403.933594 C 466.78125 399.558594 468.421875 398.195312 470.160156 396.75 C 470.957031 396.085938 471.785156 395.402344 472.640625 394.324219 C 473.96875 392.65625 474.347656 391.488281 474.871094 389.867188 C 475.09375 389.183594 475.347656 388.410156 475.695312 387.511719 C 476.707031 384.929688 478.824219 381.613281 481.988281 377.664062 C 483.222656 376.125 485.578125 375.738281 488 376.675781 C 490.570312 377.671875 492.132812 379.777344 491.980469 382.039062 C 491.765625 385.144531 490.394531 389.523438 487.894531 391.84375 C 485.851562 394.140625 484.304688 396.910156 483.425781 399.855469 C 483.417969 399.886719 483.40625 399.917969 483.398438 399.945312 C 481.90625 403.871094 481.097656 407.988281 481.003906 412.183594 C 481.003906 412.203125 481.003906 412.222656 481 412.242188 C 480.460938 420.417969 478.617188 431.246094 472.929688 436.375 C 467.105469 441.632812 452.804688 446.988281 444.59375 446.988281 Z M 444.59375 446.988281 " fill-opacity="1" fill-rule="evenodd"/>

</g>
</svg>