<svg xmlns="http://www.w3.org/2000/svg" viewBox="0 0 64.97265600000003 67.0">
<g transform="translate(-603.027344,-352.0)">
<path fill="#000000" d="M 607.296875 356.90625 C 609.011719 365.902344 616.007812 396.277344 634.164062 408.949219 C 641.8125 414.28125 650.605469 415.851562 660.351562 413.640625 C 657.632812 411.941406 655.21875 410.054688 653.140625 408.003906 C 643.714844 398.695312 640.695312 385.851562 644.15625 369.820312 C 639.988281 367.371094 635.164062 365.109375 629.792969 363.085938 C 620.292969 359.519531 611.492188 357.664062 607.296875 356.90625 Z M 651.996094 418.378906 C 644.765625 418.378906 638.078125 416.257812 632.003906 412.019531 C 609.339844 396.199219 603.367188 356.570312 603.125 354.886719 C 603.039062 354.304688 603.238281 353.714844 603.652344 353.300781 C 604.070312 352.882812 604.671875 352.691406 605.246094 352.761719 C 605.742188 352.832031 617.589844 354.5 631.125 359.574219 C 637.21875 361.875 642.652344 364.476562 647.277344 367.316406 C 647.96875 367.738281 648.308594 368.554688 648.125 369.339844 C 644.515625 384.640625 647.097656 396.753906 655.792969 405.339844 C 658.566406 408.078125 662.023438 410.507812 666.070312 412.554688 C 666.746094 412.898438 667.152344 413.613281 667.09375 414.367188 C 667.039062 415.125 666.53125 415.769531 665.808594 416.007812 C 661.015625 417.589844 656.40625 418.378906 651.996094 418.378906 " fill-opacity="1" fill-rule="nonzero"/>

</g>
</svg>