<svg xmlns="http://www.w3.org/2000/svg" viewBox="0 0 158.15234299999997 116.87890600000003">
<g transform="translate(-777.667969,-417.0)">
<path fill="#000000" d="M 883.757812 417.101562 C 879.210938 417.101562 875.359375 418.734375 873.136719 421.753906 C 872.496094 422.625 872.148438 423.175781 871.964844 423.371094 C 871.78125 423.566406 871.773438 423.613281 871.113281 423.808594 L 859.347656 427.304688 C 855.910156 428.328125 854.128906 431.621094 854.839844 434.367188 C 855.546875 437.109375 858.558594 439.160156 861.941406 438.523438 L 872.285156 436.585938 C 873.226562 436.40625 873.578125 436.558594 873.867188 436.761719 C 874.15625 436.964844 874.46875 437.375 874.691406 438.097656 L 881.164062 466.921875 C 883.105469 475.582031 883.882812 483.015625 882.011719 487.949219 C 880.140625 492.886719 876.414062 495.71875 868.40625 495.789062 C 860.476562 495.859375 856.351562 492.5625 853.699219 487.785156 C 851.199219 483.28125 850.523438 477.324219 850.445312 472.132812 C 851.773438 471.5625 853.351562 471.316406 854.109375 470.210938 C 855.375 468.355469 855.847656 466.113281 855.707031 463.894531 C 855.566406 461.679688 854.808594 459.449219 853.273438 457.671875 C 851.746094 455.894531 849.351562 454.660156 846.550781 454.660156 L 806.265625 454.660156 C 800.898438 454.660156 796.972656 459.191406 796.820312 463.910156 C 796.695312 467.90625 798.125 470.167969 801.902344 471.386719 C 797.039062 473.445312 791.632812 476.808594 787.648438 484.878906 L 785.890625 484.878906 C 781.179688 484.878906 777.734375 489.273438 777.734375 494.203125 C 777.734375 498.027344 779.820312 501.492188 782.953125 502.867188 C 782.683594 505.582031 782.507812 508.46875 782.507812 511.632812 C 782.511719 512.875 783.523438 513.882812 784.765625 513.878906 L 795.371094 513.878906 C 796.171875 518.722656 798.4375 523.238281 801.945312 526.757812 C 806.378906 531.195312 812.398438 533.6875 818.664062 533.6875 C 824.929688 533.6875 830.9375 531.1875 835.363281 526.757812 C 838.886719 523.238281 841.148438 518.722656 841.945312 513.878906 L 888.871094 513.878906 C 889.671875 518.722656 891.9375 523.238281 895.445312 526.757812 C 899.875 531.195312 905.898438 533.6875 912.160156 533.6875 C 918.433594 533.6875 924.429688 531.191406 928.859375 526.757812 C 933.308594 522.316406 935.789062 516.292969 935.789062 510.019531 C 935.789062 502.167969 931.957031 495.199219 926.058594 490.890625 C 927.414062 489.476562 928.292969 487.796875 928.242188 485.835938 C 928.199219 484.320312 927.503906 482.828125 926.382812 481.648438 C 925.257812 480.46875 923.738281 479.523438 921.785156 478.710938 C 917.632812 476.988281 913.683594 476.261719 908.847656 476.039062 C 907.601562 475.980469 907.113281 475.808594 906.929688 475.699219 C 906.746094 475.589844 906.574219 475.414062 906.152344 474.660156 L 891.871094 441.679688 L 895.066406 441.679688 C 898.492188 441.679688 901.289062 439.957031 902.859375 437.554688 C 904.429688 435.148438 904.964844 432.199219 904.789062 429.3125 C 904.617188 426.421875 903.71875 423.558594 902.039062 421.238281 C 900.355469 418.914062 897.722656 417.152344 894.523438 417.097656 L 883.757812 417.097656 Z M 883.757812 421.605469 L 892.023438 421.605469 C 889.976562 426.652344 889.953125 432.394531 891.789062 437.171875 C 889.695312 437.3125 888.40625 437.722656 887.609375 439.15625 C 886.699219 440.789062 887.609375 443.261719 887.859375 443.839844 L 902.226562 476.863281 C 902.59375 477.519531 903.042969 478.195312 903.632812 478.777344 C 898.726562 480.296875 895.035156 483.042969 892.707031 485.601562 C 891.179688 487.265625 893.675781 489.5625 895.199219 487.894531 C 901.292969 482.652344 906.441406 480.722656 912.328125 480.871094 C 915.109375 480.9375 917.46875 481.84375 920.058594 482.886719 C 923.765625 484.378906 924.3125 487.089844 921.070312 489.183594 L 889.792969 509.375 L 787.136719 509.375 C 787.1875 507.34375 787.273438 505.363281 787.421875 503.515625 L 789.234375 503.515625 C 793.945312 503.515625 797.390625 499.136719 797.390625 494.207031 C 797.390625 490.453125 795.386719 487.027344 792.351562 485.597656 C 797.238281 476.714844 804.125 474.382812 808.460938 473.429688 L 845.824219 473.429688 C 846.003906 478.785156 846.90625 484.816406 849.773438 489.980469 C 853.042969 495.871094 859.144531 500.398438 868.445312 500.3125 C 877.664062 500.230469 883.761719 496.03125 886.214844 489.550781 C 888.289062 481.109375 887 472.355469 885.539062 465.851562 L 879.050781 436.96875 C 878.660156 435.222656 877.480469 433.941406 876.429688 433.0625 C 875.171875 432.011719 873.28125 431.808594 871.449219 432.152344 L 861.105469 434.09375 C 858.894531 434.507812 858.433594 432.273438 860.625 431.625 L 872.386719 428.144531 C 873.554688 427.800781 874.570312 427.1875 875.242188 426.472656 C 875.914062 425.753906 876.253906 425.140625 876.765625 424.445312 C 877.984375 422.789062 880.265625 421.605469 883.757812 421.605469 Z M 895.695312 421.804688 C 896.757812 422.121094 897.632812 422.816406 898.40625 423.882812 C 899.464844 425.34375 900.164062 427.484375 900.292969 429.59375 C 900.421875 431.703125 899.960938 433.753906 899.089844 435.089844 C 898.28125 436.328125 897.253906 437.035156 895.453125 437.132812 C 893.359375 432.761719 893.339844 426.679688 895.695312 421.804688 Z M 806.265625 459.167969 L 846.550781 459.167969 C 848.136719 459.167969 849.089844 459.714844 849.859375 460.613281 C 850.628906 461.503906 851.121094 462.84375 851.210938 464.195312 C 851.296875 465.542969 850.964844 466.851562 850.402344 467.671875 C 849.84375 468.492188 849.226562 468.921875 847.984375 468.921875 L 808.230469 468.921875 C 805.1875 468.921875 803.460938 468.140625 802.519531 467.277344 C 801.574219 466.414062 801.230469 465.386719 801.300781 464.179688 C 801.441406 461.761719 803.527344 459.167969 806.265625 459.167969 Z M 785.890625 489.386719 L 789.234375 489.386719 C 791.066406 489.386719 792.894531 491.304688 792.894531 494.207031 C 792.894531 497.105469 791.066406 499.007812 789.234375 499.007812 L 785.890625 499.007812 C 784.058594 499.007812 782.226562 497.105469 782.226562 494.207031 C 782.226562 491.308594 784.058594 489.386719 785.890625 489.386719 Z M 922.242188 493.78125 C 927.65625 497.164062 931.289062 503.144531 931.289062 510.023438 C 931.289062 515.105469 929.292969 519.980469 925.691406 523.574219 C 922.089844 527.167969 917.242188 529.183594 912.160156 529.183594 C 907.09375 529.183594 902.210938 527.164062 898.625 523.570312 C 895.632812 520.578125 893.765625 516.683594 893.21875 512.53125 Z M 799.925781 513.882812 L 837.394531 513.882812 C 836.652344 517.527344 834.867188 520.90625 831.726562 524.039062 C 828.589844 527.167969 823.742188 529.183594 818.660156 529.183594 C 813.589844 529.183594 808.710938 527.167969 805.125 523.574219 C 802.460938 520.90625 800.671875 517.527344 799.925781 513.882812 Z M 799.925781 513.882812 " fill-opacity="1" fill-rule="evenodd"/>

</g>
</svg>