<svg xmlns="http://www.w3.org/2000/svg" viewBox="0 0 107.92968699999994 111.679687">
<g transform="translate(-610.421875,-428.855469)">
<path stroke-linecap="butt" transform="matrix(0.748067, 0, 0, 0.747959, 590.233713, 411.550561)" fill="none" stroke-linejoin="miter" d="M 37.039074 170.234404 C 40.365357 172.13541 44.809104 172.521879 48.474804 172.307754 C 52.923773 172.05185 58.411879 171.242355 64.933901 169.879271 C 89.288351 164.792511 113.334716 157.423498 137.062551 147.767011 C 145.892605 144.168677 152.962915 140.575565 158.273481 136.992898 C 159.782579 135.979724 160.377864 135.055334 160.905265 133.337116 C 162.001842 129.764895 162.706784 126.730595 164.252435 122.688345 C 167.197528 114.969422 169.202697 107.736196 170.262721 100.993889 C 172.502871 86.799009 170.758792 73.209944 165.025261 60.221472 C 150.101372 26.405487 105.115611 15.344134 73.246998 28.81308 C 65.560516 32.056281 59.158596 36.234318 54.041237 41.336746 C 44.281703 51.061126 39.138235 63.480341 36.151369 76.933619 C 32.945187 91.358291 30.329068 103.861067 28.673759 117.126333 C 27.827828 123.863418 27.363088 127.84822 27.269096 129.085964 C 26.475383 139.43705 27.906155 149.521786 31.561411 159.329728 C 33.096619 163.434649 34.318519 167.053873 36.344575 169.633811 C 36.53256 169.879271 36.772762 170.08295 37.039074 170.234404 " stroke="#8c8b8b" stroke-width="2" stroke-opacity="1" stroke-miterlimit="4"/><path stroke-linecap="butt" transform="matrix(0.748067, 0, 0, 0.747959, 590.233713, 411.550561)" fill="none" stroke-linejoin="miter" d="M 30.517052 140.935921 C 31.331652 146.586715 32.464782 151.845819 33.921662 156.70801 C 34.193196 157.606287 34.563943 158.394892 35.033905 159.079045 C 35.211446 159.345395 35.472535 159.543852 35.7754 159.64308 C 39.900617 161.042723 44.459244 161.517974 49.45128 161.063613 C 54.74618 160.577916 59.748659 159.804979 64.458718 158.744802 C 85.768862 153.966173 105.392366 148.143034 123.334452 141.270164 C 136.848457 136.089398 148.508725 131.065309 159.719918 123.461282 C 160.283872 123.074813 160.717281 122.521223 160.957483 121.87885 C 162.330815 118.170843 163.495275 114.797078 164.450864 111.762779 C 166.33071 105.809076 167.223637 99.15033 167.657046 93.431642 C 168.179225 86.485656 167.573497 79.398661 165.834639 72.17588 C 157.876624 39.127609 124.102056 22.963829 92.598969 27.141866 C 84.249319 28.243823 76.928363 30.400734 70.630879 33.596933 C 64.980897 36.469333 59.451017 40.678705 54.046459 46.235494 C 49.968237 50.429198 46.589736 56.372456 44.281703 61.678562 C 44.182489 61.903132 44.286925 62.169482 44.511462 62.26871 C 44.521906 62.273933 44.532349 62.279155 44.542793 62.284378 C 45.780358 62.723072 47.482663 63.193101 49.644486 63.694465 C 59.581561 65.987163 70.975517 67.783719 83.831576 69.084133 C 94.907002 70.196535 102.139188 70.849353 105.517689 71.032142 C 111.522753 71.35594 116.854205 72.489233 121.386723 76.923174 C 125.428392 80.876642 127.05237 88.141203 126.916604 93.462977 C 126.728619 100.920773 125.031536 108.989607 121.830576 117.669478 C 119.757523 123.288938 116.854205 127.117064 112.102372 129.890236 C 109.183389 131.587563 105.49158 133.279668 101.026946 134.961328 C 91.272633 138.638 80.458296 141.750638 68.583935 144.304463 C 62.756413 145.552651 57.22131 145.416865 52.991657 142.074436 C 49.200634 139.076694 46.709838 136.481089 43.425329 135.300793 C 42.882262 135.102337 42.281756 135.180675 41.806572 135.49925 C 40.626447 136.2983 39.06513 137.462927 37.122623 138.987911 C 35.002574 140.643458 33.3316 141.108265 30.940018 140.549452 C 30.752033 140.507672 30.564048 140.622568 30.522274 140.810579 C 30.511831 140.85236 30.511831 140.89414 30.517052 140.935921 " stroke="#8c8b8b" stroke-width="2" stroke-opacity="1" stroke-miterlimit="4"/>

</g>
</svg>