<svg xmlns="http://www.w3.org/2000/svg" viewBox="0 0 81.578125 76.0">
<g transform="translate(-610.421875,-451.0)">
<path stroke-linecap="butt" transform="matrix(0.748067, 0, 0, 0.747959, 590.233713, 411.550561)" fill="none" stroke-linejoin="miter" d="M 30.381286 136.689991 C 30.42306 137.076459 30.736368 137.379367 31.122781 137.410702 C 32.684097 137.525598 33.82767 137.332364 34.5535 136.841445 C 35.926832 135.901386 37.827565 134.527857 40.245256 132.715633 C 42.093771 131.326436 43.910956 131.248098 45.702031 132.485841 C 47.461776 133.697472 50.166666 135.770823 53.801035 138.695448 C 58.119459 142.173664 61.346528 142.173664 67.022619 141.144822 C 79.205066 138.930463 91.49717 135.300793 103.904155 130.266259 C 110.149421 127.733324 114.629721 124.918372 117.350276 119.471257 C 121.679144 110.807053 123.736531 101.44825 123.532881 91.389627 C 123.329231 81.22133 116.958641 74.76104 106.891021 74.076887 C 91.61205 73.042823 79.15807 71.862527 69.52908 70.530778 C 58.719965 69.042352 50.098782 67.282354 43.665531 65.256006 C 43.25301 65.125443 42.814379 65.355235 42.683834 65.762593 C 42.678612 65.778261 42.678612 65.788706 42.67339 65.799151 L 42.198207 67.606152 C 42.083328 68.044846 42.333974 68.499208 42.772604 68.629771 C 45.905681 69.580275 49.143194 70.400214 52.469477 71.084368 C 62.390887 73.121161 70.991183 74.479023 78.265143 75.157954 C 91.068983 76.343472 101.037389 77.231304 108.170361 77.81623 C 126.232549 79.29421 119.590426 102.691216 116.57745 112.802065 C 115.381659 116.818203 113.590584 120.980572 110.191195 123.158374 C 107.982376 124.568461 104.943292 126.046442 101.073942 127.587093 C 90.155169 131.937474 77.998831 135.452247 64.594484 138.131413 C 61.330863 138.784232 58.401436 138.053075 55.806204 135.932722 C 52.171835 132.966315 46.041448 127.111841 42.58462 127.822108 C 39.47243 128.469703 35.822396 131.754685 33.754565 133.46768 C 33.154059 133.958599 32.151474 134.010825 30.746811 133.613911 C 30.475278 133.535573 30.198523 133.697472 30.120196 133.969044 C 30.104531 134.031715 30.099309 134.099608 30.104531 134.162278 L 30.381286 136.689991 " stroke="#8c8b8b" stroke-width="2" stroke-opacity="1" stroke-miterlimit="4"/>

</g>
</svg>