<svg xmlns="http://www.w3.org/2000/svg" viewBox="0 0 76.578125 66.0">
<g transform="translate(-610.421875,-456.0)">
<path stroke-linecap="butt" transform="matrix(0.748067, 0, 0, 0.747959, 590.233713, 411.550561)" fill="none" stroke-linejoin="miter" d="M 41.425381 71.737186 C 41.117295 71.658848 40.798766 71.841637 40.725661 72.149767 C 40.720439 72.149767 40.720439 72.15499 40.720439 72.160212 C 36.21403 90.611467 32.835529 109.40741 30.579714 128.537596 C 30.501387 129.216527 30.522274 129.686556 30.631932 129.947684 C 30.903465 130.579612 31.634516 130.872074 32.266354 130.600502 C 32.381233 130.548277 32.490891 130.480383 32.590105 130.396823 C 36.156591 127.268518 40.830097 123.466504 45.618482 125.038491 C 47.67587 125.712199 49.325957 126.558251 50.568744 127.587093 C 54.312771 130.673618 56.960221 132.814862 58.505872 134.005602 C 59.905313 135.081447 61.591952 135.43658 63.576234 135.071001 C 74.348797 133.075989 85.231017 130.046912 96.217673 125.978549 C 100.05047 124.568461 104.321898 123.179264 107.820501 120.724668 C 109.830891 119.319803 111.4862 116.912209 112.796871 113.501886 C 115.647971 106.070203 121.632147 84.99723 111.172893 81.733139 C 109.120727 81.095988 106.50983 80.678185 103.355866 80.490173 C 81.356445 79.168869 61.597174 77.011957 41.425381 71.737186 " stroke="#8c8b8b" stroke-width="2" stroke-opacity="1" stroke-miterlimit="4"/>

</g>
</svg>