<svg xmlns="http://www.w3.org/2000/svg" viewBox="0 0 107.578125 42.53515600000003">
<g transform="translate(-610.421875,-498.0)">
<path stroke-linecap="butt" transform="matrix(0.748067, 0, 0, 0.747959, 590.233713, 411.550561)" fill="none" stroke-linejoin="miter" d="M 36.318466 163.267527 L 38.417628 167.111321 C 38.495955 167.257552 38.621278 167.372448 38.767488 167.445564 C 40.375801 168.202833 41.446269 168.599747 41.97367 168.651972 C 47.639317 169.163782 53.529501 168.839984 59.649445 167.685801 C 65.377754 166.609957 68.881578 165.915358 70.160917 165.602005 C 81.868181 162.745273 93.716433 159.470736 105.69523 155.778396 C 117.063077 152.274068 130.096677 147.296982 144.80125 140.847137 C 147.072731 139.849631 150.957746 137.677052 156.456296 134.3294 C 157.072468 133.948154 157.526764 133.347561 157.709527 132.64774 L 158.743442 128.730831 C 158.800882 128.511484 158.665115 128.286914 158.4458 128.234689 C 158.336142 128.208576 158.216041 128.229466 158.116827 128.292137 C 149.80373 133.948154 139.908429 138.194084 130.744179 141.813308 C 114.342522 148.294488 97.027051 153.882612 78.792544 158.577681 C 69.288878 161.021833 60.380496 162.828833 52.062177 163.998684 C 46.464413 164.787288 41.326167 164.411265 36.652661 162.870614 C 36.506451 162.823611 36.344575 162.907172 36.297579 163.053403 C 36.276692 163.126519 36.287135 163.204857 36.318466 163.267527 " stroke="#8c8b8b" stroke-width="2" stroke-opacity="1" stroke-miterlimit="4"/>

</g>
</svg>