<svg xmlns="http://www.w3.org/2000/svg" viewBox="0 0 107.92968699999994 111.679687">
<g transform="translate(-610.421875,-428.855469)">
<path fill="#181717" d="M 617.421875 538.429688 C 615.90625 536.5 614.992188 533.792969 613.84375 530.722656 C 611.109375 523.386719 610.039062 515.84375 610.632812 508.101562 C 610.703125 507.175781 611.050781 504.195312 611.683594 499.15625 C 612.921875 489.234375 614.878906 479.882812 617.277344 469.09375 C 619.511719 459.03125 623.359375 449.742188 630.660156 442.46875 C 634.488281 438.652344 639.277344 435.527344 645.027344 433.101562 C 668.867188 423.027344 702.519531 431.300781 713.683594 456.59375 C 717.972656 466.308594 719.277344 476.472656 717.601562 487.089844 C 716.808594 492.132812 715.308594 497.542969 713.105469 503.316406 C 711.949219 506.339844 711.421875 508.609375 710.601562 511.28125 C 710.207031 512.566406 709.761719 513.257812 708.632812 514.019531 C 704.660156 516.695312 699.371094 519.382812 692.765625 522.074219 C 675.015625 529.296875 657.027344 534.808594 638.808594 538.613281 C 633.929688 539.632812 629.824219 540.238281 626.496094 540.429688 C 623.753906 540.589844 620.429688 540.300781 617.941406 538.878906 C 617.742188 538.765625 617.5625 538.613281 617.421875 538.429688 Z M 613.0625 516.964844 C 613.671875 521.191406 614.519531 525.125 615.609375 528.761719 C 615.8125 529.433594 616.089844 530.023438 616.441406 530.535156 C 616.574219 530.734375 616.769531 530.882812 616.996094 530.957031 C 620.082031 532.003906 623.492188 532.359375 627.226562 532.019531 C 631.1875 531.65625 634.929688 531.078125 638.453125 530.285156 C 654.394531 526.710938 669.074219 522.355469 682.496094 517.214844 C 692.605469 513.339844 701.328125 509.582031 709.714844 503.894531 C 710.136719 503.605469 710.460938 503.191406 710.640625 502.710938 C 711.667969 499.9375 712.539062 497.414062 713.253906 495.144531 C 714.660156 490.691406 715.328125 485.710938 715.652344 481.433594 C 716.042969 476.238281 715.589844 470.9375 714.289062 465.535156 C 708.335938 440.816406 683.070312 428.726562 659.503906 431.851562 C 653.257812 432.675781 647.78125 434.289062 643.070312 436.679688 C 638.84375 438.828125 634.707031 441.976562 630.664062 446.132812 C 627.613281 449.269531 625.085938 453.714844 623.359375 457.683594 C 623.285156 457.851562 623.363281 458.050781 623.53125 458.125 C 623.539062 458.128906 623.546875 458.132812 623.554688 458.136719 C 624.480469 458.464844 625.753906 458.816406 627.371094 459.191406 C 634.804688 460.90625 643.328125 462.25 652.945312 463.222656 C 661.230469 464.054688 666.640625 464.542969 669.167969 464.679688 C 673.660156 464.921875 677.648438 465.769531 681.039062 469.085938 C 684.0625 472.042969 685.277344 477.476562 685.175781 481.457031 C 685.035156 487.035156 683.765625 493.070312 681.371094 499.5625 C 679.820312 503.765625 677.648438 506.628906 674.09375 508.703125 C 671.910156 509.972656 669.148438 511.238281 665.808594 512.496094 C 658.511719 515.246094 650.421875 517.574219 641.539062 519.484375 C 637.179688 520.417969 633.039062 520.316406 629.875 517.816406 C 627.039062 515.574219 625.175781 513.632812 622.71875 512.75 C 622.3125 512.601562 621.863281 512.660156 621.507812 512.898438 C 620.625 513.496094 619.457031 514.367188 618.003906 515.507812 C 616.417969 516.746094 615.167969 517.09375 613.378906 516.675781 C 613.238281 516.644531 613.097656 516.730469 613.066406 516.871094 C 613.058594 516.902344 613.058594 516.933594 613.0625 516.964844 Z M 612.960938 513.789062 C 612.992188 514.078125 613.226562 514.304688 613.515625 514.328125 C 614.683594 514.414062 615.539062 514.269531 616.082031 513.902344 C 617.109375 513.199219 618.53125 512.171875 620.339844 510.816406 C 621.722656 509.777344 623.082031 509.71875 624.421875 510.644531 C 625.738281 511.550781 627.761719 513.101562 630.480469 515.289062 C 633.710938 517.890625 636.125 517.890625 640.371094 517.121094 C 649.484375 515.464844 658.679688 512.75 667.960938 508.984375 C 672.632812 507.089844 675.984375 504.984375 678.019531 500.910156 C 681.257812 494.429688 682.796875 487.429688 682.644531 479.90625 C 682.492188 472.300781 677.726562 467.46875 670.195312 466.957031 C 658.765625 466.183594 649.449219 465.300781 642.246094 464.304688 C 634.160156 463.191406 627.710938 461.875 622.898438 460.359375 C 622.589844 460.261719 622.261719 460.433594 622.164062 460.738281 C 622.160156 460.75 622.160156 460.757812 622.15625 460.765625 L 621.800781 462.117188 C 621.714844 462.445312 621.902344 462.785156 622.230469 462.882812 C 624.574219 463.59375 626.996094 464.207031 629.484375 464.71875 C 636.90625 466.242188 643.339844 467.257812 648.78125 467.765625 C 658.359375 468.652344 665.816406 469.316406 671.152344 469.753906 C 684.664062 470.859375 679.695312 488.359375 677.441406 495.921875 C 676.546875 498.925781 675.207031 502.039062 672.664062 503.667969 C 671.011719 504.722656 668.738281 505.828125 665.84375 506.980469 C 657.675781 510.234375 648.582031 512.863281 638.554688 514.867188 C 636.113281 515.355469 633.921875 514.808594 631.980469 513.222656 C 629.261719 511.003906 624.675781 506.625 622.089844 507.15625 C 619.761719 507.640625 617.03125 510.097656 615.484375 511.378906 C 615.035156 511.746094 614.285156 511.785156 613.234375 511.488281 C 613.03125 511.429688 612.824219 511.550781 612.765625 511.753906 C 612.753906 511.800781 612.75 511.851562 612.753906 511.898438 Z M 621.222656 465.207031 C 620.992188 465.148438 620.753906 465.285156 620.699219 465.515625 C 620.695312 465.515625 620.695312 465.519531 620.695312 465.523438 C 617.324219 479.324219 614.796875 493.382812 613.109375 507.691406 C 613.050781 508.199219 613.066406 508.550781 613.148438 508.746094 C 613.351562 509.21875 613.898438 509.4375 614.371094 509.234375 C 614.457031 509.195312 614.539062 509.144531 614.613281 509.082031 C 617.28125 506.742188 620.777344 503.898438 624.359375 505.074219 C 625.898438 505.578125 627.132812 506.210938 628.0625 506.980469 C 630.863281 509.289062 632.84375 510.890625 634 511.78125 C 635.046875 512.585938 636.308594 512.851562 637.792969 512.578125 C 645.851562 511.085938 653.992188 508.820312 662.210938 505.777344 C 665.078125 504.722656 668.273438 503.683594 670.890625 501.847656 C 672.394531 500.796875 673.632812 498.996094 674.613281 496.445312 C 676.746094 490.886719 681.222656 475.125 673.398438 472.683594 C 671.863281 472.207031 669.910156 471.894531 667.550781 471.753906 C 651.09375 470.765625 636.3125 469.152344 621.222656 465.207031 Z M 617.402344 533.667969 L 618.972656 536.542969 C 619.03125 536.652344 619.125 536.738281 619.234375 536.792969 C 620.4375 537.359375 621.238281 537.65625 621.632812 537.695312 C 625.871094 538.078125 630.277344 537.835938 634.855469 536.972656 C 639.140625 536.167969 641.761719 535.648438 642.71875 535.414062 C 651.476562 533.277344 660.339844 530.828125 669.300781 528.066406 C 677.804688 525.445312 687.554688 521.722656 698.554688 516.898438 C 700.253906 516.152344 703.160156 514.527344 707.273438 512.023438 C 707.734375 511.738281 708.074219 511.289062 708.210938 510.765625 L 708.984375 507.835938 C 709.027344 507.671875 708.925781 507.503906 708.761719 507.464844 C 708.679688 507.445312 708.589844 507.460938 708.515625 507.507812 C 702.296875 511.738281 694.894531 514.914062 688.039062 517.621094 C 675.769531 522.46875 662.816406 526.648438 649.175781 530.160156 C 642.066406 531.988281 635.402344 533.339844 629.179688 534.214844 C 624.992188 534.804688 621.148438 534.523438 617.652344 533.371094 C 617.542969 533.335938 617.421875 533.398438 617.386719 533.507812 C 617.371094 533.5625 617.378906 533.621094 617.402344 533.667969 Z M 617.402344 533.667969 " fill-opacity="1" fill-rule="nonzero"/>

</g>
</svg>