<svg xmlns="http://www.w3.org/2000/svg" viewBox="0 0 152.90234400000008 95.19140599999997">
<g transform="translate(-991.96875,-433.585938)">
<path fill="#000000" d="M 1016.363281 475.414062 C 1014.753906 474.957031 1013.109375 474.585938 1011.539062 474.019531 C 1008.398438 472.890625 1006.191406 470.777344 1005.128906 467.542969 C 1004.578125 465.859375 1003.953125 464.199219 1003.417969 462.507812 C 1001.714844 457.097656 1002.914062 452.363281 1006.902344 448.394531 C 1011.476562 443.847656 1017.101562 440.925781 1023.121094 438.996094 C 1029.476562 436.957031 1035.988281 435.386719 1042.484375 433.835938 C 1046.09375 432.972656 1047.78125 434.816406 1047.320312 438.542969 C 1046.964844 441.414062 1046.691406 444.296875 1046.390625 447.171875 C 1046.371094 447.359375 1046.425781 447.550781 1046.46875 447.992188 C 1049.789062 447.675781 1053.09375 447.375 1056.390625 447.046875 C 1059.527344 446.730469 1062.652344 446.351562 1065.789062 446.058594 C 1071.097656 445.558594 1074.15625 447.253906 1076.640625 451.996094 C 1078.378906 455.3125 1080.117188 458.632812 1081.855469 461.945312 C 1083.59375 465.25 1086.824219 466.628906 1090.289062 465.246094 C 1093.265625 464.054688 1096.144531 462.597656 1099.003906 461.132812 C 1100.832031 460.195312 1101.542969 458.523438 1101.226562 456.492188 C 1100.769531 453.570312 1100.292969 450.648438 1099.765625 447.738281 C 1099.503906 446.292969 1100.027344 445.476562 1101.429688 445.132812 C 1113.164062 442.257812 1127.949219 443.699219 1137.910156 455.414062 C 1139.921875 457.78125 1139.804688 458.457031 1137.078125 459.8125 C 1122.800781 466.902344 1108.519531 473.980469 1094.230469 481.042969 C 1092.882812 481.703125 1092.511719 482.449219 1092.570312 483.902344 C 1092.710938 487.242188 1092.617188 490.59375 1092.910156 494.039062 C 1095.75 487.09375 1100.109375 481.648438 1106.832031 478.34375 C 1113.535156 475.046875 1120.449219 474.742188 1127.464844 477.21875 C 1138.355469 481.066406 1145.332031 491.722656 1144.847656 503.664062 C 1144.390625 514.929688 1136.117188 524.910156 1124.925781 527.832031 C 1115.226562 530.363281 1101.0625 527.332031 1093.863281 512.4375 C 1093.097656 514.957031 1091.253906 515.335938 1089.101562 515.328125 C 1076.820312 515.296875 1064.539062 515.320312 1052.261719 515.308594 C 1048.855469 515.308594 1048.113281 514.640625 1047.332031 511.246094 C 1046.726562 508.601562 1046.039062 505.980469 1045.210938 503.394531 C 1043.628906 520.058594 1030.3125 528.84375 1018.351562 528.738281 C 1005.601562 528.625 994.515625 519.386719 992.410156 507.066406 C 991.089844 499.339844 992.710938 492.28125 997.472656 486.042969 C 1002.226562 479.8125 1008.683594 476.539062 1016.363281 475.414062 Z M 1090.25 511.882812 C 1090.023438 511.316406 1089.914062 510.953125 1089.742188 510.621094 C 1085.273438 501.941406 1079.988281 493.816406 1073.601562 486.40625 C 1064.425781 475.757812 1053.921875 466.515625 1043.242188 457.460938 C 1042.269531 456.636719 1041.90625 455.855469 1042.082031 454.605469 C 1042.488281 451.675781 1042.792969 448.730469 1043.109375 445.789062 C 1043.414062 442.933594 1043.683594 440.078125 1043.988281 437.066406 C 1036.769531 438.308594 1029.917969 440.011719 1023.296875 442.570312 C 1018.3125 444.496094 1013.550781 446.824219 1009.609375 450.550781 C 1006.328125 453.652344 1005.339844 457.363281 1006.78125 461.683594 C 1007.238281 463.050781 1007.769531 464.398438 1008.152344 465.789062 C 1008.996094 468.855469 1011.113281 470.507812 1014.054688 471.238281 C 1016.472656 471.835938 1018.910156 472.34375 1021.34375 472.878906 C 1025.371094 473.769531 1029.527344 474.355469 1032.742188 477.300781 C 1034.675781 479.074219 1036.722656 480.769531 1038.390625 482.773438 C 1044.988281 490.691406 1048.46875 500.070312 1050.589844 510.011719 C 1050.902344 511.480469 1051.410156 511.898438 1052.871094 511.894531 C 1064.691406 511.84375 1076.507812 511.875 1088.328125 511.882812 C 1088.898438 511.882812 1089.46875 511.882812 1090.25 511.882812 Z M 1089.6875 502.832031 C 1089.6875 501.871094 1089.703125 501.25 1089.683594 500.628906 C 1089.515625 494.515625 1089.402344 488.402344 1089.128906 482.292969 C 1089.042969 480.441406 1089.640625 479.457031 1091.3125 478.636719 C 1105.085938 471.882812 1118.8125 465.035156 1132.550781 458.210938 C 1133.238281 457.871094 1133.902344 457.496094 1134.597656 457.125 C 1128.824219 449.226562 1114.300781 445.117188 1103.460938 448.320312 C 1103.542969 448.914062 1103.621094 449.542969 1103.71875 450.167969 C 1104.054688 452.375 1104.515625 454.570312 1104.707031 456.789062 C 1104.972656 459.878906 1103.714844 462.4375 1101.039062 463.917969 C 1097.894531 465.660156 1094.632812 467.253906 1091.277344 468.535156 C 1086.402344 470.398438 1081.402344 468.28125 1078.957031 463.667969 C 1077.050781 460.074219 1075.070312 456.515625 1073.261719 452.871094 C 1072.054688 450.441406 1070.113281 449.253906 1067.574219 449.457031 C 1060.394531 450.035156 1053.230469 450.800781 1046.191406 451.480469 C 1045.167969 453.792969 1045.652344 455.320312 1047.609375 456.679688 C 1049.59375 458.054688 1051.332031 459.796875 1053.15625 461.398438 C 1063.894531 470.8125 1074.195312 480.652344 1082.605469 492.28125 C 1085.011719 495.601562 1087.1875 499.089844 1089.6875 502.832031 Z M 1102.957031 499.585938 C 1105.375 489.214844 1113.972656 485.625 1120.960938 486.761719 C 1128.386719 487.972656 1133.824219 494.441406 1133.847656 501.976562 C 1133.875 509.558594 1128.570312 516.042969 1121.140625 517.335938 C 1117.480469 517.972656 1113.945312 517.429688 1110.6875 515.511719 C 1106.003906 512.757812 1103.566406 508.53125 1102.867188 503.273438 L 1095.691406 503.273438 C 1094.980469 514.011719 1105.289062 524.402344 1117.347656 525.234375 C 1129.1875 526.050781 1140.449219 516.347656 1141.308594 504.589844 C 1142.28125 491.25 1133.097656 480.257812 1120.117188 479.222656 C 1108 478.253906 1096.691406 487.660156 1095.730469 499.585938 Z M 1025.058594 480.324219 C 1014.707031 476.226562 1001.6875 482.632812 997.398438 493.789062 C 992.777344 505.8125 998.71875 519.191406 1010.703125 523.753906 C 1022.390625 528.203125 1035.589844 522.144531 1040 510.308594 C 1044.171875 499.105469 1038.632812 485.40625 1028.289062 481.589844 L 1025.691406 488.265625 C 1035.402344 494.535156 1035.277344 504.511719 1031.863281 510.320312 C 1027.859375 517.136719 1019.542969 520.023438 1012.230469 517.039062 C 1005.007812 514.085938 1000.976562 506.191406 1002.855469 498.664062 C 1005 490.078125 1012.070312 485.820312 1022.464844 486.976562 Z M 1106.519531 503.148438 C 1107.039062 509.777344 1112.648438 514.554688 1119.269531 514.300781 C 1125.691406 514.050781 1130.964844 508.5 1130.964844 501.992188 C 1130.960938 495.449219 1125.824219 490.046875 1119.277344 489.703125 C 1113.085938 489.375 1107.277344 493.941406 1106.753906 499.679688 C 1107.480469 499.679688 1108.191406 499.679688 1108.90625 499.679688 C 1111.859375 499.679688 1114.816406 499.574219 1117.761719 499.757812 C 1118.464844 499.800781 1119.109375 500.792969 1119.78125 501.347656 C 1119.136719 501.945312 1118.5625 502.664062 1117.820312 503.089844 C 1117.375 503.34375 1116.664062 503.148438 1116.074219 503.148438 C 1112.9375 503.148438 1109.796875 503.148438 1106.515625 503.148438 Z M 1021.148438 490.390625 C 1014.160156 489.152344 1008.164062 492.855469 1006.636719 499.109375 C 1005.125 505.320312 1008.5625 511.558594 1014.578125 513.527344 C 1015.296875 513.765625 1016.03125 513.933594 1016.777344 514.03125 C 1017.527344 514.132812 1018.28125 514.160156 1019.035156 514.113281 C 1019.789062 514.070312 1020.53125 513.957031 1021.265625 513.773438 C 1021.996094 513.585938 1022.707031 513.335938 1023.390625 513.015625 C 1024.078125 512.699219 1024.726562 512.316406 1025.339844 511.875 C 1025.953125 511.433594 1026.523438 510.9375 1027.042969 510.390625 C 1027.5625 509.839844 1028.027344 509.25 1028.4375 508.609375 C 1028.84375 507.972656 1029.191406 507.304688 1029.472656 506.601562 C 1031.726562 501.003906 1029.414062 494.261719 1024.335938 491.839844 C 1024.0625 492.503906 1023.773438 493.160156 1023.515625 493.824219 C 1022.398438 496.699219 1021.378906 499.617188 1020.101562 502.417969 C 1019.808594 503.0625 1018.640625 503.304688 1017.875 503.734375 C 1017.519531 503.050781 1017.027344 502.398438 1016.855469 501.671875 C 1016.753906 501.242188 1017.144531 500.691406 1017.332031 500.203125 C 1018.585938 496.96875 1019.84375 493.738281 1021.148438 490.390625 Z M 1021.148438 490.390625 " fill-opacity="1" fill-rule="nonzero"/>

</g>
</svg>