<svg xmlns="http://www.w3.org/2000/svg" viewBox="0 0 73.296875 112.0">
<g transform="translate(-315.703125,-633.0)">
<path fill="#191919" d="M 378.222656 695.617188 L 366.328125 695.617188 L 356.082031 689.269531 C 356.074219 688.34375 356 687.421875 355.859375 686.503906 C 355.722656 685.585938 355.523438 684.683594 355.265625 683.792969 C 355.003906 682.902344 354.683594 682.035156 354.304688 681.1875 C 353.921875 680.34375 353.488281 679.527344 352.996094 678.742188 C 352.503906 677.957031 351.960938 677.207031 351.367188 676.496094 C 350.773438 675.785156 350.132812 675.117188 349.449219 674.496094 C 348.761719 673.871094 348.039062 673.300781 347.273438 672.777344 C 346.511719 672.253906 345.714844 671.785156 344.886719 671.371094 C 345.558594 671.035156 346.210938 670.664062 346.84375 670.253906 C 347.476562 669.84375 348.082031 669.402344 348.664062 668.925781 C 349.246094 668.449219 349.800781 667.941406 350.328125 667.398438 C 350.851562 666.859375 351.347656 666.292969 351.808594 665.699219 C 352.273438 665.105469 352.699219 664.488281 353.09375 663.84375 C 353.488281 663.203125 353.84375 662.539062 354.164062 661.855469 C 354.484375 661.175781 354.765625 660.476562 355.007812 659.761719 C 355.25 659.046875 355.449219 658.320312 355.613281 657.585938 C 355.773438 656.847656 355.894531 656.105469 355.972656 655.355469 C 356.050781 654.605469 356.085938 653.855469 356.078125 653.101562 C 356.074219 652.34375 356.027344 651.59375 355.9375 650.84375 C 355.847656 650.097656 355.71875 649.355469 355.542969 648.621094 C 355.371094 647.886719 355.160156 647.164062 354.90625 646.453125 C 354.65625 645.746094 354.363281 645.050781 354.035156 644.371094 C 353.703125 643.695312 353.335938 643.039062 352.933594 642.402344 C 352.53125 641.765625 352.09375 641.152344 351.621094 640.566406 C 351.152344 639.976562 350.648438 639.417969 350.113281 638.886719 C 349.578125 638.355469 349.019531 637.855469 348.429688 637.386719 C 347.839844 636.917969 347.226562 636.484375 346.585938 636.085938 C 345.949219 635.6875 345.292969 635.324219 344.613281 635 C 343.933594 634.671875 343.238281 634.386719 342.53125 634.136719 C 341.820312 633.890625 341.097656 633.683594 340.363281 633.515625 C 339.628906 633.347656 338.890625 633.222656 338.140625 633.140625 C 337.394531 633.054688 336.644531 633.011719 335.894531 633.011719 C 335.140625 633.011719 334.390625 633.054688 333.644531 633.140625 C 332.894531 633.222656 332.15625 633.347656 331.421875 633.515625 C 330.6875 633.683594 329.964844 633.890625 329.257812 634.136719 C 328.546875 634.386719 327.851562 634.671875 327.171875 635 C 326.496094 635.324219 325.835938 635.6875 325.199219 636.085938 C 324.558594 636.484375 323.945312 636.917969 323.355469 637.386719 C 322.765625 637.855469 322.207031 638.355469 321.671875 638.886719 C 321.136719 639.417969 320.636719 639.976562 320.164062 640.566406 C 319.691406 641.152344 319.253906 641.765625 318.851562 642.402344 C 318.449219 643.039062 318.082031 643.695312 317.75 644.371094 C 317.421875 645.050781 317.128906 645.746094 316.878906 646.453125 C 316.625 647.164062 316.414062 647.886719 316.242188 648.621094 C 316.070312 649.355469 315.9375 650.097656 315.847656 650.84375 C 315.757812 651.59375 315.710938 652.34375 315.707031 653.101562 C 315.699219 653.855469 315.738281 654.605469 315.816406 655.355469 C 315.894531 656.105469 316.011719 656.847656 316.171875 657.585938 C 316.335938 658.320312 316.535156 659.046875 316.777344 659.761719 C 317.019531 660.476562 317.300781 661.171875 317.621094 661.855469 C 317.941406 662.539062 318.296875 663.203125 318.691406 663.84375 C 319.085938 664.488281 319.511719 665.105469 319.976562 665.699219 C 320.4375 666.292969 320.933594 666.859375 321.457031 667.398438 C 321.984375 667.941406 322.539062 668.449219 323.121094 668.925781 C 323.703125 669.402344 324.308594 669.84375 324.941406 670.253906 C 325.574219 670.664062 326.226562 671.035156 326.898438 671.371094 C 326.0625 671.789062 325.261719 672.261719 324.492188 672.792969 C 323.71875 673.320312 322.988281 673.898438 322.300781 674.53125 C 321.609375 675.160156 320.964844 675.835938 320.367188 676.558594 C 319.773438 677.277344 319.226562 678.035156 318.734375 678.832031 C 318.242188 679.625 317.808594 680.453125 317.429688 681.308594 C 317.054688 682.164062 316.734375 683.042969 316.480469 683.945312 C 316.222656 684.84375 316.03125 685.757812 315.902344 686.683594 C 315.769531 687.613281 315.707031 688.542969 315.703125 689.480469 L 315.703125 742.832031 C 315.703125 743.113281 315.757812 743.382812 315.867188 743.644531 C 315.972656 743.90625 316.125 744.132812 316.324219 744.335938 C 316.523438 744.535156 316.753906 744.6875 317.011719 744.792969 C 317.273438 744.902344 317.542969 744.957031 317.824219 744.957031 L 353.964844 744.957031 C 354.246094 744.957031 354.515625 744.902344 354.773438 744.792969 C 355.035156 744.6875 355.265625 744.535156 355.464844 744.335938 C 355.660156 744.132812 355.816406 743.90625 355.921875 743.644531 C 356.03125 743.382812 356.082031 743.113281 356.082031 742.832031 L 356.082031 714.46875 L 357.644531 715.421875 C 359.355469 716.5 361.21875 717.039062 363.238281 717.039062 L 363.292969 717.039062 L 378.222656 717.058594 C 378.921875 717.054688 379.613281 716.980469 380.300781 716.84375 C 380.984375 716.703125 381.652344 716.496094 382.296875 716.226562 C 382.941406 715.953125 383.554688 715.621094 384.136719 715.230469 C 384.714844 714.839844 385.253906 714.394531 385.746094 713.898438 C 386.238281 713.402344 386.679688 712.859375 387.066406 712.277344 C 387.457031 711.691406 387.78125 711.074219 388.050781 710.425781 C 388.316406 709.777344 388.519531 709.109375 388.652344 708.421875 C 388.789062 707.734375 388.859375 707.039062 388.859375 706.339844 C 388.859375 705.636719 388.789062 704.941406 388.652344 704.253906 C 388.519531 703.566406 388.316406 702.898438 388.050781 702.25 C 387.78125 701.601562 387.457031 700.984375 387.066406 700.398438 C 386.679688 699.816406 386.238281 699.277344 385.746094 698.777344 C 385.253906 698.28125 384.714844 697.835938 384.136719 697.445312 C 383.554688 697.054688 382.941406 696.722656 382.296875 696.449219 C 381.652344 696.179688 380.984375 695.972656 380.300781 695.835938 C 379.613281 695.695312 378.921875 695.621094 378.222656 695.617188 Z M 319.945312 653.261719 C 319.945312 652.738281 319.972656 652.214844 320.023438 651.691406 C 320.074219 651.171875 320.148438 650.652344 320.25 650.140625 C 320.351562 649.625 320.480469 649.121094 320.632812 648.617188 C 320.78125 648.117188 320.957031 647.625 321.15625 647.140625 C 321.359375 646.65625 321.582031 646.183594 321.828125 645.722656 C 322.074219 645.261719 322.339844 644.8125 322.632812 644.375 C 322.921875 643.941406 323.234375 643.519531 323.5625 643.113281 C 323.894531 642.710938 324.246094 642.324219 324.613281 641.953125 C 324.984375 641.582031 325.371094 641.230469 325.773438 640.898438 C 326.179688 640.566406 326.597656 640.253906 327.03125 639.960938 C 327.464844 639.671875 327.914062 639.402344 328.375 639.15625 C 328.835938 638.910156 329.304688 638.683594 329.789062 638.484375 C 330.273438 638.285156 330.761719 638.109375 331.261719 637.957031 C 331.761719 637.804688 332.269531 637.675781 332.78125 637.574219 C 333.292969 637.472656 333.808594 637.394531 334.328125 637.34375 C 334.847656 637.292969 335.371094 637.265625 335.894531 637.265625 C 336.414062 637.265625 336.9375 637.292969 337.457031 637.34375 C 337.976562 637.394531 338.492188 637.472656 339.003906 637.574219 C 339.515625 637.675781 340.023438 637.804688 340.523438 637.957031 C 341.023438 638.105469 341.515625 638.285156 341.996094 638.484375 C 342.480469 638.683594 342.953125 638.90625 343.414062 639.15625 C 343.871094 639.402344 344.320312 639.671875 344.753906 639.960938 C 345.1875 640.253906 345.609375 640.5625 346.011719 640.894531 C 346.414062 641.226562 346.800781 641.578125 347.171875 641.949219 C 347.542969 642.320312 347.890625 642.707031 348.222656 643.113281 C 348.554688 643.519531 348.867188 643.9375 349.15625 644.375 C 349.445312 644.808594 349.714844 645.257812 349.960938 645.71875 C 350.207031 646.179688 350.429688 646.652344 350.628906 647.136719 C 350.828125 647.621094 351.003906 648.113281 351.15625 648.617188 C 351.308594 649.117188 351.433594 649.625 351.535156 650.136719 C 351.640625 650.652344 351.714844 651.167969 351.765625 651.691406 C 351.816406 652.210938 351.84375 652.734375 351.84375 653.257812 C 351.84375 653.78125 351.816406 654.304688 351.765625 654.824219 C 351.714844 655.347656 351.636719 655.863281 351.535156 656.378906 C 351.433594 656.890625 351.308594 657.398438 351.15625 657.898438 C 351.003906 658.402344 350.828125 658.894531 350.628906 659.378906 C 350.429688 659.859375 350.203125 660.332031 349.957031 660.796875 C 349.710938 661.257812 349.445312 661.707031 349.152344 662.140625 C 348.863281 662.578125 348.550781 662.996094 348.222656 663.402344 C 347.890625 663.804688 347.539062 664.195312 347.167969 664.5625 C 346.800781 664.933594 346.414062 665.285156 346.007812 665.617188 C 345.605469 665.949219 345.1875 666.261719 344.753906 666.550781 C 344.316406 666.84375 343.871094 667.113281 343.410156 667.359375 C 342.949219 667.605469 342.476562 667.828125 341.992188 668.03125 C 341.511719 668.230469 341.019531 668.40625 340.519531 668.558594 C 340.019531 668.710938 339.515625 668.835938 339 668.9375 C 338.488281 669.039062 337.972656 669.117188 337.453125 669.167969 C 336.933594 669.21875 336.414062 669.246094 335.890625 669.246094 C 335.367188 669.246094 334.847656 669.21875 334.328125 669.167969 C 333.808594 669.113281 333.292969 669.035156 332.78125 668.933594 C 332.269531 668.832031 331.761719 668.703125 331.265625 668.550781 C 330.765625 668.398438 330.273438 668.222656 329.792969 668.023438 C 329.308594 667.820312 328.839844 667.597656 328.378906 667.351562 C 327.917969 667.105469 327.46875 666.835938 327.035156 666.542969 C 326.601562 666.253906 326.183594 665.941406 325.78125 665.609375 C 325.378906 665.277344 324.992188 664.925781 324.621094 664.558594 C 324.253906 664.1875 323.902344 663.800781 323.570312 663.394531 C 323.238281 662.992188 322.929688 662.570312 322.640625 662.136719 C 322.347656 661.699219 322.082031 661.253906 321.835938 660.792969 C 321.589844 660.328125 321.363281 659.855469 321.164062 659.375 C 320.964844 658.890625 320.789062 658.398438 320.636719 657.898438 C 320.484375 657.398438 320.359375 656.890625 320.253906 656.378906 C 320.152344 655.863281 320.074219 655.347656 320.023438 654.828125 C 319.972656 654.304688 319.945312 653.785156 319.945312 653.261719 Z M 378.226562 712.804688 L 363.285156 712.789062 C 362.054688 712.792969 360.917969 712.464844 359.875 711.804688 L 355.066406 708.867188 C 355.019531 708.835938 354.964844 708.8125 354.914062 708.785156 C 354.851562 708.734375 354.785156 708.6875 354.71875 708.644531 L 338.964844 698.777344 C 338.726562 698.628906 338.46875 698.53125 338.191406 698.484375 C 337.914062 698.4375 337.636719 698.445312 337.363281 698.507812 C 337.089844 698.570312 336.835938 698.683594 336.609375 698.847656 C 336.378906 699.011719 336.1875 699.214844 336.039062 699.453125 C 335.890625 699.691406 335.792969 699.949219 335.746094 700.230469 C 335.699219 700.507812 335.710938 700.785156 335.773438 701.058594 C 335.835938 701.335938 335.949219 701.585938 336.113281 701.816406 C 336.277344 702.046875 336.480469 702.234375 336.71875 702.382812 L 351.84375 711.855469 L 351.84375 740.703125 L 319.945312 740.703125 L 319.945312 689.480469 C 319.945312 688.957031 319.972656 688.433594 320.023438 687.914062 C 320.074219 687.390625 320.148438 686.875 320.25 686.359375 C 320.355469 685.847656 320.480469 685.339844 320.632812 684.839844 C 320.785156 684.335938 320.960938 683.84375 321.160156 683.363281 C 321.359375 682.878906 321.582031 682.40625 321.828125 681.941406 C 322.074219 681.480469 322.34375 681.03125 322.632812 680.597656 C 322.921875 680.160156 323.234375 679.742188 323.566406 679.335938 C 323.898438 678.933594 324.246094 678.542969 324.617188 678.175781 C 324.984375 677.804688 325.371094 677.453125 325.777344 677.121094 C 326.179688 676.789062 326.597656 676.476562 327.035156 676.1875 C 327.46875 675.894531 327.914062 675.625 328.375 675.378906 C 328.835938 675.132812 329.308594 674.910156 329.789062 674.707031 C 330.273438 674.507812 330.765625 674.332031 331.265625 674.179688 C 331.765625 674.027344 332.269531 673.902344 332.78125 673.796875 C 333.296875 673.695312 333.8125 673.621094 334.332031 673.566406 C 334.851562 673.515625 335.371094 673.492188 335.894531 673.492188 C 336.417969 673.492188 336.9375 673.515625 337.457031 673.566406 C 337.976562 673.621094 338.492188 673.695312 339.003906 673.796875 C 339.519531 673.902344 340.023438 674.027344 340.523438 674.179688 C 341.023438 674.332031 341.515625 674.507812 341.996094 674.707031 C 342.480469 674.910156 342.953125 675.132812 343.414062 675.378906 C 343.875 675.625 344.320312 675.894531 344.753906 676.1875 C 345.1875 676.476562 345.609375 676.789062 346.011719 677.121094 C 346.414062 677.453125 346.800781 677.804688 347.171875 678.175781 C 347.542969 678.542969 347.890625 678.933594 348.222656 679.335938 C 348.554688 679.742188 348.863281 680.160156 349.15625 680.597656 C 349.445312 681.03125 349.714844 681.480469 349.960938 681.941406 C 350.207031 682.40625 350.429688 682.878906 350.628906 683.363281 C 350.828125 683.84375 351.003906 684.335938 351.15625 684.839844 C 351.308594 685.339844 351.433594 685.847656 351.535156 686.359375 C 351.636719 686.875 351.714844 687.390625 351.765625 687.914062 C 351.816406 688.433594 351.84375 688.957031 351.84375 689.480469 L 351.84375 690.453125 C 351.84375 690.824219 351.933594 691.167969 352.113281 691.488281 C 352.289062 691.8125 352.535156 692.070312 352.847656 692.261719 L 364.609375 699.550781 C 364.949219 699.761719 365.320312 699.867188 365.722656 699.867188 L 378.222656 699.867188 C 378.644531 699.871094 379.0625 699.914062 379.476562 700 C 379.886719 700.082031 380.289062 700.207031 380.675781 700.371094 C 381.066406 700.535156 381.4375 700.734375 381.785156 700.972656 C 382.136719 701.207031 382.457031 701.476562 382.757812 701.777344 C 383.054688 702.078125 383.320312 702.402344 383.550781 702.753906 C 383.785156 703.105469 383.984375 703.476562 384.144531 703.871094 C 384.304688 704.261719 384.425781 704.664062 384.507812 705.078125 C 384.589844 705.492188 384.628906 705.910156 384.632812 706.335938 C 384.632812 706.757812 384.589844 707.175781 384.507812 707.589844 C 384.425781 708.003906 384.304688 708.410156 384.144531 708.800781 C 383.984375 709.191406 383.785156 709.5625 383.554688 709.914062 C 383.320312 710.265625 383.054688 710.59375 382.757812 710.890625 C 382.460938 711.191406 382.136719 711.460938 381.789062 711.699219 C 381.4375 711.933594 381.070312 712.132812 380.679688 712.296875 C 380.292969 712.460938 379.890625 712.585938 379.476562 712.671875 C 379.0625 712.757812 378.644531 712.800781 378.226562 712.804688 Z M 378.226562 712.804688 " fill-opacity="1" fill-rule="nonzero"/>

</g>
</svg>