<svg xmlns="http://www.w3.org/2000/svg" viewBox="0 0 52.78125 52.0">
<g transform="translate(-76.21875,-936.0)">
<path fill="#000000" d="M 114.742188 987.953125 C 113.925781 987.953125 113.21875 987.355469 113.113281 986.515625 L 110.203125 961.96875 L 107.570312 968.445312 C 106.183594 971.832031 103.222656 974.324219 99.636719 975.082031 L 84.234375 978.359375 C 82.464844 978.738281 80.671875 978.386719 79.152344 977.386719 C 77.65625 976.382812 76.652344 974.839844 76.328125 973.078125 C 75.703125 969.554688 77.957031 966.222656 81.460938 965.464844 L 92.382812 963.132812 C 93.605469 962.863281 94.636719 962.023438 95.074219 960.832031 L 100.613281 946.554688 C 102.949219 940.511719 108.902344 936.476562 115.367188 936.476562 L 126.421875 936.476562 C 127.320312 936.476562 128.054688 937.207031 128.054688 938.101562 C 128.054688 938.996094 127.320312 939.726562 126.421875 939.726562 L 115.394531 939.726562 C 110.230469 939.726562 105.53125 942.949219 103.683594 947.71875 L 98.140625 961.996094 C 97.300781 964.191406 95.398438 965.816406 93.089844 966.304688 L 82.140625 968.632812 C 80.375 969.011719 79.234375 970.71875 79.53125 972.480469 C 79.695312 973.375 80.210938 974.160156 80.972656 974.675781 C 81.734375 975.191406 82.65625 975.351562 83.554688 975.164062 L 98.957031 971.886719 C 101.484375 971.34375 103.574219 969.582031 104.554688 967.199219 L 109.550781 954.871094 C 109.824219 954.195312 110.53125 953.761719 111.292969 953.867188 C 112.023438 953.976562 112.59375 954.546875 112.703125 955.277344 L 116.371094 986.136719 C 116.480469 987.03125 115.828125 987.84375 114.933594 987.953125 C 114.878906 987.925781 114.796875 987.953125 114.742188 987.953125 Z M 114.742188 987.953125 " fill-opacity="1" fill-rule="nonzero"/>

</g>
</svg>