<svg xmlns="http://www.w3.org/2000/svg" viewBox="0 0 40.0 52.01171899999997">
<g transform="translate(-772.0,-589.0)">
<path fill="#000000" d="M 779.097656 640.988281 C 777.472656 640.988281 775.9375 640.359375 774.765625 639.214844 C 772.488281 636.972656 772.308594 633.316406 774.382812 630.890625 L 788.570312 614.152344 L 803.882812 590.347656 C 804.289062 589.71875 805.121094 589.539062 805.753906 589.945312 C 806.386719 590.347656 806.566406 591.179688 806.160156 591.804688 L 790.800781 615.679688 C 790.777344 615.726562 790.734375 615.769531 790.6875 615.8125 L 776.433594 632.621094 C 775.285156 633.988281 775.375 636.054688 776.660156 637.308594 C 777.316406 637.960938 778.171875 638.296875 779.097656 638.296875 C 779.117188 638.296875 779.117188 638.296875 779.140625 638.296875 C 780.066406 638.296875 780.945312 637.914062 781.578125 637.265625 L 797.09375 621.421875 C 797.769531 620.75 798.378906 620.011719 798.898438 619.226562 L 809.316406 603.921875 C 809.746094 603.316406 810.582031 603.136719 811.1875 603.5625 C 811.796875 603.988281 811.976562 604.820312 811.550781 605.425781 L 801.128906 620.726562 C 800.5 621.648438 799.800781 622.5 799.011719 623.308594 L 783.492188 639.148438 C 782.34375 640.339844 780.789062 640.988281 779.140625 641.011719 C 779.140625 640.988281 779.117188 640.988281 779.097656 640.988281 Z M 779.097656 640.988281 " fill-opacity="1" fill-rule="nonzero"/>

</g>
</svg>