<svg xmlns="http://www.w3.org/2000/svg" viewBox="0 0 110.15234300000009 60.0">
<g transform="translate(-944.699219,-526.0)">
<path fill="#000000" d="M 954.261719 585.660156 C 952.550781 585.660156 950.816406 585.195312 949.257812 584.238281 C 945.839844 582.117188 944.152344 578.214844 944.957031 574.285156 L 947.054688 564.074219 C 947.9375 559.78125 949.984375 555.828125 952.964844 552.648438 L 956.800781 548.539062 C 957.347656 547.96875 958.226562 547.890625 958.847656 548.332031 L 967.714844 554.714844 L 968.179688 544.273438 C 968.207031 543.574219 968.699219 542.980469 969.371094 542.824219 L 982.28125 539.851562 C 983.394531 539.59375 984.558594 539.464844 985.726562 539.464844 L 993.503906 539.464844 L 1004.308594 532.769531 C 1007.238281 530.933594 1011.050781 531.632812 1013.148438 534.398438 C 1014.261719 535.871094 1014.730469 537.679688 1014.417969 539.492188 C 1014.105469 541.300781 1013.121094 542.875 1011.621094 543.910156 L 996.277344 554.433594 C 996.042969 554.585938 995.757812 554.691406 995.472656 554.691406 L 988.863281 555.027344 L 994.226562 562.160156 L 999.980469 562.9375 L 1046.789062 527.210938 C 1047.464844 526.695312 1048.398438 526.824219 1048.941406 527.46875 L 1053.347656 532.847656 C 1054.539062 534.292969 1055.03125 536.179688 1054.695312 538.015625 C 1054.359375 539.851562 1053.246094 541.453125 1051.636719 542.410156 L 1044.015625 546.910156 C 1043.265625 547.347656 1042.332031 547.089844 1041.890625 546.367188 C 1041.453125 545.617188 1041.710938 544.6875 1042.4375 544.246094 L 1050.03125 539.75 C 1050.859375 539.257812 1051.429688 538.429688 1051.609375 537.472656 C 1051.792969 536.515625 1051.535156 535.535156 1050.910156 534.8125 L 1047.464844 530.597656 L 1001.355469 565.804688 C 1001.019531 566.066406 1000.605469 566.167969 1000.1875 566.117188 L 993.164062 565.160156 C 992.75 565.109375 992.386719 564.875 992.128906 564.566406 L 984.613281 554.585938 C 984.273438 554.121094 984.199219 553.527344 984.457031 553.011719 C 984.691406 552.492188 985.207031 552.15625 985.777344 552.132812 L 994.875 551.664062 L 1009.855469 541.402344 C 1010.660156 540.835938 1011.203125 540.007812 1011.359375 539.023438 C 1011.515625 538.042969 1011.28125 537.085938 1010.6875 536.3125 C 1009.570312 534.835938 1007.550781 534.476562 1005.96875 535.457031 L 994.796875 542.386719 C 994.539062 542.539062 994.28125 542.617188 993.96875 542.617188 L 985.777344 542.617188 C 984.871094 542.617188 983.9375 542.722656 983.03125 542.929688 L 971.289062 545.644531 L 970.746094 557.792969 C 970.71875 558.359375 970.382812 558.878906 969.863281 559.109375 C 969.347656 559.371094 968.75 559.316406 968.285156 558.980469 L 958.203125 551.691406 L 955.296875 554.792969 C 952.707031 557.585938 950.917969 561.023438 950.140625 564.746094 L 948.015625 574.90625 C 947.339844 578.109375 949.078125 580.464844 950.890625 581.574219 C 952.734375 582.710938 955.582031 583.175781 958.175781 581.160156 L 969.085938 572.628906 C 969.839844 572.035156 970.304688 571.183594 970.382812 570.199219 C 970.460938 569.246094 970.125 568.3125 969.476562 567.617188 C 968.230469 566.296875 966.183594 566.167969 964.785156 567.332031 L 956.957031 573.871094 C 956.386719 574.335938 955.558594 574.363281 954.960938 573.871094 C 954.390625 573.40625 954.234375 572.578125 954.597656 571.933594 L 957.578125 566.582031 C 957.992188 565.832031 958.953125 565.574219 959.703125 565.988281 C 960.09375 566.195312 960.351562 566.554688 960.457031 566.945312 L 962.816406 564.980469 C 965.457031 562.78125 969.398438 563.015625 971.757812 565.523438 C 973 566.839844 973.648438 568.648438 973.492188 570.460938 C 973.363281 572.269531 972.457031 573.949219 971.003906 575.085938 L 960.09375 583.617188 C 958.382812 584.988281 956.335938 585.660156 954.261719 585.660156 Z M 954.261719 585.660156 " fill-opacity="1" fill-rule="nonzero"/>

</g>
</svg>