<svg xmlns="http://www.w3.org/2000/svg" viewBox="0 0 40.92578100000003 36.0">
<g transform="translate(-640.074219,-967.0)">
<path fill="#000000" d="M 667.621094 1002.421875 C 666.667969 1002.421875 665.726562 1002.175781 664.882812 1001.6875 L 642.855469 988.96875 C 640.226562 987.449219 639.324219 984.082031 640.839844 981.453125 L 648.722656 967.804688 C 649.09375 967.15625 649.925781 966.933594 650.574219 967.304688 C 651.226562 967.683594 651.445312 968.515625 651.074219 969.160156 L 643.195312 982.808594 C 642.421875 984.140625 642.882812 985.847656 644.210938 986.617188 L 666.242188 999.332031 C 666.882812 999.703125 667.636719 999.804688 668.355469 999.609375 C 669.074219 999.414062 669.679688 998.957031 670.046875 998.316406 L 677.929688 984.667969 C 678.300781 984.019531 679.132812 983.792969 679.78125 984.167969 C 680.433594 984.542969 680.65625 985.375 680.277344 986.023438 L 672.398438 999.671875 C 671.667969 1000.941406 670.476562 1001.851562 669.058594 1002.234375 C 668.582031 1002.359375 668.097656 1002.421875 667.621094 1002.421875 Z M 667.621094 1002.421875 " fill-opacity="1" fill-rule="evenodd"/>

</g>
</svg>