<svg xmlns="http://www.w3.org/2000/svg" viewBox="0 0 55.0 73.73046899999997">
<g transform="translate(-659.0,-913.269531)">
<path fill="#000000" d="M 708.253906 957.390625 C 708.078125 957.390625 707.902344 957.355469 707.730469 957.285156 C 707.039062 957 706.710938 956.203125 706.996094 955.511719 C 708.917969 950.882812 710.152344 946.484375 710.574219 942.796875 C 711.714844 932.847656 696.355469 918.761719 681.746094 916.355469 C 675.671875 915.355469 665.015625 915.828125 661.910156 930.21875 C 661.75 930.953125 661.023438 931.417969 660.292969 931.261719 C 659.558594 931.101562 659.09375 930.378906 659.25 929.648438 C 661.871094 917.527344 670.230469 911.707031 682.1875 913.675781 C 689.492188 914.878906 697.601562 919.019531 703.871094 924.746094 C 710.492188 930.789062 713.917969 937.480469 713.273438 943.105469 C 712.824219 947.042969 711.523438 951.691406 709.503906 956.550781 C 709.289062 957.074219 708.785156 957.390625 708.253906 957.390625 Z M 679.101562 986.703125 C 678.363281 986.703125 677.761719 986.113281 677.742188 985.375 C 677.730469 984.625 678.328125 984 679.078125 983.988281 C 683.15625 983.90625 687.460938 981.867188 691.875 977.929688 C 692.433594 977.429688 693.289062 977.480469 693.792969 978.039062 C 694.289062 978.601562 694.242188 979.457031 693.679688 979.957031 C 688.773438 984.335938 683.878906 986.609375 679.128906 986.703125 C 679.121094 986.703125 679.109375 986.703125 679.101562 986.703125 Z M 679.101562 986.703125 " fill-opacity="1" fill-rule="evenodd"/>

</g>
</svg>