<svg xmlns="http://www.w3.org/2000/svg" viewBox="0 0 40.460938000000056 35.660155999999915">
<g transform="translate(-724.0,-1002.0)">
<path fill="#000000" d="M 736.996094 1037.707031 C 736.515625 1037.707031 736.03125 1037.644531 735.558594 1037.515625 C 734.136719 1037.136719 732.949219 1036.226562 732.214844 1034.957031 L 724.335938 1021.308594 C 723.960938 1020.660156 724.179688 1019.828125 724.832031 1019.453125 C 725.484375 1019.078125 726.3125 1019.300781 726.6875 1019.949219 L 734.566406 1033.597656 C 734.9375 1034.238281 735.539062 1034.703125 736.257812 1034.894531 C 736.980469 1035.085938 737.730469 1034.988281 738.371094 1034.621094 L 760.402344 1021.902344 C 761.042969 1021.53125 761.503906 1020.929688 761.695312 1020.207031 C 761.890625 1019.484375 761.792969 1018.734375 761.421875 1018.09375 L 753.542969 1004.445312 C 753.167969 1003.796875 753.390625 1002.964844 754.039062 1002.59375 C 754.6875 1002.214844 755.519531 1002.4375 755.894531 1003.085938 L 763.773438 1016.734375 C 764.238281 1017.542969 764.488281 1018.433594 764.507812 1019.34375 L 764.507812 1019.597656 C 764.5 1020.035156 764.4375 1020.476562 764.320312 1020.910156 C 763.9375 1022.332031 763.03125 1023.519531 761.757812 1024.253906 L 739.730469 1036.96875 C 738.886719 1037.460938 737.949219 1037.710938 736.996094 1037.707031 Z M 736.996094 1037.707031 " fill-opacity="1" fill-rule="evenodd"/>

</g>
</svg>