<svg xmlns="http://www.w3.org/2000/svg" viewBox="0 0 77.97265600000003 101.207031">
<g transform="translate(-829.0,-118.0)">
<path fill="#000000" d="M 902.855469 219.207031 L 888.050781 219.207031 C 885.925781 219.207031 884.152344 217.613281 883.945312 215.457031 L 880.902344 182.707031 L 858.886719 186.011719 C 854.457031 186.664062 849.90625 185.453125 846.417969 182.648438 C 842.933594 179.847656 840.773438 175.65625 840.480469 171.203125 L 839.917969 162.675781 L 832 153.765625 C 829.25 150.667969 828.894531 146.09375 831.140625 142.613281 L 842.488281 124.96875 C 845 121.046875 849.285156 118.714844 853.953125 118.714844 C 857.675781 118.714844 861.164062 120.191406 863.761719 122.875 C 866.363281 125.558594 867.722656 129.070312 867.574219 132.789062 L 866.542969 163.382812 L 889.292969 163.382812 C 891.921875 163.382812 894.347656 164.445312 896.148438 166.332031 C 897.949219 168.25 898.835938 170.730469 898.691406 173.328125 L 896.679688 207.226562 C 899.636719 207.609375 905.25 208.996094 906.785156 213.894531 C 907.171875 215.132812 906.964844 216.460938 906.164062 217.523438 C 905.398438 218.585938 904.15625 219.207031 902.855469 219.207031 Z M 882.496094 178.933594 C 882.882812 178.933594 883.265625 179.050781 883.589844 179.316406 C 883.976562 179.609375 884.210938 180.054688 884.269531 180.554688 L 887.492188 215.164062 C 887.519531 215.457031 887.757812 215.695312 888.050781 215.695312 L 902.855469 215.695312 C 903.121094 215.695312 903.269531 215.546875 903.328125 215.457031 C 903.417969 215.371094 903.476562 215.191406 903.417969 214.984375 C 902.117188 210.855469 894.878906 210.648438 894.789062 210.648438 C 894.316406 210.648438 893.84375 210.441406 893.519531 210.089844 C 893.195312 209.734375 893.015625 209.261719 893.046875 208.789062 L 895.171875 173.179688 C 895.261719 171.554688 894.699219 169.992188 893.578125 168.8125 C 892.453125 167.632812 890.949219 166.984375 889.324219 166.984375 L 864.738281 166.984375 C 864.265625 166.984375 863.792969 166.777344 863.46875 166.453125 C 863.144531 166.097656 862.964844 165.65625 862.964844 165.152344 L 864.058594 132.730469 C 864.148438 129.984375 863.144531 127.359375 861.222656 125.382812 C 859.300781 123.40625 856.730469 122.3125 853.984375 122.3125 C 850.527344 122.3125 847.363281 124.054688 845.503906 126.945312 L 834.15625 144.589844 C 832.765625 146.742188 833.003906 149.574219 834.6875 151.492188 L 842.992188 160.847656 C 842.992188 160.847656 843.019531 160.875 843.019531 160.875 L 846.921875 165.273438 C 848.101562 166.597656 850.082031 166.804688 851.53125 165.773438 C 852.269531 165.242188 852.773438 164.417969 852.890625 163.53125 C 853.039062 162.617188 852.800781 161.703125 852.269531 160.964844 L 843.34375 148.925781 C 842.871094 148.277344 842.871094 147.390625 843.40625 146.742188 L 853.925781 133.910156 C 854.542969 133.140625 855.667969 133.054688 856.40625 133.671875 C 857.144531 134.292969 857.261719 135.414062 856.640625 136.152344 L 847.007812 147.863281 L 855.105469 158.78125 C 856.230469 160.285156 856.671875 162.144531 856.40625 163.972656 C 856.140625 165.804688 855.136719 167.457031 853.628906 168.546875 C 850.703125 170.671875 846.683594 170.230469 844.292969 167.542969 L 843.789062 166.984375 L 844.054688 170.964844 C 844.292969 174.507812 845.917969 177.664062 848.695312 179.875 C 851.441406 182.089844 854.898438 183.035156 858.414062 182.503906 L 882.289062 178.933594 C 882.320312 178.960938 882.410156 178.933594 882.496094 178.933594 Z M 882.496094 178.933594 " fill-opacity="1" fill-rule="nonzero"/>

</g>
</svg>