<svg xmlns="http://www.w3.org/2000/svg" viewBox="0 0 57.4375 46.207031">
<g transform="translate(-803.5625,-173.0)">
<path fill="#000000" d="M 820.59375 219.207031 L 810.722656 219.207031 C 808.953125 219.207031 807.386719 218.023438 806.882812 216.34375 L 803.867188 206.253906 C 803.277344 204.304688 803.601562 202.210938 804.695312 200.527344 C 805.789062 198.847656 807.59375 197.726562 809.601562 197.460938 L 835.042969 194.246094 L 841.367188 174.476562 C 841.660156 173.53125 842.664062 173.03125 843.582031 173.328125 C 844.527344 173.621094 845.03125 174.625 844.734375 175.539062 L 838.085938 196.371094 C 837.878906 197.019531 837.316406 197.492188 836.609375 197.578125 L 810.074219 200.972656 C 809.097656 201.089844 808.210938 201.652344 807.679688 202.476562 C 807.148438 203.300781 807 204.304688 807.265625 205.25 L 810.28125 215.339844 C 810.339844 215.546875 810.515625 215.664062 810.722656 215.664062 L 820.59375 215.664062 C 820.769531 215.664062 820.890625 215.578125 820.949219 215.488281 C 821.007812 215.429688 821.066406 215.3125 821.035156 215.164062 C 820.503906 211.179688 818.082031 210.738281 816.308594 210.738281 C 815.332031 210.738281 814.535156 209.941406 814.535156 208.96875 C 814.535156 207.992188 815.332031 207.195312 816.308594 207.195312 L 841.367188 207.195312 C 844.792969 207.195312 847.867188 205.160156 849.195312 202.003906 L 856.996094 183.5625 C 857.382812 182.648438 858.414062 182.238281 859.332031 182.621094 C 860.246094 183.003906 860.660156 184.035156 860.277344 184.949219 L 852.445312 203.421875 C 850.554688 207.875 846.210938 210.765625 841.367188 210.765625 L 823.222656 210.765625 C 823.902344 211.859375 824.347656 213.1875 824.554688 214.722656 C 824.699219 215.84375 824.375 216.992188 823.605469 217.847656 C 822.839844 218.703125 821.746094 219.207031 820.59375 219.207031 Z M 820.59375 219.207031 " fill-opacity="1" fill-rule="nonzero"/>

</g>
</svg>