<svg xmlns="http://www.w3.org/2000/svg" viewBox="0 0 86.92578200000014 89.339844">
<g transform="translate(-1003.945312,-128.0)">
<path fill="#000000" d="M 1050.226562 217.3125 L 1035.6875 217.3125 C 1033.730469 217.3125 1031.878906 216.34375 1030.78125 214.722656 C 1029.683594 213.101562 1029.421875 211.035156 1030.15625 209.207031 L 1040.074219 183.613281 L 1015.902344 183.613281 C 1012.011719 183.613281 1008.460938 181.785156 1006.191406 178.621094 C 1003.921875 175.457031 1003.347656 171.507812 1004.597656 167.824219 L 1014.753906 137.917969 C 1017.023438 131.25 1024.097656 127.5625 1030.832031 129.5 L 1041.746094 132.636719 L 1084.972656 132.636719 C 1088.207031 132.636719 1090.871094 135.277344 1090.871094 138.542969 C 1090.871094 141.679688 1088.417969 144.269531 1085.257812 144.425781 L 1034.828125 146.933594 L 1029.003906 166.097656 L 1049.757812 169.863281 C 1053.386719 170.515625 1056.386719 172.816406 1058.007812 176.164062 C 1059.597656 179.507812 1059.519531 183.273438 1057.746094 186.542969 L 1047.539062 205.335938 L 1051.480469 206.253906 C 1054.066406 206.855469 1055.839844 209.101562 1055.839844 211.742188 C 1055.867188 214.773438 1053.332031 217.3125 1050.226562 217.3125 Z M 1027.230469 132.113281 C 1023.054688 132.113281 1019.164062 134.753906 1017.753906 138.910156 L 1007.601562 168.816406 C 1006.6875 171.535156 1007.105469 174.4375 1008.777344 176.789062 C 1010.445312 179.144531 1013.058594 180.476562 1015.929688 180.476562 L 1042.398438 180.476562 C 1042.917969 180.476562 1043.386719 180.738281 1043.703125 181.15625 C 1043.988281 181.574219 1044.066406 182.125 1043.859375 182.621094 L 1033.078125 210.332031 C 1032.738281 211.21875 1032.84375 212.160156 1033.390625 212.945312 C 1033.914062 213.730469 1034.773438 214.171875 1035.714844 214.171875 L 1050.253906 214.171875 C 1051.636719 214.171875 1052.734375 213.050781 1052.734375 211.691406 C 1052.734375 210.515625 1051.949219 209.519531 1050.800781 209.257812 L 1044.851562 207.898438 C 1044.378906 207.792969 1043.964844 207.453125 1043.78125 207.011719 C 1043.570312 206.566406 1043.597656 206.042969 1043.832031 205.625 L 1055.03125 185.023438 C 1056.308594 182.671875 1056.386719 179.925781 1055.214844 177.523438 C 1054.066406 175.089844 1051.871094 173.445312 1049.234375 172.972656 L 1026.734375 168.894531 C 1026.292969 168.816406 1025.898438 168.554688 1025.664062 168.164062 C 1025.429688 167.769531 1025.378906 167.328125 1025.507812 166.882812 L 1032.214844 145 C 1032.398438 144.375 1032.972656 143.929688 1033.625 143.902344 L 1085.152344 141.339844 C 1086.617188 141.261719 1087.765625 140.058594 1087.765625 138.570312 C 1087.765625 137.054688 1086.535156 135.796875 1084.996094 135.796875 L 1041.5625 135.796875 C 1041.40625 135.796875 1041.273438 135.773438 1041.117188 135.746094 L 1029.996094 132.558594 C 1029.085938 132.242188 1028.144531 132.113281 1027.230469 132.113281 Z M 1027.230469 132.113281 " fill-opacity="1" fill-rule="nonzero"/>

</g>
</svg>