<svg xmlns="http://www.w3.org/2000/svg" viewBox="0 0 71.203125 75.70312400000012">
<g transform="translate(-79.097656,-1200.648438)">
<path fill="#000000" d="M 150.25 1219.417969 C 150.25 1219.417969 150.253906 1219.40625 150.253906 1219.398438 C 150.273438 1219.339844 150.28125 1219.273438 150.289062 1219.207031 C 150.289062 1219.191406 150.289062 1219.171875 150.292969 1219.152344 C 150.292969 1219.101562 150.292969 1219.050781 150.292969 1219 C 150.292969 1218.980469 150.292969 1218.964844 150.289062 1218.945312 C 150.28125 1218.878906 150.265625 1218.816406 150.246094 1218.75 C 150.246094 1218.746094 150.246094 1218.738281 150.242188 1218.734375 C 150.238281 1218.726562 150.230469 1218.71875 150.230469 1218.707031 C 150.210938 1218.65625 150.1875 1218.605469 150.160156 1218.558594 C 150.152344 1218.539062 150.144531 1218.523438 150.132812 1218.507812 C 150.128906 1218.5 150.125 1218.488281 150.121094 1218.480469 L 142.300781 1206.210938 C 142.292969 1206.199219 142.277344 1206.183594 142.269531 1206.171875 C 142.253906 1206.148438 142.234375 1206.125 142.21875 1206.101562 C 142.191406 1206.070312 142.164062 1206.039062 142.132812 1206.007812 C 142.113281 1205.992188 142.09375 1205.972656 142.074219 1205.953125 C 142.039062 1205.921875 141.996094 1205.894531 141.960938 1205.867188 C 141.941406 1205.855469 141.921875 1205.84375 141.902344 1205.832031 C 141.839844 1205.796875 141.777344 1205.765625 141.707031 1205.742188 L 126.988281 1200.710938 C 126.867188 1200.671875 126.742188 1200.648438 126.617188 1200.648438 L 102.792969 1200.648438 C 102.664062 1200.648438 102.539062 1200.671875 102.421875 1200.710938 L 87.707031 1205.742188 C 87.636719 1205.765625 87.574219 1205.796875 87.507812 1205.832031 C 87.488281 1205.84375 87.472656 1205.851562 87.457031 1205.867188 C 87.414062 1205.894531 87.375 1205.921875 87.335938 1205.953125 C 87.316406 1205.96875 87.296875 1205.988281 87.277344 1206.007812 C 87.25 1206.035156 87.21875 1206.066406 87.191406 1206.101562 C 87.171875 1206.121094 87.15625 1206.148438 87.140625 1206.167969 C 87.128906 1206.183594 87.117188 1206.195312 87.109375 1206.210938 L 79.289062 1218.480469 C 79.289062 1218.480469 79.28125 1218.496094 79.277344 1218.507812 C 79.265625 1218.523438 79.257812 1218.542969 79.246094 1218.5625 C 79.222656 1218.609375 79.199219 1218.65625 79.183594 1218.710938 C 79.179688 1218.71875 79.171875 1218.726562 79.167969 1218.738281 C 79.167969 1218.746094 79.167969 1218.75 79.164062 1218.753906 C 79.144531 1218.820312 79.128906 1218.882812 79.121094 1218.953125 C 79.121094 1218.96875 79.121094 1218.984375 79.121094 1219.003906 C 79.113281 1219.054688 79.113281 1219.105469 79.121094 1219.15625 C 79.121094 1219.175781 79.121094 1219.195312 79.121094 1219.214844 C 79.128906 1219.277344 79.136719 1219.34375 79.15625 1219.40625 C 79.15625 1219.410156 79.164062 1219.417969 79.164062 1219.425781 C 79.179688 1219.480469 79.199219 1219.535156 79.226562 1219.589844 C 79.234375 1219.605469 79.242188 1219.625 79.253906 1219.640625 C 79.265625 1219.660156 79.273438 1219.679688 79.285156 1219.695312 L 113.730469 1275.800781 C 113.738281 1275.816406 113.753906 1275.832031 113.761719 1275.84375 C 113.773438 1275.859375 113.785156 1275.878906 113.796875 1275.894531 C 113.800781 1275.902344 113.804688 1275.910156 113.808594 1275.914062 C 113.808594 1275.914062 113.808594 1275.917969 113.8125 1275.921875 C 113.832031 1275.941406 113.851562 1275.964844 113.871094 1275.984375 C 113.882812 1275.996094 113.894531 1276.007812 113.90625 1276.019531 C 113.917969 1276.035156 113.933594 1276.046875 113.949219 1276.0625 C 113.960938 1276.070312 113.972656 1276.082031 113.984375 1276.09375 C 114 1276.105469 114.011719 1276.117188 114.03125 1276.128906 C 114.039062 1276.132812 114.046875 1276.140625 114.054688 1276.144531 C 114.085938 1276.167969 114.117188 1276.1875 114.148438 1276.207031 C 114.152344 1276.207031 114.15625 1276.210938 114.160156 1276.210938 C 114.160156 1276.210938 114.164062 1276.210938 114.167969 1276.214844 C 114.183594 1276.222656 114.199219 1276.230469 114.214844 1276.238281 C 114.25 1276.253906 114.285156 1276.269531 114.320312 1276.28125 C 114.332031 1276.289062 114.34375 1276.292969 114.355469 1276.296875 C 114.355469 1276.296875 114.359375 1276.296875 114.363281 1276.296875 C 114.367188 1276.296875 114.375 1276.296875 114.382812 1276.300781 C 114.414062 1276.3125 114.445312 1276.316406 114.480469 1276.324219 C 114.496094 1276.328125 114.511719 1276.332031 114.527344 1276.335938 C 114.53125 1276.335938 114.539062 1276.335938 114.542969 1276.335938 C 114.589844 1276.339844 114.636719 1276.34375 114.679688 1276.347656 C 114.6875 1276.347656 114.6875 1276.347656 114.695312 1276.347656 C 114.699219 1276.347656 114.699219 1276.347656 114.703125 1276.347656 C 114.703125 1276.347656 114.707031 1276.347656 114.710938 1276.347656 C 114.714844 1276.347656 114.71875 1276.347656 114.722656 1276.347656 C 114.769531 1276.347656 114.816406 1276.34375 114.863281 1276.335938 C 114.867188 1276.335938 114.875 1276.335938 114.878906 1276.335938 C 114.894531 1276.335938 114.910156 1276.328125 114.925781 1276.324219 C 114.957031 1276.320312 114.992188 1276.3125 115.023438 1276.300781 C 115.03125 1276.300781 115.039062 1276.300781 115.042969 1276.296875 C 115.042969 1276.296875 115.046875 1276.296875 115.050781 1276.296875 C 115.0625 1276.289062 115.074219 1276.285156 115.085938 1276.28125 C 115.121094 1276.269531 115.15625 1276.253906 115.191406 1276.238281 C 115.207031 1276.230469 115.222656 1276.226562 115.238281 1276.214844 C 115.242188 1276.214844 115.242188 1276.214844 115.246094 1276.210938 C 115.25 1276.210938 115.253906 1276.210938 115.261719 1276.207031 C 115.292969 1276.1875 115.324219 1276.167969 115.355469 1276.144531 C 115.363281 1276.140625 115.371094 1276.132812 115.378906 1276.128906 C 115.394531 1276.117188 115.410156 1276.105469 115.421875 1276.09375 C 115.4375 1276.082031 115.445312 1276.070312 115.460938 1276.0625 C 115.472656 1276.046875 115.488281 1276.035156 115.503906 1276.019531 C 115.515625 1276.007812 115.523438 1275.996094 115.535156 1275.984375 C 115.554688 1275.964844 115.578125 1275.941406 115.59375 1275.921875 C 115.59375 1275.921875 115.59375 1275.917969 115.597656 1275.914062 C 115.601562 1275.910156 115.605469 1275.902344 115.613281 1275.894531 C 115.625 1275.878906 115.636719 1275.863281 115.648438 1275.84375 C 115.65625 1275.832031 115.667969 1275.816406 115.675781 1275.800781 L 150.125 1219.695312 C 150.132812 1219.675781 150.144531 1219.65625 150.152344 1219.640625 C 150.160156 1219.625 150.171875 1219.609375 150.179688 1219.589844 C 150.207031 1219.535156 150.230469 1219.480469 150.246094 1219.425781 Z M 88.558594 1208.199219 L 101.402344 1212.589844 L 98.339844 1223.824219 L 82.019531 1218.464844 L 88.5625 1208.195312 Z M 147.394531 1218.464844 L 131.070312 1223.824219 L 128.007812 1212.589844 L 140.851562 1208.203125 L 147.394531 1218.46875 Z M 125.742188 1213 L 128.78125 1224.144531 L 100.628906 1224.144531 L 103.667969 1213 Z M 128.722656 1226.429688 L 114.707031 1271.351562 L 100.6875 1226.429688 L 128.726562 1226.429688 Z M 98.210938 1226.191406 L 110.875 1266.769531 L 82.867188 1221.15625 L 98.207031 1226.191406 Z M 131.199219 1226.191406 L 146.539062 1221.15625 L 118.535156 1266.769531 Z M 102.984375 1202.941406 L 126.425781 1202.941406 L 137.792969 1206.824219 L 126.425781 1210.710938 L 102.984375 1210.710938 L 91.617188 1206.824219 Z M 102.984375 1202.941406 " fill-opacity="1" fill-rule="nonzero"/>

</g>
</svg>