<svg xmlns="http://www.w3.org/2000/svg" viewBox="0 0 56.0 89.91796899999997">
<g transform="translate(-594.0,-571.0)">
<path fill="#000000" d="M 641.652344 660.917969 C 638.6875 660.917969 635.890625 659.242188 634.507812 656.414062 L 623.710938 634.054688 C 623.515625 633.660156 623.480469 633.199219 623.546875 632.773438 L 628.417969 610.578125 L 628.417969 594.992188 L 621.441406 603.90625 C 621.144531 604.300781 620.71875 604.5625 620.222656 604.628906 L 602.648438 607.75 C 598.863281 608.410156 595.308594 606.007812 594.484375 602.261719 C 593.695312 598.511719 596.066406 594.796875 599.816406 593.910156 L 613.738281 590.6875 L 623.21875 576.777344 C 625.324219 573.6875 628.8125 571.847656 632.566406 571.847656 L 642.636719 571.847656 C 643.722656 571.847656 644.613281 572.734375 644.613281 573.820312 C 644.613281 574.902344 643.722656 575.792969 642.636719 575.792969 L 632.597656 575.792969 C 630.164062 575.792969 627.890625 577.007812 626.511719 579.015625 L 616.601562 593.546875 C 616.339844 593.941406 615.910156 594.238281 615.417969 594.371094 L 600.738281 597.757812 C 599.09375 598.152344 598.039062 599.792969 598.402344 601.4375 C 598.761719 603.082031 600.34375 604.167969 601.988281 603.871094 L 618.808594 600.878906 L 628.847656 588.054688 C 629.375 587.398438 630.261719 587.136719 631.050781 587.398438 C 631.84375 587.660156 632.367188 588.417969 632.367188 589.273438 L 632.367188 610.808594 C 632.367188 610.941406 632.367188 611.105469 632.335938 611.238281 L 627.5625 632.972656 L 638.0625 654.703125 C 638.953125 656.578125 641.125 657.433594 643.066406 656.710938 C 645.105469 655.953125 646.160156 653.75 645.46875 651.679688 L 643.394531 645.664062 C 643.03125 644.644531 643.59375 643.527344 644.613281 643.164062 C 645.632812 642.800781 646.753906 643.359375 647.113281 644.378906 L 649.1875 650.398438 C 650.601562 654.507812 648.496094 658.914062 644.414062 660.425781 C 643.492188 660.789062 642.570312 660.917969 641.652344 660.917969 Z M 641.652344 660.917969 " fill-opacity="1" fill-rule="nonzero"/>

</g>
</svg>