<svg xmlns="http://www.w3.org/2000/svg" viewBox="0 0 120.0 127.38671900000008">
<g transform="translate(-495.0,-722.417969)">
<path fill="#000000" d="M 614.320312 805.777344 C 613.558594 802.976562 612.296875 798.550781 610.511719 793.285156 C 610.40625 792.972656 610.222656 792.683594 609.960938 792.5 C 605.886719 780.085938 595.828125 753.058594 582.617188 743.367188 C 581.695312 742.425781 580.75 741.535156 579.777344 740.644531 C 579.121094 740.070312 563.597656 726.816406 545.472656 722.496094 C 545.183594 722.417969 544.894531 722.417969 544.632812 722.496094 C 544.160156 722.601562 532.835938 725.480469 527.875 739.203125 C 526.847656 741.980469 526.742188 745.019531 527.636719 747.875 C 529.160156 753.347656 533.496094 757.640625 538.984375 759.136719 C 540.875 759.632812 542.898438 759.109375 544.316406 757.773438 C 545.867188 756.304688 548.179688 755.964844 550.070312 756.933594 C 552.828125 757.957031 555.902344 757.878906 558.605469 756.726562 C 559.238281 756.4375 559.945312 756.464844 560.550781 756.804688 C 564.308594 758.714844 568.484375 762.75 567.011719 771.023438 C 566.984375 771.105469 566.984375 771.183594 566.984375 771.285156 L 566.304688 790.195312 C 560.890625 788.859375 547.3125 786.6875 539.378906 795.773438 C 535.148438 793.914062 523.90625 789.90625 513.269531 794.097656 C 505.546875 797.109375 499.742188 803.710938 495.984375 813.742188 C 495.957031 813.84375 495.933594 813.925781 495.90625 814.027344 C 495.746094 814.789062 492.464844 832.859375 505.703125 843.648438 C 510.351562 847.367188 516.132812 849.359375 522.066406 849.308594 C 523.644531 849.308594 525.195312 849.175781 526.742188 848.914062 C 529.816406 848.441406 532.863281 847.710938 535.832031 846.765625 C 537.382812 846.242188 539.0625 846.164062 540.664062 846.476562 C 550.015625 848.363281 575.15625 849.804688 606.835938 822.332031 C 608.777344 820.394531 610.589844 818.324219 612.246094 816.148438 C 614.558594 813.191406 615.320312 809.367188 614.320312 805.777344 Z M 609.382812 813.949219 C 607.832031 815.941406 606.152344 817.851562 604.390625 819.660156 C 574.050781 846.007812 550.253906 844.695312 541.425781 842.917969 C 539.195312 842.472656 536.882812 842.601562 534.703125 843.308594 C 531.917969 844.199219 529.054688 844.878906 526.164062 845.324219 C 519.757812 846.503906 513.136719 844.878906 508.015625 840.847656 C 497.0625 831.917969 499.214844 816.492188 499.476562 814.867188 C 502.867188 805.9375 507.9375 800.097656 514.609375 797.476562 C 523.539062 793.96875 533.074219 797.058594 537.277344 798.839844 C 534.859375 803.109375 533.625 807.925781 533.703125 812.851562 C 533.679688 813.84375 534.464844 814.683594 535.464844 814.710938 L 535.515625 814.710938 C 536.488281 814.710938 537.304688 813.925781 537.328125 812.957031 C 537.222656 808.058594 538.617188 803.265625 541.296875 799.179688 C 541.347656 799.101562 541.402344 799.046875 541.453125 798.96875 C 549.519531 788.441406 567.273438 794.230469 567.457031 794.28125 C 567.617188 794.335938 567.800781 794.359375 567.984375 794.386719 C 568.980469 794.414062 569.824219 793.652344 569.875 792.632812 L 570.636719 771.523438 C 572.582031 760.207031 565.410156 755.207031 562.230469 753.582031 C 560.578125 752.691406 558.605469 752.667969 556.925781 753.503906 C 555.164062 754.183594 553.222656 754.183594 551.433594 753.554688 C 548.230469 752.039062 544.421875 752.640625 541.875 755.074219 C 541.375 755.574219 540.664062 755.78125 539.984375 755.625 C 535.675781 754.421875 532.285156 751.070312 531.105469 746.746094 C 530.472656 744.679688 530.527344 742.453125 531.289062 740.410156 C 533.390625 733.78125 538.484375 728.492188 545.078125 726.136719 C 562.152344 730.351562 577.257812 743.238281 577.386719 743.34375 C 580.144531 745.832031 582.695312 748.554688 584.980469 751.460938 C 585.085938 751.59375 585.242188 751.722656 585.375 751.828125 C 587.34375 754.316406 589.578125 757.40625 591.914062 761.179688 C 591.964844 761.359375 592.019531 761.519531 592.125 761.703125 C 593.015625 763.195312 593.910156 764.6875 594.75 766.207031 C 594.855469 766.390625 595.011719 766.574219 595.171875 766.703125 C 596.824219 769.691406 598.535156 773.015625 600.1875 776.707031 C 600.1875 776.96875 600.242188 777.230469 600.371094 777.46875 C 601.132812 779.144531 601.84375 780.769531 602.5 782.390625 C 602.605469 782.628906 602.738281 782.8125 602.894531 782.992188 C 604.285156 786.425781 605.652344 790.117188 606.964844 794.070312 C 606.992188 794.203125 607.019531 794.308594 607.042969 794.4375 C 608.804688 799.625 610.039062 803.972656 610.800781 806.722656 C 611.484375 809.234375 610.957031 811.90625 609.382812 813.949219 Z M 609.382812 813.949219 " fill-opacity="1" fill-rule="nonzero"/>

</g>
</svg>