<svg xmlns="http://www.w3.org/2000/svg" viewBox="0 0 37.832031 34.15234399999997">
<g transform="translate(-127.0,-542.847656)">
<path fill="#000000" d="M 161.316406 562.234375 C 156.941406 567.214844 152.457031 571.425781 147.554688 575.683594 C 146.972656 576.1875 145.40625 576.351562 144.890625 575.902344 L 141.84375 573.246094 C 138.777344 570.570312 135.972656 567.8125 133.105469 564.921875 C 130.644531 562.445312 128.644531 559.640625 128.023438 556.148438 C 127.488281 553.136719 127.773438 550.164062 129.480469 547.691406 C 131.375 544.945312 134.160156 543.191406 137.40625 542.941406 C 140.46875 542.710938 143.585938 543.875 145.910156 546.417969 C 147.128906 545.410156 148.320312 544.265625 149.664062 543.730469 C 152.046875 542.78125 154.796875 542.609375 157.191406 543.457031 C 163.429688 545.675781 165.992188 552.707031 163.265625 558.820312 C 162.789062 559.886719 162.191406 561.246094 161.320312 562.234375 Z M 157.570312 560.335938 C 160.457031 557.417969 161.746094 551.179688 157.441406 548.277344 C 154.398438 546.230469 150.277344 546.980469 148.070312 550.425781 C 147.449219 551.394531 145.675781 552.289062 144.78125 551.253906 C 143.425781 549.6875 142.085938 547.839844 139.949219 547.3125 C 136.097656 546.363281 132.386719 548.679688 131.832031 552.535156 C 131.226562 556.695312 134.15625 560.242188 136.976562 563.023438 L 143 568.957031 L 145.898438 571.558594 C 147.402344 570.347656 148.664062 569.320312 149.902344 568.074219 Z M 157.570312 560.335938 " fill-opacity="1" fill-rule="nonzero"/>

</g>
</svg>