<svg xmlns="http://www.w3.org/2000/svg" viewBox="0 0 58.0 68.359375">
<g transform="translate(-265.0,-336.640625)">
<path fill="#000000" d="M 276.261719 404.082031 C 276.160156 404.082031 276.054688 404.070312 275.949219 404.042969 C 275.328125 403.867188 274.960938 403.222656 275.132812 402.601562 C 278.59375 390.078125 288.707031 380.34375 301.535156 377.183594 C 309.429688 374.304688 315.515625 368.183594 318.234375 360.378906 C 320.566406 353.671875 320.171875 346.445312 317.121094 340.023438 C 316.886719 339.527344 316.507812 339.21875 315.960938 339.078125 C 315.40625 338.933594 314.914062 339.019531 314.449219 339.339844 C 308.488281 343.476562 301.910156 346.601562 294.90625 348.632812 C 294.894531 348.636719 294.882812 348.640625 294.871094 348.644531 C 281.023438 352.191406 271.589844 364.816406 272.082031 378.605469 C 275.097656 375.992188 278.855469 374.339844 282.710938 372.640625 C 287.855469 370.371094 293.175781 368.027344 297.625 363.222656 C 298.0625 362.746094 298.800781 362.71875 299.273438 363.160156 C 299.746094 363.597656 299.773438 364.339844 299.335938 364.8125 C 294.554688 369.976562 288.761719 372.527344 283.648438 374.78125 C 279.042969 376.808594 274.96875 378.605469 272.105469 381.832031 C 272.042969 381.933594 271.960938 382.027344 271.867188 382.105469 C 269.589844 384.800781 268.132812 388.480469 267.882812 394.042969 C 267.859375 394.515625 267.855469 395.023438 267.875 395.550781 C 267.894531 396.195312 267.386719 396.738281 266.742188 396.757812 C 266.097656 396.773438 265.558594 396.269531 265.539062 395.625 C 265.523438 395.035156 265.523438 394.46875 265.550781 393.933594 C 265.824219 387.925781 267.457031 383.839844 269.898438 380.84375 C 269.109375 373.3125 271.058594 365.734375 275.414062 359.449219 C 279.882812 353 286.582031 348.359375 294.273438 346.382812 C 301.03125 344.421875 307.371094 341.402344 313.121094 337.417969 C 314.148438 336.703125 315.332031 336.496094 316.546875 336.8125 C 317.765625 337.128906 318.695312 337.890625 319.230469 339.019531 C 322.546875 346 322.972656 353.859375 320.4375 361.148438 C 317.480469 369.640625 310.859375 376.296875 302.273438 379.40625 C 302.234375 379.417969 302.191406 379.429688 302.148438 379.441406 C 290.117188 382.386719 280.625 391.5 277.382812 403.226562 C 277.242188 403.746094 276.769531 404.085938 276.261719 404.082031 Z M 276.261719 404.082031 " fill-opacity="1" fill-rule="evenodd"/>

</g>
</svg>