<svg xmlns="http://www.w3.org/2000/svg" viewBox="0 0 94.414062 119.14453100000014">
<g transform="translate(-428.417969,-1314.242188)">
<path fill="#000000" d="M 428.445312 1390.808594 L 428.445312 1412.214844 C 428.445312 1419.433594 434.332031 1425.304688 441.570312 1425.304688 L 444.960938 1425.304688 L 444.960938 1431.988281 C 444.960938 1432.921875 445.71875 1433.679688 446.65625 1433.679688 L 504.539062 1433.679688 C 505.472656 1433.679688 506.230469 1432.921875 506.230469 1431.988281 L 506.230469 1425.304688 L 509.628906 1425.304688 C 516.863281 1425.304688 522.746094 1419.433594 522.746094 1412.214844 L 522.746094 1390.808594 C 522.746094 1373.84375 513.972656 1363.835938 496.65625 1361.019531 C 501.058594 1356.050781 503.734375 1349.523438 503.734375 1342.382812 C 503.734375 1326.867188 491.113281 1314.242188 475.597656 1314.242188 C 460.078125 1314.242188 447.464844 1326.867188 447.464844 1342.382812 C 447.464844 1349.523438 450.140625 1356.050781 454.542969 1361.019531 C 437.222656 1363.835938 428.445312 1373.84375 428.445312 1390.804688 Z M 502.84375 1430.292969 L 448.347656 1430.292969 L 448.347656 1425.304688 L 459.59375 1425.304688 C 465.132812 1425.304688 469.808594 1421.546875 471.203125 1416.445312 L 473 1418.246094 C 473.714844 1418.957031 474.652344 1419.316406 475.59375 1419.316406 C 476.535156 1419.316406 477.476562 1418.957031 478.199219 1418.242188 L 479.992188 1416.449219 C 481.386719 1421.546875 486.058594 1425.304688 491.597656 1425.304688 L 502.84375 1425.304688 Z M 460.855469 1401.308594 L 458.449219 1398.902344 C 456.328125 1396.78125 455.160156 1393.949219 455.160156 1390.925781 C 455.160156 1387.902344 456.328125 1385.070312 458.449219 1382.949219 C 460.566406 1380.832031 463.398438 1379.664062 466.421875 1379.664062 C 469.445312 1379.664062 472.28125 1380.832031 474.398438 1382.949219 C 475.058594 1383.609375 476.132812 1383.613281 476.792969 1382.953125 C 481.195312 1378.554688 488.351562 1378.554688 492.746094 1382.953125 C 494.867188 1385.070312 496.039062 1387.902344 496.039062 1390.925781 C 496.039062 1393.949219 494.867188 1396.78125 492.742188 1398.902344 L 490.34375 1401.308594 C 484.710938 1401.894531 480.21875 1406.386719 479.628906 1412.019531 L 475.808594 1415.84375 C 475.699219 1415.957031 475.503906 1415.960938 475.394531 1415.851562 L 471.5625 1412.015625 C 470.972656 1406.386719 466.484375 1401.898438 460.855469 1401.308594 Z M 450.847656 1342.382812 C 450.847656 1328.734375 461.949219 1317.628906 475.597656 1317.628906 C 489.242188 1317.628906 500.351562 1328.734375 500.351562 1342.382812 C 500.351562 1356.03125 489.246094 1367.128906 475.597656 1367.128906 C 461.945312 1367.128906 450.847656 1356.027344 450.847656 1342.382812 Z M 457.632812 1364.015625 C 462.507812 1368.070312 468.773438 1370.515625 475.597656 1370.515625 C 482.421875 1370.515625 488.6875 1368.070312 493.566406 1364.015625 C 510.917969 1366.003906 519.359375 1374.769531 519.359375 1390.808594 L 519.359375 1412.214844 C 519.359375 1417.566406 514.996094 1421.921875 509.628906 1421.921875 L 491.597656 1421.921875 C 486.828125 1421.921875 482.949219 1418.042969 482.949219 1413.277344 C 482.949219 1408.511719 486.828125 1404.628906 491.597656 1404.628906 L 504.539062 1404.628906 C 505.472656 1404.628906 506.230469 1403.871094 506.230469 1402.9375 C 506.230469 1402.003906 505.472656 1401.246094 504.539062 1401.246094 L 495.1875 1401.246094 C 497.917969 1398.492188 499.421875 1394.832031 499.421875 1390.925781 C 499.421875 1387 497.902344 1383.316406 495.140625 1380.558594 C 489.808594 1375.226562 481.351562 1374.867188 475.597656 1379.484375 C 473.011719 1377.40625 469.808594 1376.277344 466.421875 1376.277344 C 462.496094 1376.277344 458.8125 1377.796875 456.054688 1380.558594 C 453.292969 1383.316406 451.773438 1387 451.773438 1390.925781 C 451.773438 1394.832031 453.277344 1398.492188 456.003906 1401.246094 L 446.65625 1401.246094 C 445.71875 1401.246094 444.960938 1402.003906 444.960938 1402.9375 C 444.960938 1403.871094 445.71875 1404.628906 446.65625 1404.628906 L 459.59375 1404.628906 C 464.363281 1404.628906 468.242188 1408.511719 468.242188 1413.277344 C 468.242188 1418.046875 464.363281 1421.921875 459.59375 1421.921875 L 441.570312 1421.921875 C 436.199219 1421.921875 431.832031 1417.566406 431.832031 1412.214844 L 431.832031 1390.808594 C 431.832031 1374.769531 440.277344 1366.003906 457.632812 1364.015625 Z M 457.632812 1364.015625 " fill-opacity="1" fill-rule="nonzero"/>

</g>
</svg>