<svg xmlns="http://www.w3.org/2000/svg" viewBox="0 0 34.0 33.003906">
<g transform="translate(-86.0,-75.996094)">
<path fill="#000000" d="M 103.542969 108.203125 C 103.824219 108.214844 104.101562 108.222656 104.375 108.222656 C 111.53125 108.21875 116.628906 104.234375 118.429688 97.183594 C 120.105469 90.617188 119.523438 85.410156 116.703125 81.710938 C 113.222656 77.152344 107.28125 76.089844 102.90625 76 C 97.585938 75.890625 93.164062 77.675781 90.136719 81.167969 C 86.765625 85.054688 85.355469 90.972656 86.359375 96.996094 C 87.285156 102.523438 95.476562 107.863281 103.542969 108.203125 Z M 93.617188 84.167969 C 95.683594 81.789062 98.648438 80.582031 102.4375 80.582031 C 102.558594 80.582031 102.6875 80.582031 102.8125 80.585938 C 106.171875 80.65625 110.675781 81.390625 113.039062 84.488281 C 114.972656 87.015625 115.285156 90.90625 113.96875 96.054688 C 112.300781 102.59375 107.484375 103.78125 103.738281 103.621094 C 97.554688 103.359375 91.40625 99.277344 90.898438 96.242188 C 90.113281 91.546875 91.128906 87.035156 93.617188 84.167969 Z M 93.617188 84.167969 " fill-opacity="1" fill-rule="nonzero"/>

</g>
</svg>