<svg xmlns="http://www.w3.org/2000/svg" viewBox="0 0 102.66015599999992 127.39062400000012">
<g transform="translate(-708.472656,-1084.773438)">
<path fill="#000000" d="M 760.472656 1160.574219 L 769.246094 1143.960938 C 772.003906 1138.777344 771.871094 1137.707031 768.542969 1132.828125 C 757.433594 1116.546875 776.09375 1085.539062 794.191406 1084.917969 C 799.246094 1084.015625 804.964844 1087.742188 807.554688 1091.898438 C 816.160156 1105.699219 808.070312 1128.996094 795.652344 1137.949219 C 794.308594 1139 792.808594 1139.441406 791.335938 1140.167969 C 787.824219 1141.898438 782.710938 1140.375 780.824219 1144.714844 C 780.226562 1146.097656 779.730469 1147.609375 779.222656 1149.039062 L 772.640625 1167.882812 C 772.078125 1169.488281 770.875 1172.542969 770.546875 1174.050781 L 783.007812 1194.851562 C 784.972656 1198.128906 786.277344 1200.074219 785.582031 1204 C 784.214844 1211.746094 774.777344 1214.828125 769.140625 1209.328125 C 766.300781 1206.558594 764.398438 1199.730469 762.8125 1195.804688 C 761.386719 1199.378906 760.503906 1203.082031 758.71875 1206.578125 C 752.683594 1218.410156 736.085938 1209.398438 740.8125 1198.394531 C 744.503906 1190.957031 748.699219 1182.972656 752.792969 1175.695312 C 751.144531 1170.71875 748.613281 1165.335938 746.632812 1160.445312 L 742.277344 1149.820312 C 739.535156 1143.304688 740.476562 1143.328125 732.992188 1141.773438 C 720.15625 1139.109375 715.234375 1124.492188 711.984375 1113.375 C 711.234375 1110.234375 710.109375 1107.085938 709.390625 1103.867188 C 708.613281 1100.363281 706.796875 1095.644531 712.308594 1095.085938 C 715.570312 1094.757812 717.78125 1100.988281 719.070312 1103.402344 L 725.863281 1116.050781 C 726.320312 1116.914062 727.589844 1119.671875 728.117188 1120.199219 C 728.898438 1120.339844 729.046875 1119.484375 728.804688 1118.925781 C 726.542969 1113.6875 724.492188 1108.359375 722.398438 1103.054688 L 720.695312 1098.804688 C 720.0625 1097.269531 719.054688 1095.371094 719.367188 1093.695312 C 719.804688 1090.5625 724.582031 1089.007812 726.421875 1091.726562 C 727.417969 1093.203125 728.324219 1095.605469 729.136719 1097.25 L 735.09375 1109.242188 C 736.011719 1111.105469 737.363281 1114.15625 738.367188 1115.824219 L 738.453125 1115.960938 C 738.746094 1115.832031 739.0625 1115.664062 739.355469 1115.519531 C 738.886719 1113.585938 737.359375 1109.878906 736.601562 1107.890625 L 731.730469 1094.828125 C 730.640625 1091.835938 728.027344 1087.734375 731.96875 1085.488281 C 735.855469 1083.277344 738.660156 1089.113281 740.316406 1091.746094 C 746.589844 1101.730469 759.578125 1121.390625 752.054688 1133.265625 C 748.015625 1139.640625 749.453125 1140.273438 752.636719 1146.210938 C 755.207031 1151 758.042969 1155.714844 760.472656 1160.574219 Z M 794.609375 1088.375 C 779.257812 1088.824219 763.480469 1115.039062 770.195312 1128.757812 C 772.25 1132.957031 775.9375 1135.296875 774.484375 1141.117188 C 773.992188 1143.089844 772.640625 1145.183594 771.667969 1147.023438 L 768.144531 1153.742188 C 763.777344 1161.902344 759.710938 1170.308594 755.367188 1178.425781 L 747.433594 1193.457031 C 745.269531 1197.59375 741.304688 1202.6875 745.613281 1206.824219 C 746.859375 1208.023438 748.347656 1208.570312 750.105469 1208.496094 L 750.449219 1208.476562 C 755.546875 1207.652344 756.046875 1203.265625 757.664062 1199.195312 C 760.472656 1192.132812 762.859375 1184.863281 765.351562 1177.679688 L 776.304688 1146.726562 C 779.609375 1137.675781 779.902344 1139.539062 788.679688 1137.363281 C 801.636719 1134.148438 809.105469 1112.730469 807.230469 1100.867188 C 806.28125 1094.84375 801.515625 1087.472656 794.609375 1088.375 Z M 733.734375 1088.574219 C 734.910156 1096.316406 739.394531 1104.796875 742.121094 1112.410156 C 742.785156 1114.292969 743.597656 1115.472656 742.367188 1117.414062 C 740.785156 1119.914062 736.785156 1120.464844 735.214844 1117.632812 C 733.789062 1115.058594 732.605469 1112.421875 731.335938 1109.78125 L 725.351562 1097.589844 C 724.984375 1096.851562 724.105469 1093.921875 723.234375 1093.921875 C 722.566406 1094.675781 723.390625 1095.773438 723.605469 1096.328125 L 729.933594 1112.351562 C 730.757812 1114.421875 732.332031 1117.402344 732.625 1119.390625 C 733.023438 1122.09375 729.371094 1124.800781 726.828125 1123.699219 C 725.097656 1122.949219 724.660156 1121.546875 723.886719 1120.097656 L 715.355469 1104.054688 C 714.332031 1102.28125 713.613281 1098.550781 712.128906 1098.71875 C 711.246094 1100.117188 718.121094 1120.792969 719.269531 1123.402344 C 721.832031 1129.285156 724.785156 1134.933594 731.152344 1137.503906 C 735.632812 1139.394531 741.453125 1138.292969 743.832031 1144.207031 C 747.460938 1153.242188 751.433594 1162.246094 754.972656 1171.308594 C 756.191406 1169.042969 757.363281 1166.691406 758.527344 1164.394531 L 749.121094 1147.242188 C 747.019531 1143.492188 745.183594 1140.890625 746.433594 1136.410156 C 747.277344 1133.378906 749.433594 1131.652344 750.214844 1128.667969 C 752.5625 1119.683594 746.636719 1110 742.5 1102.273438 C 741.375 1100.171875 735.15625 1089.691406 733.734375 1088.574219 Z M 768.90625 1178.5625 L 766.007812 1186.984375 C 765.660156 1188.023438 765.0625 1189.667969 764.792969 1190.6875 L 768.25 1199.960938 C 769.96875 1204.542969 771.523438 1209.867188 777.757812 1208.203125 C 781.144531 1206.945312 783.011719 1203.476562 781.6875 1199.898438 C 781.097656 1198.304688 779.34375 1195.90625 778.4375 1194.378906 L 772.832031 1185.042969 C 772.296875 1184.152344 769.445312 1179.015625 768.90625 1178.5625 Z M 768.90625 1178.5625 " fill-opacity="1" fill-rule="nonzero"/>

</g>
</svg>