<svg xmlns="http://www.w3.org/2000/svg" viewBox="0 0 138.628906 127.390625">
<g transform="translate(-252.253906,-1093.859375)">
<path fill="#000000" d="M 390.496094 1166.625 C 390.171875 1166.175781 389.652344 1165.90625 389.101562 1165.90625 L 381.328125 1165.90625 C 384.710938 1160.253906 386.488281 1153.839844 386.488281 1147.160156 C 386.488281 1137.378906 382.679688 1128.179688 375.761719 1121.265625 C 375.089844 1120.59375 374 1120.59375 373.324219 1121.265625 L 351.417969 1143.175781 L 353.050781 1134.308594 C 354.019531 1129.054688 352.722656 1124.109375 349.304688 1120.003906 C 348.785156 1119.375 348.230469 1118.800781 347.65625 1118.265625 L 356.074219 1107.039062 C 356.984375 1105.824219 357.367188 1104.324219 357.148438 1102.8125 C 356.933594 1101.300781 356.148438 1099.964844 354.933594 1099.054688 C 352.417969 1097.167969 348.835938 1097.679688 346.949219 1100.195312 L 341.429688 1107.558594 L 341.429688 1099.566406 C 341.429688 1096.421875 338.871094 1093.863281 335.726562 1093.863281 C 332.582031 1093.863281 330.023438 1096.421875 330.023438 1099.566406 L 330.023438 1107.558594 L 324.503906 1100.195312 C 322.621094 1097.679688 319.035156 1097.167969 316.519531 1099.054688 C 315.304688 1099.964844 314.519531 1101.300781 314.304688 1102.8125 C 314.085938 1104.324219 314.46875 1105.824219 315.378906 1107.039062 L 323.789062 1118.253906 C 323.207031 1118.792969 322.652344 1119.375 322.128906 1120.003906 C 318.710938 1124.105469 317.414062 1129.054688 318.382812 1134.308594 L 320.601562 1146.355469 C 319.886719 1145.882812 319.164062 1145.445312 318.433594 1145.039062 C 318.359375 1142.074219 317.542969 1139.167969 316.050781 1136.578125 C 314.875 1134.542969 313.355469 1132.800781 311.527344 1131.390625 C 313.148438 1126.542969 312.632812 1121.308594 310.050781 1116.835938 C 305.773438 1109.429688 296.972656 1106.167969 289.023438 1108.804688 C 288.835938 1108.417969 288.632812 1108.039062 288.417969 1107.667969 C 286.035156 1103.539062 282.1875 1100.585938 277.589844 1099.355469 C 272.984375 1098.121094 268.179688 1098.753906 264.050781 1101.136719 C 259.925781 1103.519531 256.972656 1107.367188 255.742188 1111.96875 C 254.507812 1116.574219 255.140625 1121.378906 257.523438 1125.507812 C 257.738281 1125.882812 257.972656 1126.25 258.214844 1126.609375 C 252.003906 1132.183594 250.449219 1141.417969 254.707031 1148.792969 C 257.277344 1153.242188 261.527344 1156.300781 266.507812 1157.332031 C 266.8125 1159.640625 267.5625 1161.84375 268.746094 1163.894531 C 269.152344 1164.601562 269.605469 1165.269531 270.097656 1165.90625 L 254.09375 1165.90625 C 253.539062 1165.90625 253.019531 1166.171875 252.699219 1166.625 C 252.375 1167.070312 252.285156 1167.648438 252.460938 1168.175781 C 258.652344 1186.902344 270.277344 1200.699219 287.972656 1210.316406 L 287.972656 1216.160156 C 287.972656 1218.960938 290.253906 1221.242188 293.058594 1221.242188 L 350.148438 1221.242188 C 352.949219 1221.242188 355.230469 1218.964844 355.230469 1216.160156 L 355.230469 1210.316406 C 372.925781 1200.699219 384.550781 1186.902344 390.746094 1168.175781 C 390.917969 1167.648438 390.828125 1167.070312 390.503906 1166.625 Z M 374.511719 1124.957031 C 380.023438 1131.058594 383.039062 1138.878906 383.039062 1147.164062 C 383.039062 1153.917969 381.03125 1160.378906 377.234375 1165.910156 L 371.992188 1165.910156 C 376.402344 1160.707031 378.871094 1154.070312 378.871094 1147.164062 C 378.871094 1140.261719 376.285156 1133.222656 371.558594 1127.914062 L 374.515625 1124.957031 Z M 361.148438 1165.910156 C 359.53125 1158.617188 353.015625 1153.285156 345.398438 1153.285156 C 337.785156 1153.285156 331.265625 1158.617188 329.652344 1165.910156 L 325.402344 1165.910156 C 327.078125 1156.355469 335.523438 1149.113281 345.398438 1149.113281 C 355.277344 1149.113281 363.722656 1156.355469 365.398438 1165.910156 Z M 357.585938 1165.910156 L 333.210938 1165.910156 C 334.742188 1160.5625 339.675781 1156.734375 345.398438 1156.734375 C 351.117188 1156.734375 356.050781 1160.5625 357.585938 1165.910156 Z M 361.546875 1151.996094 C 360.253906 1150.796875 358.84375 1149.761719 357.347656 1148.890625 L 375.359375 1148.890625 C 374.964844 1154.710938 372.585938 1160.222656 368.636719 1164.503906 C 367.628906 1159.726562 365.179688 1155.363281 361.546875 1151.996094 Z M 354.03125 1145.441406 L 369.109375 1130.359375 C 372.808594 1134.582031 374.984375 1139.835938 375.355469 1145.441406 Z M 349.707031 1102.269531 C 350.453125 1101.273438 351.867188 1101.074219 352.863281 1101.816406 C 353.339844 1102.175781 353.648438 1102.703125 353.734375 1103.304688 C 353.824219 1103.902344 353.671875 1104.496094 353.3125 1104.972656 L 344.914062 1116.175781 C 343.816406 1115.507812 342.652344 1114.976562 341.429688 1114.578125 L 341.429688 1113.3125 L 349.710938 1102.269531 Z M 335.722656 1097.316406 C 336.964844 1097.316406 337.976562 1098.328125 337.976562 1099.570312 L 337.976562 1113.84375 C 337.304688 1113.769531 336.617188 1113.730469 335.917969 1113.730469 L 335.511719 1113.730469 C 334.820312 1113.730469 334.136719 1113.769531 333.46875 1113.84375 L 333.46875 1099.574219 C 333.46875 1098.332031 334.480469 1097.320312 335.722656 1097.320312 Z M 318.136719 1104.972656 C 317.777344 1104.496094 317.628906 1103.902344 317.714844 1103.304688 C 317.800781 1102.707031 318.109375 1102.175781 318.585938 1101.816406 C 319.582031 1101.074219 320.996094 1101.273438 321.742188 1102.269531 L 330.023438 1113.3125 L 330.023438 1114.574219 C 328.796875 1114.96875 327.632812 1115.5 326.535156 1116.167969 L 318.136719 1104.96875 Z M 324.117188 1146.414062 L 331.097656 1146.414062 C 332.046875 1146.414062 332.820312 1145.640625 332.820312 1144.691406 C 332.820312 1143.738281 332.046875 1142.964844 331.097656 1142.964844 L 323.480469 1142.964844 L 321.773438 1133.683594 C 321.714844 1133.371094 321.667969 1133.058594 321.628906 1132.746094 L 328.601562 1132.746094 C 329.554688 1132.746094 330.328125 1131.972656 330.328125 1131.023438 C 330.328125 1130.070312 329.554688 1129.296875 328.601562 1129.296875 L 321.628906 1129.296875 C 321.953125 1126.730469 323.007812 1124.332031 324.773438 1122.210938 C 327.515625 1118.917969 331.230469 1117.175781 335.511719 1117.175781 L 335.917969 1117.175781 C 340.199219 1117.175781 343.910156 1118.917969 346.652344 1122.210938 C 349.394531 1125.503906 350.429688 1129.46875 349.65625 1133.683594 L 349.367188 1135.265625 L 341.9375 1135.265625 C 340.984375 1135.265625 340.210938 1136.039062 340.210938 1136.988281 C 340.210938 1137.941406 340.984375 1138.714844 341.9375 1138.714844 L 348.730469 1138.714844 L 347.433594 1145.753906 C 346.757812 1145.695312 346.082031 1145.664062 345.398438 1145.664062 C 339.390625 1145.664062 333.65625 1147.914062 329.253906 1152 C 328.914062 1152.308594 328.59375 1152.632812 328.28125 1152.960938 C 327.101562 1151.691406 325.902344 1150.523438 324.679688 1149.460938 L 324.121094 1146.414062 Z M 321.558594 1151.558594 L 321.792969 1151.515625 C 323.238281 1152.726562 324.664062 1154.097656 326.0625 1155.632812 C 323.890625 1158.671875 322.46875 1162.183594 321.914062 1165.910156 L 314.554688 1165.910156 L 305.382812 1154.261719 C 304.792969 1153.515625 303.710938 1153.382812 302.960938 1153.972656 C 302.214844 1154.5625 302.082031 1155.648438 302.671875 1156.398438 L 310.164062 1165.910156 L 293.925781 1165.910156 C 292.058594 1159.148438 292.796875 1152.40625 296.175781 1145.359375 C 305.84375 1143.289062 314.054688 1145.183594 321.503906 1151.285156 L 321.554688 1151.558594 Z M 271.726562 1162.175781 C 270.582031 1160.191406 269.9375 1158.035156 269.816406 1155.765625 C 269.769531 1154.933594 269.140625 1154.253906 268.316406 1154.144531 C 263.824219 1153.566406 259.953125 1150.984375 257.691406 1147.066406 C 254.019531 1140.707031 255.703125 1132.636719 261.605469 1128.289062 C 261.988281 1128.007812 262.238281 1127.582031 262.296875 1127.109375 C 262.355469 1126.636719 262.214844 1126.164062 261.910156 1125.796875 C 261.386719 1125.167969 260.917969 1124.488281 260.507812 1123.78125 C 258.582031 1120.449219 258.074219 1116.570312 259.070312 1112.855469 C 260.0625 1109.144531 262.445312 1106.039062 265.773438 1104.121094 C 269.101562 1102.195312 272.980469 1101.6875 276.695312 1102.683594 C 280.40625 1103.675781 283.511719 1106.058594 285.429688 1109.386719 C 285.839844 1110.09375 286.1875 1110.839844 286.46875 1111.605469 C 286.632812 1112.050781 286.980469 1112.410156 287.417969 1112.597656 C 287.851562 1112.78125 288.351562 1112.777344 288.785156 1112.585938 C 295.515625 1109.601562 303.375 1112.167969 307.0625 1118.554688 C 309.335938 1122.488281 309.621094 1127.152344 307.855469 1131.351562 C 307.535156 1132.117188 307.804688 1133.007812 308.5 1133.464844 C 310.390625 1134.703125 311.925781 1136.328125 313.0625 1138.300781 C 313.964844 1139.855469 314.554688 1141.550781 314.824219 1143.304688 C 308.65625 1140.820312 301.953125 1140.453125 294.601562 1142.175781 C 294.105469 1142.292969 293.6875 1142.625 293.457031 1143.078125 C 292.933594 1144.113281 292.460938 1145.148438 292.042969 1146.175781 L 285.921875 1135.574219 L 290.09375 1119.261719 C 290.328125 1118.339844 289.773438 1117.398438 288.851562 1117.164062 C 287.925781 1116.925781 286.988281 1117.484375 286.753906 1118.40625 L 283.457031 1131.300781 L 273.71875 1114.429688 C 273.238281 1113.605469 272.183594 1113.324219 271.359375 1113.796875 C 270.535156 1114.273438 270.253906 1115.328125 270.726562 1116.152344 L 280.46875 1133.027344 L 267.65625 1129.4375 C 266.738281 1129.179688 265.789062 1129.714844 265.53125 1130.632812 C 265.273438 1131.546875 265.808594 1132.5 266.726562 1132.757812 L 282.9375 1137.300781 L 290.230469 1149.941406 C 290.289062 1150.039062 290.359375 1150.128906 290.429688 1150.210938 L 277.566406 1146.605469 C 276.652344 1146.351562 275.699219 1146.886719 275.441406 1147.800781 C 275.183594 1148.71875 275.71875 1149.671875 276.636719 1149.929688 L 289.886719 1153.644531 C 289.199219 1157.757812 289.359375 1161.828125 290.363281 1165.914062 L 274.824219 1165.914062 C 273.589844 1164.855469 272.546875 1163.601562 271.726562 1162.175781 Z M 351.777344 1216.160156 C 351.777344 1217.058594 351.042969 1217.792969 350.140625 1217.792969 L 293.050781 1217.792969 C 292.152344 1217.792969 291.417969 1217.0625 291.417969 1216.160156 L 291.417969 1211.011719 L 351.773438 1211.011719 L 351.773438 1216.160156 Z M 353.0625 1207.5625 L 290.132812 1207.5625 C 273.679688 1198.761719 262.660156 1186.242188 256.519531 1169.359375 L 386.679688 1169.359375 C 380.535156 1186.242188 369.515625 1198.761719 353.0625 1207.5625 Z M 353.0625 1207.5625 " fill-opacity="1" fill-rule="nonzero"/>

</g>
</svg>