<svg xmlns="http://www.w3.org/2000/svg" viewBox="0 0 138.625 91.83984400000008">
<g transform="translate(-37.675781,-1115.0)">
<path fill="#232320" d="M 136.726562 1199.097656 C 125.226562 1208.042969 103.566406 1208.15625 89.816406 1204.789062 C 82.4375 1202.984375 73.246094 1198.691406 72.746094 1190.0625 C 51.234375 1179.710938 36.921875 1157.886719 37.726562 1133.84375 C 37.996094 1125.898438 55.644531 1121.371094 61.824219 1119.925781 C 87.414062 1113.941406 126.703125 1114.292969 152.46875 1119.941406 C 158.53125 1121.269531 175.9375 1126.207031 176.234375 1133.703125 C 177.199219 1158.167969 163.484375 1179.238281 141.660156 1189.992188 C 141.085938 1193.664062 139.65625 1196.816406 136.726562 1199.097656 Z M 166.046875 1136.992188 C 167.589844 1137.878906 168.800781 1138.328125 170.253906 1136.800781 C 170.992188 1136.03125 171.65625 1135.246094 171.398438 1134.054688 C 170.738281 1130.988281 163.34375 1128.292969 160.117188 1127.222656 C 133.132812 1118.296875 84.792969 1118.253906 57.550781 1126.074219 C 54.089844 1127.066406 42.855469 1130.441406 42.566406 1134.535156 C 42.457031 1136.113281 44.949219 1137.988281 46.34375 1137.925781 C 63.335938 1126.984375 104.792969 1126.34375 124.414062 1127.730469 C 136.683594 1128.597656 155.566406 1130.964844 166.046875 1136.992188 Z M 127.367188 1148.0625 C 139.496094 1147.019531 151.042969 1145.308594 162.707031 1140.835938 C 147.089844 1132.832031 117.40625 1131.390625 100.511719 1132.105469 L 88.140625 1132.632812 C 79.738281 1132.984375 58.988281 1136.378906 51.820312 1140.652344 C 70.996094 1148.890625 106.792969 1149.832031 127.367188 1148.0625 Z M 171.050781 1142.414062 C 166.578125 1144.191406 163.085938 1146.164062 158.855469 1147.410156 C 134.425781 1154.609375 102.796875 1154.691406 77.589844 1151.816406 L 62.914062 1149.414062 C 55.855469 1148.261719 49.660156 1145.429688 42.929688 1142.195312 C 45.476562 1163.34375 60.125 1180.007812 79.308594 1187.726562 C 97.109375 1194.890625 116.691406 1194.847656 134.546875 1187.871094 C 153.3125 1180.535156 168.703125 1163.839844 171.050781 1142.414062 Z M 135.152344 1193.015625 C 116.628906 1199.371094 97.835938 1199.398438 79.214844 1193.125 C 79.882812 1195.519531 81.894531 1196.53125 83.808594 1197.449219 C 91.234375 1201 99.277344 1202.0625 107.582031 1201.972656 C 114.300781 1201.898438 131.863281 1200.417969 135.152344 1193.015625 Z M 135.152344 1193.015625 " fill-opacity="1" fill-rule="nonzero"/>

</g>
</svg>