<svg xmlns="http://www.w3.org/2000/svg" viewBox="0 0 91.0 39.96484399999997">
<g transform="translate(-510.0,-984.035156)">
<path fill="#000000" d="M 555.269531 1023.796875 C 555.082031 1023.796875 554.871094 1023.75 554.683594 1023.679688 L 512.230469 1004.59375 C 511.125 1004.101562 510.445312 1003.003906 510.515625 1001.808594 C 510.5625 1000.613281 511.339844 999.582031 512.464844 999.1875 L 554.800781 984.128906 C 555.105469 984.011719 555.433594 984.011719 555.742188 984.128906 L 598.078125 999.164062 C 599.203125 999.558594 599.976562 1000.589844 600.023438 1001.785156 C 600.070312 1002.980469 599.390625 1004.078125 598.3125 1004.570312 L 555.859375 1023.65625 C 555.671875 1023.75 555.457031 1023.796875 555.269531 1023.796875 Z M 555.269531 986.960938 L 513.40625 1001.832031 C 513.382812 1001.855469 513.335938 1001.855469 513.335938 1001.925781 C 513.335938 1001.996094 513.359375 1002.019531 513.40625 1002.042969 L 555.269531 1020.847656 L 597.136719 1002.019531 C 597.160156 1001.996094 597.207031 1001.996094 597.207031 1001.902344 C 597.207031 1001.832031 597.160156 1001.808594 597.136719 1001.808594 Z M 555.269531 986.960938 " fill-opacity="1" fill-rule="nonzero"/>

</g>
</svg>