<svg xmlns="http://www.w3.org/2000/svg" viewBox="0 0 88.44140600000003 53.964844">
<g transform="translate(-567.917969,-80.164062)">
<path fill="#000000" d="M 656.332031 106.613281 C 656.226562 106.148438 652.238281 101.417969 651.605469 100.710938 C 641.292969 89.214844 625.777344 79.289062 609.71875 80.234375 C 594.921875 81.105469 577.679688 92.992188 569.25 104.84375 C 568.699219 105.625 567.71875 106.605469 567.953125 107.558594 C 568.101562 108.164062 572.738281 113.574219 573.503906 114.40625 C 582.355469 124.019531 596.085938 133.195312 609.484375 134.054688 C 625.175781 135.0625 640.375 125.601562 650.660156 114.523438 C 651.597656 113.511719 655.863281 108.707031 656.214844 107.792969 C 656.332031 107.484375 656.402344 106.921875 656.332031 106.613281 Z M 610.902344 131.339844 C 595.296875 130.820312 580.113281 119.128906 571.140625 107.085938 C 580.296875 95.058594 595.390625 83.386719 611.136719 82.949219 C 627.632812 82.492188 643.777344 94.527344 653.144531 107.203125 C 643.460938 119.785156 627.589844 131.898438 610.902344 131.339844 Z M 610.902344 131.339844 " fill-opacity="1" fill-rule="nonzero"/>

</g>
</svg>