<svg xmlns="http://www.w3.org/2000/svg" viewBox="0 0 67.9375 119.921876">
<g transform="translate(-286.0,-246.601562)">
<path fill="#000000" d="M 319.832031 246.601562 C 301.242188 246.601562 286.117188 261.660156 286.117188 280.167969 L 286.117188 332.953125 C 286.117188 351.464844 301.242188 366.523438 319.832031 366.523438 C 338.425781 366.523438 353.550781 351.464844 353.550781 332.953125 L 353.550781 280.167969 C 353.550781 261.660156 338.425781 246.601562 319.832031 246.601562 Z M 349.535156 332.953125 C 349.535156 349.261719 336.210938 362.527344 319.832031 362.527344 C 303.453125 362.527344 290.128906 349.261719 290.128906 332.953125 L 290.128906 280.167969 C 290.128906 263.863281 303.453125 250.597656 319.832031 250.597656 C 336.210938 250.597656 349.535156 263.863281 349.535156 280.167969 Z M 349.535156 332.953125 " fill-opacity="1" fill-rule="nonzero"/>

</g>
</svg>