<svg xmlns="http://www.w3.org/2000/svg" viewBox="0 0 125.921876 84.703125">
<g transform="translate(-272.257812,-1024.0)">
<path fill="#000000" d="M 391.066406 1108.671875 L 279.382812 1108.671875 C 275.457031 1108.671875 272.261719 1105.476562 272.261719 1101.546875 L 272.261719 1031.78125 C 272.261719 1027.851562 275.457031 1024.65625 279.382812 1024.65625 L 391.066406 1024.65625 C 394.992188 1024.65625 398.183594 1027.851562 398.183594 1031.78125 L 398.183594 1101.546875 C 398.183594 1105.476562 394.992188 1108.671875 391.066406 1108.671875 Z M 279.382812 1028.859375 C 277.769531 1028.859375 276.460938 1030.171875 276.460938 1031.78125 L 276.460938 1101.546875 C 276.460938 1103.160156 277.769531 1104.472656 279.382812 1104.472656 L 391.066406 1104.472656 C 392.675781 1104.472656 393.988281 1103.160156 393.988281 1101.546875 L 393.988281 1031.78125 C 393.988281 1030.171875 392.675781 1028.859375 391.066406 1028.859375 Z M 279.382812 1028.859375 " fill-opacity="1" fill-rule="nonzero"/>

</g>
</svg>