<svg xmlns="http://www.w3.org/2000/svg" viewBox="0 0 35.0 38.96484399999997">
<g transform="translate(-94.0,-706.0)">
<path fill="#000000" d="M 112.015625 744.9375 C 110.097656 744.9375 108.304688 743.914062 107.324219 742.222656 L 95 720.816406 C 93.507812 718.207031 94.402344 714.890625 96.984375 713.394531 L 107.75 707.148438 C 110.332031 705.652344 113.65625 706.550781 115.148438 709.136719 L 127.472656 730.546875 C 128.964844 733.15625 128.070312 736.46875 125.488281 737.964844 L 114.722656 744.210938 C 113.890625 744.683594 112.972656 744.9375 112.015625 744.9375 Z M 110.4375 709.992188 C 110.117188 709.992188 109.796875 710.078125 109.519531 710.226562 L 98.753906 716.472656 C 97.878906 716.988281 97.558594 718.140625 98.070312 719.019531 L 110.394531 740.425781 C 110.90625 741.324219 112.058594 741.625 112.933594 741.109375 L 123.699219 734.886719 C 124.59375 734.375 124.894531 733.21875 124.382812 732.320312 L 112.058594 710.914062 C 111.738281 710.335938 111.121094 709.992188 110.4375 709.992188 Z M 108.625 708.6875 Z M 108.625 708.6875 " fill-opacity="1" fill-rule="evenodd"/>

</g>
</svg>