<svg xmlns="http://www.w3.org/2000/svg" viewBox="0 0 35.0 39.9375">
<g transform="translate(-194.0,-592.0625)">
<path fill="#000000" d="M 212.246094 631.375 C 210.304688 631.375 208.511719 630.351562 207.53125 628.660156 L 195.207031 607.253906 C 193.714844 604.664062 194.613281 601.328125 197.191406 599.832031 L 207.957031 593.585938 C 210.558594 592.089844 213.863281 592.988281 215.355469 595.574219 L 227.679688 616.984375 C 229.171875 619.59375 228.296875 622.90625 225.699219 624.40625 L 214.929688 630.648438 C 214.097656 631.140625 213.183594 631.375 212.246094 631.375 Z M 210.667969 596.429688 C 210.347656 596.429688 210.027344 596.515625 209.726562 596.6875 L 198.984375 602.910156 C 198.085938 603.425781 197.765625 604.578125 198.300781 605.457031 L 210.625 626.886719 C 211.113281 627.761719 212.265625 628.082031 213.160156 627.570312 L 223.929688 621.324219 C 224.800781 620.8125 225.121094 619.65625 224.609375 618.78125 L 212.285156 597.371094 C 211.945312 596.773438 211.304688 596.429688 210.667969 596.429688 Z M 210.667969 596.429688 " fill-opacity="1" fill-rule="evenodd"/>

</g>
</svg>