<svg xmlns="http://www.w3.org/2000/svg" viewBox="0 0 52.628906 52.0">
<g transform="translate(-124.0,-936.0)">
<path fill="#000000" d="M 138.105469 987.953125 C 138.050781 987.953125 137.96875 987.953125 137.914062 987.953125 C 137.019531 987.84375 136.394531 987.03125 136.476562 986.136719 L 140.144531 955.304688 C 140.226562 954.574219 140.796875 953.976562 141.554688 953.894531 C 142.289062 953.789062 142.996094 954.21875 143.292969 954.898438 L 148.292969 967.226562 C 149.273438 969.609375 151.363281 971.371094 153.890625 971.914062 L 169.292969 975.191406 C 170.191406 975.378906 171.113281 975.21875 171.875 974.703125 C 172.636719 974.1875 173.152344 973.402344 173.316406 972.507812 C 173.640625 970.71875 172.5 969.039062 170.707031 968.632812 L 159.785156 966.304688 C 157.476562 965.816406 155.574219 964.191406 154.730469 961.996094 L 149.191406 947.71875 C 147.34375 942.921875 142.617188 939.726562 137.480469 939.726562 L 126.421875 939.726562 C 125.527344 939.726562 124.792969 938.996094 124.792969 938.101562 C 124.792969 937.207031 125.527344 936.476562 126.421875 936.476562 L 137.453125 936.476562 C 143.945312 936.476562 149.871094 940.539062 152.207031 946.554688 L 157.746094 960.832031 C 158.210938 961.996094 159.214844 962.863281 160.464844 963.132812 L 171.386719 965.464844 C 174.890625 966.222656 177.144531 969.554688 176.519531 973.078125 C 176.195312 974.867188 175.191406 976.382812 173.695312 977.386719 C 172.199219 978.386719 170.378906 978.738281 168.613281 978.359375 L 153.210938 975.082031 C 149.625 974.324219 146.664062 971.832031 145.277344 968.445312 L 142.644531 961.96875 L 139.734375 986.515625 C 139.628906 987.328125 138.921875 987.953125 138.105469 987.953125 Z M 138.105469 987.953125 " fill-opacity="1" fill-rule="nonzero"/>

</g>
</svg>