<svg xmlns="http://www.w3.org/2000/svg" viewBox="0 0 92.19531300000017 92.19140600000003">
<g transform="translate(-1027.644531,-988.027344)">
<path fill="#2d2d2d" d="M 1046.800781 1035.726562 C 1045.328125 1039.210938 1044.308594 1042.585938 1043.796875 1045.738281 C 1043.730469 1046.152344 1043.867188 1046.574219 1044.160156 1046.871094 L 1047.46875 1050.175781 L 1031.152344 1074.90625 C 1030.8125 1075.421875 1030.882812 1076.109375 1031.320312 1076.546875 C 1031.570312 1076.796875 1031.90625 1076.925781 1032.242188 1076.925781 C 1032.488281 1076.925781 1032.738281 1076.855469 1032.957031 1076.710938 L 1057.6875 1060.398438 L 1060.988281 1063.695312 C 1061.234375 1063.941406 1061.566406 1064.078125 1061.910156 1064.078125 C 1061.980469 1064.078125 1062.050781 1064.074219 1062.117188 1064.0625 C 1065.273438 1063.550781 1068.652344 1062.53125 1072.132812 1061.058594 C 1072.917969 1066.957031 1071.90625 1073.03125 1069.226562 1078.324219 C 1068.972656 1078.828125 1069.070312 1079.4375 1069.46875 1079.835938 C 1069.71875 1080.085938 1070.050781 1080.21875 1070.390625 1080.21875 C 1070.589844 1080.21875 1070.792969 1080.171875 1070.980469 1080.078125 C 1074.011719 1078.542969 1076.773438 1076.535156 1079.195312 1074.117188 C 1085.324219 1067.988281 1088.648438 1059.886719 1088.601562 1051.238281 C 1089.910156 1050.234375 1091.207031 1049.179688 1092.488281 1048.078125 C 1102.984375 1039.074219 1111.277344 1028.125 1115.847656 1017.242188 C 1119.933594 1007.507812 1120.890625 998.378906 1118.679688 990.105469 C 1118.558594 989.65625 1118.207031 989.304688 1117.757812 989.183594 C 1109.488281 986.976562 1100.359375 987.929688 1090.621094 992.011719 C 1079.738281 996.582031 1068.785156 1004.878906 1059.78125 1015.371094 C 1058.679688 1016.65625 1057.625 1017.953125 1056.621094 1019.261719 C 1047.980469 1019.214844 1039.878906 1022.539062 1033.746094 1028.671875 C 1031.328125 1031.089844 1029.324219 1033.851562 1027.789062 1036.886719 C 1027.53125 1037.386719 1027.628906 1037.996094 1028.027344 1038.394531 C 1028.277344 1038.644531 1028.613281 1038.777344 1028.949219 1038.777344 C 1029.152344 1038.777344 1029.351562 1038.730469 1029.539062 1038.636719 C 1034.839844 1035.957031 1040.90625 1034.941406 1046.800781 1035.726562 Z M 1036.832031 1071.03125 L 1050.230469 1050.722656 L 1057.890625 1039.109375 L 1074.386719 1033.476562 L 1068.753906 1049.972656 Z M 1077.347656 1072.273438 C 1076.054688 1073.570312 1074.648438 1074.738281 1073.152344 1075.765625 C 1074.933594 1070.726562 1075.445312 1065.253906 1074.609375 1059.941406 C 1078.34375 1058.164062 1082.164062 1055.894531 1085.941406 1053.207031 C 1085.515625 1060.414062 1082.515625 1067.105469 1077.347656 1072.273438 Z M 1116.347656 991.515625 C 1118.03125 998.511719 1117.300781 1006.203125 1114.167969 1014.417969 L 1093.445312 993.691406 C 1101.664062 990.5625 1109.355469 989.832031 1116.347656 991.515625 Z M 1058.246094 1021.429688 C 1058.277344 1021.390625 1058.308594 1021.347656 1058.339844 1021.304688 C 1059.421875 1019.882812 1060.558594 1018.46875 1061.757812 1017.070312 C 1070.28125 1007.136719 1080.574219 999.246094 1090.828125 994.761719 L 1101.957031 1005.894531 L 1113.097656 1017.035156 C 1108.617188 1027.285156 1100.722656 1037.578125 1090.789062 1046.101562 C 1081.277344 1054.261719 1070.960938 1059.796875 1062.355469 1061.375 L 1059.910156 1058.929688 L 1070.5625 1051.902344 C 1070.804688 1051.746094 1070.984375 1051.507812 1071.078125 1051.234375 L 1077.710938 1031.808594 C 1077.871094 1031.335938 1077.75 1030.816406 1077.398438 1030.464844 C 1077.046875 1030.113281 1076.527344 1029.992188 1076.058594 1030.152344 L 1056.628906 1036.785156 C 1056.355469 1036.878906 1056.121094 1037.058594 1055.960938 1037.300781 L 1048.933594 1047.953125 L 1046.484375 1045.503906 C 1047.824219 1038.199219 1052.015625 1029.660156 1058.246094 1021.429688 Z M 1035.589844 1030.515625 C 1040.761719 1025.34375 1047.449219 1022.347656 1054.652344 1021.921875 C 1051.964844 1025.699219 1049.695312 1029.519531 1047.914062 1033.253906 C 1042.609375 1032.414062 1037.140625 1032.929688 1032.101562 1034.710938 C 1033.128906 1033.214844 1034.292969 1031.8125 1035.589844 1030.515625 Z M 1090.96875 1027.808594 C 1093.765625 1027.804688 1096.558594 1026.742188 1098.6875 1024.617188 C 1102.945312 1020.359375 1102.945312 1013.429688 1098.6875 1009.171875 C 1096.625 1007.109375 1093.886719 1005.972656 1090.96875 1005.972656 C 1088.050781 1005.972656 1085.308594 1007.109375 1083.246094 1009.171875 C 1078.988281 1013.429688 1078.988281 1020.359375 1083.25 1024.617188 C 1085.378906 1026.742188 1088.171875 1027.808594 1090.96875 1027.808594 Z M 1085.089844 1011.015625 C 1086.660156 1009.445312 1088.75 1008.582031 1090.96875 1008.582031 C 1093.1875 1008.582031 1095.273438 1009.445312 1096.839844 1011.015625 C 1096.839844 1011.015625 1096.839844 1011.015625 1096.84375 1011.015625 C 1100.082031 1014.257812 1100.082031 1019.53125 1096.84375 1022.773438 C 1093.605469 1026.007812 1088.332031 1026.007812 1085.089844 1022.773438 C 1083.519531 1021.203125 1082.65625 1019.113281 1082.65625 1016.894531 C 1082.65625 1014.675781 1083.519531 1012.585938 1085.089844 1011.015625 Z M 1085.089844 1011.015625 " fill-opacity="1" fill-rule="nonzero"/>

</g>
</svg>