<svg xmlns="http://www.w3.org/2000/svg" viewBox="0 0 130.38671899999997 123.640625">
<g transform="translate(-1009.007812,-310.089844)">
<path fill="#000000" d="M 1075.609375 310.6875 C 1081.304688 316.542969 1084.976562 324.480469 1086.433594 332.832031 C 1089.636719 330.933594 1093.195312 329.617188 1096.832031 328.96875 C 1097.835938 328.796875 1098.792969 329.40625 1099.0625 330.363281 C 1100.542969 334.511719 1101.144531 339 1100.769531 343.511719 C 1105.882812 342.863281 1111.066406 343.417969 1115.882812 345.160156 C 1116.824219 345.503906 1117.351562 346.496094 1117.125 347.445312 C 1116.289062 352.023438 1114.433594 356.457031 1111.65625 360.367188 C 1106.066406 368.238281 1097.191406 373.382812 1087.566406 374.289062 C 1082.992188 374.710938 1078.4375 374.167969 1074.207031 372.746094 C 1069.980469 374.167969 1065.417969 374.710938 1060.851562 374.289062 C 1051.222656 373.382812 1042.34375 368.242188 1036.753906 360.367188 C 1033.984375 356.457031 1032.125 352.023438 1031.289062 347.445312 C 1031.066406 346.5 1031.582031 345.503906 1032.53125 345.160156 C 1037.347656 343.417969 1042.53125 342.863281 1047.636719 343.511719 C 1047.273438 339 1047.859375 334.511719 1049.347656 330.363281 C 1049.617188 329.40625 1050.574219 328.796875 1051.570312 328.96875 C 1055.214844 329.617188 1058.769531 330.933594 1061.96875 332.832031 C 1063.4375 324.488281 1067.105469 316.539062 1072.792969 310.6875 C 1073.5625 309.90625 1074.8125 309.890625 1075.609375 310.6875 Z M 1086.988281 337.113281 C 1087.878906 347.644531 1085.433594 358.484375 1079.679688 367.011719 C 1092.660156 361.535156 1099.84375 346.816406 1095.859375 333.191406 C 1092.707031 333.953125 1089.6875 335.300781 1086.988281 337.113281 Z M 1068.734375 367.011719 C 1062.980469 358.484375 1060.523438 347.644531 1061.425781 337.113281 C 1058.726562 335.300781 1055.707031 333.953125 1052.554688 333.191406 C 1048.601562 346.699219 1055.644531 361.496094 1068.734375 367.011719 Z M 1080.492188 325.828125 C 1078.945312 321.707031 1076.804688 318.027344 1074.207031 314.972656 C 1062.164062 329.140625 1062.164062 353.585938 1074.207031 367.753906 C 1083.644531 356.644531 1085.582031 339.398438 1080.492188 325.828125 Z M 1100.171875 347.566406 C 1098.023438 357.617188 1091.148438 366.199219 1081.78125 370.378906 C 1096.046875 371.75 1109.550781 362.242188 1112.9375 348.320312 C 1108.820312 347.113281 1104.4375 346.855469 1100.171875 347.566406 Z M 1066.632812 370.378906 C 1057.269531 366.199219 1050.394531 357.617188 1048.246094 347.566406 C 1043.980469 346.855469 1039.597656 347.109375 1035.480469 348.320312 C 1038.867188 362.242188 1052.371094 371.75 1066.632812 370.378906 Z M 1100.785156 398.222656 L 1094.859375 403.277344 C 1094.03125 403.984375 1092.796875 403.890625 1092.089844 403.0625 C 1091.386719 402.242188 1091.484375 401 1092.304688 400.296875 L 1098.753906 394.796875 L 1103.429688 390.523438 C 1104.210938 389.808594 1104.433594 388.628906 1104.089844 387.722656 C 1103.515625 386.183594 1101.367188 385.382812 1099.902344 386.683594 L 1086.058594 399.039062 C 1083.964844 400.898438 1082.921875 403.25 1082.921875 406.058594 L 1082.921875 429.792969 L 1098.28125 429.792969 L 1097.421875 418.53125 C 1097.214844 415.746094 1098.492188 413.125 1100.953125 411.734375 L 1116.960938 402.664062 C 1117.421875 402.402344 1117.722656 402.113281 1118.019531 401.664062 L 1134.863281 375.96875 C 1137.019531 372.671875 1132.621094 370.3125 1130.003906 373.085938 L 1128.921875 374.25 L 1111.605469 394.390625 C 1110.679688 395.8125 1109.421875 396.90625 1107.585938 397.183594 Z M 1107.578125 393.066406 L 1108.429688 392.078125 C 1108.914062 391.277344 1109.289062 390.226562 1109.621094 389.261719 L 1116.015625 371.011719 C 1116.089844 370.742188 1116.167969 370.484375 1116.261719 370.238281 C 1118.382812 364.554688 1125.660156 364.238281 1128.429688 369.292969 C 1132.070312 366.71875 1137.066406 368.003906 1138.808594 371.703125 C 1139.675781 373.542969 1139.652344 375.820312 1138.148438 378.128906 L 1121.304688 403.832031 C 1120.675781 404.785156 1119.894531 405.519531 1118.894531 406.082031 L 1102.886719 415.152344 C 1101.738281 415.800781 1101.242188 416.941406 1101.339844 418.246094 L 1102.351562 431.523438 C 1102.476562 432.757812 1101.5625 433.738281 1100.402344 433.738281 L 1080.953125 433.738281 C 1079.863281 433.738281 1078.988281 432.859375 1078.988281 431.773438 L 1078.988281 406.070312 C 1078.988281 402.167969 1080.523438 398.738281 1083.445312 396.128906 L 1097.289062 383.78125 C 1101.550781 379.976562 1108.335938 383.144531 1108.148438 388.851562 C 1108.09375 390.699219 1107.386719 392.210938 1106.023438 393.460938 C 1106.582031 393.367188 1107.167969 393.351562 1107.578125 393.066406 Z M 1115.792969 383.507812 L 1125.40625 372.320312 C 1124.664062 368.820312 1120.578125 368.746094 1119.796875 372.042969 C 1119.78125 372.117188 1119.757812 372.179688 1119.742188 372.242188 Z M 1049.839844 394.953125 L 1056.105469 400.300781 C 1056.9375 401 1057.03125 402.246094 1056.324219 403.0625 C 1055.625 403.894531 1054.378906 403.988281 1053.558594 403.28125 L 1047.632812 398.226562 L 1040.832031 397.191406 C 1038.984375 396.910156 1037.734375 395.820312 1036.804688 394.394531 L 1019.496094 374.257812 L 1018.40625 373.09375 C 1015.792969 370.316406 1011.402344 372.679688 1013.558594 375.972656 L 1030.402344 401.667969 C 1030.695312 402.125 1031 402.410156 1031.460938 402.671875 L 1047.46875 411.738281 C 1049.929688 413.132812 1051.203125 415.75 1050.988281 418.535156 L 1050.136719 429.800781 L 1065.5 429.800781 L 1065.5 406.0625 C 1065.5 403.253906 1064.449219 400.90625 1062.351562 399.042969 L 1048.519531 386.691406 C 1046.878906 385.234375 1044.148438 386.347656 1044.1875 388.738281 C 1044.195312 389.429688 1044.480469 390.058594 1044.992188 390.527344 L 1049.664062 394.804688 C 1049.71875 394.847656 1049.785156 394.894531 1049.839844 394.953125 Z M 1023.007812 372.320312 L 1032.613281 383.507812 L 1028.671875 372.242188 L 1028.480469 371.597656 C 1027.40625 368.714844 1023.699219 369.03125 1023.007812 372.320312 Z M 1039.976562 392.078125 C 1041.109375 393.382812 1040.726562 393.199219 1042.382812 393.453125 C 1038.066406 389.503906 1040.71875 382.363281 1046.515625 382.125 C 1048.148438 382.050781 1049.804688 382.59375 1051.125 383.773438 L 1064.960938 396.121094 C 1067.882812 398.730469 1069.425781 402.164062 1069.425781 406.0625 L 1069.425781 431.761719 C 1069.425781 432.851562 1068.542969 433.730469 1067.460938 433.730469 L 1048.015625 433.730469 C 1046.851562 433.730469 1045.9375 432.75 1046.058594 431.515625 L 1047.070312 418.238281 C 1047.171875 416.933594 1046.671875 415.796875 1045.53125 415.140625 L 1029.523438 406.074219 C 1028.519531 405.511719 1027.738281 404.777344 1027.109375 403.824219 L 1010.269531 378.121094 C 1007.347656 373.664062 1009.972656 368.957031 1014.371094 368.074219 C 1016.171875 367.710938 1018.195312 368.019531 1019.984375 369.285156 C 1022.753906 364.230469 1030.03125 364.546875 1032.152344 370.230469 C 1032.246094 370.480469 1032.324219 370.734375 1032.390625 371.003906 L 1038.785156 389.257812 C 1039.128906 390.222656 1039.5 391.273438 1039.976562 392.078125 Z M 1039.976562 392.078125 " fill-opacity="1" fill-rule="nonzero"/>

</g>
</svg>