<svg xmlns="http://www.w3.org/2000/svg" viewBox="0 0 129.63671899999997 129.63281199999994">
<g transform="translate(-815.03125,-310.089844)">
<path fill="#000000" d="M 888.203125 368.484375 C 888.203125 367.40625 889.074219 366.53125 890.148438 366.53125 C 891.234375 366.53125 892.105469 367.410156 892.105469 368.484375 L 892.105469 376.460938 C 892.105469 377.535156 891.234375 378.40625 890.148438 378.40625 C 889.070312 378.40625 888.203125 377.535156 888.203125 376.460938 Z M 903.503906 365.625 L 906.832031 365.625 C 907.910156 365.625 908.789062 366.496094 908.789062 367.582031 C 908.789062 368.65625 907.90625 369.535156 906.832031 369.535156 L 903.503906 369.535156 L 903.503906 374.203125 L 906.832031 374.203125 C 907.910156 374.203125 908.789062 375.082031 908.789062 376.15625 C 908.789062 377.242188 907.90625 378.113281 906.832031 378.113281 L 903.503906 378.113281 L 903.503906 382.785156 L 906.832031 382.785156 C 907.910156 382.785156 908.789062 383.664062 908.789062 384.738281 C 908.789062 385.816406 907.90625 386.695312 906.832031 386.695312 L 903.503906 386.695312 L 903.503906 390.488281 L 903.496094 390.488281 C 903.496094 391.132812 903.179688 391.765625 902.59375 392.128906 C 896.84375 395.796875 895.902344 403.890625 900.773438 408.753906 C 904.953125 412.9375 911.734375 412.9375 915.914062 408.753906 C 919.273438 405.402344 920.03125 400.207031 917.746094 396.035156 C 916.898438 394.492188 915.6875 393.1875 914.234375 392.226562 C 913.609375 391.902344 913.183594 391.246094 913.183594 390.492188 L 913.183594 365.015625 C 913.183594 360.777344 908.003906 358.527344 904.929688 361.601562 C 904.050781 362.480469 903.503906 363.691406 903.503906 365.015625 Z M 917.09375 389.480469 C 924.210938 394.808594 924.996094 405.207031 918.6875 411.519531 C 912.976562 417.238281 903.71875 417.238281 898.007812 411.519531 C 891.6875 405.207031 892.472656 394.808594 899.59375 389.480469 L 899.59375 365.015625 C 899.59375 360.203125 903.53125 356.273438 908.34375 356.273438 C 913.15625 356.273438 917.09375 360.203125 917.09375 365.015625 Z M 831.363281 363.304688 C 834.414062 361.722656 837.914062 361.40625 841.222656 362.425781 C 846.277344 354.695312 857.507812 354.539062 862.796875 362.0625 C 866.402344 361.378906 870.074219 362.234375 872.96875 364.382812 C 872.570312 353.195312 863.375 344.285156 852.128906 344.285156 C 841.269531 344.28125 832.292969 352.597656 831.363281 363.304688 Z M 872.546875 369.394531 C 870.21875 366.300781 866.1875 365 862.480469 366.164062 C 861.597656 366.441406 860.628906 366.070312 860.175781 365.230469 C 856.625 358.644531 847.066406 358.886719 843.859375 365.683594 C 843.402344 366.660156 842.238281 367.078125 841.261719 366.617188 C 838.03125 365.089844 834.183594 365.59375 831.46875 367.90625 C 832.832031 378.171875 841.621094 385.980469 852.128906 385.980469 C 862.070312 385.976562 870.550781 378.980469 872.546875 369.394531 Z M 852.128906 340.371094 C 857.476562 340.371094 862.425781 342.066406 866.472656 344.945312 L 866.472656 327.316406 L 847.539062 327.316406 L 847.539062 340.796875 C 849.023438 340.523438 850.5625 340.371094 852.128906 340.371094 Z M 870.386719 348.398438 C 874.425781 352.8125 876.894531 358.679688 876.894531 365.128906 C 876.894531 371.582031 874.425781 377.449219 870.386719 381.863281 L 870.386719 423.386719 L 879.796875 423.386719 L 879.796875 339.578125 C 879.796875 338.5 880.667969 337.621094 881.75 337.621094 L 889.324219 337.621094 L 889.324219 327.316406 L 870.386719 327.316406 Z M 866.472656 385.3125 C 861.078125 389.15625 854.269531 390.730469 847.535156 389.460938 L 847.535156 423.382812 L 866.472656 423.382812 Z M 843.625 388.386719 C 834.011719 384.867188 827.371094 375.675781 827.371094 365.128906 C 827.371094 354.585938 834.007812 345.390625 843.625 341.867188 L 843.625 327.316406 L 824.691406 327.316406 L 824.691406 423.382812 L 843.625 423.382812 Z M 816.988281 423.382812 L 820.773438 423.382812 L 820.773438 327.316406 L 816.988281 327.316406 C 815.910156 327.316406 815.035156 326.4375 815.035156 325.363281 L 815.035156 312.066406 C 815.035156 310.980469 815.914062 310.109375 816.988281 310.109375 L 942.714844 310.109375 C 943.796875 310.109375 944.667969 310.980469 944.667969 312.066406 L 944.667969 325.363281 C 944.667969 326.441406 943.796875 327.316406 942.714844 327.316406 L 938.929688 327.316406 L 938.929688 423.382812 L 942.714844 423.382812 C 943.796875 423.382812 944.667969 424.261719 944.667969 425.339844 L 944.667969 437.75 C 944.667969 438.828125 943.796875 439.703125 942.714844 439.703125 L 816.988281 439.703125 C 815.910156 439.703125 815.035156 438.824219 815.035156 437.75 L 815.035156 425.339844 C 815.035156 424.261719 815.914062 423.382812 816.988281 423.382812 Z M 883.703125 423.382812 L 925.441406 423.382812 L 925.441406 341.53125 L 883.703125 341.53125 Z M 929.351562 423.382812 L 935.023438 423.382812 L 935.023438 327.316406 L 916.082031 327.316406 L 916.082031 337.621094 L 927.402344 337.621094 C 928.480469 337.621094 929.355469 338.5 929.355469 339.578125 L 929.355469 423.382812 Z M 940.757812 427.296875 L 818.945312 427.296875 L 818.945312 435.796875 L 940.757812 435.796875 Z M 893.230469 337.621094 L 912.167969 337.621094 L 912.167969 327.316406 L 893.230469 327.316406 Z M 940.757812 314.011719 L 818.945312 314.011719 L 818.945312 323.40625 C 859.546875 323.40625 900.152344 323.40625 940.757812 323.40625 Z M 940.757812 314.011719 " fill-opacity="1" fill-rule="nonzero"/>

</g>
</svg>