<svg xmlns="http://www.w3.org/2000/svg" viewBox="0 0 128.88281300000006 113.0">
<g transform="translate(-815.828125,-1303.0)">
<path fill="#231f20" d="M 815.855469 1359.496094 L 815.855469 1397.421875 C 815.855469 1398.023438 815.882812 1398.625 815.945312 1399.222656 C 816.003906 1399.824219 816.089844 1400.417969 816.210938 1401.007812 C 816.328125 1401.597656 816.472656 1402.183594 816.648438 1402.757812 C 816.824219 1403.335938 817.027344 1403.902344 817.257812 1404.457031 C 817.488281 1405.015625 817.746094 1405.558594 818.03125 1406.089844 C 818.316406 1406.621094 818.625 1407.136719 818.960938 1407.636719 C 819.296875 1408.136719 819.65625 1408.621094 820.039062 1409.085938 C 820.421875 1409.550781 820.828125 1409.996094 821.253906 1410.421875 C 821.679688 1410.851562 822.128906 1411.253906 822.59375 1411.636719 C 823.0625 1412.019531 823.546875 1412.375 824.046875 1412.710938 C 824.550781 1413.046875 825.066406 1413.355469 825.597656 1413.636719 C 826.132812 1413.921875 826.675781 1414.179688 827.234375 1414.410156 C 827.792969 1414.640625 828.359375 1414.84375 828.9375 1415.019531 C 829.515625 1415.191406 830.097656 1415.339844 830.691406 1415.457031 C 831.285156 1415.574219 831.878906 1415.664062 832.480469 1415.722656 C 833.082031 1415.78125 833.683594 1415.808594 834.289062 1415.808594 L 891.171875 1415.808594 C 892.214844 1415.808594 893.253906 1415.71875 894.28125 1415.542969 C 895.308594 1415.367188 896.316406 1415.105469 897.296875 1414.757812 C 898.28125 1414.414062 899.230469 1413.984375 900.140625 1413.476562 C 901.050781 1412.972656 901.914062 1412.390625 902.726562 1411.738281 C 903.539062 1411.082031 904.289062 1410.367188 904.980469 1409.585938 C 905.667969 1408.804688 906.289062 1407.972656 906.835938 1407.085938 C 907.386719 1406.203125 907.855469 1405.277344 908.246094 1404.3125 C 908.636719 1403.347656 908.945312 1402.355469 909.167969 1401.339844 L 944.785156 1414.648438 L 944.785156 1342.265625 L 909.167969 1355.578125 C 908.960938 1354.648438 908.6875 1353.742188 908.34375 1352.859375 C 908 1351.972656 907.589844 1351.117188 907.113281 1350.296875 C 906.632812 1349.472656 906.097656 1348.691406 905.5 1347.953125 C 904.898438 1347.214844 904.246094 1346.527344 903.542969 1345.886719 C 902.835938 1345.25 902.085938 1344.667969 901.292969 1344.148438 C 900.496094 1343.625 899.664062 1343.167969 898.796875 1342.773438 C 897.929688 1342.378906 897.039062 1342.054688 896.121094 1341.800781 C 895.207031 1341.542969 894.273438 1341.359375 893.328125 1341.25 C 893.925781 1340.820312 894.5 1340.363281 895.050781 1339.875 C 895.597656 1339.386719 896.121094 1338.871094 896.617188 1338.328125 C 897.109375 1337.785156 897.578125 1337.21875 898.011719 1336.628906 C 898.449219 1336.035156 898.851562 1335.425781 899.222656 1334.789062 C 899.59375 1334.15625 899.933594 1333.507812 900.234375 1332.835938 C 900.539062 1332.167969 900.804688 1331.484375 901.035156 1330.789062 C 901.265625 1330.09375 901.460938 1329.386719 901.617188 1328.667969 C 901.773438 1327.953125 901.894531 1327.226562 901.976562 1326.5 C 902.054688 1325.769531 902.097656 1325.039062 902.101562 1324.304688 C 902.105469 1323.570312 902.074219 1322.839844 902 1322.109375 C 901.925781 1321.378906 901.816406 1320.652344 901.667969 1319.933594 C 901.519531 1319.214844 901.332031 1318.507812 901.109375 1317.808594 C 900.886719 1317.109375 900.625 1316.421875 900.332031 1315.75 C 900.035156 1315.078125 899.707031 1314.421875 899.34375 1313.785156 C 898.976562 1313.148438 898.582031 1312.53125 898.152344 1311.933594 C 897.722656 1311.339844 897.265625 1310.765625 896.773438 1310.21875 C 896.285156 1309.671875 895.769531 1309.148438 895.226562 1308.65625 C 894.683594 1308.160156 894.113281 1307.695312 893.519531 1307.261719 C 892.929688 1306.828125 892.3125 1306.425781 891.679688 1306.054688 C 891.042969 1305.683594 890.390625 1305.347656 889.722656 1305.042969 C 889.050781 1304.742188 888.367188 1304.476562 887.667969 1304.246094 C 886.96875 1304.015625 886.261719 1303.820312 885.542969 1303.664062 C 884.824219 1303.507812 884.101562 1303.386719 883.367188 1303.308594 C 882.636719 1303.226562 881.902344 1303.183594 881.167969 1303.179688 C 880.433594 1303.175781 879.699219 1303.210938 878.96875 1303.28125 C 878.234375 1303.355469 877.507812 1303.464844 876.789062 1303.613281 C 876.066406 1303.761719 875.355469 1303.949219 874.65625 1304.171875 C 873.957031 1304.394531 873.269531 1304.652344 872.59375 1304.945312 C 871.921875 1305.242188 871.265625 1305.570312 870.625 1305.933594 C 869.984375 1306.296875 869.367188 1306.691406 868.769531 1307.121094 C 868.171875 1307.546875 867.597656 1308.007812 867.050781 1308.492188 C 866.5 1308.980469 865.976562 1309.496094 865.480469 1310.039062 C 864.988281 1310.582031 864.519531 1311.148438 864.085938 1311.742188 C 863.648438 1312.332031 863.246094 1312.945312 862.875 1313.578125 C 862.503906 1314.210938 862.164062 1314.863281 861.863281 1315.53125 C 861.558594 1316.199219 861.292969 1316.882812 861.0625 1317.578125 C 860.828125 1318.273438 860.636719 1318.980469 860.476562 1319.699219 C 860.320312 1320.414062 860.203125 1321.140625 860.121094 1321.867188 C 860.039062 1322.597656 859.996094 1323.328125 859.992188 1324.0625 C 859.988281 1324.796875 860.023438 1325.53125 860.09375 1326.257812 C 860.167969 1326.988281 860.277344 1327.714844 860.425781 1328.433594 C 860.574219 1329.152344 860.761719 1329.859375 860.984375 1330.558594 C 861.207031 1331.257812 861.46875 1331.945312 861.761719 1332.617188 C 862.058594 1333.289062 862.386719 1333.945312 862.753906 1334.582031 C 863.117188 1335.21875 863.511719 1335.835938 863.941406 1336.433594 C 864.371094 1337.027344 864.828125 1337.601562 865.316406 1338.148438 C 865.808594 1338.699219 866.324219 1339.21875 866.867188 1339.714844 C 867.410156 1340.207031 867.980469 1340.671875 868.570312 1341.105469 L 853.472656 1341.105469 C 853.855469 1340.757812 854.222656 1340.386719 854.570312 1340 C 854.917969 1339.609375 855.246094 1339.207031 855.550781 1338.785156 C 855.859375 1338.367188 856.144531 1337.929688 856.40625 1337.480469 C 856.671875 1337.03125 856.910156 1336.570312 857.128906 1336.097656 C 857.34375 1335.625 857.539062 1335.140625 857.707031 1334.648438 C 857.875 1334.15625 858.019531 1333.65625 858.136719 1333.152344 C 858.253906 1332.644531 858.347656 1332.132812 858.414062 1331.617188 C 858.480469 1331.101562 858.523438 1330.582031 858.535156 1330.0625 C 858.550781 1329.542969 858.539062 1329.023438 858.503906 1328.503906 C 858.464844 1327.984375 858.402344 1327.46875 858.3125 1326.957031 C 858.222656 1326.445312 858.105469 1325.9375 857.96875 1325.4375 C 857.828125 1324.933594 857.660156 1324.441406 857.472656 1323.957031 C 857.28125 1323.472656 857.066406 1323 856.828125 1322.535156 C 856.59375 1322.074219 856.332031 1321.621094 856.050781 1321.1875 C 855.765625 1320.75 855.460938 1320.328125 855.136719 1319.921875 C 854.8125 1319.511719 854.46875 1319.125 854.101562 1318.75 C 853.738281 1318.378906 853.355469 1318.027344 852.957031 1317.691406 C 852.554688 1317.359375 852.140625 1317.046875 851.710938 1316.753906 C 851.277344 1316.460938 850.832031 1316.191406 850.375 1315.941406 C 849.914062 1315.695312 849.445312 1315.472656 848.964844 1315.269531 C 848.484375 1315.070312 847.992188 1314.894531 847.496094 1314.742188 C 846.996094 1314.589844 846.492188 1314.464844 845.980469 1314.363281 C 845.46875 1314.261719 844.953125 1314.183594 844.433594 1314.136719 C 843.914062 1314.085938 843.394531 1314.0625 842.871094 1314.066406 C 842.351562 1314.066406 841.832031 1314.097656 841.3125 1314.148438 C 840.792969 1314.203125 840.277344 1314.285156 839.769531 1314.390625 C 839.257812 1314.496094 838.753906 1314.628906 838.253906 1314.785156 C 837.757812 1314.941406 837.269531 1315.121094 836.789062 1315.328125 C 836.3125 1315.53125 835.84375 1315.761719 835.386719 1316.015625 C 834.929688 1316.265625 834.488281 1316.539062 834.058594 1316.835938 C 833.632812 1317.132812 833.21875 1317.449219 832.824219 1317.789062 C 832.425781 1318.125 832.046875 1318.480469 831.6875 1318.859375 C 831.324219 1319.234375 830.984375 1319.625 830.664062 1320.035156 C 830.339844 1320.445312 830.042969 1320.871094 829.761719 1321.308594 C 829.484375 1321.75 829.226562 1322.203125 828.996094 1322.667969 C 828.761719 1323.132812 828.550781 1323.609375 828.367188 1324.09375 C 828.179688 1324.582031 828.019531 1325.078125 827.886719 1325.578125 C 827.75 1326.082031 827.640625 1326.589844 827.554688 1327.101562 C 827.46875 1327.617188 827.410156 1328.132812 827.378906 1328.652344 C 827.347656 1329.171875 827.339844 1329.691406 827.359375 1330.210938 C 827.378906 1330.730469 827.425781 1331.246094 827.496094 1331.761719 C 827.570312 1332.277344 827.664062 1332.789062 827.789062 1333.292969 C 827.910156 1333.800781 828.058594 1334.296875 828.234375 1334.789062 C 828.40625 1335.28125 828.601562 1335.761719 828.824219 1336.230469 C 829.046875 1336.703125 829.289062 1337.160156 829.558594 1337.609375 C 829.824219 1338.054688 830.117188 1338.488281 830.425781 1338.90625 C 830.738281 1339.324219 831.070312 1339.722656 831.421875 1340.109375 C 831.769531 1340.492188 832.140625 1340.859375 832.53125 1341.207031 C 831.398438 1341.3125 830.289062 1341.523438 829.195312 1341.835938 C 828.105469 1342.152344 827.050781 1342.5625 826.035156 1343.066406 C 825.019531 1343.574219 824.058594 1344.171875 823.15625 1344.855469 C 822.25 1345.539062 821.414062 1346.300781 820.652344 1347.136719 C 819.886719 1347.976562 819.207031 1348.878906 818.609375 1349.839844 C 818.011719 1350.804688 817.507812 1351.816406 817.097656 1352.871094 C 816.6875 1353.929688 816.378906 1355.011719 816.171875 1356.125 C 815.960938 1357.238281 815.855469 1358.363281 815.855469 1359.496094 Z M 939.113281 1406.488281 L 909.605469 1395.453125 L 909.605469 1361.503906 L 939.113281 1350.472656 Z M 865.734375 1324.203125 C 865.738281 1323.195312 865.835938 1322.195312 866.035156 1321.207031 C 866.234375 1320.21875 866.527344 1319.257812 866.914062 1318.328125 C 867.300781 1317.394531 867.777344 1316.511719 868.339844 1315.675781 C 868.902344 1314.835938 869.542969 1314.0625 870.257812 1313.351562 C 870.972656 1312.636719 871.75 1312.003906 872.59375 1311.441406 C 873.433594 1310.882812 874.320312 1310.414062 875.257812 1310.027344 C 876.191406 1309.644531 877.152344 1309.355469 878.144531 1309.160156 C 879.136719 1308.964844 880.136719 1308.867188 881.148438 1308.871094 C 882.160156 1308.871094 883.160156 1308.972656 884.152344 1309.171875 C 885.140625 1309.367188 886.105469 1309.664062 887.039062 1310.050781 C 887.96875 1310.4375 888.855469 1310.914062 889.695312 1311.476562 C 890.535156 1312.035156 891.3125 1312.675781 892.023438 1313.390625 C 892.738281 1314.105469 893.371094 1314.882812 893.933594 1315.722656 C 894.492188 1316.5625 894.964844 1317.449219 895.347656 1318.378906 C 895.734375 1319.3125 896.023438 1320.273438 896.21875 1321.261719 C 896.410156 1322.253906 896.507812 1323.25 896.503906 1324.261719 C 896.5 1325.269531 896.398438 1326.265625 896.199219 1327.253906 C 896 1328.242188 895.707031 1329.203125 895.316406 1330.132812 C 894.925781 1331.0625 894.449219 1331.945312 893.886719 1332.785156 C 893.320312 1333.621094 892.679688 1334.394531 891.964844 1335.105469 C 891.246094 1335.816406 890.46875 1336.449219 889.625 1337.007812 C 888.78125 1337.566406 887.894531 1338.035156 886.957031 1338.417969 C 886.023438 1338.800781 885.058594 1339.085938 884.066406 1339.28125 C 883.074219 1339.472656 882.074219 1339.570312 881.0625 1339.566406 C 880.054688 1339.5625 879.058594 1339.457031 878.070312 1339.257812 C 877.082031 1339.058594 876.121094 1338.765625 875.191406 1338.375 C 874.261719 1337.988281 873.378906 1337.511719 872.542969 1336.953125 C 871.707031 1336.390625 870.933594 1335.753906 870.222656 1335.039062 C 869.511719 1334.328125 868.875 1333.554688 868.316406 1332.714844 C 867.757812 1331.878906 867.285156 1330.996094 866.902344 1330.066406 C 866.515625 1329.136719 866.226562 1328.179688 866.03125 1327.191406 C 865.835938 1326.203125 865.738281 1325.207031 865.734375 1324.203125 Z M 842.964844 1319.761719 C 843.617188 1319.761719 844.261719 1319.824219 844.902344 1319.953125 C 845.539062 1320.078125 846.160156 1320.265625 846.761719 1320.515625 C 847.367188 1320.765625 847.9375 1321.070312 848.480469 1321.429688 C 849.019531 1321.792969 849.523438 1322.203125 849.984375 1322.660156 C 850.445312 1323.121094 850.855469 1323.621094 851.21875 1324.164062 C 851.578125 1324.703125 851.886719 1325.273438 852.132812 1325.875 C 852.382812 1326.476562 852.574219 1327.09375 852.699219 1327.730469 C 852.828125 1328.371094 852.890625 1329.011719 852.890625 1329.664062 C 852.890625 1330.3125 852.828125 1330.957031 852.699219 1331.59375 C 852.574219 1332.234375 852.382812 1332.851562 852.132812 1333.453125 C 851.886719 1334.054688 851.578125 1334.625 851.21875 1335.164062 C 850.855469 1335.707031 850.445312 1336.207031 849.984375 1336.664062 C 849.523438 1337.125 849.019531 1337.535156 848.480469 1337.894531 C 847.9375 1338.257812 847.367188 1338.5625 846.761719 1338.8125 C 846.160156 1339.058594 845.539062 1339.25 844.902344 1339.375 C 844.261719 1339.5 843.617188 1339.566406 842.964844 1339.566406 C 842.3125 1339.566406 841.667969 1339.5 841.027344 1339.375 C 840.390625 1339.25 839.769531 1339.058594 839.167969 1338.8125 C 838.566406 1338.5625 837.992188 1338.257812 837.449219 1337.894531 C 836.910156 1337.535156 836.40625 1337.125 835.945312 1336.664062 C 835.484375 1336.207031 835.074219 1335.707031 834.710938 1335.164062 C 834.351562 1334.625 834.042969 1334.054688 833.796875 1333.453125 C 833.546875 1332.851562 833.359375 1332.234375 833.230469 1331.59375 C 833.101562 1330.957031 833.039062 1330.3125 833.039062 1329.664062 C 833.039062 1329.011719 833.101562 1328.371094 833.230469 1327.730469 C 833.359375 1327.09375 833.546875 1326.476562 833.796875 1325.875 C 834.042969 1325.273438 834.351562 1324.703125 834.710938 1324.164062 C 835.074219 1323.621094 835.484375 1323.121094 835.945312 1322.660156 C 836.40625 1322.203125 836.910156 1321.792969 837.449219 1321.429688 C 837.992188 1321.070312 838.566406 1320.765625 839.167969 1320.515625 C 839.769531 1320.265625 840.390625 1320.078125 841.027344 1319.953125 C 841.667969 1319.824219 842.3125 1319.761719 842.964844 1319.761719 Z M 821.527344 1359.496094 C 821.527344 1358.660156 821.609375 1357.832031 821.773438 1357.011719 C 821.933594 1356.191406 822.175781 1355.398438 822.496094 1354.625 C 822.820312 1353.851562 823.210938 1353.117188 823.675781 1352.421875 C 824.144531 1351.726562 824.671875 1351.085938 825.265625 1350.496094 C 825.855469 1349.902344 826.5 1349.375 827.199219 1348.910156 C 827.894531 1348.445312 828.628906 1348.054688 829.402344 1347.734375 C 830.179688 1347.414062 830.976562 1347.171875 831.796875 1347.011719 C 832.621094 1346.847656 833.449219 1346.765625 834.289062 1346.765625 L 891.171875 1346.765625 C 892.011719 1346.765625 892.839844 1346.847656 893.664062 1347.011719 C 894.484375 1347.171875 895.28125 1347.414062 896.058594 1347.734375 C 896.832031 1348.054688 897.566406 1348.445312 898.261719 1348.910156 C 898.960938 1349.375 899.605469 1349.902344 900.195312 1350.496094 C 900.789062 1351.085938 901.316406 1351.726562 901.785156 1352.421875 C 902.25 1353.117188 902.640625 1353.851562 902.960938 1354.625 C 903.285156 1355.398438 903.527344 1356.191406 903.6875 1357.011719 C 903.851562 1357.832031 903.933594 1358.660156 903.933594 1359.496094 L 903.933594 1397.421875 C 903.933594 1398.257812 903.851562 1399.085938 903.6875 1399.90625 C 903.527344 1400.722656 903.285156 1401.519531 902.960938 1402.292969 C 902.640625 1403.066406 902.25 1403.796875 901.785156 1404.492188 C 901.316406 1405.1875 900.789062 1405.832031 900.195312 1406.421875 C 899.605469 1407.015625 898.960938 1407.542969 898.261719 1408.007812 C 897.566406 1408.46875 896.832031 1408.863281 896.058594 1409.183594 C 895.28125 1409.503906 894.484375 1409.742188 893.664062 1409.90625 C 892.839844 1410.070312 892.011719 1410.152344 891.171875 1410.152344 L 834.289062 1410.152344 C 833.449219 1410.152344 832.621094 1410.070312 831.796875 1409.90625 C 830.976562 1409.742188 830.179688 1409.503906 829.402344 1409.183594 C 828.628906 1408.863281 827.894531 1408.46875 827.199219 1408.007812 C 826.5 1407.542969 825.855469 1407.015625 825.265625 1406.421875 C 824.671875 1405.832031 824.144531 1405.1875 823.675781 1404.492188 C 823.210938 1403.796875 822.820312 1403.066406 822.496094 1402.292969 C 822.175781 1401.519531 821.933594 1400.722656 821.773438 1399.90625 C 821.609375 1399.085938 821.527344 1398.257812 821.527344 1397.421875 Z M 821.527344 1359.496094 " fill-opacity="1" fill-rule="nonzero"/>

</g>
</svg>