<svg xmlns="http://www.w3.org/2000/svg" viewBox="0 0 104.93359400000008 84.69531199999983">
<g transform="translate(-1039.703125,-1174.246094)">
<path fill="#2d2d2d" d="M 1093.976562 1214.296875 C 1093.976562 1215.769531 1095.179688 1216.964844 1096.65625 1216.964844 C 1099.765625 1216.964844 1102.292969 1219.496094 1102.292969 1222.601562 C 1102.292969 1225.191406 1100.53125 1227.378906 1098.140625 1228.03125 L 1098.140625 1231.027344 C 1098.140625 1231.84375 1097.472656 1232.507812 1096.65625 1232.507812 C 1095.835938 1232.507812 1095.171875 1231.84375 1095.171875 1231.027344 L 1095.171875 1228.03125 C 1092.777344 1227.378906 1091.007812 1225.191406 1091.007812 1222.601562 C 1091.007812 1221.78125 1091.675781 1221.121094 1092.492188 1221.121094 C 1093.3125 1221.121094 1093.976562 1221.78125 1093.976562 1222.601562 C 1093.976562 1224.070312 1095.179688 1225.265625 1096.65625 1225.265625 C 1098.128906 1225.265625 1099.324219 1224.070312 1099.324219 1222.601562 C 1099.324219 1221.128906 1098.128906 1219.929688 1096.65625 1219.929688 C 1093.542969 1219.929688 1091.007812 1217.402344 1091.007812 1214.296875 C 1091.007812 1211.699219 1092.777344 1209.511719 1095.171875 1208.859375 L 1095.171875 1205.867188 C 1095.171875 1205.050781 1095.835938 1204.386719 1096.65625 1204.386719 C 1097.472656 1204.386719 1098.140625 1205.050781 1098.140625 1205.867188 L 1098.140625 1208.859375 C 1100.53125 1209.511719 1102.292969 1211.703125 1102.292969 1214.296875 C 1102.292969 1215.113281 1101.628906 1215.777344 1100.808594 1215.777344 C 1099.988281 1215.777344 1099.324219 1215.113281 1099.324219 1214.296875 C 1099.324219 1212.820312 1098.128906 1211.625 1096.65625 1211.625 C 1095.179688 1211.625 1093.976562 1212.820312 1093.976562 1214.296875 Z M 1144.636719 1183.625 L 1144.636719 1207.894531 C 1144.636719 1209.722656 1143.148438 1211.210938 1141.316406 1211.210938 L 1133.945312 1211.210938 C 1132.117188 1211.210938 1130.625 1209.722656 1130.625 1207.894531 L 1130.625 1207.460938 C 1127.542969 1207.046875 1125.078125 1206.828125 1123.117188 1206.785156 C 1120.445312 1206.726562 1117.742188 1208.136719 1115.128906 1209.496094 C 1114.789062 1209.671875 1114.441406 1209.851562 1114.097656 1210.027344 C 1115.363281 1212.640625 1116.03125 1215.519531 1116.03125 1218.449219 C 1116.03125 1229.109375 1107.339844 1237.785156 1096.65625 1237.785156 C 1092.296875 1237.785156 1088.109375 1236.328125 1084.703125 1233.664062 C 1082.527344 1235.714844 1079.078125 1237.421875 1075.996094 1238.949219 C 1074.558594 1239.660156 1073.199219 1240.332031 1072.320312 1240.882812 C 1073.449219 1241.859375 1077.570312 1243.457031 1082.148438 1244.378906 C 1086.515625 1245.253906 1096.800781 1240.746094 1105.066406 1237.121094 C 1109.628906 1235.121094 1113.941406 1233.230469 1117.007812 1232.324219 C 1120.535156 1231.277344 1122.78125 1232.707031 1123.707031 1234.394531 C 1124.949219 1236.65625 1124.226562 1239.707031 1121.984375 1241.648438 C 1118.089844 1245.023438 1110.210938 1249.628906 1102.375 1253.113281 C 1097.300781 1255.371094 1088.1875 1258.949219 1081.417969 1258.949219 C 1080.839844 1258.949219 1080.28125 1258.921875 1079.738281 1258.867188 C 1071.121094 1257.988281 1059.027344 1254.976562 1053.628906 1253.339844 C 1053.277344 1254.796875 1051.960938 1255.882812 1050.394531 1255.882812 L 1043.027344 1255.882812 C 1041.195312 1255.882812 1039.703125 1254.394531 1039.703125 1252.566406 L 1039.703125 1228.296875 C 1039.703125 1226.472656 1041.195312 1224.984375 1043.027344 1224.984375 L 1050.394531 1224.984375 C 1052.230469 1224.984375 1053.722656 1226.472656 1053.722656 1228.296875 L 1053.722656 1228.789062 L 1059.707031 1228.789062 C 1061.667969 1228.789062 1064.664062 1227.71875 1067.832031 1226.582031 C 1071.285156 1225.351562 1074.824219 1224.085938 1078.027344 1223.765625 C 1077.535156 1222.042969 1077.28125 1220.261719 1077.28125 1218.449219 C 1077.28125 1210.792969 1081.761719 1204.160156 1088.246094 1201.03125 C 1086.90625 1199.808594 1085.609375 1197.484375 1085.867188 1193.097656 C 1082.496094 1194.558594 1076.214844 1197.183594 1071.21875 1198.726562 C 1066.320312 1200.234375 1062.121094 1199.636719 1060.761719 1197.246094 C 1060.125 1196.125 1059.625 1193.734375 1063.433594 1190.320312 C 1070.160156 1184.289062 1087.953125 1176.335938 1098.695312 1174.5625 C 1101.382812 1174.117188 1103.910156 1174.199219 1106.328125 1174.605469 C 1106.449219 1174.609375 1106.5625 1174.632812 1106.675781 1174.664062 C 1110.757812 1175.40625 1114.527344 1177.066406 1118.222656 1178.695312 C 1122.15625 1180.425781 1126.210938 1182.210938 1130.695312 1182.949219 C 1131.011719 1181.445312 1132.347656 1180.3125 1133.945312 1180.3125 L 1141.316406 1180.3125 C 1143.148438 1180.3125 1144.636719 1181.796875 1144.636719 1183.625 Z M 1050.753906 1228.296875 C 1050.753906 1228.109375 1050.589844 1227.945312 1050.394531 1227.945312 L 1043.027344 1227.945312 C 1042.835938 1227.945312 1042.671875 1228.113281 1042.671875 1228.296875 L 1042.671875 1252.566406 C 1042.671875 1252.753906 1042.835938 1252.917969 1043.027344 1252.917969 L 1050.394531 1252.917969 C 1050.589844 1252.917969 1050.753906 1252.757812 1050.753906 1252.566406 Z M 1094.15625 1178.730469 C 1094.246094 1178.664062 1094.335938 1178.601562 1094.421875 1178.535156 C 1083.683594 1181.417969 1070.460938 1188 1065.417969 1192.523438 C 1063.507812 1194.234375 1063.132812 1195.414062 1063.34375 1195.785156 C 1063.714844 1196.4375 1066.222656 1197.164062 1070.34375 1195.894531 C 1076.257812 1194.070312 1084.300781 1190.558594 1086.46875 1189.59375 C 1088.25 1184.929688 1090.832031 1181.273438 1094.15625 1178.730469 Z M 1083.875 1229.382812 C 1083.875 1229.355469 1083.875 1229.332031 1083.875 1229.308594 C 1083.871094 1229.25 1083.863281 1229.191406 1083.855469 1229.136719 C 1083.847656 1229.097656 1083.84375 1229.0625 1083.835938 1229.023438 C 1083.824219 1228.980469 1083.8125 1228.9375 1083.796875 1228.894531 C 1083.78125 1228.84375 1083.769531 1228.792969 1083.746094 1228.742188 C 1083.742188 1228.726562 1083.734375 1228.714844 1083.730469 1228.699219 C 1083.710938 1228.65625 1083.6875 1228.609375 1083.667969 1228.566406 C 1083.65625 1228.550781 1083.648438 1228.53125 1083.640625 1228.515625 C 1083.617188 1228.476562 1083.59375 1228.433594 1083.570312 1228.394531 C 1083.554688 1228.371094 1083.539062 1228.351562 1083.523438 1228.328125 C 1083.503906 1228.296875 1083.480469 1228.265625 1083.457031 1228.234375 C 1083.433594 1228.199219 1083.410156 1228.167969 1083.382812 1228.136719 C 1083.367188 1228.117188 1083.351562 1228.097656 1083.335938 1228.078125 C 1083.296875 1228.03125 1083.253906 1227.988281 1083.214844 1227.945312 C 1083.207031 1227.9375 1083.203125 1227.933594 1083.195312 1227.925781 C 1082.617188 1227.335938 1081.730469 1226.890625 1080.765625 1226.738281 C 1080.757812 1226.738281 1080.75 1226.738281 1080.742188 1226.738281 C 1080.515625 1226.707031 1080.257812 1226.679688 1079.996094 1226.664062 C 1079.992188 1226.664062 1079.992188 1226.664062 1079.992188 1226.664062 C 1076.855469 1226.503906 1072.613281 1228.023438 1068.835938 1229.371094 C 1065.414062 1230.597656 1062.183594 1231.75 1059.707031 1231.75 L 1053.722656 1231.75 L 1053.722656 1250.269531 C 1058.441406 1251.777344 1071.132812 1255.011719 1080.042969 1255.917969 C 1090.289062 1256.964844 1112.851562 1245.636719 1120.039062 1239.410156 C 1121.375 1238.253906 1121.585938 1236.695312 1121.105469 1235.816406 C 1120.617188 1234.933594 1119.433594 1234.695312 1117.851562 1235.164062 C 1114.964844 1236.019531 1110.738281 1237.871094 1106.261719 1239.835938 C 1097.714844 1243.582031 1088.90625 1247.445312 1083.359375 1247.445312 C 1082.714844 1247.445312 1082.113281 1247.394531 1081.558594 1247.28125 C 1079.050781 1246.777344 1076.308594 1245.988281 1074.21875 1245.171875 C 1071.015625 1243.917969 1069.464844 1242.707031 1069.179688 1241.246094 C 1069.0625 1240.632812 1069.082031 1239.457031 1070.5625 1238.492188 C 1071.578125 1237.824219 1073.015625 1237.117188 1074.679688 1236.292969 C 1077.683594 1234.808594 1081.421875 1232.957031 1083.121094 1231.046875 C 1083.464844 1230.660156 1083.691406 1230.28125 1083.800781 1229.90625 C 1083.804688 1229.902344 1083.804688 1229.898438 1083.804688 1229.894531 C 1083.828125 1229.808594 1083.847656 1229.722656 1083.859375 1229.636719 C 1083.863281 1229.625 1083.863281 1229.613281 1083.863281 1229.601562 C 1083.871094 1229.527344 1083.875 1229.453125 1083.875 1229.382812 Z M 1113.0625 1218.449219 C 1113.0625 1215.910156 1112.472656 1213.417969 1111.351562 1211.167969 C 1111.308594 1211.179688 1111.261719 1211.191406 1111.21875 1211.203125 C 1111.097656 1211.238281 1110.980469 1211.273438 1110.859375 1211.304688 C 1110.800781 1211.320312 1110.742188 1211.335938 1110.683594 1211.347656 C 1110.519531 1211.390625 1110.351562 1211.429688 1110.183594 1211.464844 C 1110.140625 1211.476562 1110.097656 1211.484375 1110.054688 1211.492188 C 1109.914062 1211.519531 1109.777344 1211.546875 1109.636719 1211.570312 C 1109.585938 1211.582031 1109.535156 1211.589844 1109.484375 1211.597656 C 1109.320312 1211.625 1109.15625 1211.648438 1108.992188 1211.671875 C 1108.933594 1211.675781 1108.875 1211.683594 1108.820312 1211.691406 C 1108.699219 1211.703125 1108.582031 1211.714844 1108.460938 1211.726562 C 1108.398438 1211.730469 1108.335938 1211.738281 1108.273438 1211.742188 C 1108.125 1211.75 1107.976562 1211.757812 1107.832031 1211.761719 C 1107.75 1211.765625 1107.671875 1211.765625 1107.59375 1211.765625 C 1107.558594 1211.765625 1107.523438 1211.769531 1107.488281 1211.769531 C 1107.429688 1211.769531 1107.375 1211.765625 1107.316406 1211.765625 C 1107.207031 1211.765625 1107.097656 1211.761719 1106.992188 1211.753906 C 1106.90625 1211.75 1106.824219 1211.746094 1106.742188 1211.738281 C 1106.660156 1211.734375 1106.582031 1211.726562 1106.503906 1211.71875 C 1106.386719 1211.707031 1106.269531 1211.691406 1106.15625 1211.675781 C 1106.078125 1211.664062 1106 1211.652344 1105.921875 1211.636719 C 1105.84375 1211.625 1105.761719 1211.605469 1105.683594 1211.589844 C 1105.582031 1211.570312 1105.484375 1211.546875 1105.386719 1211.519531 C 1105.308594 1211.5 1105.234375 1211.480469 1105.160156 1211.457031 C 1105.085938 1211.433594 1105.011719 1211.410156 1104.9375 1211.382812 C 1104.839844 1211.351562 1104.742188 1211.3125 1104.648438 1211.273438 C 1104.601562 1211.253906 1104.550781 1211.230469 1104.5 1211.210938 C 1104.386719 1211.160156 1104.28125 1211.105469 1104.175781 1211.046875 C 1104.140625 1211.027344 1104.105469 1211.003906 1104.070312 1210.984375 C 1103.957031 1210.917969 1103.847656 1210.847656 1103.746094 1210.773438 C 1103.730469 1210.761719 1103.71875 1210.753906 1103.707031 1210.742188 C 1103.601562 1210.664062 1103.507812 1210.582031 1103.414062 1210.496094 C 1103.398438 1210.480469 1103.382812 1210.464844 1103.367188 1210.449219 C 1103.292969 1210.378906 1103.222656 1210.308594 1103.160156 1210.230469 C 1103.128906 1210.199219 1103.101562 1210.164062 1103.074219 1210.128906 C 1103.074219 1210.125 1103.070312 1210.125 1103.070312 1210.125 C 1103.058594 1210.109375 1103.050781 1210.097656 1103.039062 1210.085938 C 1103.03125 1210.074219 1103.023438 1210.066406 1103.019531 1210.054688 C 1102.285156 1209.070312 1101.84375 1207.375 1103.605469 1204.746094 C 1103.613281 1204.734375 1103.621094 1204.722656 1103.628906 1204.710938 C 1103.683594 1204.628906 1103.746094 1204.542969 1103.808594 1204.453125 C 1103.8125 1204.445312 1103.816406 1204.4375 1103.824219 1204.429688 C 1103.824219 1204.429688 1103.828125 1204.425781 1103.828125 1204.425781 C 1103.921875 1204.292969 1104.027344 1204.152344 1104.136719 1204.011719 C 1104.140625 1204.003906 1104.148438 1203.996094 1104.152344 1203.988281 C 1104.171875 1203.964844 1104.191406 1203.9375 1104.210938 1203.914062 C 1101.882812 1202.707031 1099.300781 1202.074219 1096.65625 1202.074219 C 1087.609375 1202.074219 1080.25 1209.417969 1080.25 1218.449219 C 1080.25 1220.285156 1080.550781 1222.082031 1081.144531 1223.800781 C 1081.164062 1223.804688 1081.183594 1223.804688 1081.203125 1223.808594 C 1081.210938 1223.808594 1081.214844 1223.8125 1081.21875 1223.8125 C 1083.1875 1224.117188 1084.898438 1225.144531 1085.902344 1226.550781 L 1085.914062 1226.570312 C 1085.980469 1226.664062 1086.042969 1226.761719 1086.105469 1226.859375 C 1086.121094 1226.882812 1086.132812 1226.90625 1086.148438 1226.933594 C 1086.199219 1227.015625 1086.246094 1227.097656 1086.292969 1227.183594 C 1086.3125 1227.222656 1086.332031 1227.261719 1086.351562 1227.300781 C 1086.386719 1227.378906 1086.421875 1227.457031 1086.457031 1227.535156 C 1086.464844 1227.554688 1086.476562 1227.574219 1086.484375 1227.59375 C 1086.492188 1227.613281 1086.5 1227.636719 1086.507812 1227.660156 C 1086.527344 1227.707031 1086.550781 1227.757812 1086.570312 1227.804688 C 1086.59375 1227.871094 1086.609375 1227.9375 1086.632812 1228 C 1086.636719 1228.023438 1086.648438 1228.046875 1086.652344 1228.070312 C 1086.695312 1228.214844 1086.734375 1228.359375 1086.761719 1228.5 C 1086.761719 1228.507812 1086.765625 1228.515625 1086.765625 1228.523438 C 1086.792969 1228.660156 1086.8125 1228.796875 1086.824219 1228.933594 C 1086.828125 1228.957031 1086.828125 1228.980469 1086.832031 1229.003906 C 1086.859375 1229.296875 1086.855469 1229.59375 1086.824219 1229.886719 C 1086.824219 1229.898438 1086.820312 1229.910156 1086.820312 1229.917969 C 1086.804688 1230.058594 1086.78125 1230.195312 1086.753906 1230.335938 C 1086.75 1230.347656 1086.746094 1230.363281 1086.746094 1230.378906 C 1086.683594 1230.664062 1086.59375 1230.949219 1086.476562 1231.230469 C 1086.472656 1231.246094 1086.464844 1231.265625 1086.460938 1231.28125 C 1089.355469 1233.570312 1092.933594 1234.824219 1096.65625 1234.824219 C 1105.699219 1234.824219 1113.0625 1227.476562 1113.0625 1218.449219 Z M 1106.210938 1201.625 C 1106.421875 1201.398438 1106.636719 1201.167969 1106.847656 1200.941406 C 1108.304688 1199.394531 1110.5 1197.058594 1110.425781 1196.0625 C 1110.28125 1194.09375 1108.605469 1191.132812 1106.664062 1190.261719 C 1105.753906 1189.855469 1104.929688 1189.96875 1104.074219 1190.625 C 1102.246094 1192.023438 1101.164062 1193.472656 1100.34375 1195.632812 C 1099.828125 1196.976562 1099.109375 1198.175781 1098.261719 1199.179688 C 1101.058594 1199.410156 1103.761719 1200.242188 1106.210938 1201.625 Z M 1130.625 1185.941406 C 1125.613281 1185.1875 1121.25 1183.269531 1117.023438 1181.40625 C 1113.375 1179.796875 1109.851562 1178.246094 1106.132812 1177.574219 C 1098.074219 1177.914062 1092.183594 1182.578125 1089.082031 1191.074219 C 1088.328125 1195.65625 1089.152344 1198.851562 1091.25 1199.421875 C 1093.203125 1199.953125 1096.207031 1198.132812 1097.566406 1194.578125 C 1098.589844 1191.894531 1099.996094 1190.011719 1102.269531 1188.273438 C 1103.316406 1187.472656 1104.46875 1187.0625 1105.640625 1187.0625 C 1106.386719 1187.0625 1107.140625 1187.226562 1107.878906 1187.558594 C 1111.007812 1188.957031 1113.171875 1192.949219 1113.386719 1195.84375 C 1113.558594 1198.136719 1111.351562 1200.484375 1109.015625 1202.96875 C 1108.535156 1203.480469 1108.046875 1204 1107.59375 1204.507812 C 1107.589844 1204.511719 1107.585938 1204.511719 1107.585938 1204.515625 C 1107.480469 1204.632812 1107.386719 1204.742188 1107.289062 1204.851562 C 1106.898438 1205.300781 1106.535156 1205.742188 1106.238281 1206.15625 C 1106.179688 1206.234375 1106.128906 1206.308594 1106.082031 1206.382812 C 1106.066406 1206.402344 1106.054688 1206.421875 1106.039062 1206.441406 C 1106.007812 1206.492188 1105.972656 1206.546875 1105.941406 1206.59375 C 1105.929688 1206.617188 1105.917969 1206.632812 1105.90625 1206.65625 C 1105.875 1206.703125 1105.84375 1206.75 1105.816406 1206.796875 C 1105.808594 1206.8125 1105.800781 1206.828125 1105.792969 1206.84375 C 1105.765625 1206.890625 1105.738281 1206.941406 1105.710938 1206.988281 C 1105.707031 1206.996094 1105.703125 1207.003906 1105.699219 1207.007812 C 1105.320312 1207.726562 1105.300781 1208.164062 1105.414062 1208.304688 C 1105.417969 1208.308594 1105.425781 1208.316406 1105.429688 1208.320312 C 1105.445312 1208.335938 1105.460938 1208.355469 1105.476562 1208.371094 C 1105.484375 1208.375 1105.492188 1208.382812 1105.503906 1208.390625 C 1105.515625 1208.402344 1105.53125 1208.414062 1105.546875 1208.421875 C 1106.25 1208.921875 1108.535156 1209.007812 1110.949219 1208.183594 C 1111.398438 1208.027344 1111.851562 1207.839844 1112.289062 1207.621094 C 1112.773438 1207.378906 1113.261719 1207.125 1113.757812 1206.867188 C 1116.5625 1205.410156 1119.742188 1203.757812 1123.179688 1203.824219 C 1125.164062 1203.863281 1127.613281 1204.078125 1130.625 1204.472656 Z M 1141.667969 1183.625 C 1141.667969 1183.433594 1141.507812 1183.273438 1141.316406 1183.273438 L 1133.945312 1183.273438 C 1133.757812 1183.273438 1133.59375 1183.433594 1133.59375 1183.625 L 1133.59375 1207.894531 C 1133.59375 1208.085938 1133.757812 1208.246094 1133.945312 1208.246094 L 1141.316406 1208.246094 C 1141.507812 1208.246094 1141.667969 1208.085938 1141.667969 1207.894531 Z M 1141.667969 1183.625 " fill-opacity="1" fill-rule="nonzero"/>

</g>
</svg>