<svg xmlns="http://www.w3.org/2000/svg" viewBox="0 0 112.42578200000003 112.42578100000003">
<g transform="translate(-858.222656,-988.027344)">
<path fill="#2d2d2d" d="M 859.976562 1090.597656 L 911.375 1090.597656 C 911.75 1091.808594 912.425781 1092.785156 913.410156 1093.511719 C 917.246094 1096.347656 924.074219 1093.8125 927 1092.5 C 928.078125 1094.199219 928.675781 1096.203125 928.910156 1098.808594 C 928.988281 1099.710938 929.75 1100.40625 930.65625 1100.40625 L 961.699219 1100.40625 C 962.304688 1100.40625 962.867188 1100.09375 963.1875 1099.582031 C 963.507812 1099.070312 963.542969 1098.425781 963.277344 1097.882812 C 960.320312 1091.816406 958.59375 1085.996094 957.992188 1080.09375 C 957.808594 1078.265625 958.195312 1076.703125 959.214844 1075.171875 C 965.445312 1065.8125 967.738281 1057.425781 966.042969 1050.214844 C 966.191406 1050.019531 966.34375 1049.824219 966.488281 1049.621094 C 966.773438 1049.214844 966.875 1048.703125 966.765625 1048.21875 C 966.660156 1047.734375 966.347656 1047.320312 965.914062 1047.074219 C 964.785156 1046.4375 964.320312 1045.0625 964.839844 1043.875 C 965.359375 1042.683594 966.683594 1042.082031 967.917969 1042.476562 C 968.394531 1042.628906 968.910156 1042.570312 969.339844 1042.320312 C 969.765625 1042.070312 970.070312 1041.648438 970.171875 1041.164062 C 970.753906 1038.378906 970.804688 1035.554688 970.328125 1032.769531 C 970.242188 1032.28125 969.953125 1031.847656 969.535156 1031.585938 C 969.113281 1031.320312 968.601562 1031.242188 968.121094 1031.378906 C 966.875 1031.726562 965.574219 1031.082031 965.101562 1029.875 C 964.628906 1028.664062 965.140625 1027.304688 966.292969 1026.710938 C 966.734375 1026.484375 967.058594 1026.082031 967.1875 1025.597656 C 967.316406 1025.117188 967.230469 1024.605469 966.960938 1024.1875 C 965.414062 1021.828125 963.457031 1019.796875 961.136719 1018.148438 C 960.730469 1017.859375 960.21875 1017.757812 959.734375 1017.867188 C 959.25 1017.976562 958.832031 1018.285156 958.589844 1018.71875 C 957.953125 1019.847656 956.578125 1020.304688 955.386719 1019.789062 C 954.195312 1019.269531 953.597656 1017.949219 953.992188 1016.714844 C 954.144531 1016.242188 954.085938 1015.726562 953.835938 1015.296875 C 953.585938 1014.867188 953.164062 1014.5625 952.675781 1014.460938 C 949.890625 1013.882812 947.066406 1013.828125 944.285156 1014.308594 C 943.792969 1014.390625 943.363281 1014.679688 943.097656 1015.101562 C 942.832031 1015.519531 942.757812 1016.03125 942.890625 1016.511719 C 943.242188 1017.757812 942.59375 1019.058594 941.382812 1019.53125 C 940.289062 1019.960938 939.078125 1019.582031 938.417969 1018.65625 L 938.417969 1009.039062 L 957.421875 1009.039062 C 961.269531 1009.039062 964.402344 1005.90625 964.402344 1002.058594 C 964.402344 998.207031 961.269531 995.074219 957.421875 995.074219 L 938.417969 995.074219 L 938.417969 989.808594 C 938.417969 988.835938 937.632812 988.050781 936.664062 988.050781 L 882.953125 988.050781 C 882.484375 988.050781 882.039062 988.238281 881.710938 988.566406 L 875.289062 994.984375 L 859.976562 994.984375 C 859.007812 994.984375 858.222656 995.773438 858.222656 996.742188 L 858.222656 1088.839844 C 858.222656 1089.808594 859.007812 1090.597656 859.976562 1090.597656 Z M 956.292969 1073.226562 C 954.820312 1075.441406 954.234375 1077.800781 954.5 1080.445312 C 955.058594 1085.9375 956.519531 1091.34375 958.953125 1096.894531 L 932.210938 1096.894531 C 931.726562 1093.78125 930.660156 1091.296875 928.914062 1089.171875 C 928.378906 1088.523438 927.460938 1088.339844 926.722656 1088.742188 C 923.363281 1090.554688 917.59375 1092.242188 915.496094 1090.6875 C 914.304688 1089.804688 914.449219 1087.648438 914.78125 1085.992188 C 914.945312 1085.175781 914.511719 1084.359375 913.746094 1084.03125 C 913.007812 1083.71875 912.441406 1083.363281 912.59375 1082.273438 C 912.601562 1082.238281 912.605469 1082.199219 912.609375 1082.164062 C 912.652344 1081.917969 912.726562 1081.636719 912.84375 1081.308594 C 913.082031 1080.652344 912.902344 1079.917969 912.398438 1079.441406 C 911.933594 1079.003906 911.304688 1078.410156 912.519531 1076.511719 C 912.789062 1076.09375 912.867188 1075.582031 912.738281 1075.105469 C 912.609375 1074.625 912.28125 1074.226562 911.839844 1074 L 911.195312 1073.671875 C 910.195312 1073.15625 909.578125 1072.371094 909.316406 1071.277344 C 909.0625 1070.195312 909.265625 1069.195312 909.925781 1068.296875 L 914.847656 1061.589844 C 915.1875 1061.128906 915.277344 1060.535156 915.097656 1059.992188 C 913.382812 1054.863281 913.507812 1050.34375 915.476562 1046.558594 C 917.320312 1043.003906 920.859375 1040.121094 925.5625 1038.292969 C 925.617188 1038.976562 925.699219 1039.664062 925.8125 1040.34375 C 925.898438 1040.835938 926.183594 1041.269531 926.605469 1041.535156 C 927.023438 1041.800781 927.539062 1041.875 928.015625 1041.742188 C 929.265625 1041.390625 930.570312 1042.039062 931.046875 1043.242188 C 931.519531 1044.457031 931.007812 1045.816406 929.855469 1046.40625 C 929.414062 1046.636719 929.085938 1047.039062 928.960938 1047.519531 C 928.832031 1048 928.914062 1048.515625 929.1875 1048.929688 C 930.738281 1051.300781 932.699219 1053.332031 935.015625 1054.972656 C 935.417969 1055.261719 935.929688 1055.363281 936.414062 1055.253906 C 936.898438 1055.144531 937.316406 1054.835938 937.558594 1054.402344 C 938.195312 1053.273438 939.570312 1052.8125 940.761719 1053.332031 C 941.949219 1053.851562 942.550781 1055.171875 942.15625 1056.40625 C 942.003906 1056.878906 942.0625 1057.394531 942.3125 1057.824219 C 942.5625 1058.253906 942.984375 1058.554688 943.46875 1058.65625 C 944.996094 1058.976562 946.535156 1059.136719 948.074219 1059.136719 C 949.339844 1059.136719 950.605469 1059.027344 951.863281 1058.8125 C 952.351562 1058.726562 952.785156 1058.441406 953.050781 1058.019531 C 953.316406 1057.597656 953.390625 1057.082031 953.253906 1056.605469 C 952.902344 1055.359375 953.546875 1054.0625 954.757812 1053.585938 C 955.96875 1053.113281 957.328125 1053.625 957.921875 1054.777344 C 958.148438 1055.21875 958.554688 1055.546875 959.035156 1055.671875 C 959.515625 1055.800781 960.027344 1055.71875 960.445312 1055.445312 C 961.351562 1054.851562 962.207031 1054.199219 963.011719 1053.488281 C 963.480469 1059.1875 961.230469 1065.808594 956.292969 1073.226562 Z M 942.664062 1022.800781 C 944.914062 1021.921875 946.351562 1019.847656 946.488281 1017.5625 C 947.773438 1017.453125 949.070312 1017.476562 950.359375 1017.632812 C 950.414062 1019.917969 951.769531 1022.042969 953.984375 1023.007812 C 956.195312 1023.96875 958.675781 1023.519531 960.386719 1022.003906 C 961.378906 1022.84375 962.277344 1023.773438 963.074219 1024.792969 C 961.496094 1026.445312 960.953125 1028.90625 961.832031 1031.15625 C 962.714844 1033.402344 964.789062 1034.839844 967.074219 1034.976562 C 967.179688 1036.261719 967.15625 1037.554688 967 1038.847656 C 964.714844 1038.902344 962.589844 1040.261719 961.621094 1042.46875 C 960.65625 1044.679688 961.109375 1047.164062 962.628906 1048.875 C 961.792969 1049.863281 960.863281 1050.761719 959.84375 1051.5625 C 958.191406 1049.980469 955.726562 1049.4375 953.476562 1050.320312 C 951.226562 1051.203125 949.789062 1053.277344 949.65625 1055.558594 C 948.367188 1055.667969 947.074219 1055.644531 945.789062 1055.484375 C 945.734375 1053.199219 944.375 1051.078125 942.164062 1050.113281 C 939.953125 1049.152344 937.472656 1049.601562 935.761719 1051.117188 C 934.769531 1050.28125 933.871094 1049.347656 933.074219 1048.328125 C 934.652344 1046.675781 935.195312 1044.210938 934.3125 1041.957031 C 933.425781 1039.71875 931.351562 1038.285156 929.074219 1038.148438 C 928.964844 1036.859375 928.992188 1035.5625 929.148438 1034.273438 C 931.433594 1034.222656 933.554688 1032.863281 934.519531 1030.652344 C 935.484375 1028.441406 935.03125 1025.957031 933.515625 1024.246094 C 934.347656 1023.257812 935.28125 1022.359375 936.304688 1021.558594 C 937.957031 1023.140625 940.417969 1023.683594 942.664062 1022.800781 Z M 906.925781 1002.058594 L 909.785156 1000.128906 L 909.785156 1003.984375 L 906.925781 1002.054688 Z M 913.296875 998.582031 L 950.738281 998.582031 L 950.738281 1005.53125 L 913.296875 1005.53125 Z M 960.890625 1002.058594 C 960.890625 1003.972656 959.335938 1005.53125 957.421875 1005.53125 L 954.25 1005.53125 L 954.25 998.582031 L 957.421875 998.582031 C 959.335938 998.582031 960.890625 1000.140625 960.890625 1002.058594 Z M 934.910156 995.074219 L 911.542969 995.074219 C 911.460938 995.074219 911.382812 995.078125 911.304688 995.089844 C 911.289062 995.09375 911.273438 995.09375 911.253906 995.097656 C 911.097656 995.125 910.945312 995.171875 910.804688 995.234375 C 910.792969 995.242188 910.78125 995.25 910.765625 995.253906 C 910.695312 995.289062 910.621094 995.328125 910.554688 995.375 L 902.804688 1000.601562 C 902.320312 1000.925781 902.03125 1001.472656 902.03125 1002.054688 C 902.03125 1002.640625 902.320312 1003.1875 902.804688 1003.511719 L 910.554688 1008.738281 C 910.621094 1008.785156 910.695312 1008.824219 910.765625 1008.859375 C 910.78125 1008.863281 910.792969 1008.871094 910.804688 1008.878906 C 910.945312 1008.941406 911.097656 1008.988281 911.253906 1009.015625 C 911.273438 1009.019531 911.289062 1009.019531 911.304688 1009.023438 C 911.382812 1009.035156 911.460938 1009.039062 911.542969 1009.039062 L 934.910156 1009.039062 L 934.910156 1018.222656 C 932.867188 1019.683594 931.101562 1021.457031 929.660156 1023.503906 C 929.371094 1023.910156 929.269531 1024.417969 929.378906 1024.898438 C 929.488281 1025.382812 929.796875 1025.800781 930.230469 1026.042969 C 931.359375 1026.679688 931.820312 1028.058594 931.300781 1029.25 C 930.78125 1030.4375 929.464844 1031.039062 928.230469 1030.644531 C 927.753906 1030.492188 927.238281 1030.546875 926.808594 1030.796875 C 926.378906 1031.046875 926.078125 1031.46875 925.976562 1031.957031 C 925.796875 1032.816406 925.671875 1033.679688 925.59375 1034.546875 C 919.449219 1036.628906 914.777344 1040.289062 912.359375 1044.9375 C 910.054688 1049.375 909.761719 1054.515625 911.488281 1060.230469 L 907.09375 1066.222656 C 905.820312 1067.957031 905.40625 1069.984375 905.898438 1072.089844 C 906.320312 1073.847656 907.285156 1075.273438 908.71875 1076.269531 C 908.117188 1077.859375 908.265625 1079.15625 908.6875 1080.15625 L 868.664062 1080.15625 L 868.664062 1007.601562 L 882.953125 1007.601562 C 883.921875 1007.601562 884.707031 1006.816406 884.707031 1005.847656 L 884.707031 991.5625 L 934.910156 991.5625 Z M 881.195312 994.042969 L 881.195312 1004.09375 L 871.148438 1004.09375 Z M 861.730469 998.496094 L 871.78125 998.496094 L 865.667969 1004.605469 C 865.339844 1004.9375 865.15625 1005.382812 865.15625 1005.847656 L 865.15625 1081.914062 C 865.15625 1082.882812 865.941406 1083.667969 866.910156 1083.667969 L 909.171875 1083.667969 C 909.414062 1084.847656 910.074219 1085.835938 911.132812 1086.582031 C 911.109375 1086.753906 911.09375 1086.917969 911.082031 1087.085938 L 861.730469 1087.085938 Z M 948.074219 1048.804688 C 954.824219 1048.804688 960.316406 1043.3125 960.316406 1036.558594 C 960.316406 1029.808594 954.824219 1024.316406 948.074219 1024.316406 C 941.324219 1024.316406 935.828125 1029.808594 935.828125 1036.558594 C 935.828125 1043.3125 941.324219 1048.804688 948.074219 1048.804688 Z M 948.074219 1027.828125 C 952.890625 1027.828125 956.808594 1031.746094 956.808594 1036.558594 C 956.808594 1041.375 952.890625 1045.292969 948.074219 1045.292969 C 943.257812 1045.292969 939.339844 1041.375 939.339844 1036.558594 C 939.339844 1031.746094 943.257812 1027.828125 948.074219 1027.828125 Z M 881.847656 1013.648438 L 873.285156 1013.648438 C 872.316406 1013.648438 871.527344 1014.433594 871.527344 1015.402344 L 871.527344 1023.972656 C 871.527344 1024.941406 872.316406 1025.730469 873.285156 1025.730469 L 881.847656 1025.730469 C 882.820312 1025.730469 883.605469 1024.941406 883.605469 1023.972656 L 883.605469 1015.402344 C 883.605469 1014.433594 882.820312 1013.648438 881.847656 1013.648438 Z M 880.09375 1022.21875 L 875.039062 1022.21875 L 875.039062 1017.15625 L 880.09375 1017.15625 Z M 887.101562 1016.105469 C 887.101562 1015.136719 887.890625 1014.351562 888.859375 1014.351562 L 924.066406 1014.351562 C 925.035156 1014.351562 925.820312 1015.136719 925.820312 1016.105469 C 925.820312 1017.074219 925.035156 1017.859375 924.066406 1017.859375 L 888.859375 1017.859375 C 887.890625 1017.859375 887.101562 1017.074219 887.101562 1016.105469 Z M 887.101562 1023.265625 C 887.101562 1022.292969 887.890625 1021.507812 888.859375 1021.507812 L 924.066406 1021.507812 C 925.035156 1021.507812 925.820312 1022.292969 925.820312 1023.265625 C 925.820312 1024.234375 925.035156 1025.019531 924.066406 1025.019531 L 888.859375 1025.019531 C 887.890625 1025.019531 887.101562 1024.234375 887.101562 1023.265625 Z M 881.847656 1029.773438 L 873.285156 1029.773438 C 872.316406 1029.773438 871.527344 1030.5625 871.527344 1031.53125 L 871.527344 1040.101562 C 871.527344 1041.070312 872.316406 1041.855469 873.285156 1041.855469 L 881.847656 1041.855469 C 882.820312 1041.855469 883.605469 1041.070312 883.605469 1040.101562 L 883.605469 1031.53125 C 883.605469 1030.5625 882.820312 1029.773438 881.847656 1029.773438 Z M 880.09375 1038.347656 L 875.039062 1038.347656 L 875.039062 1033.285156 L 880.09375 1033.285156 Z M 887.101562 1032.234375 C 887.101562 1031.265625 887.890625 1030.480469 888.859375 1030.480469 L 915.015625 1030.480469 C 915.984375 1030.480469 916.769531 1031.265625 916.769531 1032.234375 C 916.769531 1033.203125 915.984375 1033.988281 915.015625 1033.988281 L 888.859375 1033.988281 C 887.890625 1033.988281 887.101562 1033.203125 887.101562 1032.234375 Z M 887.101562 1039.390625 C 887.101562 1038.421875 887.890625 1037.636719 888.859375 1037.636719 L 909.417969 1037.636719 C 910.386719 1037.636719 911.175781 1038.421875 911.175781 1039.390625 C 911.175781 1040.363281 910.386719 1041.148438 909.417969 1041.148438 L 888.859375 1041.148438 C 887.890625 1041.148438 887.101562 1040.363281 887.101562 1039.390625 Z M 881.847656 1045.902344 L 873.285156 1045.902344 C 872.316406 1045.902344 871.527344 1046.6875 871.527344 1047.660156 L 871.527344 1056.230469 C 871.527344 1057.199219 872.316406 1057.984375 873.285156 1057.984375 L 881.847656 1057.984375 C 882.820312 1057.984375 883.605469 1057.199219 883.605469 1056.230469 L 883.605469 1047.660156 C 883.605469 1046.6875 882.820312 1045.902344 881.847656 1045.902344 Z M 880.09375 1054.472656 L 875.039062 1054.472656 L 875.039062 1049.414062 L 880.09375 1049.414062 Z M 887.101562 1048.363281 C 887.101562 1047.390625 887.890625 1046.605469 888.859375 1046.605469 L 906.53125 1046.605469 C 907.5 1046.605469 908.285156 1047.390625 908.285156 1048.363281 C 908.285156 1049.332031 907.5 1050.117188 906.53125 1050.117188 L 888.859375 1050.117188 C 887.890625 1050.117188 887.101562 1049.332031 887.101562 1048.363281 Z M 887.101562 1055.527344 C 887.101562 1054.558594 887.890625 1053.769531 888.859375 1053.769531 L 906.53125 1053.769531 C 907.5 1053.769531 908.285156 1054.558594 908.285156 1055.527344 C 908.285156 1056.496094 907.5 1057.28125 906.53125 1057.28125 L 888.859375 1057.28125 C 887.890625 1057.28125 887.101562 1056.496094 887.101562 1055.527344 Z M 881.847656 1062.03125 L 873.285156 1062.03125 C 872.316406 1062.03125 871.527344 1062.816406 871.527344 1063.785156 L 871.527344 1072.359375 C 871.527344 1073.328125 872.316406 1074.113281 873.285156 1074.113281 L 881.847656 1074.113281 C 882.820312 1074.113281 883.605469 1073.328125 883.605469 1072.359375 L 883.605469 1063.785156 C 883.605469 1062.816406 882.820312 1062.03125 881.847656 1062.03125 Z M 880.09375 1070.601562 L 875.039062 1070.601562 L 875.039062 1065.542969 L 880.09375 1065.542969 Z M 887.101562 1064.488281 C 887.101562 1063.519531 887.890625 1062.734375 888.859375 1062.734375 L 902.261719 1062.734375 C 903.230469 1062.734375 904.015625 1063.519531 904.015625 1064.488281 C 904.015625 1065.460938 903.230469 1066.246094 902.261719 1066.246094 L 888.859375 1066.246094 C 887.890625 1066.246094 887.101562 1065.460938 887.101562 1064.488281 Z M 904.015625 1071.65625 C 904.015625 1072.625 903.230469 1073.410156 902.261719 1073.410156 L 888.859375 1073.410156 C 887.890625 1073.410156 887.101562 1072.625 887.101562 1071.65625 C 887.101562 1070.683594 887.890625 1069.898438 888.859375 1069.898438 L 902.261719 1069.898438 C 903.230469 1069.898438 904.015625 1070.683594 904.015625 1071.65625 Z M 904.015625 1071.65625 " fill-opacity="1" fill-rule="nonzero"/>

</g>
</svg>