<svg xmlns="http://www.w3.org/2000/svg" viewBox="0 0 113.92968700000006 113.92968700000006">
<g transform="translate(-675.246094,-1162.523438)">
<path fill="#000000" d="M 710.8125 1265.816406 C 710.761719 1261.722656 712.753906 1258.933594 717.144531 1258.917969 C 720.136719 1258.90625 723.21875 1258.910156 726.394531 1258.929688 C 726.472656 1258.929688 726.535156 1258.871094 726.535156 1258.792969 C 726.535156 1258.792969 726.535156 1258.789062 726.535156 1258.789062 C 726.527344 1245.066406 726.527344 1222.242188 726.539062 1190.320312 C 726.539062 1189.074219 725.878906 1188.902344 724.742188 1188.902344 C 715.484375 1188.890625 707.011719 1188.894531 699.324219 1188.914062 C 699.203125 1188.914062 699.101562 1189.015625 699.101562 1189.140625 C 699.101562 1189.171875 699.109375 1189.199219 699.121094 1189.226562 L 717.3125 1232.527344 C 717.425781 1232.800781 717.480469 1233.097656 717.464844 1233.390625 C 717.265625 1237.699219 714.640625 1241.753906 711.363281 1244.390625 C 706.960938 1247.9375 701.832031 1249.621094 695.976562 1249.441406 C 689.367188 1249.238281 683.078125 1246.929688 678.839844 1241.871094 C 677.792969 1240.617188 677.007812 1239.394531 676.492188 1238.207031 C 675.796875 1236.609375 674.910156 1234.140625 675.398438 1232.40625 C 675.492188 1232.082031 676.132812 1230.574219 677.316406 1227.871094 C 679.078125 1223.863281 680.769531 1219.507812 682.3125 1215.949219 C 683.292969 1213.691406 684.328125 1211.222656 685.425781 1208.550781 C 686.796875 1205.195312 688.195312 1201.863281 689.621094 1198.546875 C 689.867188 1197.972656 690.117188 1197.386719 690.371094 1196.789062 C 691.140625 1194.980469 692.234375 1192.394531 693.648438 1189.027344 C 693.6875 1188.929688 693.644531 1188.820312 693.546875 1188.78125 C 693.21875 1188.640625 692.753906 1188.535156 692.492188 1188.378906 C 690.550781 1187.234375 689.621094 1185.621094 689.703125 1183.546875 C 689.816406 1180.511719 691.886719 1178.484375 694.9375 1178.480469 C 707.203125 1178.46875 717.292969 1178.46875 725.207031 1178.484375 C 725.347656 1178.484375 725.480469 1178.425781 725.574219 1178.324219 L 726.328125 1177.515625 C 726.453125 1177.378906 726.523438 1177.203125 726.523438 1177.019531 C 726.539062 1173.242188 726.539062 1170.945312 726.527344 1170.132812 C 726.492188 1167.398438 726.839844 1165.625 728.589844 1164.015625 C 732.300781 1160.59375 738.441406 1163.472656 738.421875 1168.457031 C 738.417969 1170.53125 738.414062 1173.375 738.417969 1176.984375 C 738.417969 1177.097656 738.449219 1177.210938 738.507812 1177.304688 C 738.789062 1177.761719 739.117188 1178.117188 739.496094 1178.371094 C 739.625 1178.457031 739.773438 1178.5 739.929688 1178.5 C 740.679688 1178.488281 750.347656 1178.480469 768.929688 1178.472656 C 770.464844 1178.472656 771.554688 1178.617188 772.195312 1178.90625 C 773.632812 1179.558594 774.578125 1180.609375 775.03125 1182.058594 C 775.972656 1185.082031 774.347656 1187.902344 771.296875 1188.769531 C 771.210938 1188.789062 771.160156 1188.878906 771.183594 1188.964844 C 771.183594 1188.972656 771.1875 1188.980469 771.191406 1188.984375 C 778.507812 1206.425781 784.523438 1220.75 789.238281 1231.960938 C 790.128906 1234.078125 788.632812 1238.246094 787.3125 1240.148438 C 781.425781 1248.640625 771.242188 1251.03125 761.574219 1248.535156 C 759.742188 1248.058594 758.117188 1247.382812 756.695312 1246.5 C 754.832031 1245.34375 753.402344 1244.292969 752.402344 1243.351562 C 750.042969 1241.132812 748.445312 1238.25 747.609375 1234.703125 C 747.382812 1233.734375 747.363281 1233.0625 747.78125 1232.074219 C 756.824219 1210.539062 762.804688 1196.273438 765.726562 1189.269531 C 765.785156 1189.136719 765.722656 1188.980469 765.585938 1188.925781 C 765.554688 1188.910156 765.519531 1188.902344 765.484375 1188.902344 L 739.398438 1188.902344 C 739.367188 1188.902344 739.335938 1188.910156 739.308594 1188.917969 C 738.71875 1189.121094 738.421875 1189.53125 738.421875 1190.152344 C 738.410156 1206.402344 738.410156 1229.277344 738.417969 1258.78125 C 738.417969 1258.863281 738.480469 1258.925781 738.558594 1258.925781 C 741.402344 1258.964844 744.292969 1258.945312 747.230469 1258.867188 C 750.984375 1258.769531 753.296875 1260.457031 754.167969 1263.925781 C 754.304688 1264.46875 754.191406 1265.222656 754.265625 1265.761719 C 754.277344 1265.863281 754.363281 1265.9375 754.464844 1265.941406 C 755.792969 1265.972656 756.582031 1266.007812 756.835938 1266.050781 C 760.109375 1266.574219 762.136719 1269.097656 762.203125 1272.378906 C 762.21875 1273.335938 762.222656 1274.207031 762.207031 1274.988281 C 762.175781 1276.445312 761.003906 1276.601562 759.714844 1276.601562 C 725.875 1276.601562 707.515625 1276.601562 704.628906 1276.605469 C 703.1875 1276.609375 702.660156 1275.59375 702.710938 1274.1875 C 702.78125 1272.308594 702.828125 1271.300781 702.863281 1271.171875 C 703.542969 1268.4375 705.257812 1266.746094 708.007812 1266.097656 C 708.203125 1266.050781 709.070312 1266.027344 710.613281 1266.019531 C 710.726562 1266.015625 710.8125 1265.925781 710.8125 1265.816406 Z M 732.464844 1175.03125 C 733.394531 1175.03125 734.183594 1175.140625 734.84375 1175.351562 C 734.914062 1175.378906 734.996094 1175.339844 735.019531 1175.265625 C 735.023438 1175.25 735.027344 1175.234375 735.027344 1175.222656 C 735.042969 1173.164062 735.042969 1171.394531 735.03125 1169.910156 C 735.023438 1168.992188 735.085938 1167.933594 734.625 1167.203125 C 734.039062 1166.273438 733.324219 1165.808594 732.484375 1165.804688 C 731.644531 1165.804688 730.929688 1166.265625 730.335938 1167.191406 C 729.875 1167.921875 729.933594 1168.980469 729.921875 1169.898438 C 729.902344 1171.382812 729.898438 1173.15625 729.90625 1175.210938 C 729.90625 1175.289062 729.96875 1175.351562 730.046875 1175.347656 C 730.058594 1175.347656 730.074219 1175.347656 730.085938 1175.34375 C 730.746094 1175.132812 731.539062 1175.027344 732.464844 1175.03125 Z M 737.667969 1183.5 C 737.667969 1180.632812 735.34375 1178.304688 732.472656 1178.304688 C 729.601562 1178.304688 727.277344 1180.632812 727.277344 1183.5 C 727.277344 1186.371094 729.601562 1188.695312 732.472656 1188.695312 C 735.34375 1188.695312 737.667969 1186.371094 737.667969 1183.5 Z M 723.921875 1185.484375 L 723.925781 1181.914062 C 723.925781 1181.871094 723.894531 1181.839844 723.851562 1181.839844 L 694.910156 1181.785156 C 693.898438 1181.785156 693.078125 1182.558594 693.074219 1183.511719 L 693.074219 1183.777344 C 693.074219 1184.730469 693.890625 1185.503906 694.90625 1185.507812 L 723.84375 1185.558594 C 723.886719 1185.558594 723.921875 1185.523438 723.921875 1185.484375 Z M 740.960938 1181.878906 L 740.960938 1185.464844 C 740.960938 1185.503906 740.992188 1185.535156 741.03125 1185.535156 L 770.128906 1185.535156 C 771.125 1185.535156 771.929688 1184.714844 771.929688 1183.703125 L 771.929688 1183.636719 C 771.929688 1182.625 771.125 1181.808594 770.128906 1181.808594 L 741.03125 1181.808594 C 740.992188 1181.808594 740.960938 1181.839844 740.960938 1181.878906 Z M 713.085938 1231.742188 C 713.171875 1231.742188 713.242188 1231.675781 713.242188 1231.589844 C 713.242188 1231.566406 713.238281 1231.546875 713.230469 1231.527344 C 708.871094 1221.238281 705.273438 1212.695312 702.4375 1205.902344 C 700.085938 1200.277344 698.09375 1195.578125 696.457031 1191.804688 C 696.429688 1191.734375 696.386719 1191.699219 696.335938 1191.699219 C 696.285156 1191.699219 696.246094 1191.734375 696.21875 1191.804688 C 694.582031 1195.578125 692.589844 1200.277344 690.242188 1205.902344 C 687.40625 1212.699219 683.808594 1221.242188 679.453125 1231.53125 C 679.421875 1231.613281 679.457031 1231.703125 679.535156 1231.734375 C 679.554688 1231.742188 679.574219 1231.746094 679.597656 1231.746094 Z M 732.464844 1258.921875 C 733.195312 1258.921875 734.003906 1258.910156 734.898438 1258.886719 C 734.984375 1258.886719 735.058594 1258.8125 735.058594 1258.726562 L 735.058594 1191.867188 C 735.054688 1191.789062 734.996094 1191.730469 734.921875 1191.730469 C 734.910156 1191.734375 734.898438 1191.734375 734.890625 1191.738281 C 734.089844 1191.941406 733.28125 1192.042969 732.460938 1192.042969 C 731.644531 1192.042969 730.835938 1191.941406 730.035156 1191.738281 C 729.964844 1191.71875 729.890625 1191.761719 729.871094 1191.835938 C 729.871094 1191.84375 729.867188 1191.855469 729.867188 1191.867188 L 729.875 1258.726562 C 729.875 1258.8125 729.945312 1258.886719 730.035156 1258.886719 C 730.925781 1258.910156 731.738281 1258.921875 732.464844 1258.921875 Z M 785.359375 1231.753906 C 785.394531 1231.75 785.421875 1231.722656 785.421875 1231.6875 C 785.421875 1231.679688 785.417969 1231.671875 785.417969 1231.664062 L 768.625 1191.699219 C 768.597656 1191.640625 768.53125 1191.613281 768.472656 1191.640625 C 768.445312 1191.652344 768.425781 1191.671875 768.414062 1191.699219 L 751.675781 1231.628906 C 751.65625 1231.667969 751.679688 1231.714844 751.71875 1231.734375 Z M 696.382812 1246.082031 C 703.488281 1246.078125 711.398438 1242.488281 713.722656 1235.226562 C 713.746094 1235.152344 713.707031 1235.074219 713.632812 1235.046875 C 713.621094 1235.042969 713.609375 1235.042969 713.59375 1235.042969 C 712.742188 1235.019531 707 1235.011719 696.375 1235.019531 C 685.746094 1235.027344 680.007812 1235.042969 679.152344 1235.066406 C 679.078125 1235.070312 679.015625 1235.132812 679.019531 1235.210938 C 679.019531 1235.222656 679.019531 1235.238281 679.023438 1235.25 C 681.363281 1242.511719 689.277344 1246.089844 696.382812 1246.082031 Z M 768.550781 1246.078125 C 775.652344 1246.078125 783.558594 1242.496094 785.886719 1235.234375 C 785.910156 1235.160156 785.867188 1235.082031 785.792969 1235.0625 C 785.78125 1235.058594 785.769531 1235.054688 785.757812 1235.054688 C 784.90625 1235.03125 779.167969 1235.019531 768.546875 1235.019531 C 757.929688 1235.023438 752.191406 1235.035156 751.339844 1235.0625 C 751.261719 1235.066406 751.203125 1235.132812 751.207031 1235.207031 C 751.207031 1235.21875 751.207031 1235.230469 751.210938 1235.242188 C 753.542969 1242.5 761.449219 1246.078125 768.550781 1246.078125 Z M 714.464844 1265.980469 L 750.597656 1265.980469 C 750.8125 1265.980469 750.988281 1265.804688 750.988281 1265.589844 L 750.988281 1265.300781 C 750.988281 1263.59375 749.570312 1262.207031 747.820312 1262.207031 L 717.238281 1262.207031 C 715.488281 1262.207031 714.074219 1263.59375 714.074219 1265.300781 L 714.074219 1265.589844 C 714.074219 1265.804688 714.246094 1265.980469 714.464844 1265.980469 Z M 706.332031 1273.183594 L 758.617188 1273.183594 C 758.777344 1273.183594 758.90625 1273.054688 758.90625 1272.894531 L 758.90625 1272.5625 C 758.90625 1270.828125 757.476562 1269.421875 755.710938 1269.421875 L 709.242188 1269.421875 C 707.476562 1269.421875 706.042969 1270.828125 706.042969 1272.5625 L 706.042969 1272.894531 C 706.042969 1273.054688 706.171875 1273.183594 706.332031 1273.183594 Z M 706.332031 1273.183594 " fill-opacity="1" fill-rule="nonzero"/>

</g>
</svg>