<svg xmlns="http://www.w3.org/2000/svg" viewBox="0 0 110.18359400000008 96.69140700000003">
<g transform="translate(-675.246094,-1354.632812)">
<path fill="#000000" d="M 784.515625 1442.464844 L 735.335938 1357.644531 C 735.078125 1357.199219 734.765625 1356.796875 734.402344 1356.433594 C 734.035156 1356.070312 733.632812 1355.757812 733.183594 1355.5 C 732.738281 1355.242188 732.265625 1355.046875 731.765625 1354.914062 C 731.269531 1354.78125 730.761719 1354.714844 730.246094 1354.714844 C 729.730469 1354.714844 729.222656 1354.78125 728.722656 1354.914062 C 728.222656 1355.046875 727.75 1355.242188 727.304688 1355.5 C 726.859375 1355.757812 726.453125 1356.070312 726.089844 1356.433594 C 725.722656 1356.796875 725.414062 1357.199219 725.15625 1357.644531 L 675.976562 1442.464844 C 675.714844 1442.910156 675.519531 1443.378906 675.386719 1443.875 C 675.25 1444.371094 675.183594 1444.878906 675.183594 1445.390625 C 675.183594 1445.90625 675.25 1446.410156 675.382812 1446.90625 C 675.515625 1447.402344 675.710938 1447.875 675.96875 1448.320312 C 676.226562 1448.765625 676.539062 1449.167969 676.902344 1449.535156 C 677.269531 1449.898438 677.675781 1450.207031 678.121094 1450.464844 C 678.570312 1450.71875 679.042969 1450.914062 679.542969 1451.046875 C 680.039062 1451.179688 680.546875 1451.246094 681.0625 1451.246094 L 779.425781 1451.246094 C 779.941406 1451.246094 780.449219 1451.179688 780.949219 1451.046875 C 781.445312 1450.914062 781.917969 1450.71875 782.367188 1450.464844 C 782.8125 1450.207031 783.21875 1449.898438 783.585938 1449.535156 C 783.949219 1449.167969 784.261719 1448.765625 784.519531 1448.320312 C 784.777344 1447.875 784.972656 1447.402344 785.109375 1446.90625 C 785.242188 1446.410156 785.308594 1445.90625 785.308594 1445.390625 C 785.304688 1444.878906 785.238281 1444.371094 785.105469 1443.875 C 784.96875 1443.378906 784.773438 1442.910156 784.515625 1442.464844 Z M 781.289062 1446.457031 C 781.101562 1446.792969 780.839844 1447.054688 780.507812 1447.25 C 780.171875 1447.441406 779.8125 1447.535156 779.425781 1447.53125 L 681.0625 1447.53125 C 680.875 1447.53125 680.691406 1447.503906 680.511719 1447.453125 C 680.328125 1447.40625 680.15625 1447.332031 679.996094 1447.238281 C 679.832031 1447.144531 679.683594 1447.03125 679.550781 1446.898438 C 679.417969 1446.765625 679.304688 1446.617188 679.210938 1446.457031 C 679.117188 1446.292969 679.046875 1446.121094 678.996094 1445.941406 C 678.945312 1445.761719 678.921875 1445.578125 678.921875 1445.390625 C 678.917969 1445.203125 678.941406 1445.019531 678.992188 1444.835938 C 679.039062 1444.65625 679.109375 1444.484375 679.199219 1444.320312 L 728.378906 1359.503906 C 728.476562 1359.339844 728.589844 1359.195312 728.722656 1359.0625 C 728.859375 1358.929688 729.007812 1358.816406 729.171875 1358.722656 C 729.335938 1358.632812 729.507812 1358.558594 729.6875 1358.511719 C 729.871094 1358.464844 730.054688 1358.441406 730.246094 1358.441406 C 730.433594 1358.441406 730.617188 1358.464844 730.800781 1358.511719 C 730.980469 1358.558594 731.15625 1358.632812 731.320312 1358.722656 C 731.480469 1358.816406 731.628906 1358.929688 731.765625 1359.0625 C 731.898438 1359.195312 732.011719 1359.339844 732.109375 1359.503906 L 781.289062 1444.320312 C 781.484375 1444.648438 781.582031 1445.003906 781.582031 1445.386719 C 781.582031 1445.769531 781.484375 1446.125 781.289062 1446.457031 Z M 730.246094 1383.671875 C 729.753906 1383.671875 729.269531 1383.71875 728.789062 1383.816406 C 728.308594 1383.910156 727.84375 1384.050781 727.390625 1384.238281 C 726.9375 1384.425781 726.507812 1384.652344 726.101562 1384.921875 C 725.695312 1385.195312 725.316406 1385.503906 724.972656 1385.847656 C 724.625 1386.191406 724.316406 1386.566406 724.042969 1386.972656 C 723.773438 1387.378906 723.542969 1387.804688 723.355469 1388.257812 C 723.167969 1388.707031 723.027344 1389.171875 722.929688 1389.648438 C 722.835938 1390.128906 722.789062 1390.609375 722.789062 1391.097656 L 722.789062 1411.890625 C 722.789062 1412.15625 722.816406 1412.421875 722.871094 1412.683594 C 722.921875 1412.949219 723 1413.203125 723.105469 1413.449219 C 723.207031 1413.695312 723.335938 1413.929688 723.484375 1414.152344 C 723.632812 1414.375 723.804688 1414.582031 723.996094 1414.773438 C 724.183594 1414.960938 724.390625 1415.128906 724.613281 1415.28125 C 724.839844 1415.429688 725.074219 1415.554688 725.320312 1415.65625 C 725.570312 1415.761719 725.828125 1415.839844 726.089844 1415.890625 C 726.355469 1415.945312 726.621094 1415.972656 726.890625 1415.972656 L 733.601562 1415.972656 C 733.871094 1415.972656 734.136719 1415.945312 734.398438 1415.890625 C 734.664062 1415.839844 734.917969 1415.761719 735.167969 1415.65625 C 735.414062 1415.554688 735.652344 1415.429688 735.875 1415.28125 C 736.097656 1415.128906 736.304688 1414.960938 736.496094 1414.773438 C 736.683594 1414.582031 736.855469 1414.375 737.003906 1414.152344 C 737.15625 1413.929688 737.28125 1413.695312 737.386719 1413.449219 C 737.488281 1413.203125 737.566406 1412.949219 737.621094 1412.683594 C 737.671875 1412.421875 737.699219 1412.15625 737.703125 1411.890625 L 737.703125 1391.097656 C 737.703125 1390.609375 737.652344 1390.128906 737.558594 1389.648438 C 737.464844 1389.171875 737.320312 1388.707031 737.132812 1388.257812 C 736.945312 1387.804688 736.71875 1387.378906 736.445312 1386.972656 C 736.171875 1386.566406 735.863281 1386.191406 735.519531 1385.847656 C 735.171875 1385.503906 734.792969 1385.195312 734.386719 1384.921875 C 733.980469 1384.652344 733.550781 1384.425781 733.097656 1384.238281 C 732.644531 1384.050781 732.179688 1383.910156 731.699219 1383.816406 C 731.21875 1383.71875 730.734375 1383.671875 730.246094 1383.671875 Z M 733.972656 1411.890625 C 733.972656 1411.992188 733.9375 1412.078125 733.863281 1412.152344 C 733.792969 1412.222656 733.703125 1412.261719 733.601562 1412.261719 L 726.890625 1412.261719 C 726.785156 1412.261719 726.699219 1412.222656 726.625 1412.152344 C 726.550781 1412.078125 726.515625 1411.992188 726.515625 1411.890625 L 726.515625 1391.097656 C 726.515625 1390.605469 726.609375 1390.132812 726.800781 1389.675781 C 726.988281 1389.222656 727.257812 1388.820312 727.609375 1388.472656 C 727.957031 1388.125 728.359375 1387.855469 728.816406 1387.667969 C 729.273438 1387.480469 729.75 1387.386719 730.246094 1387.386719 C 730.738281 1387.386719 731.214844 1387.480469 731.671875 1387.667969 C 732.128906 1387.855469 732.53125 1388.125 732.882812 1388.472656 C 733.230469 1388.820312 733.5 1389.222656 733.691406 1389.675781 C 733.878906 1390.132812 733.972656 1390.605469 733.972656 1391.097656 Z M 730.246094 1420.429688 C 729.753906 1420.429688 729.269531 1420.476562 728.789062 1420.570312 C 728.308594 1420.667969 727.84375 1420.808594 727.390625 1420.992188 C 726.9375 1421.179688 726.507812 1421.410156 726.101562 1421.679688 C 725.695312 1421.949219 725.316406 1422.257812 724.972656 1422.605469 C 724.625 1422.949219 724.316406 1423.324219 724.042969 1423.730469 C 723.773438 1424.132812 723.542969 1424.5625 723.355469 1425.011719 C 723.167969 1425.464844 723.027344 1425.925781 722.929688 1426.40625 C 722.835938 1426.882812 722.789062 1427.367188 722.789062 1427.855469 C 722.789062 1428.34375 722.835938 1428.824219 722.929688 1429.304688 C 723.027344 1429.78125 723.167969 1430.246094 723.355469 1430.695312 C 723.542969 1431.144531 723.773438 1431.574219 724.042969 1431.980469 C 724.316406 1432.386719 724.625 1432.761719 724.972656 1433.105469 C 725.316406 1433.449219 725.695312 1433.757812 726.101562 1434.027344 C 726.507812 1434.300781 726.9375 1434.527344 727.390625 1434.714844 C 727.84375 1434.902344 728.308594 1435.042969 728.789062 1435.136719 C 729.269531 1435.230469 729.753906 1435.28125 730.246094 1435.28125 C 730.734375 1435.28125 731.21875 1435.230469 731.699219 1435.136719 C 732.179688 1435.042969 732.644531 1434.902344 733.097656 1434.714844 C 733.550781 1434.527344 733.980469 1434.300781 734.386719 1434.027344 C 734.792969 1433.757812 735.171875 1433.449219 735.519531 1433.105469 C 735.863281 1432.761719 736.171875 1432.386719 736.445312 1431.980469 C 736.71875 1431.574219 736.945312 1431.144531 737.132812 1430.695312 C 737.320312 1430.246094 737.464844 1429.78125 737.558594 1429.304688 C 737.652344 1428.824219 737.703125 1428.34375 737.703125 1427.855469 C 737.703125 1427.367188 737.652344 1426.882812 737.558594 1426.40625 C 737.464844 1425.925781 737.320312 1425.464844 737.132812 1425.011719 C 736.945312 1424.5625 736.71875 1424.132812 736.445312 1423.730469 C 736.171875 1423.324219 735.863281 1422.949219 735.519531 1422.605469 C 735.171875 1422.257812 734.792969 1421.949219 734.386719 1421.679688 C 733.980469 1421.410156 733.550781 1421.179688 733.097656 1420.992188 C 732.644531 1420.808594 732.179688 1420.667969 731.699219 1420.570312 C 731.21875 1420.476562 730.734375 1420.429688 730.246094 1420.429688 Z M 730.246094 1431.566406 C 729.75 1431.566406 729.273438 1431.472656 728.816406 1431.285156 C 728.359375 1431.097656 727.957031 1430.828125 727.609375 1430.480469 C 727.257812 1430.132812 726.988281 1429.730469 726.800781 1429.273438 C 726.609375 1428.820312 726.515625 1428.347656 726.515625 1427.855469 C 726.515625 1427.363281 726.609375 1426.886719 726.800781 1426.433594 C 726.988281 1425.980469 727.257812 1425.578125 727.609375 1425.230469 C 727.957031 1424.878906 728.359375 1424.613281 728.816406 1424.425781 C 729.273438 1424.234375 729.75 1424.140625 730.246094 1424.140625 C 730.738281 1424.140625 731.214844 1424.234375 731.671875 1424.425781 C 732.128906 1424.613281 732.53125 1424.878906 732.882812 1425.230469 C 733.230469 1425.578125 733.5 1425.980469 733.691406 1426.433594 C 733.878906 1426.886719 733.972656 1427.363281 733.972656 1427.855469 C 733.972656 1428.347656 733.878906 1428.820312 733.691406 1429.273438 C 733.5 1429.730469 733.230469 1430.132812 732.882812 1430.480469 C 732.53125 1430.828125 732.128906 1431.097656 731.671875 1431.285156 C 731.214844 1431.472656 730.738281 1431.566406 730.246094 1431.566406 Z M 730.246094 1431.566406 " fill-opacity="1" fill-rule="nonzero"/>

</g>
</svg>