<svg xmlns="http://www.w3.org/2000/svg" viewBox="0 0 78.67968699999983 78.67968799999994">
<g transform="translate(-1041.027344,-1104.8125)">
<path fill="#000000" d="M 1080.359375 1104.8125 C 1069.847656 1104.8125 1059.964844 1108.902344 1052.535156 1116.335938 C 1037.191406 1131.675781 1037.191406 1156.628906 1052.535156 1171.96875 C 1059.964844 1179.402344 1069.847656 1183.492188 1080.359375 1183.492188 C 1090.871094 1183.492188 1100.75 1179.402344 1108.183594 1171.96875 C 1115.613281 1164.542969 1119.707031 1154.660156 1119.707031 1144.152344 C 1119.707031 1133.644531 1115.617188 1123.765625 1108.183594 1116.335938 C 1100.753906 1108.902344 1090.871094 1104.8125 1080.359375 1104.8125 Z M 1044.964844 1144.292969 C 1045.820312 1142.875 1050.535156 1135.894531 1060.605469 1135.171875 C 1061.9375 1135.074219 1063.265625 1135.003906 1064.589844 1134.929688 C 1072.554688 1134.496094 1080.746094 1134.035156 1085.304688 1128.554688 C 1086.773438 1129.597656 1088.222656 1130.769531 1089.648438 1132.082031 L 1053.992188 1167.730469 C 1048.027344 1161.070312 1044.996094 1152.699219 1044.964844 1144.292969 Z M 1054.886719 1119.59375 C 1063.859375 1120.160156 1073.164062 1121.304688 1081.953125 1126.386719 C 1078.386719 1130.222656 1071.816406 1130.597656 1064.375 1131.003906 C 1063.03125 1131.078125 1061.675781 1131.152344 1060.324219 1131.25 C 1053.414062 1131.742188 1048.632812 1134.699219 1045.589844 1137.492188 C 1046.832031 1130.957031 1049.941406 1124.714844 1054.882812 1119.59375 Z M 1092.433594 1129.304688 C 1090.761719 1127.757812 1089.0625 1126.386719 1087.339844 1125.179688 C 1090.007812 1118.972656 1088.058594 1113.113281 1085.476562 1109.152344 C 1092.347656 1110.140625 1098.722656 1113.113281 1103.949219 1117.792969 L 1092.4375 1129.304688 Z M 1080.140625 1108.757812 C 1081.675781 1110.339844 1086.507812 1116.097656 1083.957031 1123.019531 C 1075.707031 1118.257812 1067.078125 1116.671875 1059 1115.957031 C 1065.0625 1111.347656 1072.402344 1108.808594 1080.144531 1108.761719 Z M 1092.433594 1134.867188 C 1093.746094 1136.296875 1094.921875 1137.746094 1095.964844 1139.214844 C 1090.484375 1143.769531 1090.019531 1151.957031 1089.585938 1159.921875 C 1089.511719 1161.246094 1089.441406 1162.574219 1089.347656 1163.90625 C 1088.621094 1174.074219 1081.609375 1178.722656 1080.199219 1179.5625 C 1071.460938 1179.519531 1063.238281 1176.3125 1056.773438 1170.519531 L 1092.433594 1134.871094 Z M 1093.273438 1164.183594 C 1093.371094 1162.828125 1093.445312 1161.476562 1093.519531 1160.132812 C 1093.929688 1152.695312 1094.304688 1146.125 1098.136719 1142.558594 C 1103.222656 1151.34375 1104.363281 1160.644531 1104.929688 1169.621094 C 1099.914062 1174.457031 1093.734375 1177.65625 1087.019531 1178.925781 C 1089.816406 1175.882812 1092.78125 1171.097656 1093.269531 1164.179688 Z M 1101.507812 1140.558594 C 1108.433594 1138.003906 1114.191406 1142.84375 1115.769531 1144.371094 C 1115.722656 1152.113281 1113.183594 1159.449219 1108.570312 1165.515625 C 1107.855469 1157.441406 1106.273438 1148.8125 1101.511719 1140.5625 Z M 1099.339844 1137.179688 C 1098.132812 1135.453125 1096.761719 1133.753906 1095.214844 1132.085938 L 1106.726562 1120.578125 C 1111.40625 1125.796875 1114.382812 1132.175781 1115.371094 1139.046875 C 1111.40625 1136.464844 1105.550781 1134.515625 1099.339844 1137.183594 Z M 1099.339844 1137.179688 " fill-opacity="1" fill-rule="nonzero"/>

</g>
</svg>