<svg xmlns="http://www.w3.org/2000/svg" viewBox="0 0 74.1875 82.42578099999992">
<g transform="translate(-840.316406,-931.773438)">
<path fill="#000000" d="M 889.238281 948.664062 C 886.921875 948.664062 884.644531 948.972656 882.414062 949.589844 C 883.25 945.253906 887.246094 941.746094 892.523438 940.949219 C 893.054688 940.871094 893.554688 940.707031 894.023438 940.449219 C 894.492188 940.195312 894.902344 939.863281 895.253906 939.460938 C 895.605469 939.054688 895.875 938.601562 896.058594 938.101562 C 896.246094 937.597656 896.339844 937.078125 896.339844 936.542969 L 896.339844 936.421875 C 896.339844 936.101562 896.304688 935.789062 896.238281 935.476562 C 896.167969 935.164062 896.070312 934.867188 895.9375 934.574219 C 895.804688 934.285156 895.644531 934.015625 895.453125 933.757812 C 895.261719 933.503906 895.046875 933.273438 894.808594 933.0625 C 894.566406 932.855469 894.308594 932.671875 894.03125 932.519531 C 893.75 932.367188 893.457031 932.246094 893.152344 932.15625 C 892.847656 932.066406 892.539062 932.007812 892.222656 931.984375 C 891.90625 931.960938 891.589844 931.972656 891.273438 932.015625 C 886.152344 932.722656 881.445312 935.019531 878.019531 938.480469 C 877.996094 938.507812 877.96875 938.53125 877.945312 938.558594 C 875.753906 934.425781 871.644531 931.777344 866.804688 931.777344 L 856.628906 931.777344 C 856.414062 931.777344 856.210938 931.820312 856.011719 931.902344 C 855.8125 931.984375 855.640625 932.101562 855.488281 932.253906 C 855.335938 932.402344 855.222656 932.578125 855.140625 932.777344 C 855.058594 932.976562 855.015625 933.179688 855.015625 933.394531 L 855.015625 933.5625 C 855.015625 934.421875 855.101562 935.269531 855.269531 936.113281 C 855.4375 936.957031 855.6875 937.773438 856.015625 938.566406 C 856.34375 939.363281 856.746094 940.117188 857.222656 940.828125 C 857.699219 941.542969 858.242188 942.207031 858.847656 942.8125 C 859.453125 943.421875 860.113281 943.960938 860.824219 944.441406 C 861.539062 944.917969 862.289062 945.320312 863.082031 945.652344 C 863.875 945.980469 864.691406 946.226562 865.53125 946.398438 C 866.371094 946.566406 867.222656 946.648438 868.078125 946.652344 L 873.207031 946.652344 C 872.933594 947.636719 872.746094 948.640625 872.648438 949.660156 C 870.339844 948.996094 867.984375 948.664062 865.582031 948.664062 C 851.652344 948.664062 840.316406 959.871094 840.316406 973.640625 C 840.316406 987.167969 851.242188 1014.195312 865.582031 1014.195312 C 869.761719 1014.195312 873.703125 1013.230469 877.410156 1011.292969 C 881.117188 1013.230469 885.058594 1014.195312 889.238281 1014.195312 C 895.675781 1014.195312 902.121094 1008.691406 907.386719 998.703125 C 911.644531 990.628906 914.503906 980.558594 914.503906 973.640625 C 914.503906 959.871094 903.167969 948.664062 889.238281 948.664062 Z M 874.453125 943.417969 L 868.078125 943.417969 C 867.496094 943.417969 866.914062 943.367188 866.339844 943.261719 C 865.761719 943.15625 865.203125 943.003906 864.652344 942.796875 C 864.105469 942.59375 863.582031 942.34375 863.078125 942.042969 C 862.574219 941.746094 862.101562 941.40625 861.65625 941.023438 C 861.214844 940.640625 860.808594 940.222656 860.441406 939.765625 C 860.070312 939.3125 859.746094 938.828125 859.464844 938.316406 C 859.183594 937.800781 858.945312 937.269531 858.757812 936.710938 C 858.570312 936.15625 858.433594 935.589844 858.347656 935.011719 L 866.804688 935.011719 C 867.773438 935.007812 868.722656 935.148438 869.648438 935.429688 C 870.574219 935.707031 871.445312 936.117188 872.25 936.652344 C 873.058594 937.191406 873.769531 937.832031 874.386719 938.582031 C 875.003906 939.328125 875.5 940.152344 875.871094 941.046875 C 875.34375 941.804688 874.871094 942.59375 874.453125 943.417969 Z M 875.804688 950.796875 C 876.082031 943.097656 882.828125 936.445312 891.714844 935.21875 C 892.089844 935.164062 892.417969 935.261719 892.699219 935.507812 C 892.976562 935.75 893.117188 936.054688 893.113281 936.421875 L 893.113281 936.542969 C 893.113281 936.847656 893.007812 937.117188 892.804688 937.347656 C 892.601562 937.578125 892.347656 937.710938 892.046875 937.75 C 884.6875 938.863281 879.296875 944.300781 879.03125 950.789062 C 878.484375 951.035156 877.941406 951.285156 877.410156 951.566406 C 876.886719 951.289062 876.347656 951.039062 875.804688 950.796875 Z M 904.535156 997.195312 C 899.921875 1005.945312 894.347656 1010.960938 889.238281 1010.960938 C 885.304688 1010.964844 881.628906 1009.992188 878.207031 1008.046875 C 877.960938 1007.90625 877.695312 1007.835938 877.410156 1007.835938 C 877.125 1007.835938 876.859375 1007.90625 876.609375 1008.046875 C 873.191406 1009.992188 869.515625 1010.964844 865.582031 1010.960938 C 860.472656 1010.960938 854.894531 1005.941406 850.285156 997.195312 C 846.253906 989.542969 843.542969 980.078125 843.542969 973.640625 C 843.542969 961.652344 853.429688 951.898438 865.582031 951.898438 C 869.515625 951.894531 873.191406 952.863281 876.609375 954.8125 C 876.859375 954.953125 877.125 955.023438 877.410156 955.023438 C 877.695312 955.023438 877.960938 954.953125 878.207031 954.8125 C 881.628906 952.863281 885.304688 951.894531 889.238281 951.898438 C 901.390625 951.898438 911.277344 961.652344 911.277344 973.640625 C 911.277344 980.078125 908.566406 989.542969 904.535156 997.195312 Z M 904.535156 997.195312 " fill-opacity="1" fill-rule="nonzero"/>

</g>
</svg>