<svg xmlns="http://www.w3.org/2000/svg" viewBox="0 0 119.144531 122.14453099999992">
<g transform="translate(-212.761719,-1313.03125)">
<path fill="#000000" d="M 220.484375 1395.199219 C 220.65625 1395.703125 220.871094 1396.191406 221.136719 1396.652344 C 221.402344 1397.117188 221.710938 1397.550781 222.0625 1397.953125 C 222.414062 1398.355469 222.800781 1398.71875 223.222656 1399.046875 C 223.644531 1399.375 224.09375 1399.65625 224.574219 1399.890625 C 225.050781 1400.128906 225.550781 1400.316406 226.066406 1400.457031 C 226.578125 1400.597656 227.105469 1400.683594 227.636719 1400.71875 C 228.167969 1400.753906 228.699219 1400.738281 229.230469 1400.667969 C 229.757812 1400.597656 230.277344 1400.476562 230.78125 1400.304688 C 249.175781 1394.105469 262.8125 1393.304688 271.320312 1397.929688 C 271.789062 1398.179688 272.277344 1398.386719 272.785156 1398.542969 C 273.292969 1398.703125 273.8125 1398.808594 274.339844 1398.867188 C 274.867188 1398.921875 275.398438 1398.925781 275.925781 1398.878906 C 276.457031 1398.828125 276.976562 1398.730469 277.488281 1398.582031 C 277.996094 1398.433594 278.488281 1398.234375 278.960938 1397.988281 C 279.429688 1397.742188 279.875 1397.453125 280.289062 1397.121094 C 280.703125 1396.785156 281.082031 1396.417969 281.421875 1396.007812 C 281.765625 1395.601562 282.066406 1395.164062 282.324219 1394.699219 C 283.734375 1392.335938 285.085938 1389.777344 286.511719 1387.070312 C 291.132812 1378.3125 295.90625 1369.257812 303.011719 1366.488281 C 307.308594 1364.8125 317.378906 1360.886719 317.09375 1352.863281 C 316.867188 1346.597656 310.699219 1343.421875 305.800781 1341.5625 C 305.726562 1340.824219 305.578125 1340.105469 305.351562 1339.398438 C 305.125 1338.695312 304.828125 1338.019531 304.457031 1337.378906 C 304.089844 1336.738281 303.65625 1336.140625 303.160156 1335.59375 C 302.664062 1335.042969 302.113281 1334.550781 301.515625 1334.117188 C 300.914062 1333.683594 300.277344 1333.320312 299.597656 1333.023438 C 298.917969 1332.726562 298.21875 1332.503906 297.492188 1332.355469 C 296.769531 1332.207031 296.035156 1332.136719 295.296875 1332.144531 C 294.554688 1332.152344 293.824219 1332.238281 293.101562 1332.402344 C 290.835938 1332.910156 288.949219 1334.046875 287.445312 1335.816406 C 282.375 1334.5625 275.542969 1333.6875 271.808594 1338.683594 C 267.035156 1345.070312 272.96875 1353.96875 275.574219 1357.835938 C 275.773438 1358.664062 275.097656 1362.285156 272.390625 1368.757812 C 271.191406 1371.652344 269.835938 1374.464844 268.320312 1377.207031 C 257.296875 1372.9375 243.027344 1372.425781 224.773438 1375.640625 C 224.25 1375.734375 223.738281 1375.878906 223.242188 1376.070312 C 222.742188 1376.265625 222.269531 1376.503906 221.820312 1376.792969 C 221.371094 1377.078125 220.953125 1377.40625 220.566406 1377.777344 C 220.183594 1378.144531 219.835938 1378.546875 219.53125 1378.984375 C 219.222656 1379.421875 218.964844 1379.882812 218.75 1380.371094 C 218.535156 1380.859375 218.367188 1381.367188 218.25 1381.886719 C 218.136719 1382.40625 218.070312 1382.933594 218.058594 1383.46875 C 218.046875 1384 218.085938 1384.53125 218.175781 1385.058594 C 218.496094 1386.84375 219.320312 1388.355469 220.644531 1389.59375 C 220.285156 1390.488281 220.09375 1391.417969 220.066406 1392.382812 C 220.039062 1393.34375 220.179688 1394.285156 220.484375 1395.199219 Z M 293.832031 1335.65625 C 294.359375 1335.539062 294.890625 1335.480469 295.429688 1335.484375 C 295.96875 1335.484375 296.503906 1335.546875 297.027344 1335.671875 C 297.550781 1335.796875 298.058594 1335.976562 298.539062 1336.214844 C 299.023438 1336.453125 299.476562 1336.742188 299.894531 1337.082031 C 300.3125 1337.421875 300.6875 1337.804688 301.019531 1338.230469 C 301.351562 1338.65625 301.628906 1339.117188 301.859375 1339.605469 C 302.085938 1340.09375 302.253906 1340.601562 302.367188 1341.132812 C 302.480469 1341.660156 302.53125 1342.191406 302.523438 1342.734375 L 302.523438 1342.738281 C 302.515625 1343.371094 302.421875 1343.992188 302.246094 1344.605469 C 302.070312 1345.214844 301.816406 1345.789062 301.488281 1346.332031 C 301.160156 1346.875 300.765625 1347.367188 300.304688 1347.800781 C 299.847656 1348.238281 299.335938 1348.609375 298.78125 1348.910156 C 298.222656 1349.210938 297.632812 1349.4375 297.015625 1349.582031 C 296.398438 1349.726562 295.773438 1349.785156 295.140625 1349.761719 C 294.503906 1349.742188 293.886719 1349.636719 293.28125 1349.449219 C 292.675781 1349.261719 292.105469 1348.996094 291.566406 1348.65625 C 290.765625 1348.152344 290.09375 1347.511719 289.550781 1346.738281 C 289.003906 1345.960938 288.632812 1345.113281 288.425781 1344.1875 C 288.328125 1343.730469 288.269531 1343.265625 288.261719 1342.796875 C 288.25 1342.328125 288.285156 1341.863281 288.367188 1341.402344 C 288.445312 1340.941406 288.570312 1340.492188 288.742188 1340.054688 C 288.910156 1339.617188 289.121094 1339.199219 289.371094 1338.804688 C 289.621094 1338.410156 289.910156 1338.042969 290.230469 1337.703125 C 290.554688 1337.363281 290.90625 1337.058594 291.289062 1336.789062 C 291.671875 1336.519531 292.078125 1336.289062 292.507812 1336.097656 C 292.933594 1335.90625 293.375 1335.761719 293.832031 1335.65625 Z M 301.011719 1352.964844 C 301.285156 1353.066406 301.675781 1353.21875 302.109375 1353.398438 C 300.78125 1354.046875 299.375 1354.640625 298.53125 1354.972656 C 293.28125 1357.019531 289.019531 1355.683594 285.867188 1351 C 285.300781 1350.15625 284.511719 1348.902344 283.824219 1347.671875 C 284.273438 1347.769531 284.675781 1347.867188 284.976562 1347.945312 C 285.472656 1348.070312 285.972656 1348.136719 286.480469 1348.140625 C 286.953125 1348.898438 287.507812 1349.585938 288.152344 1350.199219 C 288.796875 1350.816406 289.507812 1351.339844 290.285156 1351.773438 C 291.0625 1352.210938 291.882812 1352.539062 292.742188 1352.765625 C 293.605469 1352.992188 294.480469 1353.105469 295.371094 1353.109375 C 296.839844 1353.109375 298.25 1352.8125 299.59375 1352.21875 C 300.035156 1352.53125 300.507812 1352.777344 301.011719 1352.964844 Z M 275.6875 1369.507812 C 280.144531 1358.660156 278.867188 1356.761719 278.386719 1356.046875 C 274.992188 1351 271.476562 1344.699219 274.480469 1340.679688 C 276.84375 1337.515625 281.679688 1337.933594 285.644531 1338.820312 C 284.917969 1340.675781 284.734375 1342.582031 285.101562 1344.542969 C 283.765625 1344.21875 282.414062 1343.996094 281.046875 1343.875 C 280.910156 1343.867188 280.773438 1343.875 280.640625 1343.902344 C 280.503906 1343.925781 280.375 1343.96875 280.25 1344.027344 C 280.125 1344.085938 280.007812 1344.15625 279.902344 1344.242188 C 279.796875 1344.328125 279.699219 1344.429688 279.617188 1344.539062 C 279.535156 1344.648438 279.46875 1344.765625 279.414062 1344.894531 C 279.363281 1345.019531 279.324219 1345.152344 279.304688 1345.289062 C 279.28125 1345.421875 279.277344 1345.558594 279.292969 1345.695312 C 279.304688 1345.832031 279.335938 1345.96875 279.378906 1346.097656 C 280.304688 1348.699219 282.992188 1352.699219 283.105469 1352.867188 C 285.933594 1357.074219 289.699219 1359.234375 294.023438 1359.234375 C 296.003906 1359.210938 297.910156 1358.824219 299.742188 1358.082031 C 300.226562 1357.890625 304.492188 1356.195312 306.652344 1354.640625 C 306.765625 1354.558594 306.867188 1354.46875 306.953125 1354.363281 C 307.042969 1354.257812 307.117188 1354.144531 307.175781 1354.019531 C 307.238281 1353.894531 307.28125 1353.765625 307.308594 1353.632812 C 307.339844 1353.5 307.351562 1353.363281 307.34375 1353.226562 C 307.339844 1353.085938 307.320312 1352.953125 307.28125 1352.820312 C 307.242188 1352.6875 307.1875 1352.5625 307.121094 1352.445312 C 307.050781 1352.328125 306.96875 1352.21875 306.871094 1352.121094 C 306.777344 1352.023438 306.667969 1351.9375 306.550781 1351.863281 C 305.332031 1351.164062 304.066406 1350.5625 302.753906 1350.0625 C 304.164062 1348.660156 305.101562 1346.992188 305.570312 1345.058594 C 309.359375 1346.597656 313.621094 1349.015625 313.765625 1352.988281 C 313.941406 1358 307.464844 1361.175781 301.800781 1363.382812 C 293.539062 1366.605469 288.242188 1376.652344 283.566406 1385.515625 C 282.152344 1388.191406 280.820312 1390.722656 279.445312 1393.015625 C 279.433594 1393.035156 279.421875 1393.054688 279.414062 1393.078125 C 279.261719 1393.351562 279.085938 1393.613281 278.882812 1393.851562 C 278.683594 1394.09375 278.460938 1394.3125 278.214844 1394.511719 C 277.96875 1394.710938 277.707031 1394.882812 277.429688 1395.027344 C 277.152344 1395.175781 276.863281 1395.292969 276.558594 1395.382812 C 276.257812 1395.472656 275.949219 1395.53125 275.636719 1395.558594 C 275.324219 1395.589844 275.011719 1395.585938 274.699219 1395.554688 C 274.386719 1395.519531 274.078125 1395.457031 273.777344 1395.367188 C 273.480469 1395.273438 273.191406 1395.152344 272.914062 1395.003906 C 263.558594 1389.917969 249.023438 1390.640625 229.714844 1397.148438 C 229.417969 1397.25 229.113281 1397.320312 228.800781 1397.359375 C 228.488281 1397.402344 228.175781 1397.410156 227.863281 1397.390625 C 227.546875 1397.367188 227.238281 1397.316406 226.9375 1397.234375 C 226.632812 1397.152344 226.339844 1397.042969 226.058594 1396.902344 C 225.777344 1396.761719 225.511719 1396.597656 225.261719 1396.402344 C 225.011719 1396.210938 224.785156 1395.996094 224.578125 1395.761719 C 224.371094 1395.523438 224.1875 1395.269531 224.03125 1394.996094 C 223.875 1394.722656 223.746094 1394.4375 223.644531 1394.140625 C 223.542969 1393.84375 223.472656 1393.535156 223.433594 1393.222656 C 223.394531 1392.914062 223.386719 1392.597656 223.40625 1392.285156 C 223.429688 1391.972656 223.480469 1391.664062 223.5625 1391.359375 C 223.644531 1391.054688 223.753906 1390.761719 223.894531 1390.480469 C 224.035156 1390.199219 224.199219 1389.933594 224.390625 1389.683594 C 224.582031 1389.433594 224.796875 1389.203125 225.035156 1388.996094 C 225.269531 1388.789062 225.523438 1388.605469 225.796875 1388.449219 C 226.070312 1388.292969 226.355469 1388.164062 226.652344 1388.0625 C 243.15625 1382.496094 256.433594 1380.824219 267.246094 1382.957031 C 267.53125 1383.011719 267.808594 1382.996094 268.085938 1382.90625 C 268.359375 1382.816406 268.59375 1382.667969 268.792969 1382.457031 C 269.394531 1381.765625 269.929688 1381.03125 270.398438 1380.246094 C 270.402344 1380.242188 270.402344 1380.234375 270.40625 1380.230469 L 270.441406 1380.175781 C 270.457031 1380.152344 270.472656 1380.125 270.488281 1380.097656 C 272.226562 1377.273438 274.238281 1373.03125 275.6875 1369.507812 Z M 222.261719 1380.898438 C 222.625 1380.378906 223.070312 1379.945312 223.609375 1379.601562 C 224.144531 1379.261719 224.722656 1379.035156 225.351562 1378.925781 C 240.820312 1376.203125 253.25 1376.214844 263.117188 1378.984375 C 252.679688 1377.972656 240.34375 1379.917969 225.585938 1384.894531 C 224.429688 1385.285156 223.414062 1385.90625 222.539062 1386.757812 C 222.195312 1386.355469 221.921875 1385.90625 221.726562 1385.414062 C 221.527344 1384.917969 221.417969 1384.40625 221.390625 1383.875 C 221.367188 1383.347656 221.429688 1382.824219 221.578125 1382.316406 C 221.726562 1381.804688 221.953125 1381.332031 222.261719 1380.898438 Z M 320.605469 1359.054688 C 304.8125 1368.265625 295.429688 1386.722656 287.144531 1403.003906 C 286.796875 1403.691406 286.453125 1404.371094 286.109375 1405.046875 C 275.296875 1400.863281 263.785156 1398.671875 253.519531 1398.851562 C 240.582031 1399.078125 229.816406 1403.078125 222.390625 1410.425781 C 222.007812 1410.804688 221.671875 1411.21875 221.378906 1411.671875 C 221.085938 1412.125 220.84375 1412.601562 220.652344 1413.105469 C 220.464844 1413.609375 220.328125 1414.128906 220.25 1414.660156 C 220.171875 1415.195312 220.152344 1415.730469 220.1875 1416.265625 C 220.226562 1416.804688 220.320312 1417.332031 220.46875 1417.851562 C 220.621094 1418.367188 220.824219 1418.863281 221.082031 1419.335938 C 221.339844 1419.808594 221.644531 1420.25 221.996094 1420.65625 C 222.347656 1421.066406 222.738281 1421.429688 223.171875 1421.753906 C 222.582031 1422.34375 222.128906 1423.019531 221.8125 1423.789062 C 221.496094 1424.558594 221.335938 1425.359375 221.335938 1426.1875 L 221.335938 1428.816406 C 221.335938 1429.230469 221.378906 1429.636719 221.457031 1430.042969 C 221.539062 1430.449219 221.65625 1430.839844 221.816406 1431.222656 C 221.972656 1431.601562 222.167969 1431.964844 222.398438 1432.308594 C 222.625 1432.652344 222.886719 1432.96875 223.179688 1433.261719 C 223.46875 1433.554688 223.785156 1433.8125 224.128906 1434.042969 C 224.472656 1434.273438 224.835938 1434.464844 225.214844 1434.625 C 225.597656 1434.78125 225.988281 1434.902344 226.394531 1434.984375 C 226.796875 1435.0625 227.207031 1435.105469 227.617188 1435.105469 L 325.382812 1435.105469 C 325.796875 1435.105469 326.203125 1435.0625 326.609375 1434.984375 C 327.011719 1434.902344 327.40625 1434.78125 327.785156 1434.625 C 328.167969 1434.464844 328.53125 1434.273438 328.871094 1434.042969 C 329.214844 1433.8125 329.53125 1433.554688 329.824219 1433.261719 C 330.117188 1432.96875 330.375 1432.652344 330.605469 1432.308594 C 330.835938 1431.964844 331.027344 1431.605469 331.1875 1431.222656 C 331.34375 1430.839844 331.464844 1430.449219 331.542969 1430.042969 C 331.625 1429.640625 331.664062 1429.230469 331.667969 1428.816406 L 331.667969 1426.191406 C 331.664062 1425.777344 331.625 1425.371094 331.542969 1424.964844 C 331.464844 1424.558594 331.34375 1424.167969 331.1875 1423.785156 C 331.027344 1423.40625 330.835938 1423.042969 330.605469 1422.699219 C 330.375 1422.355469 330.117188 1422.039062 329.824219 1421.746094 C 329.53125 1421.457031 329.214844 1421.195312 328.871094 1420.964844 C 328.53125 1420.734375 328.167969 1420.542969 327.785156 1420.382812 C 327.40625 1420.226562 327.011719 1420.105469 326.609375 1420.027344 C 326.203125 1419.945312 325.796875 1419.902344 325.382812 1419.902344 L 295.183594 1419.902344 C 295.695312 1419.332031 296.109375 1418.695312 296.425781 1417.992188 C 296.914062 1416.929688 297.410156 1415.855469 297.90625 1414.761719 C 305.238281 1398.710938 313.542969 1380.519531 328.148438 1372 C 328.574219 1371.75 328.96875 1371.464844 329.335938 1371.136719 C 329.707031 1370.8125 330.039062 1370.453125 330.335938 1370.0625 C 330.632812 1369.671875 330.890625 1369.253906 331.105469 1368.8125 C 331.320312 1368.371094 331.492188 1367.910156 331.617188 1367.433594 C 331.742188 1366.957031 331.820312 1366.476562 331.847656 1365.984375 C 331.878906 1365.492188 331.859375 1365.003906 331.792969 1364.515625 C 331.726562 1364.027344 331.613281 1363.554688 331.453125 1363.085938 C 331.296875 1362.621094 331.089844 1362.175781 330.84375 1361.753906 C 330.597656 1361.328125 330.308594 1360.929688 329.984375 1360.5625 C 329.65625 1360.195312 329.300781 1359.859375 328.90625 1359.5625 C 328.515625 1359.265625 328.101562 1359.007812 327.660156 1358.792969 C 327.214844 1358.578125 326.757812 1358.40625 326.28125 1358.28125 C 325.808594 1358.15625 325.324219 1358.078125 324.832031 1358.046875 C 324.34375 1358.019531 323.855469 1358.035156 323.367188 1358.101562 C 322.878906 1358.167969 322.402344 1358.28125 321.941406 1358.441406 C 321.476562 1358.601562 321.03125 1358.808594 320.605469 1359.054688 Z M 328.332031 1426.191406 L 328.332031 1428.816406 C 328.332031 1429.210938 328.257812 1429.585938 328.109375 1429.945312 C 327.957031 1430.308594 327.746094 1430.628906 327.46875 1430.902344 C 327.191406 1431.179688 326.875 1431.394531 326.511719 1431.542969 C 326.152344 1431.695312 325.777344 1431.769531 325.382812 1431.769531 L 227.617188 1431.769531 C 227.226562 1431.769531 226.851562 1431.695312 226.492188 1431.542969 C 226.128906 1431.394531 225.808594 1431.179688 225.535156 1430.902344 C 225.257812 1430.628906 225.042969 1430.308594 224.894531 1429.945312 C 224.746094 1429.585938 224.671875 1429.210938 224.667969 1428.816406 L 224.667969 1426.191406 C 224.671875 1425.804688 224.742188 1425.429688 224.890625 1425.074219 C 225.039062 1424.714844 225.246094 1424.398438 225.519531 1424.121094 C 225.789062 1423.84375 226.105469 1423.632812 226.460938 1423.480469 C 226.816406 1423.328125 227.1875 1423.246094 227.574219 1423.242188 C 227.585938 1423.242188 227.597656 1423.242188 227.613281 1423.242188 L 227.65625 1423.242188 C 227.707031 1423.242188 227.753906 1423.238281 227.804688 1423.238281 L 325.382812 1423.238281 C 325.773438 1423.238281 326.152344 1423.3125 326.511719 1423.464844 C 326.875 1423.613281 327.191406 1423.828125 327.46875 1424.105469 C 327.746094 1424.378906 327.957031 1424.699219 328.109375 1425.0625 C 328.257812 1425.421875 328.332031 1425.800781 328.332031 1426.191406 Z M 234.207031 1419.902344 C 241.402344 1413.765625 251.085938 1412.898438 258.140625 1413.308594 C 266.246094 1413.777344 275.136719 1416.152344 283.015625 1419.902344 Z M 327.964844 1363.429688 C 328.101562 1363.664062 328.214844 1363.910156 328.304688 1364.167969 C 328.390625 1364.425781 328.453125 1364.691406 328.492188 1364.960938 C 328.527344 1365.234375 328.535156 1365.503906 328.519531 1365.777344 C 328.503906 1366.050781 328.460938 1366.316406 328.390625 1366.582031 C 328.320312 1366.847656 328.226562 1367.101562 328.105469 1367.347656 C 327.988281 1367.589844 327.84375 1367.824219 327.679688 1368.039062 C 327.515625 1368.257812 327.332031 1368.457031 327.125 1368.636719 C 326.921875 1368.820312 326.703125 1368.980469 326.46875 1369.117188 C 310.953125 1378.167969 302.410156 1396.875 294.875 1413.375 C 294.375 1414.464844 293.886719 1415.539062 293.398438 1416.601562 C 293.28125 1416.859375 293.136719 1417.105469 292.96875 1417.332031 C 292.800781 1417.5625 292.609375 1417.769531 292.398438 1417.960938 C 292.1875 1418.152344 291.957031 1418.316406 291.710938 1418.460938 C 291.46875 1418.601562 291.210938 1418.71875 290.941406 1418.808594 C 290.671875 1418.898438 290.394531 1418.960938 290.113281 1418.992188 C 289.832031 1419.027344 289.546875 1419.03125 289.265625 1419.003906 C 288.980469 1418.980469 288.703125 1418.925781 288.433594 1418.84375 C 288.160156 1418.761719 287.898438 1418.652344 287.652344 1418.519531 C 278.664062 1413.648438 267.976562 1410.535156 258.332031 1409.976562 C 246.632812 1409.300781 237.039062 1412.320312 230.578125 1418.710938 C 229.800781 1419.476562 228.867188 1419.875 227.777344 1419.902344 L 227.621094 1419.902344 C 227.597656 1419.902344 227.574219 1419.902344 227.550781 1419.902344 C 227.144531 1419.894531 226.746094 1419.824219 226.359375 1419.699219 C 225.972656 1419.574219 225.613281 1419.394531 225.277344 1419.160156 C 224.945312 1418.925781 224.652344 1418.652344 224.398438 1418.332031 C 224.144531 1418.011719 223.941406 1417.664062 223.792969 1417.285156 C 223.644531 1416.90625 223.550781 1416.511719 223.515625 1416.105469 C 223.480469 1415.699219 223.503906 1415.296875 223.589844 1414.898438 C 223.671875 1414.5 223.8125 1414.121094 224.007812 1413.761719 C 224.203125 1413.40625 224.445312 1413.082031 224.734375 1412.796875 C 232.519531 1405.09375 243.394531 1402.191406 254.667969 1402.191406 C 265.648438 1402.191406 277.007812 1404.945312 286.277344 1408.699219 C 286.46875 1408.777344 286.671875 1408.816406 286.878906 1408.820312 C 287.085938 1408.824219 287.289062 1408.789062 287.484375 1408.714844 C 287.679688 1408.644531 287.855469 1408.539062 288.007812 1408.398438 C 288.164062 1408.261719 288.289062 1408.101562 288.386719 1407.914062 C 288.957031 1406.796875 289.535156 1405.664062 290.117188 1404.519531 C 298.191406 1388.644531 307.339844 1370.65625 322.285156 1361.9375 C 322.519531 1361.800781 322.765625 1361.6875 323.023438 1361.597656 C 323.28125 1361.507812 323.546875 1361.445312 323.816406 1361.410156 C 324.085938 1361.375 324.355469 1361.363281 324.628906 1361.378906 C 324.902344 1361.394531 325.167969 1361.4375 325.433594 1361.507812 C 325.695312 1361.578125 325.949219 1361.671875 326.195312 1361.792969 C 326.441406 1361.910156 326.671875 1362.050781 326.890625 1362.21875 C 327.105469 1362.382812 327.304688 1362.566406 327.484375 1362.769531 C 327.667969 1362.972656 327.828125 1363.191406 327.964844 1363.429688 Z M 238.226562 1330.816406 C 238.445312 1330.816406 238.660156 1330.859375 238.863281 1330.941406 C 239.070312 1331.027344 239.25 1331.148438 239.40625 1331.304688 C 239.5625 1331.460938 239.683594 1331.640625 239.765625 1331.847656 C 239.851562 1332.050781 239.894531 1332.261719 239.894531 1332.484375 L 239.894531 1339.886719 C 239.894531 1340.453125 239.664062 1340.902344 239.203125 1341.234375 L 234.550781 1344.613281 C 234.371094 1344.734375 234.175781 1344.816406 233.960938 1344.863281 C 233.75 1344.90625 233.539062 1344.910156 233.324219 1344.871094 C 233.113281 1344.835938 232.914062 1344.757812 232.730469 1344.644531 C 232.546875 1344.527344 232.390625 1344.382812 232.265625 1344.207031 C 232.136719 1344.03125 232.050781 1343.839844 231.996094 1343.628906 C 231.945312 1343.421875 231.933594 1343.207031 231.964844 1342.992188 C 231.996094 1342.777344 232.066406 1342.578125 232.171875 1342.390625 C 232.28125 1342.203125 232.421875 1342.042969 232.59375 1341.910156 L 236.558594 1339.035156 L 236.558594 1332.484375 C 236.558594 1332.261719 236.601562 1332.050781 236.683594 1331.84375 C 236.769531 1331.640625 236.890625 1331.460938 237.046875 1331.304688 C 237.203125 1331.148438 237.382812 1331.027344 237.589844 1330.941406 C 237.792969 1330.859375 238.003906 1330.816406 238.226562 1330.816406 Z M 219.5 1338.601562 C 219.5 1339.214844 219.53125 1339.828125 219.589844 1340.4375 C 219.652344 1341.050781 219.742188 1341.65625 219.859375 1342.257812 C 219.980469 1342.859375 220.128906 1343.457031 220.304688 1344.042969 C 220.484375 1344.632812 220.691406 1345.207031 220.925781 1345.777344 C 221.160156 1346.34375 221.421875 1346.898438 221.710938 1347.4375 C 222 1347.980469 222.316406 1348.507812 222.65625 1349.015625 C 222.996094 1349.527344 223.363281 1350.019531 223.75 1350.496094 C 224.140625 1350.96875 224.550781 1351.421875 224.984375 1351.859375 C 225.417969 1352.292969 225.871094 1352.703125 226.347656 1353.09375 C 226.820312 1353.484375 227.3125 1353.847656 227.824219 1354.1875 C 228.332031 1354.53125 228.859375 1354.84375 229.398438 1355.136719 C 229.941406 1355.425781 230.492188 1355.6875 231.058594 1355.921875 C 231.628906 1356.15625 232.203125 1356.363281 232.792969 1356.542969 C 233.378906 1356.71875 233.972656 1356.867188 234.574219 1356.988281 C 235.175781 1357.109375 235.78125 1357.199219 236.390625 1357.257812 C 237.003906 1357.320312 237.613281 1357.347656 238.226562 1357.347656 C 238.839844 1357.347656 239.453125 1357.320312 240.0625 1357.257812 C 240.675781 1357.199219 241.28125 1357.109375 241.882812 1356.988281 C 242.484375 1356.871094 243.078125 1356.71875 243.664062 1356.542969 C 244.25 1356.363281 244.828125 1356.15625 245.394531 1355.921875 C 245.960938 1355.6875 246.515625 1355.425781 247.058594 1355.136719 C 247.597656 1354.847656 248.125 1354.53125 248.632812 1354.191406 C 249.144531 1353.847656 249.636719 1353.484375 250.109375 1353.09375 C 250.585938 1352.707031 251.039062 1352.292969 251.472656 1351.859375 C 251.90625 1351.425781 252.316406 1350.972656 252.707031 1350.496094 C 253.09375 1350.023438 253.460938 1349.53125 253.800781 1349.019531 C 254.140625 1348.507812 254.457031 1347.984375 254.746094 1347.441406 C 255.035156 1346.898438 255.296875 1346.34375 255.53125 1345.777344 C 255.765625 1345.210938 255.972656 1344.632812 256.152344 1344.046875 C 256.328125 1343.457031 256.476562 1342.863281 256.597656 1342.261719 C 256.71875 1341.660156 256.808594 1341.054688 256.867188 1340.441406 C 256.925781 1339.832031 256.957031 1339.21875 256.957031 1338.605469 C 256.957031 1337.992188 256.925781 1337.378906 256.867188 1336.765625 C 256.808594 1336.15625 256.714844 1335.550781 256.597656 1334.949219 C 256.476562 1334.34375 256.328125 1333.75 256.148438 1333.164062 C 255.972656 1332.574219 255.765625 1332 255.53125 1331.429688 C 255.296875 1330.863281 255.035156 1330.308594 254.746094 1329.769531 C 254.457031 1329.226562 254.140625 1328.699219 253.800781 1328.191406 C 253.460938 1327.679688 253.09375 1327.1875 252.703125 1326.714844 C 252.316406 1326.238281 251.902344 1325.785156 251.46875 1325.351562 C 251.035156 1324.917969 250.582031 1324.503906 250.109375 1324.113281 C 249.632812 1323.726562 249.140625 1323.359375 248.632812 1323.019531 C 248.121094 1322.679688 247.597656 1322.363281 247.054688 1322.074219 C 246.515625 1321.785156 245.960938 1321.523438 245.394531 1321.289062 C 244.828125 1321.054688 244.25 1320.847656 243.664062 1320.667969 C 243.074219 1320.488281 242.480469 1320.339844 241.878906 1320.222656 C 241.277344 1320.101562 240.671875 1320.011719 240.0625 1319.953125 C 239.453125 1319.890625 238.839844 1319.863281 238.226562 1319.863281 C 237.613281 1319.863281 237 1319.894531 236.390625 1319.953125 C 235.78125 1320.015625 235.175781 1320.105469 234.574219 1320.226562 C 233.972656 1320.347656 233.378906 1320.496094 232.792969 1320.671875 C 232.207031 1320.851562 231.628906 1321.058594 231.0625 1321.292969 C 230.496094 1321.527344 229.945312 1321.792969 229.402344 1322.082031 C 228.863281 1322.371094 228.335938 1322.6875 227.828125 1323.027344 C 227.316406 1323.367188 226.828125 1323.734375 226.351562 1324.121094 C 225.878906 1324.511719 225.425781 1324.921875 224.992188 1325.355469 C 224.558594 1325.789062 224.148438 1326.246094 223.757812 1326.71875 C 223.367188 1327.191406 223.003906 1327.683594 222.664062 1328.195312 C 222.324219 1328.707031 222.007812 1329.230469 221.71875 1329.773438 C 221.429688 1330.3125 221.167969 1330.867188 220.933594 1331.433594 C 220.695312 1332 220.492188 1332.578125 220.3125 1333.164062 C 220.132812 1333.75 219.984375 1334.347656 219.863281 1334.949219 C 219.746094 1335.550781 219.652344 1336.15625 219.59375 1336.765625 C 219.53125 1337.375 219.5 1337.988281 219.5 1338.601562 Z M 239.894531 1325.320312 L 239.894531 1323.289062 C 240.757812 1323.386719 241.609375 1323.550781 242.445312 1323.792969 C 243.28125 1324.03125 244.09375 1324.339844 244.878906 1324.714844 C 245.660156 1325.09375 246.410156 1325.53125 247.117188 1326.035156 C 247.828125 1326.539062 248.492188 1327.097656 249.105469 1327.714844 C 249.722656 1328.332031 250.28125 1328.992188 250.785156 1329.703125 C 251.289062 1330.414062 251.726562 1331.160156 252.105469 1331.945312 C 252.480469 1332.730469 252.789062 1333.542969 253.03125 1334.378906 C 253.269531 1335.21875 253.4375 1336.070312 253.53125 1336.933594 L 251.5 1336.933594 C 251.285156 1336.941406 251.078125 1336.988281 250.878906 1337.078125 C 250.683594 1337.167969 250.507812 1337.289062 250.359375 1337.445312 C 250.210938 1337.597656 250.09375 1337.777344 250.015625 1337.976562 C 249.933594 1338.175781 249.894531 1338.386719 249.894531 1338.601562 C 249.894531 1338.816406 249.933594 1339.027344 250.015625 1339.226562 C 250.09375 1339.425781 250.210938 1339.605469 250.359375 1339.761719 C 250.507812 1339.914062 250.683594 1340.039062 250.878906 1340.125 C 251.078125 1340.214844 251.285156 1340.261719 251.5 1340.269531 L 253.535156 1340.269531 C 253.4375 1341.136719 253.269531 1341.988281 253.03125 1342.824219 C 252.789062 1343.660156 252.480469 1344.472656 252.105469 1345.257812 C 251.730469 1346.042969 251.289062 1346.789062 250.785156 1347.5 C 250.28125 1348.210938 249.722656 1348.875 249.105469 1349.488281 C 248.492188 1350.105469 247.828125 1350.664062 247.117188 1351.167969 C 246.410156 1351.671875 245.660156 1352.109375 244.878906 1352.488281 C 244.09375 1352.863281 243.28125 1353.171875 242.445312 1353.410156 C 241.609375 1353.652344 240.757812 1353.820312 239.894531 1353.914062 L 239.894531 1351.878906 C 239.886719 1351.664062 239.839844 1351.457031 239.75 1351.257812 C 239.664062 1351.058594 239.542969 1350.886719 239.386719 1350.734375 C 239.230469 1350.585938 239.050781 1350.46875 238.851562 1350.386719 C 238.652344 1350.308594 238.441406 1350.265625 238.226562 1350.265625 C 238.011719 1350.265625 237.800781 1350.308594 237.601562 1350.386719 C 237.402344 1350.46875 237.222656 1350.585938 237.066406 1350.734375 C 236.914062 1350.886719 236.789062 1351.058594 236.703125 1351.257812 C 236.613281 1351.457031 236.566406 1351.664062 236.558594 1351.878906 L 236.558594 1353.914062 C 235.695312 1353.820312 234.84375 1353.652344 234.007812 1353.410156 C 233.171875 1353.171875 232.363281 1352.863281 231.578125 1352.488281 C 230.792969 1352.109375 230.046875 1351.671875 229.335938 1351.167969 C 228.625 1350.664062 227.964844 1350.105469 227.347656 1349.488281 C 226.734375 1348.871094 226.175781 1348.210938 225.671875 1347.5 C 225.167969 1346.789062 224.730469 1346.042969 224.351562 1345.257812 C 223.976562 1344.472656 223.667969 1343.660156 223.429688 1342.824219 C 223.1875 1341.988281 223.019531 1341.136719 222.925781 1340.269531 L 224.960938 1340.269531 C 225.1875 1340.277344 225.40625 1340.242188 225.617188 1340.160156 C 225.828125 1340.078125 226.015625 1339.960938 226.179688 1339.804688 C 226.339844 1339.644531 226.46875 1339.464844 226.554688 1339.253906 C 226.644531 1339.046875 226.6875 1338.828125 226.6875 1338.601562 C 226.6875 1338.375 226.644531 1338.15625 226.554688 1337.949219 C 226.46875 1337.742188 226.339844 1337.558594 226.179688 1337.398438 C 226.015625 1337.242188 225.828125 1337.125 225.617188 1337.042969 C 225.40625 1336.960938 225.1875 1336.925781 224.960938 1336.933594 L 222.925781 1336.933594 C 223.019531 1336.070312 223.1875 1335.21875 223.429688 1334.378906 C 223.667969 1333.542969 223.976562 1332.734375 224.351562 1331.949219 C 224.730469 1331.164062 225.167969 1330.414062 225.671875 1329.707031 C 226.175781 1328.996094 226.734375 1328.332031 227.347656 1327.714844 C 227.964844 1327.101562 228.625 1326.542969 229.335938 1326.039062 C 230.046875 1325.535156 230.792969 1325.09375 231.578125 1324.71875 C 232.359375 1324.339844 233.171875 1324.03125 234.007812 1323.792969 C 234.84375 1323.554688 235.695312 1323.386719 236.558594 1323.289062 L 236.558594 1325.320312 C 236.566406 1325.535156 236.613281 1325.742188 236.699219 1325.941406 C 236.789062 1326.136719 236.910156 1326.3125 237.066406 1326.460938 C 237.222656 1326.613281 237.398438 1326.726562 237.601562 1326.808594 C 237.800781 1326.890625 238.007812 1326.929688 238.226562 1326.929688 C 238.441406 1326.929688 238.648438 1326.890625 238.851562 1326.808594 C 239.050781 1326.726562 239.226562 1326.613281 239.382812 1326.460938 C 239.539062 1326.3125 239.660156 1326.136719 239.75 1325.941406 C 239.835938 1325.742188 239.882812 1325.535156 239.890625 1325.320312 Z M 216.613281 1329.105469 C 217.074219 1329.105469 217.464844 1328.945312 217.792969 1328.617188 L 228.25 1318.144531 C 228.40625 1317.988281 228.527344 1317.808594 228.613281 1317.601562 C 228.695312 1317.398438 228.738281 1317.1875 228.738281 1316.964844 C 228.738281 1316.742188 228.695312 1316.53125 228.613281 1316.328125 C 228.527344 1316.121094 228.40625 1315.941406 228.25 1315.785156 C 227.832031 1315.363281 227.371094 1314.988281 226.878906 1314.65625 C 226.382812 1314.328125 225.859375 1314.046875 225.308594 1313.820312 C 224.761719 1313.589844 224.195312 1313.417969 223.609375 1313.304688 C 223.027344 1313.1875 222.4375 1313.128906 221.839844 1313.128906 C 221.246094 1313.128906 220.65625 1313.1875 220.074219 1313.304688 C 219.488281 1313.421875 218.921875 1313.59375 218.371094 1313.820312 C 217.824219 1314.050781 217.300781 1314.328125 216.804688 1314.660156 C 216.3125 1314.992188 215.851562 1315.367188 215.433594 1315.789062 C 215.011719 1316.210938 214.636719 1316.667969 214.304688 1317.164062 C 213.976562 1317.660156 213.695312 1318.183594 213.46875 1318.730469 C 213.242188 1319.28125 213.070312 1319.851562 212.953125 1320.433594 C 212.835938 1321.019531 212.78125 1321.609375 212.78125 1322.203125 C 212.78125 1322.800781 212.835938 1323.390625 212.953125 1323.972656 C 213.070312 1324.558594 213.242188 1325.125 213.46875 1325.675781 C 213.699219 1326.226562 213.976562 1326.75 214.308594 1327.242188 C 214.640625 1327.738281 215.015625 1328.195312 215.4375 1328.617188 C 215.761719 1328.945312 216.152344 1329.105469 216.613281 1329.105469 Z M 217.789062 1318.144531 C 218.226562 1317.710938 218.71875 1317.355469 219.265625 1317.078125 C 219.8125 1316.804688 220.390625 1316.621094 221 1316.53125 C 221.605469 1316.441406 222.214844 1316.445312 222.816406 1316.550781 C 223.421875 1316.65625 223.996094 1316.851562 224.539062 1317.140625 L 216.785156 1324.90625 C 216.492188 1324.363281 216.296875 1323.789062 216.191406 1323.183594 C 216.085938 1322.578125 216.078125 1321.96875 216.171875 1321.359375 C 216.261719 1320.75 216.445312 1320.171875 216.722656 1319.621094 C 217 1319.074219 217.355469 1318.582031 217.789062 1318.144531 Z M 259.84375 1329.105469 C 260.304688 1329.105469 260.699219 1328.945312 261.023438 1328.617188 C 261.445312 1328.195312 261.820312 1327.738281 262.152344 1327.242188 C 262.480469 1326.746094 262.761719 1326.222656 262.988281 1325.671875 C 263.21875 1325.121094 263.390625 1324.554688 263.503906 1323.972656 C 263.621094 1323.386719 263.679688 1322.796875 263.679688 1322.199219 C 263.679688 1321.605469 263.621094 1321.015625 263.503906 1320.429688 C 263.390625 1319.847656 263.21875 1319.277344 262.988281 1318.726562 C 262.761719 1318.175781 262.480469 1317.65625 262.152344 1317.160156 C 261.820312 1316.664062 261.445312 1316.207031 261.023438 1315.785156 C 260.601562 1315.363281 260.144531 1314.988281 259.648438 1314.65625 C 259.15625 1314.324219 258.632812 1314.042969 258.082031 1313.816406 C 257.53125 1313.589844 256.964844 1313.417969 256.382812 1313.300781 C 255.796875 1313.183594 255.207031 1313.125 254.613281 1313.125 C 254.015625 1313.125 253.425781 1313.183594 252.84375 1313.300781 C 252.257812 1313.417969 251.691406 1313.589844 251.140625 1313.816406 C 250.59375 1314.042969 250.070312 1314.324219 249.574219 1314.65625 C 249.078125 1314.988281 248.621094 1315.363281 248.199219 1315.785156 C 248.042969 1315.941406 247.925781 1316.121094 247.839844 1316.324219 C 247.753906 1316.53125 247.710938 1316.742188 247.710938 1316.964844 C 247.710938 1317.183594 247.753906 1317.398438 247.839844 1317.601562 C 247.925781 1317.808594 248.042969 1317.988281 248.199219 1318.144531 L 258.667969 1328.617188 C 258.992188 1328.945312 259.382812 1329.105469 259.84375 1329.105469 Z M 258.667969 1318.144531 C 259.101562 1318.578125 259.453125 1319.074219 259.730469 1319.621094 C 260.007812 1320.171875 260.1875 1320.75 260.277344 1321.359375 C 260.371094 1321.96875 260.363281 1322.574219 260.257812 1323.179688 C 260.152344 1323.785156 259.957031 1324.359375 259.667969 1324.902344 L 251.914062 1317.140625 C 252.453125 1316.851562 253.027344 1316.65625 253.632812 1316.550781 C 254.238281 1316.445312 254.847656 1316.441406 255.453125 1316.53125 C 256.0625 1316.621094 256.640625 1316.804688 257.191406 1317.078125 C 257.738281 1317.355469 258.230469 1317.710938 258.667969 1318.144531 Z M 258.667969 1318.144531 " fill-opacity="1" fill-rule="nonzero"/>

</g>
</svg>