<svg xmlns="http://www.w3.org/2000/svg" viewBox="0 0 128.13671899999997 119.14453100000003">
<g transform="translate(-446.125,-913.269531)">
<path fill="#1a1a1a" d="M 558.847656 977.6875 L 503.441406 977.6875 C 503.402344 977.6875 503.367188 977.691406 503.335938 977.695312 C 503.296875 977.695312 503.265625 977.6875 503.230469 977.6875 L 496.996094 977.6875 C 494.644531 977.6875 492.527344 978.710938 491.066406 980.335938 C 489.074219 976.734375 485.238281 974.289062 480.839844 974.289062 C 474.398438 974.289062 469.15625 979.527344 469.15625 985.964844 C 469.15625 989.148438 470.4375 992.035156 472.511719 994.144531 L 462.800781 994.144531 L 462.800781 962.269531 C 462.800781 961.300781 462.019531 960.515625 461.050781 960.515625 L 447.878906 960.515625 C 446.910156 960.515625 446.125 961.300781 446.125 962.269531 L 446.125 1030.640625 C 446.125 1031.609375 446.910156 1032.394531 447.878906 1032.394531 L 463.527344 1032.394531 C 464.496094 1032.394531 465.28125 1031.609375 465.28125 1030.640625 L 465.28125 1027.878906 C 465.28125 1024.1875 468.28125 1021.183594 471.96875 1021.183594 L 484.824219 1021.183594 C 484.929688 1024.089844 486.710938 1026.800781 489.582031 1027.941406 C 490.496094 1028.304688 491.433594 1028.476562 492.359375 1028.476562 C 495.363281 1028.476562 498.214844 1026.667969 499.390625 1023.710938 L 500.394531 1021.183594 L 552.449219 1021.183594 C 556.136719 1021.183594 559.136719 1024.1875 559.136719 1027.878906 L 559.136719 1030.640625 C 559.136719 1031.609375 559.921875 1032.394531 560.890625 1032.394531 L 572.511719 1032.394531 C 573.480469 1032.394531 574.261719 1031.609375 574.261719 1030.640625 L 574.261719 1006.753906 C 574.261719 1006.710938 574.261719 1006.671875 574.257812 1006.628906 C 574.261719 1006.589844 574.261719 1006.546875 574.261719 1006.507812 L 574.261719 993.101562 C 574.261719 984.601562 567.347656 977.6875 558.847656 977.6875 Z M 480.835938 977.792969 C 485.339844 977.792969 489.007812 981.457031 489.007812 985.964844 C 489.007812 990.472656 485.34375 994.144531 480.835938 994.144531 C 476.328125 994.144531 472.65625 990.472656 472.65625 985.964844 C 472.65625 981.453125 476.324219 977.792969 480.835938 977.792969 Z M 462.796875 997.644531 L 489.007812 997.644531 L 489.007812 1005.003906 L 462.796875 1005.003906 Z M 485.53125 1017.683594 L 471.96875 1017.683594 C 466.347656 1017.683594 461.773438 1022.257812 461.773438 1027.882812 L 461.773438 1028.890625 L 449.632812 1028.890625 L 449.632812 964.019531 L 459.292969 964.019531 L 459.292969 1006.753906 C 459.292969 1007.722656 460.078125 1008.507812 461.046875 1008.507812 L 489.011719 1008.507812 L 489.011719 1008.917969 L 485.535156 1017.683594 Z M 497.605469 1018.71875 C 497.585938 1018.757812 497.574219 1018.796875 497.558594 1018.835938 L 496.136719 1022.417969 C 495.3125 1024.492188 492.953125 1025.507812 490.878906 1024.683594 C 488.804688 1023.863281 487.785156 1021.503906 488.613281 1019.425781 L 492.390625 1009.894531 C 492.472656 1009.691406 492.515625 1009.472656 492.515625 1009.25 L 492.515625 985.675781 C 492.515625 983.203125 494.523438 981.195312 496.992188 981.195312 L 501.476562 981.195312 L 501.488281 1008.945312 L 497.605469 1018.722656 Z M 570.757812 1028.886719 L 562.640625 1028.886719 L 562.640625 1027.878906 C 562.640625 1022.257812 558.070312 1017.679688 552.445312 1017.679688 L 501.785156 1017.679688 L 504.863281 1009.921875 C 504.945312 1009.714844 504.988281 1009.496094 504.988281 1009.273438 L 504.988281 1008.503906 C 504.988281 1008.503906 570.753906 1008.503906 570.753906 1008.503906 L 570.753906 1028.886719 Z M 570.757812 1005.003906 L 504.988281 1005.003906 L 504.980469 981.195312 L 558.847656 981.195312 C 565.417969 981.195312 570.761719 986.535156 570.761719 993.101562 L 570.761719 1005.003906 Z M 535.964844 934.898438 L 535.964844 944.671875 C 535.964844 945.640625 535.179688 946.421875 534.210938 946.421875 L 527.945312 946.421875 C 526.976562 946.421875 526.195312 945.640625 526.195312 944.671875 C 526.195312 943.703125 526.976562 942.917969 527.945312 942.917969 L 532.457031 942.917969 L 532.457031 934.894531 C 532.457031 933.925781 533.242188 933.144531 534.210938 933.144531 C 535.179688 933.144531 535.964844 933.925781 535.964844 934.894531 Z M 535.964844 929.523438 L 535.964844 930.785156 C 535.964844 931.753906 535.179688 932.539062 534.210938 932.539062 C 533.242188 932.539062 532.457031 931.753906 532.457031 930.785156 L 532.457031 929.523438 C 532.457031 928.554688 533.242188 927.769531 534.210938 927.769531 C 535.179688 927.769531 535.964844 928.554688 535.964844 929.523438 Z M 555.035156 926.894531 C 554.238281 926.097656 553.175781 925.65625 552.039062 925.65625 C 550.902344 925.65625 549.84375 926.09375 549.042969 926.894531 L 547.6875 928.25 C 544.941406 925.996094 541.757812 924.535156 538.445312 923.867188 L 538.445312 921.714844 C 540.523438 921.445312 542.132812 919.671875 542.132812 917.527344 L 542.132812 917.519531 C 542.132812 915.1875 540.234375 913.292969 537.894531 913.292969 L 530.515625 913.292969 C 528.183594 913.292969 526.28125 915.1875 526.28125 917.527344 C 526.28125 919.671875 527.894531 921.445312 529.96875 921.714844 L 529.96875 923.867188 C 526.65625 924.535156 523.472656 925.996094 520.726562 928.25 L 519.371094 926.894531 C 517.722656 925.25 515.039062 925.246094 513.378906 926.894531 C 511.734375 928.539062 511.734375 931.222656 513.378906 932.882812 L 515.355469 934.855469 C 513.789062 937.851562 512.957031 941.199219 512.957031 944.675781 C 512.957031 950.351562 515.167969 955.6875 519.183594 959.699219 C 523.324219 963.839844 528.765625 965.910156 534.207031 965.910156 C 539.644531 965.910156 545.089844 963.839844 549.234375 959.699219 C 555.945312 952.984375 557.214844 942.863281 553.050781 934.855469 L 555.035156 932.878906 C 556.679688 931.222656 556.675781 928.542969 555.03125 926.894531 Z M 529.792969 917.519531 C 529.792969 917.128906 530.128906 916.796875 530.523438 916.796875 L 537.902344 916.796875 C 538.296875 916.796875 538.632812 917.128906 538.632812 917.519531 L 538.632812 917.527344 C 538.632812 917.921875 538.296875 918.25 537.902344 918.25 L 530.523438 918.25 C 530.125 918.25 529.792969 917.921875 529.792969 917.519531 Z M 534.941406 921.753906 L 534.941406 923.457031 C 534.453125 923.441406 533.96875 923.441406 533.480469 923.457031 L 533.480469 921.753906 Z M 515.859375 929.375 C 516.144531 929.085938 516.613281 929.085938 516.898438 929.367188 L 518.21875 930.691406 C 517.894531 931.058594 517.585938 931.4375 517.289062 931.824219 L 515.867188 930.402344 C 515.578125 930.113281 515.578125 929.652344 515.859375 929.371094 Z M 546.761719 957.222656 C 543.300781 960.675781 538.757812 962.40625 534.210938 962.40625 C 529.667969 962.40625 525.121094 960.675781 521.664062 957.222656 C 518.3125 953.867188 516.464844 949.410156 516.464844 944.671875 C 516.464844 939.9375 518.3125 935.480469 521.664062 932.132812 C 525.121094 928.675781 529.667969 926.945312 534.210938 926.945312 C 538.753906 926.945312 543.300781 928.675781 546.761719 932.132812 C 553.675781 939.046875 553.675781 950.300781 546.761719 957.222656 Z M 552.558594 930.402344 L 551.132812 931.824219 C 550.835938 931.4375 550.53125 931.058594 550.203125 930.691406 L 551.523438 929.371094 C 551.707031 929.191406 551.925781 929.160156 552.042969 929.160156 C 552.15625 929.160156 552.375 929.191406 552.558594 929.371094 C 552.84375 929.65625 552.839844 930.121094 552.558594 930.402344 Z M 522.074219 944.671875 C 522.074219 945.640625 521.289062 946.421875 520.320312 946.421875 L 519.058594 946.421875 C 518.089844 946.421875 517.304688 945.640625 517.304688 944.671875 C 517.304688 943.703125 518.089844 942.917969 519.058594 942.917969 L 520.320312 942.917969 C 521.289062 942.917969 522.074219 943.703125 522.074219 944.671875 Z M 498.625 960.175781 L 502.488281 951.640625 L 498.058594 952.828125 C 497.121094 953.078125 496.160156 952.523438 495.914062 951.585938 C 495.660156 950.652344 496.21875 949.691406 497.152344 949.441406 L 505.152344 947.300781 C 505.808594 947.125 506.503906 947.34375 506.941406 947.859375 C 507.382812 948.375 507.484375 949.097656 507.203125 949.714844 L 503.34375 958.25 L 507.765625 957.066406 C 508.699219 956.816406 509.660156 957.371094 509.910156 958.304688 C 510.160156 959.238281 509.605469 960.199219 508.671875 960.449219 L 500.675781 962.589844 C 500.527344 962.632812 500.375 962.648438 500.222656 962.648438 C 499.714844 962.648438 499.226562 962.429688 498.886719 962.03125 C 498.449219 961.519531 498.347656 960.796875 498.625 960.175781 Z M 546.351562 944.671875 C 546.351562 943.703125 547.132812 942.917969 548.101562 942.917969 L 549.367188 942.917969 C 550.335938 942.917969 551.121094 943.703125 551.121094 944.671875 C 551.121094 945.640625 550.335938 946.421875 549.367188 946.421875 L 548.101562 946.421875 C 547.132812 946.421875 546.351562 945.640625 546.351562 944.671875 Z M 535.964844 958.558594 L 535.964844 959.828125 C 535.964844 960.796875 535.179688 961.582031 534.210938 961.582031 C 533.242188 961.582031 532.457031 960.796875 532.457031 959.828125 L 532.457031 958.558594 C 532.457031 957.589844 533.242188 956.804688 534.210938 956.804688 C 535.179688 956.804688 535.964844 957.589844 535.964844 958.558594 Z M 485.007812 967.453125 L 487.53125 961.875 L 485.085938 962.527344 C 484.148438 962.777344 483.1875 962.222656 482.941406 961.289062 C 482.6875 960.351562 483.246094 959.390625 484.179688 959.140625 L 490.195312 957.535156 C 490.847656 957.359375 491.546875 957.578125 491.984375 958.09375 C 492.421875 958.605469 492.523438 959.328125 492.246094 959.945312 L 489.726562 965.523438 L 492.160156 964.871094 C 493.09375 964.617188 494.054688 965.171875 494.304688 966.105469 C 494.558594 967.039062 494.003906 968 493.070312 968.25 L 487.0625 969.867188 C 486.914062 969.910156 486.757812 969.929688 486.609375 969.929688 C 486.101562 969.929688 485.609375 969.710938 485.273438 969.3125 C 484.835938 968.796875 484.730469 968.074219 485.011719 967.457031 Z M 485.007812 967.453125 " fill-opacity="1" fill-rule="nonzero"/>

</g>
</svg>