<svg xmlns="http://www.w3.org/2000/svg" viewBox="0 0 88.31640600000003 75.42578100000003">
<g transform="translate(-693.0,-864.0)">
<path fill="#000000" d="M 733.402344 902.773438 C 733.070312 899.875 730.671875 897.636719 727.742188 897.492188 L 712.632812 896.746094 C 712.757812 895.851562 712.859375 894.992188 712.945312 894.148438 L 769.007812 894.148438 L 769.007812 939.214844 L 774.042969 939.214844 L 774.042969 894.148438 L 781.316406 894.148438 L 781.316406 889.378906 L 728.550781 889.378906 C 727.914062 891.269531 726.121094 892.640625 724.007812 892.640625 L 706.027344 892.640625 C 703.890625 892.640625 701.992188 891.210938 701.414062 889.167969 L 697.566406 875.65625 C 697.21875 874.429688 697.371094 873.144531 697.996094 872.03125 C 698.621094 870.917969 699.644531 870.113281 700.878906 869.769531 C 701.304688 869.648438 701.746094 869.585938 702.183594 869.585938 C 704.320312 869.585938 706.21875 871.015625 706.800781 873.0625 L 709.65625 883.101562 L 712.863281 883.101562 C 712.488281 880.175781 711.835938 877.15625 710.878906 873.699219 C 708.871094 866.589844 703.070312 864.042969 698.925781 864.828125 C 694.78125 865.605469 692.65625 871.175781 693.757812 875.992188 C 694.683594 882.730469 696.460938 892.421875 694.882812 900.542969 C 694.105469 907.164062 696.035156 907.742188 700.421875 908.046875 C 700.589844 908.058594 700.757812 908.070312 700.929688 908.078125 C 701.097656 908.101562 701.273438 908.121094 701.445312 908.128906 L 722.0625 909.148438 L 724.925781 934.164062 C 725.273438 937.207031 727.867188 939.453125 730.875 939.453125 C 731.101562 939.453125 731.332031 939.441406 731.558594 939.414062 C 734.851562 939.042969 737.214844 936.089844 736.839844 932.816406 Z M 733.402344 902.773438 " fill-opacity="1" fill-rule="nonzero"/>

</g>
</svg>