<svg xmlns="http://www.w3.org/2000/svg" viewBox="0 0 41.328125 53.796875">
<g transform="translate(-313.0,-390.0)">
<path fill="#000000" d="M 328.644531 424.371094 L 316.925781 436.117188 C 315.695312 437.347656 315.695312 439.347656 316.925781 440.578125 C 318.132812 441.789062 320.097656 441.777344 321.402344 440.554688 L 340.414062 422.664062 C 340.640625 422.453125 340.65625 422.339844 340.660156 422.292969 L 341.875 412.519531 C 342.003906 411.503906 342.648438 410.652344 343.695312 410.117188 L 351.316406 406.246094 C 351.65625 406.070312 351.855469 405.800781 351.914062 405.417969 C 351.957031 405.160156 351.898438 404.882812 351.480469 404.300781 L 343.539062 393.269531 C 343.3125 392.953125 342.703125 392.941406 342.285156 393.242188 L 329.03125 402.816406 C 328.746094 403.019531 328.597656 403.222656 328.523438 403.496094 L 324.429688 418.808594 C 324.035156 420.277344 324.910156 421.792969 326.375 422.183594 C 326.820312 422.304688 327.269531 422.308594 327.6875 422.210938 C 327.726562 422.199219 327.769531 422.1875 327.8125 422.179688 C 328.71875 421.929688 329.480469 421.214844 329.742188 420.234375 L 331.945312 411.992188 C 332.113281 411.367188 332.753906 410.996094 333.375 411.164062 C 333.996094 411.332031 334.367188 411.972656 334.199219 412.597656 L 331.996094 420.839844 C 331.535156 422.570312 330.230469 423.855469 328.644531 424.371094 Z M 319.109375 443.824219 C 317.710938 443.824219 316.332031 443.292969 315.273438 442.234375 C 313.136719 440.089844 313.136719 436.605469 315.273438 434.464844 L 325.390625 424.328125 C 322.914062 423.449219 321.484375 420.789062 322.175781 418.203125 L 326.269531 402.886719 C 326.484375 402.085938 326.941406 401.441406 327.667969 400.917969 L 340.921875 391.34375 C 342.386719 390.285156 344.453125 390.539062 345.433594 391.902344 L 353.371094 402.929688 C 353.867188 403.621094 354.414062 404.570312 354.21875 405.785156 C 354.042969 406.910156 353.382812 407.816406 352.371094 408.332031 L 344.75 412.207031 C 344.515625 412.324219 344.226562 412.527344 344.191406 412.808594 L 342.976562 422.582031 C 342.894531 423.253906 342.578125 423.839844 342.011719 424.371094 L 323 442.257812 C 321.890625 443.300781 320.492188 443.824219 319.109375 443.824219 Z M 319.109375 443.824219 " fill-opacity="1" fill-rule="evenodd"/>

</g>
</svg>