<svg xmlns="http://www.w3.org/2000/svg" viewBox="0 0 41.578125 53.796875">
<g transform="translate(-249.421875,-390.0)">
<path fill="#000000" d="M 260.789062 393.023438 C 260.546875 393.023438 260.324219 393.105469 260.210938 393.269531 L 252.269531 404.300781 C 251.851562 404.882812 251.792969 405.160156 251.832031 405.417969 C 251.894531 405.800781 252.089844 406.070312 252.4375 406.246094 L 260.054688 410.117188 C 261.101562 410.652344 261.746094 411.503906 261.871094 412.519531 L 263.089844 422.292969 C 263.09375 422.339844 263.109375 422.453125 263.335938 422.664062 L 282.347656 440.554688 C 283.648438 441.777344 285.617188 441.789062 286.824219 440.578125 C 287.417969 439.988281 287.742188 439.195312 287.742188 438.347656 C 287.742188 437.503906 287.417969 436.710938 286.824219 436.117188 L 275.101562 424.371094 C 274.769531 424.261719 274.4375 424.113281 274.125 423.933594 C 272.945312 423.25 272.101562 422.152344 271.753906 420.839844 L 269.550781 412.597656 C 269.382812 411.972656 269.75 411.332031 270.375 411.164062 C 270.996094 410.996094 271.636719 411.367188 271.804688 411.992188 L 274.007812 420.234375 C 274.195312 420.941406 274.652344 421.535156 275.289062 421.90625 C 275.507812 422.03125 275.734375 422.125 275.96875 422.1875 C 275.992188 422.191406 276.011719 422.199219 276.035156 422.203125 C 276.472656 422.308594 276.929688 422.304688 277.375 422.183594 C 278.839844 421.789062 279.710938 420.277344 279.320312 418.808594 L 275.226562 403.492188 C 275.152344 403.222656 275 403.019531 274.714844 402.816406 L 261.460938 393.242188 C 261.261719 393.09375 261.015625 393.023438 260.789062 393.023438 Z M 284.640625 443.824219 C 283.257812 443.824219 281.859375 443.300781 280.75 442.257812 L 261.738281 424.371094 C 261.171875 423.839844 260.855469 423.253906 260.769531 422.582031 L 259.554688 412.808594 C 259.519531 412.527344 259.230469 412.324219 258.996094 412.207031 L 251.378906 408.332031 C 250.363281 407.816406 249.707031 406.910156 249.527344 405.785156 C 249.335938 404.570312 249.878906 403.621094 250.375 402.929688 L 258.316406 391.902344 C 259.296875 390.539062 261.363281 390.285156 262.824219 391.34375 L 276.082031 400.917969 C 276.808594 401.441406 277.265625 402.085938 277.480469 402.886719 L 281.574219 418.203125 C 282.265625 420.785156 280.835938 423.449219 278.363281 424.328125 L 288.476562 434.464844 C 289.507812 435.5 290.074219 436.878906 290.074219 438.347656 C 290.074219 439.820312 289.507812 441.199219 288.472656 442.234375 C 287.417969 443.292969 286.035156 443.824219 284.640625 443.824219 Z M 284.640625 443.824219 " fill-opacity="1" fill-rule="evenodd"/>

</g>
</svg>