<svg xmlns="http://www.w3.org/2000/svg" viewBox="0 0 68.94140700000003 126.63671900000008">
<g transform="translate(-642.488281,-1493.660156)">
<path fill="#000000" d="M 711.421875 1554.546875 L 711.421875 1538.625 C 711.421875 1537.558594 710.550781 1536.691406 709.480469 1536.691406 L 702.875 1536.691406 L 702.875 1519.425781 C 702.875 1505.21875 691.25 1493.660156 676.960938 1493.660156 C 662.671875 1493.660156 651.046875 1505.21875 651.046875 1519.425781 L 651.046875 1536.691406 L 644.441406 1536.691406 C 643.367188 1536.691406 642.5 1537.558594 642.5 1538.625 L 642.5 1554.546875 C 642.5 1570.234375 653.15625 1583.488281 667.648438 1587.539062 L 667.648438 1604.941406 L 659.503906 1604.941406 C 652.058594 1604.941406 646 1610.964844 646 1618.367188 C 646 1619.433594 646.871094 1620.300781 647.941406 1620.300781 L 705.976562 1620.300781 C 707.050781 1620.300781 707.921875 1619.433594 707.921875 1618.367188 C 707.921875 1610.964844 701.863281 1604.941406 694.414062 1604.941406 L 686.269531 1604.941406 L 686.269531 1587.539062 C 700.765625 1583.488281 711.421875 1570.234375 711.421875 1554.546875 Z M 654.933594 1554.417969 L 698.988281 1554.417969 L 698.988281 1554.546875 C 698.988281 1566.621094 689.105469 1576.445312 676.960938 1576.445312 C 664.816406 1576.445312 654.933594 1566.621094 654.933594 1554.546875 Z M 698.988281 1550.554688 L 654.933594 1550.554688 L 654.933594 1545.148438 L 698.988281 1545.148438 Z M 676.960938 1497.523438 C 689.105469 1497.523438 698.988281 1507.347656 698.988281 1519.425781 L 698.988281 1541.285156 L 654.933594 1541.285156 L 654.933594 1519.425781 C 654.933594 1507.347656 664.816406 1497.523438 676.960938 1497.523438 Z M 646.386719 1554.546875 L 646.386719 1540.554688 L 651.046875 1540.554688 L 651.046875 1554.546875 C 651.046875 1568.753906 662.671875 1580.308594 676.960938 1580.308594 C 691.25 1580.308594 702.875 1568.753906 702.875 1554.546875 L 702.875 1540.554688 L 707.535156 1540.554688 L 707.535156 1554.546875 C 707.535156 1571.308594 693.820312 1584.945312 676.960938 1584.945312 C 660.101562 1584.945312 646.386719 1571.308594 646.386719 1554.546875 Z M 703.839844 1616.4375 L 650.082031 1616.4375 C 650.984375 1612.085938 654.867188 1608.804688 659.503906 1608.804688 L 694.414062 1608.804688 C 699.054688 1608.804688 702.9375 1612.085938 703.839844 1616.4375 Z M 671.535156 1604.941406 L 671.535156 1596.570312 L 682.386719 1596.570312 L 682.386719 1604.941406 Z M 682.386719 1592.707031 L 671.535156 1592.707031 L 671.535156 1588.382812 C 673.304688 1588.664062 675.113281 1588.808594 676.960938 1588.808594 C 678.804688 1588.808594 680.617188 1588.664062 682.386719 1588.382812 Z M 682.386719 1592.707031 " fill-opacity="1" fill-rule="nonzero"/>

</g>
</svg>