<svg xmlns="http://www.w3.org/2000/svg" viewBox="0 0 41.0 64.42578100000003">
<g transform="translate(-675.0,-875.0)">
<path fill="#000000" d="M 694.191406 892.480469 C 694.191406 888.527344 690.96875 885.324219 686.996094 885.324219 C 685.441406 885.324219 684.007812 885.820312 682.832031 886.652344 L 682.34375 879.132812 C 682.214844 877.164062 680.503906 875.667969 678.519531 875.796875 C 676.539062 875.921875 675.035156 877.625 675.164062 879.59375 L 677.4375 914.480469 C 677.558594 916.363281 679.125 917.824219 681.023438 917.824219 L 692.273438 917.824219 L 692.851562 923.625 C 681.507812 924.183594 678.269531 928.914062 678.074219 929.3125 L 677.875 929.648438 L 677.875 931.789062 C 676.308594 932.289062 675.171875 933.746094 675.171875 935.472656 C 675.171875 937.605469 676.914062 939.339844 679.0625 939.339844 C 681.210938 939.339844 682.953125 937.605469 682.953125 935.472656 C 682.953125 933.9375 682.054688 932.613281 680.75 931.988281 L 680.75 930.527344 C 681.523438 929.675781 684.554688 926.898438 693.136719 926.488281 L 693.671875 931.832031 C 692.171875 932.371094 691.097656 933.792969 691.097656 935.46875 C 691.097656 937.605469 692.839844 939.339844 694.988281 939.339844 C 697.136719 939.339844 698.878906 937.605469 698.878906 935.46875 C 698.878906 933.980469 698.03125 932.6875 696.785156 932.042969 L 697.339844 926.484375 C 702.363281 926.722656 705.492188 927.785156 707.367188 928.785156 C 708.429688 929.351562 709.097656 929.898438 709.484375 930.277344 C 709.582031 930.371094 709.664062 930.453125 709.726562 930.527344 L 709.726562 931.921875 C 708.347656 932.519531 707.386719 933.882812 707.386719 935.46875 C 707.386719 937.605469 709.128906 939.339844 711.277344 939.339844 C 713.425781 939.339844 715.167969 937.605469 715.167969 935.46875 C 715.167969 933.796875 714.097656 932.378906 712.605469 931.835938 L 712.605469 929.648438 L 712.402344 929.3125 C 712.207031 928.914062 708.972656 924.183594 697.625 923.625 L 698.203125 917.824219 L 709.324219 917.824219 C 711.308594 917.824219 712.917969 916.222656 712.917969 914.25 C 712.917969 912.273438 711.308594 910.671875 709.324219 910.671875 L 684.394531 910.671875 L 683.621094 898.796875 C 684.625 899.328125 685.773438 899.632812 686.992188 899.632812 C 690.96875 899.632812 694.191406 896.429688 694.191406 892.480469 Z M 694.191406 892.480469 " fill-opacity="1" fill-rule="nonzero"/>

</g>
</svg>