<svg xmlns="http://www.w3.org/2000/svg" viewBox="0 0 50.66796900000003 57.0">
<g transform="translate(-498.332031,-1042.0)">
<path fill="#000000" d="M 547.546875 1098.710938 C 547.335938 1098.710938 547.144531 1098.664062 546.933594 1098.574219 C 535.78125 1093.257812 526.226562 1097.449219 526.132812 1097.496094 C 525.941406 1097.566406 525.753906 1097.613281 525.542969 1097.613281 L 499.785156 1097.613281 C 499.386719 1097.613281 499.011719 1097.449219 498.730469 1097.144531 C 498.472656 1096.839844 498.328125 1096.441406 498.375 1096.066406 L 503.917969 1043.726562 C 503.988281 1043 504.597656 1042.460938 505.328125 1042.460938 L 513.875 1042.460938 C 514.648438 1042.460938 515.28125 1043.09375 515.28125 1043.867188 C 515.28125 1044.640625 514.648438 1045.273438 513.875 1045.273438 L 506.59375 1045.273438 L 501.335938 1094.800781 L 525.261719 1094.800781 C 527.09375 1094.050781 536.769531 1090.609375 548.15625 1096.042969 C 548.859375 1096.371094 549.164062 1097.214844 548.8125 1097.917969 C 548.578125 1098.410156 548.085938 1098.710938 547.546875 1098.710938 Z M 547.546875 1098.710938 " fill-opacity="1" fill-rule="nonzero"/>

</g>
</svg>