<svg xmlns="http://www.w3.org/2000/svg" viewBox="0 0 51.257811999999944 57.0">
<g transform="translate(-561.0,-1042.0)">
<path fill="#000000" d="M 562.996094 1098.710938 C 562.480469 1098.710938 561.960938 1098.410156 561.726562 1097.917969 C 561.398438 1097.214844 561.679688 1096.371094 562.386719 1096.042969 C 573.773438 1090.632812 583.449219 1094.074219 585.277344 1094.800781 L 609.207031 1094.800781 L 603.96875 1045.273438 L 596.691406 1045.273438 C 595.917969 1045.273438 595.28125 1044.640625 595.28125 1043.867188 C 595.28125 1043.09375 595.917969 1042.460938 596.691406 1042.460938 L 605.238281 1042.460938 C 605.964844 1042.460938 606.554688 1043 606.648438 1043.726562 L 612.1875 1096.066406 C 612.234375 1096.464844 612.09375 1096.863281 611.835938 1097.144531 C 611.578125 1097.449219 611.179688 1097.613281 610.78125 1097.613281 L 584.996094 1097.613281 C 584.785156 1097.613281 584.597656 1097.566406 584.410156 1097.496094 C 584.316406 1097.449219 574.761719 1093.28125 563.605469 1098.574219 C 563.394531 1098.664062 563.183594 1098.710938 562.996094 1098.710938 Z M 562.996094 1098.710938 " fill-opacity="1" fill-rule="nonzero"/>

</g>
</svg>