<svg xmlns="http://www.w3.org/2000/svg" viewBox="0 0 128.16796900000003 137.164063">
<g transform="translate(-411.136719,-421.664062)">
<path fill="#1a1a1a" d="M 515.167969 503.992188 L 515.167969 469.886719 C 515.167969 465.722656 511.765625 462.335938 507.582031 462.335938 L 499.441406 462.335938 L 502.660156 455.5625 C 504.058594 452.621094 502.953125 449.324219 500.089844 447.894531 C 497.304688 446.503906 493.320312 447.28125 491.101562 451.460938 L 485.332031 462.335938 L 480.414062 462.335938 C 479.578125 457.410156 475.265625 453.644531 470.085938 453.644531 C 464.90625 453.644531 460.597656 457.410156 459.765625 462.335938 L 454.84375 462.335938 L 449.074219 451.460938 C 446.855469 447.28125 442.875 446.503906 440.089844 447.894531 C 437.222656 449.324219 436.117188 452.621094 437.515625 455.5625 L 440.738281 462.335938 L 432.597656 462.335938 C 428.414062 462.335938 425.011719 465.722656 425.011719 469.886719 L 425.011719 503.992188 C 422.882812 505.511719 420.914062 507.277344 419.054688 509.347656 C 410.941406 518.359375 411.058594 524.191406 411.164062 529.335938 C 411.175781 529.867188 411.1875 530.394531 411.1875 530.921875 L 411.1875 538.074219 C 411.1875 541.390625 413.898438 544.089844 417.234375 544.089844 L 418.320312 544.089844 C 419.023438 544.089844 419.695312 543.964844 420.324219 543.742188 L 420.324219 556.820312 C 420.324219 557.929688 421.226562 558.828125 422.339844 558.828125 L 434.214844 558.828125 C 435.328125 558.828125 436.230469 557.929688 436.230469 556.820312 L 436.230469 541.15625 L 503.949219 541.15625 L 503.949219 556.820312 C 503.949219 557.929688 504.851562 558.828125 505.964844 558.828125 L 517.835938 558.828125 C 518.949219 558.828125 519.851562 557.929688 519.851562 556.820312 L 519.851562 543.742188 C 520.480469 543.964844 521.15625 544.089844 521.859375 544.089844 L 522.945312 544.089844 C 526.28125 544.089844 528.992188 541.390625 528.992188 538.074219 L 528.992188 530.488281 C 528.992188 530.183594 528.996094 529.863281 529 529.527344 C 529.058594 525.3125 529.15625 518.261719 521.125 509.347656 C 519.265625 507.277344 517.296875 505.511719 515.167969 503.992188 Z M 507.582031 466.351562 C 509.542969 466.351562 511.136719 467.9375 511.136719 469.886719 L 511.136719 501.535156 C 505.964844 499.03125 497.15625 497.261719 486.113281 496.425781 L 486.113281 486.226562 C 486.113281 485.253906 486.488281 484.695312 487.425781 484.292969 C 489.949219 483.191406 490.789062 481.042969 491.535156 479.144531 C 491.738281 478.621094 491.933594 478.125 492.160156 477.648438 L 497.53125 466.351562 Z M 480.308594 466.351562 L 483.203125 466.351562 L 480.769531 470.933594 C 480.691406 471.082031 480.617188 471.226562 480.542969 471.371094 C 480.371094 471.714844 480.117188 472.210938 479.949219 472.398438 L 476.398438 472.398438 C 478.34375 470.929688 479.757812 468.800781 480.308594 466.351562 Z M 470.085938 457.660156 C 473.640625 457.660156 476.53125 460.539062 476.53125 464.074219 C 476.53125 467.617188 473.640625 470.496094 470.085938 470.496094 C 466.535156 470.496094 463.648438 467.617188 463.648438 464.074219 C 463.648438 460.539062 466.535156 457.660156 470.085938 457.660156 Z M 459.871094 466.351562 C 460.417969 468.800781 461.832031 470.929688 463.777344 472.398438 L 460.226562 472.398438 C 460.0625 472.210938 459.808594 471.714844 459.632812 471.371094 C 459.558594 471.226562 459.484375 471.082031 459.40625 470.933594 L 456.976562 466.351562 Z M 441.894531 451.484375 C 442.855469 451.003906 444.378906 451.203125 445.511719 453.339844 L 451.808594 465.207031 C 451.832031 465.257812 451.859375 465.308594 451.886719 465.355469 L 455.839844 472.804688 C 455.910156 472.933594 455.976562 473.0625 456.042969 473.191406 C 456.65625 474.398438 457.6875 476.414062 460.164062 476.414062 L 480.015625 476.414062 C 482.492188 476.414062 483.523438 474.398438 484.136719 473.195312 C 484.203125 473.066406 484.269531 472.933594 484.335938 472.808594 L 488.289062 465.355469 C 488.320312 465.308594 488.347656 465.257812 488.371094 465.203125 L 494.664062 453.339844 C 495.800781 451.203125 497.324219 451.003906 498.285156 451.484375 C 498.535156 451.609375 499.746094 452.3125 499.019531 453.84375 L 494.40625 463.539062 C 494.40625 463.546875 494.398438 463.554688 494.398438 463.5625 L 488.515625 475.929688 C 488.230469 476.535156 488 477.121094 487.777344 477.683594 C 487.136719 479.328125 486.757812 480.203125 485.820312 480.609375 C 483.40625 481.648438 482.082031 483.640625 482.082031 486.226562 L 482.082031 496.164062 C 478.136719 495.957031 473.953125 495.859375 469.582031 495.882812 C 465.910156 495.902344 462.007812 496.019531 458.097656 496.25 L 458.097656 486.226562 C 458.097656 483.640625 456.769531 481.648438 454.371094 480.617188 C 453.421875 480.203125 453.042969 479.328125 452.398438 477.6875 C 452.179688 477.121094 451.949219 476.535156 451.660156 475.929688 L 445.78125 463.5625 C 445.777344 463.554688 445.773438 463.546875 445.769531 463.539062 L 441.160156 453.84375 C 440.433594 452.3125 441.644531 451.609375 441.894531 451.484375 Z M 432.597656 466.351562 L 442.648438 466.351562 L 448.019531 477.648438 C 448.246094 478.125 448.441406 478.621094 448.644531 479.144531 C 449.386719 481.042969 450.230469 483.191406 452.761719 484.296875 C 453.6875 484.695312 454.066406 485.253906 454.066406 486.226562 L 454.066406 496.527344 C 444.109375 497.320312 434.574219 498.894531 429.039062 501.542969 L 429.039062 469.886719 C 429.039062 467.9375 430.636719 466.351562 432.597656 466.351562 Z M 515.820312 554.8125 L 507.980469 554.8125 L 507.980469 539.148438 C 507.980469 538.039062 507.078125 537.140625 505.964844 537.140625 L 434.214844 537.140625 C 433.101562 537.140625 432.199219 538.039062 432.199219 539.148438 L 432.199219 554.8125 L 424.355469 554.8125 L 424.355469 525.90625 C 424.355469 524.800781 425.261719 523.90625 426.371094 523.90625 L 513.804688 523.90625 C 514.917969 523.90625 515.820312 524.800781 515.820312 525.90625 Z M 524.96875 529.472656 C 524.964844 529.828125 524.960938 530.164062 524.960938 530.488281 L 524.960938 538.074219 C 524.960938 539.175781 524.058594 540.074219 522.945312 540.074219 L 521.859375 540.074219 C 520.753906 540.074219 519.851562 539.175781 519.851562 538.074219 L 519.851562 525.90625 C 519.851562 522.589844 517.140625 519.890625 513.804688 519.890625 L 426.371094 519.890625 C 423.039062 519.890625 420.324219 522.589844 420.324219 525.90625 L 420.324219 538.074219 C 420.324219 539.175781 419.425781 540.074219 418.320312 540.074219 L 417.234375 540.074219 C 416.121094 540.074219 415.21875 539.175781 415.21875 538.074219 L 415.21875 530.921875 C 415.21875 530.367188 415.207031 529.8125 415.195312 529.253906 C 415.101562 524.636719 415.003906 519.863281 422.054688 512.027344 C 424.414062 509.40625 426.949219 507.324219 429.808594 505.667969 C 435.59375 502.316406 451.585938 499.996094 469.605469 499.898438 C 488.140625 499.796875 504.140625 502.058594 510.371094 505.667969 C 513.230469 507.324219 515.765625 509.40625 518.125 512.027344 C 525.105469 519.777344 525.027344 525.378906 524.96875 529.472656 Z M 512.605469 434.542969 C 512.605469 439.628906 516.761719 443.769531 521.867188 443.769531 C 526.976562 443.769531 531.128906 439.628906 531.128906 434.542969 C 531.128906 429.453125 526.976562 425.316406 521.867188 425.316406 C 516.761719 425.316406 512.605469 429.453125 512.605469 434.542969 Z M 521.867188 429.332031 C 524.753906 429.332031 527.097656 431.667969 527.097656 434.542969 C 527.097656 437.414062 524.753906 439.753906 521.867188 439.753906 C 518.984375 439.753906 516.636719 437.414062 516.636719 434.542969 C 516.636719 431.667969 518.984375 429.332031 521.867188 429.332031 Z M 521.867188 445.734375 C 522.980469 445.734375 523.882812 446.632812 523.882812 447.742188 L 523.882812 449.914062 C 523.882812 451.023438 522.980469 451.921875 521.867188 451.921875 C 520.753906 451.921875 519.851562 451.023438 519.851562 449.914062 L 519.851562 447.742188 C 519.851562 446.632812 520.753906 445.734375 521.867188 445.734375 Z M 513.917969 442.460938 C 514.703125 443.246094 514.703125 444.515625 513.917969 445.300781 L 512.382812 446.828125 C 511.988281 447.222656 511.472656 447.417969 510.957031 447.417969 C 510.441406 447.417969 509.925781 447.222656 509.535156 446.828125 C 508.746094 446.046875 508.746094 444.773438 509.535156 443.992188 L 511.066406 442.460938 C 511.855469 441.679688 513.128906 441.679688 513.917969 442.460938 Z M 508.617188 432.535156 C 509.730469 432.535156 510.632812 433.433594 510.632812 434.542969 C 510.632812 435.648438 509.730469 436.550781 508.617188 436.550781 L 506.4375 436.550781 C 505.324219 436.550781 504.421875 435.648438 504.421875 434.542969 C 504.421875 433.433594 505.324219 432.535156 506.4375 432.535156 Z M 512.382812 422.253906 L 513.917969 423.78125 C 514.703125 424.566406 514.703125 425.835938 513.917969 426.621094 C 513.523438 427.011719 513.007812 427.207031 512.492188 427.207031 C 511.976562 427.207031 511.460938 427.011719 511.066406 426.621094 L 509.535156 425.09375 C 508.746094 424.308594 508.746094 423.035156 509.535156 422.253906 C 510.320312 421.46875 511.597656 421.46875 512.382812 422.253906 Z M 531.242188 427.207031 C 530.726562 427.207031 530.210938 427.011719 529.820312 426.621094 C 529.03125 425.835938 529.03125 424.566406 529.820312 423.78125 L 531.351562 422.253906 C 532.140625 421.46875 533.417969 421.46875 534.203125 422.253906 C 534.992188 423.035156 534.992188 424.308594 534.203125 425.09375 L 532.667969 426.621094 C 532.277344 427.011719 531.761719 427.207031 531.242188 427.207031 Z M 539.3125 434.542969 C 539.3125 435.648438 538.410156 436.550781 537.296875 436.550781 L 535.128906 436.550781 C 534.015625 436.550781 533.113281 435.648438 533.113281 434.542969 C 533.113281 433.433594 534.015625 432.535156 535.128906 432.535156 L 537.296875 432.535156 C 538.410156 432.535156 539.3125 433.433594 539.3125 434.542969 Z M 534.203125 443.992188 C 534.992188 444.773438 534.992188 446.046875 534.203125 446.828125 C 533.808594 447.222656 533.292969 447.417969 532.777344 447.417969 C 532.261719 447.417969 531.746094 447.222656 531.351562 446.828125 L 529.820312 445.300781 C 529.03125 444.515625 529.03125 443.246094 529.820312 442.460938 C 530.605469 441.679688 531.882812 441.679688 532.667969 442.460938 Z M 534.203125 443.992188 " fill-opacity="1" fill-rule="nonzero"/>

</g>
</svg>