<svg xmlns="http://www.w3.org/2000/svg" viewBox="0 0 95.0 114.02734400000003">
<g transform="translate(-442.0,-248.0)">
<path fill="#000000" d="M 536.464844 305.074219 C 536.464844 282.769531 520.273438 263.347656 498.585938 259.175781 L 498.585938 257.003906 C 498.585938 252.105469 494.601562 248.121094 489.710938 248.121094 C 484.820312 248.121094 480.839844 252.105469 480.839844 257.003906 L 480.839844 259.175781 C 459.140625 263.359375 442.960938 282.777344 442.960938 305.074219 C 442.960938 318.261719 448.546875 330.734375 458.269531 339.609375 L 453.4375 349.332031 C 451.277344 353.660156 453.035156 358.941406 457.347656 361.101562 C 458.578125 361.722656 459.910156 362.039062 461.246094 362.039062 C 462.175781 362.039062 463.109375 361.886719 464.019531 361.582031 C 466.246094 360.839844 468.046875 359.273438 469.078125 357.179688 L 473.25 348.824219 C 478.496094 350.824219 484.015625 351.886719 489.714844 351.886719 C 495.464844 351.886719 501.058594 350.796875 506.410156 348.746094 L 510.621094 357.183594 C 512.167969 360.25 515.273438 362.027344 518.484375 362.027344 C 519.796875 362.027344 521.121094 361.730469 522.371094 361.109375 C 522.371094 361.109375 522.375 361.109375 522.378906 361.105469 C 526.683594 358.921875 528.441406 353.644531 526.289062 349.335938 L 521.339844 339.421875 C 530.941406 330.589844 536.464844 318.179688 536.464844 305.074219 Z M 484.628906 257.003906 C 484.628906 254.199219 486.910156 251.917969 489.710938 251.917969 C 492.511719 251.917969 494.792969 254.199219 494.792969 257.003906 L 494.792969 258.542969 C 494.605469 258.519531 494.410156 258.53125 494.222656 258.511719 C 492.8125 258.371094 491.386719 258.28125 489.957031 258.273438 C 489.875 258.273438 489.796875 258.257812 489.714844 258.257812 C 489.644531 258.257812 489.570312 258.269531 489.5 258.269531 C 488.050781 258.277344 486.613281 258.367188 485.191406 258.511719 C 485.011719 258.53125 484.816406 258.523438 484.632812 258.542969 L 484.632812 257.003906 Z M 465.679688 355.488281 C 465.09375 356.675781 464.078125 357.558594 462.816406 357.980469 C 461.5625 358.394531 460.230469 358.304688 459.050781 357.707031 C 456.554688 356.457031 455.582031 353.523438 456.828125 351.023438 L 461.234375 342.171875 C 461.359375 342.265625 461.496094 342.34375 461.625 342.441406 C 462.816406 343.335938 464.035156 344.1875 465.292969 344.960938 C 465.417969 345.035156 465.550781 345.101562 465.679688 345.179688 C 466.828125 345.871094 468.003906 346.507812 469.203125 347.09375 C 469.378906 347.183594 469.546875 347.296875 469.730469 347.378906 Z M 473.046875 344.714844 C 469.003906 342.992188 465.222656 340.65625 461.816406 337.761719 C 452.242188 329.5625 446.75 317.648438 446.75 305.074219 C 446.75 284.082031 462.347656 265.820312 483.050781 262.597656 C 484.136719 262.414062 485.238281 262.277344 486.34375 262.1875 C 487.449219 262.101562 488.566406 262.054688 489.710938 262.054688 C 490.859375 262.054688 491.976562 262.101562 493.082031 262.191406 C 493.363281 262.214844 493.640625 262.265625 493.917969 262.292969 C 494.742188 262.378906 495.566406 262.464844 496.390625 262.601562 C 517.078125 265.820312 532.671875 284.082031 532.671875 305.074219 C 532.671875 317.578125 527.246094 329.425781 517.769531 337.589844 C 514.5 340.464844 510.746094 342.839844 506.59375 344.636719 C 495.902344 349.207031 483.613281 349.21875 473.046875 344.714844 Z M 520.675781 357.710938 C 518.230469 358.929688 515.242188 357.925781 514.007812 355.480469 L 509.917969 347.292969 C 510.101562 347.199219 510.273438 347.085938 510.457031 346.996094 C 511.652344 346.398438 512.820312 345.761719 513.945312 345.074219 C 514.097656 344.984375 514.253906 344.902344 514.40625 344.808594 C 515.664062 344.023438 516.863281 343.167969 518.027344 342.269531 C 518.144531 342.175781 518.277344 342.101562 518.394531 342.011719 L 522.902344 351.03125 C 524.121094 353.472656 523.121094 356.46875 520.675781 357.710938 Z M 520.675781 357.710938 " fill-opacity="1" fill-rule="nonzero"/>

</g>
</svg>