<svg xmlns="http://www.w3.org/2000/svg" viewBox="0 0 91.0 78.90625">
<g transform="translate(-1042.0,-727.0)">
<path fill="#000000" d="M 1074.71875 805.097656 C 1072.808594 805.097656 1070.945312 804.71875 1069.082031 803.964844 C 1057.257812 799.105469 1047.746094 779.523438 1044.777344 767.191406 C 1042.335938 757.023438 1042.3125 751.585938 1044.703125 747.835938 C 1045.984375 745.796875 1047.898438 744.5625 1048.199219 744.386719 C 1049.128906 743.785156 1050.539062 743.054688 1053.40625 742.574219 C 1050.4375 740.6875 1048.5 738.070312 1048.199219 735.226562 C 1048.175781 735 1048.175781 734.796875 1048.175781 734.597656 C 1048.175781 734.066406 1048.222656 733.5625 1048.324219 733.035156 C 1048.777344 731.023438 1050.0625 729.308594 1051.898438 728.304688 C 1053.785156 727.273438 1056.023438 727.09375 1058.039062 727.851562 L 1080.808594 736.207031 C 1083.878906 737.339844 1085.890625 740.183594 1085.941406 743.457031 C 1085.992188 746.726562 1084.054688 749.648438 1080.984375 750.855469 L 1066.492188 756.621094 C 1069.890625 764.675781 1073.261719 772.730469 1076.65625 780.78125 L 1098.800781 763.667969 C 1102.097656 761.101562 1106.902344 761.527344 1109.695312 764.648438 C 1119.960938 776 1132.265625 790.726562 1132.644531 796.515625 C 1132.84375 799.433594 1132.039062 801.675781 1130.277344 803.109375 C 1127.082031 805.75 1121.875 804.667969 1120.363281 804.265625 C 1117.167969 803.4375 1115.632812 801.273438 1109.140625 792.183594 C 1107.40625 789.742188 1105.292969 786.796875 1102.675781 783.199219 C 1095.90625 791.957031 1091 797.195312 1086.421875 800.59375 C 1082.371094 803.585938 1078.496094 805.097656 1074.71875 805.097656 Z M 1059.269531 745.09375 C 1057.960938 745.09375 1056.679688 745.167969 1055.421875 745.320312 C 1051.570312 745.773438 1050.289062 746.601562 1049.808594 746.90625 C 1049.785156 746.929688 1049.757812 746.929688 1049.757812 746.929688 C 1049.757812 746.929688 1048.222656 747.859375 1047.242188 749.394531 C 1045.382812 752.339844 1045.507812 757.300781 1047.722656 766.4375 C 1050.992188 780.027344 1060.527344 797.144531 1070.242188 801.121094 C 1074.796875 802.984375 1079.375 802.027344 1084.660156 798.101562 C 1089.265625 794.703125 1094.320312 789.191406 1101.542969 779.699219 C 1101.820312 779.324219 1102.273438 779.097656 1102.75 779.097656 C 1102.75 779.097656 1102.75 779.097656 1102.777344 779.097656 C 1103.253906 779.097656 1103.707031 779.324219 1103.984375 779.726562 C 1107.152344 784.082031 1109.644531 787.578125 1111.632812 790.371094 C 1117.847656 799.082031 1119.082031 800.742188 1121.144531 801.296875 C 1123.433594 801.902344 1126.707031 802.101562 1128.367188 800.71875 C 1129.347656 799.914062 1129.773438 798.578125 1129.648438 796.640625 C 1129.398438 792.914062 1121.121094 781.664062 1107.480469 766.585938 C 1105.71875 764.648438 1102.726562 764.371094 1100.664062 765.984375 L 1076.960938 784.308594 C 1076.582031 784.582031 1076.105469 784.683594 1075.652344 784.582031 C 1075.199219 784.457031 1074.820312 784.128906 1074.644531 783.703125 C 1070.996094 775.019531 1067.347656 766.335938 1063.699219 757.675781 L 1061.332031 758.609375 C 1060.554688 758.910156 1059.671875 758.53125 1059.371094 757.753906 C 1059.070312 756.972656 1059.445312 756.089844 1060.226562 755.789062 L 1079.902344 747.960938 C 1082.167969 747.054688 1082.972656 745.015625 1082.949219 743.40625 C 1082.921875 741.792969 1082.09375 739.78125 1079.777344 738.949219 L 1056.980469 730.644531 C 1055.773438 730.191406 1054.4375 730.292969 1053.332031 730.921875 C 1052.25 731.527344 1051.519531 732.480469 1051.269531 733.664062 C 1051.195312 733.96875 1051.167969 734.242188 1051.167969 734.546875 C 1051.167969 734.648438 1051.167969 734.773438 1051.195312 734.921875 C 1051.46875 737.640625 1054.867188 741.066406 1060.554688 742.121094 C 1061.8125 742.171875 1063.09375 742.273438 1064.351562 742.449219 C 1065.132812 742.550781 1065.710938 743.253906 1065.660156 744.035156 C 1065.613281 744.816406 1064.957031 745.445312 1064.152344 745.445312 C 1062.820312 745.445312 1061.484375 745.34375 1060.226562 745.117188 C 1059.925781 745.09375 1059.597656 745.09375 1059.269531 745.09375 Z M 1059.269531 745.09375 " fill-opacity="1" fill-rule="nonzero"/>

</g>
</svg>