<svg xmlns="http://www.w3.org/2000/svg" viewBox="0 0 65.0 105.54296899999997">
<g transform="translate(-1027.0,-893.457031)">
<path fill="#231f20" d="M 1061.519531 894.503906 C 1061.414062 894.34375 1061.292969 894.195312 1061.152344 894.0625 C 1061.015625 893.933594 1060.859375 893.820312 1060.691406 893.726562 C 1060.523438 893.636719 1060.34375 893.566406 1060.160156 893.515625 C 1059.972656 893.46875 1059.78125 893.445312 1059.589844 893.445312 C 1059.398438 893.445312 1059.207031 893.46875 1059.019531 893.515625 C 1058.835938 893.566406 1058.65625 893.636719 1058.488281 893.726562 C 1058.320312 893.820312 1058.164062 893.933594 1058.023438 894.0625 C 1057.886719 894.195312 1057.765625 894.34375 1057.660156 894.503906 C 1056.433594 896.726562 1027.460938 949.40625 1027.460938 966.242188 C 1027.460938 967.289062 1027.515625 968.332031 1027.617188 969.375 C 1027.71875 970.417969 1027.875 971.449219 1028.082031 972.476562 C 1028.285156 973.503906 1028.539062 974.519531 1028.847656 975.519531 C 1029.152344 976.523438 1029.503906 977.507812 1029.910156 978.472656 C 1030.3125 979.441406 1030.761719 980.386719 1031.257812 981.308594 C 1031.753906 982.234375 1032.292969 983.128906 1032.878906 984 C 1033.460938 984.871094 1034.085938 985.710938 1034.753906 986.519531 C 1035.421875 987.328125 1036.128906 988.105469 1036.871094 988.84375 C 1037.617188 989.585938 1038.394531 990.285156 1039.207031 990.949219 C 1040.023438 991.613281 1040.867188 992.238281 1041.742188 992.820312 C 1042.617188 993.402344 1043.515625 993.9375 1044.445312 994.433594 C 1045.375 994.925781 1046.324219 995.371094 1047.296875 995.773438 C 1048.265625 996.175781 1049.257812 996.527344 1050.265625 996.832031 C 1051.269531 997.132812 1052.289062 997.386719 1053.320312 997.59375 C 1054.355469 997.796875 1055.394531 997.949219 1056.441406 998.050781 C 1057.488281 998.15625 1058.539062 998.207031 1059.589844 998.207031 C 1060.640625 998.207031 1061.691406 998.15625 1062.738281 998.050781 C 1063.785156 997.949219 1064.824219 997.796875 1065.855469 997.59375 C 1066.890625 997.386719 1067.910156 997.132812 1068.914062 996.832031 C 1069.921875 996.527344 1070.910156 996.175781 1071.882812 995.773438 C 1072.855469 995.371094 1073.804688 994.925781 1074.734375 994.433594 C 1075.664062 993.9375 1076.5625 993.402344 1077.4375 992.820312 C 1078.3125 992.238281 1079.15625 991.613281 1079.972656 990.949219 C 1080.785156 990.285156 1081.5625 989.585938 1082.308594 988.84375 C 1083.050781 988.105469 1083.757812 987.328125 1084.425781 986.519531 C 1085.089844 985.710938 1085.71875 984.871094 1086.300781 984 C 1086.886719 983.128906 1087.425781 982.234375 1087.921875 981.308594 C 1088.417969 980.386719 1088.867188 979.441406 1089.269531 978.472656 C 1089.671875 977.507812 1090.027344 976.523438 1090.332031 975.519531 C 1090.636719 974.519531 1090.894531 973.503906 1091.097656 972.476562 C 1091.304688 971.449219 1091.457031 970.417969 1091.5625 969.375 C 1091.664062 968.332031 1091.714844 967.289062 1091.714844 966.242188 C 1091.714844 949.40625 1062.746094 896.726562 1061.519531 894.503906 Z M 1059.589844 993.757812 C 1058.679688 993.757812 1057.777344 993.710938 1056.871094 993.621094 C 1055.96875 993.53125 1055.070312 993.398438 1054.179688 993.222656 C 1053.289062 993.042969 1052.410156 992.824219 1051.539062 992.558594 C 1050.671875 992.296875 1049.816406 991.992188 1048.980469 991.644531 C 1048.140625 991.300781 1047.320312 990.914062 1046.519531 990.484375 C 1045.71875 990.058594 1044.941406 989.59375 1044.1875 989.09375 C 1043.429688 988.589844 1042.703125 988.050781 1042 987.480469 C 1041.300781 986.90625 1040.625 986.300781 1039.984375 985.660156 C 1039.34375 985.023438 1038.734375 984.351562 1038.15625 983.65625 C 1037.582031 982.957031 1037.039062 982.230469 1036.535156 981.480469 C 1036.03125 980.730469 1035.5625 979.953125 1035.132812 979.15625 C 1034.707031 978.359375 1034.316406 977.546875 1033.96875 976.710938 C 1033.621094 975.875 1033.316406 975.027344 1033.050781 974.164062 C 1032.785156 973.296875 1032.5625 972.421875 1032.386719 971.535156 C 1032.207031 970.648438 1032.074219 969.757812 1031.984375 968.859375 C 1031.894531 967.960938 1031.847656 967.058594 1031.847656 966.152344 C 1031.847656 952.898438 1053.015625 912.425781 1059.589844 900.171875 C 1066.164062 912.425781 1087.332031 952.898438 1087.332031 966.242188 C 1087.328125 967.144531 1087.28125 968.042969 1087.1875 968.941406 C 1087.09375 969.835938 1086.957031 970.726562 1086.777344 971.609375 C 1086.597656 972.496094 1086.375 973.367188 1086.109375 974.230469 C 1085.84375 975.09375 1085.535156 975.9375 1085.183594 976.769531 C 1084.835938 977.605469 1084.445312 978.417969 1084.015625 979.210938 C 1083.585938 980.003906 1083.121094 980.777344 1082.613281 981.523438 C 1082.109375 982.273438 1081.566406 982.996094 1080.992188 983.691406 C 1080.414062 984.386719 1079.804688 985.054688 1079.164062 985.691406 C 1078.523438 986.328125 1077.851562 986.933594 1077.148438 987.503906 C 1076.449219 988.074219 1075.71875 988.609375 1074.964844 989.109375 C 1074.210938 989.613281 1073.433594 990.074219 1072.636719 990.5 C 1071.835938 990.925781 1071.015625 991.308594 1070.179688 991.652344 C 1069.34375 992 1068.488281 992.304688 1067.621094 992.566406 C 1066.753906 992.828125 1065.878906 993.046875 1064.988281 993.222656 C 1064.101562 993.398438 1063.203125 993.53125 1062.300781 993.621094 C 1061.398438 993.710938 1060.496094 993.757812 1059.589844 993.757812 Z M 1059.589844 993.757812 " fill-opacity="1" fill-rule="nonzero"/>

</g>
</svg>