<svg xmlns="http://www.w3.org/2000/svg" viewBox="0 0 122.14062500000006 96.66406299999994">
<g transform="translate(-409.566406,-539.503906)">
<path fill="#000000" d="M 423.539062 603.699219 C 428.683594 603.699219 432.867188 599.503906 432.867188 594.339844 C 432.867188 589.179688 428.683594 584.980469 423.539062 584.980469 C 418.394531 584.980469 414.210938 589.179688 414.210938 594.339844 C 414.210938 599.503906 418.394531 603.699219 423.539062 603.699219 Z M 423.539062 588.035156 C 427.007812 588.035156 429.828125 590.863281 429.828125 594.34375 C 429.828125 597.820312 427.007812 600.652344 423.539062 600.652344 C 420.074219 600.652344 417.253906 597.820312 417.253906 594.34375 C 417.253906 590.863281 420.074219 588.035156 423.539062 588.035156 Z M 528.054688 604.074219 L 523.945312 604.074219 C 524.433594 603.210938 524.710938 602.210938 524.710938 601.148438 L 524.710938 600.738281 C 524.710938 597.617188 522.28125 595 519.179688 594.777344 L 498.300781 593.277344 C 497.484375 591.527344 495.78125 590.210938 493.8125 590.023438 L 488.996094 589.570312 C 488.933594 588.113281 488.566406 586.808594 487.847656 585.5 L 475.488281 563.050781 C 473.25 558.984375 468.734375 557.03125 464.246094 558.191406 C 459.761719 559.351562 456.75 563.253906 456.75 567.898438 L 456.75 577.238281 L 446.300781 585.199219 C 444.941406 586.238281 444.25 587.820312 444.316406 589.402344 L 442.714844 589.289062 C 442.679688 589.289062 442.640625 589.285156 442.605469 589.285156 C 439.566406 589.285156 436.921875 590.652344 435.164062 593.140625 C 433.40625 595.628906 432.988281 598.585938 433.992188 601.460938 L 434.902344 604.070312 L 413.214844 604.070312 C 411.203125 604.070312 409.566406 605.710938 409.566406 607.734375 L 409.566406 613.464844 C 409.566406 615.484375 411.203125 617.128906 413.214844 617.128906 L 418.996094 617.128906 L 418.996094 634.582031 C 418.996094 635.425781 419.675781 636.109375 420.515625 636.109375 L 429.261719 636.109375 C 430.101562 636.109375 430.78125 635.425781 430.78125 634.582031 L 430.78125 621.425781 C 431.164062 621.507812 431.554688 621.550781 431.941406 621.550781 C 433.023438 621.550781 434.113281 621.238281 435.074219 620.582031 L 440.125 617.128906 L 463.527344 617.128906 L 463.527344 618.054688 C 463.527344 620.84375 465.773438 623.328125 468.53125 623.585938 L 475.839844 624.273438 L 475.839844 629.503906 C 475.839844 633.148438 478.796875 636.113281 482.425781 636.113281 C 486.058594 636.113281 489.011719 633.148438 489.011719 629.503906 L 489.011719 625.511719 L 493.53125 625.933594 C 493.695312 625.949219 493.855469 625.957031 494.015625 625.957031 C 495.230469 625.957031 496.363281 625.523438 497.25 624.710938 C 498.261719 623.789062 498.820312 622.5 498.820312 621.085938 L 498.820312 617.132812 L 510.492188 617.132812 L 510.492188 634.585938 C 510.492188 635.429688 511.171875 636.113281 512.011719 636.113281 L 520.761719 636.113281 C 521.597656 636.113281 522.28125 635.429688 522.28125 634.585938 L 522.28125 617.132812 L 528.054688 617.132812 C 530.066406 617.132812 531.707031 615.488281 531.707031 613.46875 L 531.707031 607.738281 C 531.707031 605.71875 530.070312 604.074219 528.054688 604.074219 Z M 448.140625 587.632812 L 459.191406 579.210938 C 459.566406 578.925781 459.789062 578.476562 459.789062 577.996094 L 459.789062 567.902344 C 459.789062 564.667969 461.886719 561.953125 465.003906 561.148438 C 468.125 560.339844 471.265625 561.699219 472.824219 564.527344 L 485.183594 586.976562 C 485.601562 587.738281 485.839844 588.472656 485.925781 589.285156 L 472.417969 588.015625 L 467.859375 581.433594 L 469.003906 571.949219 C 469.105469 571.113281 468.511719 570.355469 467.679688 570.253906 C 466.84375 570.152344 466.085938 570.75 465.984375 571.582031 L 464.808594 581.316406 L 450.425781 590.871094 C 449.53125 591.464844 448.339844 591.242188 447.71875 590.363281 C 447.097656 589.484375 447.28125 588.285156 448.136719 587.632812 Z M 412.605469 613.46875 L 412.605469 607.738281 C 412.605469 607.40625 412.882812 607.125 413.214844 607.125 L 434.960938 607.125 L 428.796875 611.339844 C 427.785156 612.03125 427.078125 613.003906 426.695312 614.082031 L 413.214844 614.082031 C 412.886719 614.082031 412.605469 613.800781 412.605469 613.46875 Z M 422.03125 633.058594 L 422.03125 617.128906 L 426.484375 617.128906 C 426.632812 617.820312 426.90625 618.492188 427.328125 619.109375 C 427.457031 619.300781 427.59375 619.476562 427.738281 619.644531 L 427.738281 633.058594 Z M 433.363281 618.0625 C 432.207031 618.855469 430.628906 618.554688 429.84375 617.394531 C 429.058594 616.234375 429.355469 614.652344 430.507812 613.863281 L 438.449219 608.433594 C 439.015625 608.046875 439.253906 607.320312 439.027344 606.667969 L 436.863281 600.464844 C 436.183594 598.515625 436.453125 596.597656 437.640625 594.914062 C 438.824219 593.246094 440.519531 592.355469 442.554688 592.339844 L 445.582031 592.554688 C 446.558594 593.667969 447.929688 594.257812 449.328125 594.257812 C 450.28125 594.257812 451.246094 593.984375 452.105469 593.414062 L 452.636719 593.0625 L 463.523438 593.84375 L 463.523438 604.074219 L 445.628906 604.074219 C 445.136719 604.074219 444.671875 604.3125 444.386719 604.71875 C 444.101562 605.121094 444.03125 605.636719 444.191406 606.101562 L 445.085938 608.671875 C 445.320312 609.34375 445.09375 610.035156 444.507812 610.433594 L 433.355469 618.0625 Z M 444.582031 614.082031 L 446.226562 612.957031 C 447.957031 611.777344 448.652344 609.648438 447.960938 607.664062 L 447.773438 607.125 L 463.523438 607.125 L 463.523438 614.082031 Z M 465.09375 588.898438 C 464.511719 589.429688 464.089844 590.082031 463.828125 590.808594 L 456.792969 590.304688 L 466.042969 584.15625 L 468.472656 587.664062 C 467.207031 587.628906 466.015625 588.058594 465.09375 588.902344 Z M 485.96875 629.503906 C 485.96875 631.464844 484.378906 633.0625 482.425781 633.0625 C 480.46875 633.0625 478.878906 631.46875 478.878906 629.503906 L 478.878906 624.558594 L 485.96875 625.226562 L 485.96875 629.507812 Z M 495.777344 621.082031 C 495.777344 621.628906 495.574219 622.113281 495.203125 622.453125 C 494.835938 622.789062 494.34375 622.941406 493.8125 622.894531 L 468.8125 620.546875 C 467.59375 620.433594 466.566406 619.292969 466.566406 618.054688 L 466.566406 592.523438 C 466.566406 591.980469 466.769531 591.492188 467.140625 591.152344 C 467.464844 590.859375 467.882812 590.703125 468.339844 590.703125 C 468.402344 590.703125 468.46875 590.703125 468.53125 590.710938 L 493.53125 593.058594 C 494.75 593.171875 495.777344 594.316406 495.777344 595.550781 Z M 521.667969 600.738281 L 521.667969 601.148438 C 521.667969 602.761719 520.363281 604.074219 518.753906 604.074219 L 498.816406 604.074219 L 498.816406 596.375 L 518.960938 597.820312 C 520.480469 597.929688 521.667969 599.210938 521.667969 600.738281 Z M 519.238281 633.058594 L 513.53125 633.058594 L 513.53125 617.128906 L 519.238281 617.128906 Z M 528.667969 613.46875 C 528.667969 613.800781 528.386719 614.082031 528.054688 614.082031 L 498.816406 614.082031 L 498.816406 607.125 L 528.054688 607.125 C 528.386719 607.125 528.667969 607.40625 528.667969 607.738281 Z M 453.390625 558.871094 C 458.703125 558.871094 463.027344 554.535156 463.027344 549.203125 C 463.027344 543.871094 458.703125 539.53125 453.390625 539.53125 C 448.074219 539.53125 443.753906 543.871094 443.753906 549.203125 C 443.753906 554.535156 448.074219 558.871094 453.390625 558.871094 Z M 453.390625 542.582031 C 457.027344 542.582031 459.984375 545.554688 459.984375 549.203125 C 459.984375 552.851562 457.027344 555.820312 453.390625 555.820312 C 449.753906 555.820312 446.792969 552.851562 446.792969 549.203125 C 446.792969 545.554688 449.753906 542.582031 453.390625 542.582031 Z M 453.390625 542.582031 " fill-opacity="1" fill-rule="nonzero"/>

</g>
</svg>