<svg xmlns="http://www.w3.org/2000/svg" viewBox="0 0 46.0 89.20703099999997">
<g transform="translate(-642.0,-327.792969)">
<path fill="#000000" d="M 665.21875 332.910156 C 659.867188 340.6875 642.339844 368.390625 647.488281 390.5 C 649.644531 399.753906 655.609375 407.019531 665.21875 412.113281 C 668.902344 410.160156 672.066406 407.882812 674.644531 405.339844 C 683.339844 396.753906 685.917969 384.640625 682.3125 369.339844 C 680.960938 363.535156 678.703125 357.304688 675.59375 350.8125 C 671.699219 342.667969 667.429688 336.105469 665.21875 332.910156 Z M 665.21875 416.101562 C 664.925781 416.101562 664.632812 416.035156 664.363281 415.898438 C 653.214844 410.261719 646.304688 402 643.820312 391.339844 C 637.402344 363.769531 662.636719 329.964844 663.714844 328.539062 C 664.070312 328.070312 664.628906 327.792969 665.21875 327.792969 C 665.808594 327.792969 666.363281 328.070312 666.722656 328.539062 C 666.988281 328.890625 673.304688 337.300781 678.992188 349.203125 C 682.214844 355.933594 684.566406 362.421875 685.976562 368.488281 C 689.902344 385.140625 686.980469 398.4375 677.296875 408.003906 C 674.242188 411.015625 670.46875 413.671875 666.070312 415.898438 C 665.804688 416.035156 665.507812 416.101562 665.21875 416.101562 " fill-opacity="1" fill-rule="nonzero"/>

</g>
</svg>