<svg xmlns="http://www.w3.org/2000/svg" viewBox="0 0 64.41796899999997 67.0">
<g transform="translate(-663.0,-352.0)">
<path fill="#000000" d="M 670.085938 413.640625 C 679.824219 415.851562 688.621094 414.28125 696.273438 408.949219 C 714.421875 396.277344 721.421875 365.910156 723.136719 356.90625 C 718.941406 357.667969 710.125 359.527344 700.640625 363.085938 C 695.269531 365.109375 690.445312 367.371094 686.277344 369.820312 C 689.738281 385.855469 686.71875 398.695312 677.292969 408.003906 C 675.21875 410.054688 672.804688 411.941406 670.085938 413.640625 Z M 678.4375 418.378906 C 674.03125 418.378906 669.421875 417.589844 664.625 416.007812 C 663.90625 415.769531 663.398438 415.125 663.339844 414.367188 C 663.285156 413.613281 663.6875 412.898438 664.363281 412.554688 C 668.414062 410.507812 671.871094 408.078125 674.644531 405.339844 C 683.339844 396.753906 685.917969 384.640625 682.3125 369.339844 C 682.128906 368.554688 682.46875 367.738281 683.15625 367.316406 C 687.78125 364.476562 693.214844 361.875 699.308594 359.574219 C 712.84375 354.5 724.691406 352.832031 725.1875 352.765625 C 725.773438 352.691406 726.367188 352.882812 726.78125 353.300781 C 727.199219 353.71875 727.394531 354.308594 727.308594 354.890625 C 727.066406 356.570312 721.097656 396.199219 698.433594 412.019531 C 692.359375 416.253906 685.667969 418.378906 678.4375 418.378906 " fill-opacity="1" fill-rule="nonzero"/>

</g>
</svg>